<?xml version="1.0" encoding="UTF-8"?>
<!DOCTYPE svg PUBLIC "-//W3C//DTD SVG 1.1//EN" "http://www.w3.org/Graphics/SVG/1.1/DTD/svg11.dtd">
<!-- Creator: CorelDRAW 2017 -->
<svg xmlns="http://www.w3.org/2000/svg" xml:space="preserve" width="143mm" height="143mm" version="1.1" style="shape-rendering:geometricPrecision; text-rendering:geometricPrecision; image-rendering:optimizeQuality; fill-rule:evenodd; clip-rule:evenodd"
viewBox="0 0 14300 14300"
 xmlns:xlink="http://www.w3.org/1999/xlink">
 <defs>
  <style type="text/css">
   <![CDATA[
    .str0 {stroke:white;stroke-width:150}
    .fil10 {fill:none;fill-rule:nonzero}
    .fil6 {fill:black}
    .fil7 {fill:black}
    .fil8 {fill:#1A1A1A}
    .fil4 {fill:#4D4D4D}
    .fil3 {fill:gray}
    .fil2 {fill:#B3B3B3}
    .fil0 {fill:#B56FA3}
    .fil5 {fill:#DE8066}
    .fil1 {fill:#F79C84}
    .fil11 {fill:white}
    .fil9 {fill:white;fill-rule:nonzero}
   ]]>
  </style>
 </defs>
 <g id="Слой_x0020_1">
  <metadata id="CorelCorpID_0Corel-Layer"/>
  <path class="fil0" d="M12252 13525c-520,-22 -1436,-61 -2130,-94 -693,-32 -1164,-57 -1417,-116 -254,-59 -291,-152 -314,-266 -23,-114 -32,-248 -146,-345 -114,-97 -333,-158 -1190,-195 -857,-37 -2351,-52 -3461,-78 -1109,-26 -1834,-64 -2225,-95 -391,-31 -450,-56 -495,-120 -46,-64 -79,-167 -94,-262 -15,-95 -10,-180 93,-252 104,-71 307,-128 1687,-166 1380,-38 3936,-59 5267,-32 1331,26 1437,100 1513,214 76,114 123,269 194,388 71,119 166,203 592,258 425,56 1181,83 1747,197 565,114 941,313 1168,471 227,158 305,276 276,356 -28,80 -163,124 -292,143 -129,19 -253,15 -773,-7z"/>
  <path class="fil1" d="M2110 6628c880,-54 2609,-48 3750,-28 1141,20 1693,53 1968,117 275,63 273,156 267,1017 -6,860 -14,2487 -37,3298 -23,811 -59,804 -1033,811 -974,6 -2884,25 -4000,24 -1116,-1 -1437,-22 -1613,-45 -176,-23 -207,-48 -222,-631 -15,-583 -15,-1724 -16,-2531 -1,-806 -3,-1278 12,-1571 14,-293 44,-406 924,-460z"/>
  <path class="fil2" d="M3687 4795c-15,-20 -23,-57 -41,-96 -18,-40 -47,-83 -82,-114 -35,-31 -76,-50 -127,-59 -51,-9 -112,-7 -169,6 -57,14 -112,39 -158,96 -46,57 -84,144 -97,374 -13,230 0,603 8,858 8,255 12,393 28,447 16,53 44,22 79,-16 35,-38 78,-82 118,-106 39,-24 74,-27 110,-22 36,5 73,18 107,39 34,22 66,52 74,97 8,45 -8,106 -40,167 -32,61 -80,121 -112,151 -33,30 -50,30 -183,31 -133,1 -382,2 -556,2 -174,0 -275,-2 -342,-20 -67,-18 -100,-53 -129,-100 -29,-46 -53,-104 -61,-159 -8,-56 0,-110 25,-148 26,-38 69,-61 118,-73 49,-12 105,-14 165,33 60,46 123,140 153,158 29,18 25,-41 22,-139 -2,-98 -2,-235 2,-439 4,-204 12,-475 23,-664 11,-190 26,-298 46,-390 21,-92 48,-169 110,-239 62,-70 159,-134 252,-176 92,-42 180,-63 276,-72 96,-9 202,-6 292,17 90,22 165,64 230,119 65,55 121,123 157,188 36,65 52,125 61,169 9,44 10,71 10,86 -1,15 -4,18 -26,20 -22,2 -64,2 -114,2 -50,0 -109,0 -150,-2 -41,-2 -63,-5 -78,-25z"/>
  <path class="fil3" d="M1494 5954c65,-6 184,-3 280,5 96,8 171,20 221,29 50,10 76,18 90,34 14,16 14,41 2,57 -13,16 -39,23 -117,37 -78,14 -207,35 -296,45 -89,11 -137,12 -176,6 -39,-5 -67,-16 -84,-35 -17,-19 -23,-45 -22,-70 0,-25 7,-49 16,-69 9,-20 21,-35 86,-41z"/>
  <path class="fil4" d="M2048 5958c19,-24 45,-44 76,-55 31,-12 68,-15 106,-7 38,8 78,26 105,53 27,27 41,64 43,106 2,42 -8,89 -30,122 -22,33 -55,52 -96,60 -40,8 -87,4 -125,-11 -38,-14 -68,-39 -86,-72 -19,-33 -27,-75 -25,-109 2,-35 13,-63 31,-86z"/>
  <path class="fil5" d="M2223 6776c215,0 620,1 1249,3 629,1 1482,3 2004,5 522,2 712,3 820,7 109,4 136,9 173,22 36,13 82,34 131,68 49,34 101,80 128,127 27,47 28,95 20,129 -8,34 -24,54 -68,67 -43,13 -114,19 -510,21 -396,2 -1119,0 -1843,-3 -724,-3 -1449,-6 -1889,-9 -439,-2 -592,-4 -683,-13 -92,-8 -122,-24 -142,-52 -21,-28 -31,-68 -21,-110 10,-42 42,-84 91,-125 49,-41 115,-80 163,-102 48,-22 79,-28 107,-31 28,-3 54,-4 270,-4z"/>
  <path class="fil3" d="M4153 5973c-65,-6 -184,-3 -280,5 -96,8 -171,20 -221,29 -50,10 -76,18 -90,34 -14,16 -14,41 -2,57 13,16 39,23 117,37 78,14 207,35 296,45 89,11 137,12 176,6 39,-5 67,-16 84,-35 17,-19 23,-45 22,-70 0,-25 -7,-49 -16,-69 -9,-20 -21,-35 -86,-41z"/>
  <path class="fil4" d="M3599 5978c-19,-24 -45,-44 -76,-55 -31,-12 -68,-15 -106,-7 -38,8 -78,26 -105,53 -27,27 -41,64 -43,106 -2,42 8,89 30,122 22,33 55,52 96,60 40,8 87,4 125,-11 38,-14 68,-39 86,-72 19,-33 27,-75 25,-109 -2,-35 -13,-63 -31,-86z"/>
  <g id="_1499424662512">
   <path class="fil6" d="M7803 5081c25,-23 81,-17 173,1 92,18 219,49 330,74 110,25 203,44 273,80 70,36 116,88 179,239 63,151 143,400 203,586 59,186 98,308 122,375 24,66 33,77 62,29 29,-48 78,-153 150,-286 72,-133 168,-293 237,-403 69,-110 112,-170 230,-238 118,-68 311,-143 430,-193 119,-50 163,-75 194,-116 31,-41 48,-97 57,-160 9,-63 9,-132 31,-188 22,-55 67,-96 131,-119 65,-23 150,-29 210,-12 60,17 95,58 114,129 19,71 23,171 37,244 14,72 37,117 106,165 70,48 186,101 319,175 133,74 284,171 391,294 106,123 168,272 229,416 61,144 122,284 161,348 39,64 56,53 90,-35 34,-88 85,-254 155,-437 70,-183 160,-384 229,-520 68,-136 115,-208 199,-264 84,-56 206,-97 304,-119 98,-22 171,-26 237,-31 66,-5 124,-11 160,-3 36,8 49,29 35,76 -15,47 -57,121 -137,182 -80,61 -198,109 -288,189 -90,80 -152,192 -222,387 -70,195 -149,471 -216,699 -67,227 -123,405 -185,532 -62,127 -130,202 -210,215 -80,13 -173,-38 -268,-127 -95,-89 -191,-218 -270,-335 -79,-117 -141,-224 -196,-325 -55,-101 -102,-198 -123,-158 -22,40 -18,216 -78,365 -60,149 -184,271 -363,337 -180,67 -416,78 -589,21 -173,-57 -283,-183 -357,-300 -74,-117 -112,-225 -145,-312 -33,-87 -61,-153 -94,-137 -33,16 -72,115 -133,251 -61,136 -146,310 -213,423 -67,113 -118,165 -188,194 -71,29 -161,35 -243,-1 -81,-36 -153,-113 -232,-273 -80,-160 -167,-404 -237,-636 -70,-232 -122,-452 -172,-593 -50,-141 -99,-203 -168,-259 -70,-56 -160,-106 -241,-159 -80,-52 -150,-106 -188,-159 -38,-53 -44,-105 -18,-129z"/>
   <path class="fil6" d="M10693 3183c169,4 352,42 503,160 151,119 270,318 320,510 50,191 31,375 1,520 -30,145 -71,251 -147,362 -77,111 -189,226 -305,296 -115,70 -233,94 -347,94 -114,0 -224,-23 -323,-75 -99,-53 -187,-135 -274,-255 -87,-119 -173,-276 -211,-467 -38,-191 -27,-418 32,-605 59,-187 167,-336 298,-425 131,-89 285,-119 453,-115z"/>
   <path class="fil6" d="M10024 3790c-82,38 -131,55 -164,61 -33,6 -50,2 -39,-56 11,-58 49,-170 95,-268 47,-97 102,-180 191,-247 90,-68 215,-121 320,-148 106,-27 192,-30 277,-23 85,6 167,21 234,40 67,19 117,42 161,50 43,7 79,-1 113,-10 34,-8 66,-17 123,-7 57,10 140,38 227,99 88,61 181,156 260,310 79,154 145,368 133,627 -12,259 -100,564 -149,763 -48,199 -56,292 6,333 63,40 196,28 252,34 56,6 35,32 -11,50 -45,18 -115,29 -164,33 -48,4 -75,1 -75,10 0,9 27,31 47,47 20,16 33,27 -1,30 -34,3 -114,-1 -204,-38 -90,-37 -190,-107 -247,-198 -57,-91 -72,-203 -89,-305 -17,-102 -36,-192 -47,-364 -11,-171 -13,-423 -53,-597 -40,-174 -118,-272 -272,-323 -153,-51 -382,-55 -554,-28 -172,28 -289,87 -371,125z"/>
   <path class="fil7" d="M10593 9488c0,277 -48,611 -61,953 -13,342 9,693 17,983 7,290 0,521 -6,720 -6,200 -10,369 -42,508 -32,139 -91,249 -235,300 -144,51 -373,43 -474,2 -102,-42 -76,-117 -17,-195 59,-78 152,-160 203,-232 51,-72 60,-136 61,-251 1,-115 -6,-280 -28,-430 -22,-150 -58,-284 -93,-499 -35,-215 -69,-511 -92,-790 -22,-279 -33,-541 -10,-868 23,-328 79,-721 147,-929 68,-208 148,-231 239,-199 91,32 193,120 268,274 75,154 124,376 124,653z"/>
   <path class="fil7" d="M10661 9499c0,277 48,611 61,953 13,342 -9,693 -17,983 -7,290 0,521 6,720 6,200 10,369 42,508 32,139 91,249 235,300 144,51 373,43 474,2 102,-42 76,-117 17,-195 -59,-78 -152,-160 -203,-232 -51,-72 -60,-136 -61,-251 -1,-115 6,-280 28,-430 22,-150 58,-284 93,-499 35,-215 69,-511 92,-790 22,-279 33,-541 10,-868 -23,-328 -79,-721 -147,-929 -68,-208 -148,-231 -239,-199 -91,32 -193,120 -268,274 -75,154 -124,376 -124,653z"/>
   <path class="fil4" d="M11542 6176c23,68 39,137 28,219 -10,82 -47,178 -95,247 -48,68 -109,110 -78,298 30,189 150,525 243,1027 93,502 157,1170 221,1612 64,443 127,660 140,763 13,103 -23,90 -274,127 -251,37 -717,123 -1110,98 -393,-25 -711,-160 -929,-259 -217,-100 -334,-165 -414,-215 -81,-50 -126,-84 -106,-129 20,-45 105,-100 170,-363 65,-263 110,-734 189,-1129 79,-395 193,-713 285,-982 92,-269 163,-488 193,-597 30,-109 18,-109 -3,-149 -20,-40 -49,-122 -78,-203 5,-104 9,-207 49,-305 40,-97 116,-189 128,-331 12,-142 -38,-335 -50,-439 -11,-104 17,-118 55,-134 38,-16 87,-33 124,-46 37,-13 63,-22 98,28 35,50 80,160 149,227 70,67 164,90 256,93 91,3 180,-14 236,-76 56,-61 79,-167 99,-222 20,-56 36,-61 59,-53 23,8 52,30 88,51 36,22 79,43 96,84 17,41 9,101 14,164 5,64 23,132 48,198 25,66 56,130 87,195 30,65 59,131 82,199z"/>
  </g>
  <path class="fil4" d="M6871 4117c-139,-31 -422,-73 -594,-98 -173,-25 -235,-34 -266,-26 -31,8 -31,32 -45,162 -14,131 -43,368 -69,554 -26,187 -50,323 -56,398 -5,75 8,88 120,115 112,27 323,69 474,93 151,25 243,32 298,10 55,-22 72,-75 90,-125 18,-50 37,-97 71,-126 34,-29 85,-40 144,-56 60,-16 128,-37 196,-79 67,-43 133,-107 180,-188 47,-81 75,-178 78,-250 2,-72 -22,-119 -72,-148 -50,-29 -127,-40 -188,-40 -62,-1 -109,9 -149,17 -40,8 -73,13 -89,-4 -16,-17 -16,-58 -13,-85 4,-27 11,-40 18,-57 7,-17 12,-38 -127,-69zm146 363c32,-22 92,-42 145,-49 53,-8 99,-3 125,15 26,18 31,50 28,97 -3,47 -15,109 -38,160 -23,51 -57,90 -111,120 -55,29 -130,49 -174,55 -44,5 -57,-3 -61,-42 -3,-38 3,-106 13,-158 10,-52 23,-90 31,-120 8,-31 11,-55 43,-76z"/>
  <path class="fil8" d="M5619 3973c-141,17 -422,72 -593,106 -171,34 -233,46 -260,64 -27,18 -19,40 11,168 30,128 82,361 120,546 37,185 60,322 80,394 20,72 36,80 151,69 115,-12 327,-43 478,-70 151,-27 240,-51 284,-90 44,-39 43,-95 44,-147 0,-53 2,-103 25,-142 23,-39 67,-66 117,-101 51,-35 109,-77 158,-140 49,-63 90,-145 107,-237 17,-92 12,-193 -10,-262 -22,-69 -60,-105 -117,-116 -57,-11 -133,5 -191,25 -58,20 -99,45 -134,65 -35,20 -64,37 -85,26 -21,-11 -35,-49 -40,-76 -5,-27 -2,-41 -2,-60 1,-18 -1,-40 -142,-23zm259 294c23,-31 73,-70 120,-95 47,-25 92,-36 122,-28 30,8 46,37 58,82 13,45 22,108 17,164 -5,56 -24,104 -65,150 -42,46 -106,90 -146,109 -40,20 -55,16 -71,-19 -16,-35 -32,-101 -40,-154 -8,-53 -8,-92 -11,-124 -2,-32 -7,-55 15,-86z"/>
  <path class="fil2" d="M4719 5213c280,-27 845,-60 1347,-85 501,-25 938,-43 1162,-50 224,-8 235,-5 227,25 -8,31 -34,90 -104,169 -70,80 -183,180 -386,259 -202,79 -493,135 -819,158 -327,23 -689,12 -946,-31 -257,-43 -407,-117 -514,-185 -107,-68 -170,-129 -205,-170 -35,-42 -42,-63 238,-91z"/>
  <path class="fil4" d="M4964 5503c439,-13 1324,-11 1814,-12 490,-1 587,-5 629,4 43,10 32,34 -17,86 -49,52 -137,133 -250,200 -114,67 -253,119 -488,152 -235,33 -565,46 -844,50 -280,4 -509,0 -670,-26 -161,-26 -252,-74 -341,-142 -88,-68 -174,-155 -220,-213 -46,-58 -52,-86 387,-99z"/>
  <path class="fil2" d="M4894 5879c399,-14 1204,-6 1716,-1 512,4 732,5 842,15 110,10 110,30 69,83 -40,54 -121,141 -250,210 -129,69 -306,119 -596,144 -291,25 -695,25 -990,15 -295,-10 -481,-29 -616,-59 -135,-29 -221,-69 -306,-125 -85,-56 -170,-128 -216,-181 -46,-54 -52,-88 347,-102z"/>
  <path class="fil4" d="M7355 6211c-221,4 -590,15 -1080,13 -490,-2 -1102,-17 -1425,-23 -323,-5 -358,-1 -367,13 -9,14 9,38 82,106 73,68 202,179 329,249 127,70 251,98 580,111 329,13 862,11 1185,7 323,-4 437,-11 565,-69 128,-58 270,-167 355,-244 85,-76 114,-120 92,-143 -22,-23 -94,-25 -315,-21z"/>
  <path class="fil8" d="M6891 5626c142,-6 428,2 602,8 174,5 237,8 266,21 29,13 25,37 16,168 -9,131 -22,369 -29,558 -7,188 -7,327 -15,402 -8,75 -23,85 -138,93 -115,7 -330,11 -483,9 -153,-2 -245,-11 -295,-42 -50,-32 -58,-86 -67,-138 -9,-52 -19,-102 -48,-136 -29,-35 -76,-54 -132,-80 -56,-26 -120,-58 -179,-112 -59,-54 -112,-129 -144,-216 -32,-88 -43,-188 -33,-260 10,-71 42,-113 97,-133 55,-20 132,-17 193,-7 61,10 105,28 143,43 38,15 69,26 88,11 19,-14 26,-54 27,-81 1,-27 -4,-41 -8,-59 -4,-18 -5,-39 137,-46zm-208 332c-27,-27 -83,-57 -134,-74 -51,-17 -97,-21 -125,-7 -28,13 -39,43 -44,90 -5,47 -4,110 10,164 14,54 40,99 89,137 49,39 119,71 162,84 43,13 57,7 67,-30 10,-37 15,-105 15,-158 -1,-53 -7,-92 -10,-124 -3,-32 -2,-56 -29,-83z"/>
  <path class="fil9" d="M10921 2120c-55,-19 -80,-34 -76,-46 4,-11 6,-20 8,-26 2,-5 9,-25 20,-59 11,-33 26,-61 44,-82 18,-21 34,-39 47,-55 13,-16 31,-31 53,-44 22,-13 41,-25 57,-34 16,-10 63,-30 140,-62 77,-32 130,-60 158,-85 29,-25 46,-46 52,-65 6,-18 15,-44 27,-77 12,-33 0,-84 -34,-152 -34,-68 -70,-109 -108,-122 -38,-13 -74,-26 -111,-38 -36,-12 -87,-4 -151,24 -64,29 -109,66 -133,111 -24,46 -65,55 -121,28 -56,-27 -69,-72 -38,-134 30,-62 97,-114 198,-156 102,-42 185,-51 249,-29 64,22 130,45 198,68 68,23 129,86 185,188 55,102 74,179 56,231 -18,52 -32,94 -43,124 -10,30 -39,66 -85,107 -46,41 -96,73 -150,95 -54,22 -99,41 -136,56 -36,15 -67,31 -92,49 -25,18 -47,40 -66,68 -19,28 -34,58 -46,92 -13,34 -46,41 -101,22zm-114 343c-65,-22 -86,-66 -63,-131 22,-64 66,-86 131,-63 65,22 86,66 63,131 -22,64 -66,86 -131,63z"/>
  <path id="1" class="fil9" d="M11742 2409c-36,-13 -21,-145 47,-396 68,-251 119,-428 155,-530 35,-103 88,-142 159,-117 70,24 88,88 52,190 -35,103 -104,274 -205,513 -101,240 -170,353 -207,340zm-121 344c-65,-23 -87,-66 -64,-131 22,-65 66,-86 132,-63 65,23 87,66 64,131 -22,65 -66,86 -132,63z"/>
  <path id="2" class="fil10 str0" d="M10921 2120c-55,-19 -80,-34 -76,-46 4,-11 6,-20 8,-26 2,-5 9,-25 20,-59 11,-33 26,-61 44,-82 18,-21 34,-39 47,-55 13,-16 31,-31 53,-44 22,-13 41,-25 57,-34 16,-10 63,-30 140,-62 77,-32 130,-60 158,-85 29,-25 46,-46 52,-65 6,-18 15,-44 27,-77 12,-33 0,-84 -34,-152 -34,-68 -70,-109 -108,-122 -38,-13 -74,-26 -111,-38 -36,-12 -87,-4 -151,24 -64,29 -109,66 -133,111 -24,46 -65,55 -121,28 -56,-27 -69,-72 -38,-134 30,-62 97,-114 198,-156 102,-42 185,-51 249,-29 64,22 130,45 198,68 68,23 129,86 185,188 55,102 74,179 56,231 -18,52 -32,94 -43,124 -10,30 -39,66 -85,107 -46,41 -96,73 -150,95 -54,22 -99,41 -136,56 -36,15 -67,31 -92,49 -25,18 -47,40 -66,68 -19,28 -34,58 -46,92 -13,34 -46,41 -101,22zm-114 343c-65,-22 -86,-66 -63,-131 22,-64 66,-86 131,-63 65,22 86,66 63,131 -22,64 -66,86 -131,63z"/>
  <path id="3" class="fil10 str0" d="M11742 2409c-36,-13 -21,-145 47,-396 68,-251 119,-428 155,-530 35,-103 88,-142 159,-117 70,24 88,88 52,190 -35,103 -104,274 -205,513 -101,240 -170,353 -207,340zm-121 344c-65,-23 -87,-66 -64,-131 22,-65 66,-86 132,-63 65,23 87,66 64,131 -22,65 -66,86 -132,63z"/>
  <path class="fil11" d="M9964 2647c-49,-121 -170,-390 -259,-561 -88,-170 -144,-241 -178,-257 -33,-16 -45,23 1,127 46,104 149,272 231,409 83,137 145,242 188,309 43,67 65,95 16,-26z"/>
  <path class="fil11" d="M9653 2824c-44,-55 -225,-235 -344,-341 -119,-106 -175,-137 -201,-133 -25,5 -20,45 53,116 72,71 211,172 327,257 116,85 209,155 165,100z"/>
  <path class="fil11" d="M12342 3103c85,-93 301,-307 431,-411 130,-104 172,-97 163,-65 -9,33 -71,92 -177,183 -106,90 -256,211 -355,285 -99,74 -147,101 -62,8z"/>
  <path class="fil5" d="M7161 5068c-114,-1 -330,8 -679,21 -349,13 -832,29 -1159,49 -327,20 -499,42 -582,65 -83,23 -77,45 -62,73 14,28 37,61 58,89 21,29 41,53 58,58 17,5 32,-10 45,-35 13,-25 23,-60 57,-83 34,-23 91,-34 129,-31 38,4 55,22 71,35 16,13 29,21 44,13 15,-8 32,-33 52,-53 20,-21 42,-38 104,-49 62,-12 162,-18 330,-29 168,-11 403,-26 521,-22 118,4 120,26 130,59 9,32 26,75 59,95 33,20 82,18 112,-4 30,-23 41,-66 63,-97 22,-32 55,-51 112,-65 57,-14 138,-21 231,-28 93,-7 198,-14 274,-20 76,-6 122,-12 139,-20 17,-8 6,-18 -108,-19z"/>
  <path class="fil5" d="M4855 5666c16,36 34,106 44,159 10,54 13,92 3,125 -10,33 -33,61 -62,69 -28,8 -62,-3 -80,-25 -18,-22 -21,-54 -17,-104 4,-50 15,-117 25,-163 11,-46 21,-72 28,-86 7,-14 10,-16 19,-16 9,0 24,4 40,40z"/>
 </g>
</svg>
