<?xml version="1.0" encoding="UTF-8"?>
<!DOCTYPE svg PUBLIC "-//W3C//DTD SVG 1.1//EN" "http://www.w3.org/Graphics/SVG/1.1/DTD/svg11.dtd">
<!-- Creator: CorelDRAW 2017 -->
<svg xmlns="http://www.w3.org/2000/svg" xml:space="preserve" width="143mm" height="143mm" version="1.1" style="shape-rendering:geometricPrecision; text-rendering:geometricPrecision; image-rendering:optimizeQuality; fill-rule:evenodd; clip-rule:evenodd"
viewBox="0 0 14300 14300"
 xmlns:xlink="http://www.w3.org/1999/xlink">
 <defs>
  <style type="text/css">
   <![CDATA[
    .str0 {stroke:white;stroke-width:150}
    .fil1 {fill:none}
    .fil2 {fill:black}
    .fil4 {fill:gray}
    .fil0 {fill:#A60000}
    .fil6 {fill:#CCCCCC}
    .fil5 {fill:#FFD663}
    .fil3 {fill:white}
   ]]>
  </style>
 </defs>
 <g id="Слой_x0020_1">
  <metadata id="CorelCorpID_0Corel-Layer"/>
  <path class="fil0" d="M8711 7331c186,-229 420,-519 686,-835 267,-316 566,-657 778,-950 212,-293 336,-537 366,-745 30,-209 -34,-382 -158,-429 -124,-47 -307,31 -432,37 -125,6 -192,-61 -346,-166 -154,-104 -395,-246 -607,-378 -212,-133 -396,-256 -548,-349 -152,-93 -272,-155 -428,-311 -157,-157 -351,-409 -507,-594 -157,-186 -276,-305 -415,-333 -139,-28 -297,37 -394,192 -97,155 -133,401 -90,654 43,253 166,514 221,742 54,228 40,423 -33,554 -72,130 -203,195 -329,239 -127,43 -250,65 -344,211 -94,146 -159,416 -320,604 -161,188 -418,292 -715,356 -297,64 -634,87 -824,276 -190,189 -233,543 -221,799 13,255 82,412 46,640 -36,228 -178,528 -285,779 -107,251 -179,454 -159,614 21,160 135,277 128,419 -7,142 -134,310 -185,521 -51,211 -26,467 234,567 260,100 755,45 1046,-26 291,-71 378,-158 466,-152 88,5 178,103 247,364 69,261 116,684 245,834 129,150 339,27 476,-165 137,-192 203,-452 323,-667 120,-215 295,-385 472,-498 177,-113 357,-171 513,-298 156,-127 289,-324 390,-659 101,-335 170,-807 274,-1127 104,-320 243,-488 429,-718z"/>
  <path class="fil1 str0" d="M11800 2893l-1070 -575 -701 1064c-279,-210 -731,-496 -1010,-706 -358,-204 -868,-284 -1238,-103 -316,217 -486,494 -616,1009l90 1134 -1718 412 0 2414 -972 1689c-769,99 -1122,-16 -1942,321 -558,464 -553,1121 -764,1782l1053 499 437 -856 2188 121 1176 -1585 407 391c53,905 -50,1850 257,2619 654,213 1288,240 1981,312l242 -1141 -949 -174 30 -2919 -407 -1085 158 -760 1989 -1259 1379 -2605z"/>
  <path class="fil2" d="M8302 5552c79,39 224,-11 368,-71 143,-61 284,-132 495,-283 211,-150 491,-379 729,-715 238,-336 433,-778 596,-1066 163,-288 295,-423 383,-419 88,4 131,148 57,446 -74,298 -265,750 -480,1117 -216,367 -457,648 -714,866 -257,218 -531,374 -830,527 -299,153 -623,304 -859,492 -236,188 -382,414 -513,624 -131,210 -246,405 -336,593 -90,188 -155,370 -61,565 95,195 349,402 559,574 210,173 375,311 474,461 99,149 132,309 118,637 -14,328 -75,823 -106,1142 -31,319 -32,461 2,568 35,107 105,178 257,243 152,65 385,122 496,191 111,69 99,149 7,237 -92,88 -263,184 -485,195 -222,11 -495,-63 -674,-149 -180,-86 -267,-183 -313,-350 -46,-167 -52,-403 -40,-743 12,-340 41,-783 25,-1074 -16,-291 -76,-431 -181,-562 -104,-131 -253,-252 -398,-354 -145,-102 -287,-185 -387,-169 -100,17 -157,134 -233,284 -77,150 -173,333 -262,496 -90,163 -173,305 -256,434 -83,129 -166,246 -296,316 -130,70 -307,94 -588,91 -282,-3 -668,-33 -953,-63 -285,-30 -467,-61 -613,-39 -146,23 -255,99 -322,206 -67,107 -91,244 -130,338 -39,94 -92,146 -173,136 -81,-10 -191,-80 -252,-207 -61,-127 -73,-311 -15,-518 57,-208 183,-440 286,-574 103,-134 182,-170 400,-169 217,2 573,41 877,58 305,17 558,12 732,-11 174,-23 269,-64 377,-187 108,-123 228,-328 329,-519 101,-192 181,-370 206,-484 25,-114 -4,-165 -41,-277 -36,-112 -79,-286 -65,-482 14,-196 85,-414 196,-689 111,-276 261,-609 484,-954 223,-345 520,-702 747,-900 227,-198 386,-239 495,-269 109,-30 169,-50 192,-136 23,-86 8,-237 2,-439 -6,-202 -2,-454 53,-665 55,-211 161,-381 324,-505 162,-125 381,-204 600,-208 220,-4 441,67 588,213 147,146 220,366 219,617 -1,251 -77,533 -182,732 -105,198 -239,313 -378,393 -139,80 -283,126 -391,147 -107,22 -177,19 -206,82 -29,63 -17,190 62,229z"/>
  <path class="fil3" d="M9928 6723c-18,-75 -88,-107 -563,-201 -475,-94 -1354,-251 -2020,-389 -666,-138 -1118,-259 -1441,-342 -323,-84 -516,-130 -620,-124 -103,7 -117,67 -217,471 -100,404 -287,1151 -407,1629 -120,477 -174,684 -194,804 -20,120 -7,154 401,243 407,89 1209,234 1843,354 634,120 1101,215 1503,301 402,85 739,160 911,184 172,24 179,-3 240,-260 62,-258 179,-747 274,-1178 95,-431 169,-805 222,-1051 53,-246 87,-365 68,-440z"/>
  <path class="fil3" d="M8253 3676c166,144 223,188 170,413 -84,-165 -117,-229 -170,-413z"/>
  <path class="fil3" d="M8200 4013c146,-220 116,-135 218,-353 110,194 -51,295 -218,353z"/>
  <path class="fil3" d="M8805 3873c166,144 223,188 170,413 -84,-165 -117,-229 -170,-413z"/>
  <path class="fil3" d="M8751 4210c146,-220 116,-135 218,-353 110,194 -51,295 -218,353z"/>
  <path class="fil4" d="M4846 8136c181,-107 503,-275 744,-392 241,-117 400,-182 543,-233 143,-52 270,-90 386,-128 117,-39 223,-79 320,-83 97,-5 184,26 247,81 63,55 103,135 147,230 44,95 93,205 131,333 38,128 65,272 108,366 43,94 100,137 171,150 71,13 154,-5 254,-34 100,-29 218,-69 311,-73 93,-5 162,26 222,74 60,48 110,112 167,194 57,82 120,183 186,286 66,104 135,210 201,294 66,84 129,146 153,195 24,50 7,88 -297,52 -304,-36 -896,-147 -1597,-299 -702,-152 -1514,-346 -1963,-452 -449,-107 -534,-126 -592,-148 -58,-22 -88,-45 -101,-82 -12,-36 -7,-85 15,-132 22,-47 62,-92 243,-199z"/>
  <path class="fil5" d="M9694 6484c31,-38 94,-84 176,-91 82,-7 184,24 270,77 86,53 157,129 168,220 12,90 -35,195 -97,251 -62,55 -138,61 -184,98 -46,37 -62,106 -50,156 13,51 54,83 83,137 29,54 45,130 26,186 -19,56 -73,92 -115,111 -42,19 -71,21 -86,52 -15,32 -17,93 2,142 19,49 59,85 81,139 22,54 25,127 4,179 -22,52 -69,85 -110,90 -42,5 -78,-19 -101,5 -24,24 -34,94 -42,150 -7,56 -11,98 8,134 19,36 61,67 80,106 19,39 15,86 -16,121 -32,35 -91,59 -129,80 -38,21 -54,39 -65,80 -11,41 -16,104 -2,160 14,56 49,105 67,157 18,52 20,106 -10,138 -30,33 -91,43 -134,53 -43,10 -66,19 -56,56 10,37 53,102 79,169 25,67 33,136 8,201 -24,65 -81,127 -147,163 -67,36 -145,47 -207,40 -62,-7 -109,-33 -154,-79 -44,-46 -86,-113 -106,-164 -20,-51 -18,-85 -35,-103 -17,-18 -53,-20 -101,6 -48,26 -108,81 -171,99 -63,18 -130,0 -175,-33 -44,-33 -66,-82 -91,-118 -25,-36 -53,-59 -128,-50 -75,9 -197,50 -275,73 -78,23 -113,29 -143,13 -31,-15 -58,-52 -80,-93 -22,-42 -38,-89 -70,-124 -32,-35 -79,-59 -172,-51 -93,8 -232,48 -330,70 -98,22 -154,25 -193,0 -39,-25 -61,-80 -95,-124 -34,-44 -81,-79 -126,-86 -44,-7 -86,13 -127,36 -41,24 -81,51 -126,62 -45,12 -96,8 -136,-21 -40,-29 -69,-83 -102,-123 -33,-40 -71,-65 -124,-71 -52,-5 -119,9 -186,40 -67,31 -134,78 -185,90 -51,12 -85,-12 -137,-54 -52,-42 -123,-103 -174,-147 -52,-44 -84,-72 -126,-84 -42,-11 -92,-6 -138,18 -45,24 -85,68 -147,81 -62,13 -145,-5 -196,-42 -52,-37 -71,-93 -99,-127 -27,-33 -62,-44 -116,-22 -54,23 -128,79 -206,103 -78,24 -159,17 -224,-41 -65,-58 -114,-166 -109,-264 5,-98 62,-185 134,-242 71,-57 157,-84 235,-85 79,-1 151,24 289,55 138,31 343,67 1053,224 710,157 1926,436 2566,572 640,136 706,128 778,16 72,-112 152,-329 239,-754 87,-425 181,-1058 229,-1412 48,-354 50,-429 51,-467 1,-38 1,-38 0,-53 -1,-16 -3,-47 28,-86z"/>
  <path class="fil5" d="M4626 8804c-31,38 -94,84 -180,64 -86,-19 -195,-103 -233,-177 -38,-74 -5,-138 38,-189 43,-51 97,-90 123,-125 26,-36 24,-68 12,-107 -13,-38 -36,-83 -62,-120 -26,-37 -54,-67 -75,-133 -21,-66 -36,-167 -17,-236 20,-69 74,-105 116,-124 42,-19 71,-21 86,-52 15,-32 17,-93 -2,-142 -19,-49 -59,-85 -81,-139 -22,-54 -25,-127 -4,-179 22,-52 69,-85 110,-90 42,-5 78,19 101,-5 24,-24 34,-94 42,-150 7,-56 11,-98 -8,-134 -19,-36 -61,-67 -80,-106 -19,-39 -15,-86 16,-121 32,-35 91,-59 129,-80 38,-21 54,-39 65,-80 11,-41 16,-104 2,-160 -14,-56 -49,-105 -67,-156 -18,-52 -20,-106 10,-138 30,-33 91,-43 134,-53 43,-10 66,-19 56,-56 -10,-37 -53,-102 -79,-169 -25,-67 -33,-136 -8,-201 24,-65 81,-127 147,-163 67,-36 145,-47 207,-40 62,7 109,33 154,79 44,46 86,113 106,164 20,51 18,85 35,103 17,18 53,20 101,-6 48,-26 108,-81 171,-99 63,-18 130,0 175,33 44,33 66,82 91,118 25,36 53,59 128,50 75,-9 197,-50 275,-73 78,-23 113,-29 143,-13 31,15 58,52 80,93 22,42 38,89 70,124 32,35 79,59 172,51 93,-8 232,-48 330,-70 98,-22 154,-25 193,0 39,25 61,80 95,124 34,44 81,79 126,86 44,7 86,-13 127,-36 41,-24 81,-51 126,-62 45,-12 96,-8 136,21 40,29 69,83 102,123 33,40 71,65 124,71 52,5 119,-9 186,-40 67,-31 134,-78 185,-90 51,-12 85,12 137,54 52,42 123,103 174,147 52,44 84,72 126,84 42,11 92,6 138,-18 45,-24 85,-68 147,-81 62,-13 145,5 196,42 52,37 71,93 125,150 54,57 141,114 174,198 33,84 11,196 -11,307 -246,-45 -493,-91 -1224,-253 -731,-162 -1947,-441 -2587,-576 -640,-136 -706,-128 -778,-16 -72,112 -152,329 -239,754 -87,425 -181,1058 -229,1412 -48,354 -50,429 -51,467 -1,38 -1,38 0,53 1,16 3,47 -28,86z"/>
  <path class="fil2" d="M7475 5134c-46,-55 -155,-27 -385,32 -229,58 -579,147 -797,256 -218,109 -304,239 -308,508 -4,269 74,678 200,1112 126,434 301,892 462,1141 161,249 307,289 348,168 41,-121 -23,-404 -105,-730 -82,-325 -183,-693 -251,-943 -68,-250 -104,-383 -102,-481 2,-98 43,-161 158,-256 115,-94 303,-220 447,-305 144,-85 245,-129 303,-219 59,-90 75,-227 29,-282z"/>
  <path class="fil6" d="M8765 7106c59,21 128,62 172,137 44,74 64,181 53,261 -11,81 -52,135 -124,165 -71,30 -173,35 -258,17 -85,-18 -154,-60 -199,-109 -45,-49 -67,-105 -72,-161 -5,-56 5,-112 35,-159 30,-47 79,-85 121,-112 43,-27 79,-43 121,-52 43,-8 91,-8 150,13z"/>
  <path class="fil0" d="M6175 2343c2,-42 -74,-226 -175,-356 -101,-130 -228,-206 -322,-226 -94,-20 -156,16 -134,74 22,58 127,138 219,199 92,62 172,105 251,177 80,72 159,174 161,132z"/>
  <path class="fil0" d="M5967 1545c-14,-58 -68,-200 -130,-280 -62,-80 -132,-98 -148,-77 -16,21 21,83 71,149 49,67 110,139 153,188 43,50 69,77 55,19z"/>
  <path class="fil0" d="M11300 4876c114,-112 277,-279 454,-353 177,-74 369,-56 476,-18 107,38 128,96 87,172 -42,76 -147,170 -291,224 -145,54 -329,69 -472,105 -143,36 -244,94 -320,114 -76,20 -127,2 -119,-36 7,-38 72,-96 186,-208z"/>
  <path class="fil0" d="M12097 4086c62,-34 162,-78 225,-83 63,-5 90,27 76,61 -14,33 -71,68 -148,96 -78,28 -177,50 -238,71 -61,21 -82,41 -81,31 2,-10 27,-50 52,-82 25,-33 51,-58 113,-92z"/>
  <path class="fil0" d="M10814 5403c103,16 251,60 351,119 99,60 150,136 98,186 -52,51 -208,76 -320,43 -112,-33 -181,-123 -248,-185 -67,-62 -132,-94 -148,-116 -16,-22 16,-33 62,-43 45,-11 103,-22 206,-5z"/>
  <path class="fil0" d="M6412 11677c60,-43 137,-100 204,-68 67,33 123,156 150,242 27,86 25,135 -48,156 -73,21 -218,14 -338,-5 -120,-19 -216,-50 -304,-83 -88,-33 -167,-70 -162,-104 5,-34 96,-67 169,-73 73,-6 129,14 178,10 49,-4 90,-31 150,-73z"/>
 </g>
</svg>
