<?xml version="1.0" encoding="UTF-8"?>
<!DOCTYPE svg PUBLIC "-//W3C//DTD SVG 1.1//EN" "http://www.w3.org/Graphics/SVG/1.1/DTD/svg11.dtd">
<!-- Creator: CorelDRAW 2017 -->
<svg xmlns="http://www.w3.org/2000/svg" xml:space="preserve" width="143mm" height="143mm" version="1.1" style="shape-rendering:geometricPrecision; text-rendering:geometricPrecision; image-rendering:optimizeQuality; fill-rule:evenodd; clip-rule:evenodd"
viewBox="0 0 14300 14300"
 xmlns:xlink="http://www.w3.org/1999/xlink">
 <defs>
  <style type="text/css">
   <![CDATA[
    .fil1 {fill:black}
    .fil2 {fill:black}
    .fil8 {fill:#3AB54B}
    .fil3 {fill:#4D4D4D}
    .fil9 {fill:red}
    .fil0 {fill:#FF9933}
    .fil5 {fill:#FFD663}
    .fil4 {fill:white}
    .fil6 {fill:white}
    .fil7 {fill:white;fill-rule:nonzero}
   ]]>
  </style>
 </defs>
 <g id="Слой_x0020_1">
  <metadata id="CorelCorpID_0Corel-Layer"/>
  <g id="_1499526997168">
   <path class="fil0" d="M8346 12769c57,-49 143,-112 249,-165 106,-53 233,-96 368,-125 134,-29 276,-44 382,-42 106,3 176,24 254,51 78,27 163,60 205,95 42,35 42,71 28,141 -13,70 -39,175 -70,239 -31,64 -66,87 -203,92 -137,5 -376,-9 -582,-16 -206,-8 -379,-9 -489,-17 -110,-7 -158,-20 -191,-43 -33,-23 -50,-57 -44,-91 6,-34 35,-70 93,-119z"/>
   <path class="fil0" d="M10507 12616c88,-28 260,-54 436,-89 176,-34 356,-76 497,-96 141,-20 243,-18 347,1 104,19 210,54 291,90 81,36 135,73 180,130 44,57 78,135 112,199 34,65 69,116 50,165 -18,49 -90,94 -365,112 -276,18 -755,9 -1023,-3 -268,-12 -325,-27 -389,-80 -64,-54 -134,-147 -174,-211 -40,-64 -50,-99 -52,-130 -2,-32 3,-60 91,-88z"/>
   <path class="fil0" d="M9723 11731c122,6 352,45 540,57 188,12 333,-3 454,-6 121,-3 217,6 358,37 141,30 326,81 440,151 114,69 156,157 91,212 -65,54 -237,75 -446,108 -210,33 -457,78 -610,101 -153,23 -212,25 -287,11 -75,-14 -166,-43 -288,-66 -122,-23 -275,-39 -404,-53 -129,-14 -234,-25 -304,-40 -70,-16 -104,-36 -71,-95 33,-60 132,-158 207,-226 74,-68 123,-104 154,-136 31,-32 45,-59 168,-52z"/>
   <path class="fil0" d="M9216 11769c-63,123 -277,281 -400,366 -123,85 -157,96 -258,76 -101,-20 -270,-71 -409,-109 -139,-37 -248,-60 -342,-76 -94,-15 -172,-23 -241,-26 -69,-3 -129,-1 -165,-35 -36,-34 -48,-103 -39,-188 9,-85 40,-185 90,-265 50,-80 121,-141 252,-177 132,-37 324,-49 487,-65 163,-16 295,-34 396,-35 101,-1 170,15 251,57 81,42 175,110 265,188 90,78 177,165 114,288z"/>
   <path class="fil0" d="M10897 11191c-136,-58 -402,-126 -611,-178 -209,-51 -360,-86 -498,-85 -138,1 -264,38 -341,81 -78,44 -107,94 -127,171 -20,77 -29,181 -3,232 26,51 88,49 223,76 135,27 343,82 511,116 169,34 298,47 409,49 111,2 205,-7 300,-18 95,-12 191,-26 239,-75 48,-49 46,-131 43,-197 -3,-65 -8,-114 -144,-172z"/>
   <path class="fil0" d="M8079 12385c-84,-29 -233,-79 -388,-121 -155,-42 -315,-77 -454,-115 -139,-38 -257,-79 -381,-100 -124,-21 -253,-22 -343,1 -90,23 -140,70 -222,155 -82,85 -196,208 -274,308 -79,100 -122,177 -154,231 -32,54 -52,83 27,104 79,20 258,31 529,40 270,9 633,16 884,22 252,6 393,12 482,-4 89,-16 126,-55 179,-106 53,-51 122,-114 173,-171 51,-57 85,-107 93,-139 7,-31 -12,-44 -31,-55 -19,-11 -36,-20 -120,-50z"/>
   <path class="fil0" d="M7534 10956c-85,-3 -252,-47 -398,-81 -145,-34 -268,-57 -388,-70 -120,-13 -237,-15 -330,-21 -93,-6 -162,-17 -198,-41 -36,-25 -38,-64 -14,-120 24,-56 75,-129 118,-179 43,-50 78,-78 170,-93 92,-15 241,-16 343,-12 102,5 158,17 243,55 86,38 202,104 298,167 96,63 171,125 209,178 37,53 36,98 35,140 -2,41 -4,79 -89,76z"/>
   <path class="fil0" d="M7297 11197c-37,-41 -110,-83 -212,-109 -102,-27 -235,-38 -359,-47 -125,-8 -242,-14 -324,16 -82,30 -128,95 -182,170 -54,75 -116,159 -160,228 -44,68 -71,120 -52,152 19,31 83,41 236,57 153,16 395,37 543,52 148,16 202,26 246,14 45,-11 80,-44 112,-99 33,-55 63,-133 94,-189 31,-57 63,-92 79,-129 16,-37 15,-76 -22,-117z"/>
   <path class="fil0" d="M8871 11029c3,20 -6,35 -91,40 -85,5 -246,1 -423,-10 -177,-11 -371,-28 -480,-44 -109,-16 -133,-30 -144,-73 -11,-43 -10,-115 6,-162 16,-47 46,-69 138,-76 91,-7 243,0 372,24 130,24 237,65 331,106 94,41 174,82 223,115 48,33 64,59 68,79z"/>
   <path class="fil0" d="M9601 10766c-48,27 -155,55 -241,82 -86,27 -151,53 -263,39 -112,-13 -270,-66 -385,-114 -115,-48 -186,-92 -222,-167 -35,-76 -35,-184 -14,-299 21,-115 61,-238 95,-303 33,-65 59,-72 139,-67 80,5 213,21 330,38 117,17 217,36 282,96 65,60 93,161 138,271 45,110 106,228 142,300 36,72 48,98 0,125z"/>
   <path class="fil0" d="M10515 10862c-114,-18 -327,-52 -455,-70 -128,-17 -172,-18 -213,-48 -41,-30 -79,-89 -124,-180 -45,-90 -98,-212 -117,-275 -19,-64 -6,-69 57,-61 63,9 175,32 304,95 128,63 273,167 395,253 122,86 221,154 285,196 64,43 92,60 105,74 13,15 12,27 -7,32 -18,6 -53,5 -78,4 -25,-1 -40,-3 -154,-21z"/>
   <path class="fil0" d="M8319 9891c-121,-19 -356,-40 -532,-36 -176,3 -291,31 -370,62 -78,31 -120,65 -159,123 -39,59 -77,142 -97,197 -20,55 -22,82 54,112 76,30 230,63 400,90 170,27 356,49 468,62 112,13 149,16 187,-51 38,-68 77,-207 107,-303 30,-96 51,-150 59,-185 8,-35 2,-52 -119,-71z"/>
   <path class="fil0" d="M7077 9958c-43,-12 -134,-21 -210,-32 -75,-11 -135,-25 -183,-15 -48,10 -84,44 -125,94 -41,50 -88,116 -108,156 -21,40 -16,55 40,61 56,7 163,6 245,7 82,1 140,3 187,-21 47,-25 83,-77 113,-116 30,-39 53,-65 66,-86 14,-21 18,-37 -26,-49z"/>
   <path class="fil0" d="M8465 9694c-113,-3 -294,-8 -467,-27 -173,-19 -338,-52 -441,-83 -103,-32 -145,-63 -196,-109 -52,-46 -114,-109 -127,-155 -14,-47 21,-79 74,-108 53,-30 125,-58 201,-69 76,-11 155,-5 262,13 106,18 240,49 364,92 124,43 239,99 320,143 81,44 130,78 168,119 39,42 68,92 74,124 6,32 -11,47 -42,55 -31,8 -76,8 -189,6z"/>
   <path class="fil0" d="M7290 9597c-37,-46 -128,-112 -190,-153 -62,-41 -97,-57 -181,-54 -84,3 -219,24 -330,32 -111,8 -200,1 -250,18 -50,16 -61,55 -60,87 2,32 16,56 78,80 62,24 171,47 286,74 115,27 234,58 328,75 94,17 161,20 211,7 50,-13 82,-41 106,-67 24,-27 39,-52 2,-98z"/>
   <path class="fil0" d="M6402 9863c-61,-27 -189,-60 -287,-87 -98,-26 -165,-46 -232,-58 -67,-12 -133,-17 -215,-17 -82,0 -180,6 -221,30 -41,24 -25,66 49,113 75,47 208,97 340,152 132,55 261,115 340,145 79,30 108,32 133,9 25,-22 46,-69 69,-109 23,-41 47,-75 62,-103 16,-28 23,-49 -38,-76z"/>
   <path class="fil0" d="M6137 9335c-5,44 -45,115 -76,161 -31,46 -52,67 -118,71 -66,4 -176,-9 -300,-24 -123,-14 -260,-30 -349,-47 -89,-17 -131,-37 -189,-56 -58,-19 -132,-37 -173,-64 -41,-27 -48,-63 0,-98 48,-35 152,-68 251,-94 99,-26 194,-46 291,-46 97,0 195,19 297,42 102,23 207,49 275,71 67,22 96,40 91,84z"/>
   <path class="fil0" d="M7209 9118c-86,41 -248,105 -368,141 -121,36 -200,44 -290,38 -90,-6 -191,-27 -315,-66 -123,-39 -269,-96 -386,-134 -117,-39 -205,-59 -235,-88 -30,-29 0,-66 59,-98 59,-32 147,-60 268,-82 121,-22 274,-39 449,-38 176,0 374,18 518,47 144,29 234,71 293,107 58,36 85,66 93,90 9,24 -1,43 -87,84z"/>
   <path class="fil0" d="M5176 8913c-59,-8 -167,-22 -277,-39 -111,-17 -224,-36 -316,-60 -92,-24 -164,-51 -244,-61 -80,-10 -168,-2 -252,9 -84,11 -165,25 -208,66 -43,41 -49,108 -35,159 14,51 48,84 164,111 116,26 313,45 470,55 157,10 272,10 354,1 81,-10 128,-30 180,-54 51,-24 107,-51 148,-81 42,-30 69,-61 78,-79 9,-17 -1,-20 -60,-28z"/>
   <path class="fil0" d="M5635 8731c-52,25 -100,52 -193,64 -93,12 -230,9 -368,-9 -138,-18 -275,-50 -393,-77 -118,-27 -216,-50 -258,-71 -42,-20 -29,-38 27,-72 56,-34 156,-85 342,-94 186,-9 459,24 640,52 181,28 269,51 315,73 46,22 50,44 24,66 -26,22 -83,43 -136,68z"/>
   <path class="fil0" d="M4214 8589c-40,18 -99,43 -178,55 -79,12 -178,11 -307,7 -128,-4 -286,-12 -379,-25 -93,-13 -121,-33 -142,-52 -21,-20 -34,-39 -3,-75 30,-36 104,-87 177,-118 72,-32 143,-44 282,-42 139,2 345,19 469,29 124,10 166,14 186,35 20,21 18,58 10,86 -7,27 -20,44 -36,58 -17,14 -38,25 -78,43z"/>
  </g>
  <g id="_1499526996016">
   <path class="fil1" d="M3550 3882c151,31 309,95 425,227 116,131 190,330 203,510 13,180 -34,342 -84,467 -51,125 -105,214 -192,301 -87,87 -207,172 -322,216 -115,44 -225,46 -327,28 -102,-18 -198,-57 -278,-121 -80,-64 -145,-152 -204,-273 -58,-121 -110,-276 -113,-454 -2,-178 44,-380 128,-538 84,-159 205,-274 337,-332 132,-58 275,-60 426,-29z"/>
   <path class="fil1" d="M2850 4317c-80,21 -127,28 -157,28 -30,0 -45,-6 -26,-57 19,-50 72,-145 129,-225 58,-80 121,-145 212,-191 92,-46 212,-73 312,-80 99,-7 178,5 253,25 75,20 147,46 203,74 57,28 98,57 136,71 38,14 71,12 103,10 32,-2 62,-4 111,14 50,18 119,57 188,126 69,69 137,170 193,301 56,131 100,294 124,516 24,222 27,504 17,686 -10,182 -32,265 18,311 50,46 171,57 221,72 49,15 26,34 -18,43 -44,9 -108,7 -152,3 -44,-4 -68,-12 -69,-3 -2,8 19,32 34,50 15,18 25,29 -6,27 -31,-3 -102,-20 -186,-59 -84,-39 -180,-101 -272,-197 -91,-96 -177,-225 -220,-329 -43,-103 -43,-181 -46,-323 -3,-142 -9,-350 -40,-503 -30,-154 -85,-254 -214,-325 -129,-71 -334,-112 -493,-116 -159,-4 -273,30 -354,51z"/>
   <path class="fil2" d="M3284 9551c-5,253 33,558 39,871 6,312 -21,632 -32,897 -12,265 -9,475 -7,657 2,182 3,337 30,464 27,128 79,229 209,278 131,49 339,46 433,10 93,-36 71,-105 19,-178 -53,-73 -136,-148 -181,-215 -45,-67 -52,-125 -51,-230 1,-105 11,-256 33,-392 22,-136 58,-258 93,-454 36,-196 72,-465 97,-719 25,-254 40,-493 24,-792 -15,-299 -59,-659 -118,-850 -59,-191 -131,-214 -215,-186 -84,28 -178,106 -249,246 -71,140 -120,341 -125,594z"/>
   <path class="fil2" d="M3221 9560c-5,253 -55,556 -73,868 -18,312 -4,632 -2,897 2,265 -9,475 -18,657 -9,182 -16,336 -47,463 -31,127 -88,226 -220,270 -132,44 -341,33 -433,-7 -92,-40 -67,-108 -12,-178 55,-71 141,-143 189,-208 48,-65 57,-123 60,-228 3,-105 -1,-256 -18,-393 -17,-137 -48,-260 -76,-457 -28,-197 -54,-467 -70,-722 -16,-255 -21,-494 6,-793 26,-298 85,-656 150,-845 66,-189 139,-209 222,-178 82,31 174,113 240,255 66,142 107,345 102,598z"/>
   <path class="fil1" d="M2639 5848c-48,38 -122,119 -199,253 -77,134 -155,323 -228,509 -73,186 -140,371 -183,511 -43,140 -63,235 -82,330 16,48 32,96 56,142 24,46 55,89 110,100 55,11 135,-9 195,-56 60,-46 100,-119 141,-228 41,-109 82,-254 134,-412 51,-159 112,-332 164,-482 52,-150 94,-277 108,-376 14,-99 -2,-169 -28,-218 -26,-49 -62,-76 -91,-92 -29,-16 -49,-20 -97,18z"/>
   <path class="fil1" d="M3171 5361c-28,52 -31,144 -51,207 -20,62 -56,94 -95,115 -39,20 -80,28 -121,36 -74,86 -148,172 -167,282 -19,110 17,245 122,324 105,79 279,104 441,103 163,-1 315,-27 411,-77 97,-50 138,-125 180,-213 42,-88 83,-189 124,-290 -102,-6 -204,-13 -272,-32 -67,-20 -100,-52 -133,-85 -30,-37 -60,-73 -75,-116 -15,-43 -14,-92 -13,-143 1,-50 2,-102 -35,-132 -36,-30 -110,-40 -174,-40 -64,0 -117,11 -145,62z"/>
   <path class="fil3" d="M2476 6513c-22,61 -38,124 -30,200 8,75 40,163 83,227 43,63 97,102 66,274 -31,172 -146,477 -335,917 -189,441 -451,1017 -613,1404 -162,387 -223,584 -237,678 -14,93 19,83 343,137 324,54 940,172 1461,170 521,-2 949,-124 1216,-213 267,-89 374,-147 449,-191 74,-44 116,-75 99,-116 -17,-41 -94,-93 -216,-332 -122,-239 -289,-666 -421,-1025 -133,-360 -231,-652 -310,-899 -79,-247 -140,-448 -165,-548 -25,-100 -14,-100 5,-136 19,-37 47,-110 75,-184 -2,-95 -5,-189 -40,-279 -35,-90 -102,-174 -111,-304 -9,-130 41,-305 53,-400 12,-94 -13,-108 -48,-123 -35,-15 -79,-31 -112,-44 -34,-13 -57,-21 -90,24 -33,45 -76,145 -140,204 -65,60 -151,79 -235,80 -84,1 -164,-16 -214,-73 -50,-57 -69,-154 -86,-205 -17,-51 -32,-56 -53,-49 -21,7 -48,26 -81,45 -33,19 -73,38 -89,75 -16,37 -10,92 -15,150 -6,58 -23,120 -47,179 -24,60 -54,117 -82,176 -29,59 -57,119 -78,180z"/>
   <path class="fil1" d="M3820 5871c-33,28 -69,74 -117,160 -48,86 -108,212 -152,371 -44,159 -70,351 -105,517 -35,167 -77,308 -118,384 -41,75 -81,85 -164,80 -83,-5 -208,-24 -318,-71 -110,-47 -206,-122 -285,-180 -80,-59 -144,-102 -212,-138 -68,-36 -139,-66 -190,-83 -51,-17 -82,-20 -118,-6 -36,14 -77,45 -97,101 -20,55 -20,135 18,179 38,44 113,53 203,113 90,60 193,171 311,264 117,93 248,169 432,221 184,52 420,82 566,87 146,5 203,-13 255,-78 52,-64 99,-175 160,-345 61,-170 135,-400 190,-601 55,-201 91,-374 111,-495 19,-121 22,-192 2,-271 -21,-79 -65,-167 -115,-211 -50,-44 -105,-45 -148,-40 -43,5 -75,15 -108,44z"/>
   <path class="fil1" d="M3154 7061c-102,14 -248,60 -378,102 -130,43 -245,82 -375,112 -130,29 -274,48 -356,82 -82,33 -103,80 -101,139 2,58 26,128 72,176 46,48 113,76 230,55 116,-21 282,-91 443,-156 161,-65 319,-126 416,-162 97,-36 135,-48 163,-78 29,-30 49,-79 65,-123 16,-44 29,-82 6,-111 -23,-29 -82,-48 -184,-34z"/>
   <path class="fil4" d="M3449 5471c-11,-76 -23,-152 -46,-199 -23,-47 -58,-66 -103,-76 -45,-11 -100,-13 -145,-13 -45,0 -79,3 -111,2 -32,-1 -60,-5 -74,0 -14,5 -13,18 -5,35 8,17 23,39 43,55 20,16 44,28 77,28 33,0 74,-13 113,-15 39,-2 76,6 105,21 28,16 48,39 71,68 23,28 50,61 77,94z"/>
  </g>
  <g id="_1499526993040">
   <path class="fil5" d="M11439 2573c53,-8 159,-15 316,-19 157,-4 365,-5 492,-3 127,2 173,7 205,11 31,5 47,9 52,32 5,23 -2,63 -31,246 -29,183 -80,508 -118,667 -38,159 -62,153 -146,152 -85,-1 -230,4 -340,6 -110,2 -185,1 -234,1 -48,0 -70,2 -84,-17 -14,-19 -20,-59 -39,-205 -19,-147 -50,-401 -73,-556 -22,-155 -36,-211 -43,-243 -8,-31 -9,-38 -10,-46 0,-8 1,-18 54,-26z"/>
   <path class="fil0" d="M12589 2473c-15,-6 -45,-10 -74,-24 -29,-14 -56,-38 -84,-75 -28,-37 -57,-89 -83,-140 -26,-51 -49,-103 -75,-140 -26,-37 -55,-60 -76,-76 -21,-16 -33,-26 -43,-32 -9,-5 -15,-6 -18,-11 -3,-5 -3,-13 -4,-26 -1,-12 -2,-28 -8,-41 -6,-13 -18,-22 -34,-31 -17,-9 -39,-17 -55,-24 -16,-7 -25,-12 -30,-16 -5,-4 -6,-7 -3,-23 3,-16 10,-45 13,-73 3,-28 2,-56 -4,-78 -6,-23 -17,-40 -28,-55 -11,-15 -21,-26 -29,-29 -8,-3 -13,3 -24,17 -10,14 -25,35 -35,57 -10,23 -14,46 -12,74 2,28 9,59 13,78 4,18 4,23 2,27 -1,5 -4,10 -22,18 -18,9 -52,21 -74,31 -22,10 -33,17 -40,27 -7,10 -10,24 -10,35 -1,11 1,20 0,27 -1,7 -4,12 -15,20 -11,8 -29,18 -54,39 -24,21 -54,52 -80,90 -26,37 -47,81 -66,123 -19,42 -37,84 -57,115 -21,32 -45,53 -68,69 -24,16 -47,27 -69,32 -21,5 -41,5 -51,11 -10,6 -10,18 -9,40 1,21 3,52 3,68 1,16 1,18 65,20 64,2 191,3 384,5 193,2 451,4 601,5 150,1 192,1 216,0 24,-1 30,-1 34,-6 4,-5 6,-13 8,-28 2,-16 5,-39 7,-54 2,-15 2,-22 2,-29 0,-7 0,-14 -15,-19z"/>
   <path class="fil0" d="M12533 2554c10,13 15,34 -10,219 -25,185 -81,534 -111,711 -30,177 -36,184 -49,186 -13,3 -33,2 -46,1 -13,-1 -19,-2 -18,-34 1,-33 11,-97 35,-262 24,-166 63,-433 88,-589 25,-156 35,-200 44,-223 10,-23 19,-26 30,-26 12,1 26,4 36,17z"/>
   <path class="fil0" d="M11925 2522c14,-4 33,-4 43,2 11,5 13,16 14,180 1,164 0,480 0,666 1,186 3,242 -7,271 -11,28 -34,29 -51,29 -17,0 -28,-1 -33,-16 -5,-15 -5,-44 -5,-200 0,-156 0,-439 2,-612 2,-173 5,-236 10,-272 6,-36 14,-44 27,-48z"/>
   <path class="fil0" d="M11893 3749c29,-22 70,-22 93,7 23,29 29,88 32,974 3,885 3,2598 6,3606 3,1008 9,1311 -14,1465 -22,154 -73,159 -110,159 -37,0 -60,-5 -72,-86 -12,-81 -12,-237 -13,-1081 -1,-844 -3,-2375 -1,-3312 2,-937 8,-1279 19,-1473 12,-193 29,-237 58,-259z"/>
   <path class="fil0" d="M12370 3623c-41,-5 -123,-4 -253,-4 -130,0 -307,1 -420,1 -113,0 -163,1 -188,7 -25,5 -25,15 -25,27 0,11 1,24 3,32 2,8 4,10 16,14 11,3 31,7 48,10 17,3 32,5 50,11 18,7 40,19 56,32 16,14 27,29 34,44 7,15 9,29 14,37 5,8 12,9 89,8 77,-1 223,-3 299,-4 76,-1 81,-1 84,-4 3,-3 3,-8 10,-21 7,-13 20,-32 34,-50 14,-18 27,-34 49,-44 22,-10 53,-13 76,-16 23,-3 37,-6 45,-10 8,-4 9,-11 11,-18 2,-8 6,-17 8,-26 2,-9 2,-19 -39,-24z"/>
   <path class="fil0" d="M11358 2549c-10,13 -15,34 8,219 24,185 76,534 105,712 29,178 34,184 47,187 13,3 33,2 46,1 13,-1 19,-2 18,-34 -1,-33 -10,-97 -33,-263 -23,-166 -60,-433 -83,-589 -23,-156 -33,-200 -43,-224 -9,-24 -18,-26 -30,-26 -12,0 -26,4 -36,17z"/>
   <path class="fil0" d="M11497 9627c17,-33 32,-56 107,-68 75,-12 209,-12 334,-12 125,0 242,0 306,12 64,12 76,35 90,118 15,83 32,224 56,443 24,219 55,514 70,672 15,158 13,180 -1,188 -14,9 -39,5 -183,5 -144,0 -406,4 -585,4 -179,0 -274,-4 -326,-12 -52,-8 -62,-19 -64,-41 -2,-21 4,-52 29,-253 25,-200 70,-569 101,-775 31,-206 49,-249 65,-282z"/>
   <path class="fil0" d="M11719 9050c78,-2 223,-1 313,-1 90,0 125,1 145,8 20,7 26,21 30,39 3,17 4,38 7,68 2,30 6,70 6,100 0,30 -3,49 -10,60 -7,10 -18,12 -62,14 -44,2 -121,4 -215,5 -93,0 -203,-1 -261,-3 -59,-2 -67,-4 -71,-15 -4,-12 -3,-33 -2,-71 2,-38 5,-94 9,-129 4,-35 9,-49 16,-58 8,-9 18,-14 95,-16z"/>
  </g>
  <g id="_1499526991632">
   <path class="fil1" d="M9746 6241c-42,149 -40,330 -53,458 -13,128 -42,201 -120,276 -79,75 -208,151 -345,117 -138,-34 -284,-178 -423,-322 -139,-143 -271,-285 -403,-427 -60,-38 -120,-77 -174,-101 -54,-24 -103,-34 -137,-10 -34,24 -55,81 -50,136 5,55 36,107 66,159 177,249 354,498 531,688 177,190 355,321 549,363 194,42 406,-4 543,-39 137,-35 199,-59 226,27 27,86 18,282 -7,461 -24,179 -63,342 -195,392 -132,50 -357,-13 -562,-34 -205,-21 -391,1 -534,63 -143,61 -243,162 -338,343 -95,181 -186,444 -265,627 -79,183 -146,287 -206,316 -60,30 -114,-15 -179,-53 -65,-38 -140,-71 -201,-52 -61,19 -109,89 -112,189 -3,100 38,229 126,352 88,123 223,241 345,285 122,44 232,15 345,-84 113,-99 230,-268 315,-415 85,-147 139,-272 239,-413 100,-141 246,-298 372,-339 126,-41 233,34 358,75 125,41 267,48 332,108 64,60 50,172 34,317 -16,145 -33,324 -46,484 -12,161 -20,303 -21,437 -1,133 3,257 64,370 61,113 178,214 383,346 206,132 500,294 721,407 221,113 368,178 463,264 95,86 138,194 136,303 -2,109 -50,220 -67,307 -17,87 -3,149 61,181 64,32 177,33 282,-30 105,-63 200,-191 258,-369 57,-178 76,-406 66,-553 -11,-146 -51,-210 -210,-312 -159,-102 -435,-243 -664,-375 -229,-132 -410,-257 -526,-357 -115,-100 -165,-175 -185,-315 -20,-140 -10,-346 9,-533 18,-187 45,-354 81,-449 36,-95 82,-117 161,-181 80,-64 193,-170 276,-318 83,-149 135,-341 161,-605 26,-264 25,-601 6,-895 -20,-294 -59,-545 -70,-686 -11,-141 5,-173 135,-118 130,55 374,197 576,377 202,180 363,400 433,517 71,117 51,132 25,162 -26,30 -59,75 -70,103 -11,28 -1,39 11,44 12,5 27,4 41,3 -18,16 -35,31 -48,57 -12,25 -19,60 -13,89 6,30 25,54 65,96 39,42 99,101 178,104 79,3 177,-51 233,-160 56,-110 69,-275 20,-467 -49,-192 -162,-410 -332,-633 -170,-223 -399,-451 -673,-626 -274,-175 -595,-297 -810,-383 -215,-86 -326,-136 -410,-202 -84,-66 -142,-147 -171,-212 -29,-65 -28,-113 -35,-216 -7,-103 -22,-262 -56,-418 -35,-157 -90,-312 -183,-439 -94,-127 -226,-225 -375,-282 -149,-57 -314,-72 -451,-45 -136,27 -243,97 -330,195 -87,99 -154,226 -180,380 -26,154 -10,335 60,491 70,156 194,289 317,378 123,90 245,137 359,153 113,17 218,4 297,13 78,9 130,41 114,115 -16,73 -101,189 -143,337z"/>
   <path class="fil6" d="M9204 5428c35,13 85,36 133,37 49,1 97,-19 134,-41 37,-22 65,-47 83,-74 18,-27 27,-57 34,-90 7,-33 12,-69 19,-69 7,0 17,36 23,86 6,50 10,113 -5,167 -14,54 -46,97 -82,121 -36,23 -75,27 -122,19 -46,-8 -99,-27 -141,-49 -42,-23 -73,-49 -97,-71 -24,-22 -40,-39 -38,-46 2,-7 23,-4 58,9z"/>
   <path class="fil1" d="M8412 6244c-5,13 -11,30 -13,42 -2,12 0,21 2,30 2,9 5,19 0,31 -5,12 -17,26 -50,54 -33,29 -85,73 -119,100 -34,27 -48,38 -62,43 -14,5 -29,4 -47,-6 -18,-10 -40,-30 -70,-54 -30,-23 -67,-50 -101,-82 -34,-31 -65,-68 -87,-98 -22,-31 -36,-55 -44,-77 -7,-21 -8,-40 -6,-55 2,-16 8,-30 16,-39 8,-10 17,-15 24,-17 6,-2 9,-1 16,3 7,4 17,10 19,9 2,-1 -5,-9 -9,-21 -5,-11 -8,-25 -8,-36 0,-11 4,-18 10,-27 6,-9 14,-21 24,-29 10,-8 21,-13 33,-10 12,3 25,13 26,11 1,-1 -8,-14 -13,-25 -5,-11 -5,-22 0,-31 5,-9 14,-18 25,-25 11,-7 24,-12 34,-14 10,-2 18,0 21,-5 3,-5 1,-18 8,-31 7,-13 22,-26 39,-33 17,-7 36,-9 56,3 20,12 41,36 61,64 21,28 41,60 58,80 17,20 30,27 43,26 13,-1 26,-10 40,-35 14,-25 28,-65 43,-94 15,-29 30,-47 47,-60 17,-12 35,-19 57,-20 22,0 49,6 69,17 20,11 33,26 36,38 3,12 -5,20 -15,26 -11,6 -24,9 -37,18 -13,9 -25,24 -37,47 -12,22 -25,52 -33,79 -7,27 -9,51 -15,78 -5,28 -14,59 -21,80 -7,21 -12,31 -18,44z"/>
  </g>
  <path class="fil7" d="M5194 3880c259,-42 481,-141 679,-292 666,-508 795,-1461 286,-2128 -508,-666 -1461,-795 -2128,-286 -666,508 -795,1461 -286,2128 222,291 525,478 857,557 -124,191 -248,382 -373,574 964,-552 643,-368 964,-552z"/>
  <path class="fil7" d="M7893 4130c-208,-32 -388,-111 -547,-231 -538,-406 -646,-1171 -240,-1709 406,-538 1171,-646 1709,-240 538,406 646,1171 240,1709 -177,235 -420,387 -686,452 101,153 202,306 302,459 -778,-439 -519,-293 -778,-439z"/>
  <g id="_1499526989520">
   <ellipse class="fil8" transform="matrix(0.868569 0.0364053 -0.0364053 0.868569 8106.78 2911.03)" rx="857" ry="837"/>
   <path class="fil1" d="M7774 2982c10,1 22,5 33,15 11,10 20,25 27,40 7,16 12,32 31,56 19,24 52,55 89,76 37,21 77,32 115,39 38,7 74,10 104,7 30,-3 54,-11 81,-22 27,-11 58,-24 81,-41 23,-17 40,-39 56,-64 16,-25 33,-55 51,-70 18,-15 36,-16 49,-10 13,6 21,17 23,37 2,20 -2,47 -20,80 -18,33 -49,70 -80,99 -30,28 -60,47 -102,63 -42,16 -97,29 -148,33 -51,4 -99,-1 -146,-13 -47,-12 -95,-30 -136,-54 -41,-25 -76,-56 -100,-86 -24,-30 -37,-59 -45,-85 -7,-26 -9,-48 -6,-63 3,-15 9,-23 17,-29 8,-5 16,-8 26,-7z"/>
   <path class="fil1" d="M7862 2593c10,-2 24,-2 41,3 16,5 34,15 47,30 13,15 23,35 25,59 2,24 -2,52 -16,74 -13,22 -36,37 -61,41 -25,4 -53,-2 -76,-14 -23,-12 -40,-28 -48,-50 -8,-22 -7,-51 0,-72 7,-21 21,-35 33,-45 12,-9 24,-14 32,-18 8,-4 13,-7 23,-8z"/>
   <path class="fil1" d="M8346 2629c17,-8 41,-17 66,-16 24,2 49,15 64,33 15,18 21,42 21,65 0,23 -6,45 -16,62 -10,17 -24,29 -47,36 -23,7 -56,10 -81,0 -25,-10 -43,-34 -51,-58 -8,-23 -7,-46 -4,-64 3,-17 8,-29 15,-38 7,-9 16,-14 33,-21z"/>
  </g>
  <g id="_1499526989552">
   <ellipse class="fil9" cx="4959" cy="2342" rx="891" ry="869"/>
   <path class="fil1" d="M4579 2779c12,0 27,-5 40,-16 13,-11 25,-28 34,-47 9,-18 16,-38 39,-65 24,-27 65,-63 110,-87 45,-23 93,-34 139,-41 46,-6 89,-8 125,-4 36,5 64,16 96,30 32,14 68,32 95,54 27,22 45,49 64,80 18,31 37,67 57,86 20,19 42,21 58,15 16,-6 26,-20 29,-43 3,-23 0,-56 -20,-96 -20,-40 -55,-87 -90,-122 -35,-35 -69,-59 -118,-80 -49,-21 -115,-39 -175,-47 -61,-7 -118,-4 -175,8 -57,11 -115,31 -165,58 -50,27 -93,63 -124,98 -30,35 -48,69 -58,99 -10,30 -13,57 -11,75 2,18 10,28 18,35 9,7 19,11 31,10z"/>
   <path class="fil1" d="M4657 1955c12,-2 29,-3 49,2 19,5 41,16 58,33 17,17 29,41 33,69 4,29 0,63 -15,89 -15,27 -41,46 -70,52 -30,6 -64,0 -91,-13 -28,-13 -49,-31 -60,-58 -11,-26 -11,-60 -4,-86 8,-26 23,-43 38,-55 14,-12 28,-18 37,-23 10,-5 16,-9 27,-11z"/>
   <path class="fil1" d="M5236 1974c20,-10 49,-23 78,-22 29,1 59,15 78,36 19,21 27,49 28,77 1,28 -5,55 -16,75 -11,21 -27,36 -55,45 -27,10 -66,15 -97,4 -30,-11 -52,-39 -63,-66 -11,-27 -10,-55 -8,-76 3,-21 8,-35 16,-46 8,-11 18,-17 38,-27z"/>
  </g>
 </g>
</svg>
