<?xml version="1.0" encoding="UTF-8"?>
<!DOCTYPE svg PUBLIC "-//W3C//DTD SVG 1.1//EN" "http://www.w3.org/Graphics/SVG/1.1/DTD/svg11.dtd">
<!-- Creator: CorelDRAW 2017 -->
<svg xmlns="http://www.w3.org/2000/svg" xml:space="preserve" width="143mm" height="143mm" version="1.1" style="shape-rendering:geometricPrecision; text-rendering:geometricPrecision; image-rendering:optimizeQuality; fill-rule:evenodd; clip-rule:evenodd"
viewBox="0 0 14300 14300"
 xmlns:xlink="http://www.w3.org/1999/xlink">
 <defs>
  <style type="text/css">
   <![CDATA[
    .str0 {stroke:white;stroke-width:50;stroke-linecap:round;stroke-linejoin:round}
    .fil5 {fill:none}
    .fil8 {fill:black}
    .fil4 {fill:black}
    .fil2 {fill:black}
    .fil0 {fill:#4D4D4D}
    .fil1 {fill:gray}
    .fil3 {fill:#A60000}
    .fil7 {fill:red}
    .fil6 {fill:white}
    .fil9 {fill:white}
   ]]>
  </style>
 </defs>
 <g id="Слой_x0020_1">
  <metadata id="CorelCorpID_0Corel-Layer"/>
  <path class="fil0" d="M11450 2009c93,36 180,109 235,207 55,97 78,219 73,330 -5,111 -37,210 -87,282 -50,72 -116,116 -154,161 -38,44 -46,89 -18,123 29,34 94,58 179,122 85,64 188,170 277,433 89,264 165,686 198,1006 33,320 22,538 2,662 -20,125 -51,157 -92,151 -41,-6 -92,-50 -119,-186 -26,-136 -27,-364 -54,-579 -27,-216 -80,-419 -117,-513 -37,-94 -58,-79 -56,131 1,210 25,615 24,994 -1,379 -27,730 -42,1029 -16,298 -21,543 -10,685 12,142 41,181 73,213 32,32 67,57 90,95 22,38 32,88 22,128 -10,40 -39,71 -91,84 -52,14 -128,10 -208,-5 -80,-15 -165,-42 -212,-131 -47,-89 -55,-240 -59,-473 -4,-233 -5,-550 -9,-811 -3,-262 -9,-469 -19,-589 -10,-120 -25,-152 -41,-62 -17,90 -36,302 -49,624 -13,322 -20,753 -27,1008 -7,255 -15,333 -42,383 -26,50 -71,73 -147,83 -75,10 -182,9 -253,-4 -72,-12 -109,-36 -122,-74 -13,-38 -1,-92 27,-128 28,-36 72,-55 101,-113 29,-57 41,-153 51,-323 10,-170 16,-413 13,-719 -3,-306 -16,-673 -5,-1016 10,-343 44,-663 54,-872 10,-210 -3,-310 -27,-326 -24,-16 -59,52 -92,190 -33,139 -62,348 -72,539 -10,190 0,361 -4,472 -3,111 -19,162 -42,189 -23,27 -52,29 -83,8 -31,-21 -65,-64 -89,-166 -24,-102 -37,-261 -27,-460 10,-199 44,-436 82,-639 38,-203 80,-370 118,-506 39,-135 74,-238 123,-307 49,-68 112,-102 169,-135 57,-32 109,-63 130,-95 22,-32 14,-66 -23,-115 -37,-48 -103,-111 -140,-200 -37,-89 -47,-203 -32,-316 14,-113 52,-225 111,-308 59,-84 141,-140 231,-168 90,-28 189,-29 282,7z"/>
  <path class="fil1" d="M9665 1507c93,36 180,109 235,207 55,97 78,219 73,330 -5,111 -37,210 -87,282 -50,72 -116,116 -154,161 -38,44 -46,89 -18,123 29,34 94,58 179,122 85,64 188,170 277,433 89,264 165,686 198,1006 33,320 22,538 2,662 -20,125 -51,157 -92,151 -41,-6 -92,-50 -119,-186 -26,-136 -27,-364 -54,-579 -27,-216 -80,-419 -117,-513 -37,-94 -58,-79 -56,131 1,210 25,615 24,994 -1,379 -27,730 -42,1029 -16,298 -21,543 -10,685 12,142 41,181 73,213 32,32 67,57 90,95 22,38 32,88 22,128 -10,40 -39,71 -91,84 -52,14 -128,10 -208,-5 -80,-15 -165,-42 -212,-131 -46,-89 -55,-240 -59,-473 -4,-233 -5,-550 -9,-811 -3,-262 -9,-469 -19,-589 -10,-120 -25,-152 -41,-62 -17,90 -36,302 -49,624 -13,322 -20,753 -27,1008 -7,255 -15,333 -42,383 -26,50 -71,73 -147,83 -75,10 -182,9 -253,-4 -72,-12 -109,-36 -122,-74 -13,-38 -1,-92 27,-128 28,-36 72,-55 101,-113 29,-57 41,-153 51,-323 10,-170 16,-413 13,-719 -3,-306 -16,-673 -5,-1016 10,-343 44,-663 54,-872 10,-210 -3,-310 -27,-326 -24,-16 -59,52 -92,190 -33,139 -62,348 -72,539 -10,190 0,361 -4,472 -3,111 -19,162 -42,189 -23,27 -52,29 -83,8 -31,-21 -65,-64 -89,-166 -24,-102 -37,-261 -27,-460 10,-199 44,-436 82,-639 38,-203 80,-370 118,-506 39,-135 74,-238 123,-307 49,-68 112,-102 169,-135 57,-32 108,-63 130,-95 22,-32 14,-66 -23,-115 -37,-48 -103,-111 -140,-200 -37,-89 -47,-203 -32,-316 14,-113 52,-225 111,-308 59,-84 141,-140 231,-168 90,-28 189,-29 282,7z"/>
  <path class="fil2" d="M10458 2703c93,36 180,109 235,207 55,97 78,219 73,330 -5,111 -37,210 -87,282 -50,72 -116,116 -154,161 -38,44 -46,89 -18,123 29,34 94,58 179,122 85,64 188,170 277,433 89,264 165,686 198,1006 33,320 22,538 2,662 -20,125 -51,157 -92,151 -41,-6 -92,-50 -119,-186 -26,-136 -27,-364 -54,-579 -27,-216 -80,-419 -117,-513 -37,-94 -58,-79 -56,131 1,210 25,615 24,994 -1,379 -27,730 -42,1029 -16,298 -21,543 -10,685 12,142 41,181 73,213 32,32 67,57 90,95 22,38 32,88 22,128 -10,40 -39,71 -91,84 -52,14 -128,10 -208,-5 -80,-15 -165,-42 -212,-131 -46,-89 -55,-240 -59,-473 -4,-233 -5,-550 -9,-811 -3,-262 -9,-469 -19,-589 -10,-120 -25,-152 -41,-62 -17,90 -36,302 -49,624 -13,322 -20,753 -27,1008 -7,255 -15,333 -42,383 -26,50 -71,73 -147,83 -75,10 -182,9 -253,-4 -72,-12 -109,-36 -122,-74 -13,-38 -1,-92 27,-128 28,-36 72,-55 101,-113 29,-57 41,-153 51,-323 10,-170 16,-413 13,-719 -3,-306 -16,-673 -5,-1016 10,-343 44,-663 54,-872 10,-210 -3,-310 -27,-326 -24,-16 -59,52 -92,190 -33,139 -62,348 -72,539 -10,190 0,361 -4,472 -3,111 -19,162 -42,189 -23,27 -52,29 -83,8 -31,-21 -65,-64 -89,-166 -24,-102 -37,-261 -27,-460 10,-199 44,-436 82,-639 38,-203 80,-370 118,-506 39,-135 74,-238 123,-307 49,-68 112,-102 169,-135 57,-32 109,-63 130,-95 22,-32 14,-66 -23,-115 -37,-48 -103,-111 -140,-200 -37,-89 -47,-203 -32,-316 14,-113 52,-225 111,-308 59,-84 141,-140 231,-168 90,-28 189,-29 282,7z"/>
  <path class="fil0" d="M8060 2250c93,36 180,109 235,207 55,97 78,219 73,330 -5,111 -37,210 -87,282 -50,72 -116,116 -154,161 -38,44 -46,89 -18,123 29,34 94,58 179,122 85,64 188,170 277,433 89,264 165,686 198,1006 33,320 22,538 2,662 -20,125 -51,157 -92,151 -41,-6 -92,-50 -119,-186 -26,-136 -27,-364 -54,-579 -27,-216 -80,-419 -117,-513 -37,-94 -58,-79 -56,131 1,210 25,615 24,994 -1,379 -27,730 -42,1029 -16,298 -21,543 -10,685 12,142 41,181 73,213 32,32 67,57 89,95 22,38 32,88 22,128 -10,40 -39,71 -91,84 -52,14 -128,10 -208,-5 -80,-15 -165,-42 -212,-131 -47,-89 -55,-240 -59,-473 -4,-233 -5,-550 -9,-811 -3,-262 -9,-469 -19,-589 -10,-120 -25,-152 -41,-62 -17,90 -36,302 -49,624 -13,322 -20,753 -27,1008 -7,255 -15,333 -42,383 -26,50 -71,73 -147,83 -75,10 -182,9 -253,-4 -72,-12 -109,-36 -122,-74 -13,-38 -1,-92 27,-128 28,-36 72,-55 101,-113 29,-57 41,-153 51,-323 10,-170 16,-413 13,-719 -3,-306 -16,-673 -5,-1016 10,-343 44,-663 54,-872 10,-210 -3,-310 -27,-326 -24,-16 -59,52 -92,190 -33,139 -62,348 -72,539 -10,190 0,361 -4,472 -3,111 -19,162 -42,189 -23,27 -52,29 -83,8 -31,-21 -65,-64 -89,-166 -24,-102 -37,-261 -27,-460 10,-199 44,-436 82,-639 38,-203 80,-370 118,-506 39,-135 74,-238 123,-307 49,-68 112,-102 169,-135 57,-32 109,-63 130,-95 22,-32 14,-66 -23,-115 -37,-48 -103,-111 -140,-200 -37,-89 -47,-203 -32,-316 14,-113 52,-225 111,-308 59,-84 141,-140 231,-168 90,-28 189,-29 282,7z"/>
  <path class="fil2" d="M8812 3143c93,36 180,109 235,207 55,97 78,219 73,330 -5,111 -37,210 -87,282 -50,72 -116,116 -154,161 -38,44 -46,89 -18,123 29,34 94,58 179,122 85,64 188,170 277,433 89,264 165,686 198,1006 33,320 22,538 2,662 -20,125 -51,157 -92,151 -41,-6 -92,-50 -119,-186 -26,-136 -27,-364 -54,-579 -27,-216 -80,-419 -117,-513 -37,-94 -58,-79 -56,131 1,210 25,615 24,994 -1,379 -27,730 -42,1029 -16,298 -21,543 -10,685 12,142 41,181 73,213 32,32 67,57 90,95 22,38 32,88 22,128 -10,40 -39,71 -91,84 -52,14 -128,10 -208,-5 -80,-15 -165,-42 -212,-131 -46,-89 -55,-240 -59,-473 -4,-233 -5,-550 -9,-811 -3,-262 -9,-469 -19,-589 -10,-120 -25,-152 -41,-62 -17,90 -36,302 -49,624 -13,322 -20,753 -27,1008 -7,255 -15,333 -42,383 -26,50 -71,73 -147,83 -75,10 -182,9 -253,-4 -72,-12 -109,-36 -122,-74 -13,-38 -1,-92 27,-128 28,-36 72,-55 101,-113 29,-57 41,-153 51,-323 10,-170 16,-413 13,-719 -3,-306 -16,-673 -5,-1016 10,-343 44,-663 54,-872 10,-210 -3,-310 -27,-326 -24,-16 -59,52 -92,190 -33,139 -62,348 -72,539 -10,190 0,361 -4,472 -3,111 -19,162 -42,189 -23,27 -52,29 -83,8 -31,-21 -65,-64 -89,-166 -24,-102 -37,-261 -27,-460 10,-199 44,-436 82,-639 38,-203 80,-370 118,-506 39,-135 74,-238 123,-307 49,-68 112,-102 169,-135 57,-32 108,-63 130,-95 22,-32 14,-66 -23,-115 -37,-48 -103,-111 -140,-200 -37,-89 -47,-203 -32,-316 14,-113 52,-225 111,-308 59,-84 141,-140 231,-168 90,-28 189,-29 282,7z"/>
  <path class="fil2" d="M12332 3125c93,36 180,109 235,207 55,97 78,219 73,330 -5,111 -37,210 -87,282 -50,72 -116,116 -154,161 -38,44 -46,89 -18,123 29,34 94,58 179,122 85,64 188,170 277,433 89,264 165,686 198,1006 33,320 22,538 2,662 -20,125 -51,157 -92,151 -41,-6 -92,-50 -119,-186 -26,-136 -27,-364 -54,-579 -27,-216 -80,-419 -117,-513 -37,-94 -58,-79 -56,131 1,210 25,615 24,994 -1,379 -27,730 -42,1029 -16,298 -21,543 -10,685 12,142 41,181 73,213 32,32 67,57 90,95 22,38 32,88 22,128 -10,40 -39,71 -91,84 -52,14 -128,10 -208,-5 -80,-15 -165,-42 -212,-131 -46,-89 -55,-240 -59,-473 -4,-233 -5,-550 -9,-811 -3,-262 -9,-469 -19,-589 -10,-120 -25,-152 -41,-62 -17,90 -36,302 -49,624 -13,322 -20,753 -27,1008 -7,255 -15,333 -42,383 -26,50 -71,73 -147,83 -75,10 -182,9 -253,-4 -72,-12 -109,-36 -122,-74 -13,-38 -1,-92 27,-128 28,-36 72,-55 101,-113 29,-57 41,-153 51,-323 10,-170 16,-413 13,-719 -3,-306 -16,-673 -5,-1016 10,-343 44,-663 54,-872 10,-210 -3,-310 -27,-326 -24,-16 -59,52 -92,190 -33,139 -62,348 -72,539 -10,190 0,361 -4,472 -3,111 -19,162 -42,189 -23,27 -52,29 -83,8 -31,-21 -65,-64 -89,-166 -24,-102 -37,-261 -27,-460 10,-199 44,-436 82,-639 38,-203 80,-370 118,-506 39,-135 74,-238 123,-307 49,-68 112,-102 169,-135 57,-32 109,-63 130,-95 22,-32 14,-66 -23,-115 -37,-48 -103,-111 -140,-200 -37,-89 -47,-203 -32,-316 14,-113 52,-225 111,-308 59,-84 141,-140 231,-168 90,-28 189,-29 282,7z"/>
  <path class="fil1" d="M6030 1904c93,36 180,109 235,207 55,97 78,219 73,330 -5,111 -37,210 -87,282 -50,72 -116,116 -154,161 -38,44 -46,89 -18,123 29,34 94,58 179,122 85,64 188,170 277,433 89,264 165,686 198,1006 33,320 22,538 2,662 -20,125 -51,157 -92,151 -41,-6 -92,-50 -119,-186 -26,-136 -27,-364 -54,-579 -27,-216 -80,-419 -117,-513 -37,-94 -58,-79 -56,131 1,210 25,615 24,994 -1,379 -27,730 -42,1029 -16,298 -21,543 -10,685 12,142 41,181 73,213 32,32 67,57 89,95 22,38 32,88 22,128 -10,40 -39,71 -91,84 -52,14 -128,10 -208,-5 -80,-15 -165,-42 -212,-131 -47,-89 -55,-240 -59,-473 -4,-233 -5,-550 -9,-811 -3,-262 -9,-469 -19,-589 -10,-120 -25,-152 -41,-62 -17,90 -36,302 -49,624 -13,322 -20,753 -27,1008 -7,255 -15,333 -42,383 -26,50 -71,73 -147,83 -75,10 -182,9 -253,-4 -72,-12 -109,-36 -122,-74 -13,-38 -1,-92 27,-128 28,-36 72,-55 101,-113 29,-57 41,-153 51,-323 10,-170 16,-413 13,-719 -3,-306 -16,-673 -5,-1016 10,-343 44,-663 54,-872 10,-210 -3,-310 -27,-326 -24,-16 -59,52 -92,190 -33,139 -62,348 -72,539 -10,190 0,361 -4,472 -3,111 -19,162 -42,189 -23,27 -52,29 -83,8 -31,-21 -65,-64 -89,-166 -24,-102 -37,-261 -27,-460 10,-199 44,-436 82,-639 38,-203 80,-370 118,-506 39,-135 74,-238 123,-307 49,-68 112,-102 169,-135 57,-32 109,-63 130,-95 22,-32 14,-66 -23,-115 -37,-48 -103,-111 -140,-200 -37,-89 -47,-203 -32,-316 14,-113 52,-225 111,-308 59,-84 141,-140 231,-168 90,-28 189,-29 282,7z"/>
  <path class="fil2" d="M7099 2616c93,36 180,109 235,207 55,97 78,219 73,330 -5,111 -37,210 -87,282 -50,72 -116,116 -154,161 -38,44 -46,89 -18,123 29,34 94,58 179,122 85,64 188,170 277,433 89,264 165,686 198,1006 33,320 22,538 2,662 -20,125 -51,157 -92,151 -41,-6 -92,-50 -119,-186 -26,-136 -27,-364 -54,-579 -27,-216 -80,-419 -117,-513 -37,-94 -58,-79 -56,131 1,210 25,615 24,994 -1,379 -27,730 -42,1029 -16,298 -21,543 -10,685 12,142 41,181 73,213 32,32 67,57 89,95 22,38 32,88 22,128 -10,40 -39,71 -91,84 -52,14 -128,10 -208,-5 -80,-15 -165,-42 -212,-131 -46,-89 -55,-240 -59,-473 -4,-233 -5,-550 -9,-811 -3,-262 -9,-469 -19,-589 -10,-120 -25,-152 -41,-62 -17,90 -36,302 -49,624 -13,322 -20,753 -27,1008 -7,255 -15,333 -42,383 -26,50 -71,73 -147,83 -75,10 -182,9 -253,-4 -72,-12 -109,-36 -122,-74 -13,-38 -1,-92 27,-128 28,-36 72,-55 101,-113 29,-57 41,-153 51,-323 10,-170 16,-413 13,-719 -3,-306 -16,-673 -5,-1016 10,-343 44,-663 54,-872 10,-210 -3,-310 -27,-326 -24,-16 -59,52 -92,190 -33,139 -62,348 -72,539 -10,190 0,361 -4,472 -3,111 -19,162 -42,189 -23,27 -52,29 -83,8 -31,-21 -65,-64 -89,-166 -24,-102 -37,-261 -27,-460 10,-199 44,-436 82,-639 38,-203 80,-370 118,-506 39,-135 74,-238 123,-307 49,-68 112,-102 169,-135 57,-32 109,-63 130,-95 22,-32 14,-66 -23,-115 -37,-48 -103,-111 -140,-200 -37,-89 -47,-203 -32,-316 14,-113 52,-225 111,-308 59,-84 141,-140 231,-168 90,-28 189,-29 282,7z"/>
  <path class="fil3" d="M8514 10510c-253,-14 -722,-6 -1049,46 -327,52 -512,148 -565,286 -53,138 26,317 -26,418 -52,101 -235,123 -464,150 -228,27 -501,58 -734,72 -233,13 -425,9 -594,64 -168,55 -312,170 -163,242 149,72 590,102 1016,91 425,-11 834,-62 1083,-18 249,44 337,183 357,281 21,98 -27,154 98,189 125,35 422,50 811,40 389,-10 870,-44 1280,-59 410,-15 749,-11 996,-50 247,-40 401,-124 536,-193 135,-69 251,-124 465,-153 214,-29 527,-33 780,-98 253,-64 447,-189 464,-284 18,-95 -141,-160 -344,-206 -203,-47 -450,-76 -681,-120 -231,-45 -447,-105 -587,-194 -140,-89 -204,-206 -354,-285 -151,-79 -388,-120 -627,-133 -239,-14 -479,0 -685,4 -206,4 -377,0 -486,-3 -109,-3 -154,-4 -196,-22 -41,-18 -79,-53 -332,-66z"/>
  <path class="fil4" d="M9128 9662c58,76 145,179 261,322 116,143 260,327 380,479 120,152 214,272 280,348 66,76 104,107 137,112 33,6 62,-14 95,-62 33,-48 69,-125 141,-195 72,-70 181,-132 303,-159 122,-27 259,-20 377,13 119,33 220,91 307,176 86,86 158,199 187,313 29,114 16,227 -28,333 -44,106 -118,203 -227,270 -109,67 -252,104 -384,98 -132,-5 -253,-53 -336,-83 -83,-29 -126,-41 -130,-24 -4,17 33,62 92,154 59,92 141,231 206,335 64,104 111,173 245,260 134,87 355,192 474,281 118,89 134,162 83,205 -51,43 -168,55 -339,-11 -171,-66 -397,-209 -562,-343 -165,-134 -270,-257 -385,-364 -116,-106 -242,-194 -417,-245 -175,-50 -398,-62 -705,-48 -308,14 -700,55 -1026,95 -326,40 -587,78 -894,127 -307,49 -661,109 -923,148 -262,39 -432,56 -562,74 -131,18 -223,38 -295,25 -72,-12 -123,-56 -155,-114 -33,-58 -47,-130 -55,-243 -8,-113 -10,-267 15,-363 24,-97 75,-136 143,-147 68,-11 155,7 205,70 51,63 65,170 124,216 59,46 162,29 323,-4 161,-33 382,-83 634,-129 253,-46 538,-87 734,-123 196,-35 301,-64 284,-79 -17,-15 -156,-18 -377,-26 -221,-9 -522,-23 -849,-48 -327,-25 -678,-60 -946,-77 -268,-17 -451,-17 -557,-77 -106,-60 -134,-181 -140,-329 -6,-148 9,-322 34,-422 25,-100 61,-125 114,-141 52,-16 121,-23 176,6 56,29 99,93 130,170 31,77 49,167 121,224 71,57 196,82 521,102 326,21 853,37 1316,55 463,18 862,38 1210,25 347,-13 643,-60 781,-129 138,-68 120,-158 53,-269 -67,-111 -182,-243 -283,-371 -101,-128 -189,-251 -241,-360 -52,-109 -68,-205 -51,-256 17,-51 67,-59 117,-47 49,12 97,44 136,84 39,41 69,90 127,166z"/>
  <path class="fil5 str0" d="M11107 10590c-2,24 -4,47 -14,74 -10,26 -27,55 -42,75 -15,20 -28,32 -41,43"/>
  <path class="fil5 str0" d="M11224 10714c-50,-24 -101,-48 -150,-60 -49,-12 -98,-11 -146,-10"/>
  <path class="fil6" d="M10608 10994c-25,1 -55,12 -73,32 -18,20 -26,48 -21,70 4,21 20,35 38,31 18,-4 39,-26 57,-44 18,-18 32,-31 43,-43 10,-12 16,-22 9,-31 -7,-9 -28,-17 -53,-16z"/>
  <path class="fil5 str0" d="M11303 11066c-11,21 -22,42 -41,62 -19,20 -46,39 -68,52 -22,12 -38,18 -54,24"/>
  <path class="fil5 str0" d="M11362 11226c-37,-42 -74,-84 -114,-115 -41,-30 -85,-49 -130,-67"/>
  <path class="fil2" d="M2204 5378c109,13 246,51 353,147 107,96 183,250 214,425 31,175 18,372 -33,528 -51,156 -138,272 -217,340 -79,68 -150,89 -158,118 -8,29 47,66 77,99 31,33 37,61 94,95 57,34 165,73 292,152 128,79 275,199 443,195 168,-4 355,-133 515,-226 160,-93 292,-150 367,-154 75,-4 94,44 64,126 -29,82 -106,197 -262,329 -156,132 -390,279 -578,313 -189,34 -331,-47 -438,-98 -107,-51 -178,-72 -216,-6 -38,66 -43,218 -42,374 1,156 7,317 26,481 18,164 47,332 81,501 34,169 72,338 129,568 57,230 132,521 181,820 49,299 72,605 75,856 3,251 -15,445 2,572 17,127 68,186 139,237 71,51 162,92 198,133 36,40 18,79 -20,116 -38,37 -96,73 -181,93 -85,20 -197,25 -298,13 -101,-12 -190,-42 -254,-86 -64,-44 -101,-101 -116,-219 -14,-118 -6,-296 -10,-524 -4,-229 -21,-509 -48,-761 -27,-252 -63,-476 -96,-638 -33,-163 -62,-264 -104,-333 -42,-69 -97,-106 -134,-72 -37,33 -55,137 -82,412 -27,275 -64,721 -83,1047 -19,326 -22,530 -2,661 20,131 62,188 120,227 59,39 134,61 169,103 35,42 28,103 -32,154 -60,50 -174,89 -301,98 -126,10 -265,-10 -350,-75 -85,-65 -116,-176 -138,-274 -22,-98 -34,-182 -35,-404 -1,-221 10,-580 34,-965 25,-385 64,-797 71,-1118 7,-321 -17,-551 -40,-801 -23,-250 -45,-521 -39,-773 6,-252 39,-487 103,-669 64,-182 160,-312 199,-403 39,-91 22,-144 -9,-198 -30,-54 -74,-109 -124,-224 -50,-116 -108,-293 -122,-479 -14,-186 14,-382 79,-520 64,-139 164,-221 254,-267 90,-46 171,-57 280,-44z"/>
  <path class="fil2" d="M3991 7153c-82,-33 -170,-57 -299,-73 -129,-15 -300,-21 -502,-49 -202,-28 -434,-79 -615,-129 -181,-50 -311,-99 -400,-64 -90,35 -139,153 -125,233 14,80 92,122 248,167 156,45 391,91 573,105 182,14 311,-5 462,3 150,8 321,44 459,45 138,1 244,-32 310,-58 67,-26 95,-46 70,-76 -24,-30 -101,-71 -183,-104z"/>
  <path class="fil2" d="M3923 7170c-53,115 -138,354 -196,512 -58,158 -90,236 -90,274 0,39 32,39 81,38 49,0 115,-1 176,-2 61,-1 116,-1 141,-35 26,-34 22,-103 27,-175 5,-72 19,-147 43,-184 24,-37 58,-35 93,-41 35,-6 70,-19 95,-36 26,-18 42,-40 55,-66 13,-26 23,-57 33,-74 10,-17 21,-22 83,-19 63,3 177,12 259,19 82,7 130,10 164,0 34,-10 52,-35 67,-67 14,-32 25,-72 -16,-98 -41,-26 -132,-37 -258,-53 -126,-16 -286,-35 -401,-51 -116,-16 -187,-28 -234,-39 -47,-10 -69,-19 -122,96z"/>
  <path class="fil7" d="M11610 12091c-48,-3 -132,8 -185,37 -53,28 -75,73 -115,111 -40,37 -98,66 -45,80 53,14 217,12 332,4 115,-8 180,-21 252,-32 73,-11 153,-18 172,-39 19,-21 -24,-54 -80,-66 -56,-12 -125,-2 -170,-8 -46,-6 -68,-27 -85,-47 -17,-19 -28,-37 -75,-40z"/>
  <path class="fil7" d="M12235 12330c-59,-4 -141,1 -180,9 -39,7 -36,16 -6,24 30,8 86,15 149,20 63,5 132,9 161,5 29,-4 18,-14 -6,-27 -24,-12 -59,-27 -118,-31z"/>
  <path class="fil3" d="M8529 10132c-23,-40 -95,-140 -155,-198 -61,-58 -110,-72 -153,-71 -43,1 -80,17 -65,46 15,29 80,71 129,96 49,25 81,33 114,51 33,18 67,45 96,70 30,25 56,46 33,7z"/>
  <path class="fil3" d="M6726 12318c69,-19 255,-27 372,-19 116,8 162,30 133,59 -29,29 -131,63 -223,71 -91,8 -171,-11 -236,-36 -65,-25 -114,-55 -46,-74z"/>
  <path class="fil8" d="M3916 6945c-14,-3 -365,-157 -347,-193 3,-7 184,-111 240,-142 -231,-256 -240,-206 132,-211 6,-62 17,-231 42,-297 -1,-3 -1,-5 -1,-6l3 0c6,-14 13,-21 20,-21 15,2 19,13 19,25l0 0 0 1 0 2c93,227 54,132 133,329 54,-87 189,-305 212,-297 27,8 11,316 7,394 363,-37 323,-96 121,268l0 0c84,-187 45,-102 126,-271 -61,8 -258,33 -264,31 -18,-6 -15,-228 -13,-341 -58,97 -173,284 -195,282 -20,-2 -96,-186 -139,-304 -35,308 22,250 -312,246 47,54 144,165 146,171 7,23 -165,109 -235,144 131,65 144,86 305,191z"/>
  <path class="fil9" d="M1673 6175c-13,68 -40,152 -60,212 -20,60 -35,97 -33,141 2,44 19,96 60,132 41,36 104,57 155,42 51,-15 90,-67 89,-134 0,-67 -40,-150 -69,-211 -29,-61 -49,-101 -67,-150 -19,-49 -37,-107 -47,-142 -10,-35 -12,-48 -13,-28 -1,19 -1,70 -15,138z"/>
  <path class="fil2" d="M12307 2704c39,-143 138,-465 214,-669 76,-205 129,-293 165,-315 36,-23 53,20 16,143 -37,123 -130,328 -204,494 -74,166 -130,294 -169,375 -39,81 -61,116 -22,-27z"/>
  <path class="fil2" d="M12684 2861c42,-68 222,-297 341,-433 119,-136 179,-179 208,-178 29,2 28,48 -43,139 -72,90 -215,223 -334,336 -119,113 -214,205 -172,136z"/>
  <path class="fil2" d="M6693 2231c-23,-76 -128,-314 -205,-469 -77,-155 -126,-227 -163,-246 -37,-19 -63,13 -35,90 28,77 109,197 169,292 60,95 99,165 148,244 49,78 109,165 86,89z"/>
  <path class="fil2" d="M1993 4719c-49,-167 -155,-636 -206,-900 -51,-264 -48,-322 -33,-352 15,-30 43,-32 68,12 25,44 48,135 82,332 34,197 80,502 106,721 26,219 33,354 -17,186z"/>
  <path class="fil2" d="M1605 4832c-64,-70 -239,-302 -326,-437 -87,-135 -85,-174 -67,-190 17,-15 49,-7 113,83 63,90 158,261 228,392 70,131 117,222 52,151z"/>
  <path class="fil2" d="M2488 4727c-6,-75 -5,-197 -4,-317 1,-120 3,-238 17,-304 14,-66 39,-81 53,-32 14,49 15,162 11,296 -4,134 -14,289 -23,374 -9,85 -17,98 -26,92 -10,-6 -21,-33 -27,-108z"/>
 </g>
</svg>
