<?xml version="1.0" encoding="UTF-8"?>
<!DOCTYPE svg PUBLIC "-//W3C//DTD SVG 1.1//EN" "http://www.w3.org/Graphics/SVG/1.1/DTD/svg11.dtd">
<!-- Creator: CorelDRAW 2017 -->
<svg xmlns="http://www.w3.org/2000/svg" xml:space="preserve" width="143mm" height="143mm" version="1.1" style="shape-rendering:geometricPrecision; text-rendering:geometricPrecision; image-rendering:optimizeQuality; fill-rule:evenodd; clip-rule:evenodd"
viewBox="0 0 14300 14300"
 xmlns:xlink="http://www.w3.org/1999/xlink">
 <defs>
  <style type="text/css">
   <![CDATA[
    .str1 {stroke:black;stroke-width:100}
    .str2 {stroke:black;stroke-width:75}
    .str0 {stroke:#6E2D17;stroke-width:200;stroke-linecap:round;stroke-linejoin:round;stroke-dasharray:400.000000 600.000000}
    .fil5 {fill:none}
    .fil10 {fill:none;fill-rule:nonzero}
    .fil1 {fill:#396912}
    .fil0 {fill:#5B962C}
    .fil6 {fill:#6E2D17}
    .fil3 {fill:#7BAD52}
    .fil2 {fill:#A5D673}
    .fil4 {fill:#AB6844}
    .fil7 {fill:#FFD663}
    .fil8 {fill:#FFFF66}
    .fil11 {fill:white}
    .fil9 {fill:black;fill-rule:nonzero}
   ]]>
  </style>
 </defs>
 <g id="Слой_x0020_1">
  <metadata id="CorelCorpID_0Corel-Layer"/>
  <g id="_1499427901408">
   <g>
    <path class="fil0" d="M10231 3260c-223,502 -657,1450 -993,2191 -336,741 -574,1275 -742,1657 -169,382 -268,613 -344,766 -76,153 -130,228 -194,247 -64,19 -138,-19 -505,-202 -367,-183 -1026,-511 -1357,-697 -331,-187 -332,-232 -146,-689 187,-457 562,-1326 930,-2129 367,-804 726,-1543 933,-1986 207,-444 261,-593 322,-686 62,-93 131,-131 249,-104 119,27 287,118 611,275 324,157 805,379 1078,514 273,135 339,183 366,235 27,52 15,108 -208,610z"/>
    <path class="fil1" d="M9938 3327c-30,-8 -80,-43 -130,-92 -49,-49 -98,-114 -132,-180 -34,-66 -53,-135 -58,-200 -6,-64 1,-125 13,-176 12,-52 27,-95 64,-106 36,-11 93,11 164,47 71,36 157,86 212,122 54,36 77,57 87,83 10,26 7,57 -18,127 -25,70 -72,179 -101,243 -29,64 -40,83 -50,102 -11,19 -21,38 -51,31z"/>
    <path class="fil1" d="M8125 2396c35,15 110,33 182,32 71,-1 139,-20 214,-64 74,-44 155,-112 196,-162 41,-50 41,-81 18,-107 -23,-26 -71,-48 -123,-70 -53,-23 -111,-46 -156,-56 -45,-10 -78,-8 -115,19 -37,27 -80,78 -116,136 -36,58 -67,123 -86,163 -20,40 -29,54 -36,68 -7,14 -12,26 24,42z"/>
    <path class="fil1" d="M8869 5237c-40,68 -88,131 -156,194 -69,63 -158,126 -261,169 -103,43 -221,66 -330,72 -109,6 -209,-6 -301,-35 -92,-29 -176,-75 -258,-137 -81,-63 -160,-143 -214,-234 -54,-92 -83,-195 -95,-305 -12,-110 -6,-226 13,-325 19,-99 51,-180 105,-269 54,-89 129,-185 222,-258 93,-73 205,-123 331,-150 126,-26 266,-29 387,-8 122,21 226,66 321,135 96,69 183,161 247,270 63,109 103,234 114,348 11,114 -5,216 -29,304 -24,88 -56,161 -96,229z"/>
    <path class="fil2" d="M8671 5140c-26,19 -57,64 -86,97 -29,33 -55,54 -81,55 -26,1 -51,-20 -79,-42 -28,-22 -60,-46 -60,-68 -1,-21 29,-40 55,-66 25,-26 46,-61 64,-98 18,-37 32,-77 37,-111 5,-34 0,-62 -19,-82 -18,-19 -50,-30 -84,-27 -34,2 -69,17 -103,50 -35,33 -69,84 -105,125 -36,41 -72,73 -111,97 -38,24 -79,40 -124,48 -46,8 -97,8 -141,0 -44,-8 -80,-23 -113,-44 -33,-22 -63,-50 -87,-88 -24,-38 -42,-85 -49,-135 -6,-50 -1,-102 -3,-133 -2,-31 -11,-40 -23,-47 -12,-7 -28,-11 -48,-18 -20,-7 -44,-18 -62,-29 -19,-11 -32,-22 -32,-45 -1,-24 11,-60 32,-77 21,-17 51,-15 77,-8 25,7 46,19 64,24 19,5 35,1 49,-11 14,-12 25,-33 46,-66 22,-33 54,-79 79,-110 25,-31 42,-48 64,-45 22,4 49,27 72,48 23,20 42,36 57,49 15,13 28,22 15,41 -13,19 -50,49 -78,79 -28,30 -45,61 -61,93 -16,32 -29,64 -32,98 -3,34 4,69 21,93 17,24 45,38 88,26 43,-12 102,-49 155,-90 52,-40 98,-84 134,-112 36,-28 62,-40 99,-48 37,-8 85,-12 128,-9 42,3 79,14 114,28 35,15 69,33 97,54 29,21 53,44 69,81 16,37 25,89 28,127 3,38 0,64 0,81 1,17 5,27 24,41 19,14 52,33 72,50 20,18 26,34 24,58 -3,24 -14,55 -25,75 -10,19 -19,27 -34,22 -15,-5 -35,-22 -56,-33 -21,-12 -44,-19 -70,0z"/>
    <path class="fil1" d="M8976 2259c252,122 625,294 837,399 212,105 263,142 284,182 21,40 11,84 -190,523 -202,439 -596,1274 -886,1899 -289,625 -474,1039 -626,1381 -152,342 -270,612 -350,775 -80,164 -122,222 -171,237 -50,15 -107,-15 -392,-157 -285,-142 -797,-397 -1053,-541 -257,-145 -258,-180 -92,-580 166,-400 499,-1165 805,-1834 306,-669 585,-1243 774,-1637 189,-394 288,-609 365,-731 76,-122 130,-151 222,-131 92,21 223,92 474,214zm-1067 5568c55,-16 102,-81 180,-238 78,-156 188,-403 346,-759 158,-355 365,-818 672,-1489 308,-670 718,-1547 928,-2010 210,-463 221,-512 197,-557 -23,-45 -81,-86 -318,-204 -237,-117 -654,-310 -935,-446 -281,-136 -427,-215 -530,-239 -103,-23 -163,10 -233,118 -70,109 -150,293 -346,705 -196,413 -507,1053 -838,1774 -330,721 -680,1521 -854,1941 -174,420 -172,459 114,621 287,162 859,446 1177,605 318,159 382,191 438,175z"/>
    <path class="fil1" d="M8167 7240c-25,-19 -83,-36 -153,-44 -70,-8 -150,-6 -223,8 -73,15 -139,43 -193,78 -54,36 -97,79 -130,120 -33,41 -58,81 -44,116 14,35 66,65 139,99 73,33 165,70 227,90 62,21 93,25 119,17 27,-8 49,-30 88,-93 39,-63 96,-168 128,-230 32,-62 40,-83 48,-103 8,-20 17,-40 -8,-59z"/>
    <path class="fil1" d="M6339 6376c33,20 91,70 133,128 41,58 65,125 74,211 8,86 1,192 -16,254 -16,62 -41,81 -76,77 -35,-3 -80,-29 -129,-58 -49,-29 -102,-63 -137,-93 -35,-31 -52,-58 -52,-105 0,-46 16,-110 42,-174 26,-63 60,-126 81,-165 21,-39 27,-55 34,-69 7,-14 15,-25 47,-5z"/>
   </g>
   <g>
    <path class="fil0" d="M11791 6532c-491,246 -1428,703 -2158,1062 -730,359 -1253,621 -1626,809 -373,188 -596,303 -752,373 -156,70 -245,94 -306,68 -61,-26 -94,-102 -262,-476 -167,-374 -469,-1046 -606,-1400 -137,-354 -110,-390 325,-625 434,-235 1276,-667 2070,-1055 794,-388 1540,-731 1982,-943 441,-212 578,-293 684,-326 107,-33 184,-19 259,77 75,96 146,273 297,601 151,327 381,804 507,1082 125,278 146,357 134,414 -12,57 -57,93 -548,339z"/>
    <path class="fil1" d="M11523 6398c-18,-25 -35,-84 -42,-154 -7,-70 -4,-150 12,-223 16,-73 45,-138 82,-191 36,-53 80,-95 122,-128 42,-33 82,-56 117,-42 35,15 64,68 96,141 32,73 67,166 86,229 19,62 24,93 15,119 -9,26 -30,48 -94,87 -64,38 -169,93 -232,124 -63,31 -83,39 -103,47 -20,8 -40,17 -59,-9z"/>
    <path class="fil1" d="M10713 4527c17,34 64,95 120,140 56,45 121,73 206,86 85,13 191,12 254,0 63,-13 83,-36 82,-72 -1,-35 -24,-82 -51,-133 -26,-51 -56,-106 -85,-143 -28,-37 -55,-55 -101,-58 -46,-3 -111,9 -176,31 -65,22 -130,53 -170,71 -40,18 -57,24 -71,30 -14,6 -26,13 -8,47z"/>
    <path class="fil1" d="M9484 7195c-74,27 -151,46 -244,51 -93,5 -202,-3 -309,-35 -107,-32 -213,-89 -301,-154 -88,-65 -158,-138 -210,-219 -53,-81 -89,-170 -112,-270 -23,-100 -33,-212 -17,-317 16,-105 59,-204 120,-296 61,-92 139,-179 216,-243 77,-64 154,-106 252,-141 98,-35 217,-61 335,-59 119,3 237,35 351,94 114,59 224,146 304,240 81,94 132,194 162,308 30,114 39,241 19,366 -20,124 -69,246 -132,341 -63,95 -141,164 -215,216 -74,53 -145,89 -220,117z"/>
    <path class="fil2" d="M9393 6994c-32,-2 -84,13 -127,20 -43,7 -77,7 -97,-9 -20,-16 -27,-48 -35,-83 -8,-35 -17,-74 -4,-91 13,-17 48,-12 84,-16 36,-4 74,-18 111,-35 37,-17 74,-39 99,-62 25,-23 39,-48 37,-75 -2,-27 -20,-55 -48,-74 -27,-19 -64,-30 -112,-27 -48,3 -107,21 -160,30 -54,9 -102,10 -147,4 -45,-6 -86,-19 -127,-42 -40,-23 -80,-56 -109,-89 -29,-34 -47,-69 -59,-106 -12,-38 -17,-79 -12,-123 5,-44 21,-93 48,-135 27,-43 64,-80 83,-105 18,-25 17,-38 12,-51 -5,-13 -14,-26 -25,-44 -11,-18 -23,-42 -30,-62 -7,-20 -11,-37 4,-55 15,-19 47,-39 74,-39 27,0 49,21 64,43 15,22 23,44 34,59 11,15 26,23 45,23 18,-1 40,-10 78,-22 38,-12 92,-26 131,-35 39,-8 63,-11 78,6 15,17 20,52 25,82 5,30 9,55 13,74 4,20 7,34 -15,41 -22,7 -70,6 -110,12 -40,6 -74,18 -106,33 -32,14 -63,31 -87,55 -24,24 -41,56 -43,86 -2,30 11,58 52,76 41,18 110,27 176,29 66,2 129,-3 175,-1 45,1 73,9 107,26 34,17 73,45 104,74 31,29 52,61 70,94 18,33 32,69 41,104 9,34 13,67 2,107 -11,39 -37,85 -59,116 -22,31 -41,49 -51,63 -11,14 -13,24 -7,47 6,23 20,59 24,85 4,26 -1,43 -18,60 -17,17 -46,34 -67,42 -20,8 -32,9 -40,-4 -8,-13 -13,-39 -22,-61 -9,-23 -22,-42 -54,-44z"/>
    <path class="fil1" d="M11457 4962c117,254 296,624 393,840 97,216 113,277 104,321 -9,44 -44,72 -479,283 -435,211 -1269,606 -1890,905 -620,299 -1026,502 -1360,670 -334,168 -597,301 -763,377 -166,76 -235,94 -283,74 -48,-20 -73,-79 -203,-370 -130,-290 -364,-812 -470,-1087 -106,-275 -85,-303 297,-507 382,-204 1125,-583 1786,-906 661,-323 1241,-589 1637,-774 396,-185 609,-287 746,-333 137,-46 197,-35 254,40 58,75 114,212 231,466zm-4359 3625c53,23 130,2 290,-69 160,-71 402,-192 749,-366 348,-174 801,-401 1465,-723 663,-322 1537,-740 1993,-964 456,-224 495,-255 506,-305 11,-50 -7,-118 -116,-359 -109,-241 -308,-655 -439,-938 -131,-284 -193,-438 -258,-521 -65,-83 -132,-96 -255,-56 -123,39 -302,131 -715,326 -413,195 -1060,492 -1773,839 -713,347 -1491,744 -1892,958 -401,214 -425,246 -306,553 119,307 380,890 525,1214 145,324 174,391 227,413z"/>
    <path class="fil1" d="M7671 8297c-7,-30 -41,-81 -90,-131 -49,-50 -112,-100 -178,-135 -66,-35 -134,-55 -199,-62 -64,-7 -125,-1 -177,10 -52,11 -96,26 -107,62 -11,36 10,93 45,165 35,72 84,159 118,214 35,55 55,78 81,89 26,10 57,8 127,-15 70,-24 181,-69 245,-97 64,-28 83,-38 103,-49 19,-10 39,-20 31,-50z"/>
    <path class="fil1" d="M6806 6469c13,36 26,112 21,183 -5,71 -29,138 -77,210 -48,72 -121,148 -173,186 -52,38 -83,36 -108,11 -25,-25 -44,-73 -63,-127 -19,-54 -39,-113 -47,-159 -8,-46 -3,-78 26,-114 29,-36 83,-75 143,-108 60,-33 127,-59 168,-76 41,-17 56,-25 70,-31 14,-6 27,-10 40,26z"/>
   </g>
  </g>
  <path class="fil3" d="M7313 9777c996,20 2672,44 3541,120 869,76 931,205 975,337 44,133 71,269 148,348 77,79 204,99 372,143 169,44 380,111 541,182 162,71 274,146 332,297 58,151 63,378 -143,484 -206,105 -622,89 -1535,80 -913,-9 -2324,-10 -3660,-57 -1337,-47 -2600,-140 -3563,-201 -963,-61 -1626,-92 -2010,-144 -384,-52 -489,-127 -652,-236 -163,-109 -383,-253 -547,-454 -165,-201 -274,-458 -309,-636 -35,-178 4,-277 95,-362 92,-85 236,-155 785,-162 549,-7 1501,49 2235,95 734,46 1249,80 1665,106 416,25 733,41 1729,61z"/>
  <g id="_1499427897792">
   <path class="fil4" d="M4233 6563c14,-261 40,-570 100,-748 59,-178 152,-225 248,-262 96,-37 196,-63 562,-67 367,-3 1000,16 1979,44 979,28 2302,65 3027,96 725,31 851,57 946,135 95,79 159,211 186,532 27,322 18,832 3,1433 -15,600 -36,1290 -55,1672 -19,382 -36,456 -75,539 -39,83 -101,175 -191,241 -89,67 -206,109 -1189,99 -983,-10 -2832,-71 -3869,-115 -1038,-45 -1265,-74 -1412,-139 -148,-65 -216,-167 -252,-375 -36,-208 -39,-521 -38,-939 1,-418 7,-940 10,-1307 4,-367 5,-580 19,-841z"/>
   <path class="fil5 str0" d="M4436 5814c471,25 942,50 1739,73 797,23 1919,44 2735,55 816,11 1325,13 1610,65 285,53 346,156 381,275 34,118 42,251 38,760 -4,508 -18,1392 -38,1899 -20,507 -46,637 -104,739 -58,102 -149,176 -597,201 -448,24 -1254,-1 -2283,-47 -1028,-46 -2279,-111 -3530,-176"/>
   <path class="fil6" d="M9298 7718c41,-110 113,-232 315,-292 202,-60 535,-57 817,-44 282,14 512,38 650,38 137,0 181,-25 201,-82 21,-57 19,-145 17,-234 76,28 152,56 196,97 43,41 54,96 53,281 -1,185 -13,501 -32,710 -19,209 -44,311 -77,378 -33,67 -75,100 -268,119 -193,19 -536,26 -842,14 -306,-11 -573,-40 -745,-104 -171,-64 -246,-163 -289,-265 -42,-102 -52,-206 -51,-308 1,-101 13,-199 54,-309z"/>
   <path class="fil7" d="M9890 8343c-64,-18 -123,-51 -165,-101 -42,-50 -68,-115 -79,-173 -11,-58 -8,-107 5,-155 13,-48 37,-94 75,-133 38,-40 90,-73 149,-91 59,-19 124,-23 191,-11 67,11 137,38 186,81 50,42 80,100 96,164 16,64 17,134 0,199 -17,65 -52,126 -97,166 -45,40 -101,59 -163,67 -63,8 -133,6 -197,-12z"/>
   <path class="fil8" d="M9723 8142c-8,-20 -20,-51 -24,-88 -4,-37 -1,-80 11,-122 12,-41 33,-80 59,-112 26,-31 58,-55 98,-71 40,-17 87,-26 125,-29 38,-3 67,2 90,8 23,6 40,15 51,24 11,9 17,19 12,27 -5,8 -19,14 -48,21 -29,8 -73,18 -113,30 -40,12 -76,27 -111,49 -34,22 -67,52 -88,85 -21,33 -30,69 -33,107 -3,38 1,77 4,100 3,23 6,31 3,29 -3,-2 -13,-13 -19,-23 -6,-10 -9,-18 -17,-37z"/>
  </g>
  <g id="_1499427885568">
   <g>
    <path class="fil0" d="M6965 12085c-491,-168 -789,-295 -1282,-476 -482,-177 -990,-356 -1413,-509 -767,-318 -1298,-532 -1715,-660 -447,-111 -734,-167 -931,-213 -202,-42 -304,-79 -336,-136 -31,-57 10,-140 207,-561 204,-464 598,-1386 842,-1873 266,-473 318,-486 836,-304 260,102 636,266 1035,501 394,232 795,531 1174,815 381,270 774,510 1177,660 411,152 773,263 1040,350 538,180 720,230 836,286 118,54 171,115 152,219 -19,104 -104,257 -238,570 -122,329 -283,833 -384,1126 -107,294 -153,365 -212,397 -61,31 -298,-26 -789,-193z"/>
    <path class="fil1" d="M6844 11794c5,-30 41,-79 93,-127 52,-50 120,-100 195,-136 72,-36 151,-59 226,-68 75,-11 146,-9 210,-2 64,7 118,19 139,54 19,36 5,95 -23,171 -29,75 -71,169 -105,226 -33,57 -55,82 -83,94 -31,11 -70,10 -159,-13 -89,-22 -233,-69 -315,-97 -84,-29 -108,-40 -132,-50 -25,-12 -51,-21 -46,-51z"/>
    <path class="fil1" d="M7659 9951c-13,34 -25,107 -15,177 9,68 41,133 102,203 60,67 151,141 215,177 64,35 100,32 128,8 27,-25 45,-72 65,-123 17,-51 37,-107 43,-150 7,-43 0,-74 -36,-107 -37,-33 -102,-71 -174,-103 -71,-31 -150,-58 -200,-75 -48,-17 -66,-25 -83,-30 -16,-7 -32,-11 -45,23z"/>
    <path class="fil1" d="M4440 10670c-78,-42 -150,-92 -221,-166 -70,-74 -141,-172 -189,-288 -52,-115 -81,-249 -93,-370 -10,-123 -2,-237 27,-342 30,-104 78,-199 147,-287 72,-88 164,-170 268,-219 105,-50 220,-65 341,-62 120,6 244,33 346,71 104,37 185,86 276,160 92,70 194,163 273,268 89,100 156,215 201,340 47,124 66,261 55,382 -12,120 -53,221 -124,312 -74,91 -175,170 -300,226 -122,57 -266,94 -397,102 -130,13 -248,-5 -350,-30 -100,-24 -184,-56 -261,-98z"/>
    <path class="fil2" d="M4526 10457c-23,-28 -74,-62 -111,-93 -38,-31 -62,-59 -64,-88 -3,-29 16,-56 38,-86 22,-30 46,-63 68,-63 23,0 45,33 75,61 30,29 69,51 112,71 42,20 88,37 127,44 38,7 71,2 90,-16 20,-17 29,-50 24,-85 -6,-35 -26,-73 -66,-111 -39,-39 -98,-78 -145,-118 -47,-41 -81,-84 -108,-127 -26,-44 -46,-87 -54,-139 -7,-50 -9,-107 0,-153 9,-46 26,-83 51,-117 25,-34 58,-64 99,-84 42,-21 95,-32 149,-30 54,2 110,15 143,18 34,2 45,-6 52,-18 9,-10 14,-26 23,-47 8,-20 22,-43 35,-62 13,-19 26,-31 51,-28 25,4 63,23 80,47 18,25 15,57 6,83 -9,26 -24,45 -30,65 -5,20 -3,38 9,54 14,16 36,30 74,57 36,26 87,67 121,97 38,27 58,45 56,67 -3,23 -28,47 -50,68 -21,22 -37,39 -52,54 -14,14 -22,25 -46,11 -23,-16 -61,-56 -97,-88 -34,-31 -68,-54 -101,-76 -35,-20 -71,-38 -109,-46 -38,-8 -77,-6 -104,9 -28,14 -41,41 -28,87 14,47 54,115 103,174 49,58 101,109 135,148 36,39 51,67 64,104 14,39 23,87 22,130 0,42 -9,78 -24,112 -13,34 -32,67 -53,94 -21,30 -46,52 -87,68 -42,16 -100,22 -144,25 -44,3 -72,-1 -91,0 -19,-1 -30,5 -43,24 -14,20 -31,54 -50,76 -18,21 -35,27 -61,25 -27,-2 -63,-14 -85,-25 -23,-11 -31,-20 -28,-37 4,-15 20,-38 30,-61 11,-23 16,-47 -7,-75z"/>
    <path class="fil1" d="M7936 10764c-99,258 -225,655 -308,879 -83,225 -119,279 -164,303 -45,23 -242,-29 -671,-184 -428,-155 -698,-274 -1133,-444 -427,-167 -718,-265 -1232,-482 -514,-217 -1071,-476 -1438,-595 -367,-119 -689,-188 -890,-237 -201,-49 -280,-79 -304,-127 -24,-48 4,-103 146,-462 143,-359 435,-1081 620,-1450 200,-361 354,-336 692,-208 338,128 551,240 895,441 344,202 519,358 1030,688 511,330 1383,718 1862,887 480,168 738,249 889,315 151,66 191,115 180,203 -12,88 -77,215 -175,473zm-6340 -813c27,53 114,84 311,131 198,47 505,109 896,228 391,119 1002,396 1548,622 546,226 856,324 1307,496 458,175 741,299 1194,460 453,161 666,216 717,189 51,-27 92,-88 183,-340 91,-253 229,-698 340,-984 111,-286 186,-424 200,-519 14,-95 -32,-150 -168,-212 -136,-62 -484,-172 -860,-298 -375,-127 -578,-187 -944,-335 -357,-144 -708,-360 -1060,-610 -352,-250 -724,-530 -1085,-745 -365,-217 -591,-334 -949,-470 -358,-135 -532,-166 -752,247 -219,413 -544,1233 -711,1630 -167,397 -195,455 -168,508z"/>
    <path class="fil1" d="M2323 10096c17,-29 28,-95 28,-171 -1,-76 -14,-163 -40,-240 -25,-77 -64,-143 -110,-195 -46,-53 -98,-89 -149,-116 -49,-28 -96,-45 -136,-20 -40,26 -72,94 -105,182 -34,89 -68,198 -86,267 -17,68 -20,100 -6,126 13,26 42,45 123,71 81,27 214,64 291,85 76,20 100,25 124,29 24,5 49,10 66,-19z"/>
    <path class="fil1" d="M3257 7760c-29,42 -97,122 -172,179 -74,61 -154,101 -255,126 -99,28 -220,41 -290,33 -69,-5 -89,-33 -82,-80 7,-47 42,-110 80,-181 40,-71 85,-148 126,-199 42,-51 78,-78 131,-87 55,-8 129,5 202,29 71,25 141,62 184,83 44,22 61,30 77,37 16,8 27,16 -3,59z"/>
   </g>
   <path class="fil9" d="M2743 9938c118,38 173,72 164,100 -9,28 -94,17 -253,-35 -159,-52 -238,-83 -234,-94 3,-11 8,-21 15,-29 7,-9 16,-20 28,-35 11,-14 36,-33 73,-56 37,-23 72,-41 104,-53 32,-13 73,-29 123,-48 50,-19 95,-44 134,-72 40,-29 63,-51 68,-68 5,-17 11,-34 17,-52 6,-18 0,-43 -17,-75 -17,-32 -36,-52 -56,-58 -20,-7 -41,-13 -62,-20 -21,-7 -49,-2 -83,16 -34,17 -55,37 -62,60 -8,23 -26,27 -55,14 -29,-13 -37,-36 -23,-69 14,-33 47,-61 100,-83 52,-23 96,-28 130,-17 34,11 69,22 104,34 35,11 66,43 94,94 28,52 37,92 28,120 -9,28 -16,50 -21,64 -5,15 -17,34 -38,58 -21,24 -50,47 -88,69 -38,22 -77,41 -117,58 -41,17 -78,32 -112,46 -34,14 -61,26 -82,37 -20,11 -34,20 -42,26 -8,7 48,29 166,67z"/>
   <path id="1" class="fil9" d="M3072 9852c22,-68 40,-123 54,-166 14,-43 38,-87 73,-134 34,-47 74,-78 118,-95 44,-17 79,-21 105,-13 26,9 49,16 69,22 19,6 41,22 66,47 24,25 41,55 51,91 9,36 13,76 10,122 -3,46 -10,87 -22,123 -12,36 -24,75 -38,118 -14,42 -38,87 -72,133 -34,47 -74,78 -117,96 -44,17 -79,22 -106,13 -27,-9 -57,-19 -92,-30 -35,-11 -58,-33 -70,-64 -12,-31 -25,-66 -39,-104 -14,-38 -10,-91 12,-159zm153 -161c-19,59 -39,119 -58,178 -19,59 -21,113 -6,162 15,48 33,76 53,83 20,7 41,13 61,20 21,7 51,-5 92,-36 41,-31 70,-75 90,-135 19,-59 39,-119 58,-178 19,-60 21,-113 6,-162 -15,-48 -33,-76 -54,-83 -21,-7 -41,-13 -62,-20 -21,-7 -40,-3 -57,10 -18,13 -38,29 -60,46 -22,17 -43,55 -63,115z"/>
   <path id="2" class="fil10 str1" d="M2743 9938c118,38 173,72 164,100 -9,28 -94,17 -253,-35 -159,-52 -238,-83 -234,-94 3,-11 8,-21 15,-29 7,-9 16,-20 28,-35 11,-14 36,-33 73,-56 37,-23 72,-41 104,-53 32,-13 73,-29 123,-48 50,-19 95,-44 134,-72 40,-29 63,-51 68,-68 5,-17 11,-34 17,-52 6,-18 0,-43 -17,-75 -17,-32 -36,-52 -56,-58 -20,-7 -41,-13 -62,-20 -21,-7 -49,-2 -83,16 -34,17 -55,37 -62,60 -8,23 -26,27 -55,14 -29,-13 -37,-36 -23,-69 14,-33 47,-61 100,-83 52,-23 96,-28 130,-17 34,11 69,22 104,34 35,11 66,43 94,94 28,52 37,92 28,120 -9,28 -16,50 -21,64 -5,15 -17,34 -38,58 -21,24 -50,47 -88,69 -38,22 -77,41 -117,58 -41,17 -78,32 -112,46 -34,14 -61,26 -82,37 -20,11 -34,20 -42,26 -8,7 48,29 166,67z"/>
   <path id="3" class="fil10 str1" d="M3072 9852c22,-68 40,-123 54,-166 14,-43 38,-87 73,-134 34,-47 74,-78 118,-95 44,-17 79,-21 105,-13 26,9 49,16 69,22 19,6 41,22 66,47 24,25 41,55 51,91 9,36 13,76 10,122 -3,46 -10,87 -22,123 -12,36 -24,75 -38,118 -14,42 -38,87 -72,133 -34,47 -74,78 -117,96 -44,17 -79,22 -106,13 -27,-9 -57,-19 -92,-30 -35,-11 -58,-33 -70,-64 -12,-31 -25,-66 -39,-104 -14,-38 -10,-91 12,-159zm153 -161c-19,59 -39,119 -58,178 -19,59 -21,113 -6,162 15,48 33,76 53,83 20,7 41,13 61,20 21,7 51,-5 92,-36 41,-31 70,-75 90,-135 19,-59 39,-119 58,-178 19,-60 21,-113 6,-162 -15,-48 -33,-76 -54,-83 -21,-7 -41,-13 -62,-20 -21,-7 -40,-3 -57,10 -18,13 -38,29 -60,46 -22,17 -43,55 -63,115z"/>
   <path class="fil9" d="M6962 10344c83,27 121,50 115,70 -7,20 -66,12 -177,-24 -112,-36 -166,-58 -164,-66 2,-8 6,-14 11,-20 5,-6 11,-14 19,-24 8,-10 25,-23 51,-39 26,-16 50,-28 73,-37 22,-9 51,-20 86,-34 35,-14 66,-31 94,-51 28,-20 44,-36 48,-48 4,-12 8,-24 12,-36 4,-12 0,-30 -12,-53 -12,-23 -25,-36 -40,-41 -14,-5 -29,-9 -44,-14 -15,-5 -34,-1 -58,11 -24,12 -38,26 -44,42 -5,16 -18,19 -39,10 -21,-9 -26,-25 -16,-48 10,-23 33,-43 70,-58 37,-16 67,-20 91,-12 24,8 48,16 73,24 24,8 46,30 66,66 20,36 26,64 20,84 -6,20 -11,35 -15,45 -3,10 -12,24 -27,41 -15,17 -35,33 -61,48 -26,15 -54,29 -82,41 -29,12 -55,22 -78,32 -24,10 -43,18 -57,26 -14,8 -24,14 -29,18 -5,5 33,20 116,47z"/>
   <path id="1" class="fil9" d="M7193 10283c15,-48 28,-86 38,-116 10,-30 27,-61 51,-94 24,-33 52,-55 82,-67 31,-12 55,-15 74,-9 18,6 35,11 48,16 14,4 29,15 46,33 17,18 29,39 35,64 7,25 9,53 7,86 -2,32 -7,61 -15,86 -8,25 -17,53 -27,82 -10,30 -26,61 -51,93 -24,33 -52,55 -82,67 -31,12 -56,15 -74,9 -19,-6 -40,-13 -65,-21 -24,-8 -41,-23 -49,-45 -8,-22 -17,-46 -27,-73 -10,-27 -7,-64 8,-111zm107 -113c-14,42 -27,83 -41,125 -14,42 -15,79 -4,113 11,34 23,53 37,58 14,5 29,9 43,14 14,5 36,-4 64,-25 28,-21 49,-53 63,-94 14,-42 27,-83 41,-125 14,-42 15,-80 4,-113 -11,-34 -23,-53 -38,-58 -15,-5 -29,-9 -43,-14 -14,-5 -28,-2 -40,7 -12,9 -27,20 -42,32 -16,12 -30,39 -44,80z"/>
   <path id="2" class="fil10 str2" d="M6962 10344c83,27 121,50 115,70 -7,20 -66,12 -177,-24 -112,-36 -166,-58 -164,-66 2,-8 6,-14 11,-20 5,-6 11,-14 19,-24 8,-10 25,-23 51,-39 26,-16 50,-28 73,-37 22,-9 51,-20 86,-34 35,-14 66,-31 94,-51 28,-20 44,-36 48,-48 4,-12 8,-24 12,-36 4,-12 0,-30 -12,-53 -12,-23 -25,-36 -40,-41 -14,-5 -29,-9 -44,-14 -15,-5 -34,-1 -58,11 -24,12 -38,26 -44,42 -5,16 -18,19 -39,10 -21,-9 -26,-25 -16,-48 10,-23 33,-43 70,-58 37,-16 67,-20 91,-12 24,8 48,16 73,24 24,8 46,30 66,66 20,36 26,64 20,84 -6,20 -11,35 -15,45 -3,10 -12,24 -27,41 -15,17 -35,33 -61,48 -26,15 -54,29 -82,41 -29,12 -55,22 -78,32 -24,10 -43,18 -57,26 -14,8 -24,14 -29,18 -5,5 33,20 116,47z"/>
   <path id="3" class="fil10 str2" d="M7193 10283c15,-48 28,-86 38,-116 10,-30 27,-61 51,-94 24,-33 52,-55 82,-67 31,-12 55,-15 74,-9 18,6 35,11 48,16 14,4 29,15 46,33 17,18 29,39 35,64 7,25 9,53 7,86 -2,32 -7,61 -15,86 -8,25 -17,53 -27,82 -10,30 -26,61 -51,93 -24,33 -52,55 -82,67 -31,12 -56,15 -74,9 -19,-6 -40,-13 -65,-21 -24,-8 -41,-23 -49,-45 -8,-22 -17,-46 -27,-73 -10,-27 -7,-64 8,-111zm107 -113c-14,42 -27,83 -41,125 -14,42 -15,79 -4,113 11,34 23,53 37,58 14,5 29,9 43,14 14,5 36,-4 64,-25 28,-21 49,-53 63,-94 14,-42 27,-83 41,-125 14,-42 15,-80 4,-113 -11,-34 -23,-53 -38,-58 -15,-5 -29,-9 -43,-14 -14,-5 -28,-2 -40,7 -12,9 -27,20 -42,32 -16,12 -30,39 -44,80z"/>
   <path class="fil2" d="M7374 9761c-187,-63 -430,-145 -688,-245 -258,-100 -531,-219 -805,-369 -273,-149 -546,-329 -755,-487 -209,-157 -355,-291 -219,-218 136,73 553,353 1028,595 475,241 1008,444 1405,591 397,147 659,239 783,304 123,65 108,103 35,95 -73,-8 -204,-62 -335,-111 -131,-49 -262,-93 -449,-155z"/>
  </g>
  <path class="fil11" d="M4382 7134c-15,55 -41,209 -76,321 -35,112 -78,183 -132,234 -54,51 -119,82 -173,101 -54,20 -97,28 -78,44 19,15 101,38 153,68 52,30 76,69 94,137 18,68 32,165 38,271 7,106 6,221 7,334 1,113 2,225 6,261 4,36 10,-3 21,-91 11,-88 27,-226 57,-348 31,-122 77,-229 133,-316 56,-87 122,-154 172,-190 50,-36 84,-42 74,-62 -10,-20 -64,-55 -106,-97 -42,-42 -72,-93 -99,-175 -27,-83 -51,-199 -63,-281 -11,-82 -10,-132 -11,-178 -1,-46 -5,-89 -19,-33z"/>
 </g>
</svg>
