<?xml version="1.0" encoding="UTF-8"?>
<!DOCTYPE svg PUBLIC "-//W3C//DTD SVG 1.1//EN" "http://www.w3.org/Graphics/SVG/1.1/DTD/svg11.dtd">
<!-- Creator: CorelDRAW 2017 -->
<svg xmlns="http://www.w3.org/2000/svg" xml:space="preserve" width="143mm" height="143mm" version="1.1" style="shape-rendering:geometricPrecision; text-rendering:geometricPrecision; image-rendering:optimizeQuality; fill-rule:evenodd; clip-rule:evenodd"
viewBox="0 0 14300 14300"
 xmlns:xlink="http://www.w3.org/1999/xlink">
 <defs>
  <style type="text/css">
   <![CDATA[
    .fil6 {fill:black}
    .fil7 {fill:#333333}
    .fil2 {fill:#396912}
    .fil1 {fill:#5B962C}
    .fil4 {fill:#A5D673}
    .fil0 {fill:#AD5240}
    .fil5 {fill:#EDBF42}
    .fil3 {fill:#FFD663}
    .fil8 {fill:white}
   ]]>
  </style>
 </defs>
 <g id="Слой_x0020_1">
  <metadata id="CorelCorpID_0Corel-Layer"/>
  <path class="fil0" d="M9263 4217c669,310 1411,671 1880,957 469,286 666,496 673,806 7,309 -175,718 -332,988 -157,270 -288,401 -204,558 84,157 383,339 733,588 350,249 750,564 918,911 168,347 103,725 -72,980 -175,255 -459,386 -752,459 -293,73 -594,88 -817,117 -223,29 -367,73 -486,193 -119,120 -214,317 -400,471 -186,153 -463,263 -812,294 -348,31 -767,-16 -1050,34 -283,50 -429,195 -817,420 -389,224 -1021,527 -1621,630 -601,104 -1170,9 -1699,-206 -529,-215 -1018,-551 -1292,-971 -274,-420 -332,-923 -208,-1343 124,-420 431,-755 566,-1022 135,-266 99,-463 -244,-664 -343,-201 -993,-405 -1358,-547 -365,-142 -445,-223 -240,-513 205,-291 695,-792 1341,-1395 646,-603 1448,-1308 2213,-1753 765,-445 1492,-631 2153,-595 662,36 1259,294 1928,604z"/>
  <g id="_2907284598080">
   <path class="fil1" d="M10070 5149c-1,19 -28,38 -798,580 -770,543 -2283,1609 -3057,2157 -774,548 -808,577 -845,582 -37,5 -76,-15 -467,-325 -391,-310 -1134,-912 -1516,-1230 -381,-318 -401,-352 -394,-374 7,-22 42,-32 807,-550 765,-518 2261,-1545 3024,-2066 763,-521 792,-535 824,-535 32,0 66,15 461,301 395,287 1152,845 1543,1134 391,288 417,307 416,325z"/>
   <path class="fil2" d="M10056 4892c-1,19 -28,38 -798,580 -770,543 -2283,1609 -3057,2157 -774,548 -808,577 -845,582 -37,5 -76,-15 -467,-325 -391,-310 -1134,-912 -1516,-1230 -381,-318 -401,-352 -394,-374 7,-22 42,-32 807,-550 765,-518 2261,-1545 3024,-2066 763,-521 792,-535 824,-535 32,0 66,15 461,301 395,287 1152,845 1543,1134 391,288 417,307 416,325z"/>
   <path class="fil1" d="M10114 4628c-1,19 -28,38 -798,580 -770,543 -2283,1609 -3057,2157 -774,548 -808,577 -845,582 -37,5 -76,-15 -467,-325 -391,-310 -1134,-912 -1516,-1230 -381,-318 -401,-352 -394,-374 7,-22 42,-32 807,-550 765,-518 2261,-1545 3024,-2066 763,-521 792,-535 824,-535 32,0 66,15 461,301 395,287 1152,845 1543,1134 391,288 417,307 416,325z"/>
   <path class="fil2" d="M10063 4430c-1,19 -28,38 -798,580 -770,543 -2283,1609 -3057,2157 -774,548 -808,577 -845,582 -37,5 -76,-15 -467,-325 -391,-310 -1134,-912 -1516,-1230 -381,-318 -401,-352 -394,-374 7,-22 42,-32 807,-550 765,-518 2261,-1545 3024,-2066 763,-521 792,-535 824,-535 32,0 66,15 461,301 395,287 1152,845 1543,1134 391,288 417,307 416,325z"/>
   <path class="fil1" d="M9960 4144c-1,19 -28,38 -798,580 -770,543 -2283,1609 -3057,2157 -774,548 -808,577 -845,582 -37,5 -76,-15 -467,-325 -391,-310 -1134,-912 -1516,-1230 -381,-318 -401,-352 -394,-374 7,-22 42,-32 807,-550 765,-518 2261,-1545 3024,-2066 763,-521 792,-535 824,-535 32,0 66,15 461,301 395,287 1152,845 1543,1134 391,288 417,307 416,325z"/>
   <path class="fil2" d="M9076 4374c-34,-19 -83,-67 -126,-125 -44,-60 -85,-130 -106,-195 -22,-66 -26,-127 -15,-178 10,-52 33,-95 59,-130 26,-35 57,-61 101,-54 47,7 109,48 188,106 77,58 167,133 224,184 57,50 78,76 83,100 6,24 -6,46 -55,89 -49,43 -138,107 -192,144 -55,37 -73,46 -91,57 -18,10 -36,21 -70,2z"/>
   <path class="fil2" d="M7194 2883c36,27 116,73 197,103 82,30 165,44 260,43 95,-2 204,-20 261,-40 57,-20 65,-44 43,-75 -21,-31 -71,-68 -126,-108 -54,-41 -116,-84 -163,-111 -47,-28 -84,-39 -133,-35 -48,5 -108,26 -163,54 -55,30 -104,67 -137,88 -32,22 -46,30 -57,38 -11,8 -19,16 17,43z"/>
   <path class="fil2" d="M7145 5436c-73,38 -154,69 -256,91 -104,22 -232,35 -368,26 -136,-9 -282,-40 -409,-81 -129,-42 -241,-94 -338,-157 -97,-62 -178,-136 -248,-221 -70,-85 -132,-183 -160,-280 -27,-97 -20,-192 7,-285 28,-93 78,-183 138,-254 59,-71 126,-121 219,-168 94,-48 214,-92 346,-110 133,-18 278,-10 434,23 155,33 316,90 451,158 135,68 241,147 329,241 89,95 159,204 193,317 36,112 38,228 7,323 -29,95 -87,170 -147,230 -61,60 -124,106 -197,144z"/>
   <path class="fil2" d="M8203 3144c269,202 678,492 908,663 230,171 283,221 297,261 14,40 -101,131 -381,321 -280,190 -473,316 -780,517 -313,205 -506,329 -937,615 -431,286 -945,638 -1243,848 -297,211 -523,376 -667,472 -143,96 -209,125 -270,115 -61,-10 -121,-58 -411,-296 -290,-238 -811,-669 -1066,-899 -250,-231 -153,-320 107,-503 260,-183 433,-299 725,-495 292,-197 472,-313 917,-613 446,-299 1096,-732 1420,-959 324,-227 484,-350 599,-411 115,-61 180,-61 279,-5 100,56 234,168 503,369zm-3080 3963c68,11 140,-20 276,-111 136,-91 339,-242 646,-461 307,-218 874,-609 1335,-917 461,-308 663,-438 993,-655 323,-212 526,-345 819,-545 293,-200 414,-297 397,-342 -17,-44 -74,-100 -332,-291 -258,-191 -718,-517 -1019,-742 -301,-226 -448,-350 -557,-412 -108,-62 -181,-63 -286,-10 -105,53 -320,219 -566,397 -246,177 -387,272 -643,447 -260,178 -559,376 -882,591 -322,215 -669,444 -978,651 -309,206 -491,328 -764,519 -273,192 -377,288 -95,545 282,257 869,739 1196,1005 327,266 394,320 462,331z"/>
   <path class="fil2" d="M5598 6749c-23,-26 -84,-65 -162,-101 -77,-36 -172,-70 -261,-90 -91,-20 -176,-27 -250,-21 -75,5 -139,20 -191,39 -52,18 -93,39 -87,73 6,34 59,82 134,140 76,58 173,128 239,171 66,43 100,60 133,66 33,5 65,-2 129,-36 64,-33 162,-92 218,-129 56,-36 72,-49 87,-61 16,-13 32,-24 10,-50z"/>
   <path class="fil3" d="M7045 4040c361,233 747,495 1012,690 265,196 410,325 476,441 67,116 56,219 50,411 -6,192 -8,473 -35,630 -28,158 -81,192 -250,319 -169,127 -452,347 -606,451 -154,104 -178,92 -189,-10 -11,-101 -8,-292 -5,-474 2,-182 4,-356 -28,-483 -32,-127 -98,-208 -420,-451 -322,-243 -899,-648 -1304,-923 -405,-275 -637,-420 -748,-513 -111,-93 -101,-135 9,-228 110,-93 320,-237 486,-339 166,-102 288,-162 367,-182 79,-20 116,-1 302,110 186,112 521,316 882,549z"/>
   <path class="fil1" d="M7289 4114c3,27 -22,62 -548,783 -526,722 -1553,2130 -2074,2844 -520,714 -534,732 -553,737 -19,4 -44,-5 -405,-184 -362,-178 -1061,-526 -1489,-741 -428,-215 -584,-298 -641,-352 -56,-54 -12,-78 518,-812 531,-733 1548,-2176 2076,-2897 528,-721 567,-721 747,-641 180,81 500,242 864,428 364,186 773,396 1019,528 247,132 332,185 391,222 59,37 90,57 94,84z"/>
   <path class="fil2" d="M7237 3909c3,27 -22,62 -543,776 -521,715 -1538,2109 -2058,2823 -520,714 -544,747 -569,758 -24,12 -49,2 -411,-177 -362,-178 -1061,-526 -1489,-741 -428,-215 -584,-298 -641,-352 -56,-54 -12,-78 518,-812 531,-733 1548,-2176 2076,-2897 528,-721 567,-721 747,-641 180,81 500,242 864,428 364,186 773,396 1019,528 247,132 332,185 391,222 59,37 90,57 94,84z"/>
   <path class="fil1" d="M7142 3689c3,27 -22,62 -543,776 -521,715 -1538,2109 -2058,2823 -520,714 -544,747 -569,758 -24,12 -49,2 -411,-177 -362,-178 -1061,-526 -1489,-741 -428,-215 -584,-298 -641,-352 -56,-54 -12,-78 518,-812 531,-733 1548,-2176 2076,-2897 528,-721 567,-721 747,-641 180,81 500,242 864,428 364,186 773,396 1019,528 247,132 332,185 391,222 59,37 90,57 94,84z"/>
   <path class="fil2" d="M7098 3425c3,27 -22,62 -543,776 -521,715 -1538,2109 -2058,2823 -520,714 -544,747 -569,758 -24,12 -49,2 -411,-177 -362,-178 -1061,-526 -1489,-741 -428,-215 -584,-298 -641,-352 -56,-54 -12,-78 518,-812 531,-733 1548,-2176 2076,-2897 528,-721 567,-721 747,-641 180,81 500,242 864,428 364,186 773,396 1019,528 247,132 332,185 391,222 59,37 90,57 94,84z"/>
   <path class="fil1" d="M6868 2355c16,189 -21,446 -104,693 -83,247 -214,484 -694,1197 -481,713 -1312,1903 -1739,2514 -427,611 -452,644 -476,656 -24,12 -49,2 -411,-177 -362,-178 -1061,-526 -1489,-741 -428,-215 -584,-298 -641,-352 -56,-54 -12,-78 518,-812 531,-733 1548,-2176 2076,-2897 528,-721 567,-721 747,-641 180,81 500,242 802,383 302,141 586,260 797,260 211,0 351,-120 416,-226 65,-106 55,-199 84,-185 29,15 98,137 114,326z"/>
   <path class="fil2" d="M4168 2346c37,13 117,27 196,25 80,-1 160,-21 252,-60 91,-40 194,-104 249,-150 56,-48 63,-76 43,-102 -20,-24 -68,-45 -121,-65 -55,-21 -114,-42 -161,-51 -48,-7 -84,-5 -131,23 -48,26 -105,74 -159,130 -53,54 -101,114 -132,151 -31,37 -44,50 -54,63 -11,12 -18,23 18,36z"/>
   <path class="fil2" d="M4887 5107c-49,59 -108,113 -192,165 -85,52 -195,103 -323,135 -129,34 -274,49 -408,49 -134,1 -256,-10 -369,-36 -110,-25 -211,-63 -308,-113 -96,-50 -188,-112 -249,-184 -61,-70 -91,-151 -101,-236 -8,-87 4,-178 30,-258 27,-80 70,-146 137,-222 66,-75 158,-161 270,-229 112,-68 243,-120 391,-154 148,-33 311,-47 453,-37 142,10 264,44 377,100 115,58 219,137 297,233 77,98 126,210 142,313 15,103 -3,194 -31,271 -28,78 -66,143 -115,202z"/>
   <path class="fil4" d="M4618 4983c-33,16 -70,54 -104,82 -36,28 -68,46 -99,46 -31,0 -62,-18 -97,-37 -34,-20 -72,-41 -73,-58 0,-18 37,-34 68,-57 31,-22 56,-51 77,-83 23,-32 40,-67 47,-96 4,-30 -1,-55 -23,-72 -23,-16 -61,-25 -102,-23 -39,3 -83,16 -123,45 -43,29 -85,73 -129,108 -43,35 -88,62 -134,82 -47,21 -96,34 -152,41 -55,8 -117,8 -169,1 -54,-5 -96,-16 -137,-34 -39,-16 -74,-39 -101,-68 -28,-30 -48,-68 -55,-108 -5,-41 3,-83 2,-108 -1,-24 -12,-32 -26,-37 -14,-4 -32,-7 -55,-12 -25,-4 -53,-12 -74,-20 -22,-8 -37,-16 -36,-35 0,-19 15,-48 41,-64 26,-15 62,-15 91,-11 31,4 53,13 76,16 21,3 41,-1 58,-11 18,-11 31,-28 57,-58 27,-28 66,-68 96,-96 31,-27 50,-43 77,-41 26,2 57,20 83,35 26,16 49,28 66,38 18,10 33,16 17,34 -15,17 -60,45 -94,72 -33,27 -56,53 -74,80 -20,26 -37,54 -41,82 -4,28 3,57 23,77 20,19 52,30 104,18 53,-11 123,-44 188,-80 63,-35 118,-75 162,-99 42,-25 74,-37 118,-44 44,-9 101,-13 152,-11 51,1 95,9 137,22 41,13 81,28 117,46 34,18 63,38 83,71 20,33 31,78 35,113 4,34 0,56 0,71 1,15 7,23 30,35 23,13 64,30 88,46 24,16 32,30 29,52 -4,22 -17,48 -30,65 -12,18 -24,24 -40,20 -18,-4 -43,-20 -69,-30 -26,-11 -53,-17 -85,-1z"/>
   <path class="fil2" d="M6718 2471c-13,75 -41,213 -85,354 -44,141 -105,284 -149,369 -44,84 -72,110 -99,115 -27,5 -54,-10 -96,-37 -42,-27 -101,-67 -150,-125 -49,-58 -88,-135 -112,-204 -24,-69 -33,-131 -28,-190 4,-59 22,-114 45,-143 23,-30 53,-34 93,-30 40,4 91,15 159,11 68,-5 155,-25 222,-55 68,-30 116,-69 148,-98 31,-29 45,-48 53,-51 8,-3 11,11 -1,86z"/>
   <path class="fil2" d="M1715 5735c-35,46 -98,140 -141,198 -42,59 -63,82 -63,107 0,24 22,49 98,91 77,41 209,98 283,129 74,30 91,34 104,17 13,-17 24,-54 31,-108 8,-54 12,-126 1,-188 -11,-62 -39,-116 -78,-159 -39,-44 -90,-78 -123,-98 -33,-20 -49,-25 -61,-29 -11,-3 -18,-5 -53,42z"/>
   <path class="fil2" d="M4073 6721c-36,68 -131,196 -190,278 -58,82 -78,118 -111,126 -33,8 -78,-13 -177,-55 -99,-42 -252,-106 -335,-146 -83,-40 -96,-58 -90,-78 7,-20 33,-42 94,-75 60,-33 155,-76 254,-104 99,-28 203,-40 294,-43 91,-2 169,5 221,13 51,8 76,17 40,85z"/>
   <path class="fil2" d="M6684 2514c2,67 -36,223 -73,342 -37,119 -73,200 -100,259 -26,59 -43,96 -153,273 -110,177 -313,494 -537,848 -225,354 -472,745 -767,1165 -295,420 -638,870 -854,1168 -216,298 -304,444 -385,503 -81,59 -154,32 -271,-20 -117,-52 -276,-130 -565,-266 -289,-136 -707,-332 -966,-457 -259,-125 -360,-180 -417,-217 -57,-37 -70,-55 -54,-98 16,-43 60,-112 98,-167 38,-55 69,-98 112,-150 43,-52 99,-115 340,-455 241,-339 666,-956 948,-1360 282,-405 422,-598 582,-823 160,-225 342,-483 523,-740 71,-68 143,-137 195,-192 52,-56 86,-99 112,-103 27,-4 46,31 29,82 -17,51 -71,117 -151,223 -80,107 -186,254 -390,528 -203,273 -504,672 -757,1037 -252,364 -457,695 -672,1005 -215,310 -441,601 -573,772 -132,171 -170,223 -181,273 -11,50 4,99 56,139 53,40 143,71 423,198 280,127 749,350 1017,470 269,120 338,137 409,121 71,-15 145,-63 229,-153 84,-90 179,-221 392,-520 213,-299 544,-765 830,-1185 286,-420 527,-793 718,-1088 192,-295 334,-511 441,-705 107,-194 180,-365 198,-441 18,-77 -18,-59 -75,-53 -57,5 -135,-2 -202,-13 -67,-11 -123,-24 -309,-98 -186,-73 -501,-206 -727,-296 -226,-90 -363,-138 -436,-184 -73,-46 -84,-92 -75,-120 9,-28 36,-39 73,-35 38,4 85,22 207,78 122,56 319,148 491,229 173,81 322,149 444,200 122,51 218,86 305,96 87,11 166,-2 237,-21 71,-20 133,-46 185,-70 52,-24 95,-46 97,22z"/>
   <path class="fil3" d="M6508 5245c12,-95 5,-254 -27,-433 -32,-178 -88,-377 -146,-522 -58,-146 -118,-239 -389,-403 -271,-164 -754,-398 -1144,-588 -389,-190 -684,-335 -870,-418 -185,-83 -261,-102 -302,-100 -40,2 -45,27 -163,204 -117,177 -347,507 -467,681 -120,174 -130,191 -101,208 28,17 94,34 397,152 303,118 843,337 1226,535 384,198 611,376 769,524 158,148 246,266 296,447 50,181 63,424 63,574 0,150 -13,208 20,202 33,-5 111,-74 245,-235 134,-161 325,-416 436,-559 111,-143 143,-175 155,-270z"/>
   <path class="fil5" d="M6040 4260c37,115 87,287 109,469 22,182 16,374 -35,527 -52,153 -150,268 -216,359 -66,90 -100,156 -123,240 -23,83 -35,183 -9,198 27,15 93,-56 209,-191 116,-134 282,-332 368,-457 86,-125 91,-176 77,-283 -13,-106 -45,-268 -85,-427 -40,-159 -89,-315 -134,-421 -45,-105 -85,-159 -125,-191 -41,-32 -82,-44 -90,-20 -8,23 17,81 54,196z"/>
   <path class="fil5" d="M8493 5402c5,79 15,225 16,373 1,149 -8,300 -22,397 -14,97 -34,138 -152,237 -119,98 -337,254 -475,352 -138,98 -195,139 -231,134 -35,-5 -49,-56 -38,-129 11,-74 47,-170 120,-267 73,-97 184,-195 287,-290 104,-95 201,-188 259,-279 58,-92 76,-183 94,-272 18,-89 36,-175 49,-236 14,-60 23,-95 37,-111 13,-17 31,-15 40,-8 9,7 10,21 16,100z"/>
  </g>
  <path class="fil6" d="M9340 9689c-80,31 -211,80 -323,141 -111,62 -203,137 -247,200 -44,62 -41,112 -14,158 27,46 78,87 133,88 55,1 112,-39 184,-91 72,-52 158,-116 231,-164 73,-48 132,-80 178,-100 45,-20 76,-28 83,-66 7,-38 -11,-105 -29,-147 -19,-42 -38,-58 -63,-59 -24,-2 -53,11 -133,41z"/>
  <path class="fil6" d="M7823 10039c39,-54 108,-117 187,-157 79,-40 167,-57 281,-41 114,16 254,65 357,113 104,48 171,96 225,159 54,63 94,142 112,220 17,78 11,156 -17,231 -28,75 -78,148 -168,209 -90,61 -221,109 -381,111 -160,1 -350,-45 -494,-106 -144,-61 -242,-138 -275,-217 -33,-79 -2,-160 49,-202 51,-42 122,-44 186,-19 65,25 123,78 199,126 76,49 170,94 264,104 94,10 189,-13 241,-56 53,-43 63,-104 33,-167 -30,-63 -100,-127 -186,-161 -86,-34 -186,-39 -254,-13 -68,25 -103,80 -137,114 -34,34 -65,48 -105,46 -39,-2 -86,-19 -117,-46 -31,-27 -45,-64 -47,-106 -2,-41 7,-87 46,-141z"/>
  <path class="fil6" d="M10259 8932c51,43 110,116 144,197 35,81 46,170 22,283 -23,113 -82,249 -136,349 -55,100 -107,164 -173,214 -67,50 -148,85 -227,97 -79,12 -156,1 -229,-32 -73,-33 -143,-87 -198,-181 -55,-94 -95,-228 -85,-387 9,-160 67,-346 138,-486 71,-140 154,-232 235,-260 81,-28 160,9 199,62 38,54 36,124 7,187 -29,63 -86,118 -139,191 -54,73 -105,163 -121,256 -17,93 1,189 40,244 39,55 100,70 165,44 65,-26 133,-92 173,-175 40,-83 51,-183 30,-253 -21,-70 -73,-108 -105,-144 -32,-36 -43,-68 -39,-108 4,-39 25,-85 54,-114 29,-29 67,-40 109,-40 41,0 86,12 138,55z"/>
  <path class="fil6" d="M12305 8549c-113,108 -259,222 -406,294 -147,72 -294,102 -425,118 -131,16 -246,16 -334,9 -88,-8 -149,-25 -197,-75 -47,-50 -81,-133 -89,-197 -8,-64 9,-111 42,-160 33,-50 83,-103 166,-131 83,-29 201,-34 314,-61 113,-27 221,-77 325,-143 104,-66 203,-149 283,-264 81,-115 143,-263 184,-410 42,-147 64,-295 55,-424 -9,-130 -48,-241 -99,-344 -51,-103 -113,-197 -194,-278 -81,-81 -180,-147 -294,-203 -115,-56 -245,-101 -370,-127 -125,-26 -245,-34 -367,-16 -123,18 -248,62 -376,140 -128,78 -259,191 -351,305 -91,114 -143,229 -168,362 -25,133 -22,284 -18,407 5,123 12,219 39,305 28,87 77,164 103,218 27,54 31,83 1,135 -29,52 -93,127 -159,160 -67,33 -137,24 -200,1 -63,-23 -120,-59 -170,-94 -50,-35 -94,-69 -138,-151 -44,-82 -87,-211 -113,-352 -26,-141 -34,-294 -20,-456 14,-162 51,-334 110,-501 59,-168 141,-331 256,-478 115,-147 263,-277 417,-377 154,-100 312,-171 467,-214 154,-44 304,-61 469,-61 165,0 346,19 491,51 145,32 254,78 365,139 111,61 222,137 335,236 113,99 227,223 319,355 92,132 163,274 218,440 55,166 96,356 98,536 2,181 -35,352 -91,517 -56,165 -132,322 -210,452 -78,130 -157,231 -270,339z"/>
  <path class="fil7" d="M10729 9463c87,-80 232,-246 313,-333 81,-88 97,-97 109,-164 13,-67 21,-193 39,-311 18,-118 44,-229 10,-296 -34,-67 -128,-91 -288,-157 -160,-66 -386,-172 -530,-249 -145,-76 -208,-122 -256,-136 -48,-14 -80,5 -156,47 -76,43 -196,109 -283,158 -87,48 -143,78 -165,123 -22,45 -12,105 -35,231 -23,127 -79,320 -105,427 -26,107 -21,126 142,209 163,83 484,229 687,326 203,97 288,145 345,172 57,27 86,33 173,-47z"/>
  <path class="fil6" d="M6723 8381c138,73 292,177 406,293 114,117 189,247 245,367 56,120 93,228 113,315 20,86 23,150 -10,210 -33,61 -101,118 -160,146 -59,28 -108,26 -165,10 -57,-16 -123,-47 -177,-117 -53,-70 -95,-180 -156,-279 -61,-99 -142,-186 -237,-264 -95,-78 -205,-146 -340,-186 -135,-40 -294,-53 -447,-47 -153,6 -300,32 -420,80 -120,49 -214,121 -296,201 -82,80 -152,169 -203,271 -51,102 -84,217 -101,343 -17,126 -19,264 -5,391 14,127 44,243 99,354 55,111 136,216 251,314 115,97 263,187 400,238 137,51 262,64 396,46 134,-18 277,-68 392,-111 116,-43 204,-79 278,-133 74,-54 132,-124 175,-166 43,-42 69,-55 128,-43 59,12 150,48 202,102 52,53 65,123 64,190 -2,67 -18,132 -36,191 -18,59 -36,111 -100,178 -64,67 -173,149 -299,217 -126,69 -268,124 -427,162 -158,37 -333,56 -510,52 -178,-4 -358,-30 -534,-94 -175,-63 -346,-164 -489,-278 -143,-115 -260,-243 -350,-376 -90,-133 -153,-269 -204,-427 -51,-157 -90,-334 -105,-482 -15,-148 -5,-266 18,-390 23,-124 60,-254 120,-392 59,-138 140,-285 237,-414 97,-129 209,-240 349,-344 140,-104 308,-202 479,-260 171,-58 346,-77 520,-75 174,2 348,25 495,58 147,33 268,77 406,150z"/>
  <path class="fil7" d="M8084 9592c-103,-58 -306,-144 -415,-193 -108,-49 -122,-62 -190,-52 -68,9 -190,40 -307,60 -118,20 -231,30 -284,83 -53,53 -47,151 -59,323 -12,173 -43,420 -71,582 -27,161 -51,236 -49,285 2,50 29,75 94,133 64,59 165,152 239,220 73,68 119,111 169,118 50,7 103,-21 231,-39 127,-18 329,-25 438,-34 109,-9 126,-19 154,-200 28,-181 66,-531 95,-755 29,-223 48,-319 56,-382 8,-63 4,-92 -99,-149z"/>
  <path class="fil6" d="M9872 9555c40,14 85,48 118,124 33,76 53,193 39,336 -15,143 -65,313 -155,446 -90,134 -218,232 -359,294 -140,62 -293,88 -430,80 -138,-8 -262,-51 -355,-104 -93,-52 -156,-115 -188,-178 -32,-63 -32,-127 -24,-176 9,-48 26,-81 58,-93 32,-12 79,-2 121,20 42,22 78,56 117,84 39,28 80,51 127,67 48,16 102,25 169,26 66,1 144,-8 222,-28 78,-21 155,-53 212,-101 56,-48 92,-110 122,-188 31,-77 57,-170 60,-241 3,-71 -19,-122 -25,-171 -6,-49 2,-97 15,-130 12,-33 28,-52 54,-64 26,-12 62,-19 102,-5z"/>
  <path class="fil8" d="M9487 7543c-8,54 -17,200 -38,310 -21,109 -54,180 -100,234 -46,53 -103,89 -152,113 -49,24 -88,37 -68,49 20,12 98,25 151,48 52,23 78,57 103,119 24,62 47,152 64,251 17,99 29,207 41,313 12,106 25,211 33,245 7,34 9,-4 10,-88 1,-84 1,-215 18,-333 16,-118 48,-223 92,-311 44,-88 99,-157 142,-196 43,-39 75,-48 63,-66 -12,-18 -66,-45 -110,-80 -44,-35 -77,-79 -111,-155 -34,-75 -69,-181 -88,-257 -19,-76 -23,-123 -29,-166 -6,-43 -14,-83 -22,-29z"/>
  <path class="fil8" d="M7182 2279c17,87 42,327 84,505 42,177 102,291 180,376 78,84 176,139 257,175 81,36 147,54 116,75 -31,22 -160,48 -244,89 -84,42 -124,99 -160,202 -36,103 -66,252 -87,416 -21,163 -33,341 -45,516 -13,175 -26,348 -36,403 -10,56 -15,-6 -23,-143 -8,-138 -18,-352 -53,-544 -35,-192 -95,-362 -173,-503 -78,-140 -173,-251 -247,-312 -74,-61 -126,-73 -108,-103 18,-30 105,-78 174,-139 69,-61 120,-136 171,-261 50,-125 100,-302 126,-428 26,-126 29,-203 35,-274 6,-71 16,-137 34,-50z"/>
  <path class="fil8" d="M4116 9340c-8,40 -19,148 -38,229 -19,80 -46,132 -82,170 -36,38 -80,63 -117,79 -37,16 -67,24 -52,34 14,10 72,22 110,40 38,19 56,45 72,91 16,47 30,114 40,188 10,74 15,155 21,234 6,79 12,158 16,183 4,25 7,-3 10,-65 4,-62 8,-159 24,-247 16,-87 43,-164 78,-228 35,-64 78,-114 112,-141 33,-28 57,-33 49,-47 -8,-14 -48,-35 -79,-63 -31,-28 -55,-62 -77,-118 -23,-57 -45,-137 -57,-194 -12,-57 -13,-92 -16,-124 -3,-32 -7,-62 -15,-23z"/>
 </g>
</svg>
