<?xml version="1.0" encoding="UTF-8"?>
<!DOCTYPE svg PUBLIC "-//W3C//DTD SVG 1.1//EN" "http://www.w3.org/Graphics/SVG/1.1/DTD/svg11.dtd">
<!-- Creator: CorelDRAW 2017 -->
<svg xmlns="http://www.w3.org/2000/svg" xml:space="preserve" width="143mm" height="143mm" version="1.1" style="shape-rendering:geometricPrecision; text-rendering:geometricPrecision; image-rendering:optimizeQuality; fill-rule:evenodd; clip-rule:evenodd"
viewBox="0 0 14300 14300"
 xmlns:xlink="http://www.w3.org/1999/xlink">
 <defs>
  <style type="text/css">
   <![CDATA[
    .str1 {stroke:black;stroke-width:50}
    .str0 {stroke:#6E2D17;stroke-width:150;stroke-linecap:round;stroke-linejoin:round}
    .fil2 {fill:none}
    .fil8 {fill:none;fill-rule:nonzero}
    .fil5 {fill:#4D4D4D}
    .fil4 {fill:#6E2D17}
    .fil1 {fill:#AB6844}
    .fil0 {fill:#D65036}
    .fil6 {fill:#E6E6E6}
    .fil3 {fill:#FFD663}
    .fil7 {fill:black;fill-rule:nonzero}
   ]]>
  </style>
 </defs>
 <g id="Слой_x0020_1">
  <metadata id="CorelCorpID_0Corel-Layer"/>
  <path class="fil0" d="M6029 11214c1026,24 2641,102 3657,197 1015,94 1430,204 1751,299 320,95 545,174 611,306 66,131 -28,314 -380,465 -353,151 -964,271 -1916,320 -951,49 -2243,26 -3242,-49 -999,-76 -1707,-205 -2127,-355 -420,-150 -552,-320 -639,-473 -87,-153 -128,-287 -56,-396 72,-109 256,-192 567,-249 311,-57 749,-88 1775,-64z"/>
  <path class="fil1" d="M3866 2860c-194,355 -522,1079 -743,1864 -221,785 -334,1632 -352,2374 -19,743 57,1381 199,2074 141,693 348,1442 496,1874 148,432 237,547 383,633 146,86 350,143 683,201 333,58 795,118 1463,148 667,30 1539,29 2159,1 620,-28 987,-84 1219,-126 232,-42 329,-71 402,-166 73,-95 124,-257 263,-812 139,-555 368,-1502 483,-2499 115,-997 117,-2043 2,-2971 -114,-928 -345,-1737 -489,-2198 -144,-462 -203,-577 -256,-635 -53,-58 -101,-58 -913,-63 -812,-4 -2387,-13 -3271,-18 -884,-5 -1076,-8 -1197,-9 -120,-2 -168,-2 -222,-9 -54,-7 -114,-20 -308,336z"/>
  <path class="fil2 str0" d="M4716 11704c-137,-368 -273,-735 -413,-1461 -140,-726 -282,-1810 -344,-2797 -62,-987 -45,-1877 36,-2586 81,-709 226,-1236 333,-1593 107,-357 175,-544 244,-732"/>
  <path class="fil2 str0" d="M5962 2544c-114,947 -229,1894 -235,3108 -7,1214 95,2695 193,3772 99,1077 195,1751 291,2425"/>
  <path class="fil2 str0" d="M7586 2553c60,941 120,1883 154,2934 35,1051 44,2212 -8,3284 -52,1073 -165,2057 -279,3041"/>
  <path class="fil2 str0" d="M8865 2560c198,1012 396,2025 473,3090 77,1065 32,2183 -83,3171 -115,988 -300,1845 -413,2328 -112,482 -152,590 -191,697"/>
  <path class="fil3" d="M4796 2293c643,-4 1891,4 2651,9 760,5 1032,6 1268,11 236,6 435,16 605,44 170,29 310,76 413,125 103,49 168,100 203,188 35,87 41,211 12,333 -29,122 -94,242 -137,356 -43,114 -65,222 -74,329 -9,107 -5,213 -23,296 -17,83 -56,143 -112,174 -56,31 -129,32 -179,-24 -50,-56 -76,-170 -100,-289 -24,-119 -45,-243 -93,-384 -49,-142 -125,-302 -203,-412 -78,-111 -158,-172 -237,-198 -79,-26 -157,-17 -221,16 -63,33 -112,91 -149,202 -37,112 -62,278 -95,412 -33,134 -75,237 -144,299 -69,62 -165,84 -253,45 -88,-39 -167,-138 -237,-222 -70,-84 -129,-153 -212,-178 -83,-25 -189,-6 -297,-1 -108,5 -219,-4 -309,-63 -90,-59 -159,-168 -238,-244 -78,-75 -166,-117 -278,-113 -112,4 -249,52 -354,144 -105,92 -177,227 -196,366 -19,138 14,280 49,396 35,116 72,208 81,307 9,100 -10,208 -73,283 -63,75 -169,116 -284,90 -114,-27 -237,-122 -269,-273 -32,-152 26,-360 84,-515 57,-154 114,-254 132,-379 18,-125 -3,-274 -59,-392 -56,-118 -149,-205 -262,-240 -113,-35 -247,-20 -356,24 -109,44 -193,116 -261,186 -68,70 -119,137 -171,186 -52,48 -106,78 -183,53 -78,-25 -180,-104 -241,-211 -60,-107 -79,-241 -75,-350 4,-110 30,-195 60,-249 30,-54 63,-76 98,-96 36,-20 74,-37 717,-41z"/>
  <path class="fil1" d="M4318 2116c427,-65 1232,-158 2064,-218 832,-60 1689,-87 2240,-75 551,12 795,63 924,98 129,34 144,52 150,75 6,23 3,50 -34,79 -37,29 -108,58 -748,118 -640,60 -1849,150 -2770,203 -921,53 -1554,70 -1902,70 -348,1 -411,-15 -438,-52 -27,-38 -19,-98 10,-147 28,-49 77,-86 504,-151z"/>
  <path class="fil4" d="M6491 1776c68,-15 176,-30 256,-36 80,-6 133,-3 167,12 34,15 49,42 66,71 17,30 37,63 47,88 10,25 10,41 -13,58 -23,17 -69,36 -159,48 -91,12 -227,18 -327,20 -100,3 -163,2 -192,-21 -29,-23 -24,-68 -13,-104 11,-36 27,-64 49,-85 23,-21 52,-36 120,-51z"/>
  <path class="fil5" d="M3891 5071c990,0 2968,13 4234,12 1266,-1 1820,-18 2106,-21 287,-3 307,6 325,42 18,36 33,99 51,220 18,122 40,302 50,413 9,110 7,150 -15,173 -22,23 -64,30 -1325,43 -1261,13 -3742,32 -5036,41 -1294,9 -1400,8 -1456,-4 -57,-12 -64,-35 -58,-111 6,-76 26,-206 50,-345 24,-139 53,-286 68,-367 15,-81 16,-95 1006,-96z"/>
  <path class="fil5" d="M4396 9243c1163,6 3370,19 4559,26 1189,6 1361,5 1448,22 88,17 92,52 72,156 -20,104 -64,278 -93,387 -28,109 -41,154 -56,179 -15,25 -33,29 -345,33 -311,4 -916,9 -2054,19 -1138,11 -2810,27 -3699,38 -889,10 -994,14 -1054,8 -60,-6 -74,-22 -100,-91 -27,-69 -66,-191 -97,-312 -32,-121 -57,-240 -66,-314 -9,-75 -2,-105 15,-123 17,-18 44,-25 117,-29 73,-4 191,-5 1353,0z"/>
  <path class="fil6" d="M9722 6589c-6,-48 -19,-100 -153,-134 -134,-34 -387,-51 -1020,-68 -632,-17 -1643,-33 -2185,-44 -542,-11 -615,-17 -663,-3 -48,14 -72,50 -96,256 -24,207 -48,585 -60,944 -12,359 -12,699 -4,883 7,184 22,212 115,231 93,19 264,29 784,34 520,4 1388,2 1953,-1 565,-3 826,-7 978,-23 152,-16 195,-44 224,-105 30,-60 47,-153 67,-422 20,-269 44,-713 55,-977 11,-264 8,-349 8,-413 0,-65 2,-110 -4,-158z"/>
  <path class="fil7" d="M6108 7926c-29,0 -42,-128 -38,-382 3,-254 19,-381 48,-381 29,0 42,53 41,157 -1,104 54,157 167,159 113,2 170,-50 172,-154 1,-104 17,-156 45,-156 29,0 42,128 38,382 -3,254 -19,381 -48,381 -29,0 -42,-60 -41,-180 2,-120 -54,-180 -167,-182 -113,-2 -170,58 -172,177 -2,120 -17,179 -46,179z"/>
  <path id="1" class="fil7" d="M6698 7613c0,-34 1,-82 2,-145 1,-63 31,-130 90,-201 59,-71 112,-106 158,-105 46,1 84,1 114,2 30,0 69,18 117,52 48,34 84,82 109,142 25,60 37,110 36,148 -1,38 -1,77 -2,115 -1,39 -14,88 -42,149 -28,61 -66,106 -115,137 -49,31 -88,46 -117,46 -28,0 -58,-1 -89,-1 -31,0 -70,-18 -118,-54 -48,-35 -84,-83 -108,-144 -24,-60 -36,-107 -36,-141zm91 -134c-1,57 -1,109 -2,155 -1,46 20,96 61,149 42,53 78,80 110,81 32,0 64,1 97,1 33,0 70,-26 113,-79 43,-53 64,-104 65,-153 1,-49 1,-89 2,-120 0,-31 -8,-70 -26,-116 -17,-47 -43,-83 -77,-109 -34,-26 -62,-39 -84,-39 -22,0 -48,-1 -78,-1 -31,0 -68,24 -113,72 -45,48 -67,101 -68,159z"/>
  <path id="2" class="fil7" d="M7469 7944c-27,0 -40,-128 -36,-382 3,-254 20,-381 49,-381 29,0 100,101 212,302 112,201 169,202 171,2 3,-200 18,-299 45,-299 28,0 40,128 36,382 -3,254 -20,381 -49,381 -29,0 -100,-101 -212,-303 -112,-201 -169,-202 -171,-2 -3,200 -18,300 -45,299z"/>
  <path id="3" class="fil7" d="M8332 7956c-162,-2 -242,-130 -238,-384 3,-254 84,-380 241,-378 157,2 236,18 235,48 0,30 -65,44 -193,43 -129,-2 -193,36 -194,114 -1,78 59,117 179,119 120,2 180,17 180,47 0,30 -61,44 -181,42 -120,-2 -181,41 -182,127 -1,87 65,131 198,132 134,2 200,18 200,48 0,30 -82,44 -244,42z"/>
  <path id="4" class="fil7" d="M8922 7964c-29,0 -42,-54 -41,-162 1,-108 -39,-235 -121,-383 -82,-148 -105,-221 -70,-221 35,0 73,39 115,117 42,77 69,127 80,148 12,22 22,43 32,65 10,22 20,22 30,3 10,-20 22,-42 36,-67 14,-25 43,-74 86,-149 43,-74 81,-111 115,-111 34,0 6,73 -83,219 -89,145 -134,272 -135,379 -1,108 -17,161 -45,161z"/>
  <path id="5" class="fil8 str1" d="M6108 7926c-29,0 -42,-128 -38,-382 3,-254 19,-381 48,-381 29,0 42,53 41,157 -1,104 54,157 167,159 113,2 170,-50 172,-154 1,-104 17,-156 45,-156 29,0 42,128 38,382 -3,254 -19,381 -48,381 -29,0 -42,-60 -41,-180 2,-120 -54,-180 -167,-182 -113,-2 -170,58 -172,177 -2,120 -17,179 -46,179z"/>
  <path id="6" class="fil8 str1" d="M6698 7613c0,-34 1,-82 2,-145 1,-63 31,-130 90,-201 59,-71 112,-106 158,-105 46,1 84,1 114,2 30,0 69,18 117,52 48,34 84,82 109,142 25,60 37,110 36,148 -1,38 -1,77 -2,115 -1,39 -14,88 -42,149 -28,61 -66,106 -115,137 -49,31 -88,46 -117,46 -28,0 -58,-1 -89,-1 -31,0 -70,-18 -118,-54 -48,-35 -84,-83 -108,-144 -24,-60 -36,-107 -36,-141zm91 -134c-1,57 -1,109 -2,155 -1,46 20,96 61,149 42,53 78,80 110,81 32,0 64,1 97,1 33,0 70,-26 113,-79 43,-53 64,-104 65,-153 1,-49 1,-89 2,-120 0,-31 -8,-70 -26,-116 -17,-47 -43,-83 -77,-109 -34,-26 -62,-39 -84,-39 -22,0 -48,-1 -78,-1 -31,0 -68,24 -113,72 -45,48 -67,101 -68,159z"/>
  <path id="7" class="fil8 str1" d="M7469 7944c-27,0 -40,-128 -36,-382 3,-254 20,-381 49,-381 29,0 100,101 212,302 112,201 169,202 171,2 3,-200 18,-299 45,-299 28,0 40,128 36,382 -3,254 -20,381 -49,381 -29,0 -100,-101 -212,-303 -112,-201 -169,-202 -171,-2 -3,200 -18,300 -45,299z"/>
  <path id="8" class="fil8 str1" d="M8332 7956c-162,-2 -242,-130 -238,-384 3,-254 84,-380 241,-378 157,2 236,18 235,48 0,30 -65,44 -193,43 -129,-2 -193,36 -194,114 -1,78 59,117 179,119 120,2 180,17 180,47 0,30 -61,44 -181,42 -120,-2 -181,41 -182,127 -1,87 65,131 198,132 134,2 200,18 200,48 0,30 -82,44 -244,42z"/>
  <path id="9" class="fil8 str1" d="M8922 7964c-29,0 -42,-54 -41,-162 1,-108 -39,-235 -121,-383 -82,-148 -105,-221 -70,-221 35,0 73,39 115,117 42,77 69,127 80,148 12,22 22,43 32,65 10,22 20,22 30,3 10,-20 22,-42 36,-67 14,-25 43,-74 86,-149 43,-74 81,-111 115,-111 34,0 6,73 -83,219 -89,145 -134,272 -135,379 -1,108 -17,161 -45,161z"/>
 </g>
</svg>
