<?xml version="1.0" encoding="UTF-8"?>
<!DOCTYPE svg PUBLIC "-//W3C//DTD SVG 1.1//EN" "http://www.w3.org/Graphics/SVG/1.1/DTD/svg11.dtd">
<!-- Creator: CorelDRAW 2017 -->
<svg xmlns="http://www.w3.org/2000/svg" xml:space="preserve" width="143mm" height="143mm" version="1.1" style="shape-rendering:geometricPrecision; text-rendering:geometricPrecision; image-rendering:optimizeQuality; fill-rule:evenodd; clip-rule:evenodd"
viewBox="0 0 14300 14300"
 xmlns:xlink="http://www.w3.org/1999/xlink">
 <defs>
  <style type="text/css">
   <![CDATA[
    .fil7 {fill:#315063}
    .fil1 {fill:#4A94CE}
    .fil5 {fill:#5B962C}
    .fil2 {fill:#6666CC}
    .fil6 {fill:#7BAD52}
    .fil4 {fill:#94E8FF}
    .fil11 {fill:#A5D673}
    .fil0 {fill:#A60000}
    .fil8 {fill:#B5DBE8}
    .fil10 {fill:#EDBF42}
    .fil9 {fill:#FFE77B}
    .fil3 {fill:white}
   ]]>
  </style>
 </defs>
 <g id="Слой_x0020_1">
  <metadata id="CorelCorpID_0Corel-Layer"/>
  <path class="fil0" d="M1262 10166c204,10 546,34 746,77 200,42 256,103 171,133 -85,30 -310,30 -518,32 -208,2 -397,6 -542,2 -145,-4 -246,-16 -270,-58 -24,-42 28,-115 87,-153 58,-38 123,-42 327,-32z"/>
  <path class="fil0" d="M6121 10831c91,-6 196,2 194,34 -2,32 -111,89 -266,115 -155,26 -357,22 -393,0 -36,-22 93,-63 196,-93 103,-30 179,-50 270,-56z"/>
  <path class="fil0" d="M5221 11023c57,-16 124,-20 136,-6 12,14 -30,46 -88,62 -57,16 -130,16 -142,2 -12,-14 36,-42 94,-58z"/>
  <path class="fil0" d="M12631 6720c319,125 739,312 774,409 35,97 -314,104 -625,234 -311,130 -585,382 -833,497 -248,115 -471,92 -773,81 -302,-11 -682,-9 -865,25 -183,34 -170,101 -33,206 137,105 398,248 728,317 330,69 730,64 1094,146 364,82 692,251 877,368 185,116 228,180 132,228 -96,49 -329,82 -556,109 -226,27 -445,49 -498,94 -53,46 60,116 102,176 42,60 14,109 -207,167 -221,58 -634,123 -951,171 -317,47 -537,77 -711,185 -174,108 -302,296 -741,369 -438,73 -1186,30 -1740,-1 -554,-30 -914,-49 -1380,-41 -466,8 -1038,43 -1641,46 -603,4 -1238,-24 -1598,-68 -360,-44 -444,-104 -240,-217 205,-113 698,-278 809,-424 111,-146 -161,-273 -537,-367 -376,-93 -856,-153 -1180,-210 -324,-57 -493,-112 -572,-218 -79,-106 -67,-264 65,-399 132,-135 386,-247 893,-278 508,-31 1270,18 1929,16 660,-2 1217,-57 1891,-159 674,-102 1464,-253 1919,-430 455,-178 575,-382 586,-551 11,-169 -88,-303 -33,-399 54,-96 261,-153 474,-196 213,-43 432,-71 676,-95 244,-24 514,-45 853,-51 339,-6 746,2 1059,37 313,35 532,98 851,223z"/>
  <path class="fil0" d="M12728 9501c15,-11 180,-11 248,0 68,11 37,33 -45,33 -83,0 -218,-22 -203,-33z"/>
  <path class="fil0" d="M12916 9689c82,12 193,48 256,86 64,37 80,76 16,81 -64,5 -207,-23 -313,-50 -107,-27 -177,-53 -196,-71 -18,-17 16,-25 59,-35 43,-10 96,-22 177,-10z"/>
  <path class="fil1" d="M7876 6429c541,97 1143,291 1541,522 398,232 591,501 522,756 -68,255 -398,496 -934,671 -536,175 -1280,284 -2220,335 -940,52 -2077,47 -3021,-47 -944,-95 -1695,-279 -2195,-508 -500,-229 -749,-503 -759,-756 -10,-253 219,-484 651,-659 432,-175 1067,-292 1920,-351 854,-59 1926,-60 2701,-60 775,0 1254,0 1794,97z"/>
  <path class="fil2" d="M3765 8666c-842,-84 -1531,-240 -2025,-435 133,71 292,142 423,218 131,76 325,161 451,246 127,85 364,154 573,206 209,52 296,82 793,96 496,14 1195,28 1794,31 599,2 1097,-7 1388,-33 291,-26 376,-69 589,-157 213,-89 555,-224 897,-359 -493,117 -1115,194 -1861,236 -940,52 -2077,47 -3021,-47z"/>
  <path class="fil3" d="M7427 6974c228,49 565,133 758,236 193,103 243,225 219,355 -25,130 -123,267 -433,354 -309,86 -828,121 -1555,146 -726,25 -1660,39 -2380,-16 -720,-54 -1227,-177 -1546,-310 -319,-133 -451,-277 -426,-395 25,-118 208,-209 573,-290 365,-81 912,-151 1432,-187 519,-36 1011,-38 1488,-27 477,11 940,33 1232,52 291,18 411,32 639,82z"/>
  <path class="fil1" d="M12640 4199c-62,559 -205,1660 -282,2230 -78,570 -90,610 -131,647 -41,37 -109,71 -256,106 -147,35 -373,71 -583,88 -210,17 -405,15 -577,-6 -171,-22 -319,-63 -412,-104 -93,-41 -131,-80 -218,-591 -88,-511 -225,-1492 -306,-2047 -81,-555 -106,-683 -102,-768 5,-85 39,-126 188,-169 149,-42 412,-86 669,-111 257,-25 508,-32 775,-24 267,8 550,32 763,60 213,28 355,60 436,86 80,25 98,43 36,603z"/>
  <path class="fil2" d="M12450 3659c-71,-18 -197,-42 -384,-62 -188,-20 -438,-37 -673,-43 -236,-6 -457,-1 -683,18 -227,18 -459,50 -590,80 -84,20 -127,39 -148,66 4,6 8,11 12,16 15,18 25,27 57,38 33,12 88,26 271,38 183,12 493,23 800,22 307,-1 611,-12 839,-31 228,-18 379,-43 469,-69 39,-11 66,-22 85,-34 -10,-27 -29,-33 -56,-40z"/>
  <path class="fil4" d="M12131 6258c60,-350 141,-1023 192,-1427 51,-404 73,-540 58,-599 -14,-60 -65,-43 -149,-19 -84,24 -201,57 -326,69 -125,12 -256,3 -373,-14 -116,-17 -217,-42 -323,-51 -106,-8 -216,1 -315,33 -99,32 -188,88 -269,111 -81,23 -155,12 -242,-20 -87,-32 -186,-84 -241,-101 -55,-17 -66,1 -54,103 12,102 46,288 92,586 46,299 104,710 148,1013 44,303 75,498 102,604 27,106 51,125 132,151 81,26 220,60 421,74 201,14 465,6 642,-15 178,-22 270,-58 336,-89 66,-32 107,-59 167,-409z"/>
  <path class="fil3" d="M10254 3932c-30,19 -26,60 16,439 42,379 120,1095 174,1591 54,495 83,770 106,907 23,137 42,137 90,143 49,5 128,16 171,14 43,-2 51,-16 27,-177 -23,-161 -78,-467 -143,-942 -65,-475 -141,-1117 -182,-1476 -42,-359 -49,-435 -60,-473 -11,-38 -25,-38 -65,-40 -40,-2 -105,-5 -135,14z"/>
  <path class="fil3" d="M10661 4237c17,269 69,801 122,1312 52,511 105,1000 141,1242 36,243 56,239 72,237 16,-2 29,-2 38,-7 9,-5 14,-16 1,-157 -14,-141 -46,-411 -86,-814 -40,-402 -87,-937 -120,-1304 -33,-367 -53,-568 -68,-671 -14,-104 -23,-111 -36,-115 -13,-4 -29,-4 -46,-1 -17,3 -35,8 -18,277z"/>
  <path class="fil5" d="M6691 7621c89,-208 223,-551 322,-720 100,-169 164,-164 206,-141 42,23 60,65 123,61 62,-4 169,-52 243,-153 74,-101 116,-254 79,-358 -37,-104 -153,-160 -250,-186 -97,-27 -176,-24 -223,-15 -47,9 -64,25 -81,-27 -17,-52 -36,-173 -87,-249 -51,-76 -134,-109 -213,-102 -79,7 -153,53 -205,124 -52,71 -82,166 -115,192 -32,27 -67,-15 -120,-43 -53,-28 -125,-42 -211,-31 -86,10 -185,45 -249,118 -64,73 -91,184 -36,292 56,108 195,212 354,274 160,63 340,83 398,119 58,36 -7,87 -70,171 -63,84 -124,202 -241,343 -116,141 -287,305 -380,404 -93,99 -109,132 -72,166 36,34 124,69 201,110 76,42 141,90 201,126 60,36 116,59 157,36 41,-23 68,-91 102,-162 35,-71 78,-144 166,-351z"/>
  <path class="fil6" d="M6522 7212c221,-65 598,-175 821,-240 223,-65 291,-84 283,-142 -8,-58 -93,-154 -154,-213 -61,-59 -99,-82 -147,-95 -49,-14 -108,-18 -126,-85 -18,-67 5,-197 64,-306 58,-109 152,-197 266,-245 115,-49 250,-59 376,-6 126,53 241,170 310,284 69,115 91,227 131,249 40,21 96,-49 168,-76 72,-27 160,-11 257,33 97,44 204,118 274,225 70,107 105,247 64,394 -41,146 -157,298 -176,395 -19,97 61,140 120,204 60,64 100,150 72,254 -28,103 -124,224 -252,250 -128,26 -288,-43 -449,-150 -161,-107 -323,-252 -420,-369 -97,-117 -129,-205 -188,-239 -60,-34 -147,-13 -255,32 -108,45 -235,112 -335,195 -99,83 -170,180 -250,277 -80,97 -168,195 -229,178 -61,-16 -95,-146 -138,-241 -43,-94 -96,-153 -165,-194 -69,-41 -154,-63 -203,-104 -48,-41 -60,-100 -33,-139 27,-40 92,-60 313,-126z"/>
  <path class="fil5" d="M8807 6643c-6,45 8,184 -2,312 -10,128 -44,244 -72,320 -27,76 -48,113 -35,158 13,45 59,99 37,98 -22,-1 -112,-55 -207,-123 -95,-68 -196,-149 -246,-204 -50,-55 -50,-83 -40,-37 11,46 32,166 30,223 -2,57 -26,52 -66,26 -40,-26 -94,-74 -127,-118 -33,-44 -43,-85 -28,-46 15,39 56,157 142,276 86,119 217,239 326,309 108,71 194,92 269,92 75,0 141,-21 158,-82 18,-61 -12,-161 -37,-240 -25,-79 -44,-137 -45,-205 -1,-68 17,-146 43,-222 26,-77 62,-153 68,-237 7,-85 -15,-179 -37,-248 -21,-69 -41,-112 -47,-105 -5,7 5,66 3,92 -2,26 -17,21 -37,-7 -20,-27 -45,-77 -51,-32z"/>
  <path class="fil7" d="M11546 10836c-58,64 -181,114 -324,74 -142,-40 -304,-171 -509,-373 -205,-202 -454,-475 -779,-789 -325,-314 -727,-668 -960,-846 -233,-178 -297,-180 -361,-168 -64,13 -127,40 -226,31 -99,-9 -234,-55 -416,-178 -182,-123 -410,-323 -555,-456 -145,-133 -207,-199 -195,-216 12,-17 98,16 218,98 120,82 273,214 399,293 125,79 223,105 262,97 39,-9 19,-52 -58,-118 -77,-66 -210,-154 -344,-258 -134,-103 -268,-221 -330,-302 -62,-81 -52,-125 17,-100 70,25 200,118 350,238 151,120 322,267 438,329 116,62 177,37 162,-11 -15,-48 -107,-120 -261,-241 -154,-121 -369,-291 -478,-386 -109,-95 -112,-115 -104,-133 9,-18 29,-36 88,-10 59,25 156,93 266,168 110,75 233,158 332,227 99,69 175,123 219,148 44,25 56,21 47,-4 -9,-25 -39,-70 -137,-151 -99,-82 -267,-201 -382,-280 -115,-79 -178,-119 -196,-144 -18,-26 9,-38 76,-18 67,19 175,69 314,152 138,83 307,198 446,317 139,119 248,241 297,351 49,110 37,207 60,285 22,78 79,137 377,376 298,240 839,660 1216,942 377,282 592,425 744,541 152,116 241,206 289,289 48,84 56,162 -2,226z"/>
  <path class="fil8" d="M9487 9060c-123,-81 -404,-279 -591,-415 -187,-135 -279,-208 -319,-303 -40,-95 -26,-213 -29,-301 -3,-89 -21,-148 -7,-154 14,-6 62,41 113,104 52,63 108,142 147,234 40,92 63,196 111,283 48,86 120,155 229,245 108,91 252,204 343,278 90,74 126,109 4,28z"/>
  <path class="fil0" d="M12650 3601c-50,-20 -135,-34 -233,-24 -98,10 -209,44 -365,70 -156,27 -357,46 -624,54 -267,8 -601,4 -854,5 -254,1 -428,6 -515,27 -87,21 -88,58 -12,98 76,40 227,83 370,101 143,19 277,13 400,7 123,-6 236,-11 346,-5 109,6 215,24 289,55 74,31 116,75 183,93 67,19 159,11 243,-20 85,-32 162,-88 243,-133 81,-45 166,-79 240,-63 74,16 138,81 172,169 34,88 40,199 45,295 5,96 11,176 34,195 24,19 66,-22 101,-124 34,-102 61,-264 63,-396 2,-132 -21,-235 -41,-298 -19,-64 -35,-88 -86,-108z"/>
  <path class="fil0" d="M12563 5135c5,81 10,197 -7,293 -18,96 -58,171 -88,178 -30,7 -50,-54 -46,-142 3,-88 30,-203 47,-280 17,-78 24,-118 35,-149 12,-30 28,-51 39,-38 11,12 15,57 21,138z"/>
  <path class="fil0" d="M13213 7438c141,-4 353,14 460,51 108,37 111,93 -9,102 -120,9 -363,-30 -506,-55 -143,-25 -185,-35 -171,-53 14,-18 85,-42 226,-46z"/>
  <path class="fil9" d="M5826 6695c-362,124 -1099,429 -1475,630 -375,201 -388,296 -385,363 3,67 22,105 43,142 20,37 42,71 120,47 78,-24 214,-107 543,-271 330,-164 853,-409 1147,-555 293,-145 356,-191 374,-235 18,-44 -8,-86 -14,-136 -6,-50 8,-109 -353,15z"/>
  <path class="fil10" d="M4190 7508c-131,-138 -494,-370 -790,-582 -296,-212 -526,-402 -667,-517 -141,-115 -194,-153 -243,-159 -49,-5 -95,23 -159,67 -64,44 -145,104 -58,224 86,120 340,300 661,534 321,235 709,524 917,642 208,118 236,65 302,18 65,-48 168,-90 37,-228z"/>
  <path class="fil9" d="M4456 6859c-365,-112 -1142,-298 -1563,-356 -422,-58 -488,11 -525,67 -37,56 -44,98 -49,140 -5,42 -8,82 70,109 78,26 236,39 599,99 363,61 931,170 1254,225 323,55 400,55 441,30 41,-25 44,-74 69,-118 25,-44 71,-83 -295,-195z"/>
  <path class="fil10" d="M3163 7269c344,-164 1071,-422 1466,-529 395,-108 459,-65 510,-12 51,53 90,116 35,164 -55,48 -204,80 -517,178 -312,99 -787,264 -1081,365 -294,100 -407,136 -490,148 -83,12 -136,2 -182,-39 -46,-41 -85,-111 259,-275z"/>
  <path class="fil10" d="M3486 7674c-365,-112 -1142,-298 -1563,-356 -422,-58 -488,11 -525,67 -37,56 -44,98 -49,140 -5,42 -8,82 70,109 78,26 236,39 599,99 363,61 931,170 1254,225 323,55 400,55 441,30 41,-25 44,-74 69,-118 25,-44 71,-83 -295,-195z"/>
  <path class="fil9" d="M4246 7800c-333,-141 -937,-374 -1270,-464 -333,-90 -397,-37 -443,5 -46,42 -74,74 36,129 110,55 359,134 643,240 284,106 603,239 818,321 214,82 324,114 419,107 95,-7 176,-53 185,-101 9,-48 -55,-97 -388,-238z"/>
  <path class="fil10" d="M5204 7354c-261,79 -681,203 -1015,304 -334,102 -583,181 -701,243 -118,62 -106,106 -82,147 24,41 59,80 368,18 309,-62 891,-224 1265,-346 374,-122 540,-203 610,-282 71,-79 46,-157 -18,-178 -64,-21 -166,14 -427,93z"/>
  <path class="fil9" d="M5009 7574c-218,-164 -565,-430 -844,-640 -279,-210 -490,-364 -609,-423 -120,-59 -148,-24 -167,20 -19,43 -30,95 202,308 232,213 706,587 1025,818 319,230 482,316 588,327 106,10 154,-56 134,-119 -20,-64 -109,-126 -327,-290z"/>
  <path class="fil9" d="M4611 7995c261,-279 769,-895 1006,-1249 237,-353 204,-444 170,-501 -34,-58 -69,-83 -104,-105 -35,-23 -70,-43 -128,15 -58,58 -138,195 -352,495 -214,300 -561,762 -752,1028 -191,266 -225,336 -220,383 4,47 47,72 76,114 29,42 44,100 305,-179z"/>
  <path class="fil11" d="M8253 6452c3,-38 -18,-140 -45,-169 -27,-30 -60,13 -80,-1 -20,-13 -27,-82 -45,-149 -18,-67 -47,-131 -95,-157 -48,-26 -114,-15 -169,-14 -55,1 -99,-8 -145,-9 -46,-2 -93,4 -136,35 -42,32 -79,90 -88,136 -9,46 11,79 46,75 35,-4 86,-47 123,-69 37,-22 60,-24 77,5 17,29 27,89 50,90 23,1 58,-57 97,-71 39,-13 81,19 108,57 26,39 37,85 50,127 13,43 27,82 49,95 22,12 52,-3 77,-6 25,-4 46,3 71,20 24,17 52,42 55,5z"/>
  <path class="fil11" d="M6784 5837c34,6 47,24 60,63 12,39 23,98 8,137 -14,39 -54,59 -94,75 -41,16 -82,27 -98,3 -16,-24 -7,-83 -14,-100 -7,-17 -30,9 -40,4 -10,-5 -6,-39 2,-74 9,-34 23,-68 56,-88 34,-20 87,-27 120,-21z"/>
  <path class="fil11" d="M6238 6041c53,14 118,45 161,75 43,31 64,62 61,85 -3,23 -30,36 -64,24 -35,-13 -78,-52 -102,-70 -24,-18 -30,-14 -32,17 -2,31 1,90 -22,101 -23,11 -70,-26 -105,-57 -35,-31 -57,-57 -82,-57 -25,0 -54,25 -68,16 -13,-9 -11,-53 11,-83 22,-30 64,-46 105,-55 42,-9 83,-10 137,5z"/>
 </g>
</svg>
