<?xml version="1.0" encoding="UTF-8"?>
<!DOCTYPE svg PUBLIC "-//W3C//DTD SVG 1.1//EN" "http://www.w3.org/Graphics/SVG/1.1/DTD/svg11.dtd">
<!-- Creator: CorelDRAW 2017 -->
<svg xmlns="http://www.w3.org/2000/svg" xml:space="preserve" width="143mm" height="143mm" version="1.1" style="shape-rendering:geometricPrecision; text-rendering:geometricPrecision; image-rendering:optimizeQuality; fill-rule:evenodd; clip-rule:evenodd"
viewBox="0 0 14300 14300"
 xmlns:xlink="http://www.w3.org/1999/xlink">
 <defs>
  <style type="text/css">
   <![CDATA[
    .fil1 {fill:black}
    .fil0 {fill:#A60000}
    .fil2 {fill:#FFD663}
    .fil3 {fill:white}
   ]]>
  </style>
 </defs>
 <g id="Слой_x0020_1">
  <metadata id="CorelCorpID_0Corel-Layer"/>
  <path class="fil0" d="M12208 8341c149,90 633,164 800,264 167,100 18,224 -210,287 -227,62 -533,62 -803,67 -270,4 -506,12 -616,78 -111,65 -96,188 40,299 136,112 394,213 427,302 32,89 -161,166 -440,180 -279,14 -642,-35 -981,-57 -338,-22 -652,-15 -821,68 -169,83 -195,244 -191,390 4,146 39,278 -22,406 -61,128 -217,252 -500,301 -283,49 -692,23 -1113,-29 -421,-51 -855,-128 -1194,-115 -339,13 -583,117 -853,248 -270,131 -565,289 -785,350 -220,60 -365,22 -701,68 -336,46 -862,177 -1297,219 -435,42 -777,-5 -1074,-50 -297,-45 -547,-88 -700,-184 -152,-96 -206,-244 -152,-373 54,-129 216,-238 423,-338 207,-100 459,-192 712,-333 253,-141 507,-331 710,-574 202,-243 352,-539 383,-799 31,-260 -57,-486 -278,-633 -221,-147 -575,-215 -770,-340 -195,-125 -231,-305 -170,-457 60,-152 217,-276 478,-342 261,-66 626,-73 849,-145 223,-72 304,-208 363,-322 58,-114 94,-206 203,-248 110,-42 294,-35 1053,35 760,70 2095,202 3168,366 1073,164 1882,358 2788,507 906,148 1907,250 2321,377 414,126 240,276 5,319 -235,42 -533,-24 -774,-4 -242,20 -427,125 -278,215z"/>
  <path class="fil1" d="M2464 4583c285,-15 723,-41 1028,-115 306,-74 479,-195 729,-357 250,-162 576,-364 914,-543 339,-179 690,-335 982,-413 292,-78 523,-79 700,-98 176,-19 297,-56 423,-126 126,-70 258,-171 348,-228 90,-56 139,-67 201,-45 62,22 136,78 177,159 41,81 50,187 42,302 -8,115 -31,239 -145,375 -114,136 -317,285 -625,455 -307,169 -718,360 -954,479 -236,120 -297,170 -306,231 -9,61 33,134 316,261 284,127 809,308 1165,421 357,113 545,157 655,217 110,60 142,137 141,267 -1,130 -36,312 -85,409 -49,96 -113,107 -247,91 -135,-16 -340,-59 -444,-64 -104,-5 -108,26 130,86 238,60 716,149 1168,199 452,51 877,63 1173,59 295,-4 461,-26 593,-22 132,4 232,33 271,104 39,71 18,184 -70,276 -88,92 -242,162 -526,216 -284,53 -699,90 -1198,106 -499,17 -1082,13 -1408,17 -326,4 -396,14 -208,49 188,35 635,95 1095,115 461,20 936,1 1211,1 276,0 352,19 399,55 47,36 64,89 29,151 -35,62 -122,133 -384,184 -262,51 -698,82 -1165,102 -467,20 -965,28 -1232,34 -267,6 -302,9 -188,37 115,28 379,82 691,116 312,33 670,46 868,68 198,23 237,55 233,110 -3,55 -48,132 -219,194 -172,62 -470,108 -813,121 -343,12 -729,-9 -1166,-73 -437,-64 -925,-171 -1393,-329 -468,-158 -917,-366 -1235,-532 -318,-166 -505,-289 -645,-350 -140,-61 -233,-61 -459,-47 -226,15 -585,44 -808,63 -223,19 -308,28 -393,6 -85,-22 -169,-75 -182,-503 -13,-427 44,-1229 85,-1666 41,-437 66,-510 93,-549 27,-40 57,-46 138,-52 81,-5 214,-9 500,-24z"/>
  <path class="fil2" d="M8311 9426c-20,-92 -44,-164 -103,-226 -60,-61 -154,-111 -276,-120 -122,-9 -270,24 -397,119 -127,95 -231,254 -288,417 -56,163 -64,332 -36,455 28,123 92,200 180,253 88,54 201,84 302,82 101,-2 190,-35 244,-68 54,-33 72,-66 137,-165 65,-99 176,-265 224,-404 48,-139 33,-251 14,-343z"/>
  <path class="fil1" d="M8498 9462c383,124 1079,378 1500,537 421,160 567,225 628,320 61,96 38,222 -49,315 -87,93 -238,153 -629,100 -391,-53 -1023,-219 -1461,-350 -438,-131 -681,-227 -802,-297 -122,-70 -122,-115 -93,-213 29,-98 87,-250 156,-346 69,-96 149,-136 224,-160 75,-23 144,-30 527,93z"/>
  <path class="fil0" d="M8100 5595c-62,22 -138,79 -178,176 -40,97 -45,233 -38,332 6,99 23,161 63,199 40,38 103,52 160,21 57,-31 107,-108 138,-196 31,-88 43,-189 42,-278 -1,-90 -16,-169 -46,-215 -31,-46 -78,-60 -139,-38z"/>
  <path class="fil0" d="M7936 6455c-44,61 -130,238 -166,356 -36,117 -21,175 24,195 45,20 121,4 154,-57 33,-61 22,-165 21,-247 -2,-82 5,-141 8,-197 3,-57 3,-111 -40,-50z"/>
  <path class="fil3" d="M7997 8749c-8,39 -20,148 -39,228 -20,80 -47,132 -83,170 -36,38 -80,62 -117,78 -37,16 -67,24 -53,34 14,10 72,22 110,41 38,19 56,45 72,92 16,47 29,114 39,189 9,74 14,155 19,234 5,79 11,158 15,183 4,25 7,-3 11,-65 4,-62 9,-159 25,-246 16,-87 44,-164 80,-227 36,-63 79,-113 113,-141 34,-28 57,-33 49,-46 -8,-14 -47,-36 -79,-63 -31,-28 -54,-62 -77,-119 -22,-57 -44,-137 -56,-194 -12,-57 -13,-92 -15,-124 -3,-32 -7,-62 -15,-23z"/>
  <path class="fil0" d="M10816 5483c238,70 476,232 569,364 93,132 42,233 -92,196 -133,-36 -348,-210 -561,-331 -212,-121 -422,-189 -632,-258 238,-21 477,-42 715,28z"/>
  <path class="fil0" d="M7894 4840c19,-46 4,-249 -67,-380 -71,-131 -197,-189 -286,-190 -89,-1 -141,54 -128,100 13,46 89,83 159,130 70,47 133,105 191,190 58,85 111,196 130,150z"/>
  <path class="fil0" d="M9471 4496c33,-57 81,-160 167,-217 85,-57 208,-67 258,-34 51,33 30,110 -26,148 -56,38 -146,36 -229,59 -83,23 -160,72 -190,91 -30,19 -13,10 20,-47z"/>
  <path class="fil0" d="M8587 5503c23,-44 190,-161 335,-190 146,-29 271,32 329,100 58,68 48,143 4,163 -44,20 -121,-16 -202,-40 -81,-24 -166,-36 -268,-27 -102,9 -222,39 -198,-5z"/>
  <path class="fil0" d="M11095 6213c60,26 168,63 235,141 66,78 90,199 63,253 -27,54 -106,42 -150,-9 -44,-51 -52,-141 -85,-221 -33,-80 -90,-151 -112,-178 -23,-28 -11,-12 49,14z"/>
  <path class="fil0" d="M11294 10418c30,-19 342,0 469,28 126,29 67,67 -90,58 -156,-9 -409,-67 -379,-86z"/>
  <path class="fil0" d="M11627 10796c153,32 358,113 474,191 116,78 142,152 21,154 -121,2 -388,-67 -587,-131 -199,-64 -329,-121 -362,-156 -32,-34 33,-46 116,-60 83,-14 184,-31 337,1z"/>
 </g>
</svg>
