<?xml version="1.0" encoding="UTF-8"?>
<!DOCTYPE svg PUBLIC "-//W3C//DTD SVG 1.1//EN" "http://www.w3.org/Graphics/SVG/1.1/DTD/svg11.dtd">
<!-- Creator: CorelDRAW 2017 -->
<svg xmlns="http://www.w3.org/2000/svg" xml:space="preserve" width="143mm" height="143mm" version="1.1" style="shape-rendering:geometricPrecision; text-rendering:geometricPrecision; image-rendering:optimizeQuality; fill-rule:evenodd; clip-rule:evenodd"
viewBox="0 0 14300 14300"
 xmlns:xlink="http://www.w3.org/1999/xlink">
 <defs>
  <style type="text/css">
   <![CDATA[
    .fil1 {fill:black}
    .fil4 {fill:black}
    .fil7 {fill:#4D4D4D}
    .fil3 {fill:#917256}
    .fil5 {fill:#E6E6E6}
    .fil0 {fill:#EDBF42}
    .fil2 {fill:#FFFF66}
    .fil6 {fill:white}
   ]]>
  </style>
 </defs>
 <g id="Слой_x0020_1">
  <metadata id="CorelCorpID_0Corel-Layer"/>
  <path class="fil0" d="M9741 9495c642,-16 1693,-82 2367,-108 675,-26 974,-12 1086,118 113,129 40,373 -203,490 -243,117 -656,108 -861,189 -205,81 -201,253 -54,402 147,148 436,273 666,443 230,170 401,386 348,597 -53,210 -330,415 -1158,468 -828,53 -2206,-46 -3014,-146 -808,-99 -1046,-199 -1330,-234 -284,-35 -614,-6 -1037,65 -423,71 -939,184 -1402,347 -463,163 -873,376 -1330,486 -458,110 -964,117 -1301,61 -337,-56 -505,-177 -379,-370 126,-194 545,-461 926,-724 381,-264 723,-523 614,-733 -109,-210 -669,-370 -1111,-448 -441,-78 -763,-74 -993,-144 -230,-70 -369,-212 -320,-375 49,-163 285,-346 713,-470 428,-124 1047,-190 1760,-187 713,4 1519,77 2124,133 605,56 1008,96 1438,108 430,12 886,-2 1230,7 344,9 576,42 1218,26z"/>
  <path class="fil1" d="M7119 7603c-102,143 -271,362 -447,587 -176,225 -359,456 -504,660 -144,204 -250,381 -325,490 -76,110 -122,152 -176,178 -54,26 -115,37 -169,-18 -54,-54 -101,-173 -194,-274 -94,-101 -235,-183 -371,-229 -137,-46 -269,-56 -418,-58 -149,-1 -315,6 -471,83 -156,77 -302,225 -344,434 -42,209 20,481 162,627 142,146 363,165 550,168 186,2 337,-12 459,-51 121,-39 212,-102 280,-109 67,-7 110,41 99,118 -11,76 -77,181 -169,320 -92,139 -211,313 -366,491 -155,178 -346,359 -581,525 -235,166 -513,315 -660,438 -147,122 -162,218 -94,269 68,52 220,60 437,-36 217,-96 498,-296 778,-512 280,-216 558,-449 775,-652 217,-203 373,-376 483,-475 110,-99 174,-125 345,-113 171,12 448,61 841,100 393,38 901,65 1325,95 424,30 763,63 1162,106 400,44 860,98 1200,131 340,33 560,44 730,60 170,15 290,34 382,14 92,-20 155,-80 193,-157 38,-77 52,-171 55,-317 3,-146 -5,-345 -43,-468 -38,-123 -105,-170 -194,-180 -89,-9 -199,19 -260,103 -61,84 -73,224 -146,286 -73,63 -206,48 -417,16 -210,-32 -498,-82 -827,-125 -329,-43 -700,-78 -955,-111 -255,-33 -393,-63 -372,-84 21,-21 201,-33 485,-58 284,-25 672,-64 1092,-117 420,-53 871,-121 1215,-161 344,-40 581,-51 714,-135 133,-85 161,-242 159,-433 -1,-191 -32,-415 -71,-542 -39,-127 -87,-158 -156,-175 -68,-17 -157,-22 -227,19 -70,41 -122,127 -156,228 -35,101 -53,219 -141,297 -88,79 -247,118 -666,166 -419,48 -1098,103 -1695,156 -596,53 -1110,105 -1559,110 -449,5 -833,-36 -1016,-115 -183,-79 -165,-196 -86,-344 79,-148 219,-326 373,-538 154,-212 322,-458 414,-643 91,-185 106,-309 81,-374 -25,-65 -91,-71 -154,-53 -63,19 -123,63 -170,117 -48,55 -83,121 -185,263z"/>
  <path class="fil2" d="M6211 5889c242,290 660,846 1002,1278 342,432 609,739 712,905 102,167 40,193 -21,246 -62,53 -123,131 -183,133 -60,2 -119,-72 -338,-357 -219,-285 -600,-779 -894,-1165 -294,-386 -501,-663 -616,-818 -114,-155 -136,-188 -152,-224 -16,-36 -27,-75 -27,-118 0,-43 12,-90 37,-127 25,-37 64,-65 117,-66 53,-2 120,23 362,313z"/>
  <path class="fil3" d="M5783 5978c-69,-76 -103,-109 -136,-128 -33,-19 -66,-24 -88,-15 -22,9 -33,32 -33,58 0,27 12,57 167,274 156,217 455,620 775,1026 320,407 659,817 834,1031 175,213 186,229 221,240 35,11 94,17 131,14 37,-3 52,-15 -8,-109 -60,-94 -194,-270 -470,-630 -277,-360 -696,-903 -957,-1235 -262,-331 -366,-450 -435,-526z"/>
  <path class="fil4" d="M6010 5671c-55,-92 -150,-219 -256,-322 -106,-103 -224,-183 -331,-196 -108,-13 -205,42 -323,49 -118,7 -255,-35 -380,-72 -125,-37 -238,-71 -340,-47 -102,24 -192,105 -332,106 -140,2 -329,-76 -519,-139 -191,-63 -383,-111 -507,-31 -123,80 -178,286 -260,427 -82,140 -192,214 -282,221 -90,7 -159,-51 -239,-66 -80,-14 -169,16 -244,68 -75,52 -134,127 -167,214 -33,88 -40,188 -2,259 38,70 119,110 215,114 96,4 206,-29 284,-84 77,-54 122,-131 148,-183 26,-53 35,-82 78,-108 44,-25 122,-47 175,-86 53,-40 80,-97 137,-197 57,-100 145,-242 224,-334 79,-92 150,-135 249,-108 98,27 224,123 378,178 153,56 334,72 464,51 129,-21 207,-77 298,-92 91,-15 194,12 300,37 106,25 215,48 317,110 102,63 197,165 294,285 97,120 197,257 288,338 92,81 175,107 228,127 53,20 76,34 103,-19 27,-53 58,-174 65,-263 7,-89 -9,-145 -64,-237z"/>
  <path class="fil5" d="M1673 5832c9,-591 -223,-665 -360,-1148 -134,-470 719,-543 502,-1298 -127,-440 -111,-328 22,-711l7 -40c-331,222 -257,460 -208,742 141,811 -904,705 -427,1496 228,378 317,581 464,958z"/>
  <path class="fil5" d="M1951 3959c639,-418 128,-714 706,-1251 613,-569 -473,-945 -335,-1281 183,-443 257,-300 -82,-825 142,534 141,352 -95,793 -192,358 808,721 297,1253 -525,547 -62,780 -491,1312z"/>
  <path class="fil6" d="M4242 9599c89,-130 116,-174 281,-154 -111,73 -154,102 -281,154z"/>
  <path class="fil6" d="M4487 9610c-169,-87 -105,-72 -269,-127 130,-94 214,12 269,127z"/>
  <path class="fil6" d="M4339 9190c89,-130 116,-174 281,-154 -111,73 -154,102 -281,154z"/>
  <path class="fil6" d="M4583 9201c-169,-87 -105,-72 -269,-127 130,-94 214,12 269,127z"/>
  <path class="fil7" d="M2158 5682c-12,-5 -66,6 -116,32 -50,26 -96,68 -126,113 -30,45 -43,94 -48,141 -5,47 -3,91 11,125 14,34 41,57 62,51 21,-6 36,-41 46,-88 10,-47 15,-107 26,-153 10,-46 26,-78 43,-105 17,-26 35,-47 59,-68 24,-21 55,-42 44,-47z"/>
 </g>
</svg>
