<?xml version="1.0" encoding="UTF-8"?>
<!DOCTYPE svg PUBLIC "-//W3C//DTD SVG 1.1//EN" "http://www.w3.org/Graphics/SVG/1.1/DTD/svg11.dtd">
<!-- Creator: CorelDRAW 2017 -->
<svg xmlns="http://www.w3.org/2000/svg" xml:space="preserve" width="143mm" height="143mm" version="1.1" style="shape-rendering:geometricPrecision; text-rendering:geometricPrecision; image-rendering:optimizeQuality; fill-rule:evenodd; clip-rule:evenodd"
viewBox="0 0 14300 14300"
 xmlns:xlink="http://www.w3.org/1999/xlink">
 <defs>
  <style type="text/css">
   <![CDATA[
    .str0 {stroke:#5B962C;stroke-width:75}
    .fil7 {fill:none;fill-rule:nonzero}
    .fil0 {fill:black}
    .fil4 {fill:#2BABE4}
    .fil1 {fill:#5B962C}
    .fil2 {fill:#FFD663}
    .fil5 {fill:#FFFF66}
    .fil3 {fill:white}
    .fil6 {fill:#5B962C;fill-rule:nonzero}
   ]]>
  </style>
 </defs>
 <g id="Слой_x0020_1">
  <metadata id="CorelCorpID_0Corel-Layer"/>
  <path class="fil0" d="M10112 8716c290,-139 320,-279 351,-419 -84,-67 -167,-133 -258,-210 -91,-76 -188,-162 -304,-304 -116,-141 -250,-337 -317,-505 -67,-168 -67,-308 -58,-425 8,-117 25,-211 83,-285 58,-75 158,-131 270,-225 112,-94 235,-227 351,-426 115,-199 222,-465 290,-762 68,-297 96,-625 64,-974 -32,-349 -125,-717 -259,-985 -133,-267 -307,-433 -562,-576 -255,-143 -592,-265 -959,-276 -367,-11 -764,87 -1058,387 -295,300 -487,801 -590,1220 -103,419 -115,757 -82,1035 33,278 110,498 209,706 99,208 219,405 337,533 118,128 235,187 284,256 48,69 29,148 15,265 -14,118 -21,274 -93,443 -71,169 -206,351 -341,465 -135,115 -271,163 -395,189 -124,26 -235,31 -311,31 -77,-1 -118,-7 -150,21 -32,28 -53,91 22,217 75,126 246,315 608,496 362,181 915,353 1466,370 551,17 1100,-122 1390,-262z"/>
  <path class="fil1" d="M11078 11585c316,63 500,152 689,336 190,183 385,460 498,643 112,183 141,271 -100,334 -241,63 -752,101 -1656,70 -904,-31 -2201,-131 -3424,-201 -1223,-71 -2373,-113 -3122,-142 -749,-29 -1098,-47 -1325,-101 -227,-55 -332,-147 -426,-279 -95,-131 -179,-301 -283,-500 -104,-198 -227,-425 -249,-591 -22,-166 58,-271 482,-315 424,-44 1191,-25 1850,10 659,35 1210,87 1595,108 385,21 605,11 981,86 376,75 909,235 1356,337 447,103 809,148 1116,151 306,3 557,-38 906,-40 349,-2 797,33 1113,96z"/>
  <path class="fil0" d="M10512 8804c-22,103 -141,257 -202,424 -61,167 -63,346 -55,465 8,119 27,176 47,232 19,56 38,109 24,220 -14,111 -62,279 -338,388 -276,109 -781,159 -1278,115 -497,-43 -986,-180 -1319,-295 -333,-115 -509,-208 -588,-307 -79,-99 -60,-203 -32,-290 28,-87 66,-156 96,-252 29,-97 50,-221 58,-364 8,-143 3,-305 -1,-431 -3,-126 -4,-217 67,-287 72,-70 217,-120 450,-172 233,-51 556,-103 872,-129 317,-26 628,-26 912,25 284,51 540,153 728,237 188,84 308,149 406,208 98,59 173,111 152,214z"/>
  <path class="fil0" d="M7393 7688c-73,-10 -187,-25 -413,-287 -226,-261 -563,-769 -763,-1090 -199,-321 -261,-457 -304,-572 -43,-115 -69,-210 -47,-305 21,-96 89,-192 252,-351 163,-158 421,-378 666,-584 245,-206 478,-397 647,-548 169,-151 276,-262 417,-364 141,-102 318,-196 385,-312 67,-116 25,-254 -27,-350 -52,-96 -115,-150 -272,-154 -157,-4 -407,43 -731,208 -323,165 -719,448 -1068,744 -349,297 -651,607 -869,843 -218,236 -352,399 -419,575 -67,176 -67,366 -33,575 34,209 101,438 198,694 97,256 223,539 423,882 200,343 474,745 723,1053 249,308 475,520 585,677 110,156 106,256 102,340 -3,84 -5,154 -12,204 -7,50 -19,81 57,75 76,-6 239,-48 403,-132 164,-85 329,-212 441,-410 112,-198 171,-465 150,-695 -21,-230 -122,-422 -194,-531 -72,-110 -116,-136 -154,-153 -38,-16 -70,-22 -143,-32z"/>
  <path class="fil2" d="M6332 6808c-110,-24 -338,-30 -751,-44 -413,-15 -1011,-38 -1330,-51 -319,-13 -358,-14 -377,0 -19,14 -16,42 -15,137 1,94 1,254 16,558 15,304 45,752 93,1087 48,336 114,560 226,760 112,200 272,376 384,486 112,110 177,153 210,208 33,55 34,121 31,270 -3,149 -10,380 -50,562 -39,183 -110,317 -210,435 -100,119 -230,222 -324,288 -94,65 -152,92 -203,104 -51,13 -95,11 -126,13 -30,2 -46,8 -55,22 -8,14 -9,36 -12,80 -3,44 -8,111 18,142 26,31 83,26 445,41 362,15 1030,49 1382,65 353,16 391,14 415,-1 24,-15 35,-43 41,-80 6,-36 7,-81 7,-117 0,-36 -3,-65 -34,-82 -31,-17 -91,-22 -168,-51 -77,-29 -170,-83 -267,-161 -97,-78 -199,-179 -274,-292 -76,-113 -125,-238 -147,-420 -21,-181 -14,-419 -1,-562 12,-144 30,-194 78,-248 48,-54 126,-112 235,-224 110,-112 251,-279 354,-434 103,-155 168,-299 234,-595 66,-296 135,-743 174,-1042 40,-298 51,-447 62,-546 11,-99 22,-150 32,-196 9,-46 17,-89 -93,-113z"/>
  <path class="fil2" d="M6203 7242c47,-24 134,-42 211,-76 77,-35 145,-86 187,-139 42,-53 58,-106 76,-142 18,-36 37,-54 97,-68 60,-14 160,-23 240,-15 80,9 139,36 183,84 44,48 74,117 66,277 -7,160 -52,410 -112,661 -60,251 -136,502 -256,738 -119,236 -281,458 -464,639 -182,181 -385,322 -514,397 -129,75 -185,84 -249,75 -64,-9 -136,-37 -158,-126 -23,-89 4,-241 46,-329 42,-88 98,-113 210,-148 112,-34 280,-78 418,-174 139,-96 248,-245 333,-411 85,-166 147,-349 197,-504 50,-154 89,-280 104,-372 15,-92 6,-151 -17,-179 -22,-28 -57,-24 -97,10 -40,34 -85,97 -155,148 -71,51 -167,89 -234,101 -67,12 -105,-2 -129,-35 -24,-33 -35,-86 -41,-144 -6,-58 -7,-121 -3,-168 4,-47 13,-76 60,-100z"/>
  <path class="fil2" d="M4063 7174c-46,-27 -131,-50 -205,-90 -75,-40 -140,-96 -178,-151 -39,-55 -51,-109 -67,-146 -15,-37 -34,-57 -93,-74 -59,-18 -158,-34 -238,-30 -80,4 -141,27 -188,72 -47,45 -81,112 -84,272 -3,160 26,413 70,667 44,254 104,509 208,753 104,243 252,475 422,667 171,192 364,346 488,429 124,83 179,96 243,91 64,-5 138,-28 166,-116 28,-88 11,-240 -25,-331 -36,-91 -90,-119 -200,-161 -110,-42 -274,-96 -406,-201 -132,-105 -232,-260 -306,-431 -75,-171 -124,-358 -164,-515 -40,-157 -71,-285 -80,-378 -9,-93 4,-151 28,-177 24,-26 58,-20 96,16 38,36 78,102 145,157 67,55 161,99 227,116 66,16 104,5 131,-27 26,-32 41,-83 50,-141 10,-58 15,-121 14,-167 -1,-47 -8,-77 -54,-104z"/>
  <path class="fil3" d="M3567 6264c-9,31 -24,117 -44,180 -20,63 -45,102 -75,130 -31,28 -67,45 -98,56 -30,11 -55,15 -44,24 11,9 56,22 85,39 29,17 42,39 52,77 10,38 17,93 20,152 3,60 2,124 4,167 2,43 7,64 14,46 7,-18 15,-75 33,-134 18,-59 44,-118 76,-167 32,-48 69,-86 98,-106 28,-20 48,-23 42,-34 -6,-11 -36,-31 -59,-55 -23,-24 -40,-52 -54,-99 -15,-47 -28,-112 -33,-158 -6,-46 -5,-74 -5,-100 0,-26 -2,-50 -11,-19z"/>
  <path class="fil0" d="M10137 8056c90,51 230,145 402,314 172,169 376,413 514,636 139,223 212,425 255,598 43,173 57,317 61,405 4,87 -2,118 -27,155 -26,37 -71,81 -237,109 -166,28 -454,40 -716,43 -263,3 -500,-3 -659,-7 -159,-4 -238,-6 -298,-8 -60,-2 -102,-3 5,-102 108,-99 364,-296 495,-463 131,-166 135,-302 140,-458 5,-157 12,-335 25,-472 13,-137 33,-234 5,-334 -29,-100 -106,-205 -151,-273 -45,-68 -59,-100 -51,-128 8,-29 36,-54 71,-63 35,-9 75,-2 165,49z"/>
  <path class="fil0" d="M6973 3129c-22,-5 -7,-14 8,-22 15,-8 29,-17 55,-66 26,-49 63,-140 94,-248 31,-108 56,-232 84,-313 28,-82 59,-121 123,-131 65,-10 163,8 287,46 124,38 274,96 360,139 86,43 108,72 105,106 -2,34 -29,73 -79,92 -50,19 -125,19 -203,2 -79,-17 -161,-50 -222,-66 -61,-16 -100,-14 -132,18 -32,31 -56,92 -74,147 -18,54 -29,102 -72,152 -43,50 -118,102 -185,127 -67,25 -126,24 -148,19z"/>
  <path class="fil0" d="M7259 3056c37,-64 102,-168 146,-224 44,-56 67,-64 114,-67 48,-4 120,-3 208,14 88,17 193,49 255,75 62,25 82,43 84,73 2,31 -12,74 -65,84 -52,9 -143,-15 -220,-28 -77,-13 -140,-13 -192,14 -52,27 -91,81 -124,124 -33,43 -58,75 -95,91 -37,16 -86,16 -116,6 -29,-10 -39,-31 -40,-53 -1,-22 7,-45 43,-108z"/>
  <path class="fil0" d="M7298 2536c38,-120 59,-196 78,-241 19,-45 37,-58 89,-65 52,-7 138,-7 255,-9 117,-2 265,-6 347,2 83,8 101,28 96,51 -5,23 -33,51 -94,75 -60,24 -153,45 -228,64 -75,19 -134,35 -181,47 -48,13 -85,22 -128,102 -44,80 -95,232 -148,331 -54,99 -110,145 -150,151 -40,7 -63,-26 -47,-124 16,-99 73,-263 111,-383z"/>
  <path class="fil4" d="M9877 4044c-35,121 -97,270 -144,376 -47,106 -79,170 -83,251 -4,80 20,178 87,250 68,73 180,121 275,101 95,-20 174,-107 184,-229 10,-122 -48,-279 -92,-396 -43,-116 -72,-192 -98,-283 -26,-92 -50,-200 -63,-265 -12,-66 -13,-89 -18,-54 -5,35 -14,128 -49,249z"/>
  <path class="fil0" d="M11370 10071c-9,314 -18,629 -139,919 -121,290 -354,556 -674,744 -320,188 -726,299 -1382,329 -656,30 -1561,-22 -2185,-133 -624,-111 -968,-281 -1223,-370 -255,-89 -421,-98 -600,-105 -179,-7 -371,-14 -516,-57 -145,-43 -243,-122 -294,-243 -51,-120 -56,-282 -59,-402 -2,-120 -3,-199 21,-295 24,-96 71,-210 130,-283 59,-73 129,-104 192,-113 63,-9 120,4 154,37 34,33 45,87 104,114 59,27 167,28 237,10 70,-18 102,-56 121,-104 19,-47 26,-104 71,-136 45,-31 127,-37 193,17 66,54 116,169 220,258 104,89 262,154 492,216 231,62 534,121 885,165 351,44 750,72 1114,88 364,16 693,18 938,-18 244,-36 403,-111 518,-240 115,-129 186,-312 201,-530 14,-218 -28,-472 50,-632 78,-160 276,-227 450,-241 174,-14 325,23 435,61 110,38 179,77 264,234 84,157 183,432 283,708z"/>
  <path class="fil5" d="M5700 6918c-221,-10 -616,-30 -915,-47 -299,-16 -502,-29 -612,-34 -110,-5 -127,-4 -137,58 -10,62 -14,184 -10,449 4,266 15,675 27,919 12,244 26,322 35,319 9,-4 13,-89 22,-205 8,-116 20,-263 36,-439 15,-176 33,-380 68,-521 35,-141 85,-218 234,-271 149,-54 395,-84 642,-107 246,-23 492,-39 650,-47 157,-8 226,-10 257,-19 31,-9 25,-26 -1,-35 -26,-9 -73,-9 -294,-20z"/>
  <path class="fil3" d="M8911 5239c-21,72 -52,174 -125,253 -73,79 -187,134 -279,151 -91,17 -159,-5 -251,-52 -92,-46 -207,-117 -284,-185 -77,-69 -117,-135 -114,-114 2,22 46,131 107,244 61,113 140,230 240,321 100,91 222,157 332,179 110,22 208,2 279,-66 71,-67 115,-181 141,-321 26,-140 34,-305 31,-404 -3,-99 -18,-130 -31,-125 -13,5 -25,46 -47,118z"/>
  <path class="fil6" d="M11026 7706c-22,-26 -18,-50 10,-73 28,-22 49,-24 62,-8 13,17 37,29 71,35 35,7 63,4 84,-8 21,-12 43,-24 64,-36 21,-12 38,-32 49,-62 11,-29 13,-49 6,-61 -6,-12 -13,-23 -19,-33 -6,-11 -15,-16 -28,-17 -13,-1 -23,-2 -32,-2 -9,0 -28,3 -57,11 -29,8 -63,17 -102,27 -39,11 -75,17 -109,19 -34,2 -63,-4 -90,-19 -26,-15 -43,-29 -50,-42 -7,-13 -15,-26 -22,-39 -7,-12 -11,-32 -11,-59 0,-27 2,-47 8,-59 6,-12 11,-23 15,-33 4,-9 17,-25 38,-46 21,-22 38,-36 53,-44 14,-8 32,-18 54,-30 22,-12 52,-21 92,-27 40,-6 73,-2 101,10 27,13 48,27 60,43 13,16 5,35 -23,56 -28,21 -47,25 -57,12 -10,-13 -29,-22 -58,-27 -29,-5 -52,-2 -71,8 -18,10 -38,21 -59,33 -21,12 -37,30 -48,55 -10,25 -13,42 -7,51 5,9 10,17 13,23 3,6 8,10 15,13 6,3 13,6 20,8 7,3 15,4 25,2 10,-1 18,-2 23,-3 6,-1 22,-5 48,-11 26,-7 58,-15 96,-24 38,-10 73,-16 106,-19 33,-3 62,1 89,15 27,13 45,28 54,44 9,16 18,32 27,47 9,16 12,42 9,80 -3,38 -17,74 -43,108 -26,34 -50,57 -71,69 -22,12 -50,28 -86,48 -36,20 -81,26 -135,17 -54,-9 -92,-26 -114,-53z"/>
  <path id="1" class="fil6" d="M11335 6830c-31,17 -57,8 -77,-28 -20,-36 -15,-62 17,-80 31,-17 57,-8 77,28 20,36 14,62 -17,80zm365 653c-31,17 -98,-66 -201,-249 -103,-184 -138,-284 -107,-302 31,-17 98,66 201,249 103,184 139,284 107,302z"/>
  <path id="2" class="fil6" d="M11935 7350c-31,17 -98,-66 -201,-249 -103,-184 -140,-283 -112,-299 28,-16 49,-10 64,16 15,26 24,18 27,-23 3,-42 24,-73 62,-94 38,-21 66,-37 82,-46 17,-9 42,-16 77,-19 35,-4 64,0 89,12 25,12 42,23 52,35 10,12 19,21 25,29 6,8 16,22 28,44 12,22 50,89 113,202 63,113 79,178 48,196 -31,17 -78,-30 -141,-141 -62,-112 -99,-177 -110,-196 -11,-19 -25,-36 -43,-51 -18,-15 -39,-23 -64,-24 -25,-1 -43,2 -56,9 -13,7 -29,16 -49,27 -20,11 -37,37 -52,79 -15,41 -12,80 8,115 20,35 58,103 114,203 56,100 69,159 37,177z"/>
  <path id="3" class="fil6" d="M12766 6877c-38,21 -50,-35 -36,-168 14,-133 -35,-226 -147,-280 -112,-54 -148,-91 -109,-113 39,-22 85,-19 137,8 52,27 86,45 101,53 15,8 27,15 36,20 10,6 15,1 16,-15 1,-16 2,-30 4,-42 2,-12 6,-49 12,-110 7,-61 28,-101 66,-122 37,-21 48,30 33,152 -15,122 39,212 161,272 123,59 165,99 127,121 -38,21 -92,14 -162,-22 -70,-36 -114,-59 -132,-69 -19,-10 -32,35 -40,135 -8,99 -30,160 -68,181z"/>
  <path id="4" class="fil7 str0" d="M11026 7706c-22,-26 -18,-50 10,-73 28,-22 49,-24 62,-8 13,17 37,29 71,35 35,7 63,4 84,-8 21,-12 43,-24 64,-36 21,-12 38,-32 49,-62 11,-29 13,-49 6,-61 -6,-12 -13,-23 -19,-33 -6,-11 -15,-16 -28,-17 -13,-1 -23,-2 -32,-2 -9,0 -28,3 -57,11 -29,8 -63,17 -102,27 -39,11 -75,17 -109,19 -34,2 -63,-4 -90,-19 -26,-15 -43,-29 -50,-42 -7,-13 -15,-26 -22,-39 -7,-12 -11,-32 -11,-59 0,-27 2,-47 8,-59 6,-12 11,-23 15,-33 4,-9 17,-25 38,-46 21,-22 38,-36 53,-44 14,-8 32,-18 54,-30 22,-12 52,-21 92,-27 40,-6 73,-2 101,10 27,13 48,27 60,43 13,16 5,35 -23,56 -28,21 -47,25 -57,12 -10,-13 -29,-22 -58,-27 -29,-5 -52,-2 -71,8 -18,10 -38,21 -59,33 -21,12 -37,30 -48,55 -10,25 -13,42 -7,51 5,9 10,17 13,23 3,6 8,10 15,13 6,3 13,6 20,8 7,3 15,4 25,2 10,-1 18,-2 23,-3 6,-1 22,-5 48,-11 26,-7 58,-15 96,-24 38,-10 73,-16 106,-19 33,-3 62,1 89,15 27,13 45,28 54,44 9,16 18,32 27,47 9,16 12,42 9,80 -3,38 -17,74 -43,108 -26,34 -50,57 -71,69 -22,12 -50,28 -86,48 -36,20 -81,26 -135,17 -54,-9 -92,-26 -114,-53z"/>
  <path id="5" class="fil7 str0" d="M11335 6830c-31,17 -57,8 -77,-28 -20,-36 -15,-62 17,-80 31,-17 57,-8 77,28 20,36 14,62 -17,80zm365 653c-31,17 -98,-66 -201,-249 -103,-184 -138,-284 -107,-302 31,-17 98,66 201,249 103,184 139,284 107,302z"/>
  <path id="6" class="fil7 str0" d="M11935 7350c-31,17 -98,-66 -201,-249 -103,-184 -140,-283 -112,-299 28,-16 49,-10 64,16 15,26 24,18 27,-23 3,-42 24,-73 62,-94 38,-21 66,-37 82,-46 17,-9 42,-16 77,-19 35,-4 64,0 89,12 25,12 42,23 52,35 10,12 19,21 25,29 6,8 16,22 28,44 12,22 50,89 113,202 63,113 79,178 48,196 -31,17 -78,-30 -141,-141 -62,-112 -99,-177 -110,-196 -11,-19 -25,-36 -43,-51 -18,-15 -39,-23 -64,-24 -25,-1 -43,2 -56,9 -13,7 -29,16 -49,27 -20,11 -37,37 -52,79 -15,41 -12,80 8,115 20,35 58,103 114,203 56,100 69,159 37,177z"/>
  <path id="7" class="fil7 str0" d="M12766 6877c-38,21 -50,-35 -36,-168 14,-133 -35,-226 -147,-280 -112,-54 -148,-91 -109,-113 39,-22 85,-19 137,8 52,27 86,45 101,53 15,8 27,15 36,20 10,6 15,1 16,-15 1,-16 2,-30 4,-42 2,-12 6,-49 12,-110 7,-61 28,-101 66,-122 37,-21 48,30 33,152 -15,122 39,212 161,272 123,59 165,99 127,121 -38,21 -92,14 -162,-22 -70,-36 -114,-59 -132,-69 -19,-10 -32,35 -40,135 -8,99 -30,160 -68,181z"/>
  <path class="fil1" d="M1730 8583c25,-21 87,-59 152,-85 65,-26 134,-40 208,-32 74,8 152,39 293,114 141,74 345,192 455,262 111,70 128,91 133,118 5,27 -4,60 -19,90 -16,30 -38,56 -68,66 -30,10 -68,4 -113,-16 -45,-20 -99,-54 -130,-73 -32,-20 -42,-25 -54,-20 -12,5 -26,19 -55,56 -29,37 -74,96 -121,168 -46,72 -94,158 -123,229 -29,71 -38,127 -30,170 8,43 34,74 60,94 27,20 54,30 83,33 29,2 60,-3 80,-13 20,-10 27,-24 35,-38 8,-13 16,-26 22,-28 7,-3 13,4 15,20 3,16 3,42 -5,70 -8,27 -24,56 -50,86 -26,29 -62,59 -106,74 -44,15 -96,15 -146,3 -50,-12 -99,-36 -135,-66 -36,-29 -58,-64 -71,-104 -13,-40 -18,-86 -7,-142 11,-56 38,-123 85,-217 47,-95 114,-218 159,-300 45,-82 67,-123 82,-151 15,-28 24,-43 21,-57 -3,-13 -17,-24 -42,-41 -26,-16 -63,-38 -87,-46 -24,-8 -35,-4 -53,24 -18,27 -43,77 -95,179 -52,102 -133,256 -191,355 -58,100 -95,146 -130,176 -35,31 -70,46 -104,50 -35,4 -69,-3 -96,-22 -27,-19 -46,-49 -53,-75 -8,-27 -5,-50 3,-74 8,-25 22,-52 47,-79 25,-28 61,-56 106,-90 45,-34 97,-75 141,-125 44,-50 80,-109 116,-172 36,-62 73,-128 95,-171 22,-43 29,-64 21,-80 -8,-16 -30,-27 -68,-40 -38,-13 -93,-27 -134,-35 -41,-8 -69,-9 -88,-9 -19,-1 -29,-2 -40,-4 -11,-2 -23,-7 2,-28z"/>
  <path class="fil1" d="M4608 1614c47,-25 76,-43 95,-47 20,-4 30,7 40,21 10,14 20,31 34,42 14,11 32,16 55,13 23,-3 51,-13 70,-31 19,-18 30,-44 24,-82 -6,-38 -27,-89 -51,-130 -24,-42 -50,-75 -91,-80 -42,-6 -99,16 -295,122 -195,106 -528,295 -708,404 -180,109 -206,136 -216,162 -10,25 -4,48 31,75 35,27 99,58 214,101 115,43 281,98 391,135 110,37 164,55 195,70 31,14 40,25 32,74 -8,49 -33,138 -66,257 -32,119 -72,269 -95,358 -23,90 -30,119 -29,142 2,24 12,42 32,54 20,12 51,19 205,-56 154,-75 432,-230 622,-340 190,-109 291,-173 348,-215 58,-43 72,-65 68,-94 -4,-30 -25,-67 -51,-119 -27,-53 -59,-121 -88,-165 -29,-44 -55,-62 -88,-60 -33,3 -74,27 -93,56 -19,28 -16,60 3,102 19,41 55,92 71,124 15,32 10,45 -107,115 -117,70 -347,198 -475,269 -128,71 -154,84 -168,84 -15,0 -18,-13 4,-102 22,-88 69,-251 96,-353 27,-102 34,-144 34,-171 0,-27 -7,-40 -27,-57 -20,-17 -52,-40 -147,-77 -95,-37 -254,-90 -354,-125 -100,-35 -141,-54 -165,-68 -24,-14 -30,-23 -29,-31 2,-8 12,-15 97,-63 85,-48 246,-137 359,-197 113,-61 177,-93 223,-118z"/>
  <path class="fil6" d="M1973 4518c8,-13 -1,-18 -27,-17 -26,1 -58,-4 -95,-16 -37,-12 -64,-24 -81,-37 -17,-13 -38,-30 -66,-52 -27,-21 -45,-57 -53,-107 -8,-50 -4,-85 12,-105 16,-21 29,-37 39,-49 9,-12 28,-24 55,-35 27,-11 54,-16 82,-14 27,2 48,6 62,12 14,6 25,11 35,15 10,4 24,12 42,23 18,11 46,28 83,51 37,23 66,37 86,44 20,7 33,8 38,2 5,-6 8,-9 9,-11 1,-1 9,-11 22,-28 13,-17 19,-32 17,-46 -2,-13 -5,-29 -8,-47 -3,-18 -16,-35 -37,-52 -21,-17 -42,-33 -61,-48 -20,-15 -45,-24 -74,-25 -30,-1 -54,5 -72,20 -18,14 -40,8 -64,-17 -25,-25 -28,-45 -10,-60 18,-15 43,-26 78,-34 34,-8 72,-5 114,8 42,14 73,29 94,46 21,17 43,33 64,50 21,17 41,40 60,71 19,31 28,59 29,83 1,25 -2,44 -9,58 -7,14 -12,24 -16,33 -4,8 -14,22 -29,40 -15,19 -37,47 -66,84 -30,37 -60,76 -90,115 -31,39 -52,70 -65,94 -13,23 -20,42 -22,56 -2,14 -18,9 -47,-14 -29,-23 -43,-41 -40,-53 3,-12 8,-24 16,-37zm141 -197c8,-10 2,-18 -18,-24 -20,-6 -47,-19 -81,-38 -34,-20 -61,-35 -80,-46 -19,-11 -39,-19 -58,-24 -19,-5 -37,-5 -55,1 -17,6 -29,12 -35,20 -6,7 -13,17 -22,28 -9,11 -11,31 -5,59 5,28 16,49 32,62 16,13 33,26 49,38 16,13 42,22 79,28 36,6 62,5 78,-3 16,-8 29,-14 41,-20 12,-6 25,-18 40,-37 14,-19 26,-33 34,-43z"/>
  <path id="1" class="fil6" d="M3117 4949c-21,26 -132,12 -334,-42 -202,-54 -292,-95 -270,-123 22,-28 112,-20 271,25 159,45 198,-5 117,-148 -81,-143 -111,-229 -89,-257 22,-28 83,50 184,232 101,183 141,287 121,313z"/>
  <path id="2" class="fil6" d="M3754 5289c-21,26 -106,-20 -257,-139 -151,-118 -216,-191 -195,-217 21,-26 106,20 257,139 151,118 216,191 195,217zm-164 208c-21,26 -106,-20 -257,-139 -151,-119 -216,-191 -195,-217 21,-26 106,20 257,139 151,118 216,191 195,217z"/>
  <path id="3" class="fil6" d="M4289 5483c-28,-22 -29,-49 -4,-81 25,-32 52,-37 80,-15 28,22 29,49 4,82 -25,32 -52,37 -80,15zm-463 588c-28,-22 23,-116 153,-281 130,-165 209,-237 237,-215 28,22 -23,116 -153,281 -130,165 -209,237 -237,215z"/>
  <path id="4" class="fil7 str0" d="M1973 4518c8,-13 -1,-18 -27,-17 -26,1 -58,-4 -95,-16 -37,-12 -64,-24 -81,-37 -17,-13 -38,-30 -66,-52 -27,-21 -45,-57 -53,-107 -8,-50 -4,-85 12,-105 16,-21 29,-37 39,-49 9,-12 28,-24 55,-35 27,-11 54,-16 82,-14 27,2 48,6 62,12 14,6 25,11 35,15 10,4 24,12 42,23 18,11 46,28 83,51 37,23 66,37 86,44 20,7 33,8 38,2 5,-6 8,-9 9,-11 1,-1 9,-11 22,-28 13,-17 19,-32 17,-46 -2,-13 -5,-29 -8,-47 -3,-18 -16,-35 -37,-52 -21,-17 -42,-33 -61,-48 -20,-15 -45,-24 -74,-25 -30,-1 -54,5 -72,20 -18,14 -40,8 -64,-17 -25,-25 -28,-45 -10,-60 18,-15 43,-26 78,-34 34,-8 72,-5 114,8 42,14 73,29 94,46 21,17 43,33 64,50 21,17 41,40 60,71 19,31 28,59 29,83 1,25 -2,44 -9,58 -7,14 -12,24 -16,33 -4,8 -14,22 -29,40 -15,19 -37,47 -66,84 -30,37 -60,76 -90,115 -31,39 -52,70 -65,94 -13,23 -20,42 -22,56 -2,14 -18,9 -47,-14 -29,-23 -43,-41 -40,-53 3,-12 8,-24 16,-37zm141 -197c8,-10 2,-18 -18,-24 -20,-6 -47,-19 -81,-38 -34,-20 -61,-35 -80,-46 -19,-11 -39,-19 -58,-24 -19,-5 -37,-5 -55,1 -17,6 -29,12 -35,20 -6,7 -13,17 -22,28 -9,11 -11,31 -5,59 5,28 16,49 32,62 16,13 33,26 49,38 16,13 42,22 79,28 36,6 62,5 78,-3 16,-8 29,-14 41,-20 12,-6 25,-18 40,-37 14,-19 26,-33 34,-43z"/>
  <path id="5" class="fil7 str0" d="M3117 4949c-21,26 -132,12 -334,-42 -202,-54 -292,-95 -270,-123 22,-28 112,-20 271,25 159,45 198,-5 117,-148 -81,-143 -111,-229 -89,-257 22,-28 83,50 184,232 101,183 141,287 121,313z"/>
  <path id="6" class="fil7 str0" d="M3754 5289c-21,26 -106,-20 -257,-139 -151,-118 -216,-191 -195,-217 21,-26 106,20 257,139 151,118 216,191 195,217zm-164 208c-21,26 -106,-20 -257,-139 -151,-119 -216,-191 -195,-217 21,-26 106,20 257,139 151,118 216,191 195,217z"/>
  <path id="7" class="fil7 str0" d="M4289 5483c-28,-22 -29,-49 -4,-81 25,-32 52,-37 80,-15 28,22 29,49 4,82 -25,32 -52,37 -80,15zm-463 588c-28,-22 23,-116 153,-281 130,-165 209,-237 237,-215 28,22 -23,116 -153,281 -130,165 -209,237 -237,215z"/>
  <path class="fil1" d="M11164 3021c150,10 427,48 632,81 205,34 338,62 425,85 87,23 129,39 139,72 10,33 -12,82 -51,110 -39,28 -93,37 -284,12 -191,-25 -518,-82 -706,-115 -188,-34 -238,-44 -274,-59 -36,-15 -59,-35 -69,-63 -10,-27 -8,-62 4,-88 12,-27 34,-45 184,-36z"/>
  <path class="fil1" d="M11109 3395c138,17 404,60 606,94 202,34 338,59 424,81 86,22 121,41 138,70 17,29 16,70 -3,96 -19,27 -57,40 -230,22 -173,-17 -481,-65 -685,-99 -204,-34 -303,-56 -359,-76 -56,-20 -69,-39 -75,-60 -7,-21 -7,-45 -2,-66 6,-21 18,-41 28,-55 11,-14 20,-24 158,-7z"/>
  <path class="fil1" d="M12172 2907c33,-9 57,-3 73,15 16,18 22,46 15,75 -7,29 -27,57 -186,178 -159,121 -457,335 -627,456 -170,122 -211,151 -246,161 -35,11 -62,3 -76,-17 -14,-20 -13,-52 21,-97 34,-45 101,-102 211,-185 110,-83 262,-192 386,-284 124,-93 220,-169 288,-219 68,-50 109,-74 141,-83z"/>
 </g>
</svg>
