<?xml version="1.0" encoding="UTF-8"?>
<!DOCTYPE svg PUBLIC "-//W3C//DTD SVG 1.1//EN" "http://www.w3.org/Graphics/SVG/1.1/DTD/svg11.dtd">
<!-- Creator: CorelDRAW 2017 -->
<svg xmlns="http://www.w3.org/2000/svg" xml:space="preserve" width="143mm" height="143mm" version="1.1" style="shape-rendering:geometricPrecision; text-rendering:geometricPrecision; image-rendering:optimizeQuality; fill-rule:evenodd; clip-rule:evenodd"
viewBox="0 0 14300 14300"
 xmlns:xlink="http://www.w3.org/1999/xlink">
 <defs>
  <style type="text/css">
   <![CDATA[
    .str0 {stroke:black;stroke-width:20}
    .fil1 {fill:black}
    .fil5 {fill:black}
    .fil6 {fill:#2BABE4}
    .fil3 {fill:#4D4D4D}
    .fil0 {fill:#9786B8}
    .fil2 {fill:white}
    .fil4 {fill:white;fill-rule:nonzero}
   ]]>
  </style>
 </defs>
 <g id="Слой_x0020_1">
  <metadata id="CorelCorpID_0Corel-Layer"/>
  <path class="fil0" d="M8011 12514c223,-98 511,-255 709,-428 198,-173 306,-363 268,-626 -38,-263 -222,-599 -403,-821 -182,-222 -361,-330 -601,-487 -240,-156 -541,-360 -663,-607 -122,-247 -66,-536 71,-759 137,-223 354,-380 694,-447 340,-67 804,-44 1483,-89 678,-45 1571,-158 2208,-611 637,-453 1018,-1247 1075,-2016 57,-769 -211,-1514 -478,-2258 -831,1115 -1661,2229 -2121,2695 -460,465 -548,282 -691,117 -143,-165 -339,-310 -627,-390 -288,-79 -668,-92 -1076,-408 -407,-316 -842,-936 -1277,-1556 -120,535 -240,1071 -258,1665 -18,595 67,1248 -43,1584 -110,336 -413,353 -748,369 -335,16 -702,30 -1084,265 -383,235 -781,692 -1055,1009 -274,317 -423,494 -610,792 -187,298 -411,716 -555,1017 -144,301 -207,485 -185,656 22,171 130,329 317,485 187,155 453,307 700,437 247,130 475,238 672,320 197,82 364,137 600,179 237,41 543,68 1079,81 535,13 1298,11 1759,-10 461,-20 619,-59 842,-157z"/>
  <path class="fil1" d="M6218 11430c251,-107 315,-206 344,-265 29,-59 22,-79 2,-93 -20,-15 -54,-24 -93,-37 -39,-13 -85,-28 -154,-70 -69,-42 -163,-109 -268,-232 -105,-123 -221,-300 -279,-445 -58,-145 -59,-257 -53,-351 6,-94 19,-169 65,-229 46,-60 126,-106 215,-182 89,-76 187,-183 278,-343 91,-160 175,-373 227,-612 52,-238 73,-501 45,-780 -28,-279 -105,-573 -213,-786 -108,-213 -248,-344 -453,-457 -205,-113 -476,-208 -769,-215 -294,-7 -610,74 -844,316 -234,242 -385,644 -464,980 -79,336 -87,606 -59,829 28,223 91,398 171,563 80,166 177,323 273,425 96,102 189,148 229,203 39,55 24,118 14,212 -10,94 -15,219 -71,355 -56,136 -163,282 -270,374 -108,93 -216,132 -314,154 -99,22 -188,27 -249,27 -61,0 -95,-5 -120,18 -25,23 -42,73 19,174 61,100 199,250 489,393 291,142 734,277 1175,286 441,10 879,-105 1130,-212z"/>
  <path class="fil1" d="M6519 11492c-17,83 -111,206 -159,340 -48,134 -48,278 -41,372 7,95 23,141 39,185 16,44 31,87 -34,136 -66,49 -213,104 -408,136 -195,32 -439,40 -734,35 -295,-5 -642,-24 -920,-81 -278,-58 -488,-154 -599,-219 -111,-65 -124,-99 -116,-143 8,-45 38,-100 61,-178 23,-78 39,-177 44,-292 5,-114 0,-244 -3,-345 -3,-101 -5,-174 52,-230 57,-57 173,-98 359,-140 186,-42 444,-86 697,-109 253,-23 502,-25 730,15 227,39 433,119 584,185 151,66 247,117 326,164 79,46 139,88 123,170z"/>
  <ellipse class="fil2" transform="matrix(0.624791 0.13847 -0.0883812 0.437527 5389.03 7747.26)" rx="238" ry="251"/>
  <ellipse class="fil2" transform="matrix(-0.576817 0.0746835 0.0354694 0.444102 4567.83 7714.91)" rx="238" ry="251"/>
  <path class="fil3" d="M4693 7262c-102,155 -331,355 -536,255 85,-66 427,-212 536,-255z"/>
  <path class="fil3" d="M5311 7280c85,165 291,388 506,310 -77,-74 -402,-256 -506,-310z"/>
  <path class="fil4" d="M8540 7437c288,101 553,152 850,168 1686,90 3127,-1206 3216,-2892 90,-1686 -1206,-3127 -2892,-3216 -1686,-90 -3127,1206 -3216,2892 -51,960 352,1848 1015,2441 -233,228 -466,455 -699,683 1726,-76 1151,-51 1726,-76z"/>
  <path class="fil1" d="M4017 10618c-59,-8 -150,-19 -332,-227 -182,-208 -455,-611 -617,-867 -162,-256 -212,-364 -247,-456 -35,-92 -56,-167 -40,-244 16,-77 70,-154 200,-282 129,-128 334,-305 529,-471 195,-166 380,-320 514,-442 135,-122 219,-211 332,-294 112,-83 253,-159 306,-252 53,-93 19,-203 -24,-280 -42,-77 -93,-120 -218,-122 -125,-2 -326,37 -583,171 -258,134 -573,363 -850,602 -277,240 -517,490 -690,680 -173,190 -279,321 -331,462 -52,141 -51,293 -23,460 28,167 84,350 163,554 79,204 182,430 344,703 162,273 383,593 585,838 201,245 383,413 472,538 89,124 86,204 84,271 -2,68 -3,123 -9,163 -5,40 -15,65 46,60 61,-5 191,-40 322,-108 131,-69 262,-172 350,-331 88,-159 134,-373 116,-557 -18,-184 -100,-337 -158,-424 -58,-87 -94,-108 -124,-121 -30,-13 -56,-17 -115,-25z"/>
  <path class="fil1" d="M6194 10882c53,27 125,75 188,108 63,33 117,51 182,76 66,24 143,55 221,119 78,64 157,161 222,298 66,137 118,315 151,491 33,175 47,348 52,447 5,99 0,123 -20,153 -20,30 -56,65 -189,88 -133,23 -363,35 -573,39 -210,4 -400,1 -527,-2 -127,-2 -190,-3 -239,-4 -48,-1 -82,-1 4,-81 85,-80 290,-239 393,-373 103,-134 106,-242 109,-368 3,-125 7,-268 17,-378 10,-110 25,-187 2,-267 -23,-80 -86,-163 -123,-217 -37,-54 -48,-80 -42,-102 6,-23 29,-43 56,-51 28,-8 60,-2 113,25z"/>
  <path class="fil1" d="M3652 6974c-18,-4 -6,-11 6,-18 12,-7 23,-14 43,-53 20,-40 49,-113 73,-199 24,-86 43,-186 65,-251 22,-66 46,-97 98,-106 52,-9 130,5 230,35 100,30 220,75 289,109 69,34 86,57 85,84 -2,27 -23,59 -63,74 -40,16 -100,16 -162,3 -63,-13 -129,-39 -178,-52 -49,-12 -80,-10 -106,15 -25,25 -45,74 -59,118 -14,44 -23,82 -57,122 -34,40 -93,82 -147,103 -53,21 -101,20 -118,16z"/>
  <path class="fil1" d="M3880 6914c29,-51 80,-135 115,-180 35,-45 53,-51 91,-55 38,-3 96,-3 167,10 71,13 155,38 205,58 50,20 66,34 68,58 2,24 -9,59 -51,67 -42,8 -114,-11 -176,-21 -62,-10 -112,-10 -153,12 -41,22 -73,66 -98,100 -26,35 -46,60 -76,74 -30,13 -69,14 -92,6 -24,-8 -31,-25 -32,-42 -1,-17 5,-36 34,-87z"/>
  <path class="fil1" d="M3908 6498c30,-96 46,-157 61,-193 15,-36 29,-47 71,-52 41,-6 110,-6 204,-9 93,-2 212,-6 278,0 66,6 81,21 77,40 -4,19 -26,41 -75,60 -48,20 -122,37 -182,52 -60,15 -107,28 -145,39 -38,10 -68,18 -102,82 -35,65 -74,186 -117,266 -42,79 -87,116 -119,122 -32,6 -51,-20 -38,-99 13,-79 56,-211 86,-307z"/>
  <path class="fil1 str0" d="M9448 2389c-215,-47 -468,-92 -724,-7 -257,86 -517,302 -725,593 -207,292 -362,659 -388,1068 -27,409 75,858 257,1170 183,312 448,485 739,544 292,58 610,1 880,-235 270,-236 492,-652 652,-1062 160,-410 258,-813 228,-1132 -30,-319 -189,-555 -358,-697 -168,-143 -346,-193 -561,-240z"/>
  <path class="fil5" d="M8679 2249c-177,56 -395,160 -553,290 -158,130 -256,285 -354,375 -98,90 -196,114 -295,138 145,179 289,358 534,459 245,102 590,127 802,163 212,36 292,83 322,232 30,148 9,398 35,627 26,229 99,436 205,615 107,179 247,328 547,413 299,85 758,105 1108,15 350,-90 593,-289 749,-449 156,-160 226,-282 296,-404 -59,17 -119,34 -197,55 -79,22 -177,48 -209,45 -32,-3 2,-37 68,-104 66,-67 163,-168 238,-286 75,-118 129,-253 146,-385 17,-133 -4,-263 -24,-393 -66,76 -131,151 -208,214 -77,63 -164,114 -229,140 -64,26 -106,27 -82,-2 24,-28 113,-86 171,-177 58,-91 85,-215 111,-339 -74,59 -148,119 -252,166 -104,47 -238,83 -360,69 -122,-14 -233,-77 -344,-197 -111,-120 -224,-298 -329,-498 -105,-200 -202,-424 -356,-569 -153,-145 -363,-211 -510,-221 -147,-10 -231,35 -290,68 -59,33 -94,53 -138,30 -45,-24 -99,-92 -195,-123 -96,-30 -233,-23 -410,33z"/>
  <path class="fil4" d="M8745 4773c-98,-9 -146,-24 -144,-45 1,-20 2,-36 3,-46 1,-10 4,-45 11,-105 6,-60 19,-110 40,-152 21,-42 40,-79 55,-110 16,-31 39,-63 70,-93 31,-31 58,-57 80,-79 23,-22 91,-75 206,-158 115,-83 190,-151 227,-203 37,-52 57,-94 60,-127 3,-33 7,-78 13,-138 6,-59 -33,-139 -117,-237 -84,-99 -160,-151 -227,-158 -67,-7 -133,-13 -198,-19 -65,-6 -145,27 -240,100 -94,73 -153,152 -175,237 -22,85 -84,117 -188,94 -103,-23 -142,-91 -117,-206 26,-114 114,-226 266,-336 151,-109 284,-159 399,-148 114,11 232,23 354,34 121,12 248,91 380,237 131,146 193,266 184,360 -9,94 -17,167 -22,221 -6,55 -38,125 -98,211 -59,87 -129,159 -210,218 -80,58 -148,107 -201,146 -54,39 -98,78 -132,117 -35,39 -62,85 -82,137 -20,53 -33,110 -40,171 -7,60 -59,86 -157,77zm-51 612c-116,-11 -168,-75 -157,-190 11,-116 75,-168 190,-157 116,12 168,75 157,190 -11,116 -75,168 -190,157z"/>
  <path class="fil5" d="M8507 5669c-15,45 -17,131 -27,202 -11,71 -30,125 -93,175 -63,49 -168,93 -240,116 -71,22 -108,22 -145,49 -36,27 -71,82 -100,131 -28,49 -49,91 -48,119 2,28 26,42 104,86 78,44 208,118 359,184 151,66 322,124 499,161 177,36 361,50 557,49 196,-1 404,-17 535,-31 131,-14 186,-26 222,-46 36,-19 54,-46 49,-109 -4,-64 -31,-164 -69,-247 -38,-83 -89,-148 -168,-202 -79,-54 -188,-96 -300,-124 -112,-27 -229,-40 -298,-57 -69,-18 -90,-41 -108,-72 -18,-32 -32,-72 -40,-132 -8,-59 -9,-137 2,-191 11,-54 36,-84 13,-110 -23,-26 -94,-49 -177,-49 -83,0 -178,23 -257,34 -78,11 -140,11 -185,13 -45,2 -73,5 -88,50z"/>
  <path class="fil6" d="M5871 8022c25,76 67,168 99,234 32,66 53,106 57,156 4,51 -9,112 -50,160 -41,47 -111,80 -171,70 -61,-10 -112,-64 -121,-140 -9,-77 24,-177 49,-251 25,-74 41,-122 56,-181 15,-58 27,-127 34,-169 6,-42 6,-56 10,-34 4,22 12,80 36,156z"/>
  <path class="fil2" d="M5316 9098c12,-36 6,-126 -39,-199 -45,-74 -128,-132 -219,-161 -90,-29 -187,-28 -278,5 -91,32 -176,96 -221,168 -45,72 -49,153 -43,181 6,28 22,4 52,-28 30,-31 74,-70 123,-90 49,-20 102,-22 166,-11 65,11 141,36 195,54 54,18 86,30 115,42 28,13 53,27 80,43 27,15 56,32 68,-4z"/>
 </g>
</svg>
