<?xml version="1.0" encoding="UTF-8"?>
<!DOCTYPE svg PUBLIC "-//W3C//DTD SVG 1.1//EN" "http://www.w3.org/Graphics/SVG/1.1/DTD/svg11.dtd">
<!-- Creator: CorelDRAW 2017 -->
<svg xmlns="http://www.w3.org/2000/svg" xml:space="preserve" width="143mm" height="143mm" version="1.1" style="shape-rendering:geometricPrecision; text-rendering:geometricPrecision; image-rendering:optimizeQuality; fill-rule:evenodd; clip-rule:evenodd"
viewBox="0 0 14300 14300"
 xmlns:xlink="http://www.w3.org/1999/xlink">
 <defs>
  <style type="text/css">
   <![CDATA[
    .str0 {stroke:black;stroke-width:20}
    .fil1 {fill:black}
    .fil4 {fill:#1A1A1A}
    .fil3 {fill:#333333}
    .fil5 {fill:#4D4D4D}
    .fil8 {fill:#5ACEF7}
    .fil2 {fill:gray}
    .fil7 {fill:#999999}
    .fil0 {fill:#F0889A}
    .fil9 {fill:#FFD663}
    .fil6 {fill:white}
   ]]>
  </style>
 </defs>
 <g id="Слой_x0020_1">
  <metadata id="CorelCorpID_0Corel-Layer"/>
  <path class="fil0" d="M10853 13081c-449,17 -945,26 -1465,19 -519,-7 -1062,-31 -1416,-66 -354,-35 -520,-81 -611,-174 -91,-93 -108,-234 -233,-327 -125,-93 -360,-137 -884,-133 -525,4 -1341,57 -1990,21 -649,-36 -1132,-160 -1393,-316 -260,-157 -299,-347 -114,-566 184,-219 591,-468 838,-667 247,-199 333,-349 485,-465 152,-116 370,-198 681,-341 311,-143 716,-345 897,-557 181,-212 139,-433 -5,-672 -144,-239 -389,-494 -630,-640 -241,-145 -478,-179 -798,-222 -320,-43 -723,-94 -1121,-168 -398,-74 -791,-172 -947,-253 -156,-81 -75,-147 -67,-242 8,-95 -56,-221 -240,-313 -184,-91 -487,-149 -667,-229 -180,-81 -237,-186 -150,-296 87,-111 319,-227 608,-350 289,-123 636,-254 1108,-322 472,-68 1069,-73 2036,-61 968,12 2307,42 3425,33 1119,-9 2017,-57 2573,-83 555,-26 767,-31 902,2 134,33 190,103 193,237 3,134 -48,333 19,415 68,82 253,49 508,72 254,23 577,102 716,195 138,93 93,200 -218,295 -310,95 -885,177 -1435,295 -550,117 -1075,270 -1461,384 -385,114 -631,190 -656,331 -25,142 172,349 418,503 247,154 544,253 745,369 201,116 307,248 235,433 -72,185 -321,423 -464,634 -143,211 -181,395 -133,571 48,175 182,342 421,467 239,126 584,210 933,305 348,95 701,200 864,320 164,120 139,255 62,359 -77,104 -206,177 -190,272 16,95 176,212 315,297 139,85 257,139 180,229 -77,90 -349,216 -686,290 -337,75 -739,99 -1188,115z"/>
  <path class="fil1" d="M8168 2480c143,92 347,254 561,452 213,198 436,430 589,582 153,152 238,222 393,272 155,49 381,78 633,122 252,44 531,104 760,162 229,58 409,115 577,189 168,74 323,166 423,263 101,97 146,199 185,295 39,95 71,183 86,277 16,93 16,192 25,254 9,62 26,86 39,108 12,21 19,39 25,71 5,32 9,78 -9,108 -18,30 -56,44 -81,60 -25,16 -35,34 -39,83 -4,49 0,131 -9,192 -9,62 -30,104 -102,141 -72,37 -196,69 -318,83 -122,14 -242,11 -296,-21 -55,-32 -44,-92 -39,-203 5,-111 5,-273 -49,-445 -55,-171 -164,-351 -342,-490 -178,-139 -425,-238 -637,-266 -212,-28 -388,14 -538,86 -150,72 -273,175 -363,307 -90,132 -146,295 -175,437 -28,143 -28,266 -25,360 4,93 11,157 4,196 -7,39 -28,53 -624,56 -596,4 -1767,-4 -2662,-9 -894,-5 -1512,-9 -1822,-30 -310,-21 -314,-60 -312,-171 2,-111 9,-295 -41,-478 -49,-183 -155,-367 -293,-503 -138,-136 -307,-224 -492,-258 -185,-34 -386,-12 -556,25 -169,37 -307,90 -432,196 -125,106 -238,265 -300,406 -62,141 -72,265 -67,374 5,109 26,205 37,268 11,64 11,95 -18,113 -28,18 -85,21 -168,-19 -83,-41 -192,-125 -247,-194 -55,-69 -55,-122 -37,-168 18,-46 53,-85 42,-161 -11,-76 -67,-189 -95,-284 -28,-95 -28,-173 -19,-242 9,-69 26,-129 62,-169 35,-41 88,-62 125,-138 37,-76 58,-206 79,-328 21,-122 42,-235 72,-340 30,-106 69,-205 157,-376 88,-171 226,-415 372,-637 146,-222 302,-423 457,-545 155,-122 310,-164 637,-194 326,-30 824,-48 1385,-53 561,-5 1185,2 1725,12 540,11 995,25 1263,42 268,18 349,39 492,131z"/>
  <path class="fil2" d="M8294 2741c149,123 422,367 620,557 198,191 319,328 368,409 49,81 24,106 -41,124 -64,19 -168,31 -289,-30 -121,-61 -258,-195 -426,-381 -168,-186 -365,-424 -478,-564 -113,-139 -141,-180 -144,-206 -3,-26 20,-36 56,-41 36,-4 86,-3 123,0 37,3 62,6 211,130z"/>
  <path class="fil2" d="M7634 2855c163,170 437,511 592,705 155,194 192,242 201,273 9,32 -11,48 -314,50 -303,3 -891,-8 -1372,-22 -482,-14 -857,-32 -1060,-52 -203,-20 -233,-43 -258,-140 -25,-97 -44,-268 -48,-434 -4,-166 9,-326 33,-416 24,-90 59,-109 198,-118 139,-9 383,-7 693,-8 310,-1 688,-4 903,-6 215,-2 268,-2 431,168z"/>
  <path class="fil2" d="M4906 2743c28,11 53,32 68,182 15,150 20,429 15,593 -5,164 -21,213 -125,235 -104,21 -296,14 -622,2 -325,-12 -784,-30 -1042,-44 -258,-14 -317,-25 -349,-46 -33,-21 -40,-53 -8,-145 32,-92 102,-243 190,-385 87,-141 191,-272 293,-339 101,-67 200,-71 393,-71 193,-1 481,1 679,3 198,2 308,4 378,4 71,1 102,1 131,11z"/>
  <path class="fil3" d="M8398 3973c-58,-12 -135,-51 -180,-106 -45,-55 -57,-126 -88,-185 -31,-58 -80,-104 -162,-137 -82,-33 -197,-52 -295,-62 -99,-10 -182,-10 -236,25 -55,34 -81,103 -97,159 -16,56 -21,98 -5,131 16,33 55,57 127,85 72,28 179,61 268,78 89,17 162,19 226,29 64,10 121,27 163,54 42,26 71,62 87,89 17,27 22,47 49,68 27,21 77,44 129,43 52,-1 108,-27 147,-60 39,-33 61,-75 58,-114 -3,-39 -30,-77 -63,-88 -33,-11 -71,4 -128,-8z"/>
  <path class="fil4" d="M3060 4867c43,3 110,8 189,36 78,28 168,79 247,134 78,55 146,113 210,195 64,82 126,188 168,299 41,111 63,228 60,353 -3,125 -29,259 -81,383 -52,123 -130,236 -215,326 -86,90 -179,157 -320,202 -141,45 -330,68 -484,55 -154,-13 -274,-63 -385,-132 -110,-70 -211,-160 -280,-243 -70,-84 -108,-161 -144,-257 -35,-95 -67,-208 -71,-334 -4,-126 21,-265 69,-386 48,-121 118,-223 205,-310 86,-87 189,-160 280,-207 91,-48 170,-71 247,-86 77,-15 151,-22 198,-26 47,-4 66,-4 109,-1z"/>
  <path class="fil5" d="M2739 5166c52,-12 122,-26 198,-26 76,0 158,12 231,35 73,23 136,56 201,110 65,53 131,127 179,201 48,75 78,150 95,236 17,86 20,182 2,279 -19,97 -59,194 -115,273 -56,80 -127,142 -206,189 -78,47 -163,78 -250,94 -87,17 -176,19 -268,4 -92,-15 -187,-49 -264,-97 -77,-48 -135,-111 -182,-187 -47,-76 -82,-165 -104,-251 -22,-86 -30,-170 -19,-256 11,-86 40,-173 81,-249 41,-76 94,-140 146,-192 52,-52 102,-90 145,-116 43,-25 78,-37 131,-49z"/>
  <path class="fil4" d="M10633 4899c43,3 110,8 189,36 78,28 168,79 247,134 78,55 146,113 210,195 64,82 126,188 168,299 41,111 63,228 60,353 -3,125 -29,259 -81,383 -52,123 -130,236 -215,326 -86,90 -179,157 -320,202 -141,45 -330,68 -484,55 -154,-13 -274,-63 -385,-132 -110,-70 -211,-160 -280,-243 -70,-84 -108,-161 -144,-257 -35,-95 -67,-208 -71,-334 -4,-126 21,-265 69,-386 48,-121 118,-223 205,-310 86,-87 189,-160 280,-207 91,-48 170,-71 247,-86 77,-15 151,-22 198,-26 47,-4 66,-4 109,-1z"/>
  <path class="fil5" d="M10311 5197c52,-12 122,-26 198,-26 76,0 158,12 231,35 73,23 136,56 201,110 65,53 131,127 179,201 48,75 78,150 95,236 17,86 20,182 2,279 -19,97 -59,194 -115,273 -56,80 -127,142 -206,189 -78,47 -163,78 -250,94 -87,17 -176,19 -268,4 -92,-15 -187,-49 -264,-97 -77,-48 -135,-111 -182,-187 -47,-76 -82,-165 -104,-251 -22,-86 -30,-170 -19,-256 11,-86 40,-173 81,-249 41,-76 94,-140 146,-192 52,-52 102,-90 145,-116 43,-25 78,-37 131,-49z"/>
  <path class="fil6" d="M12020 4587c-37,-30 -98,-62 -162,-75 -64,-13 -130,-5 -216,13 -86,19 -191,48 -227,76 -36,27 -4,53 46,82 50,29 116,62 184,100 67,39 136,83 198,106 62,23 119,24 164,21 46,-4 82,-13 101,-33 19,-21 22,-53 16,-90 -7,-36 -23,-76 -38,-110 -15,-33 -28,-60 -65,-90z"/>
  <path class="fil7" d="M2965 5468c12,5 17,13 21,40 4,27 6,73 10,99 4,26 11,33 23,39 12,6 28,12 45,22 17,10 33,23 49,25 16,2 31,-7 53,-17 22,-11 52,-24 71,-30 19,-7 27,-8 34,-4 7,4 14,14 21,26 7,11 16,24 18,33 2,9 -2,13 -19,26 -17,13 -47,35 -68,55 -21,19 -34,35 -40,48 -6,13 -4,23 -2,38 2,15 4,37 3,51 -1,15 -6,23 -2,30 3,7 14,12 34,26 20,14 50,35 68,49 18,14 25,20 27,27 2,7 1,14 -7,26 -8,12 -22,29 -35,36 -12,7 -22,6 -46,-4 -24,-10 -61,-28 -84,-37 -23,-9 -33,-7 -46,-1 -13,6 -30,17 -45,26 -15,9 -30,16 -39,21 -9,5 -14,8 -18,32 -4,24 -7,70 -10,99 -3,28 -5,39 -14,46 -9,7 -24,10 -37,12 -14,2 -27,2 -34,-3 -8,-5 -11,-14 -15,-43 -4,-29 -10,-79 -13,-105 -3,-26 -4,-29 -19,-37 -14,-8 -42,-22 -61,-33 -19,-11 -29,-19 -36,-22 -7,-3 -12,0 -37,12 -24,12 -67,32 -91,42 -24,10 -29,9 -39,-2 -10,-11 -25,-32 -31,-45 -6,-13 -2,-18 19,-36 22,-18 62,-48 84,-66 22,-17 25,-22 26,-36 1,-14 0,-39 0,-57 0,-19 1,-31 2,-41 1,-9 1,-15 -15,-29 -15,-13 -46,-34 -69,-50 -23,-17 -39,-29 -46,-37 -7,-8 -5,-11 1,-21 6,-11 16,-30 24,-41 8,-11 15,-14 30,-11 15,4 38,15 61,26 23,11 46,22 61,27 14,5 20,3 31,-4 11,-7 27,-18 42,-27 15,-9 30,-16 40,-21 11,-5 17,-9 21,-22 4,-13 5,-35 6,-62 1,-27 3,-60 9,-77 7,-18 18,-21 33,-21 15,0 35,2 47,7z"/>
  <path class="fil7" d="M10553 5476c12,5 17,13 21,40 4,27 6,73 10,99 4,26 11,33 23,39 12,6 28,12 45,22 17,10 33,23 49,25 16,2 31,-7 53,-17 22,-11 52,-24 71,-30 19,-7 27,-8 34,-4 7,4 14,14 21,26 7,11 16,24 18,33 2,9 -2,13 -19,26 -17,13 -47,35 -68,55 -21,19 -34,35 -40,48 -6,13 -4,23 -2,38 2,15 4,37 3,51 -1,15 -6,23 -2,30 3,7 14,12 34,26 20,14 50,35 68,49 18,14 25,20 27,27 2,7 1,14 -7,26 -8,12 -22,29 -35,36 -12,7 -22,6 -46,-4 -24,-10 -61,-28 -84,-37 -23,-9 -33,-7 -46,-1 -13,6 -30,17 -45,26 -15,9 -30,16 -39,21 -9,5 -14,8 -18,32 -4,24 -7,70 -10,99 -3,28 -5,39 -14,46 -9,7 -24,10 -37,12 -14,2 -27,2 -34,-3 -8,-5 -11,-14 -15,-43 -4,-29 -10,-79 -13,-105 -3,-26 -4,-29 -19,-37 -14,-8 -42,-22 -61,-33 -19,-11 -29,-19 -36,-22 -7,-3 -12,0 -37,12 -24,12 -67,32 -91,42 -24,10 -29,9 -39,-2 -10,-11 -25,-32 -31,-45 -6,-13 -2,-18 19,-36 22,-18 62,-48 84,-66 22,-17 25,-22 26,-36 1,-14 0,-39 0,-57 0,-19 1,-31 2,-41 1,-9 1,-15 -15,-29 -15,-13 -46,-34 -69,-50 -23,-17 -39,-29 -46,-37 -7,-8 -5,-11 1,-21 6,-11 16,-30 24,-41 8,-11 15,-14 30,-11 15,4 38,15 61,26 23,11 46,22 61,27 14,5 20,3 31,-4 11,-7 27,-18 42,-27 15,-9 30,-16 40,-21 11,-5 17,-9 21,-22 4,-13 5,-35 6,-62 1,-27 3,-60 9,-77 7,-18 18,-21 33,-21 15,0 35,2 47,7z"/>
  <path class="fil1" d="M6052 10581c-115,43 -287,165 -373,311 -86,146 -86,314 -116,414 -30,100 -90,132 -153,155 -63,22 -129,35 -165,73 -36,37 -43,99 -18,153 25,53 80,98 165,116 85,18 201,10 287,2 86,-7 144,-14 195,-32 51,-18 96,-48 122,-113 26,-65 32,-165 52,-260 20,-94 54,-182 133,-248 79,-66 203,-110 263,-169 60,-58 56,-131 18,-195 -37,-64 -108,-119 -172,-166 -65,-46 -123,-84 -238,-41z"/>
  <path class="fil1" d="M4400 7624c85,-39 186,-54 275,-62 90,-7 169,-7 262,11 94,18 203,54 293,105 91,50 163,114 233,194 69,80 135,176 182,256 47,80 75,144 112,182 37,38 84,51 130,55 46,4 92,-1 178,-26 87,-25 215,-70 352,-87 138,-17 285,-6 444,35 159,42 330,114 509,231 180,117 368,278 526,476 157,198 283,433 366,720 83,287 124,626 96,926 -28,300 -124,562 -243,765 -119,203 -261,348 -434,443 -173,95 -378,140 -533,145 -155,5 -259,-29 -370,-96 -111,-67 -228,-167 -379,-369 -150,-202 -334,-505 -461,-670 -127,-165 -197,-193 -299,-161 -101,32 -234,124 -330,287 -97,164 -158,399 -192,578 -34,180 -40,303 -80,373 -39,69 -112,84 -223,90 -111,5 -260,1 -386,-16 -126,-17 -228,-47 -290,-85 -62,-38 -83,-85 -95,-131 -12,-46 -14,-91 10,-146 23,-55 73,-122 135,-154 63,-32 140,-30 209,-43 69,-13 131,-41 178,-158 47,-118 78,-325 163,-521 85,-196 224,-379 367,-523 144,-144 292,-249 409,-313 116,-64 201,-86 296,-81 95,6 202,39 303,90 101,51 197,119 285,195 87,76 166,159 230,214 64,55 113,83 154,78 41,-5 73,-44 74,-130 1,-86 -29,-221 -131,-363 -102,-142 -277,-291 -414,-356 -137,-65 -235,-46 -335,2 -100,48 -203,125 -307,201 -105,76 -211,150 -316,199 -105,49 -207,73 -326,47 -119,-26 -256,-100 -369,-196 -113,-96 -203,-213 -287,-331 -84,-117 -163,-235 -207,-343 -44,-109 -52,-209 -43,-285 10,-76 37,-127 80,-141 43,-14 101,9 149,70 48,61 85,159 164,269 79,110 199,233 300,318 102,85 185,132 258,123 72,-9 133,-74 187,-132 53,-58 99,-109 133,-199 34,-90 57,-218 44,-280 -12,-62 -59,-59 -145,-17 -85,42 -209,123 -413,76 -203,-47 -486,-223 -638,-384 -151,-161 -171,-308 -161,-436 10,-129 51,-240 106,-327 55,-87 126,-151 211,-191z"/>
  <path class="fil8" d="M5918 7772c33,-40 166,-142 267,-185 101,-42 169,-24 180,7 10,32 -37,77 -104,108 -67,31 -153,48 -230,67 -77,20 -145,42 -112,2z"/>
  <path class="fil8" d="M7233 7981c159,10 391,63 486,129 96,66 55,147 -53,149 -108,3 -284,-73 -423,-123 -139,-51 -241,-77 -249,-105 -8,-29 79,-60 238,-49z"/>
  <path class="fil8" d="M6718 7189c37,-39 182,-128 315,-158 134,-30 256,-1 290,39 33,39 -23,89 -122,114 -99,24 -240,23 -345,29 -105,5 -175,16 -138,-23z"/>
  <path class="fil8" d="M3776 8528c-76,-18 -321,11 -467,73 -147,62 -196,156 -167,201 29,45 135,41 235,12 100,-29 195,-83 289,-143 94,-60 187,-125 111,-143z"/>
  <path class="fil8" d="M2938 9658c-84,48 -278,224 -361,344 -83,119 -53,182 11,200 64,18 163,-9 232,-89 69,-80 108,-212 141,-318 33,-106 61,-185 -23,-137z"/>
  <path class="fil8" d="M2800 8646c-80,20 -296,140 -398,243 -102,103 -90,190 -11,170 80,-20 227,-147 329,-251 102,-103 159,-183 80,-162z"/>
  <path class="fil8" d="M8171 7985c53,-3 194,6 295,36 101,30 160,82 170,126 10,44 -29,80 -88,68 -60,-12 -140,-73 -203,-114 -63,-41 -108,-62 -149,-80 -41,-18 -78,-33 -25,-36z"/>
  <path class="fil9" d="M8848 10290c49,17 115,48 201,110 86,62 193,155 304,257 111,102 227,213 300,294 74,81 106,131 121,235 15,104 14,263 16,461 2,199 8,438 -1,582 -9,144 -33,192 -72,227 -39,35 -93,56 -220,65 -126,9 -325,6 -562,7 -237,1 -512,5 -673,-2 -161,-7 -206,-25 -245,-58 -39,-33 -71,-82 -85,-227 -15,-145 -12,-387 -12,-697 0,-310 -3,-688 3,-899 6,-211 22,-256 55,-292 33,-36 85,-64 145,-76 60,-13 128,-10 231,-9 103,1 240,-1 326,1 85,1 119,6 168,23z"/>
  <path class="fil6" d="M8532 10066c24,7 62,25 84,67 23,42 30,107 17,140 -13,32 -47,32 -117,30 -70,-2 -175,-4 -242,-6 -66,-2 -93,-3 -109,-20 -16,-18 -20,-52 -13,-83 7,-32 25,-61 41,-80 16,-19 29,-29 50,-36 21,-7 50,-11 92,-13 42,-2 96,-1 129,-2 33,-1 44,-4 68,4z"/>
  <path class="fil9" d="M8872 10324c26,-10 85,-20 154,-22 68,-2 146,4 238,14 92,10 198,23 272,40 73,17 114,38 146,63 33,25 58,53 76,86 18,33 29,71 32,112 3,41 -3,87 -7,143 -4,57 -7,125 -11,194 -5,69 -11,138 -17,186 -7,47 -14,72 -40,69 -27,-3 -73,-35 -108,-69 -35,-33 -59,-68 -63,-114 -4,-46 12,-104 24,-153 13,-50 22,-92 27,-133 5,-42 6,-83 -2,-116 -7,-32 -23,-55 -60,-72 -38,-17 -98,-27 -160,-33 -61,-6 -124,-7 -179,-9 -56,-1 -105,-3 -147,-20 -43,-18 -80,-52 -110,-77 -30,-25 -53,-42 -68,-55 -15,-13 -22,-22 4,-32z"/>
  <path class="fil1" d="M8864 10893c28,17 76,54 130,121 54,67 113,163 159,251 47,88 81,167 101,243 20,76 26,149 24,206 -2,57 -14,97 -32,143 -18,46 -43,98 -81,139 -38,42 -90,73 -144,94 -54,21 -110,30 -162,30 -52,-1 -100,-12 -152,-34 -52,-22 -108,-56 -155,-111 -46,-56 -82,-133 -100,-200 -18,-67 -18,-122 7,-190 25,-67 74,-147 124,-222 50,-76 101,-148 136,-210 35,-62 55,-113 67,-154 13,-40 19,-69 23,-87 4,-18 6,-24 12,-29 6,-5 15,-7 43,10z"/>
  <path class="fil6 str0" d="M8922 11043c19,55 69,179 101,293 31,114 44,219 42,300 -2,81 -20,138 -52,188 -32,50 -78,94 -131,119 -53,25 -112,32 -151,31 -38,0 -55,-8 -51,-3 4,5 30,22 71,34 41,12 97,18 153,10 56,-8 110,-30 154,-62 43,-32 76,-73 99,-121 23,-48 38,-102 38,-169 0,-67 -15,-147 -43,-227 -28,-81 -71,-163 -110,-234 -40,-71 -77,-129 -102,-166 -25,-36 -37,-50 -18,6z"/>
  <path class="fil6" d="M4588 2819c-177,-10 -571,-13 -794,-15 -223,-2 -276,-2 -330,19 -54,21 -108,64 -181,144 -72,80 -162,198 -228,307 -66,108 -108,207 -107,243 2,35 48,7 143,-88 95,-95 240,-258 365,-343 125,-86 231,-94 396,-114 165,-19 389,-49 538,-70 149,-20 223,-31 280,-44 56,-13 95,-29 -82,-39z"/>
  <path class="fil6" d="M7132 2776c-227,-8 -703,-10 -1005,-10 -302,0 -429,2 -507,11 -78,10 -108,27 -124,71 -16,44 -18,115 -19,224 -2,109 -4,258 4,365 8,108 26,175 41,138 16,-37 30,-178 55,-288 25,-110 60,-190 100,-243 40,-54 84,-82 219,-106 135,-24 361,-43 574,-60 213,-17 415,-31 553,-41 138,-11 214,-18 264,-28 49,-11 72,-25 -154,-33z"/>
 </g>
</svg>
