<?xml version="1.0" encoding="UTF-8"?>
<!DOCTYPE svg PUBLIC "-//W3C//DTD SVG 1.1//EN" "http://www.w3.org/Graphics/SVG/1.1/DTD/svg11.dtd">
<!-- Creator: CorelDRAW 2017 -->
<svg xmlns="http://www.w3.org/2000/svg" xml:space="preserve" width="143mm" height="143mm" version="1.1" style="shape-rendering:geometricPrecision; text-rendering:geometricPrecision; image-rendering:optimizeQuality; fill-rule:evenodd; clip-rule:evenodd"
viewBox="0 0 14300 14300"
 xmlns:xlink="http://www.w3.org/1999/xlink">
 <defs>
  <style type="text/css">
   <![CDATA[
    .fil1 {fill:black}
    .fil0 {fill:#0069E1}
    .fil4 {fill:#4D4D4D}
    .fil3 {fill:#5ACEF7}
    .fil2 {fill:white}
   ]]>
  </style>
 </defs>
 <g id="Слой_x0020_1">
  <metadata id="CorelCorpID_0Corel-Layer"/>
  <path class="fil0" d="M4856 1961c-388,397 -542,930 -487,1389 55,458 320,842 542,1203 222,362 401,702 481,964 81,262 63,447 -95,611 -158,164 -456,307 -579,486 -122,179 -69,394 -125,570 -57,176 -224,313 -453,447 -230,134 -522,265 -549,885 -27,619 211,1726 744,2407 532,681 1359,936 2210,1059 850,124 1725,116 2472,-13 748,-129 1368,-378 1892,-729 523,-351 949,-803 909,-1400 -39,-597 -544,-1340 -918,-1872 -374,-532 -619,-854 -538,-1153 81,-298 486,-573 635,-889 149,-316 42,-674 -164,-728 -206,-54 -510,197 -611,134 -101,-63 0,-438 86,-796 86,-358 158,-698 119,-1023 -39,-325 -188,-635 -334,-813 -146,-178 -288,-223 -567,-337 -279,-114 -694,-297 -1223,-528 -529,-232 -1172,-513 -1804,-524 -632,-10 -1254,250 -1642,647z"/>
  <path class="fil1" d="M5927 10238c-361,-177 -447,-327 -485,-416 -38,-89 -27,-117 4,-137 31,-20 81,-31 140,-47 59,-16 126,-35 232,-91 105,-56 248,-148 411,-320 164,-172 348,-424 445,-633 97,-209 107,-373 105,-512 -1,-138 -14,-249 -77,-341 -63,-92 -177,-165 -301,-284 -125,-119 -260,-284 -382,-526 -121,-242 -228,-563 -286,-917 -58,-354 -68,-742 -5,-1149 63,-407 199,-834 375,-1139 176,-304 392,-487 702,-637 310,-150 715,-269 1147,-256 432,13 891,157 1216,530 325,373 515,976 606,1476 91,500 81,898 23,1223 -58,325 -165,577 -296,815 -131,238 -286,461 -435,603 -148,142 -290,203 -352,280 -62,78 -44,172 -36,311 8,139 6,324 77,528 72,204 217,427 368,571 151,145 307,211 450,250 143,40 274,54 364,58 90,5 139,0 174,36 35,36 56,111 -41,254 -97,143 -312,353 -750,539 -438,186 -1100,349 -1749,329 -649,-20 -1284,-223 -1645,-399z"/>
  <path class="fil2" d="M7379 4088c-133,49 -357,198 -499,349 -141,150 -200,302 -140,312 60,10 240,-122 403,-247 163,-125 308,-242 360,-327 52,-84 9,-135 -124,-86z"/>
  <path class="fil2" d="M8533 4259c123,53 316,210 427,365 111,155 139,308 77,315 -62,8 -215,-130 -352,-260 -137,-130 -258,-252 -293,-338 -34,-86 18,-135 141,-82z"/>
  <path class="fil2" d="M6891 6767c-25,-103 -12,-355 82,-563 95,-208 272,-373 464,-454 191,-81 397,-78 590,14 193,92 373,272 468,476 95,204 104,431 92,510 -12,79 -47,11 -110,-78 -64,-89 -157,-198 -260,-255 -103,-57 -215,-63 -353,-31 -137,32 -299,102 -414,153 -115,51 -183,84 -243,120 -60,36 -113,77 -171,120 -58,44 -120,90 -145,-12z"/>
  <path class="fil3" d="M6696 4726c-42,-14 -112,-33 -187,-26 -75,7 -155,41 -210,85 -55,45 -84,101 -87,151 -3,50 21,95 48,110 27,15 56,2 91,-35 34,-36 73,-95 120,-137 47,-41 101,-65 147,-82 46,-16 84,-25 107,-29 24,-4 33,-4 30,-9 -3,-5 -17,-16 -59,-30z"/>
  <path class="fil3" d="M5290 5057c-106,-8 -429,82 -613,196 -184,114 -230,251 -182,306 48,55 190,27 319,-34 129,-60 245,-153 358,-253 113,-100 225,-208 119,-216z"/>
  <path class="fil3" d="M3871 5009c-108,-31 -444,-37 -635,14 -191,52 -236,162 -128,192 108,31 368,-18 559,-70 191,-52 312,-106 204,-137z"/>
  <path class="fil3" d="M8772 4786c21,-5 68,-6 137,2 68,8 157,26 235,76 79,50 147,131 167,196 20,65 -10,113 -60,126 -50,12 -121,-12 -174,-52 -53,-40 -89,-97 -116,-142 -28,-45 -48,-78 -72,-103 -24,-25 -51,-42 -72,-54 -21,-12 -36,-19 -47,-27 -11,-8 -17,-16 3,-21z"/>
  <g id="_1815179381296">
   <path class="fil1" d="M12522 8162c119,-1322 179,-1344 194,-1437 16,-93 47,-122 95,-185 47,-63 110,-161 153,-283 43,-122 65,-267 82,-358 17,-92 30,-129 69,-199 39,-69 106,-170 175,-278 69,-107 142,-221 180,-308 38,-87 41,-147 28,-188 -13,-41 -41,-63 -76,-57 -35,6 -76,41 -140,118 -65,77 -153,197 -238,278 -85,80 -167,122 -210,103 -43,-19 -46,-98 -30,-221 16,-123 51,-290 76,-447 25,-156 41,-301 39,-388 -2,-87 -21,-115 -49,-117 -28,-2 -66,24 -107,84 -41,60 -85,155 -134,312 -49,158 -103,379 -145,491 -43,112 -74,115 -95,57 -21,-58 -30,-178 -25,-354 5,-175 24,-406 19,-543 -5,-137 -33,-182 -60,-191 -27,-9 -52,16 -85,96 -33,81 -74,216 -109,379 -35,163 -63,352 -79,470 -16,118 -19,166 -35,189 -16,24 -44,24 -79,-109 -35,-133 -76,-398 -112,-570 -36,-172 -68,-251 -103,-292 -35,-41 -73,-44 -95,-22 -22,22 -28,69 -30,196 -2,126 2,331 8,548 6,216 16,444 8,579 -8,136 -33,180 -66,191 -33,11 -74,-11 -137,-69 -63,-58 -148,-153 -224,-218 -76,-65 -142,-99 -213,-123 -71,-24 -147,-36 -205,-32 -58,5 -99,27 -123,49 -24,22 -30,44 -6,66 24,22 77,44 131,77 54,33 107,77 167,183 60,106 126,273 197,393 71,120 147,193 185,229 38,36 38,36 80,65 43,28 128,85 175,159 47,74 59,164 36,346 -23,181 -76,451 -139,799 -350,1927 932,1852 1051,530z"/>
   <path class="fil4" d="M11906 5401c39,-13 107,-29 183,-36 76,-7 159,-5 239,5 80,10 156,28 228,51 73,23 142,52 193,83 51,31 82,63 104,91 22,28 33,51 25,57 -8,6 -36,-7 -73,-22 -37,-16 -84,-34 -149,-54 -66,-19 -150,-39 -230,-57 -80,-18 -155,-33 -223,-42 -68,-9 -129,-12 -185,-10 -56,2 -109,10 -136,6 -28,-4 -30,-21 -27,-35 4,-14 14,-25 53,-39z"/>
   <path class="fil1" d="M12559 7865c-42,429 -172,1162 -399,1651 -227,489 -550,734 -937,895 -387,162 -836,241 -1227,268 -391,28 -722,4 -923,-95 -201,-99 -272,-272 -316,-442 -43,-170 -59,-335 95,-442 154,-107 477,-154 813,-185 335,-32 683,-47 919,-114 237,-67 363,-185 473,-388 110,-202 203,-488 282,-799 79,-311 144,-646 235,-842 92,-196 210,-253 324,-266 114,-13 225,19 326,40 101,21 194,31 263,98 69,67 115,192 72,620z"/>
  </g>
  <path class="fil3" d="M10461 4790c70,3 290,64 419,140 128,75 165,164 139,202 -26,37 -114,22 -202,-25 -88,-48 -177,-128 -261,-195 -84,-68 -164,-123 -94,-120z"/>
  <path class="fil3" d="M11834 6552c119,182 251,477 257,635 6,158 -115,179 -206,64 -91,-116 -152,-368 -211,-561 -58,-192 -113,-325 -89,-356 25,-32 129,37 248,219z"/>
  <path class="fil3" d="M12484 5518c73,9 288,93 430,214 142,121 210,278 194,347 -16,68 -116,48 -223,-40 -107,-87 -221,-242 -313,-352 -92,-111 -161,-178 -88,-169z"/>
  <path class="fil3" d="M12869 8016c46,55 152,216 202,350 49,134 42,241 2,288 -40,47 -111,35 -146,-40 -35,-75 -35,-212 -41,-314 -7,-102 -21,-168 -35,-228 -14,-59 -27,-111 19,-57z"/>
  <g id="_1815179377712">
   <path class="fil1" d="M3063 9299c-621,-1173 -685,-1170 -735,-1250 -51,-80 -91,-94 -159,-134 -68,-40 -164,-106 -250,-201 -86,-96 -163,-221 -214,-299 -51,-78 -78,-108 -141,-157 -63,-49 -163,-116 -269,-188 -106,-72 -216,-149 -285,-214 -69,-65 -95,-119 -99,-162 -4,-43 13,-74 48,-82 34,-8 86,9 175,55 90,46 217,123 327,164 110,41 201,47 233,13 32,-34 4,-108 -58,-215 -62,-107 -159,-248 -243,-383 -84,-134 -154,-262 -187,-343 -32,-81 -26,-114 0,-127 26,-12 70,-4 131,36 61,39 138,110 245,236 106,127 241,310 324,396 83,87 113,78 109,16 -4,-62 -41,-176 -114,-336 -72,-160 -179,-365 -228,-493 -49,-128 -40,-180 -19,-199 21,-19 54,-6 116,56 62,61 152,171 247,307 95,136 194,300 255,403 60,103 82,145 105,161 24,16 50,5 31,-131 -19,-136 -84,-396 -117,-569 -33,-173 -35,-258 -18,-309 16,-51 50,-69 79,-57 29,12 53,53 103,169 50,116 127,306 205,508 78,202 157,415 217,537 60,122 100,153 135,150 35,-3 64,-39 100,-117 36,-78 78,-199 122,-288 45,-89 93,-147 149,-196 56,-49 121,-90 177,-108 56,-18 102,-14 132,-3 30,11 45,29 31,59 -13,30 -54,71 -91,122 -37,51 -69,113 -83,234 -14,121 -11,301 -30,439 -19,138 -61,234 -82,282 -21,48 -21,48 -49,91 -28,43 -85,128 -100,215 -15,87 9,174 100,333 91,158 245,387 437,683 1068,1642 -143,2068 -764,895z"/>
   <path class="fil4" d="M2563 6515c-41,3 -110,15 -183,38 -73,23 -149,57 -218,97 -70,40 -133,86 -191,135 -58,50 -111,103 -146,151 -35,48 -51,90 -60,124 -9,34 -11,60 -1,62 10,2 30,-20 59,-49 28,-29 64,-64 117,-107 53,-43 124,-94 191,-141 67,-47 131,-90 190,-125 59,-35 114,-61 167,-81 53,-20 104,-33 128,-47 24,-15 20,-31 11,-42 -9,-11 -22,-18 -63,-15z"/>
   <path class="fil1" d="M2914 9039c205,379 609,1005 1007,1368 398,363 791,464 1210,463 419,0 864,-102 1235,-227 371,-126 667,-276 815,-445 147,-169 146,-356 120,-530 -26,-173 -75,-332 -258,-371 -183,-39 -500,43 -821,143 -321,101 -648,220 -892,250 -244,30 -406,-31 -586,-175 -179,-144 -376,-372 -569,-628 -193,-256 -382,-540 -543,-686 -160,-146 -292,-153 -402,-120 -110,32 -200,104 -286,163 -85,59 -167,104 -204,192 -38,89 -31,221 173,600z"/>
  </g>
  <path class="fil1" d="M5481 10305c18,123 148,312 207,512 60,200 49,412 31,550 -18,139 -45,205 -71,269 -26,64 -53,126 40,203 93,77 304,170 589,232 284,62 642,93 1076,108 434,15 946,15 1352,-24 406,-40 706,-119 867,-183 161,-64 183,-112 174,-179 -9,-66 -49,-150 -68,-289 -20,-139 -20,-333 -11,-525 9,-192 26,-381 39,-530 13,-148 21,-255 -59,-343 -79,-88 -246,-157 -517,-234 -271,-77 -646,-161 -1016,-214 -370,-53 -736,-75 -1074,-36 -337,40 -646,141 -873,226 -227,85 -372,153 -492,215 -119,62 -212,118 -193,241z"/>
  <path class="fil3" d="M2338 7355c-49,163 -271,570 -442,760 -171,191 -291,166 -348,64 -57,-103 -51,-283 57,-434 109,-151 320,-272 488,-373 168,-101 293,-180 244,-17z"/>
  <path class="fil3" d="M5207 4265c-62,-33 -283,-90 -432,-89 -149,1 -225,60 -221,105 4,45 88,76 188,79 100,3 217,-22 324,-38 107,-16 204,-24 142,-57z"/>
  <path class="fil3" d="M4078 6422c-126,37 -441,206 -589,337 -148,131 -130,223 -51,268 79,44 218,41 335,-42 117,-83 212,-245 290,-375 78,-129 140,-225 14,-188z"/>
  <path class="fil3" d="M2501 5860c-68,22 -176,80 -247,134 -71,54 -104,106 -68,123 37,17 143,1 255,-48 111,-48 227,-128 258,-168 31,-40 -23,-39 -63,-45 -41,-6 -68,-19 -135,4z"/>
 </g>
</svg>
