<?xml version="1.0" encoding="UTF-8"?>
<!DOCTYPE svg PUBLIC "-//W3C//DTD SVG 1.1//EN" "http://www.w3.org/Graphics/SVG/1.1/DTD/svg11.dtd">
<!-- Creator: CorelDRAW 2017 -->
<svg xmlns="http://www.w3.org/2000/svg" xml:space="preserve" width="143mm" height="143mm" version="1.1" style="shape-rendering:geometricPrecision; text-rendering:geometricPrecision; image-rendering:optimizeQuality; fill-rule:evenodd; clip-rule:evenodd"
viewBox="0 0 14300 14300"
 xmlns:xlink="http://www.w3.org/1999/xlink">
 <defs>
  <style type="text/css">
   <![CDATA[
    .fil3 {fill:black}
    .fil6 {fill:#0069E1}
    .fil0 {fill:#4D4D4D}
    .fil2 {fill:gray}
    .fil8 {fill:#94E8FF}
    .fil4 {fill:#B3B3B3}
    .fil1 {fill:#FF9933}
    .fil7 {fill:white}
    .fil5 {fill:white}
   ]]>
  </style>
 </defs>
 <g id="Слой_x0020_1">
  <metadata id="CorelCorpID_0Corel-Layer"/>
  <path class="fil0" d="M12966 5092c3,-66 -9,-193 -65,-321 -56,-128 -156,-258 -262,-358 -106,-100 -217,-171 -334,-224 -117,-53 -240,-89 -457,-107 -216,-18 -526,-18 -1670,-19 -1144,-1 -3123,-2 -4177,20 -1054,22 -1182,69 -1301,128 -119,60 -229,133 -323,225 -95,91 -175,201 -222,305 -47,105 -62,204 -70,277 -7,73 -8,118 16,148 23,30 69,45 418,54 348,9 999,12 2336,8 1338,-4 3363,-15 4473,-22 1110,-6 1306,-8 1420,-13 114,-5 145,-14 170,-21 25,-7 44,-14 47,-80z"/>
  <path class="fil1" d="M2154 10889c1640,-14 4858,7 7003,25 2145,18 3217,32 3789,64 572,32 642,81 684,173 42,92 56,226 4,321 -53,95 -173,152 -751,191 -579,39 -1616,60 -2057,81 -441,21 -286,42 -152,134 134,92 247,254 155,399 -92,145 -388,272 -1005,310 -617,39 -1556,-11 -2635,-39 -1080,-28 -2300,-35 -3111,-42 -811,-7 -1214,-14 -1453,-56 -240,-42 -318,-120 -325,-236 -7,-116 56,-272 -74,-374 -131,-102 -455,-152 -755,-194 -300,-42 -575,-78 -741,-127 -166,-49 -222,-113 -261,-201 -39,-88 -60,-201 -39,-282 21,-81 85,-131 1725,-145z"/>
  <path class="fil2" d="M4748 6232c13,-14 26,-14 1043,-12 1017,2 3039,6 4212,9 1173,2 1496,3 1750,1 254,-2 438,-6 529,30 91,36 87,112 87,312 0,199 3,522 4,952 1,430 0,967 0,1371 0,403 -1,672 -22,834 -21,162 -62,216 -1335,235 -1274,19 -3780,3 -5044,-33 -1264,-35 -1287,-89 -1292,-268 -5,-180 6,-485 13,-1067 7,-581 10,-1438 18,-1880 8,-442 22,-469 36,-483z"/>
  <path class="fil3" d="M4449 5534c-35,21 -35,66 -35,1013 0,947 1,2796 12,3727 10,931 29,944 60,949 30,5 72,2 120,0 48,-2 103,-1 130,-21 27,-19 27,-58 25,-522 -3,-465 -8,-1355 -5,-2278 3,-923 13,-1878 16,-2362 2,-484 -4,-497 -30,-505 -26,-8 -70,-11 -128,-15 -58,-3 -128,-7 -163,14z"/>
  <path class="fil3" d="M12665 5524c35,21 35,66 32,1013 -3,947 -8,2796 -20,3727 -12,931 -32,944 -62,948 -30,5 -72,2 -120,0 -48,-2 -103,-2 -130,-21 -27,-19 -27,-58 -23,-522 4,-465 11,-1355 11,-2278 -1,-923 -9,-1878 -10,-2362 -1,-484 5,-497 31,-505 26,-8 71,-11 128,-14 58,-3 128,-6 163,15z"/>
  <path class="fil0" d="M11324 5048c1496,-1 1641,-5 1737,-2 96,2 142,11 185,47 43,36 83,99 100,174 17,75 10,161 -12,228 -22,67 -60,116 -132,148 -72,33 -179,49 -1663,63 -1484,13 -4344,23 -5844,25 -1500,3 -1639,-2 -1740,-12 -101,-11 -164,-28 -211,-64 -47,-37 -79,-94 -89,-171 -10,-77 0,-174 14,-239 14,-65 31,-99 65,-127 35,-28 87,-51 157,-63 69,-11 156,-11 1622,-10 1467,2 4314,4 5810,4z"/>
  <path class="fil4" d="M11514 5182c43,1 78,5 93,13 14,8 8,20 -206,27 -214,6 -635,6 -1903,25 -1268,19 -3382,57 -4460,93 -1078,36 -1120,69 -1154,97 -34,27 -62,48 -88,46 -26,-2 -52,-26 -58,-80 -6,-54 7,-139 34,-192 27,-53 69,-74 143,-89 74,-15 179,-25 1134,-19 954,6 2758,26 3952,43 1195,16 1781,28 2100,33 319,5 370,2 414,3z"/>
  <path class="fil5" d="M6618 1691c272,-7 775,-4 1091,-7 316,-2 445,-9 539,-50 95,-41 155,-117 182,-210 28,-93 23,-205 3,-283 -20,-78 -56,-122 -90,-149 -34,-27 -68,-36 -118,-43 -50,-8 -117,-14 -181,8 -65,22 -127,73 -159,126 -32,52 -34,106 -26,148 9,42 29,73 71,97 42,23 107,39 148,39 41,0 59,-16 72,-12 13,3 22,26 14,53 -8,28 -32,61 -82,76 -50,14 -126,10 -189,-19 -63,-29 -115,-82 -143,-138 -29,-56 -36,-113 -24,-189 11,-76 40,-169 117,-244 77,-75 201,-130 325,-141 123,-11 246,22 344,87 98,65 171,160 206,258 34,98 30,198 16,275 -14,77 -39,130 -99,198 -60,68 -156,150 -277,197 -121,47 -268,58 -597,59 -329,1 -841,-8 -1119,-19 -278,-11 -323,-24 -347,-38 -24,-13 -29,-27 -10,-41 19,-14 61,-30 334,-37z"/>
  <path class="fil5" d="M7178 2608c333,-8 945,-10 1352,-4 407,6 608,19 749,52 140,33 219,87 278,158 58,71 96,160 115,252 19,92 19,188 -16,277 -35,89 -104,171 -191,220 -87,49 -192,65 -282,62 -91,-2 -168,-22 -230,-69 -62,-47 -110,-120 -133,-191 -24,-71 -24,-140 -10,-202 14,-62 41,-118 79,-157 38,-39 85,-61 132,-68 47,-7 95,2 121,14 26,12 30,28 23,43 -7,16 -25,31 -62,47 -38,16 -95,31 -126,58 -32,27 -38,65 -35,112 3,48 15,106 51,150 37,44 98,76 164,83 66,8 137,-8 194,-44 57,-36 99,-93 117,-172 17,-80 9,-182 -22,-256 -31,-74 -85,-120 -174,-151 -88,-32 -211,-49 -548,-62 -337,-12 -888,-19 -1242,-28 -354,-9 -510,-20 -601,-36 -91,-16 -117,-36 -103,-52 14,-17 67,-30 400,-38z"/>
  <path class="fil5" d="M6208 2182c467,7 1375,20 2041,22 666,2 1091,-7 1337,-53 246,-47 313,-131 347,-220 34,-89 37,-182 -8,-254 -44,-71 -136,-120 -225,-123 -89,-3 -176,39 -221,98 -46,59 -50,135 -30,179 20,44 65,58 103,57 39,-1 72,-17 92,0 20,17 27,66 -2,98 -29,32 -93,48 -161,31 -68,-17 -139,-66 -179,-139 -40,-73 -49,-171 -22,-269 27,-98 89,-196 185,-255 96,-59 225,-79 343,-57 118,22 225,87 297,177 72,90 110,206 123,310 13,105 2,198 -43,283 -46,85 -126,160 -209,210 -83,50 -170,75 -571,91 -400,17 -1114,26 -1738,24 -624,-1 -1158,-12 -1496,-37 -338,-24 -480,-62 -528,-95 -48,-32 -1,-59 36,-72 37,-13 63,-13 531,-7z"/>
  <g id="_1499424706288">
   <path class="fil6" d="M1604 1191c291,-1 850,-4 1204,-4 354,0 502,3 590,5 88,3 116,5 139,19 23,14 39,39 47,136 8,97 6,267 7,706 1,440 5,1149 7,1532 2,383 2,438 -5,479 -7,40 -20,66 -39,85 -20,19 -46,32 -398,37 -352,5 -1029,3 -1393,1 -364,-1 -415,-1 -449,-6 -35,-5 -53,-15 -69,-35 -15,-20 -26,-51 -32,-100 -6,-49 -6,-117 -6,-543 0,-426 0,-1209 -1,-1632 -1,-423 -3,-486 -1,-532 2,-45 8,-73 19,-95 11,-21 28,-37 48,-44 20,-8 42,-8 333,-9z"/>
   <path class="fil7" d="M1703 1344c255,-1 745,-2 1055,-2 310,0 440,2 517,3 77,2 102,3 122,12 20,9 35,25 41,89 7,63 5,174 6,460 1,286 4,748 6,998 2,249 2,285 -4,312 -6,26 -17,43 -35,55 -17,12 -40,21 -349,24 -308,3 -902,2 -1221,1 -319,-1 -363,-1 -394,-4 -30,-3 -47,-10 -60,-23 -13,-13 -23,-33 -28,-65 -5,-32 -5,-76 -5,-354 0,-277 0,-787 -1,-1062 -1,-275 -2,-317 -1,-346 2,-30 7,-48 16,-62 10,-14 25,-24 42,-29 17,-5 37,-5 292,-6z"/>
   <path class="fil3" d="M2782 1821c97,0 252,-2 339,-2 86,0 104,2 117,5 13,3 23,6 31,14 8,8 16,19 21,35 5,16 8,35 15,84 7,49 19,127 24,174 6,48 6,65 6,117 0,52 -1,137 -2,185 -1,48 -4,59 -9,68 -5,9 -12,17 -23,23 -11,6 -25,11 -59,13 -34,2 -87,1 -121,1 -34,0 -47,0 -56,-1 -8,-1 -10,-5 -12,-16 -2,-12 -4,-31 -12,-52 -8,-21 -21,-42 -36,-60 -15,-18 -32,-32 -52,-44 -19,-12 -41,-22 -67,-27 -26,-5 -56,-4 -82,2 -26,6 -47,16 -66,27 -18,11 -33,24 -47,40 -14,16 -27,36 -36,52 -9,16 -13,29 -15,41 -3,12 -3,22 -5,29 -2,6 -5,9 -21,10 -17,1 -48,0 -143,1 -96,0 -256,2 -340,1 -84,-1 -91,-3 -95,-9 -5,-5 -8,-12 -11,-25 -3,-12 -7,-29 -15,-48 -8,-19 -19,-39 -38,-58 -19,-19 -47,-38 -72,-49 -25,-11 -49,-15 -73,-17 -24,-1 -50,0 -74,7 -25,7 -49,20 -70,39 -21,19 -39,45 -50,67 -11,22 -15,39 -17,53 -2,14 -2,25 -6,31 -4,6 -11,8 -26,8 -15,0 -39,-2 -56,-6 -17,-4 -26,-11 -35,-22 -9,-10 -18,-24 -22,-58 -4,-33 -3,-86 -3,-132 0,-46 -2,-85 -1,-108 0,-24 3,-32 15,-68 12,-36 33,-100 51,-151 18,-51 32,-88 44,-113 12,-25 22,-37 32,-45 10,-8 21,-13 47,-15 26,-2 67,-2 228,-2 162,0 444,0 604,0 160,0 199,0 296,0z"/>
   <path class="fil7" d="M1701 1895c24,-1 66,-1 94,-1 28,0 43,0 53,1 10,1 15,3 19,7 4,4 8,8 10,30 2,22 2,61 2,94 0,33 0,60 -3,78 -3,17 -8,24 -19,28 -11,4 -28,5 -69,5 -41,0 -107,-1 -142,-3 -35,-1 -39,-3 -42,-7 -3,-4 -6,-10 -5,-20 1,-10 6,-24 16,-56 10,-32 25,-81 35,-109 9,-28 13,-35 17,-40 4,-5 9,-7 33,-9z"/>
   <path class="fil7" d="M1993 1897c10,-1 27,-3 64,-4 38,-1 96,-1 139,0 43,0 71,1 88,2 16,1 21,2 25,4 4,2 6,6 8,14 2,7 3,19 3,52 0,34 0,91 -1,122 -2,31 -5,38 -10,42 -5,4 -12,6 -50,7 -38,1 -108,1 -157,1 -50,0 -79,1 -96,0 -17,-1 -21,-3 -25,-5 -4,-2 -7,-4 -10,-8 -2,-4 -4,-10 -4,-31 -1,-21 0,-56 0,-86 0,-30 0,-55 0,-70 0,-15 1,-21 2,-26 2,-4 4,-7 7,-10 3,-2 6,-3 16,-5z"/>
   <path class="fil7" d="M2634 1894c44,0 80,0 100,1 21,1 27,3 32,5 5,3 7,7 9,13 2,6 2,15 2,47 0,32 0,88 0,119 -1,31 -2,37 -4,42 -2,5 -5,10 -15,13 -9,3 -25,5 -76,5 -51,1 -136,0 -183,0 -47,0 -55,0 -62,-3 -7,-3 -14,-9 -17,-15 -3,-6 -4,-14 -3,-46 0,-32 1,-89 1,-121 0,-32 0,-39 3,-45 3,-6 9,-12 20,-15 11,-3 26,-3 61,-3 34,0 88,0 132,1z"/>
   <path class="fil7" d="M3087 1892c32,0 58,0 74,0 16,0 22,2 26,4 5,2 9,6 12,16 4,10 7,27 12,61 5,34 11,84 14,112 3,29 2,36 0,41 -3,5 -7,9 -34,10 -27,2 -76,2 -129,2 -53,0 -110,0 -141,-1 -31,-1 -37,-2 -42,-4 -5,-3 -10,-7 -12,-12 -3,-5 -4,-12 -4,-45 0,-34 0,-94 1,-127 1,-33 3,-38 6,-43 3,-4 7,-8 25,-10 18,-2 50,-3 85,-3 35,0 74,1 107,1z"/>
   <path class="fil3" d="M1841 2383c7,0 18,1 31,6 13,5 28,13 41,22 13,9 24,19 34,32 11,13 21,31 28,49 7,18 10,37 10,58 0,21 -5,43 -13,63 -9,20 -21,39 -35,54 -14,15 -29,26 -53,33 -23,7 -54,11 -79,9 -25,-2 -45,-10 -63,-22 -18,-11 -35,-26 -46,-40 -11,-14 -18,-26 -24,-42 -6,-16 -11,-34 -12,-55 -1,-21 3,-44 11,-63 8,-20 19,-37 34,-51 14,-14 31,-26 46,-34 15,-8 28,-12 41,-14 13,-2 25,-4 32,-4 8,-1 11,-1 18,0z"/>
   <path class="fil0" d="M1806 2482c5,-1 12,-3 19,-3 7,0 16,1 23,3 7,2 13,6 20,11 6,5 13,12 18,20 5,7 8,15 9,23 2,8 2,18 0,27 -2,9 -6,19 -11,27 -6,8 -13,14 -20,19 -8,5 -16,8 -25,9 -9,2 -17,2 -26,0 -9,-2 -18,-5 -26,-10 -8,-5 -13,-11 -18,-18 -5,-7 -8,-16 -10,-25 -2,-8 -3,-17 -2,-25 1,-8 4,-17 8,-24 4,-7 9,-14 14,-19 5,-5 10,-9 14,-11 4,-2 8,-4 13,-5z"/>
   <path class="fil3" d="M2868 2385c7,0 18,1 31,6 13,5 28,13 41,22 13,9 24,19 34,32 11,13 21,31 28,49 7,18 10,37 10,58 0,21 -5,43 -13,63 -9,20 -21,39 -35,54 -14,15 -29,26 -53,33 -23,7 -54,11 -79,9 -25,-2 -45,-10 -63,-22 -18,-11 -35,-26 -46,-40 -11,-14 -18,-26 -24,-42 -6,-16 -11,-34 -12,-55 -1,-21 3,-44 11,-63 8,-20 19,-37 34,-51 14,-14 31,-26 46,-34 15,-8 28,-12 41,-14 13,-2 25,-4 32,-4 8,-1 11,-1 18,0z"/>
   <path class="fil0" d="M2833 2484c5,-1 12,-3 19,-3 7,0 15,1 23,3 7,2 13,6 20,11 6,5 13,12 18,20 5,7 8,15 9,23 2,8 2,18 0,27 -2,9 -6,19 -11,27 -6,8 -13,14 -20,19 -8,5 -16,8 -25,9 -9,2 -17,2 -26,0 -9,-2 -18,-5 -26,-10 -8,-5 -13,-11 -18,-18 -5,-7 -8,-16 -10,-25 -2,-8 -3,-17 -2,-25 1,-8 4,-17 8,-24 4,-7 9,-14 14,-19 5,-5 10,-9 14,-11 4,-2 8,-4 13,-5z"/>
  </g>
  <path class="fil3" d="M2252 3971c-32,27 -32,84 -31,1294 1,1210 4,3573 15,4763 10,1190 28,1206 56,1212 28,6 66,2 110,0 44,-2 94,-2 119,-27 25,-25 25,-74 22,-668 -3,-594 -9,-1732 -7,-2912 1,-1179 10,-2400 12,-3018 1,-618 -4,-635 -28,-645 -23,-10 -64,-14 -117,-18 -53,-4 -117,-8 -149,18z"/>
  <path class="fil8" d="M7148 6442c-23,-43 -51,-60 -346,-67 -295,-7 -856,-4 -1186,-1 -330,3 -428,6 -491,18 -63,12 -91,31 -107,71 -16,40 -19,100 -23,515 -4,415 -8,1186 -14,1645 -6,458 -13,605 -4,698 9,93 33,133 82,156 49,23 123,30 446,29 323,-1 895,-11 1209,-17 314,-6 370,-10 414,-26 44,-17 76,-46 90,-246 14,-199 11,-568 6,-1028 -5,-460 -11,-1012 -23,-1322 -12,-311 -29,-380 -52,-424z"/>
  <path class="fil8" d="M9630 6450c-23,-43 -50,-60 -342,-67 -292,-7 -848,-4 -1175,-1 -327,3 -424,6 -487,18 -63,12 -90,31 -106,71 -16,40 -19,100 -23,515 -4,415 -8,1186 -11,1635 -3,450 -5,578 6,662 11,84 35,124 84,147 49,23 122,30 439,38 317,8 878,16 1187,19 308,3 364,-1 408,-17 43,-17 75,-46 89,-246 14,-199 11,-568 6,-1028 -5,-460 -11,-1012 -23,-1322 -12,-311 -29,-380 -52,-424z"/>
  <path class="fil8" d="M12089 6459c-22,-43 -50,-60 -339,-67 -289,-7 -841,-4 -1165,-1 -324,3 -420,6 -483,18 -62,12 -90,32 -105,72 -16,40 -19,100 -23,518 -4,417 -8,1192 -13,1644 -4,452 -9,581 1,666 10,85 34,125 82,148 48,23 121,30 437,32 317,2 878,-1 1186,-4 308,-3 363,-6 406,-23 43,-17 74,-47 87,-241 13,-195 8,-554 3,-1011 -6,-457 -12,-1011 -23,-1323 -12,-312 -29,-382 -51,-426z"/>
  <path class="fil5" d="M5355 6660c-47,13 -48,48 -50,364 -2,317 -6,915 -10,1329 -4,414 -7,643 5,758 12,115 38,117 108,126 70,9 185,25 248,27 64,2 77,-9 69,-144 -8,-135 -36,-393 -52,-791 -16,-398 -21,-935 -22,-1235 -1,-300 1,-364 -9,-396 -10,-32 -31,-34 -88,-39 -58,-5 -152,-14 -199,-1z"/>
  <path class="fil5" d="M5898 6949c-20,224 -31,668 -40,1094 -8,426 -13,835 0,1039 13,204 42,202 66,202 24,0 43,1 57,-3 14,-4 24,-12 27,-130 4,-117 1,-344 10,-680 9,-336 29,-781 41,-1088 12,-306 16,-474 12,-561 -4,-87 -16,-94 -34,-98 -18,-4 -42,-6 -67,-5 -26,1 -53,4 -72,227z"/>
  <path class="fil5" d="M10382 6645c-47,13 -48,48 -50,364 -2,317 -6,915 -10,1329 -4,414 -7,643 5,758 12,115 38,117 108,126 70,9 185,25 248,27 64,2 77,-9 69,-144 -8,-135 -36,-393 -52,-791 -16,-398 -21,-935 -22,-1235 -1,-300 1,-364 -9,-396 -10,-32 -31,-34 -88,-39 -58,-5 -152,-14 -199,-1z"/>
  <path class="fil5" d="M10925 6934c-20,224 -31,668 -40,1094 -8,426 -13,835 0,1039 13,204 42,202 66,202 24,0 43,1 57,-3 14,-4 24,-12 27,-130 4,-117 1,-344 10,-680 9,-336 29,-781 41,-1088 12,-306 16,-474 12,-561 -4,-87 -16,-94 -34,-98 -18,-4 -42,-6 -67,-5 -26,1 -53,4 -72,227z"/>
  <path class="fil5" d="M7912 6621c-47,13 -48,48 -50,364 -2,317 -6,915 -10,1329 -4,414 -7,643 5,758 12,115 38,117 108,126 70,9 185,25 248,27 64,2 77,-9 69,-144 -8,-135 -36,-393 -52,-791 -16,-398 -21,-935 -22,-1235 -1,-300 1,-364 -9,-396 -10,-32 -31,-34 -88,-39 -58,-5 -152,-14 -199,-1z"/>
  <path class="fil5" d="M8456 6909c-20,224 -31,668 -40,1094 -8,426 -13,835 0,1039 13,204 42,202 66,202 24,0 43,1 57,-3 14,-4 24,-12 27,-130 4,-117 1,-344 10,-680 9,-336 29,-781 41,-1088 12,-306 16,-474 12,-561 -4,-87 -16,-94 -34,-98 -18,-4 -42,-6 -67,-5 -26,1 -53,4 -72,227z"/>
  <path class="fil0" d="M11264 9680c1356,0 1436,0 1502,23 66,23 119,70 150,121 30,52 37,108 42,182 5,74 7,164 6,212 -1,47 -6,52 -1016,56 -1010,4 -3024,8 -4485,10 -1461,2 -2368,1 -2829,-8 -461,-9 -475,-26 -481,-83 -6,-57 -3,-154 9,-224 12,-70 34,-115 74,-157 40,-42 98,-82 169,-103 71,-22 156,-25 1514,-26 1358,-2 3990,-2 5346,-2z"/>
 </g>
</svg>
