<?xml version="1.0" encoding="UTF-8"?>
<!DOCTYPE svg PUBLIC "-//W3C//DTD SVG 1.1//EN" "http://www.w3.org/Graphics/SVG/1.1/DTD/svg11.dtd">
<!-- Creator: CorelDRAW 2017 -->
<svg xmlns="http://www.w3.org/2000/svg" xml:space="preserve" width="143mm" height="143mm" version="1.1" style="shape-rendering:geometricPrecision; text-rendering:geometricPrecision; image-rendering:optimizeQuality; fill-rule:evenodd; clip-rule:evenodd"
viewBox="0 0 14300 14300"
 xmlns:xlink="http://www.w3.org/1999/xlink">
 <defs>
  <style type="text/css">
   <![CDATA[
    .fil4 {fill:black}
    .fil0 {fill:#5B962C}
    .fil1 {fill:#780000}
    .fil5 {fill:#F79C84}
    .fil2 {fill:red}
    .fil3 {fill:#FFD663}
   ]]>
  </style>
 </defs>
 <g id="Слой_x0020_1">
  <metadata id="CorelCorpID_0Corel-Layer"/>
  <path class="fil0" d="M11117 9534c598,21 1048,30 1407,122 359,92 626,268 534,435 -92,167 -544,326 -1163,443 -619,117 -1405,192 -1869,289 -464,96 -606,213 -514,318 92,105 418,197 401,318 -17,121 -376,272 -1267,309 -891,38 -2313,-38 -3375,-113 -1062,-75 -1765,-151 -2304,-247 -540,-96 -916,-213 -937,-355 -21,-142 314,-310 477,-464 163,-155 155,-297 -63,-422 -217,-125 -644,-234 -807,-322 -163,-88 -63,-155 343,-247 406,-92 1117,-209 2024,-238 908,-29 2012,29 2882,59 870,29 1506,29 2197,46 691,16 1437,49 2035,70z"/>
  <path class="fil1" d="M10961 8100c6,61 -16,171 -63,320 -47,149 -118,335 -187,506 -69,171 -136,325 -185,429 -49,104 -81,159 -266,250 -185,92 -524,221 -870,328 -346,108 -699,194 -1022,212 -323,18 -616,-32 -802,-94 -186,-62 -266,-135 -381,-316 -115,-181 -266,-469 -401,-730 -135,-261 -254,-494 -344,-652 -90,-157 -149,-238 -59,-271 90,-33 330,-17 908,-3 578,14 1494,27 2076,32 582,5 831,3 1010,-20 179,-23 288,-67 361,-83 73,-16 111,-3 147,9 36,12 71,22 77,83z"/>
  <path class="fil1" d="M4770 5910c19,186 -111,429 -211,715 -100,286 -171,617 -217,970 -46,353 -67,730 -84,1096 -17,366 -29,721 -36,939 -6,217 -6,297 -31,345 -25,48 -75,65 -128,69 -52,4 -107,-4 -138,-153 -31,-148 -40,-437 -92,-941 -52,-504 -148,-1223 -253,-1761 -105,-537 -217,-893 -338,-1179 -121,-286 -249,-504 -330,-681 -81,-178 -114,-316 -133,-437 -19,-121 -23,-226 4,-276 27,-50 86,-46 257,25 171,71 454,209 702,357 248,148 462,307 652,452 190,144 358,274 376,460z"/>
  <path class="fil2" d="M3497 2876c84,-67 138,-100 207,-109 69,-8 153,8 366,132 213,123 556,353 893,665 337,312 667,705 1027,1115 360,410 749,836 1083,1211 335,374 615,696 847,899 232,203 416,287 709,349 293,63 694,105 1048,165 353,61 659,140 862,222 203,82 303,165 368,272 65,107 94,236 84,343 -10,107 -61,190 -385,314 -324,123 -922,286 -1478,397 -556,111 -1071,169 -1430,167 -360,-2 -565,-65 -751,-188 -186,-123 -353,-307 -594,-632 -240,-324 -554,-788 -822,-1135 -268,-347 -489,-577 -797,-820 -307,-243 -701,-498 -1016,-680 -316,-182 -554,-291 -698,-364 -144,-73 -194,-111 -230,-226 -36,-115 -56,-307 -50,-502 6,-194 40,-391 119,-613 79,-222 205,-468 324,-642 119,-174 232,-274 316,-341z"/>
  <path class="fil3" d="M8441 7057c38,22 80,56 94,110 14,54 -1,130 -73,185 -72,55 -202,91 -350,90 -148,-1 -316,-39 -500,-158 -184,-119 -385,-320 -641,-624 -256,-304 -568,-712 -912,-1166 -344,-454 -720,-954 -1018,-1323 -298,-369 -518,-607 -698,-765 -181,-158 -323,-235 -429,-316 -106,-81 -175,-164 -187,-224 -12,-60 33,-97 121,-80 88,17 220,87 361,176 141,89 290,196 449,328 159,132 329,287 487,444 158,157 305,315 473,502 168,187 357,402 512,578 155,175 276,311 405,454 129,144 266,296 422,469 155,173 329,367 488,537 159,170 304,316 436,430 132,113 252,193 326,239 74,46 102,58 133,69 30,11 63,22 101,44z"/>
  <path class="fil4" d="M4071 9856c36,2 77,5 108,8 31,3 51,7 56,50 5,43 -4,124 -10,176 -6,52 -10,74 -21,92 -11,18 -28,33 -70,37 -41,4 -107,-4 -147,-31 -40,-27 -55,-74 -65,-124 -11,-50 -17,-104 -19,-136 -2,-33 1,-45 14,-55 13,-9 36,-16 62,-18 26,-2 56,0 91,2z"/>
  <path class="fil5" d="M9524 7409c81,45 265,129 378,217 114,89 158,183 132,309 -26,127 -122,285 -464,440 -342,155 -930,305 -1297,389 -367,84 -513,100 -565,115 -51,15 -7,27 179,22 186,-5 514,-28 894,-91 380,-63 810,-165 1141,-256 330,-91 560,-170 703,-244 142,-73 197,-140 217,-221 21,-81 8,-175 -35,-255 -43,-81 -116,-147 -237,-205 -121,-58 -291,-106 -451,-147 -160,-42 -311,-77 -414,-98 -104,-21 -160,-27 -200,-27 -40,0 -63,6 18,51z"/>
  <path class="fil5" d="M3578 3200c-33,128 -113,364 -140,586 -27,222 -2,429 42,619 44,191 107,365 183,509 75,144 163,258 252,364 90,105 182,201 249,277 67,75 109,130 46,119 -63,-10 -230,-86 -423,-183 -193,-97 -413,-216 -557,-303 -144,-87 -213,-141 -254,-235 -41,-94 -53,-227 -52,-400 1,-174 15,-388 62,-581 47,-193 126,-364 217,-512 91,-147 193,-271 259,-338 66,-67 95,-77 116,-73 21,4 33,23 0,151z"/>
  <path class="fil4" d="M10467 9464c-14,34 -65,133 -156,214 -91,80 -223,141 -476,220 -253,78 -627,175 -884,229 -256,54 -394,67 -575,68 -181,1 -405,-9 -574,-32 -169,-23 -284,-59 -352,-99 -67,-40 -87,-85 -116,-128 -28,-43 -65,-86 -86,-110 -21,-24 -25,-30 19,-12 44,18 137,61 288,102 152,40 363,78 579,88 216,10 438,-6 696,-49 258,-43 553,-112 797,-184 244,-72 437,-147 563,-194 125,-46 183,-63 224,-88 41,-25 65,-57 51,-24z"/>
  <path class="fil2" d="M3963 5962c-98,-113 -324,-247 -496,-337 -171,-90 -289,-136 -297,-88 -8,48 92,190 186,401 94,211 182,491 263,874 82,383 157,868 203,1241 46,373 63,635 71,486 8,-148 8,-707 25,-1155 17,-449 50,-787 82,-1003 31,-215 61,-307 -38,-420z"/>
 </g>
</svg>
