<?xml version="1.0" encoding="UTF-8"?>
<!DOCTYPE svg PUBLIC "-//W3C//DTD SVG 1.1//EN" "http://www.w3.org/Graphics/SVG/1.1/DTD/svg11.dtd">
<!-- Creator: CorelDRAW 2017 -->
<svg xmlns="http://www.w3.org/2000/svg" xml:space="preserve" width="143mm" height="143mm" version="1.1" style="shape-rendering:geometricPrecision; text-rendering:geometricPrecision; image-rendering:optimizeQuality; fill-rule:evenodd; clip-rule:evenodd"
viewBox="0 0 14300 14300"
 xmlns:xlink="http://www.w3.org/1999/xlink">
 <defs>
  <style type="text/css">
   <![CDATA[
    .str0 {stroke:black;stroke-width:20}
    .fil3 {fill:black}
    .fil2 {fill:black}
    .fil1 {fill:#4D4D4D}
    .fil6 {fill:#999999}
    .fil0 {fill:#AD5240}
    .fil5 {fill:red}
    .fil4 {fill:white}
   ]]>
  </style>
 </defs>
 <g id="Слой_x0020_1">
  <metadata id="CorelCorpID_0Corel-Layer"/>
  <path class="fil0" d="M11519 6106c371,127 770,347 1089,588 319,241 559,502 665,925 106,423 78,1009 -176,1609 -254,600 -734,1214 -1475,1545 -741,332 -1743,381 -2533,339 -790,-42 -1369,-176 -1760,-289 -392,-113 -596,-205 -836,-173 -240,32 -515,187 -797,310 -282,123 -572,215 -896,272 -325,56 -684,78 -1143,71 -459,-7 -1016,-42 -1334,-120 -318,-78 -395,-198 -367,-314 28,-116 162,-229 152,-332 -11,-102 -166,-194 -321,-247 -155,-53 -310,-67 -420,-116 -109,-49 -173,-134 -152,-229 21,-95 127,-201 123,-370 -4,-169 -116,-402 -183,-533 -67,-131 -88,-159 162,-303 250,-145 773,-406 1090,-614 318,-208 430,-363 497,-501 67,-138 88,-258 173,-335 85,-78 233,-113 490,-141 258,-28 624,-49 1097,-70 473,-21 1052,-41 1539,-185 487,-145 881,-414 1290,-548 409,-135 832,-135 1203,-199 371,-64 688,-193 974,-243 285,-50 538,-20 836,12 298,32 641,67 1011,194z"/>
  <g id="_2208189699920">
   <path class="fil1" d="M7311 7000c159,111 427,339 559,477 132,138 128,186 79,254 -49,68 -142,155 -231,177 -89,22 -175,-21 -309,-123 -134,-103 -318,-265 -428,-368 -110,-103 -146,-146 -142,-207 4,-61 50,-139 92,-194 42,-55 81,-85 125,-103 45,-18 95,-23 254,88z"/>
   <path class="fil2" d="M8151 7509c172,119 470,352 834,635 363,282 791,614 1064,850 273,236 392,377 431,525 39,149 -2,305 -112,434 -110,129 -288,231 -448,215 -160,-15 -302,-148 -612,-437 -310,-289 -788,-735 -1114,-1051 -326,-316 -500,-502 -595,-627 -95,-125 -110,-189 -83,-279 27,-89 96,-204 166,-274 69,-70 139,-95 196,-105 57,-10 103,-6 275,113z"/>
   <path class="fil3" d="M5468 3646c1147,-114 2166,687 2276,1790 110,1103 -731,2090 -1878,2204 -1147,114 -2166,-687 -2276,-1790 -110,-1103 731,-2090 1878,-2204zm1215 835c-312,-245 -725,-375 -1165,-331 -440,44 -819,253 -1076,555 -253,297 -389,686 -348,1095 41,410 251,764 558,1005 312,245 725,375 1165,331 440,-44 819,-253 1076,-555 253,-297 389,-686 348,-1095 -41,-410 -251,-764 -558,-1005z"/>
   <path class="fil4" d="M6682 4482c-312,-245 -725,-375 -1165,-331 -440,44 -819,253 -1076,555 -253,297 -389,686 -348,1095 41,410 251,764 558,1005 312,245 725,375 1165,331 440,-44 819,-253 1076,-555 253,-297 389,-686 348,-1095 -41,-410 -251,-764 -558,-1005z"/>
   <path class="fil5" d="M5959 4545c16,81 2,241 1,367 -1,126 11,219 36,267 26,48 65,51 112,54 47,4 103,8 183,7 80,0 185,-5 255,-7 70,-2 107,0 127,21 20,20 24,59 31,171 7,113 17,300 14,403 -4,103 -21,121 -93,132 -72,11 -199,16 -315,18 -116,2 -221,1 -272,23 -50,22 -46,65 -44,155 2,90 2,225 4,307 3,81 8,109 -27,129 -35,20 -112,33 -233,37 -121,4 -288,-2 -370,-36 -82,-35 -80,-99 -76,-179 4,-81 11,-178 16,-258 5,-79 7,-140 -11,-166 -18,-26 -56,-17 -153,-21 -97,-4 -254,-22 -360,-28 -106,-6 -161,-1 -189,-49 -28,-48 -30,-151 -26,-264 4,-114 13,-239 37,-304 24,-65 62,-68 145,-68 83,0 211,4 311,6 100,3 172,4 206,-7 34,-10 29,-32 25,-126 -4,-94 -7,-259 -7,-373 0,-113 2,-175 12,-214 10,-40 27,-58 120,-69 93,-11 262,-14 370,-13 108,0 155,4 172,85z"/>
   <path class="fil6" d="M9384 8826c300,324 547,648 696,795 150,147 202,118 239,83 37,-34 60,-74 58,-134 -2,-60 -28,-140 -106,-243 -79,-103 -210,-229 -454,-434 -244,-205 -600,-489 -848,-683 -249,-194 -390,-296 -532,-402 -142,-105 -285,-213 -295,-207 -10,7 113,128 351,351 238,223 591,549 891,873z"/>
   <path class="fil6 str0" d="M6843 4118c-75,-20 -333,-143 -583,-212 -250,-69 -493,-85 -712,-72 -219,13 -414,55 -598,128 -184,73 -357,176 -509,307 -151,131 -281,289 -375,450 -94,161 -153,325 -197,510 -44,185 -73,390 -77,553 -4,163 16,284 44,412 28,128 64,263 92,359 28,95 48,151 37,150 -10,-1 -51,-57 -97,-147 -46,-90 -96,-212 -133,-343 -37,-130 -60,-268 -71,-405 -10,-137 -8,-273 9,-406 17,-133 49,-264 97,-394 48,-130 114,-259 189,-379 75,-119 160,-228 252,-325 92,-97 190,-182 305,-259 114,-77 245,-146 374,-199 130,-54 258,-92 393,-116 135,-24 276,-33 413,-30 137,3 269,19 387,44 117,26 220,62 321,102 101,40 199,85 303,148 104,63 212,145 138,124z"/>
  </g>
  <g id="_2208189698256">
   <path class="fil4" d="M11317 5769c45,18 118,64 170,94 51,29 81,42 65,75 -16,33 -76,86 -123,148 -47,62 -80,131 -101,217 -21,85 -30,186 -40,277 -10,91 -21,172 -42,191 -21,19 -52,-23 -124,-98 -72,-75 -184,-184 -281,-263 -97,-79 -180,-129 -229,-155 -49,-27 -63,-30 -96,-8 -32,22 -82,70 -166,150 -84,81 -201,195 -279,274 -78,79 -117,123 -144,124 -28,1 -44,-41 -76,-142 -32,-101 -80,-261 -122,-378 -42,-118 -79,-193 -114,-243 -35,-51 -68,-76 -73,-107 -6,-30 17,-65 59,-104 42,-39 105,-81 152,-91 47,-10 78,12 181,79 103,67 277,179 393,238 116,59 173,64 246,62 73,-2 163,-11 248,-41 85,-30 164,-82 219,-119 55,-37 86,-59 116,-86 29,-28 57,-61 79,-82 22,-21 39,-30 84,-12z"/>
   <path class="fil2" d="M11632 4353c10,215 -16,491 -48,724 -32,233 -71,424 -183,611 -112,186 -298,368 -464,479 -166,111 -313,152 -479,122 -166,-29 -352,-129 -501,-234 -149,-106 -261,-218 -344,-375 -84,-157 -139,-359 -175,-567 -37,-208 -55,-421 -55,-614 0,-194 18,-368 78,-507 60,-139 161,-242 334,-322 174,-81 420,-140 649,-162 230,-22 443,-7 621,52 178,60 321,164 416,294 95,130 141,284 151,499z"/>
   <path class="fil2" d="M11828 4460c66,-38 171,-113 244,-183 73,-69 113,-132 125,-167 12,-36 -5,-45 -48,-136 -43,-91 -113,-264 -154,-379 -41,-116 -54,-175 -64,-209 -10,-34 -17,-43 -39,-51 -22,-7 -59,-13 -197,-59 -139,-46 -379,-132 -576,-210 -197,-78 -349,-148 -433,-191 -84,-43 -98,-60 -117,-64 -18,-5 -40,3 -185,67 -144,64 -411,186 -597,270 -186,85 -293,132 -367,163 -74,30 -117,43 -144,52 -28,9 -40,15 -50,28 -9,14 -15,36 -42,125 -28,89 -77,245 -126,354 -49,108 -96,169 -126,204 -29,35 -40,44 -41,57 -1,13 8,29 78,90 70,61 201,166 273,227 73,61 87,77 114,65 27,-12 66,-51 139,-105 73,-54 181,-123 344,-175 162,-52 379,-87 615,-94 236,-7 491,13 684,53 193,40 323,101 408,155 85,54 124,102 156,126 33,24 60,24 126,-14z"/>
   <path class="fil4" d="M11708 4497c-58,-21 -137,-85 -303,-141 -166,-56 -420,-104 -619,-130 -199,-27 -344,-32 -510,-18 -165,14 -351,47 -492,92 -141,45 -239,102 -298,149 -59,47 -81,84 -105,95 -24,11 -50,-4 -68,-27 -18,-23 -27,-54 -11,-101 16,-47 56,-110 136,-173 80,-63 199,-127 366,-178 166,-50 379,-87 570,-102 191,-15 360,-7 551,24 191,31 404,86 537,136 133,50 186,94 229,139 42,45 73,91 96,127 23,36 38,62 27,85 -11,24 -48,46 -106,25z"/>
   <path class="fil4" d="M10820 3191c-10,-5 -34,10 -70,12 -36,2 -83,-10 -117,-30 -34,-21 -55,-50 -67,-72 -12,-22 -16,-36 -26,-29 -11,7 -28,35 -50,57 -22,22 -49,38 -74,47 -25,10 -48,13 -69,11 -21,-2 -40,-9 -53,-14 -12,-5 -18,-9 -18,13 -1,22 3,69 11,122 8,53 20,110 42,161 21,51 52,96 83,126 31,30 63,46 94,55 31,9 62,11 96,0 35,-11 73,-35 106,-75 33,-41 60,-98 78,-156 18,-58 27,-116 34,-157 7,-41 12,-66 3,-70z"/>
  </g>
  <path class="fil2" d="M6044 11339c9,-155 9,-439 -25,-616 -34,-178 -103,-249 -231,-337 -128,-88 -316,-192 -439,-283 -122,-91 -179,-169 -209,-233 -30,-64 -33,-115 -15,-169 18,-54 57,-110 97,-164 40,-54 82,-104 119,-179 37,-75 70,-173 88,-282 18,-109 21,-228 2,-354 -19,-125 -61,-257 -118,-358 -57,-101 -128,-173 -224,-219 -95,-46 -215,-67 -322,-70 -107,-3 -203,12 -282,49 -79,37 -142,97 -194,204 -52,107 -94,263 -113,401 -19,139 -16,261 1,361 18,100 51,178 91,251 40,73 88,142 130,194 42,52 78,88 97,140 19,52 22,121 2,189 -21,69 -66,137 -148,206 -82,69 -201,137 -313,195 -112,58 -216,106 -283,152 -67,46 -97,91 -125,154 -28,63 -55,143 -67,251 -12,107 -9,242 -3,358 6,116 15,215 30,277 15,63 36,90 179,112 143,22 409,40 752,51 343,10 764,13 1014,7 251,-6 331,-21 380,-36 49,-15 67,-30 85,-51 18,-21 36,-48 45,-203z"/>
  <path class="fil2" d="M5837 11113c-8,-131 -8,-370 21,-519 29,-150 87,-210 195,-284 108,-74 266,-162 370,-239 103,-77 151,-142 176,-196 25,-54 28,-97 13,-142 -15,-45 -48,-93 -82,-138 -34,-45 -69,-88 -101,-151 -31,-63 -59,-146 -74,-238 -15,-92 -18,-192 -1,-298 16,-106 52,-216 99,-302 48,-85 108,-146 189,-185 80,-39 181,-57 272,-59 91,-3 171,10 238,41 67,31 119,82 163,172 44,90 79,221 96,338 16,117 14,220 -1,304 -15,84 -43,150 -77,211 -34,62 -74,119 -109,163 -35,44 -65,74 -82,118 -16,44 -19,102 -1,160 18,58 55,116 124,173 69,58 170,116 264,165 94,49 182,89 239,128 57,39 82,77 106,129 24,53 47,121 57,211 10,91 8,204 2,302 -5,98 -13,181 -25,234 -13,53 -30,75 -151,94 -121,19 -344,34 -633,43 -289,9 -644,11 -855,6 -211,-5 -279,-18 -321,-30 -41,-13 -57,-25 -72,-43 -15,-18 -30,-40 -38,-171z"/>
  <path class="fil2" d="M1642 11101c-8,-131 -8,-370 21,-519 29,-150 87,-210 195,-284 108,-74 266,-162 370,-239 103,-77 151,-142 176,-196 25,-54 28,-97 13,-142 -15,-45 -48,-93 -82,-138 -34,-45 -69,-88 -101,-151 -31,-63 -59,-146 -74,-238 -15,-92 -18,-192 -1,-298 16,-106 52,-216 99,-302 48,-85 108,-146 189,-185 80,-39 181,-57 272,-59 90,-3 171,10 238,41 67,31 119,82 163,172 44,90 79,221 96,338 16,117 14,220 -1,304 -15,84 -43,150 -77,211 -34,62 -74,119 -109,163 -35,44 -65,74 -82,118 -16,44 -19,102 -1,160 18,58 55,116 124,173 69,58 170,116 264,165 94,49 182,89 239,128 57,39 82,77 106,129 24,53 47,121 57,211 10,90 8,204 2,302 -5,98 -13,181 -25,234 -13,53 -30,75 -151,94 -121,19 -344,34 -633,43 -289,9 -644,11 -855,6 -211,-5 -279,-18 -321,-30 -41,-13 -57,-25 -72,-43 -15,-18 -30,-40 -38,-171z"/>
  <path class="fil2" d="M5397 8780c17,-55 41,-100 62,-107 22,-7 41,25 50,91 9,66 7,167 0,235 -7,69 -19,106 -41,124 -22,19 -52,19 -72,-11 -19,-30 -27,-89 -26,-151 1,-62 11,-127 27,-183z"/>
  <path class="fil2" d="M4237 8767c-9,-46 -28,-80 -48,-102 -20,-22 -42,-30 -62,-2 -20,28 -39,94 -43,169 -4,75 7,161 15,211 9,50 16,64 34,66 19,2 49,-8 69,-41 20,-33 31,-88 37,-143 6,-56 7,-112 -2,-158z"/>
  <path class="fil2" d="M3182 8900c14,-55 34,-100 51,-107 18,-7 34,25 41,91 7,66 6,167 0,235 -6,69 -16,106 -34,124 -18,19 -43,19 -59,-11 -16,-30 -23,-89 -22,-151 1,-62 9,-127 23,-183z"/>
  <path class="fil2" d="M2224 8887c-7,-46 -23,-80 -40,-102 -17,-22 -35,-30 -52,-2 -17,28 -32,94 -35,169 -3,75 5,161 13,211 7,50 13,64 28,66 15,2 40,-8 57,-41 17,-33 26,-88 30,-143 5,-56 5,-112 -2,-158z"/>
  <path class="fil2" d="M7373 8932c14,-55 34,-100 51,-107 18,-7 34,25 41,91 7,66 6,167 0,235 -6,69 -16,106 -34,124 -18,19 -43,19 -59,-11 -16,-30 -23,-89 -22,-151 1,-62 9,-127 23,-183z"/>
  <path class="fil2" d="M6415 8919c-7,-46 -23,-80 -40,-102 -17,-22 -35,-30 -52,-2 -17,28 -32,94 -35,169 -3,75 5,161 13,211 7,50 13,64 28,66 15,2 40,-8 57,-41 17,-33 26,-88 30,-143 5,-56 5,-112 -2,-158z"/>
 </g>
</svg>
