<?xml version="1.0" encoding="UTF-8"?>
<!DOCTYPE svg PUBLIC "-//W3C//DTD SVG 1.1//EN" "http://www.w3.org/Graphics/SVG/1.1/DTD/svg11.dtd">
<!-- Creator: CorelDRAW 2017 -->
<svg xmlns="http://www.w3.org/2000/svg" xml:space="preserve" width="143mm" height="143mm" version="1.1" style="shape-rendering:geometricPrecision; text-rendering:geometricPrecision; image-rendering:optimizeQuality; fill-rule:evenodd; clip-rule:evenodd"
viewBox="0 0 14300 14300"
 xmlns:xlink="http://www.w3.org/1999/xlink">
 <defs>
  <style type="text/css">
   <![CDATA[
    .fil1 {fill:none}
    .fil0 {fill:black}
    .fil3 {fill:black}
    .fil7 {fill:#396912}
    .fil4 {fill:#4D4D4D}
    .fil6 {fill:#5B962C}
    .fil5 {fill:gray}
    .fil8 {fill:#A5D673}
    .fil2 {fill:white}
   ]]>
  </style>
 </defs>
 <g id="Слой_x0020_1">
  <metadata id="CorelCorpID_0Corel-Layer"/>
  <g id="_2907364122048">
   <path class="fil0" d="M10854 5319c-342,-1000 -1581,-3091 -2524,-3477 -241,-99 -1605,-112 -1271,484 468,836 1294,1304 1405,2143 11,110 -70,208 -180,218 -110,11 -208,-70 -218,-180 -70,-820 -1678,-1998 -1243,-2579 360,-481 1083,-261 1507,-87 1396,571 2358,1971 2903,3350 35,105 -21,218 -126,253 -105,35 -218,-21 -253,-126z"/>
  </g>
  <path class="fil1" d="M11044 5255c-80,-236 -159,-473 -406,-909 -247,-436 -661,-1072 -1067,-1538 -406,-466 -803,-762 -1135,-924 -332,-162 -600,-189 -843,-165 -243,24 -462,101 -593,199 -131,98 -175,218 -59,464 116,246 392,620 632,920 241,300 446,528 555,714 110,186 123,329 137,473"/>
  <g id="_2907364122080">
   <path class="fil0" d="M3770 7862c-576,-898 -596,-1457 -927,-2016 -385,-649 -927,459 -886,869 76,759 1001,2445 1623,3023l382 320c84,71 95,198 23,282 -71,84 -198,95 -282,23 -898,-832 -1739,-2166 -1776,-3430l29 -217 -32 -92c-155,-751 542,-1548 1019,-1075 261,258 679,1422 1152,2084 63,90 42,215 -49,279 -90,63 -215,42 -279,-49z"/>
  </g>
  <path class="fil1" d="M3933 7747c-175,-249 -350,-498 -494,-816 -144,-318 -258,-705 -384,-976 -126,-271 -265,-427 -441,-427 -176,1 -388,158 -521,400 -133,242 -185,569 -116,997 69,428 261,957 463,1412 201,456 413,838 647,1138 234,300 490,517 747,735"/>
  <path class="fil2" d="M1556 8866c8,-33 0,-98 -8,-141 -8,-43 -16,-63 -32,-77 -16,-13 -40,-20 -59,-12 -19,7 -34,28 -40,58 -6,30 -3,70 4,105 7,36 17,67 31,84 13,17 30,18 51,18 21,0 46,-2 54,-35z"/>
  <path class="fil2" d="M1816 8838c9,-37 0,-108 -9,-155 -9,-47 -17,-70 -35,-84 -17,-15 -44,-21 -65,-14 -21,8 -38,31 -44,64 -6,33 -3,77 4,116 7,39 19,74 34,92 15,18 33,20 56,20 23,0 51,-2 60,-39z"/>
  <path class="fil3" d="M9763 5751c138,-110 456,-226 738,-388 282,-162 527,-369 764,-632 237,-264 466,-584 589,-882 123,-298 140,-572 167,-752 27,-179 64,-263 106,-300 42,-37 89,-28 158,-4 68,23 157,61 204,99 46,38 50,75 35,225 -14,149 -47,411 -142,725 -95,314 -253,682 -496,1053 -243,372 -571,747 -879,1002 -308,254 -598,387 -771,467 -174,79 -231,105 -299,47 -68,-58 -146,-200 -207,-323 -61,-123 -104,-227 34,-337z"/>
  <path class="fil3" d="M5099 9519c-149,35 -359,230 -609,350 -250,121 -542,167 -861,171 -319,4 -665,-34 -911,-138 -246,-105 -391,-276 -507,-454 -116,-178 -202,-364 -249,-485 -47,-121 -53,-176 -85,-204 -32,-29 -89,-31 -185,-25 -96,6 -232,19 -284,96 -52,77 -19,219 83,458 102,239 274,577 478,839 205,262 442,448 711,563 269,115 569,158 881,164 312,6 636,-24 918,-106 282,-82 523,-215 707,-344 184,-128 312,-252 343,-363 31,-111 -34,-210 -112,-321 -78,-112 -168,-236 -317,-201z"/>
  <path class="fil3" d="M8756 5786c-319,261 -817,671 -1131,912 -314,241 -443,314 -589,420 -146,106 -308,246 -743,551 -435,305 -1143,777 -1425,1133 -282,357 -138,598 -1,811 137,212 266,395 405,475 139,80 288,57 499,-29 212,-86 486,-235 708,-439 222,-204 391,-464 571,-697 180,-233 370,-439 592,-607 221,-169 473,-301 697,-413 224,-113 419,-206 616,-288 197,-82 395,-153 577,-299 183,-147 350,-370 458,-555 108,-185 156,-333 123,-488 -33,-155 -148,-316 -288,-479 -139,-163 -303,-327 -456,-354 -152,-26 -293,86 -613,348z"/>
  <path class="fil2" d="M8438 4114c-10,-52 -46,-122 -117,-140 -71,-18 -175,15 -247,72 -72,58 -110,140 -117,194 -7,54 17,80 -5,92 -21,12 -87,10 -141,9 -54,-1 -96,-1 -139,27 -42,28 -84,83 -100,139 -16,56 -5,113 20,158 25,45 63,78 56,91 -7,13 -61,6 -107,1 -47,-5 -87,-6 -120,7 -33,14 -59,43 -83,85 -25,42 -49,97 -50,146 -2,49 18,91 45,121 27,30 60,49 63,60 4,11 -22,15 -61,29 -39,15 -90,40 -138,69 -48,28 -92,60 -122,108 -30,49 -47,115 -28,172 18,57 72,105 109,131 38,27 60,32 45,42 -15,10 -66,25 -120,50 -54,25 -111,60 -145,102 -34,42 -45,92 -42,138 3,46 19,88 40,118 21,30 47,49 74,63 28,15 57,26 53,35 -4,9 -40,17 -72,30 -32,14 -60,34 -87,64 -28,30 -55,71 -64,108 -9,38 0,72 22,105 22,32 57,61 84,81 28,20 48,30 28,46 -19,17 -78,40 -123,66 -45,26 -76,56 -88,100 -12,44 -5,103 14,142 18,39 48,60 96,78 48,19 116,35 177,46 61,11 117,16 142,-22 25,-38 20,-119 42,-292 22,-173 72,-439 164,-741 93,-302 228,-639 340,-872 112,-233 200,-361 287,-480 87,-118 173,-227 238,-301 65,-74 108,-114 138,-152 30,-38 48,-73 38,-125z"/>
  <path class="fil3" d="M8423 4049c-177,125 -484,409 -734,857 -250,448 -444,1059 -546,1476 -102,418 -112,642 -77,784 35,142 116,201 272,261 156,60 388,119 619,125 231,5 460,-44 683,-128 223,-84 439,-204 607,-337 168,-133 288,-280 380,-423 92,-143 157,-283 198,-418 41,-134 58,-264 25,-452 -33,-189 -117,-437 -247,-683 -130,-246 -305,-490 -465,-675 -159,-186 -302,-313 -397,-395 -95,-81 -141,-116 -318,9z"/>
  <path class="fil2" d="M3686 7688c-44,-23 -97,-76 -93,-144 3,-69 62,-153 134,-201 72,-48 157,-59 207,-51 51,9 67,37 84,22 17,-16 34,-75 48,-124 14,-49 26,-87 63,-117 37,-30 98,-53 152,-51 55,2 102,28 136,62 33,35 52,79 66,76 14,-3 22,-53 31,-96 9,-43 19,-80 40,-106 22,-26 55,-41 100,-51 45,-10 101,-16 145,-4 44,12 76,42 96,74 20,32 27,67 36,74 9,6 19,-16 43,-46 24,-30 61,-69 100,-104 39,-35 79,-66 131,-79 52,-14 116,-10 162,23 46,32 74,94 87,135 13,41 12,62 25,52 13,-10 41,-52 78,-94 37,-42 85,-83 132,-101 47,-19 95,-15 135,1 40,15 74,42 95,69 21,27 30,56 36,84 5,29 7,58 16,58 9,-1 26,-32 47,-56 21,-25 47,-44 82,-60 35,-16 79,-30 115,-27 36,2 65,20 88,49 23,29 39,68 49,98 10,30 13,51 34,38 20,-13 57,-59 109,-78 52,-19 118,-11 164,24 47,35 74,96 86,142 13,46 11,77 5,118 -6,41 -17,92 -58,104 -41,12 -112,-16 -273,-45 -162,-29 -414,-59 -711,-61 -297,-2 -638,25 -878,60 -240,35 -380,78 -511,123 -131,45 -252,92 -337,129 -85,37 -133,65 -175,81 -42,17 -79,22 -123,-1z"/>
  <path class="fil3" d="M6845 7381c-136,-93 -369,-187 -691,-239 -322,-52 -732,-61 -1108,-6 -376,55 -718,175 -971,285 -253,110 -418,211 -513,285 -94,74 -118,123 -97,253 21,130 87,342 210,585 123,244 303,519 493,729 190,210 391,354 628,427 237,73 511,76 750,32 239,-44 442,-133 661,-272 219,-139 453,-328 611,-546 158,-219 240,-468 268,-682 28,-215 0,-396 -33,-531 -33,-136 -72,-227 -208,-319z"/>
  <path class="fil4" d="M6510 9167c-137,65 -319,108 -537,23 -218,-85 -472,-300 -699,-522 -227,-222 -428,-452 -575,-684 -147,-232 -240,-465 -253,-593 -13,-128 55,-150 182,-181 127,-31 313,-71 504,-95 191,-24 386,-33 574,-28 187,5 366,23 526,53 160,30 301,71 403,109 102,37 165,71 219,110 55,40 101,85 142,147 41,62 77,140 94,259 17,119 15,279 -1,419 -16,140 -47,259 -93,380 -46,121 -106,244 -182,348 -76,104 -167,190 -304,254z"/>
  <path class="fil4" d="M7680 4897c47,-44 104,-61 178,-47 75,14 167,59 277,163 110,103 239,265 394,487 156,222 339,506 444,726 105,221 133,379 132,523 -1,144 -30,275 -75,365 -45,90 -106,141 -217,198 -112,57 -274,120 -411,161 -136,41 -246,59 -365,64 -119,5 -247,-3 -371,-23 -125,-20 -246,-53 -336,-85 -90,-32 -148,-63 -190,-98 -43,-35 -70,-73 -89,-124 -19,-50 -31,-112 -32,-197 -1,-85 8,-194 36,-349 28,-155 76,-357 139,-575 64,-218 144,-453 207,-623 63,-170 110,-275 152,-363 42,-88 80,-159 127,-203z"/>
  <path class="fil4" d="M12102 2831c-11,19 -26,50 -39,86 -13,36 -23,77 -30,107 -7,31 -10,52 19,74 29,22 92,45 167,73 75,28 163,60 213,76 50,16 62,14 73,-12 11,-26 21,-77 27,-129 6,-52 10,-104 2,-142 -8,-38 -26,-63 -65,-88 -39,-25 -98,-49 -146,-66 -48,-17 -84,-27 -109,-32 -25,-4 -40,-3 -53,1 -13,4 -24,11 -33,18 -9,7 -15,14 -26,33z"/>
  <path class="fil4" d="M7471 7598c122,52 320,165 507,281 186,115 361,232 471,302 110,70 154,93 160,113 6,20 -27,35 -93,53 -66,17 -166,36 -262,4 -96,-32 -188,-116 -293,-206 -105,-90 -221,-187 -293,-244 -72,-57 -99,-74 -131,-67 -32,6 -68,36 -78,67 -10,31 7,62 49,173 41,111 107,300 191,516 84,216 185,459 219,571 34,112 1,92 -61,66 -63,-26 -155,-57 -208,-77 -54,-20 -69,-28 -108,-148 -40,-120 -104,-352 -154,-542 -50,-190 -87,-340 -116,-453 -29,-114 -50,-193 -60,-251 -10,-58 -10,-96 -1,-123 9,-28 28,-45 61,-60 33,-14 80,-25 202,26z"/>
  <path class="fil5" d="M7183 7563c30,-32 72,-62 108,-77 37,-15 69,-14 102,9 34,23 69,69 114,129 45,60 99,135 114,194 15,59 -9,102 -42,135 -33,33 -76,56 -134,44 -58,-11 -131,-57 -184,-105 -52,-48 -84,-99 -105,-138 -21,-39 -32,-66 -27,-96 4,-30 24,-64 54,-96z"/>
  <g id="_2907364096864">
   <path class="fil6" d="M12433 10479c-372,66 -1078,184 -1630,279 -551,94 -947,164 -1229,216 -283,51 -452,84 -569,99 -116,15 -180,14 -215,-15 -35,-29 -42,-86 -79,-365 -37,-279 -104,-781 -126,-1041 -21,-260 4,-279 336,-348 332,-70 971,-190 1570,-291 599,-100 1158,-181 1490,-234 332,-53 438,-80 515,-81 77,-1 125,24 155,102 30,78 43,209 79,454 36,245 94,604 123,812 28,208 27,264 7,299 -19,35 -56,50 -428,116z"/>
   <path class="fil7" d="M12282 10338c-7,-20 -7,-62 3,-109 9,-47 27,-100 52,-144 25,-45 57,-82 91,-110 34,-28 72,-47 105,-61 34,-13 65,-21 85,-5 20,16 29,57 36,112 7,54 12,123 12,167 1,45 -3,66 -13,82 -11,16 -29,26 -79,39 -49,13 -130,28 -177,36 -48,8 -62,9 -77,11 -15,1 -30,3 -37,-17z"/>
   <path class="fil7" d="M12114 8947c5,26 24,75 52,116 28,40 65,72 119,97 54,26 124,45 168,49 44,4 62,-8 68,-31 6,-23 0,-59 -7,-97 -7,-39 -17,-81 -28,-110 -12,-30 -26,-47 -55,-58 -30,-11 -75,-16 -122,-14 -47,2 -96,9 -126,13 -30,4 -42,5 -53,6 -10,1 -19,4 -15,29z"/>
   <path class="fil7" d="M10783 10465c-54,4 -109,1 -171,-14 -62,-15 -132,-41 -197,-84 -64,-42 -123,-100 -168,-160 -45,-60 -77,-122 -96,-185 -19,-64 -25,-129 -21,-200 4,-70 20,-146 51,-212 31,-66 79,-123 137,-172 58,-49 126,-91 190,-118 64,-27 122,-40 193,-44 71,-4 155,2 233,27 78,25 149,69 213,131 64,61 119,140 154,217 35,77 49,154 47,235 -2,81 -21,167 -59,245 -38,78 -94,149 -154,199 -60,50 -125,80 -184,101 -59,20 -113,30 -167,34z"/>
   <path class="fil8" d="M10762 10315c-21,-8 -58,-8 -88,-12 -30,-4 -52,-11 -62,-25 -10,-15 -8,-37 -7,-61 2,-25 3,-52 15,-60 12,-9 34,2 59,6 25,4 52,3 80,-1 28,-4 56,-11 77,-21 21,-10 35,-24 39,-42 4,-18 -3,-40 -17,-58 -14,-18 -36,-32 -68,-40 -32,-7 -74,-7 -112,-11 -37,-4 -69,-13 -98,-26 -28,-13 -53,-29 -75,-52 -22,-23 -42,-52 -54,-80 -12,-28 -18,-54 -18,-82 0,-27 4,-55 16,-83 12,-28 32,-57 58,-80 26,-23 58,-40 75,-53 17,-13 19,-22 18,-31 -1,-10 -4,-20 -8,-34 -3,-14 -7,-32 -8,-47 -1,-15 0,-26 13,-36 13,-9 38,-17 56,-11 18,5 28,24 34,41 6,17 7,33 11,46 5,12 13,21 25,24 12,3 28,1 55,1 27,0 66,1 93,3 27,2 44,5 50,19 6,14 3,38 1,59 -3,21 -5,38 -6,52 -1,14 -2,24 -18,24 -16,0 -47,-10 -75,-14 -28,-4 -52,-2 -76,1 -24,3 -48,8 -68,19 -20,11 -38,29 -45,48 -7,19 -4,40 19,60 23,20 67,39 111,54 43,14 86,23 115,33 30,10 47,20 66,38 19,18 40,44 54,69 14,25 23,50 28,76 5,26 7,52 7,76 -1,24 -5,47 -19,71 -15,24 -41,49 -62,65 -21,16 -36,24 -46,31 -10,7 -13,13 -14,29 -1,16 2,42 -1,61 -2,18 -9,28 -24,36 -15,8 -37,13 -52,15 -15,2 -23,-1 -26,-11 -3,-10 -1,-28 -3,-45 -1,-17 -6,-32 -27,-40z"/>
   <path class="fil7" d="M12519 9379c28,190 73,469 95,630 22,161 21,205 6,232 -15,27 -43,39 -371,93 -328,54 -955,151 -1422,227 -467,76 -774,130 -1027,176 -253,45 -452,82 -576,99 -124,18 -173,16 -201,-6 -27,-23 -33,-67 -62,-283 -29,-217 -81,-606 -97,-808 -16,-202 3,-216 295,-276 292,-60 855,-165 1354,-248 499,-84 933,-146 1230,-190 297,-44 458,-70 557,-74 99,-4 136,16 160,76 24,60 33,162 61,352zm-3580 1537c31,25 86,27 205,11 119,-16 302,-48 565,-95 263,-47 606,-108 1106,-191 500,-83 1157,-188 1502,-246 344,-59 376,-71 393,-102 17,-31 18,-79 -6,-259 -25,-180 -75,-492 -106,-704 -31,-213 -42,-326 -68,-394 -26,-68 -68,-89 -157,-87 -89,2 -224,27 -535,75 -310,47 -795,117 -1332,207 -538,89 -1128,199 -1434,262 -306,63 -328,79 -310,304 18,226 77,661 109,903 32,242 38,291 69,317z"/>
   <path class="fil7" d="M9373 10837c1,-21 -11,-61 -34,-104 -22,-43 -54,-88 -91,-124 -37,-36 -78,-62 -119,-79 -41,-17 -82,-25 -118,-28 -36,-3 -68,-2 -83,20 -15,21 -12,63 -3,117 9,54 24,121 36,164 12,43 21,62 36,74 15,12 36,16 87,15 51,-2 132,-10 180,-16 48,-6 62,-9 77,-12 15,-3 29,-6 31,-27z"/>
   <path class="fil7" d="M9160 9464c2,26 -5,79 -22,125 -17,46 -46,85 -92,123 -46,38 -109,74 -150,89 -42,15 -62,8 -74,-14 -12,-21 -14,-57 -17,-96 -2,-39 -4,-82 0,-114 4,-32 13,-52 39,-70 26,-18 69,-33 115,-43 46,-10 95,-14 125,-18 30,-3 42,-6 52,-7 10,-1 20,-1 21,25z"/>
  </g>
  <g id="_2907364088192">
   <path class="fil6" d="M11171 12627c-329,-185 -950,-542 -1436,-819 -486,-277 -836,-474 -1087,-614 -251,-140 -402,-222 -502,-285 -100,-62 -148,-103 -156,-148 -9,-45 22,-93 170,-332 149,-239 415,-670 564,-884 149,-214 180,-213 481,-56 301,157 871,469 1398,772 527,303 1009,595 1300,765 291,170 389,216 449,264 60,48 82,98 56,177 -26,79 -99,189 -227,401 -128,212 -311,527 -421,705 -110,178 -147,221 -184,236 -37,15 -75,3 -404,-182z"/>
   <path class="fil7" d="M11145 12423c7,-20 34,-52 71,-83 37,-31 84,-60 132,-79 48,-19 96,-27 140,-27 44,0 85,9 120,20 35,11 64,25 69,50 5,25 -14,63 -43,109 -29,46 -69,102 -97,137 -28,35 -44,49 -62,54 -18,5 -39,1 -86,-20 -46,-21 -118,-60 -160,-84 -42,-24 -54,-33 -66,-41 -12,-8 -25,-17 -18,-37z"/>
   <path class="fil7" d="M11897 11241c-13,23 -30,73 -34,122 -4,49 5,97 30,150 25,54 67,114 98,145 31,31 53,33 72,19 20,-14 37,-45 56,-80 19,-35 39,-73 48,-103 10,-30 10,-53 -6,-80 -16,-27 -48,-60 -86,-88 -37,-29 -80,-53 -106,-70 -26,-16 -35,-23 -44,-29 -9,-6 -17,-10 -30,13z"/>
   <path class="fil7" d="M9905 11569c-44,-32 -84,-69 -123,-119 -39,-51 -76,-116 -99,-190 -23,-74 -31,-156 -28,-231 3,-75 18,-143 43,-204 26,-61 62,-116 111,-168 48,-52 108,-100 174,-131 66,-31 139,-45 215,-46 76,-1 155,10 222,30 66,19 120,47 177,89 57,42 118,100 163,168 44,69 71,148 81,236 10,88 3,184 -19,266 -22,82 -60,150 -113,211 -53,61 -122,115 -201,152 -79,36 -167,55 -245,56 -79,1 -147,-17 -206,-39 -59,-22 -107,-48 -151,-80z"/>
   <path class="fil8" d="M9985 11440c-11,-19 -40,-43 -61,-65 -21,-22 -34,-41 -32,-59 1,-18 17,-34 34,-52 17,-18 36,-38 50,-37 15,1 25,23 42,42 16,19 39,35 63,50 24,14 50,27 73,33 23,5 43,4 57,-8 14,-11 23,-33 24,-56 1,-23 -7,-48 -28,-74 -20,-26 -53,-53 -79,-80 -26,-27 -45,-54 -59,-82 -14,-28 -22,-56 -25,-88 -3,-32 1,-67 9,-96 8,-29 21,-53 38,-75 17,-21 38,-40 66,-54 27,-14 61,-24 95,-25 34,-1 70,6 91,7 21,1 28,-5 34,-13 5,-8 9,-18 16,-31 6,-13 15,-29 24,-41 9,-12 17,-20 33,-19 16,1 40,12 50,27 10,16 7,36 1,53 -6,17 -16,30 -20,42 -4,12 -3,24 4,34 7,10 21,19 42,36 21,17 50,42 70,61 20,19 30,32 26,47 -4,15 -22,32 -37,46 -15,14 -28,26 -37,36 -10,10 -17,18 -29,8 -12,-10 -30,-37 -49,-58 -19,-21 -39,-35 -59,-48 -21,-13 -42,-24 -65,-28 -23,-4 -48,-2 -65,9 -18,10 -29,28 -23,59 5,30 27,73 51,111 24,38 51,73 68,99 17,26 23,45 26,71 3,26 3,59 -2,88 -5,29 -14,53 -27,76 -12,23 -27,45 -43,63 -16,18 -33,33 -60,42 -27,9 -62,12 -89,11 -26,0 -44,-4 -55,-5 -12,-1 -19,2 -29,14 -11,12 -26,34 -39,46 -13,13 -25,16 -41,12 -16,-3 -37,-13 -50,-22 -13,-8 -17,-15 -13,-25 4,-10 17,-22 26,-36 9,-14 15,-29 4,-48z"/>
   <path class="fil7" d="M11937 11832c-99,165 -241,409 -327,547 -85,139 -114,171 -143,183 -29,12 -58,2 -346,-164 -288,-166 -834,-489 -1243,-727 -409,-238 -681,-391 -905,-516 -224,-126 -401,-224 -508,-289 -107,-65 -144,-97 -151,-132 -7,-35 17,-72 132,-258 115,-186 322,-520 438,-686 116,-166 140,-165 403,-26 263,139 765,416 1204,668 438,252 813,479 1071,634 258,154 398,236 477,296 79,60 95,99 75,160 -20,62 -77,146 -177,311zm-3742 -1085c8,39 49,75 151,138 102,63 264,155 497,285 233,131 537,302 976,555 439,253 1013,590 1317,763 303,173 336,184 368,171 32,-13 64,-50 160,-204 95,-155 254,-428 365,-612 111,-184 175,-279 197,-348 22,-69 4,-112 -66,-167 -70,-55 -191,-121 -461,-282 -270,-160 -689,-414 -1161,-686 -472,-272 -998,-562 -1274,-708 -276,-146 -303,-147 -433,39 -129,186 -360,559 -489,767 -129,208 -155,249 -148,288z"/>
   <path class="fil7" d="M8580 10961c14,-16 30,-55 40,-102 10,-47 14,-102 8,-153 -6,-51 -20,-98 -41,-137 -21,-39 -48,-71 -74,-97 -26,-26 -52,-45 -76,-37 -25,7 -49,41 -76,89 -27,48 -58,109 -76,150 -18,41 -23,62 -19,80 4,19 17,35 58,66 41,31 109,76 149,102 41,26 54,33 67,40 13,7 26,14 41,-1z"/>
   <path class="fil7" d="M9287 9765c-15,21 -54,58 -96,83 -43,25 -90,37 -149,37 -59,0 -131,-12 -173,-27 -41,-15 -53,-33 -48,-57 5,-24 25,-53 48,-85 23,-32 49,-66 73,-88 23,-22 43,-32 75,-29 32,3 75,18 116,40 42,22 82,49 108,66 26,17 36,22 45,28 9,6 16,12 1,33z"/>
  </g>
  <g id="_2907364086240">
   <path class="fil6" d="M3029 2283c288,184 831,539 1256,814 425,275 731,471 951,611 220,139 352,222 439,283 87,61 128,101 134,142 6,41 -24,83 -171,292 -147,209 -410,584 -555,770 -146,186 -174,183 -437,26 -264,-157 -763,-469 -1223,-770 -460,-301 -881,-590 -1135,-758 -254,-168 -340,-215 -392,-262 -52,-47 -69,-92 -41,-163 28,-70 99,-165 226,-350 127,-185 308,-460 417,-616 108,-156 144,-192 178,-204 34,-12 68,1 356,185z"/>
   <path class="fil7" d="M3042 2469c-8,18 -34,45 -69,71 -35,26 -79,50 -123,65 -44,15 -88,20 -128,17 -40,-2 -77,-12 -107,-24 -31,-12 -56,-26 -59,-49 -3,-23 16,-56 44,-96 29,-40 68,-89 95,-119 27,-30 42,-42 59,-46 17,-4 36,1 76,23 41,22 104,61 140,84 37,24 47,32 58,40 11,8 22,16 14,34z"/>
   <path class="fil7" d="M2301 3498c13,-20 31,-65 37,-109 6,-44 0,-88 -20,-138 -20,-50 -54,-106 -81,-136 -27,-30 -46,-33 -64,-21 -18,12 -36,39 -55,69 -19,30 -39,64 -49,91 -11,27 -12,47 1,73 13,26 40,56 73,84 32,28 69,52 92,68 23,16 31,23 39,28 8,6 15,10 28,-11z"/>
   <path class="fil7" d="M4118 3304c38,31 73,66 105,114 32,48 63,109 80,176 17,68 20,142 14,210 -7,68 -23,128 -50,182 -26,54 -62,101 -108,146 -46,44 -103,85 -164,110 -61,25 -128,33 -196,30 -69,-3 -140,-17 -199,-38 -59,-21 -106,-48 -155,-90 -50,-41 -102,-96 -138,-160 -36,-64 -57,-138 -61,-218 -5,-80 7,-166 31,-239 24,-73 62,-133 113,-185 51,-52 116,-98 189,-127 73,-29 154,-42 225,-38 71,4 132,23 184,46 52,23 94,49 132,80z"/>
   <path class="fil8" d="M4040 3417c9,18 34,41 51,62 18,21 28,39 26,55 -2,16 -17,30 -33,45 -16,15 -34,32 -47,31 -13,-2 -22,-22 -35,-40 -14,-18 -33,-34 -54,-48 -21,-14 -44,-27 -65,-33 -20,-6 -38,-6 -52,4 -14,10 -23,28 -25,49 -2,21 4,44 21,68 17,24 45,50 67,76 22,26 38,51 49,77 11,26 17,52 18,81 1,29 -4,60 -13,87 -9,26 -21,47 -38,66 -16,18 -37,34 -62,46 -25,11 -56,18 -87,17 -31,-1 -63,-9 -82,-11 -19,-2 -26,3 -31,10 -5,7 -9,16 -16,28 -6,12 -15,25 -23,36 -8,10 -16,17 -31,16 -15,-2 -36,-12 -44,-27 -9,-15 -5,-33 2,-48 7,-15 16,-26 21,-37 5,-11 4,-22 -2,-31 -6,-10 -18,-18 -36,-35 -18,-16 -43,-41 -60,-59 -17,-18 -26,-30 -22,-44 4,-13 21,-28 36,-40 15,-12 26,-22 36,-31 9,-8 16,-15 27,-5 11,10 26,35 42,55 16,20 33,33 51,46 18,13 37,24 57,29 20,5 43,4 59,-4 17,-8 27,-24 24,-52 -3,-28 -21,-67 -41,-103 -20,-36 -43,-68 -56,-93 -14,-25 -19,-42 -20,-66 -1,-24 1,-54 7,-79 6,-26 16,-47 28,-67 12,-20 27,-39 42,-55 15,-16 32,-29 56,-35 24,-7 57,-7 81,-6 24,2 39,6 50,7 11,1 17,-1 27,-11 10,-10 25,-29 38,-40 13,-11 23,-13 38,-9 14,4 33,14 44,22 11,8 15,14 11,23 -4,9 -16,19 -26,31 -9,12 -15,25 -6,43z"/>
   <path class="fil7" d="M2296 2962c98,-144 239,-357 323,-478 84,-121 112,-149 138,-158 27,-9 53,1 304,166 251,165 729,485 1086,721 357,236 595,388 792,513 196,125 351,223 444,288 93,65 125,95 130,127 4,32 -19,64 -133,226 -114,162 -318,453 -431,598 -113,144 -135,142 -366,3 -231,-139 -670,-415 -1053,-665 -383,-250 -710,-475 -935,-628 -225,-153 -348,-234 -416,-292 -68,-58 -81,-94 -60,-149 21,-55 77,-128 176,-272zm3326 1173c-5,-36 -41,-70 -129,-133 -89,-63 -231,-153 -435,-284 -204,-130 -470,-300 -853,-552 -384,-252 -885,-585 -1151,-757 -265,-172 -294,-183 -324,-173 -30,10 -61,42 -155,176 -94,135 -251,373 -361,534 -110,160 -172,243 -196,304 -24,61 -9,101 51,154 60,53 166,119 402,278 236,159 601,410 1014,680 413,270 873,560 1115,706 242,146 267,149 393,-13 126,-161 354,-487 481,-668 127,-181 153,-217 148,-253z"/>
   <path class="fil7" d="M5285 3922c-14,14 -30,48 -41,90 -11,42 -18,92 -15,138 2,46 14,89 30,126 17,37 39,67 62,91 22,24 44,43 67,38 23,-5 46,-35 74,-76 27,-42 58,-95 77,-131 18,-36 24,-55 21,-72 -3,-17 -14,-33 -49,-63 -35,-30 -94,-75 -130,-100 -35,-26 -47,-32 -59,-39 -12,-7 -23,-14 -37,-1z"/>
   <path class="fil7" d="M4584 4966c15,-18 51,-50 91,-70 40,-20 83,-29 137,-26 54,3 118,17 155,33 37,16 46,33 40,54 -5,21 -25,47 -48,74 -23,27 -48,57 -70,76 -22,19 -41,26 -69,22 -28,-4 -66,-20 -103,-42 -37,-22 -72,-49 -94,-65 -22,-16 -31,-22 -39,-27 -8,-6 -14,-11 1,-30z"/>
  </g>
 </g>
</svg>
