<?xml version="1.0" encoding="UTF-8"?>
<!DOCTYPE svg PUBLIC "-//W3C//DTD SVG 1.1//EN" "http://www.w3.org/Graphics/SVG/1.1/DTD/svg11.dtd">
<!-- Creator: CorelDRAW 2017 -->
<svg xmlns="http://www.w3.org/2000/svg" xml:space="preserve" width="143mm" height="143mm" version="1.1" style="shape-rendering:geometricPrecision; text-rendering:geometricPrecision; image-rendering:optimizeQuality; fill-rule:evenodd; clip-rule:evenodd"
viewBox="0 0 14300 14300"
 xmlns:xlink="http://www.w3.org/1999/xlink">
 <defs>
  <style type="text/css">
   <![CDATA[
    .str0 {stroke:#FF9933;stroke-width:20}
    .str1 {stroke:white;stroke-width:20;stroke-linecap:round;stroke-linejoin:round}
    .fil2 {fill:none}
    .fil1 {fill:black}
    .fil0 {fill:#FF9933}
    .fil3 {fill:white}
   ]]>
  </style>
 </defs>
 <g id="Слой_x0020_1">
  <metadata id="CorelCorpID_0Corel-Layer"/>
  <path class="fil0" d="M8276 3953c875,471 2558,1405 3628,1983 1071,578 1529,800 1755,1023 226,222 221,445 48,636 -173,191 -514,351 -632,574 -117,223 -11,509 36,789 48,280 36,554 -145,705 -182,150 -534,177 -886,133 -352,-44 -704,-160 -1082,-67 -377,93 -780,396 -1071,614 -291,218 -470,351 -738,556 -268,205 -626,480 -992,649 -366,169 -741,231 -1118,231 -377,0 -758,-62 -1015,-173 -257,-111 -391,-271 -567,-511 -176,-240 -393,-559 -584,-857 -190,-298 -353,-574 -630,-681 -277,-107 -668,-45 -1032,-40 -363,4 -699,-49 -1059,-205 -361,-156 -746,-414 -1082,-734 -335,-320 -621,-703 -461,-1107 159,-405 763,-831 1722,-1409 959,-578 2273,-1307 3078,-1770 805,-462 1101,-658 1319,-751 218,-93 358,-84 461,-76 103,9 171,18 1045,489z"/>
 </g>
 <g id="Слой_x0020_2">
  <metadata id="CorelCorpID_1Corel-Layer"/>
  <path class="fil1 str0" d="M8061 5704c115,52 298,127 488,209 190,82 387,172 550,246 163,74 292,133 378,167 86,34 130,44 160,34 30,-9 46,-38 52,-91 6,-53 3,-132 33,-220 30,-88 93,-186 182,-260 89,-75 204,-126 316,-150 112,-24 220,-19 327,15 108,34 214,97 287,178 72,81 109,180 118,286 9,105 -11,217 -72,318 -61,101 -163,193 -274,244 -111,52 -231,64 -311,75 -80,11 -121,20 -117,36 4,15 53,37 141,87 88,50 214,130 368,208 154,78 334,155 538,190 204,35 430,27 565,50 135,23 179,76 156,133 -24,57 -115,116 -284,135 -169,19 -415,-4 -664,-63 -249,-60 -501,-157 -697,-216 -197,-58 -338,-77 -503,-44 -165,33 -354,118 -601,260 -247,143 -552,343 -803,514 -252,171 -450,314 -681,485 -232,171 -497,371 -696,514 -199,143 -331,230 -431,300 -100,71 -167,126 -231,146 -64,20 -125,6 -176,-28 -51,-34 -94,-87 -148,-177 -55,-90 -121,-215 -142,-305 -21,-90 4,-144 55,-181 52,-38 130,-60 199,-30 68,30 126,112 194,124 68,12 145,-45 264,-141 119,-96 279,-231 467,-376 188,-145 405,-301 551,-413 146,-112 221,-181 200,-186 -20,-6 -136,52 -321,139 -185,87 -439,203 -718,321 -279,118 -583,239 -810,339 -227,100 -378,178 -491,174 -113,-5 -187,-92 -255,-211 -68,-119 -130,-268 -151,-361 -22,-93 -3,-129 33,-165 36,-35 90,-70 148,-70 58,0 121,35 179,85 58,50 112,116 195,133 83,17 196,-16 472,-138 277,-122 717,-332 1106,-515 389,-182 725,-336 1005,-494 280,-159 503,-323 588,-438 85,-115 31,-181 -71,-244 -102,-63 -253,-123 -425,-198 -172,-76 -365,-167 -488,-249 -123,-82 -177,-153 -185,-203 -8,-50 30,-77 76,-88 46,-11 99,-6 148,11 49,17 95,45 209,96z"/>
  <path class="fil1 str0" d="M6284 5292c-101,83 -204,214 -344,350 -140,136 -318,278 -457,379 -140,101 -242,161 -324,211 -82,50 -143,89 -199,96 -56,7 -106,-18 -133,-70 -27,-52 -30,-130 -50,-212 -20,-82 -58,-167 -133,-252 -75,-85 -186,-171 -313,-211 -127,-40 -268,-36 -396,13 -128,49 -243,142 -304,256 -61,114 -69,249 -38,372 31,123 102,235 191,311 89,76 196,116 294,129 98,14 186,1 244,3 58,2 86,17 94,41 8,24 -5,55 -44,97 -39,42 -105,96 -205,163 -99,67 -232,147 -391,225 -159,77 -344,152 -500,210 -157,57 -286,97 -338,158 -52,61 -27,143 30,174 57,31 145,13 258,-19 113,-31 252,-75 402,-132 151,-57 314,-126 453,-186 138,-60 252,-110 358,-138 107,-28 208,-35 351,8 143,42 329,134 517,221 188,87 379,170 524,228 145,58 243,92 347,118 104,26 213,45 349,25 136,-21 299,-81 440,-127 140,-46 258,-76 327,-59 70,18 92,84 136,202 44,118 110,288 194,507 84,219 187,487 287,631 100,144 198,162 308,189 111,26 234,60 325,43 91,-17 149,-86 181,-157 32,-72 39,-147 -28,-190 -67,-43 -207,-53 -307,-106 -100,-52 -160,-147 -222,-301 -63,-154 -129,-368 -200,-596 -71,-228 -146,-470 -217,-621 -71,-151 -137,-211 -288,-215 -151,-4 -388,47 -527,70 -139,23 -180,16 -213,8 -33,-8 -58,-17 -33,-25 25,-8 99,-14 200,-34 101,-19 228,-52 364,-70 136,-18 281,-21 384,11 104,31 167,97 236,200 69,102 145,241 212,361 67,120 127,222 190,320 63,98 130,191 194,270 63,80 123,146 223,184 100,38 240,49 353,45 113,-4 198,-24 243,-85 45,-62 50,-165 -22,-226 -72,-61 -219,-78 -321,-128 -102,-50 -157,-133 -235,-260 -78,-127 -178,-298 -261,-467 -83,-169 -149,-335 -254,-452 -105,-117 -248,-185 -508,-198 -260,-13 -637,29 -874,50 -236,21 -332,21 -441,-7 -109,-28 -232,-83 -360,-134 -128,-51 -260,-98 -296,-149 -36,-51 24,-107 108,-185 84,-79 193,-180 303,-286 110,-105 222,-214 313,-306 91,-93 162,-170 182,-238 20,-68 -9,-128 -75,-140 -65,-12 -166,24 -267,108z"/>
  <path class="fil2 str1" d="M4284 5660c-9,20 -17,41 -20,66 -3,26 -1,56 3,79 4,23 9,38 15,53"/>
  <path class="fil2 str1" d="M4135 5712c52,2 104,3 149,15 46,11 85,33 124,54"/>
  <path class="fil3" d="M4522 6175c20,14 40,41 46,70 7,29 0,61 -12,81 -13,19 -31,25 -45,12 -13,-13 -21,-46 -28,-73 -7,-27 -13,-48 -17,-65 -4,-17 -4,-30 6,-36 10,-5 30,-3 50,11z"/>
  <path class="fil2 str1" d="M3920 5968c0,22 0,44 8,69 7,25 21,52 34,72 13,19 24,31 35,43"/>
  <path class="fil2 str1" d="M3804 6074c48,-19 96,-38 143,-46 46,-8 91,-4 135,0"/>
  <path class="fil2 str1" d="M10255 5694c8,20 17,41 20,66 3,26 1,56 -3,79 -4,23 -9,38 -15,53"/>
  <path class="fil2 str1" d="M10403 5746c-52,2 -104,3 -149,15 -46,11 -85,33 -124,54"/>
  <path class="fil3" d="M10016 6239c-20,12 -40,34 -46,58 -7,24 0,51 12,67 13,16 31,21 45,10 13,-11 21,-38 28,-60 7,-22 13,-39 17,-53 4,-14 4,-25 -6,-29 -10,-4 -30,-2 -50,9z"/>
  <path class="fil2 str1" d="M10619 6002c0,22 0,44 -8,69 -7,25 -21,52 -34,72 -13,19 -24,31 -35,43"/>
  <path class="fil2 str1" d="M10735 6108c-48,-19 -96,-38 -143,-46 -46,-8 -91,-4 -135,0"/>
 </g>
</svg>
