<?xml version="1.0" encoding="UTF-8"?>
<!DOCTYPE svg PUBLIC "-//W3C//DTD SVG 1.1//EN" "http://www.w3.org/Graphics/SVG/1.1/DTD/svg11.dtd">
<!-- Creator: CorelDRAW 2017 -->
<svg xmlns="http://www.w3.org/2000/svg" xml:space="preserve" width="143mm" height="143mm" version="1.1" style="shape-rendering:geometricPrecision; text-rendering:geometricPrecision; image-rendering:optimizeQuality; fill-rule:evenodd; clip-rule:evenodd"
viewBox="0 0 14300 14300"
 xmlns:xlink="http://www.w3.org/1999/xlink">
 <defs>
  <style type="text/css">
   <![CDATA[
    .str0 {stroke:black;stroke-width:20}
    .fil7 {fill:black}
    .fil9 {fill:#2BABE4}
    .fil8 {fill:#4D4D4D}
    .fil4 {fill:#6E402C}
    .fil5 {fill:#96573D}
    .fil6 {fill:#CC9933}
    .fil2 {fill:#CCCCCC}
    .fil1 {fill:#E6E6E6}
    .fil0 {fill:red}
    .fil3 {fill:white}
    .fil10 {fill:white}
   ]]>
  </style>
 </defs>
 <g id="Слой_x0020_1">
  <metadata id="CorelCorpID_0Corel-Layer"/>
  <path class="fil0" d="M6769 4732c226,-141 555,-348 968,-423 414,-75 912,-19 1269,197 357,216 573,592 686,1025 113,432 122,921 -71,1344 -193,423 -588,780 -1072,1180 -484,400 -1058,841 -1471,1180 -414,338 -667,573 -771,635 -103,61 -56,-52 53,-241 109,-189 281,-455 291,-565 10,-110 -141,-66 -318,-102 -177,-36 -381,-154 -307,-443 74,-289 427,-750 533,-1013 106,-263 -35,-329 -176,-376 -141,-47 -282,-75 -238,-285 44,-209 274,-600 458,-891 183,-291 320,-484 275,-604 -45,-120 -270,-167 -397,-209 -127,-42 -155,-80 -108,-136 47,-56 169,-132 395,-273z"/>
  <polygon class="fil1" points="7182,10988 7167,3658 10211,3595 10211,10978 10487,10978 10563,3268 6777,3268 6805,10994 "/>
  <polygon class="fil2" points="7182,10988 7283,10887 7283,3771 10146,3771 10124,10892 10211,10978 10211,3595 7167,3658 "/>
  <polygon class="fil3" points="10146,3660 12443,2913 12443,11629 10124,10892 "/>
  <polygon class="fil2" points="12443,2913 12720,2913 12695,11632 12440,11632 "/>
  <polygon class="fil1" points="11971,8174 10430,8117 10424,10557 11981,11030 "/>
  <polygon class="fil1" points="11971,7570 12016,3580 10475,4042 10427,7683 "/>
  <path class="fil4" d="M12104 7969c27,2 67,-2 94,-16 27,-14 41,-36 49,-60 8,-23 8,-47 4,-67 -5,-20 -15,-36 -33,-45 -18,-9 -43,-12 -71,-11 -28,0 -58,3 -79,27 -21,24 -34,70 -36,99 -2,29 6,40 18,51 12,10 27,20 55,22z"/>
  <circle class="fil5" transform="matrix(-0.2415 -0.0534295 -0.0534295 0.2415 11986.6 7867.86)" r="741"/>
  <path class="fil6" d="M12020 7703c-16,-3 -31,-3 -44,0 -13,4 -23,12 -25,25 -2,13 3,32 19,46 16,15 43,25 64,36 21,11 37,22 45,31 8,9 8,16 6,30 -1,14 -4,35 -9,51 -4,16 -10,28 -10,34 -1,6 3,7 10,4 7,-3 18,-10 30,-25 12,-14 24,-35 31,-58 6,-23 6,-48 0,-71 -6,-23 -18,-43 -30,-58 -13,-15 -26,-25 -40,-33 -14,-7 -29,-12 -45,-15z"/>
  <path class="fil4" d="M11922 7970c27,25 67,41 106,48 21,4 41,4 60,2 -40,27 -90,38 -141,26 -99,-22 -161,-120 -139,-219 8,-38 28,-71 55,-95 24,-22 54,-38 86,-45 -13,16 -25,34 -36,52 -2,4 -4,8 -6,11 -18,39 -28,82 -27,119 1,41 15,74 42,99z"/>
  <polygon class="fil2" points="10520,7676 11971,7570 11973,7449 10555,7543 10555,4019 10555,4018 10475,4042 10427,7683 "/>
  <polygon class="fil2" points="10515,10455 10515,8120 10430,8117 10424,10557 10491,10577 11981,11030 11981,10946 "/>
  <path class="fil0" d="M4947 4714c-226,-141 -555,-348 -968,-423 -414,-75 -912,-19 -1269,197 -357,216 -573,592 -686,1025 -113,432 -122,921 71,1344 193,423 588,780 1072,1180 484,400 1058,841 1481,1186 424,344 698,591 801,652 103,61 36,-63 -92,-323 -128,-260 -316,-655 -334,-937 -18,-282 134,-451 307,-613 173,-162 369,-317 302,-435 -67,-118 -395,-197 -510,-369 -115,-172 -17,-435 144,-693 162,-259 387,-512 376,-658 -12,-146 -261,-183 -465,-263 -204,-80 -363,-202 -330,-287 33,-85 259,-132 386,-174 127,-42 155,-80 108,-136 -47,-56 -169,-132 -395,-273z"/>
  <path class="fil7" d="M3096 4400c94,-18 187,-28 303,0 115,28 253,95 347,204 94,109 144,262 146,431 2,169 -44,354 -102,482 -58,128 -128,198 -176,265 -48,67 -73,130 -75,191 -2,61 19,120 67,168 48,48 124,86 403,111 279,25 762,38 1157,48 395,10 701,19 888,44 187,25 254,67 273,115 19,48 -11,103 -218,130 -208,27 -594,27 -955,46 -361,19 -697,57 -884,97 -187,40 -225,82 -246,204 -21,122 -25,323 -36,762 -11,439 -27,1115 -36,1753 -8,638 -8,1239 -2,1572 6,334 19,401 84,453 65,53 183,90 267,126 84,36 134,69 134,122 0,53 -50,124 -151,164 -101,40 -252,48 -395,32 -143,-17 -277,-59 -375,-180 -98,-121 -160,-322 -186,-689 -26,-367 -16,-899 -6,-1269 10,-370 20,-577 16,-668 -3,-91 -20,-66 -50,127 -29,193 -71,554 -105,976 -34,422 -59,905 -80,1176 -21,271 -38,330 -109,390 -71,61 -197,124 -330,160 -132,36 -271,44 -367,13 -97,-31 -151,-103 -145,-170 6,-67 74,-130 134,-193 61,-63 115,-126 166,-502 50,-376 97,-1064 113,-1705 17,-640 4,-1232 0,-1606 -4,-374 0,-529 -21,-617 -21,-88 -67,-109 -139,13 -71,122 -168,386 -252,806 -84,420 -155,995 -223,1266 -67,271 -130,237 -189,151 -59,-86 -113,-225 -99,-552 15,-327 99,-844 195,-1228 97,-384 206,-636 315,-829 109,-193 218,-328 327,-424 109,-97 218,-155 286,-218 67,-63 92,-130 112,-194 19,-64 33,-125 1,-172 -32,-48 -110,-82 -184,-197 -75,-115 -146,-309 -126,-508 20,-199 131,-401 234,-516 103,-115 198,-141 292,-160z"/>
  <path class="fil7 str0" d="M9407 9193c41,233 80,603 138,959 58,356 136,696 181,942 45,246 58,396 47,521 -11,125 -45,224 -110,299 -65,75 -159,127 -237,157 -78,30 -138,39 -168,-4 -30,-43 -30,-138 -7,-226 24,-88 71,-170 93,-269 22,-99 17,-215 -22,-392 -39,-177 -112,-414 -162,-666 -50,-252 -77,-519 -105,-767 -28,-248 -57,-476 -48,-651 9,-175 56,-295 108,-340 52,-45 108,-15 157,47 50,62 93,157 134,390z"/>
  <path class="fil7 str0" d="M8341 8939c-99,203 -180,612 -240,1064 -60,452 -100,948 -111,1269 -11,321 6,468 47,569 41,101 106,157 192,203 86,45 194,80 276,86 82,7 138,-15 127,-80 -11,-65 -88,-172 -136,-278 -47,-106 -65,-209 -69,-360 -4,-151 4,-349 32,-633 28,-284 75,-655 112,-931 37,-276 63,-457 78,-625 15,-168 19,-323 -37,-403 -56,-80 -172,-84 -271,119z"/>
  <path class="fil7" d="M8361 6539c-53,-19 -136,-11 -180,99 -44,110 -50,322 -49,573 1,251 8,541 33,828 25,287 67,571 104,797 37,226 68,395 113,470 44,76 102,58 128,-70 26,-128 22,-367 7,-589 -15,-222 -41,-427 -49,-674 -8,-247 0,-536 6,-732 6,-196 8,-298 6,-382 -2,-83 -9,-148 -25,-203 -16,-55 -40,-100 -93,-118z"/>
  <path class="fil8" d="M8687 6426c60,-5 144,-9 238,22 94,31 198,96 265,193 67,97 95,225 97,370 2,145 -23,306 -42,423 -19,117 -31,189 -1,284 30,95 102,213 194,386 92,173 203,403 273,748 69,346 96,808 113,1121 17,313 23,476 8,533 -14,57 -50,7 -143,-42 -94,-50 -247,-99 -384,-101 -137,-2 -259,43 -343,100 -84,57 -129,125 -210,140 -81,15 -196,-22 -313,-66 -117,-44 -234,-96 -325,-82 -91,14 -155,95 -180,49 -25,-46 -10,-220 0,-436 10,-216 17,-474 49,-714 32,-240 90,-463 153,-670 63,-206 131,-396 186,-535 55,-138 96,-225 130,-304 34,-79 61,-152 40,-237 -21,-85 -89,-182 -139,-276 -50,-94 -81,-185 -108,-286 -27,-101 -49,-213 -39,-312 10,-100 51,-187 115,-234 64,-47 150,-52 211,-58 61,-6 96,-11 155,-16z"/>
  <path class="fil7" d="M9237 6808c39,207 84,580 73,985 -11,404 -77,840 -114,1130 -37,290 -45,435 -73,469 -28,35 -75,-41 -115,-141 -40,-101 -72,-227 -89,-425 -16,-198 -17,-467 -4,-706 12,-239 37,-447 44,-619 7,-172 -4,-309 -21,-426 -16,-117 -37,-215 -34,-295 3,-80 29,-142 71,-183 42,-40 99,-59 144,-48 45,11 79,52 118,259z"/>
  <path class="fil7 str0" d="M8358 5153c88,-13 192,-24 293,18 101,42 200,137 276,261 75,124 127,277 126,443 -1,166 -55,345 -138,465 -83,121 -195,183 -315,198 -120,15 -247,-17 -349,-121 -102,-103 -180,-278 -233,-448 -53,-170 -81,-336 -59,-464 22,-128 93,-219 165,-272 72,-53 145,-68 234,-81z"/>
  <path class="fil7 str0" d="M8281 5141c49,-34 119,-98 225,-130 107,-32 250,-32 391,23 141,55 280,164 381,329 101,165 165,386 217,574 52,188 93,343 172,497 79,155 195,310 298,437 104,127 195,228 277,260 82,32 155,-5 220,-47 65,-42 122,-90 138,-76 16,14 -9,89 -47,157 -38,68 -88,130 -188,176 -100,47 -250,79 -347,76 -97,-2 -140,-39 -151,-39 -11,0 9,36 26,56 17,19 31,22 -8,26 -39,5 -130,11 -189,-9 -59,-20 -87,-68 -161,-176 -74,-108 -195,-277 -311,-468 -117,-191 -229,-405 -347,-632 -117,-227 -239,-466 -335,-596 -96,-131 -167,-154 -240,-148 -73,6 -148,40 -204,99 -57,59 -94,144 -134,164 -40,21 -82,-23 -99,-77 -17,-54 -10,-120 23,-196 33,-76 92,-163 144,-205 52,-41 97,-37 134,-37 37,0 65,-4 114,-38z"/>
  <path class="fil9" d="M8966 5623c20,61 54,137 80,190 26,54 43,86 47,127 3,41 -7,91 -40,130 -33,38 -90,65 -139,56 -49,-8 -91,-52 -98,-114 -7,-62 20,-144 40,-204 20,-60 33,-99 45,-147 12,-47 22,-103 28,-137 5,-34 5,-46 8,-28 3,18 9,65 30,127z"/>
  <path class="fil10 str0" d="M2974 5465c5,-29 14,-78 30,-89 15,-11 36,14 58,21 21,7 43,-6 68,-39 24,-33 51,-88 65,-81 14,7 16,76 20,131 3,55 8,97 29,85 20,-12 57,-78 82,-105 26,-27 41,-16 52,15 11,31 18,81 48,79 30,-3 83,-59 121,-86 38,-27 60,-24 57,18 -2,42 -29,123 -38,167 -9,44 0,52 -23,79 -23,27 -77,74 -119,91 -41,17 -70,3 -89,-13 -19,-16 -29,-35 -56,-20 -28,15 -73,63 -112,44 -39,-20 -70,-107 -110,-132 -40,-25 -87,13 -115,17 -28,4 -35,-27 -27,-55 8,-28 32,-54 44,-71 12,-18 12,-27 17,-56z"/>
  <polygon class="fil10" points="3795,4224 4458,3343 4595,3744 6161,2303 5944,2795 6036,2749 7899,1446 5750,3286 5750,3000 4538,3995 4344,3771 "/>
  <polygon class="fil10" points="3548,4044 3846,3015 3937,3255 4474,1940 4554,2226 4909,579 4509,1757 4360,1437 3937,2843 3731,2729 "/>
  <path class="fil10" d="M4826 4310l-156 280 1264 -377 -248 194 14 6 676 -40 -896 183 87 -166 -1076 372 97 -257c-326,21 -469,26 -496,16 -59,-20 406,-101 735,-211z"/>
 </g>
</svg>
