<?xml version="1.0" encoding="UTF-8"?>
<!DOCTYPE svg PUBLIC "-//W3C//DTD SVG 1.1//EN" "http://www.w3.org/Graphics/SVG/1.1/DTD/svg11.dtd">
<!-- Creator: CorelDRAW 2017 -->
<svg xmlns="http://www.w3.org/2000/svg" xml:space="preserve" width="143mm" height="143mm" version="1.1" style="shape-rendering:geometricPrecision; text-rendering:geometricPrecision; image-rendering:optimizeQuality; fill-rule:evenodd; clip-rule:evenodd"
viewBox="0 0 14300 14300"
 xmlns:xlink="http://www.w3.org/1999/xlink">
 <defs>
  <style type="text/css">
   <![CDATA[
    .fil5 {fill:black}
    .fil3 {fill:black}
    .fil0 {fill:#3D9984}
    .fil1 {fill:red}
    .fil2 {fill:#FFD663}
    .fil4 {fill:white}
   ]]>
  </style>
 </defs>
 <g id="Слой_x0020_1">
  <metadata id="CorelCorpID_0Corel-Layer"/>
  <path class="fil0" d="M4371 9622c380,29 763,48 1142,67 380,19 756,38 1114,72 357,34 696,83 1187,177 491,94 1134,233 1728,376 593,144 1137,292 1678,400 541,108 1080,177 1414,229 334,52 464,88 531,146 67,58 70,138 -20,333 -90,195 -273,506 -458,678 -185,173 -373,207 -454,236 -81,29 -54,51 8,150 62,99 158,273 43,378 -115,105 -441,139 -793,143 -352,4 -731,-22 -1111,-19 -380,3 -761,35 -1003,113 -241,78 -343,202 -592,168 -248,-33 -643,-224 -1099,-329 -456,-106 -973,-127 -1972,-223 -999,-96 -2480,-266 -3127,-482 -648,-216 -462,-478 -186,-767 275,-289 640,-605 646,-760 6,-155 -346,-148 -629,-157 -283,-9 -496,-34 -597,-89 -101,-55 -91,-140 -102,-212 -11,-72 -43,-132 -133,-163 -90,-31 -239,-32 -340,-55 -101,-23 -154,-68 -85,-108 69,-39 260,-74 627,-141 367,-67 910,-167 1369,-198 459,-31 835,7 1215,36z"/>
  <path class="fil1" d="M7383 9877c90,-67 210,-186 271,-348 62,-162 67,-367 43,-564 -24,-198 -76,-388 -164,-533 -88,-145 -212,-245 -324,-319 -112,-74 -212,-121 -245,-124 -33,-2 0,40 19,126 19,86 24,214 -5,345 -29,131 -91,264 -191,307 -100,43 -238,-5 -333,-88 -95,-83 -148,-202 -152,-372 -5,-169 38,-388 171,-638 133,-250 357,-531 491,-764 133,-233 176,-419 174,-653 -2,-233 -50,-514 -143,-733 -93,-219 -231,-376 -338,-502 -107,-126 -183,-221 -202,-238 -19,-17 19,45 45,171 26,126 40,317 26,512 -14,195 -57,395 -136,533 -79,138 -193,214 -333,210 -141,-5 -307,-90 -372,-281 -64,-191 -26,-486 17,-795 43,-310 90,-633 100,-1022 10,-388 -19,-841 -62,-1295 -43,-455 -100,-912 -129,-1086 -29,-174 -29,-64 -31,207 -2,271 -7,705 -55,1022 -48,317 -138,517 -233,648 -95,131 -195,193 -283,198 -88,5 -164,-48 -205,-152 -40,-105 -45,-262 -14,-495 31,-233 98,-543 133,-726 36,-183 40,-241 -14,-155 -55,86 -169,314 -298,591 -129,276 -271,600 -331,914 -60,314 -36,619 -2,931 33,312 76,631 69,957 -7,326 -64,660 -176,941 -112,281 -279,510 -426,638 -148,129 -276,157 -367,91 -90,-67 -143,-229 -145,-441 -2,-212 45,-474 81,-641 36,-167 60,-238 12,-193 -48,45 -167,207 -291,424 -124,217 -252,488 -314,743 -62,255 -57,493 -36,741 21,248 60,505 52,741 -7,236 -60,450 -124,619 -64,169 -141,293 -176,383 -36,90 -31,148 48,202 79,55 231,107 676,121 445,14 1184,-10 1791,-21 607,-12 1084,-12 1431,-17 348,-5 567,-14 707,-26 141,-12 202,-26 293,-93z"/>
  <path class="fil2" d="M6364 2943c50,-36 131,-136 167,-276 36,-141 26,-322 -10,-519 -36,-198 -98,-412 -133,-550 -36,-138 -45,-200 -52,-182 -7,18 -12,116 -21,286 -10,170 -24,413 -35,608 -11,195 -18,343 -18,437 0,94 7,135 20,169 13,35 32,63 82,27z"/>
  <path class="fil1" d="M4344 1828c27,60 94,226 129,388 35,162 37,319 4,473 -33,154 -102,304 -185,468 -82,164 -177,343 -236,495 -58,152 -80,279 -87,363 -7,85 0,127 -32,123 -32,-5 -104,-57 -164,-179 -61,-121 -111,-312 -146,-502 -36,-191 -57,-381 -37,-575 20,-194 82,-392 151,-561 69,-169 145,-310 193,-431 48,-121 67,-224 74,-320 7,-96 2,-187 -30,-277 -32,-90 -92,-181 -87,-185 5,-4 74,80 125,187 51,107 85,238 88,363 4,125 -23,244 -58,386 -36,142 -81,306 -105,445 -24,139 -26,254 10,323 36,69 110,93 176,57 67,-36 126,-131 167,-269 40,-138 62,-319 67,-449 5,-130 -7,-208 -19,-271 -12,-63 -24,-111 4,-51z"/>
  <path class="fil2" d="M3891 5037c23,58 68,225 94,393 26,168 33,337 18,473 -15,136 -54,238 -95,288 -42,50 -87,48 -123,-11 -36,-58 -62,-173 -54,-331 8,-158 51,-361 80,-497 29,-136 43,-205 50,-264 7,-60 7,-110 30,-51z"/>
  <path class="fil1" d="M2478 7518c10,61 7,211 -10,351 -17,141 -48,271 -91,405 -43,133 -98,269 -118,377 -20,108 -6,189 32,246 38,57 100,90 137,114 37,24 49,38 19,51 -30,13 -101,25 -186,-24 -85,-49 -182,-158 -245,-296 -63,-138 -92,-305 -93,-507 -1,-202 25,-441 40,-624 15,-183 20,-312 1,-410 -19,-98 -62,-164 -102,-213 -40,-49 -79,-80 -58,-80 20,0 99,31 169,77 70,46 132,108 181,205 49,96 85,227 102,343 18,116 18,216 30,237 12,21 36,-36 61,-92 25,-56 51,-111 75,-152 24,-42 45,-70 55,-10z"/>
  <path class="fil2" d="M6719 9932c155,-60 292,-178 367,-327 76,-149 90,-330 92,-433 2,-102 -7,-126 -26,-83 -19,43 -48,152 -114,224 -67,71 -171,105 -307,98 -136,-7 -302,-55 -429,-121 -126,-67 -212,-152 -276,-274 -64,-121 -107,-279 -124,-438 -17,-160 -7,-321 17,-483 24,-162 62,-324 76,-476 14,-152 5,-295 0,-336 -5,-40 -5,21 -33,112 -29,91 -86,210 -136,286 -50,76 -93,110 -150,93 -57,-17 -129,-83 -176,-183 -48,-100 -71,-233 -86,-381 -14,-148 -19,-310 -29,-488 -10,-179 -24,-374 -43,-391 -19,-17 -43,145 -62,300 -19,155 -33,302 -67,414 -33,112 -86,188 -145,205 -60,17 -126,-26 -181,-136 -55,-110 -98,-286 -119,-319 -21,-33 -21,76 -19,186 2,110 7,219 -48,374 -55,155 -169,355 -295,498 -126,143 -264,229 -419,269 -155,40 -326,36 -455,-24 -129,-60 -214,-174 -238,-193 -24,-19 14,57 40,152 26,95 40,210 40,338 0,129 -14,271 -55,419 -40,148 -107,300 -160,438 -52,138 -91,262 -105,369 -14,107 -5,198 17,264 21,66 55,108 138,130 83,22 217,23 405,22 188,-1 431,-5 710,-9 279,-4 593,-9 915,-14 322,-5 650,-10 901,-14 251,-4 423,-7 578,-68z"/>
  <g id="_2562951334176">
   <path class="fil3" d="M11108 7549c55,33 163,5 271,-31 107,-36 214,-80 375,-177 161,-97 378,-247 569,-476 192,-230 358,-539 493,-738 135,-200 238,-290 301,-281 63,8 86,115 16,326 -71,212 -235,528 -412,782 -177,253 -368,443 -567,587 -199,144 -406,241 -632,335 -225,94 -469,184 -651,307 -182,123 -301,278 -408,423 -107,145 -202,279 -278,411 -76,131 -134,259 -76,406 57,146 230,311 372,448 142,137 254,247 317,361 63,114 78,232 49,468 -29,237 -102,592 -143,822 -41,229 -50,332 -31,412 19,79 66,135 173,191 106,56 272,111 349,167 76,56 63,114 -8,172 -71,59 -201,118 -363,114 -162,-5 -355,-74 -480,-146 -125,-72 -183,-148 -207,-272 -24,-124 -15,-295 14,-541 28,-246 75,-565 80,-777 5,-212 -31,-317 -99,-418 -68,-101 -169,-197 -268,-279 -99,-82 -198,-151 -271,-144 -73,7 -121,88 -185,192 -64,104 -144,232 -219,344 -74,113 -143,211 -210,300 -68,89 -134,169 -232,212 -98,43 -228,51 -432,32 -204,-18 -482,-62 -687,-101 -205,-38 -335,-71 -442,-63 -107,8 -191,57 -245,131 -55,74 -80,171 -114,238 -33,66 -75,101 -133,89 -59,-12 -134,-69 -171,-165 -37,-96 -35,-229 19,-377 53,-147 158,-308 240,-400 82,-91 142,-113 299,-99 158,14 413,63 633,93 220,30 404,41 531,34 128,-7 199,-31 284,-114 85,-83 184,-224 268,-358 84,-133 152,-258 177,-339 25,-81 6,-119 -14,-203 -20,-83 -41,-212 -19,-353 21,-141 85,-295 182,-488 96,-193 224,-427 366,-616 141,-190 296,-336 376,-423 80,-88 85,-117 63,-208 -23,-90 -74,-242 -111,-380 -37,-138 -59,-262 -84,-410 -25,-148 -51,-318 18,-596 70,-278 236,-663 365,-878 128,-215 219,-259 283,-249 64,11 102,77 73,213 -28,136 -122,341 -211,563 -89,221 -173,458 -177,693 -4,235 72,469 160,610 88,141 188,189 260,207 72,18 117,7 138,-53 21,-61 19,-171 26,-318 7,-147 24,-329 76,-479 52,-150 139,-267 264,-348 125,-81 288,-126 447,-116 159,10 316,74 414,188 98,114 139,278 123,460 -15,182 -87,382 -174,520 -88,138 -191,213 -297,263 -105,50 -213,75 -291,84 -79,10 -130,4 -154,48 -25,44 -23,137 32,169z"/>
   <path class="fil4" d="M11348 6780c-23,11 -62,35 -98,66 -36,31 -69,68 -85,116 -16,48 -15,106 -3,144 12,37 35,54 59,49 24,-5 50,-32 77,-62 27,-30 55,-63 82,-105 27,-42 52,-94 65,-128 13,-34 13,-51 5,-63 -8,-12 -25,-19 -37,-23 -12,-3 -20,-3 -28,-3 -8,0 -15,-2 -38,10z"/>
  </g>
  <path class="fil2" d="M5340 5575c49,-171 125,-570 171,-902 46,-332 61,-598 47,-682 -13,-84 -55,15 -118,154 -63,139 -146,317 -194,537 -47,220 -59,482 -53,648 6,165 28,234 51,296 23,63 46,120 95,-51z"/>
  <path class="fil5" d="M11472 5438c-13,-20 -438,-607 -376,-627 12,-4 340,87 441,115 32,-563 -36,-515 397,-90 79,-65 288,-246 393,-293 3,-4 5,-7 6,-8l4 4c23,-9 39,-10 47,0 16,20 6,37 -7,50l0 0 -2 1 -2 2c-158,369 -91,215 -229,533 163,-37 571,-130 590,-95 21,40 -356,376 -450,461 459,380 483,266 -173,449l0 0c314,-117 170,-66 460,-166 -79,-62 -334,-262 -339,-272 -14,-28 248,-280 383,-407 -180,43 -530,125 -553,97 -21,-25 106,-325 194,-511 -399,314 -265,313 -645,-80 -9,116 -27,357 -32,366 -19,34 -316,-67 -437,-108 208,353 106,177 330,577z"/>
  <path class="fil4" d="M5750 9976c157,-31 293,-91 371,-150 78,-59 97,-115 72,-121 -25,-6 -93,40 -167,65 -74,25 -154,28 -223,-52 -70,-81 -129,-246 -157,-413 -28,-167 -26,-336 -27,-447 -1,-111 -5,-164 -34,-75 -29,90 -84,322 -112,482 -27,160 -27,246 -66,284 -38,38 -115,28 -184,-51 -69,-80 -132,-229 -193,-412 -62,-183 -122,-400 -151,-403 -28,-4 -25,205 -25,371 -1,166 -6,289 -57,362 -51,73 -148,95 -297,53 -149,-42 -351,-150 -477,-276 -126,-126 -175,-270 -192,-268 -17,2 -2,150 -15,307 -13,157 -55,322 -132,417 -77,95 -188,118 -211,142 -23,24 43,47 124,88 81,41 176,99 295,127 119,28 262,26 490,23 229,-3 544,-8 789,-12 246,-4 422,-6 579,-38z"/>
 </g>
</svg>
