<?xml version="1.0" encoding="UTF-8"?>
<!DOCTYPE svg PUBLIC "-//W3C//DTD SVG 1.1//EN" "http://www.w3.org/Graphics/SVG/1.1/DTD/svg11.dtd">
<!-- Creator: CorelDRAW 2017 -->
<svg xmlns="http://www.w3.org/2000/svg" xml:space="preserve" width="143mm" height="143mm" version="1.1" style="shape-rendering:geometricPrecision; text-rendering:geometricPrecision; image-rendering:optimizeQuality; fill-rule:evenodd; clip-rule:evenodd"
viewBox="0 0 14300 14300"
 xmlns:xlink="http://www.w3.org/1999/xlink">
 <defs>
  <style type="text/css">
   <![CDATA[
    .fil6 {fill:none}
    .fil5 {fill:black}
    .fil1 {fill:black}
    .fil8 {fill:#0069E1}
    .fil7 {fill:#419BE0}
    .fil9 {fill:#52C6EF}
    .fil0 {fill:#998293}
    .fil3 {fill:#AD5240}
    .fil2 {fill:#F7735A}
    .fil4 {fill:#FFA58C}
    .fil10 {fill:white}
   ]]>
  </style>
 </defs>
 <g id="Слой_x0020_1">
  <metadata id="CorelCorpID_0Corel-Layer"/>
  <g id="_2296380585696">
   <path class="fil0" d="M4317 9905c857,-10 2452,-31 3408,-20 956,11 1274,52 1490,105 217,53 333,116 473,176 139,60 302,116 557,131 256,14 605,-14 1101,0 496,14 1138,71 1529,152 392,81 533,187 187,286 -346,99 -1178,191 -1868,259 -690,69 -1236,115 -1473,203 -236,88 -162,219 -235,369 -72,150 -291,319 -926,407 -635,88 -1686,95 -2766,102 -1080,7 -2187,14 -2639,-60 -452,-74 -247,-229 -321,-392 -74,-162 -427,-332 -769,-430 -342,-99 -674,-127 -783,-243 -109,-116 4,-321 250,-466 247,-145 628,-229 914,-279 286,-49 476,-64 589,-106 113,-42 148,-113 226,-148 78,-35 198,-35 1055,-46z"/>
   <path class="fil1" d="M7711 4760c22,181 -8,420 -13,573 -5,153 15,219 91,272 76,53 209,93 355,48 146,-45 306,-174 450,-306 144,-131 274,-264 382,-377 108,-113 194,-206 254,-234 60,-28 93,8 109,65 16,56 14,133 -19,224 -33,91 -98,198 -203,341 -105,143 -252,322 -419,468 -168,146 -357,259 -555,282 -198,23 -404,-43 -536,-91 -133,-48 -193,-78 -227,5 -35,83 -45,279 -38,460 7,181 30,347 181,458 151,111 430,168 661,216 231,48 413,88 550,163 136,75 226,184 347,442 121,257 274,663 379,920 105,257 161,367 231,435 70,68 153,95 296,83 143,-12 345,-61 458,-53 113,8 136,75 101,179 -35,105 -128,247 -294,345 -166,98 -405,151 -578,158 -173,7 -279,-33 -382,-143 -103,-110 -203,-289 -330,-555 -128,-266 -284,-618 -413,-835 -130,-218 -232,-301 -365,-359 -133,-58 -296,-91 -448,-111 -153,-20 -296,-27 -365,27 -70,53 -66,166 -65,312 2,146 2,325 -2,487 -3,161 -10,304 -22,437 -12,133 -28,256 -100,362 -71,106 -198,196 -415,307 -218,111 -526,244 -757,335 -231,91 -384,141 -487,218 -103,76 -156,179 -164,288 -8,109 28,224 37,312 8,88 -12,149 -78,175 -66,26 -179,16 -277,-58 -98,-73 -181,-209 -221,-392 -40,-183 -37,-412 -12,-556 25,-144 71,-204 239,-291 168,-86 457,-199 697,-309 241,-110 433,-216 558,-304 125,-88 181,-158 214,-296 33,-138 43,-344 43,-531 0,-188 -10,-357 -37,-455 -27,-98 -70,-125 -143,-196 -73,-71 -176,-188 -244,-344 -68,-156 -101,-352 -101,-618 0,-266 33,-601 81,-892 48,-291 111,-536 136,-676 25,-139 12,-173 -187,-162 -198,11 -582,66 -874,207 -292,141 -493,369 -599,534 -105,165 -115,268 -129,356 -13,88 -30,161 -85,181 -55,20 -148,-13 -193,-128 -45,-115 -42,-311 27,-511 68,-201 201,-407 437,-588 236,-181 575,-337 928,-453 354,-116 722,-193 964,-250 242,-58 356,-97 446,-154 90,-57 156,-133 191,-194 35,-62 39,-110 56,-212 17,-102 47,-258 97,-411 50,-153 120,-302 225,-419 105,-117 247,-202 400,-244 154,-42 320,-41 453,-1 133,40 233,120 310,227 77,107 132,240 142,396 11,156 -23,334 -107,483 -85,149 -221,268 -352,346 -131,77 -257,112 -372,118 -115,6 -218,-17 -296,-16 -79,2 -134,28 -125,103 9,75 82,198 104,379z"/>
   <g>
    <polygon class="fil2" points="3424,8409 4449,6825 3649,5957 2305,7240 "/>
    <polygon class="fil3" points="4449,6825 4725,6934 3919,8523 3424,8409 "/>
    <polygon class="fil4" points="4725,6934 3877,6048 3649,5957 4449,6825 "/>
    <g>
     <path class="fil5" d="M4148 6799c80,-132 533,-784 130,-863 -269,-53 -481,282 -640,402 126,-218 432,-563 718,-453 405,155 -71,761 -208,915z"/>
    </g>
    <path class="fil6" d="M4148 6799c74,-98 149,-196 214,-313 65,-117 120,-253 117,-357 -3,-105 -65,-178 -138,-211 -74,-32 -160,-24 -241,7 -81,31 -158,85 -227,149 -69,64 -131,140 -169,186 -38,46 -52,62 -67,78"/>
    <g>
     <path class="fil5" d="M4376 6819c80,-132 533,-784 130,-863 -269,-53 -481,282 -640,402 126,-218 432,-563 718,-453 405,155 -71,761 -208,915z"/>
    </g>
    <path class="fil6" d="M4376 6819c74,-98 149,-196 214,-313 65,-117 120,-253 117,-357 -3,-105 -65,-178 -138,-211 -74,-32 -160,-24 -241,7 -81,31 -158,85 -227,149 -69,64 -131,140 -169,186 -38,46 -52,62 -67,78"/>
   </g>
   <g>
    <polygon class="fil7" points="12347,5169 10074,4703 9439,6009 11509,6973 "/>
    <polygon class="fil8" points="10074,4703 10075,4339 12255,4550 12347,5169 "/>
    <polygon class="fil9" points="10075,4339 9441,5706 9439,6009 10074,4703 "/>
    <g>
     <path class="fil5" d="M10179 5061c-187,-33 -1136,-260 -1047,238 60,332 538,424 747,553 -306,-46 -838,-242 -841,-619 -4,-534 903,-260 1141,-172z"/>
    </g>
    <path class="fil6" d="M10179 5061c-146,-41 -291,-83 -454,-105 -163,-22 -343,-25 -462,26 -119,50 -175,154 -179,253 -4,99 44,193 116,272 72,79 168,143 272,193 105,50 219,87 288,110 69,23 94,32 119,42"/>
    <g>
     <path class="fil5" d="M10100 4790c-187,-33 -1136,-260 -1047,238 60,332 538,424 747,553 -306,-46 -838,-242 -841,-619 -4,-534 903,-260 1141,-172z"/>
    </g>
    <path class="fil6" d="M10100 4790c-146,-41 -291,-83 -454,-105 -163,-22 -343,-25 -462,26 -119,50 -175,154 -179,253 -4,99 44,193 116,272 72,79 168,143 272,193 105,50 219,87 288,110 69,23 94,32 119,42"/>
   </g>
   <path class="fil10" d="M8334 3974c-36,9 -88,28 -136,24 -49,-3 -94,-28 -129,-54 -35,-26 -60,-53 -75,-81 -15,-29 -21,-59 -25,-92 -4,-33 -5,-70 -12,-70 -7,-1 -20,34 -32,83 -11,49 -21,112 -12,167 9,55 37,101 70,128 33,27 73,34 119,31 47,-3 101,-17 145,-36 44,-18 77,-42 103,-61 26,-19 44,-34 42,-42 -1,-7 -22,-7 -59,3z"/>
   <path class="fil10" d="M10654 4914c237,49 691,149 978,210 288,61 409,82 467,106 57,24 50,50 -21,221 -71,171 -207,487 -318,740 -110,253 -195,444 -207,445 -12,1 48,-188 117,-400 70,-212 149,-446 183,-591 34,-145 24,-199 -75,-265 -99,-66 -286,-144 -534,-230 -249,-86 -559,-182 -704,-231 -145,-49 -123,-53 114,-4z"/>
   <path class="fil10" d="M3440 6281c-65,55 -251,229 -435,405 -184,176 -367,353 -456,452 -89,98 -85,118 47,265 132,147 391,422 538,576 146,154 180,187 112,90 -68,-96 -239,-321 -346,-476 -107,-155 -151,-241 -168,-317 -16,-76 -5,-142 110,-294 115,-152 332,-389 470,-540 137,-151 194,-217 129,-162z"/>
  </g>
 </g>
</svg>
