<?xml version="1.0" encoding="UTF-8"?>
<!DOCTYPE svg PUBLIC "-//W3C//DTD SVG 1.1//EN" "http://www.w3.org/Graphics/SVG/1.1/DTD/svg11.dtd">
<!-- Creator: CorelDRAW 2017 -->
<svg xmlns="http://www.w3.org/2000/svg" xml:space="preserve" width="143mm" height="143mm" version="1.1" style="shape-rendering:geometricPrecision; text-rendering:geometricPrecision; image-rendering:optimizeQuality; fill-rule:evenodd; clip-rule:evenodd"
viewBox="0 0 14300 14300"
 xmlns:xlink="http://www.w3.org/1999/xlink">
 <defs>
  <style type="text/css">
   <![CDATA[
    .str0 {stroke:white;stroke-width:100;stroke-linecap:round;stroke-linejoin:round}
    .fil4 {fill:none}
    .fil2 {fill:black}
    .fil5 {fill:#4D4D4D}
    .fil1 {fill:gray}
    .fil0 {fill:#9786B8}
    .fil6 {fill:red}
    .fil3 {fill:white}
   ]]>
  </style>
 </defs>
 <g id="Слой_x0020_1">
  <metadata id="CorelCorpID_0Corel-Layer"/>
  <path class="fil0" d="M10130 8010c579,12 1447,41 1930,80 483,39 582,88 606,214 24,126 -26,330 -111,510 -85,180 -204,336 -189,464 15,128 163,226 329,339 166,113 349,240 550,409 201,169 420,381 501,589 81,208 25,413 -353,547 -377,134 -1076,198 -1538,226 -462,28 -688,21 -766,85 -78,64 -7,198 49,346 56,148 99,310 -402,388 -501,78 -1545,71 -2558,81 -1012,11 -1993,39 -2741,64 -748,25 -1263,46 -1725,0 -462,-46 -871,-159 -1041,-353 -169,-194 -99,-469 -35,-716 64,-247 120,-466 -106,-554 -226,-88 -734,-46 -1122,-63 -388,-18 -656,-95 -801,-240 -145,-145 -166,-356 13,-543 178,-187 556,-349 902,-466 346,-116 659,-187 815,-311 156,-124 154,-302 181,-526 26,-224 81,-494 311,-629 230,-135 637,-136 1690,-104 1053,32 2752,96 3747,126 994,30 1284,26 1863,38z"/>
  <path class="fil1" d="M5191 3878c179,70 347,211 452,399 106,188 150,422 141,636 -9,213 -72,405 -168,543 -96,139 -224,224 -297,310 -73,86 -90,171 -35,237 55,66 182,111 345,236 163,124 362,327 535,835 133,392 250,966 325,1491l-547 0c-44,-191 -91,-350 -130,-448 -71,-181 -112,-152 -136,20 -15,106 -24,267 -31,428l-1635 0c9,-123 16,-253 15,-376 -2,-214 -26,-407 -73,-438 -46,-31 -115,100 -177,367 -29,125 -57,280 -81,447l-462 0c26,-190 57,-380 90,-556 73,-391 153,-714 228,-975 75,-261 143,-459 238,-591 95,-132 216,-197 326,-259 110,-62 209,-121 251,-183 42,-62 26,-127 -45,-221 -71,-93 -198,-215 -270,-386 -72,-171 -90,-391 -62,-609 27,-218 100,-433 214,-594 115,-161 272,-269 445,-324 174,-55 364,-56 543,13z"/>
  <path class="fil1" d="M10140 3823c179,70 347,211 452,399 106,188 150,422 141,636 -9,213 -72,405 -168,543 -96,139 -224,224 -297,310 -73,86 -90,171 -35,237 55,66 182,111 345,236 163,124 362,327 535,835 133,392 250,966 325,1491l-547 0c-44,-191 -91,-350 -130,-448 -71,-181 -112,-152 -136,20 -15,106 -24,267 -31,428l-1635 0c9,-123 16,-253 15,-376 -2,-214 -26,-407 -73,-438 -46,-31 -115,100 -177,367 -29,125 -57,280 -81,447l-462 0c26,-190 57,-380 90,-556 73,-391 153,-714 228,-975 75,-261 143,-459 238,-591 95,-132 216,-197 326,-259 110,-62 209,-121 251,-183 42,-62 26,-127 -45,-221 -71,-93 -198,-215 -270,-386 -72,-171 -90,-391 -62,-609 27,-218 100,-433 214,-594 115,-161 272,-269 445,-324 174,-55 364,-56 543,13z"/>
  <g id="_1995421656320">
   <path class="fil2" d="M6364 4956c-81,38 -129,54 -162,60 -32,6 -49,2 -39,-55 10,-57 48,-168 94,-264 46,-96 100,-177 189,-244 89,-67 212,-119 316,-146 104,-27 190,-29 273,-23 83,6 165,21 230,40 66,19 116,42 158,49 43,7 78,-1 111,-9 33,-8 65,-17 121,-7 56,10 138,37 224,98 86,60 178,154 256,306 78,152 143,362 131,618 -11,255 -99,555 -147,751 -48,196 -55,288 6,328 62,40 193,27 248,33 55,6 34,31 -10,49 -45,18 -114,29 -161,33 -48,4 -74,1 -74,10 0,9 27,30 46,46 20,16 32,26 -1,29 -33,3 -113,-1 -201,-38 -89,-37 -187,-106 -244,-195 -57,-90 -71,-200 -88,-300 -17,-100 -35,-190 -46,-358 -10,-169 -13,-417 -52,-589 -40,-172 -117,-268 -268,-318 -151,-50 -376,-54 -546,-27 -170,27 -284,85 -366,123z"/>
   <path class="fil2" d="M7275 4648c103,46 221,125 312,229 92,104 157,232 189,381 33,149 33,320 -3,481 -36,161 -108,312 -160,406 -52,94 -84,131 -116,189 -33,57 -66,135 -71,212 -6,77 16,154 78,207 61,53 162,82 261,118 99,36 195,78 358,-11 163,-89 394,-308 526,-594 132,-287 167,-641 169,-938 2,-297 -29,-537 -44,-728 -15,-191 -15,-331 -2,-421 13,-90 40,-128 93,-110 53,17 133,90 194,288 61,198 103,522 118,886 15,364 4,768 -216,1273 -220,505 -647,1111 -856,1501 -208,391 -196,566 -194,772 2,206 -4,441 10,620 14,179 48,301 -9,395 -57,93 -206,158 -533,164 -328,6 -834,-48 -1084,-175 -249,-128 -241,-330 -224,-642 17,-312 43,-735 -1,-1055 -44,-320 -159,-537 -296,-808 -137,-271 -297,-594 -436,-1031 -139,-436 -257,-985 -265,-1393 -8,-408 95,-674 170,-792 74,-118 120,-88 149,59 29,147 40,410 76,693 36,284 97,589 174,882 77,294 170,576 255,761 85,185 162,274 249,306 88,32 187,8 279,-13 92,-21 177,-38 221,-87 44,-49 46,-131 35,-188 -10,-57 -33,-89 -91,-126 -58,-36 -151,-76 -226,-179 -75,-103 -133,-268 -159,-439 -26,-171 -20,-348 4,-496 24,-148 65,-267 124,-355 60,-88 138,-144 213,-188 75,-44 146,-74 221,-93 74,-19 152,-26 234,-23 82,3 169,16 272,62z"/>
   <path class="fil3" d="M6615 5585c23,28 59,81 87,142 28,61 49,128 41,199 -8,71 -43,145 -81,186 -37,41 -76,49 -105,28 -28,-21 -46,-71 -63,-125 -17,-54 -34,-113 -44,-183 -10,-70 -12,-151 -8,-202 4,-51 13,-73 31,-84 18,-11 43,-10 61,-8 18,3 27,8 37,12 10,4 20,6 43,34z"/>
   <path class="fil4 str0" d="M6396 5051c25,16 49,33 72,59 23,26 43,62 56,90 13,28 18,49 23,70"/>
   <path class="fil4 str0" d="M6600 4998c-56,40 -113,81 -155,127 -42,47 -70,100 -98,152"/>
   <path class="fil4 str0" d="M7031 5123c16,25 32,49 43,82 10,33 15,74 16,105 1,31 -3,52 -7,73"/>
   <path class="fil4 str0" d="M7239 5154c-68,15 -136,30 -193,56 -57,26 -104,64 -150,101"/>
  </g>
  <path class="fil5" d="M8921 6960c179,70 347,211 452,399 106,188 150,422 141,636 -9,213 -72,405 -168,543 -96,139 -224,224 -297,310 -73,86 -90,171 -35,237 55,66 182,111 345,236 163,124 362,327 535,835 133,392 250,966 325,1491l-547 0c-44,-191 -91,-350 -130,-448 -71,-181 -112,-152 -136,20 -15,106 -24,267 -31,428l-1635 0c9,-123 16,-253 15,-376 -2,-214 -26,-407 -73,-438 -46,-31 -115,100 -177,367 -29,125 -57,280 -81,447l-462 0c26,-190 57,-380 90,-556 73,-391 153,-714 228,-975 75,-261 143,-459 238,-591 95,-132 216,-197 326,-259 110,-62 209,-121 251,-183 42,-62 26,-127 -45,-221 -71,-93 -198,-215 -270,-386 -72,-171 -90,-391 -62,-609 27,-218 100,-433 214,-594 115,-161 272,-269 445,-324 174,-55 364,-56 543,13z"/>
  <path class="fil5" d="M5354 6939c179,70 347,211 452,399 106,188 150,422 141,636 -9,213 -72,405 -168,543 -96,139 -224,224 -297,310 -73,86 -90,171 -35,237 55,66 182,111 345,236 163,124 362,327 535,835 133,392 250,966 325,1491l-547 0c-44,-191 -91,-350 -130,-448 -71,-181 -112,-152 -136,20 -15,106 -24,267 -31,428l-1635 0c9,-123 16,-253 15,-376 -2,-214 -26,-407 -73,-438 -46,-31 -115,100 -177,367 -29,125 -57,280 -81,447l-462 0c26,-190 57,-380 90,-556 73,-391 153,-714 228,-975 75,-261 143,-459 238,-591 95,-132 216,-197 326,-259 110,-62 209,-121 251,-183 42,-62 26,-127 -45,-221 -71,-93 -198,-215 -270,-386 -72,-171 -90,-391 -62,-609 27,-218 100,-433 214,-594 115,-161 272,-269 445,-324 174,-55 364,-56 543,13z"/>
  <path class="fil5" d="M11821 6103c179,70 347,211 452,399 106,188 150,422 141,636 -9,213 -72,405 -168,543 -96,139 -224,224 -297,310 -73,86 -90,171 -35,237 55,66 182,111 345,236 163,124 362,327 535,835 133,392 250,966 325,1491l-547 0c-44,-191 -91,-350 -130,-448 -71,-181 -112,-152 -136,20 -15,106 -24,267 -31,428l-1635 0c9,-123 16,-253 15,-376 -2,-214 -26,-407 -73,-438 -46,-31 -115,100 -177,367 -29,125 -57,280 -81,447l-462 0c26,-190 57,-380 90,-556 73,-391 153,-714 228,-975 75,-261 143,-459 238,-591 95,-132 216,-197 326,-259 110,-62 209,-121 251,-183 42,-62 26,-127 -45,-221 -71,-93 -198,-215 -270,-386 -72,-171 -90,-391 -62,-609 27,-218 100,-433 214,-594 115,-161 272,-269 445,-324 174,-55 364,-56 543,13z"/>
  <path class="fil5" d="M2793 5690c179,70 347,211 452,399 106,188 150,422 141,636 -9,213 -72,405 -168,543 -96,139 -224,224 -297,310 -73,86 -90,171 -35,237 55,66 182,111 345,236 163,124 362,327 535,835 133,392 250,966 325,1491l-547 0c-44,-191 -91,-350 -130,-448 -71,-181 -112,-152 -136,20 -15,106 -24,267 -31,428l-1635 0c9,-123 16,-253 15,-376 -2,-214 -26,-407 -73,-438 -46,-31 -115,100 -177,367 -29,125 -57,280 -81,447l-462 0c26,-190 57,-380 90,-556 73,-391 153,-714 228,-975 75,-261 143,-459 238,-591 95,-132 216,-197 326,-259 110,-62 209,-121 251,-183 42,-62 26,-127 -45,-221 -71,-93 -198,-215 -270,-386 -72,-171 -90,-391 -62,-609 27,-218 100,-433 214,-594 115,-161 272,-269 445,-324 174,-55 364,-56 543,13z"/>
  <path class="fil6" d="M8493 3521c-11,-49 39,-265 99,-402 60,-138 131,-198 185,-212 55,-14 93,18 97,65 4,48 -28,111 -72,175 -44,64 -101,127 -164,217 -64,90 -134,206 -145,157z"/>
  <path class="fil6" d="M10400 2231c2,-51 58,-196 165,-311 107,-115 265,-200 393,-217 128,-16 227,37 237,110 9,73 -72,167 -186,219 -115,53 -263,64 -353,85 -90,20 -121,49 -163,85 -42,36 -95,79 -93,29z"/>
  <path class="fil6" d="M11456 2084c136,-65 292,-135 404,-155 112,-20 181,9 196,49 15,40 -24,90 -195,140 -171,51 -473,102 -566,97 -93,-5 25,-66 161,-131z"/>
  <path class="fil6" d="M4355 4911c-134,-123 -377,-303 -526,-355 -148,-51 -201,26 -169,102 32,76 148,150 309,235 161,85 365,180 455,194 90,14 65,-53 -69,-176z"/>
  <path class="fil6" d="M3637 3825c-26,-71 -139,-236 -268,-344 -129,-108 -273,-157 -363,-152 -90,5 -125,65 -71,138 55,72 199,157 316,222 116,65 205,111 279,146 74,35 134,60 108,-11z"/>
  <path class="fil6" d="M2668 3625c-86,-41 -210,-79 -289,-88 -79,-9 -115,12 -97,46 18,34 88,79 192,109 104,30 242,44 286,30 44,-14 -5,-56 -92,-97z"/>
  <path class="fil6" d="M9587 6410c60,18 215,84 298,142 82,58 92,109 74,139 -18,31 -64,41 -129,-3 -65,-44 -150,-141 -209,-204 -59,-63 -94,-92 -33,-74z"/>
  <path class="fil6" d="M10474 5226c66,-15 240,-18 379,11 138,30 241,92 272,157 31,64 -10,130 -78,145 -67,15 -161,-21 -258,-70 -97,-49 -197,-112 -269,-156 -71,-45 -113,-72 -47,-87z"/>
  <path class="fil6" d="M5885 3564c5,-69 -79,-298 -164,-455 -85,-157 -169,-242 -273,-293 -104,-51 -228,-69 -300,-41 -72,28 -93,102 -62,189 32,86 116,185 226,268 109,83 243,150 358,229 115,79 210,171 215,102z"/>
  <path class="fil6" d="M7318 4317c106,21 249,56 358,95 109,39 185,83 231,149 46,66 62,154 66,250 4,96 -3,200 -21,277 -19,77 -49,126 -68,182 -19,56 -28,117 -30,163 -2,46 4,76 -11,105 -14,29 -48,57 -77,82 -29,25 -54,46 -95,91 -41,45 -97,115 -126,164 -29,49 -29,78 -15,114 14,36 42,80 31,105 -11,25 -62,31 -99,-10 -38,-41 -62,-129 -62,-209 0,-79 25,-150 75,-227 51,-77 127,-159 168,-245 41,-86 45,-174 27,-227 -18,-53 -59,-71 -82,-57 -23,13 -28,57 -35,89 -7,32 -16,51 -33,47 -17,-4 -41,-33 -49,-74 -8,-41 1,-96 14,-172 13,-76 31,-173 38,-271 7,-99 3,-199 -24,-249 -27,-50 -78,-51 -139,-69 -61,-19 -131,-56 -181,-82 -50,-27 -79,-43 -58,-47 21,-4 91,5 197,26z"/>
  <path class="fil6" d="M7450 6495c17,18 40,70 47,111 7,41 0,71 -8,103 -8,32 -15,67 -27,90 -12,23 -27,35 -42,29 -15,-6 -28,-30 -34,-74 -6,-44 -4,-107 1,-152 5,-45 14,-70 24,-91 10,-20 22,-35 40,-16z"/>
  <path class="fil6" d="M9432 3896c66,-112 236,-344 407,-434 171,-90 343,-38 415,50 72,88 44,211 -67,289 -111,78 -305,109 -443,134 -138,24 -219,41 -279,53 -60,12 -99,20 -33,-92z"/>
 </g>
</svg>
