<?xml version="1.0" encoding="UTF-8"?>
<!DOCTYPE svg PUBLIC "-//W3C//DTD SVG 1.1//EN" "http://www.w3.org/Graphics/SVG/1.1/DTD/svg11.dtd">
<!-- Creator: CorelDRAW 2017 -->
<svg xmlns="http://www.w3.org/2000/svg" xml:space="preserve" width="143mm" height="143mm" version="1.1" style="shape-rendering:geometricPrecision; text-rendering:geometricPrecision; image-rendering:optimizeQuality; fill-rule:evenodd; clip-rule:evenodd"
viewBox="0 0 14300 14300"
 xmlns:xlink="http://www.w3.org/1999/xlink">
 <defs>
  <style type="text/css">
   <![CDATA[
    .fil3 {fill:black}
    .fil5 {fill:#4D4D4D}
    .fil1 {fill:gray}
    .fil2 {fill:#999999}
    .fil0 {fill:red}
    .fil4 {fill:white}
   ]]>
  </style>
 </defs>
 <g id="Слой_x0020_1">
  <metadata id="CorelCorpID_0Corel-Layer"/>
  <path class="fil0" d="M9583 4228c-272,-164 -793,-422 -1213,-586 -420,-164 -739,-235 -1038,-166 -299,69 -580,278 -795,468 -216,189 -367,359 -487,453 -120,94 -209,112 -344,83 -135,-29 -315,-104 -522,-203 -207,-98 -442,-220 -593,-266 -151,-47 -220,-19 -230,34 -10,53 38,131 143,214 104,82 265,168 383,275 118,106 194,233 327,313 133,81 322,115 448,185 125,70 187,174 164,231 -22,57 -128,68 -260,35 -133,-33 -293,-109 -337,-112 -44,-3 29,67 98,149 69,83 134,179 85,249 -48,70 -210,114 -372,143 -162,29 -324,42 -445,101 -121,58 -200,162 -263,331 -63,169 -109,404 -172,570 -64,166 -145,263 -352,371 -207,108 -540,227 -935,364 -395,137 -851,293 -1115,442 -264,149 -337,290 -324,392 12,101 109,162 266,149 157,-13 375,-101 583,-226 208,-125 406,-288 579,-404 173,-116 322,-187 443,-165 120,22 212,136 191,244 -21,108 -155,210 -381,325 -225,114 -542,241 -745,335 -203,95 -294,157 -342,250 -49,92 -57,215 29,293 86,79 266,113 530,23 264,-91 614,-307 929,-490 315,-182 597,-330 886,-485 290,-154 587,-315 867,-338 280,-23 543,91 674,249 131,158 131,359 78,545 -53,186 -159,357 -218,528 -58,171 -69,342 -39,447 31,105 103,144 227,110 124,-34 301,-141 446,-203 145,-62 259,-78 332,-31 73,47 106,158 138,249 32,91 64,161 222,183 158,22 442,-4 792,-207 350,-203 767,-584 993,-869 226,-285 261,-475 331,-683 71,-208 178,-434 285,-564 107,-130 214,-165 336,-195 122,-30 260,-55 357,-165 97,-110 154,-304 147,-531 -8,-228 -80,-488 -115,-681 -34,-192 -31,-316 -38,-418 -7,-101 -25,-180 -95,-282 -70,-101 -193,-225 -239,-355 -46,-130 -17,-267 -13,-371 4,-104 -18,-174 -289,-339z"/>
  <path class="fil0" d="M3440 5796c-95,12 -237,4 -398,21 -161,16 -341,57 -482,91 -141,34 -242,61 -312,51 -70,-11 -110,-60 -51,-135 59,-75 218,-176 393,-237 175,-62 367,-84 521,-73 155,11 272,54 353,94 80,41 123,78 120,112 -2,34 -49,65 -144,76z"/>
  <path class="fil0" d="M4430 10843c-82,40 -204,128 -285,206 -81,77 -120,144 -193,209 -73,64 -181,127 -293,204 -112,78 -229,170 -290,261 -61,91 -65,179 24,189 89,9 270,-60 391,-159 121,-99 181,-226 248,-327 67,-101 141,-177 230,-243 89,-66 194,-122 252,-181 58,-59 70,-121 55,-156 -15,-35 -57,-42 -139,-2z"/>
  <path class="fil1" d="M6266 5137c-45,89 -38,235 -59,414 -21,179 -69,392 -103,526 -34,134 -52,190 32,321 84,131 270,336 584,695 313,360 753,874 1201,1354 447,479 902,923 1307,1253 405,330 759,546 1014,697 255,151 412,237 488,272 76,35 73,21 -69,-170 -142,-190 -421,-556 -846,-1106 -425,-550 -996,-1285 -1490,-1943 -494,-658 -912,-1240 -1193,-1637 -282,-397 -427,-610 -509,-718 -82,-108 -100,-111 -157,-96 -57,15 -154,48 -200,137z"/>
  <path class="fil2" d="M5610 6528c73,-78 214,-164 345,-296 131,-132 250,-311 323,-425 73,-114 99,-162 194,-181 95,-19 259,-7 701,24 442,32 1162,84 1850,134 688,50 1344,99 1801,162 457,63 714,142 994,237 280,95 582,207 756,274 174,67 221,90 100,105 -121,15 -410,22 -1112,52 -702,30 -1817,82 -2733,119 -917,37 -1635,58 -2140,73 -505,15 -798,23 -955,13 -157,-11 -180,-41 -189,-91 -9,-50 -6,-121 67,-199z"/>
  <path class="fil3" d="M6810 5997c60,4 118,27 158,70 40,43 62,108 60,168 -1,60 -26,116 -62,157 -37,41 -86,67 -144,74 -59,7 -127,-7 -175,-34 -48,-28 -74,-71 -88,-121 -14,-51 -14,-109 -1,-159 14,-50 42,-90 87,-117 45,-27 105,-41 165,-37z"/>
  <path class="fil3" d="M3226 6579c97,36 205,109 278,213 73,104 110,241 115,359 5,118 -23,219 -70,311 -47,92 -112,176 -206,238 -94,62 -217,101 -346,102 -129,1 -263,-36 -365,-101 -103,-64 -173,-156 -220,-241 -46,-85 -68,-165 -72,-252 -4,-88 9,-184 48,-275 39,-92 103,-179 178,-241 75,-62 161,-97 228,-117 67,-21 116,-26 183,-29 67,-3 153,-3 250,34zm2446 -233c-33,-8 -74,-5 -110,-3 -36,2 -68,2 -219,-3 -151,-5 -421,-14 -678,-25 -256,-11 -499,-24 -676,-37 -177,-13 -289,-26 -356,-57 -67,-31 -89,-79 -115,-119 -25,-40 -53,-72 -96,-87 -43,-15 -101,-13 -159,-6 -59,7 -118,21 -165,54 -47,34 -80,88 -115,120 -34,33 -70,44 -143,63 -73,20 -183,48 -300,109 -117,62 -242,157 -333,290 -90,133 -146,305 -158,475 -12,171 20,340 85,490 65,150 164,281 291,369 127,89 282,135 432,146 150,11 296,-13 428,-62 132,-48 252,-121 382,-228 131,-107 272,-249 445,-376 172,-127 376,-239 593,-321 217,-82 448,-134 654,-164 206,-30 387,-37 493,-45 106,-7 138,-15 148,-33 10,-18 -1,-46 -46,-131 -45,-86 -123,-229 -174,-311 -51,-82 -76,-103 -108,-111z"/>
  <path class="fil3" d="M4788 3855c325,367 834,893 1103,1168 268,275 296,299 323,310 27,10 53,7 156,-12 103,-19 282,-52 377,-74 95,-21 106,-31 104,-48 -2,-18 -17,-44 -58,-92 -41,-48 -108,-119 -190,-222 -82,-103 -179,-237 -270,-393 -91,-157 -177,-336 -235,-502 -58,-166 -88,-319 -99,-464 -11,-145 -4,-283 7,-425 11,-142 26,-287 17,-433 -9,-145 -43,-291 -104,-405 -62,-114 -151,-196 -254,-267 -103,-71 -218,-131 -364,-160 -145,-30 -321,-30 -488,19 -168,48 -328,145 -440,259 -112,114 -175,244 -200,406 -24,162 -9,356 -2,453 7,97 7,97 78,201 71,104 213,313 538,681zm860 -827c-47,92 -112,176 -206,238 -94,62 -217,101 -346,102 -129,1 -263,-36 -365,-101 -103,-64 -173,-156 -220,-241 -46,-85 -68,-165 -72,-252 -4,-88 9,-184 48,-275 39,-92 103,-179 178,-241 75,-62 161,-97 228,-117 67,-21 116,-26 183,-29 67,-3 153,-3 250,34 97,36 205,109 278,213 73,104 110,241 115,359 5,118 -23,219 -70,311z"/>
  <path class="fil4" d="M12215 6432c-110,-49 -380,-146 -630,-223 -250,-77 -479,-134 -1051,-198 -573,-64 -1489,-133 -2175,-183 -686,-50 -1143,-81 -1330,-86 -187,-5 -105,14 338,72 443,58 1246,155 1911,246 665,91 1191,177 1518,241 327,64 454,105 569,132 115,28 219,42 319,48 100,6 197,4 286,4 89,-1 172,-1 238,-2 66,-1 116,-3 6,-52z"/>
  <path class="fil0" d="M9391 8864c18,-64 75,10 274,262 199,253 540,685 751,946 211,261 292,349 344,437 52,88 75,175 72,316 -3,141 -32,336 -47,442 -14,106 -14,121 -2,165 11,44 34,116 57,192 23,76 47,156 42,236 -5,79 -40,157 -98,195 -58,38 -141,35 -191,-11 -50,-46 -68,-136 -67,-200 1,-64 22,-102 37,-147 15,-45 25,-98 30,-146 5,-49 4,-93 7,-177 3,-83 8,-205 -15,-274 -23,-69 -75,-87 -121,-80 -46,7 -87,37 -102,84 -15,47 -6,109 -7,196 -1,86 -13,196 -50,269 -38,72 -101,107 -168,87 -67,-20 -136,-96 -153,-171 -17,-75 17,-151 41,-220 23,-70 35,-133 45,-176 10,-43 18,-65 16,-97 -2,-32 -14,-74 -55,-159 -42,-84 -113,-211 -163,-248 -49,-37 -76,16 -90,83 -13,67 -13,148 -42,200 -29,52 -87,75 -151,49 -64,-26 -133,-101 -145,-188 -12,-87 35,-185 63,-255 28,-70 37,-111 23,-140 -15,-29 -53,-44 -84,-62 -31,-18 -54,-37 -59,-99 -6,-62 6,-166 35,-244 29,-78 75,-130 87,-208 12,-78 -12,-182 -32,-252 -20,-69 -38,-104 -57,-222 -19,-118 -41,-318 -23,-382z"/>
  <path class="fil0" d="M10779 12493c45,68 97,213 108,350 11,137 -20,266 -84,345 -64,79 -161,109 -229,69 -68,-40 -107,-150 -100,-267 7,-118 59,-243 97,-335 38,-92 62,-152 93,-186 31,-34 70,-43 115,25z"/>
  <path class="fil5" d="M6598 5068c-74,-52 -199,-169 -358,-373 -159,-204 -351,-496 -479,-713 -128,-216 -192,-356 -185,-478 7,-122 84,-226 145,-345 61,-119 105,-254 112,-391 7,-137 -24,-278 -43,-368 -19,-90 -27,-131 -9,-128 18,3 62,49 99,106 37,57 65,124 76,232 11,108 3,256 -11,404 -13,149 -33,299 -25,463 8,164 42,343 104,522 61,179 150,357 244,516 94,159 194,297 270,390 76,94 128,142 142,173 15,30 -8,42 -82,-10z"/>
  <path class="fil4" d="M6641 6096c11,1 41,-13 74,-12 33,1 70,17 101,40 31,23 54,53 69,82 14,29 18,57 12,95 -6,39 -23,88 -26,110 -3,22 9,16 25,3 16,-13 37,-34 57,-57 20,-23 38,-49 45,-88 7,-39 2,-91 -15,-130 -17,-39 -45,-64 -76,-81 -31,-18 -64,-28 -92,-34 -28,-6 -52,-8 -74,-6 -21,3 -39,10 -55,18 -16,8 -29,18 -39,30 -10,13 -16,28 -5,29z"/>
  <path class="fil5" d="M5337 6461c-209,23 -692,52 -958,90 -266,38 -316,86 -390,165 -74,79 -172,188 -230,211 -58,23 -75,-40 -126,-131 -51,-90 -135,-208 -256,-280 -120,-72 -276,-99 -391,-112 -115,-13 -190,-13 -184,-31 7,-17 95,-52 156,-86 61,-34 93,-66 134,-96 40,-30 88,-57 137,-73 49,-16 99,-22 136,-15 37,7 62,26 89,61 27,35 56,85 108,117 52,33 127,48 284,64 158,16 398,34 673,43 276,10 587,12 774,21 187,10 251,27 41,50z"/>
  <path class="fil0" d="M10608 3415c4,-54 151,-189 300,-305 149,-116 301,-213 436,-293 135,-80 255,-142 362,-131 107,11 200,96 189,162 -11,66 -127,115 -271,159 -144,44 -316,85 -438,128 -122,43 -193,89 -235,136 -42,47 -55,94 -132,132 -76,37 -216,65 -212,11z"/>
  <path class="fil0" d="M9979 2983c58,-59 146,-192 195,-288 49,-96 58,-156 35,-188 -22,-32 -76,-36 -120,-8 -44,28 -79,88 -115,179 -36,91 -73,212 -78,281 -4,68 24,84 83,25z"/>
 </g>
</svg>
