<?xml version="1.0" encoding="UTF-8"?>
<!DOCTYPE svg PUBLIC "-//W3C//DTD SVG 1.1//EN" "http://www.w3.org/Graphics/SVG/1.1/DTD/svg11.dtd">
<!-- Creator: CorelDRAW 2017 -->
<svg xmlns="http://www.w3.org/2000/svg" xml:space="preserve" width="143mm" height="143mm" version="1.1" style="shape-rendering:geometricPrecision; text-rendering:geometricPrecision; image-rendering:optimizeQuality; fill-rule:evenodd; clip-rule:evenodd"
viewBox="0 0 14300 14300"
 xmlns:xlink="http://www.w3.org/1999/xlink">
 <defs>
  <style type="text/css">
   <![CDATA[
    .str0 {stroke:white;stroke-width:50;stroke-linecap:round;stroke-linejoin:round}
    .fil11 {fill:none}
    .fil2 {fill:black}
    .fil7 {fill:black}
    .fil9 {fill:#2BABE4}
    .fil0 {fill:#33CC33}
    .fil12 {fill:#4D4D4D}
    .fil8 {fill:#999999}
    .fil6 {fill:#F0450C}
    .fil5 {fill:#F54C13}
    .fil4 {fill:#FF9100}
    .fil13 {fill:#FFD663}
    .fil1 {fill:#FFE77B}
    .fil3 {fill:#FFEE00}
    .fil10 {fill:white}
   ]]>
  </style>
 </defs>
 <g id="Слой_x0020_1">
  <metadata id="CorelCorpID_0Corel-Layer"/>
  <path class="fil0" d="M7413 4430c-255,-1580 -1171,-2402 -2748,-2465 1956,-571 3952,210 4648,1811l-49 16c-249,-273 -690,-377 -1114,-231 -425,146 -708,500 -736,867z"/>
  <path class="fil1" d="M4014 7676c358,-162 713,-342 1118,-495 406,-153 862,-280 1322,-353 459,-73 921,-91 1492,17 571,108 1251,344 1879,594 628,250 1204,515 1775,695 571,181 1139,277 1491,358 352,81 490,145 562,261 72,116 80,284 14,408 -65,123 -203,202 -369,286 -166,84 -362,174 -445,241 -83,67 -54,112 14,314 69,202 177,560 61,790 -116,230 -456,330 -825,370 -369,39 -767,17 -1165,56 -398,39 -796,140 -1045,325 -250,185 -351,454 -633,700 -282,246 -745,471 -1248,583 -503,112 -1045,112 -1595,-6 -550,-118 -1107,-353 -1570,-639 -463,-286 -832,-622 -1100,-947 -268,-325 -434,-639 -702,-773 -268,-134 -637,-90 -933,-84 -297,6 -521,-28 -629,-134 -109,-106 -101,-286 -116,-437 -14,-151 -51,-274 -184,-325 -134,-50 -365,-28 -510,-62 -145,-34 -203,-123 -94,-218 109,-95 383,-196 803,-375 420,-179 984,-437 1447,-639 463,-202 825,-347 1183,-510z"/>
  <path class="fil2" d="M5372 3901c92,186 206,534 330,900 124,366 257,751 473,1372 215,621 513,1478 679,1972 166,494 201,624 209,707 8,83 -10,119 -40,141 -29,22 -70,31 -103,14 -33,-18 -60,-61 -234,-546 -174,-484 -496,-1409 -748,-2133 -252,-724 -434,-1249 -561,-1636 -127,-388 -199,-638 -230,-787 -30,-148 -19,-195 22,-205 41,-11 110,14 202,201z"/>
  <path class="fil3" d="M4665 1965c1577,63 2493,884 2748,2465l-20 7c-240,-307 -706,-434 -1155,-278 -341,117 -591,368 -691,653 -32,90 -48,183 -48,277 -21,-106 -43,-209 -65,-311 -244,-1106 -557,-1981 -940,-2625 82,-20 139,-83 171,-187z"/>
  <path class="fil4" d="M4235 2113l0 0zm259 39c383,645 696,1520 940,2625 22,102 44,205 65,311 -59,-75 -131,-140 -213,-192 -254,-161 -603,-204 -941,-86 -448,154 -739,540 -739,930l-20 7c-484,-1332 -268,-2544 650,-3634 104,43 190,56 259,39z"/>
  <path class="fil5" d="M4235 2113c-917,1090 -1134,2302 -650,3634 -249,-273 -690,-377 -1114,-231 -425,146 -708,500 -737,867l-49 16c-435,-1689 657,-3531 2551,-4287z"/>
  <path class="fil6" d="M4494 2152c-69,17 -155,4 -259,-39 -35,-117 29,-240 145,-280 115,-40 242,18 285,132 -33,105 -90,167 -171,187zm-259 -39l0 0z"/>
  <path class="fil7" d="M8246 7752c120,78 314,194 515,319 200,125 407,260 578,372 171,112 306,200 398,253 92,53 140,71 175,64 35,-7 58,-37 74,-99 16,-62 26,-155 74,-253 48,-99 136,-204 248,-278 113,-74 251,-117 381,-128 130,-11 251,11 366,67 115,56 225,146 293,252 68,106 93,228 85,353 -8,125 -49,253 -134,363 -86,110 -216,201 -350,245 -134,44 -271,40 -363,41 -92,1 -140,6 -138,24 2,19 54,52 144,124 90,72 220,185 379,300 160,115 351,233 574,304 223,71 480,96 628,143 148,47 189,117 153,179 -36,63 -149,119 -342,116 -193,-4 -467,-67 -737,-175 -270,-108 -537,-260 -749,-358 -212,-98 -368,-141 -519,-131 -151,10 -297,74 -468,153 -171,79 -367,174 -560,236 -193,61 -383,88 -514,139 -131,51 -203,125 -362,231 -159,106 -407,243 -692,402 -286,159 -610,338 -864,461 -254,123 -436,190 -521,276 -85,87 -72,193 -85,271 -14,78 -55,129 -108,141 -53,12 -119,-13 -172,-61 -52,-47 -91,-117 -137,-230 -46,-113 -101,-271 -109,-380 -9,-109 28,-168 93,-205 65,-37 157,-51 254,-69 97,-18 199,-41 351,-120 152,-78 355,-212 605,-407 250,-195 547,-450 647,-547 100,-97 2,-36 -187,56 -188,92 -467,215 -788,324 -321,109 -683,205 -895,265 -212,60 -273,83 -283,129 -10,46 31,115 7,163 -24,48 -113,75 -194,64 -82,-11 -156,-61 -227,-143 -72,-82 -140,-196 -174,-274 -33,-78 -30,-121 -16,-162 15,-41 42,-81 89,-117 47,-36 113,-69 179,-88 67,-20 134,-26 233,-40 100,-14 232,-35 564,-136 332,-101 864,-282 1209,-445 345,-163 503,-309 664,-384 161,-75 325,-81 442,-100 117,-19 185,-51 366,-120 181,-69 474,-174 596,-269 122,-95 73,-181 -32,-270 -105,-89 -264,-182 -445,-297 -181,-115 -383,-252 -508,-366 -125,-114 -174,-207 -174,-266 0,-59 47,-86 100,-92 53,-6 112,8 165,36 53,27 99,67 220,145z"/>
  <path class="fil8" d="M9201 8537c35,-19 93,-22 115,14 23,36 11,110 0,186 -11,76 -21,155 -22,197 -1,41 8,44 51,45 44,0 122,-2 163,10 41,13 45,41 44,64 -1,23 -8,40 -28,48 -21,8 -56,5 -168,15 -113,9 -303,30 -403,27 -100,-3 -109,-30 -103,-52 5,-22 25,-40 57,-50 32,-10 76,-13 115,-18 38,-5 71,-13 89,-54 18,-41 22,-116 24,-178 2,-63 4,-113 11,-156 7,-43 20,-77 55,-96z"/>
  <path class="fil9" d="M9294 9120c-10,75 -19,150 -31,222 -12,72 -27,140 -38,170 -12,30 -20,21 -33,18 -13,-2 -31,2 -43,6 -13,5 -20,9 -29,9 -8,0 -18,-6 -37,-8 -19,-1 -49,2 -65,6 -15,4 -17,10 -9,-19 8,-29 25,-91 32,-161 8,-70 6,-147 4,-224 37,-3 74,-5 96,-7 22,-2 28,-2 51,-4 23,-2 63,-6 103,-9z"/>
  <path class="fil10" d="M9079 9161c14,-4 40,-4 50,0 10,4 3,13 -5,43 -8,30 -17,82 -26,128 -9,47 -18,89 -27,119 -9,31 -19,50 -26,58 -7,9 -11,8 -10,-10 2,-17 9,-51 15,-90 5,-39 9,-84 10,-124 2,-40 2,-73 3,-94 1,-21 2,-28 15,-32z"/>
  <path class="fil11 str0" d="M11236 8859c-22,64 -44,129 -71,176 -27,47 -59,76 -90,105"/>
  <path class="fil11 str0" d="M11019 8978c53,15 106,29 147,31 41,2 71,-8 95,-21 23,-13 40,-28 57,-43"/>
  <path class="fil12" d="M9475 8982c2,21 3,41 -6,55 -10,14 -30,22 -84,31 -54,9 -140,21 -217,28 -77,7 -146,10 -191,8 -45,-2 -66,-8 -93,-14 -10,-2 -20,-5 -31,-7 -1,2 -2,5 -2,7 -5,22 4,49 103,52 25,1 56,0 91,-2 0,0 0,0 1,0l0 0 95 -7 51 -4 95 -9c3,0 5,0 8,-1 22,-2 43,-4 62,-6 113,-9 147,-7 168,-15 21,-8 27,-25 28,-48 1,-23 -3,-51 -44,-64 -10,-3 -21,-5 -34,-7z"/>
  <path class="fil13" d="M6687 9217c181,-90 264,-161 293,-202 -20,4 -41,3 -59,-7 -8,-4 -16,-10 -26,-25 -7,2 -15,4 -22,6 -74,21 -168,54 -467,181 -299,127 -803,349 -1304,563 -501,213 -998,418 -1438,575 -201,72 -390,134 -553,188 132,84 240,214 354,364 56,-124 146,-203 224,-275 79,-71 146,-135 207,-181 62,-46 118,-74 425,-205 307,-131 864,-363 1324,-549 460,-186 822,-325 1041,-434z"/>
 </g>
</svg>
