<?xml version="1.0" encoding="UTF-8"?>
<!DOCTYPE svg PUBLIC "-//W3C//DTD SVG 1.1//EN" "http://www.w3.org/Graphics/SVG/1.1/DTD/svg11.dtd">
<!-- Creator: CorelDRAW 2017 -->
<svg xmlns="http://www.w3.org/2000/svg" xml:space="preserve" width="143mm" height="143mm" version="1.1" style="shape-rendering:geometricPrecision; text-rendering:geometricPrecision; image-rendering:optimizeQuality; fill-rule:evenodd; clip-rule:evenodd"
viewBox="0 0 14300 14300"
 xmlns:xlink="http://www.w3.org/1999/xlink">
 <defs>
  <style type="text/css">
   <![CDATA[
    .fil2 {fill:black}
    .fil3 {fill:#4D4D4D}
    .fil1 {fill:gray}
    .fil4 {fill:#A60000}
    .fil0 {fill:#FF9933}
    .fil5 {fill:white}
    .fil6 {fill:white}
   ]]>
  </style>
 </defs>
 <g id="Слой_x0020_1">
  <metadata id="CorelCorpID_0Corel-Layer"/>
  <path class="fil0" d="M11385 3622c-1309,5 -3589,42 -4809,84 -1220,42 -1379,89 -1767,313 -388,224 -1005,626 -1472,972 -467,346 -785,636 -855,781 -70,145 108,145 374,154 266,9 622,28 804,93 182,65 192,178 122,266 -70,89 -220,154 -285,229 -65,75 -47,159 -37,337 9,178 9,449 -28,608 -37,159 -112,206 -467,346 -355,140 -991,374 -1379,561 -388,187 -528,327 -626,495 -98,168 -154,365 -173,659 -19,294 0,687 33,930 33,243 79,336 164,411 84,75 206,131 435,201 229,70 566,154 1210,192 645,37 1598,28 2267,28 668,0 1052,9 1253,-47 201,-56 220,-178 262,-308 42,-131 108,-271 252,-355 145,-84 369,-112 724,-136 355,-23 841,-42 1178,-42 336,0 523,19 631,75 108,56 136,149 187,280 51,131 126,299 215,397 89,98 192,126 636,136 444,9 1229,0 1673,-47 444,-47 547,-131 575,-220 28,-89 -19,-182 -136,-299 -117,-117 -304,-257 -379,-509 -75,-252 -37,-617 196,-855 234,-238 664,-350 883,-500 220,-150 229,-336 19,-542 -210,-206 -640,-430 -804,-692 -164,-262 -61,-561 117,-743 178,-182 430,-248 477,-369 47,-122 -112,-299 -290,-542 -178,-243 -374,-551 -444,-846 -70,-294 -14,-575 182,-799 196,-224 533,-393 734,-491 201,-98 266,-126 131,-154 -136,-28 -472,-56 -1781,-51z"/>
  <path class="fil1" d="M10911 6584c-91,317 -266,891 -442,1479 -177,587 -355,1187 -479,1568 -123,381 -191,542 -262,628 -70,85 -143,94 -215,53 -72,-40 -145,-130 -196,-266 -51,-136 -81,-319 -85,-494 -4,-174 17,-340 51,-536 34,-196 81,-421 151,-638 70,-217 164,-425 281,-621 117,-196 257,-379 340,-485 83,-106 108,-136 130,-226 21,-89 38,-238 53,-372 15,-134 28,-253 53,-325 26,-72 64,-98 147,-126 83,-28 211,-57 315,-70 104,-13 185,-9 221,23 36,32 28,91 -64,408z"/>
  <path class="fil1" d="M10902 5160c11,190 19,484 0,706 -19,222 -66,373 -131,470 -65,97 -148,139 -200,155 -52,16 -73,5 -100,-174 -27,-180 -58,-529 -64,-777 -5,-248 16,-395 65,-499 49,-104 126,-166 196,-200 70,-34 134,-40 172,0 38,40 51,128 62,318z"/>
  <path class="fil1" d="M9342 10062c-107,-83 -290,-196 -628,-327 -337,-131 -829,-280 -1268,-371 -439,-91 -826,-126 -1062,-114 -235,12 -318,69 -355,145 -37,76 -29,169 -4,303 24,134 65,308 112,445 47,136 100,234 160,299 60,65 126,97 373,113 248,16 678,16 1129,12 451,-4 923,-13 1182,-17 258,-4 303,-4 349,-20 46,-16 93,-48 123,-97 31,-49 46,-115 37,-174 -8,-60 -40,-113 -148,-196z"/>
  <path class="fil1" d="M5269 5866c72,196 202,557 335,887 133,330 269,628 335,802 66,174 62,226 31,257 -31,32 -88,45 -143,0 -54,-45 -105,-147 -154,-262 -49,-115 -95,-243 -128,-319 -34,-76 -55,-99 -182,-61 -127,38 -360,138 -723,269 -362,130 -854,291 -1309,434 -455,143 -873,267 -1179,356 -306,90 -500,144 -694,199 94,-45 188,-90 313,-145 125,-55 280,-120 459,-197 178,-78 379,-168 586,-291 207,-123 419,-279 527,-429 108,-151 113,-296 118,-442 360,-85 720,-170 1004,-257 284,-87 493,-176 593,-236 100,-60 91,-89 51,-196 -40,-106 -113,-289 -146,-399 -33,-110 -27,-146 6,-176 33,-30 93,-53 130,-61 37,-7 52,1 67,20 15,19 30,49 102,245z"/>
  <path class="fil2" d="M6653 8586c-233,-79 -639,-100 -926,-62 -287,38 -456,136 -608,311 -152,174 -288,425 -388,662 -100,236 -164,457 -225,615 -62,157 -121,251 -223,330 -102,79 -247,143 -343,187 -96,45 -143,70 -153,98 -11,28 15,57 117,79 102,21 281,34 421,28 140,-6 243,-32 336,-130 94,-98 179,-268 270,-432 91,-164 189,-321 307,-479 117,-158 254,-317 418,-436 164,-119 355,-198 548,-238 193,-40 389,-40 523,-63 134,-23 206,-70 213,-162 6,-91 -53,-228 -286,-306z"/>
  <path class="fil2" d="M6549 9356c-191,-24 -480,-75 -737,-62 -257,13 -483,89 -855,260 -372,170 -891,434 -1219,610 -328,177 -464,266 -585,347 -121,81 -228,153 -349,168 -121,15 -257,-28 -379,-117 -121,-89 -228,-226 -283,-319 -55,-94 -60,-145 -6,-164 53,-19 164,-6 268,17 104,23 202,57 349,21 147,-36 342,-143 655,-372 313,-230 742,-583 1145,-836 402,-253 776,-406 1208,-472 432,-66 921,-45 1125,126 203,170 121,490 34,651 -87,162 -179,166 -370,142z"/>
  <path class="fil2" d="M9997 6248c-54,6 -95,17 -96,47 -1,30 37,78 82,138 45,59 97,129 119,259 23,129 16,318 -37,377 -53,59 -151,-11 -266,-77 -115,-66 -246,-128 -434,-190 -187,-62 -431,-124 -548,-210 -118,-86 -109,-198 -93,-266 16,-68 40,-93 74,-114 35,-21 80,-38 128,-46 47,-8 97,-8 158,-8 62,0 135,0 202,-49 67,-49 126,-147 191,-213 65,-65 137,-98 186,-124 50,-26 77,-47 88,-123 10,-76 3,-209 43,-344 39,-135 125,-274 243,-376 117,-102 266,-168 362,-199 95,-31 137,-28 140,-56 3,-28 -34,-88 -40,-121 -6,-33 18,-40 69,-50 52,-10 131,-24 211,-26 81,-1 163,11 237,30 74,20 141,47 212,98 71,51 145,124 194,197 48,72 70,144 63,201 -6,57 -41,100 -31,136 10,36 64,65 117,128 53,62 104,158 125,261 21,103 10,213 -22,327 -32,114 -87,231 -182,338 -95,107 -230,204 -351,262 -121,58 -227,77 -315,114 -88,37 -157,91 -156,134 1,42 74,72 83,86 9,14 -46,12 -121,2 -75,-11 -169,-30 -234,-68 -65,-38 -100,-94 -128,-162 -28,-68 -49,-149 -62,-203 -13,-55 -18,-84 -54,-99 -36,-15 -104,-15 -158,-10z"/>
  <path class="fil3" d="M8384 7987c-77,140 -141,188 -294,237 -153,49 -396,100 -739,98 -343,-2 -787,-57 -992,-80 -205,-23 -171,-13 -119,18 51,31 119,82 181,251 62,169 118,454 135,675 18,220 -3,375 -44,504 -40,129 -100,231 -110,275 -11,45 28,32 106,0 79,-32 198,-83 338,-128 140,-45 302,-83 512,-134 210,-51 469,-114 675,-121 206,-7 359,42 493,62 134,20 250,11 365,-31 115,-42 228,-117 333,-257 105,-139 203,-343 300,-569 97,-226 192,-474 264,-709 72,-235 120,-457 172,-625 52,-168 107,-283 116,-398 10,-115 -26,-232 -67,-299 -41,-67 -86,-85 -141,-122 -55,-37 -121,-92 -214,-102 -93,-9 -213,28 -293,50 -79,22 -118,28 -153,-21 -35,-49 -67,-153 -142,-215 -75,-62 -192,-84 -310,-105 -56,56 -111,111 -173,186 -62,75 -130,169 -142,297 -12,128 33,290 75,405 43,115 83,183 58,333 -25,150 -115,383 -192,523z"/>
  <path class="fil2" d="M10256 6768c74,266 118,739 155,1188 37,450 67,877 169,1167 102,290 277,444 328,566 51,122 -21,212 -115,219 -94,7 -209,-67 -320,-209 -111,-142 -218,-350 -307,-653 -89,-303 -161,-700 -211,-1045 -50,-345 -78,-637 -108,-866 -30,-229 -61,-395 -41,-510 21,-115 93,-179 182,-181 89,-2 194,57 268,323z"/>
  <path class="fil4" d="M9263 10325c-135,8 -360,39 -479,17 -118,-22 -129,-98 -157,-152 -28,-54 -74,-86 -105,-65 -31,20 -47,93 -72,147 -25,54 -58,89 -125,108 -66,19 -165,21 -242,30 -77,9 -131,24 -178,4 -47,-19 -88,-72 -120,-109 -32,-37 -55,-58 -77,-36 -23,22 -45,87 -76,113 -31,26 -70,12 -97,-9 -27,-20 -41,-47 -64,-44 -23,3 -55,34 -92,59 -37,24 -80,41 -177,48 -97,7 -248,4 -371,-9 -123,-13 -218,-35 -300,-62 -81,-27 -148,-59 -212,-106 -63,-48 -123,-111 -160,-157 -37,-46 -52,-75 -51,-46 1,29 17,116 40,198 23,82 53,160 111,218 58,58 145,97 330,120 185,23 469,30 628,32 159,2 192,-2 215,22 23,24 35,75 49,107 13,32 27,44 50,31 23,-13 55,-52 81,-80 26,-28 48,-46 82,-56 34,-10 82,-11 191,-15 108,-4 278,-9 393,-7 116,2 177,11 221,27 44,17 71,41 108,52 38,11 87,7 121,-5 34,-12 51,-34 94,-49 43,-16 112,-26 195,-40 83,-14 180,-30 259,-49 78,-19 138,-39 174,-62 36,-23 48,-50 50,-75 2,-25 -7,-50 -34,-70 -26,-20 -71,-36 -205,-28z"/>
  <path class="fil5" d="M9263 9981c39,-34 97,-64 164,-72 67,-9 144,4 207,48 63,43 113,117 133,195 20,78 11,159 -32,227 -43,68 -120,124 -198,143 -79,19 -160,2 -227,-40 -67,-43 -120,-111 -139,-180 -19,-69 -4,-139 14,-194 18,-54 39,-93 79,-127z"/>
  <path class="fil4" d="M8567 7485c19,-78 32,-151 69,-226 37,-75 100,-152 159,-236 60,-84 117,-176 160,-233 43,-56 72,-77 99,-84 26,-6 49,2 46,27 -3,25 -32,68 -80,128 -48,60 -114,139 -155,201 -40,63 -54,110 -46,140 8,31 39,45 85,34 46,-11 107,-48 177,-90 70,-42 149,-90 206,-112 57,-22 92,-18 101,-4 9,14 -9,38 -45,60 -35,22 -88,41 -126,63 -38,22 -60,46 -63,75 -3,29 12,64 32,90 20,27 45,47 91,45 45,-1 111,-23 174,-47 62,-24 121,-49 178,-75 57,-25 112,-51 144,-60 32,-9 42,-2 45,16 3,18 -2,46 -33,78 -31,32 -89,69 -167,93 -77,24 -174,35 -253,55 -79,20 -142,48 -189,90 -48,42 -80,96 -89,134 -8,37 7,57 37,69 30,12 74,18 101,28 27,10 38,25 27,43 -10,18 -40,38 -77,48 -36,10 -78,10 -91,26 -13,16 3,49 13,77 10,27 14,49 -13,61 -27,12 -86,15 -141,17 -55,2 -107,4 -141,21 -34,17 -50,48 -49,85 1,37 20,79 12,105 -8,26 -42,36 -80,30 -39,-6 -82,-29 -126,-16 -44,12 -89,59 -102,109 -13,50 6,103 10,144 4,41 -8,70 -35,68 -28,-2 -71,-36 -94,-120 -22,-84 -23,-219 -12,-304 11,-85 33,-119 64,-178 30,-60 69,-145 100,-229 32,-85 57,-169 76,-248z"/>
  <path class="fil2" d="M8441 6777c-45,93 -89,186 -164,344 -75,158 -179,380 -324,607 -145,228 -331,460 -441,656 -110,196 -145,354 -128,508 17,154 87,305 147,358 60,54 111,11 133,-52 22,-63 15,-146 22,-235 7,-89 28,-183 72,-287 44,-104 110,-218 188,-312 78,-94 168,-169 276,-319 108,-150 233,-377 358,-603 6,-25 12,-51 9,-86 -2,-35 -12,-79 -28,-126 -16,-47 -38,-97 -55,-147 -18,-50 -32,-101 -42,-152 -10,-51 -16,-103 -23,-154z"/>
  <g id="_2907275443232">
   <path class="fil6" d="M10603 5570c15,-188 17,-250 199,-328 -71,143 -99,198 -199,328z"/>
   <path class="fil6" d="M10328 5101c62,-178 79,-238 275,-268 -105,120 -145,167 -275,268z"/>
   <path class="fil6" d="M10864 5435c-227,11 -152,-12 -355,29 78,-175 230,-115 355,-29z"/>
   <path class="fil6" d="M10614 5036c-222,-46 -144,-49 -351,-61 120,-150 251,-54 351,61z"/>
  </g>
  <path class="fil4" d="M8574 8893c26,36 72,126 86,193 13,67 -6,111 -31,131 -25,19 -55,14 -68,-22 -13,-36 -10,-103 -9,-155 1,-52 -1,-89 -4,-111 -4,-22 -9,-29 -8,-41 1,-12 8,-30 34,6z"/>
  <path class="fil4" d="M7542 11198c28,37 81,146 95,247 14,101 -11,192 -51,242 -41,49 -97,56 -116,0 -19,-56 -2,-176 11,-263 12,-86 19,-139 25,-183 5,-44 9,-79 37,-42z"/>
  <path class="fil4" d="M8655 11769c31,76 93,208 103,309 11,101 -30,169 -95,180 -65,11 -155,-37 -179,-118 -24,-81 19,-196 53,-282 34,-86 61,-145 74,-164 13,-19 13,0 44,76z"/>
 </g>
</svg>
