<?xml version="1.0" encoding="UTF-8"?>
<!DOCTYPE svg PUBLIC "-//W3C//DTD SVG 1.1//EN" "http://www.w3.org/Graphics/SVG/1.1/DTD/svg11.dtd">
<!-- Creator: CorelDRAW 2017 -->
<svg xmlns="http://www.w3.org/2000/svg" xml:space="preserve" width="143mm" height="143mm" version="1.1" style="shape-rendering:geometricPrecision; text-rendering:geometricPrecision; image-rendering:optimizeQuality; fill-rule:evenodd; clip-rule:evenodd"
viewBox="0 0 14300 14300"
 xmlns:xlink="http://www.w3.org/1999/xlink">
 <defs>
  <style type="text/css">
   <![CDATA[
    .fil6 {fill:black}
    .fil1 {fill:black}
    .fil4 {fill:#917256}
    .fil0 {fill:#9786B8}
    .fil5 {fill:#A60000}
    .fil3 {fill:#FFFF66}
    .fil2 {fill:white}
   ]]>
  </style>
 </defs>
 <g id="Слой_x0020_1">
  <metadata id="CorelCorpID_0Corel-Layer"/>
  <g id="_2695614261568">
   <path class="fil0" d="M10594 4085c-280,4 -637,180 -808,409 -171,229 -157,512 -118,780 39,268 102,522 127,713 25,191 11,318 -78,459 -88,141 -250,296 -353,614 -102,318 -145,797 -173,1192 -28,395 -42,706 14,924 56,219 183,346 243,490 60,145 53,307 35,557 -18,250 -46,589 -56,907 -11,318 -4,614 -155,840 -152,226 -462,381 -898,441 -436,60 -997,25 -1743,-4 -747,-29 -1680,-52 -2579,15 -900,67 -1766,224 -2155,422 -389,198 -301,438 -31,579 270,141 721,183 1270,201 549,18 1194,11 1838,3 644,-7 1286,-14 1956,-28 670,-14 1369,-35 2018,-67 649,-32 1249,-74 1743,-113 494,-39 882,-74 1087,-363 205,-289 226,-833 198,-1334 -28,-501 -106,-960 -106,-1256 0,-296 78,-430 148,-459 71,-28 134,49 194,-4 60,-53 116,-236 134,-522 18,-286 -4,-674 -32,-1083 -28,-409 -64,-840 -176,-1157 -113,-318 -303,-522 -434,-737 -131,-215 -201,-441 -233,-695 -32,-254 -25,-536 -49,-773 -25,-236 -81,-427 -212,-607 -131,-180 -335,-349 -616,-346z"/>
   <path class="fil1" d="M4908 2420c255,69 379,223 481,401 102,178 183,379 238,546 55,167 83,299 97,477 14,179 15,404 -21,573 -36,168 -109,280 -197,342 -88,63 -190,77 -242,136 -52,59 -54,163 38,237 92,74 279,116 435,182 156,66 282,155 440,195 158,40 350,32 510,20 160,-12 289,-27 414,-102 126,-75 248,-210 373,-328 125,-119 252,-222 353,-309 100,-88 173,-161 289,-209 115,-48 272,-71 351,22 79,93 81,301 -6,441 -87,141 -263,214 -445,358 -183,144 -373,358 -550,505 -178,147 -343,227 -567,281 -224,55 -508,84 -701,101 -194,16 -298,19 -345,243 -47,223 -38,667 -37,1593 2,926 -5,2334 2,3151 6,817 24,1044 101,1192 77,148 211,219 326,305 115,86 210,187 259,283 49,97 52,189 -113,236 -165,46 -499,46 -758,34 -259,-13 -442,-38 -548,-116 -106,-78 -133,-210 -142,-824 -9,-614 0,-1710 -2,-2385 -2,-675 -14,-929 -40,-1074 -26,-145 -66,-182 -96,-113 -31,69 -52,243 -67,958 -15,715 -24,1970 -41,2646 -17,676 -41,774 -119,831 -78,57 -210,73 -378,81 -168,8 -373,8 -545,-2 -171,-10 -309,-29 -396,-64 -87,-36 -124,-88 -133,-173 -9,-86 9,-205 70,-291 61,-86 165,-138 257,-187 92,-49 171,-95 213,-372 41,-277 44,-785 52,-1443 8,-658 20,-1466 26,-2199 6,-733 6,-1391 -14,-1757 -20,-366 -60,-439 -119,-421 -60,18 -139,129 -204,433 -64,305 -113,804 -126,1200 -12,396 12,690 38,918 26,228 54,390 58,517 5,127 -14,219 -77,259 -63,40 -170,28 -277,-103 -107,-130 -214,-378 -262,-810 -47,-432 -35,-1047 -2,-1521 34,-474 89,-808 187,-1099 98,-291 239,-539 424,-718 185,-179 415,-289 597,-346 183,-56 318,-59 381,-119 63,-60 53,-177 -6,-238 -60,-61 -169,-67 -286,-119 -117,-52 -241,-151 -361,-288 -120,-137 -236,-312 -298,-543 -62,-231 -70,-518 20,-771 90,-253 277,-473 563,-590 287,-118 673,-133 928,-64z"/>
   <path class="fil2" d="M5294 7006c-99,1 -282,23 -450,30 -167,7 -319,-1 -426,-12 -107,-10 -169,-22 -209,-22 -40,0 -57,11 -60,30 -3,19 8,46 41,68 33,22 86,38 191,47 105,9 261,12 396,12 135,-1 248,-5 341,-16 94,-11 168,-30 216,-48 48,-18 69,-36 72,-54 3,-18 -13,-37 -113,-36z"/>
   <path class="fil2" d="M5521 6607c-124,-1 -358,21 -585,32 -227,11 -446,11 -615,1 -169,-10 -287,-29 -346,-18 -59,11 -58,52 -28,86 31,34 92,60 226,76 134,16 342,22 563,20 221,-2 455,-13 600,-26 145,-13 201,-28 242,-48 41,-20 66,-46 72,-71 6,-25 -7,-51 -130,-52z"/>
   <path class="fil2" d="M5564 6342c-133,18 -388,49 -611,64 -223,16 -416,16 -561,8 -145,-8 -243,-25 -310,-39 -66,-14 -101,-24 -127,-40 -26,-16 -45,-38 -54,-60 -9,-22 -10,-46 9,-62 19,-17 57,-27 152,-19 95,8 246,33 406,46 160,12 329,12 469,5 140,-7 252,-19 350,-28 98,-9 184,-16 247,-23 63,-7 105,-15 135,-11 30,4 50,19 57,43 7,24 1,57 -8,75 -9,19 -22,23 -155,41z"/>
   <path class="fil2" d="M5491 5947c-87,15 -247,42 -439,56 -192,14 -416,15 -581,8 -166,-7 -274,-22 -339,-35 -65,-14 -86,-26 -97,-45 -11,-19 -11,-44 -4,-64 6,-20 19,-33 55,-37 36,-4 97,2 186,12 89,10 207,24 343,30 137,6 292,3 419,-5 127,-7 224,-19 297,-30 73,-11 121,-21 159,-27 38,-6 67,-8 86,1 18,9 26,28 29,49 3,21 2,43 -5,55 -7,13 -21,16 -108,31z"/>
   <path class="fil2" d="M4876 7308c4,-201 7,-584 6,-970 -1,-386 -7,-776 -15,-994 -8,-218 -19,-263 -33,-285 -14,-21 -30,-18 -50,-3 -20,15 -44,41 -53,144 -9,104 -5,284 -1,563 4,279 6,655 5,924 -1,268 -4,428 -5,544 -1,116 0,187 5,240 5,53 15,87 34,104 20,17 49,17 67,9 18,-8 24,-24 28,-42 5,-17 8,-35 12,-236z"/>
   <path class="fil2" d="M5026 7669c-102,20 -221,27 -322,19 -101,-8 -182,-30 -242,-47 -60,-17 -98,-27 -135,-30 -37,-3 -74,2 -115,20 -41,18 -86,49 -115,85 -30,37 -44,79 -50,122 -7,43 -5,87 23,135 28,48 84,100 164,167 80,67 186,148 269,211 83,62 145,105 193,127 49,22 84,25 126,18 42,-7 91,-24 183,-85 92,-62 228,-168 328,-248 99,-80 162,-135 198,-197 36,-62 46,-132 26,-192 -20,-60 -68,-111 -117,-141 -49,-30 -97,-38 -163,-26 -66,12 -150,44 -252,63zm-520 220c12,30 14,59 9,87 -6,28 -20,54 -43,70 -23,17 -56,24 -83,25 -27,1 -49,-3 -75,-20 -26,-17 -55,-48 -73,-79 -18,-30 -24,-61 -21,-88 3,-27 15,-51 33,-69 18,-18 41,-30 62,-36 20,-6 37,-4 59,0 23,4 52,11 76,30 25,19 45,49 56,79zm575 -9c14,-31 40,-60 70,-78 30,-18 65,-24 94,-22 29,2 51,12 70,27 19,15 34,35 43,61 9,26 11,57 4,87 -7,30 -25,59 -54,80 -30,21 -72,33 -110,33 -38,0 -71,-13 -93,-31 -22,-18 -33,-40 -36,-67 -4,-27 -1,-59 13,-90z"/>
   <path class="fil2" d="M3456 5486c45,-24 115,-55 183,-55 69,0 136,32 187,78 51,46 85,107 103,173 18,66 19,137 5,196 -14,59 -43,107 -71,119 -28,13 -56,-10 -73,-49 -17,-40 -22,-97 -36,-149 -14,-53 -36,-101 -77,-133 -41,-32 -101,-47 -152,-50 -52,-3 -96,5 -121,5 -26,0 -33,-10 -35,-24 -2,-14 2,-33 14,-51 12,-18 31,-36 76,-60z"/>
   <path class="fil2" d="M5819 6071c-24,-52 -59,-138 -80,-218 -21,-80 -26,-155 -15,-210 11,-55 39,-92 73,-114 34,-22 74,-31 115,-24 41,7 82,28 95,51 14,23 0,49 -26,76 -26,28 -63,57 -83,101 -20,44 -21,102 -7,158 14,56 44,111 54,156 10,44 1,78 -15,95 -16,17 -40,17 -57,8 -18,-9 -30,-27 -54,-78z"/>
   <path class="fil2" d="M3519 5848c21,37 31,114 -4,234 -34,120 -113,284 -184,471 -71,186 -134,395 -178,565 -44,170 -68,300 -76,601 -7,301 2,773 22,1067 21,294 52,409 65,492 13,83 7,133 -14,143 -21,9 -59,-22 -99,-145 -40,-123 -83,-338 -107,-561 -24,-224 -30,-457 -32,-678 -2,-221 0,-430 29,-651 29,-221 85,-454 154,-687 69,-233 151,-466 209,-614 58,-147 91,-209 125,-241 34,-32 67,-34 89,4z"/>
   <path class="fil2" d="M3134 7533c26,28 49,68 49,115 0,48 -22,103 -60,146 -39,43 -94,74 -148,75 -54,1 -107,-27 -131,-79 -24,-53 -20,-130 -11,-182 9,-52 22,-78 44,-97 22,-19 53,-30 83,-35 31,-5 62,-4 91,4 29,8 57,24 83,52z"/>
   <path class="fil2" d="M6182 5766c95,0 242,13 407,-7 164,-21 345,-75 501,-148 156,-74 286,-167 395,-255 109,-88 195,-172 278,-252 82,-81 160,-158 235,-221 75,-63 148,-110 200,-108 51,3 81,56 17,154 -63,98 -219,242 -379,392 -160,151 -323,308 -500,424 -178,115 -370,188 -572,218 -202,30 -415,17 -544,-2 -129,-19 -173,-43 -196,-72 -22,-29 -22,-62 -1,-86 21,-23 64,-36 159,-36z"/>
   <path class="fil2" d="M4191 8459c61,47 143,118 198,169 55,51 83,83 76,130 -7,47 -50,108 -91,180 -41,72 -80,154 -97,503 -17,349 -11,966 -8,1472 3,507 3,904 7,1213 5,309 14,529 31,678 17,149 41,228 44,279 3,51 -16,76 -62,84 -46,8 -118,1 -181,-2 -62,-3 -115,-1 -157,-18 -42,-17 -74,-52 -74,-120 0,-68 32,-169 69,-313 37,-145 80,-333 111,-770 31,-437 49,-1124 62,-1631 12,-507 18,-835 15,-1052 -3,-216 -14,-321 -29,-432 -15,-111 -34,-228 -43,-307 -9,-78 -9,-118 10,-125 20,-8 59,15 119,62z"/>
   <path class="fil2" d="M4193 10576c69,5 162,21 214,65 52,44 63,115 47,179 -17,64 -62,122 -126,158 -64,35 -148,49 -208,23 -61,-25 -98,-89 -124,-150 -25,-62 -38,-121 -30,-165 8,-44 38,-72 76,-90 37,-18 82,-25 151,-21z"/>
   <path class="fil2" d="M5407 8448c-61,47 -143,118 -198,169 -55,51 -83,83 -76,130 7,47 50,108 91,180 41,72 80,154 97,503 17,349 11,966 8,1472 -3,507 -3,904 -7,1213 -5,309 -14,529 -31,678 -17,149 -41,228 -44,279 -3,51 16,76 62,84 46,8 118,1 181,-2 62,-3 115,-1 157,-18 42,-17 74,-52 74,-120 0,-68 -32,-169 -69,-313 -37,-145 -80,-333 -111,-770 -31,-437 -49,-1124 -62,-1631 -12,-507 -18,-835 -15,-1052 3,-216 14,-321 29,-432 15,-111 34,-228 43,-307 9,-78 9,-117 -10,-125 -20,-8 -59,15 -119,62z"/>
   <path class="fil2" d="M5404 10565c-69,5 -162,21 -214,65 -52,44 -63,115 -47,179 17,64 62,122 126,158 64,35 148,49 208,23 61,-25 98,-89 124,-150 25,-62 38,-121 30,-165 -8,-44 -38,-72 -76,-90 -37,-18 -82,-25 -151,-21z"/>
   <path class="fil2" d="M3738 12847c-96,19 -304,95 -411,146 -107,51 -114,78 -86,96 28,18 89,26 180,30 91,4 211,3 276,-2 65,-5 76,-13 84,-49 8,-36 15,-101 26,-152 11,-51 27,-88 -69,-69z"/>
   <path class="fil2" d="M5810 12853c-28,52 -45,170 -38,231 7,62 39,67 109,77 70,10 180,25 267,27 87,1 152,-11 129,-57 -24,-46 -137,-126 -212,-183 -76,-56 -114,-89 -152,-112 -38,-23 -75,-36 -103,16z"/>
   <path class="fil2" d="M7201 5497c49,7 120,24 160,62 40,38 49,97 45,144 -5,47 -23,83 -53,113 -30,31 -71,57 -128,64 -57,7 -131,-5 -182,-39 -51,-34 -79,-89 -82,-141 -3,-52 20,-102 47,-135 27,-34 59,-51 88,-62 29,-10 56,-13 105,-6z"/>
   <g>
    <path class="fil3" d="M8010 2814c-8,332 1,943 -2,1427 -3,484 -17,841 -2,1012 15,171 60,156 115,159 56,3 122,24 155,-7 33,-31 34,-114 32,-430 -2,-316 -5,-864 -9,-1290 -4,-426 -9,-730 -13,-899 -4,-169 -6,-203 -12,-237 -6,-34 -17,-67 -35,-97 -18,-30 -44,-56 -74,-68 -29,-12 -62,-10 -91,18 -29,28 -55,81 -64,413z"/>
    <path class="fil4" d="M8279 2644c5,-90 10,-131 20,-162 10,-31 25,-52 41,-58 16,-6 31,4 43,22 11,18 18,46 25,280 7,234 16,675 14,1130 -1,454 -11,922 -16,1165 -5,242 -4,259 -18,286 -14,26 -44,63 -65,81 -21,18 -34,18 -42,-80 -7,-97 -9,-292 -12,-691 -2,-399 -5,-1002 -4,-1373 2,-371 8,-510 13,-600z"/>
    <path class="fil5" d="M8355 2640c58,-8 130,-32 184,-99 54,-67 90,-177 125,-303 34,-126 67,-269 65,-300 -2,-32 -39,48 -75,100 -36,53 -69,79 -86,40 -17,-39 -17,-144 -24,-278 -8,-134 -23,-297 -56,-416 -34,-119 -85,-195 -119,-250 -33,-55 -49,-90 -41,-38 8,52 39,192 51,270 12,78 4,94 -14,75 -18,-19 -47,-72 -90,-156 -43,-84 -102,-199 -151,-297 -49,-98 -90,-178 -83,-124 7,54 62,242 84,388 23,146 13,249 -15,294 -28,44 -76,29 -120,-33 -44,-62 -86,-171 -114,-197 -28,-26 -42,32 -59,118 -17,86 -37,200 -26,365 11,165 53,382 104,527 51,145 112,219 166,258 55,38 103,42 149,48 46,6 89,15 146,7z"/>
    <path class="fil3" d="M8292 2574c49,-24 129,-71 164,-149 36,-78 27,-187 6,-218 -20,-31 -52,16 -71,29 -19,13 -25,-8 -29,-66 -4,-58 -5,-154 -14,-249 -9,-96 -26,-192 -40,-254 -14,-62 -25,-90 -33,-55 -8,34 -13,130 -25,200 -12,70 -31,114 -65,115 -33,0 -81,-43 -116,-86 -35,-42 -59,-83 -78,-62 -19,21 -34,104 -36,202 -2,99 8,213 28,311 19,98 47,178 86,227 39,49 89,66 122,74 34,8 51,5 100,-19z"/>
   </g>
   <path class="fil2" d="M4420 3325c4,-48 15,-83 25,-105 10,-22 19,-32 29,-37 11,-5 23,-5 38,19 15,24 33,73 34,140 1,67 -14,154 -51,230 -37,76 -96,142 -148,194 -52,52 -96,90 -99,83 -3,-7 34,-59 70,-126 36,-66 71,-147 86,-218 15,-71 12,-134 16,-182zm817 632c91,-31 148,-66 200,-112 51,-46 97,-104 122,-146 25,-42 29,-69 28,-106 -2,-37 -10,-85 -22,-122 -13,-37 -30,-65 -42,-68 -12,-4 -18,17 -38,37 -20,21 -54,41 -76,39 -22,-3 -33,-28 -36,-67 -3,-38 0,-89 6,-137 6,-49 14,-95 13,-125 -1,-30 -11,-43 -32,-44 -22,-1 -55,12 -93,15 -38,4 -81,-1 -105,-51 -25,-50 -32,-144 -57,-226 -26,-82 -71,-150 -138,-199 -67,-49 -157,-78 -258,-93 -101,-15 -212,-17 -328,6 -116,23 -238,72 -355,136 -117,64 -230,143 -318,252 -88,108 -152,246 -176,380 -24,134 -10,264 18,384 27,120 67,228 136,335 68,106 165,210 238,270 73,59 121,73 182,59 61,-15 134,-58 208,-124 74,-66 150,-154 210,-219 60,-65 106,-106 144,-121 38,-15 69,-3 79,17 10,20 -2,48 -5,74 -3,26 4,51 32,58 28,7 79,-3 166,-22 87,-19 211,-47 301,-78zm-561 -673c16,-54 44,-108 75,-163 31,-55 66,-109 94,-138 28,-28 50,-30 65,-22 15,8 23,26 33,97 10,71 23,195 27,274 4,78 -1,110 -39,131 -39,21 -112,32 -164,27 -52,-5 -83,-25 -97,-62 -14,-37 -10,-90 6,-143z"/>
   <path class="fil2" d="M5514 3862c19,11 46,41 53,76 7,35 -4,76 -12,86 -8,10 -13,-10 -24,-27 -10,-16 -26,-29 -32,-31 -6,-2 -1,8 -2,24 0,16 -6,37 -15,54 -9,17 -22,30 -41,36 -19,6 -45,5 -58,-8 -13,-13 -14,-39 -19,-50 -5,-11 -13,-8 -18,1 -4,9 -4,24 -3,41 2,17 5,36 0,50 -5,14 -17,23 -27,27 -10,3 -17,1 -26,-10 -9,-12 -21,-33 -31,-46 -10,-13 -19,-19 -21,-18 -2,1 3,8 5,24 2,15 0,39 -6,55 -7,16 -19,24 -35,29 -16,5 -35,6 -47,-6 -12,-12 -17,-38 -25,-54 -8,-17 -18,-24 -27,-25 -10,-1 -20,6 -22,20 -2,15 4,38 5,54 1,16 -3,26 -15,32 -12,6 -33,8 -44,-5 -11,-13 -11,-39 -18,-55 -7,-15 -19,-19 -32,-17 -13,2 -26,9 -30,22 -4,13 3,31 4,45 2,14 -1,23 -9,29 -8,7 -23,12 -33,3 -10,-8 -17,-29 -22,-46 -5,-17 -9,-30 -11,-41 -3,-11 -5,-22 14,-32 19,-10 60,-20 123,-36 63,-15 148,-36 214,-59 67,-23 115,-49 152,-73 37,-24 63,-45 82,-59 19,-14 31,-20 50,-9z"/>
   <path class="fil2" d="M5480 4407c2,16 1,45 -5,64 -6,20 -19,31 -43,40 -24,9 -59,17 -109,21 -50,4 -116,5 -196,0 -81,-5 -177,-16 -229,-23 -51,-7 -57,-9 -60,-19 -3,-10 -3,-28 0,-41 2,-14 7,-23 14,-31 7,-8 16,-13 26,-16 10,-2 21,-2 28,2 7,4 10,10 14,17 4,7 9,16 12,23 3,8 4,15 6,20 2,5 6,8 9,6 4,-2 8,-8 11,-17 3,-9 5,-20 9,-28 4,-8 10,-12 19,-14 9,-2 22,-2 33,0 11,2 19,6 24,13 5,8 6,20 7,31 1,10 1,19 7,24 5,6 15,8 24,8 9,0 16,-3 18,-15 2,-11 -2,-31 -1,-42 1,-11 6,-13 17,-14 12,-2 30,-3 44,-4 14,-2 23,-3 32,-4 8,-1 16,-1 22,6 6,7 10,21 12,32 3,11 4,19 9,23 5,4 13,3 19,1 6,-2 9,-6 10,-15 2,-10 2,-26 7,-36 5,-10 16,-14 27,-16 11,-2 24,-1 32,6 8,8 12,22 15,35 3,13 6,24 11,28 6,4 14,1 16,-12 2,-13 -1,-36 4,-49 5,-13 17,-16 24,-13 7,3 8,13 11,25 3,12 7,27 13,31 7,5 17,-1 22,-10 5,-10 6,-24 8,-34 2,-10 4,-17 7,-21 3,-4 6,-6 9,-5 4,1 8,6 9,22z"/>
   <path class="fil1" d="M8407 4483c-32,-18 -71,-27 -109,-15 -38,11 -75,43 -98,103 -24,60 -34,148 -33,237 2,88 16,177 36,246 20,69 47,119 95,135 48,16 117,-2 160,-39 43,-37 61,-93 67,-174 7,-80 2,-185 -6,-259 -8,-74 -20,-118 -38,-154 -18,-36 -43,-63 -74,-81z"/>
   <path class="fil2" d="M5463 4595c-8,23 -50,62 -85,92 -34,30 -60,51 -141,61 -81,10 -218,9 -339,7 -121,-3 -227,-7 -298,-31 -71,-24 -107,-68 -128,-146 -21,-77 -27,-187 -12,-266 14,-78 49,-125 84,-175 35,-50 70,-102 93,-115 23,-13 33,14 34,61 1,47 -7,115 -4,173 4,59 19,109 42,156 22,48 52,94 126,124 74,30 193,45 297,46 104,1 194,-12 252,-15 58,-3 86,4 78,26z"/>
  </g>
  <path class="fil6" d="M4112 1850c17,-25 559,-770 474,-781 -17,-2 -462,168 -598,220 -83,-624 14,-585 -552,-19 -113,-56 -413,-217 -560,-247 -4,-4 -7,-7 -9,-8l-5 6c-32,-5 -55,-3 -65,10 -21,25 -6,43 13,55l0 0 3 1 3 2c242,381 140,222 352,550 -227,-8 -794,-29 -817,15 -26,49 515,348 649,424 -605,520 -646,398 268,468l0 0c-440,-67 -239,-39 -643,-91 104,-86 441,-363 448,-375 17,-34 -360,-263 -554,-378 250,12 736,32 766,-4 27,-33 -168,-342 -301,-533 570,270 385,296 881,-222 20,129 62,395 69,404 29,35 429,-140 593,-211 -261,439 -134,220 -413,714z"/>
  <path class="fil1" d="M4740 1876c42,-46 138,-145 197,-207 59,-62 80,-87 95,-95 15,-9 25,-2 39,7 13,9 30,20 13,41 -17,21 -67,52 -133,102 -66,50 -146,119 -193,156 -47,37 -60,43 -18,-4z"/>
  <path class="fil1" d="M3120 2727c-66,10 -209,38 -298,54 -89,16 -124,21 -140,28 -16,8 -14,19 -11,34 2,15 5,33 34,30 29,-3 84,-27 164,-54 81,-27 187,-57 246,-75 59,-19 71,-26 5,-16z"/>
  <path class="fil1" d="M4589 1772c51,-76 171,-238 244,-339 73,-101 98,-142 119,-157 21,-16 38,-7 61,4 23,11 51,23 31,57 -20,34 -88,89 -174,174 -86,85 -190,201 -251,264 -61,63 -80,74 -29,-2z"/>
 </g>
</svg>
