<?xml version="1.0" encoding="UTF-8"?>
<!DOCTYPE svg PUBLIC "-//W3C//DTD SVG 1.1//EN" "http://www.w3.org/Graphics/SVG/1.1/DTD/svg11.dtd">
<!-- Creator: CorelDRAW 2017 -->
<svg xmlns="http://www.w3.org/2000/svg" xml:space="preserve" width="143mm" height="143mm" version="1.1" style="shape-rendering:geometricPrecision; text-rendering:geometricPrecision; image-rendering:optimizeQuality; fill-rule:evenodd; clip-rule:evenodd"
viewBox="0 0 14300 14300"
 xmlns:xlink="http://www.w3.org/1999/xlink">
 <defs>
  <style type="text/css">
   <![CDATA[
    .fil1 {fill:black}
    .fil2 {fill:#A5D673}
    .fil4 {fill:red}
    .fil0 {fill:white}
    .fil3 {fill:black;fill-rule:nonzero}
   ]]>
  </style>
 </defs>
 <g id="Слой_x0020_1">
  <metadata id="CorelCorpID_0Corel-Layer"/>
  <path class="fil0" d="M10013 6559c-381,-141 -1080,-388 -1852,-624 -773,-236 -1619,-462 -2092,-589 -473,-127 -572,-155 -646,-120 -74,35 -123,134 -427,469 -303,335 -861,907 -1432,1496 -572,589 -1157,1196 -1517,1556 -360,360 -494,473 -497,564 -4,92 123,162 600,370 476,208 1302,554 2099,931 797,377 1566,787 1968,1030 402,243 437,321 564,166 127,-155 346,-543 776,-1185 430,-642 1072,-1538 1535,-2159 462,-621 744,-967 953,-1203 208,-236 342,-363 377,-445 35,-81 -28,-116 -409,-258z"/>
  <path class="fil1" d="M9560 7075c83,132 178,283 330,463 152,180 360,389 544,774 184,385 345,948 419,1590 74,642 62,1364 -8,1880 -70,516 -197,827 -366,1010 -169,183 -381,240 -522,272 -141,32 -212,39 -321,39 -109,0 -258,-7 -402,-14 -145,-7 -286,-14 -282,-222 4,-208 152,-617 254,-1164 102,-547 159,-1231 184,-1675 26,-444 20,-646 -46,-748 -66,-101 -193,-101 -292,-157 -99,-55 -171,-165 -243,-275 160,-215 320,-431 408,-592 88,-161 103,-268 97,-349 -6,-82 -35,-138 -70,-279 -35,-141 -78,-367 -85,-512 -7,-145 21,-208 56,-261 35,-53 78,-95 134,-60 56,35 127,148 210,280z"/>
  <path class="fil1" d="M5411 5566c-76,37 -192,129 -281,172 -89,44 -150,39 -467,28 -318,-11 -891,-27 -1390,-55 -499,-28 -922,-66 -1292,-77 -370,-11 -688,7 -884,81 -196,74 -270,205 -307,404 -37,199 -37,467 -11,679 26,212 79,367 194,445 115,78 291,78 540,39 249,-39 570,-116 843,-181 273,-64 499,-116 665,-90 166,26 272,128 372,150 100,22 194,-35 289,-92 181,-187 363,-374 505,-505 142,-131 243,-206 365,-270 121,-64 262,-117 397,-156 134,-39 261,-64 356,-115 95,-51 159,-129 196,-210 37,-81 48,-166 35,-217 -12,-51 -48,-69 -123,-32z"/>
  <path class="fil2" d="M6378 10397c166,-69 459,-210 642,-291 183,-81 258,-102 302,-90 44,12 58,58 28,111 -30,53 -104,113 -333,233 -229,120 -614,300 -818,367 -205,67 -229,21 -236,-90 -7,-111 4,-288 7,-434 4,-146 0,-263 16,-325 16,-62 51,-69 78,-42 26,26 44,86 53,182 9,95 9,226 11,305 2,79 5,108 26,123 21,16 60,19 226,-49z"/>
  <path class="fil3" d="M6249 5964c-26,9 -54,-5 -63,-31 -9,-26 5,-54 31,-63 46,-16 93,-32 132,-43 47,-14 86,-20 109,-11 44,16 50,47 35,87l-1 3c-5,13 -13,26 -20,40 -7,13 -15,27 -19,38 -2,6 -4,12 -5,17l-1 5 3 1c18,3 50,-2 80,-6 35,-5 68,-9 92,-4 60,13 62,48 59,85 17,0 41,-2 74,-8 40,-7 94,-19 148,-30 51,-11 102,-22 143,-30 48,-8 84,-11 110,-2 52,17 65,52 35,113 -10,19 -24,40 -39,63 -28,41 -62,91 -60,112 0,3 8,8 19,12 29,12 72,17 112,18 23,1 46,0 67,-1 55,-2 100,-4 142,17 23,12 40,29 58,47 19,19 40,41 71,47 28,6 71,4 113,2 54,-3 109,-6 154,6 60,16 91,52 122,88 14,16 28,32 41,41 28,19 74,27 118,35 18,3 36,6 55,10 62,14 108,37 148,57l10 5c17,9 33,16 49,21 15,5 31,8 52,9 16,1 35,0 55,-1 43,-2 85,-4 117,7 36,13 54,36 62,66 7,22 7,43 7,64 0,28 -22,50 -50,50 -28,0 -50,-22 -50,-50 0,-14 0,-28 -2,-36l0 0c-14,-5 -47,-3 -80,-2 -21,1 -42,2 -62,1 -31,-1 -56,-6 -79,-13 -22,-7 -42,-16 -63,-27l-10 -5c-34,-17 -74,-37 -125,-49 -14,-3 -32,-6 -50,-9 -54,-9 -111,-19 -158,-51 -25,-17 -42,-37 -60,-58 -21,-24 -43,-49 -73,-57 -30,-8 -77,-6 -123,-3 -50,3 -99,5 -140,-4 -59,-13 -91,-45 -120,-75 -12,-12 -23,-23 -33,-29 -19,-10 -52,-8 -92,-7l0 0c-22,1 -46,2 -73,1 -50,-1 -106,-8 -149,-26 -44,-19 -76,-49 -80,-95 -5,-57 39,-122 76,-177l15 -22 -21 3c-38,7 -88,18 -139,29 -53,12 -107,24 -152,31 -46,8 -80,11 -105,9 -42,-3 -67,-20 -79,-49 -6,-13 -7,-25 -6,-37 -11,1 -24,3 -38,5 -37,5 -76,10 -108,6 -9,-1 -17,-3 -25,-6l-3 -1c-25,-10 -42,-27 -51,-48 -9,-19 -11,-41 -8,-63 2,-13 6,-26 11,-39 3,-8 6,-15 10,-22 -35,10 -78,25 -120,40zm430 127l0 1c1,3 1,2 0,-1zm1883 722l0 0c0,0 1,0 0,0z"/>
  <path class="fil3" d="M5088 6496c-28,-1 -49,-25 -47,-52 1,-28 25,-49 52,-47 111,5 222,11 320,22 102,12 194,31 262,64 75,36 118,84 159,131 32,36 63,71 106,92 55,27 138,38 216,49l0 0c62,8 120,16 166,32 70,24 102,62 129,94 13,15 24,29 36,34l0 0c18,7 50,7 83,7 45,0 91,-1 132,15 47,18 75,51 106,87 19,23 40,47 65,65 30,21 73,37 115,53 45,17 89,34 124,58 38,27 59,59 76,85 8,12 11,21 13,22 3,1 23,-8 42,-17 25,-11 50,-23 76,-25l0 0c46,-4 70,17 102,44 12,10 25,22 41,32 37,23 96,43 141,59l35 12c27,10 44,18 57,26l4 3c13,9 20,16 30,25l161 161c20,20 20,51 0,71 -20,20 -51,20 -71,0l-161 -161c-6,-6 -10,-10 -14,-13l-2 -1c-7,-5 -18,-10 -38,-17 -14,-5 -23,-8 -33,-12 -49,-17 -114,-40 -160,-68 -23,-14 -39,-28 -54,-41 -14,-12 -24,-21 -28,-20l0 0c-9,1 -26,9 -43,17 -35,16 -71,32 -108,23 -36,-9 -52,-34 -72,-64 -12,-19 -27,-42 -50,-58 -24,-17 -62,-32 -102,-47 -47,-18 -96,-36 -136,-64 -37,-25 -61,-55 -85,-82 -22,-26 -42,-50 -65,-59 -24,-9 -60,-9 -96,-9 -44,0 -87,0 -123,-15 -34,-14 -53,-37 -74,-61 -20,-23 -42,-50 -85,-65 -36,-12 -90,-20 -147,-27 -85,-11 -177,-24 -247,-58 -61,-30 -98,-72 -136,-115 -35,-40 -72,-81 -128,-107 -57,-27 -138,-44 -230,-54 -97,-11 -205,-17 -313,-22z"/>
  <path class="fil3" d="M7972 8546c0,0 0,0 1,2 5,9 2,5 -1,-2z"/>
  <path class="fil4" d="M8678 2682c81,-39 208,-265 494,-374 286,-109 730,-102 1023,39 293,141 434,416 399,783 -35,367 -247,826 -571,1210 -325,385 -762,695 -1009,833 -247,138 -303,102 -508,-64 -205,-166 -557,-462 -836,-758 -279,-296 -483,-593 -561,-907 -78,-314 -28,-646 78,-864 106,-219 268,-325 434,-367 166,-42 335,-21 487,25 152,46 286,116 370,226 85,109 120,258 201,219z"/>
  <path class="fil3" d="M797 3985c-55,0 -100,-45 -100,-100 0,-55 45,-100 100,-100l1184 0c321,0 559,0 848,4l40 1c240,3 484,7 637,-42 70,-22 121,-57 164,-107 48,-55 90,-131 137,-229 48,-101 99,-220 148,-343 53,-134 106,-277 150,-405 23,-67 32,-93 40,-118 52,-158 91,-273 150,-309 64,-39 118,-27 161,45 49,81 77,388 109,729l21 226c25,270 51,546 68,749 8,-52 15,-105 21,-157 23,-185 37,-362 52,-554 9,-120 19,-245 35,-407 17,-177 37,-361 58,-538 25,-210 53,-422 78,-602 23,-166 44,-301 63,-374 97,-368 178,-412 243,38 14,100 27,300 38,541 11,234 20,514 29,776l8 245c10,316 20,601 30,857 18,-52 36,-94 53,-124 57,-102 121,-117 188,-83 43,22 69,66 88,115 2,5 9,22 15,40 14,39 30,81 44,91 13,10 63,6 117,1l4 0c41,-4 83,-8 136,-11 54,-3 124,-6 225,-8 48,-1 104,-2 165,-2 178,-2 398,-5 603,-15 61,-3 129,-8 198,-12 202,-14 416,-28 745,-22 277,5 626,25 970,45 201,12 401,23 575,31 493,23 857,24 1220,25l0 0 1 0c55,0 100,45 100,100 0,55 -45,100 -100,100l-1 0 0 0c-368,-1 -736,-2 -1229,-25 -186,-9 -381,-20 -577,-31 -346,-20 -696,-40 -963,-45 -315,-6 -527,8 -727,22 -64,4 -127,9 -201,12 -202,11 -427,13 -610,15 -60,1 -115,1 -164,2 -93,2 -162,4 -217,8 -56,3 -94,6 -129,10l-4 0c-96,9 -182,17 -258,-42 -39,-31 -64,-72 -83,-116 -9,27 -18,56 -26,89 -23,84 -43,181 -58,283 -17,123 -25,255 -31,345 -3,43 -5,79 -11,109 -1,31 -16,61 -42,80 -2,2 -4,3 -7,5l-1 0c-58,34 -103,22 -137,-36 -13,-22 -25,-112 -34,-244 -8,-118 -17,-285 -26,-476 -14,-304 -26,-669 -40,-1086l-8 -245c-7,-200 -14,-411 -22,-607 -10,80 -20,162 -30,246 -22,188 -43,373 -58,533 -12,129 -23,270 -34,404 -15,195 -30,376 -53,563 -20,159 -46,327 -73,461 -27,133 -57,236 -85,272 -47,61 -99,66 -155,23 -60,-46 -75,-233 -95,-477l-6 -75c-23,-272 -47,-540 -72,-802l-21 -226c-13,-146 -26,-286 -39,-398 -14,42 -28,84 -32,97 -43,126 -97,272 -154,414 -52,130 -105,254 -153,355 -54,113 -104,203 -167,275 -68,77 -147,131 -254,165 -183,58 -444,55 -699,51l-40 -1c-232,-3 -493,-3 -846,-3l-1184 0z"/>
  <path class="fil4" d="M12908 4057c44,140 120,504 147,771 27,267 3,435 -69,523 -73,87 -195,93 -271,44 -76,-49 -105,-154 -96,-337 9,-183 55,-445 99,-620 44,-175 84,-262 110,-348 26,-86 36,-171 80,-32z"/>
  <path class="fil3" d="M11253 4080c-55,3 -102,-38 -106,-93 -3,-55 38,-102 93,-106 268,-17 536,-35 815,-29 278,5 558,33 837,61l0 0 0 0c55,5 96,53 91,108 -5,55 -53,96 -108,91l0 0 0 0 -1 0c-277,-28 -554,-55 -822,-61 -267,-5 -533,12 -800,29z"/>
  <path class="fil4" d="M12855 7654c28,42 74,215 95,355 21,139 18,245 -19,305 -37,60 -108,74 -146,42 -39,-32 -46,-109 -37,-212 9,-102 34,-229 51,-337 18,-108 28,-196 56,-153z"/>
 </g>
</svg>
