<?xml version="1.0" encoding="UTF-8"?>
<!DOCTYPE svg PUBLIC "-//W3C//DTD SVG 1.1//EN" "http://www.w3.org/Graphics/SVG/1.1/DTD/svg11.dtd">
<!-- Creator: CorelDRAW 2017 -->
<svg xmlns="http://www.w3.org/2000/svg" xml:space="preserve" width="143mm" height="143mm" version="1.1" style="shape-rendering:geometricPrecision; text-rendering:geometricPrecision; image-rendering:optimizeQuality; fill-rule:evenodd; clip-rule:evenodd"
viewBox="0 0 14300 14300"
 xmlns:xlink="http://www.w3.org/1999/xlink">
 <defs>
  <style type="text/css">
   <![CDATA[
    .fil1 {fill:black}
    .fil6 {fill:#4A94CE}
    .fil7 {fill:#52C6EF}
    .fil0 {fill:#A60000}
    .fil4 {fill:#C99F2B}
    .fil5 {fill:#EDBF42}
    .fil8 {fill:#FFD663}
    .fil2 {fill:#FFE77B}
    .fil3 {fill:white}
   ]]>
  </style>
 </defs>
 <g id="Слой_x0020_1">
  <metadata id="CorelCorpID_0Corel-Layer"/>
  <path class="fil0" d="M7282 11041c282,4 782,0 1166,18 384,18 653,57 1098,101 446,44 1068,93 1506,115 437,22 690,18 839,64 149,46 195,143 139,242 -57,99 -216,200 -198,292 19,92 216,177 471,238 254,61 565,99 738,147 172,48 206,107 38,185 -168,78 -538,174 -1364,200 -826,25 -2108,-21 -2825,-38 -717,-17 -868,-4 -855,59 13,63 189,177 240,254 50,78 -25,120 -294,168 -269,48 -731,103 -1269,111 -538,8 -1152,-29 -1589,-69 -437,-40 -698,-82 -786,-198 -88,-116 -4,-305 -46,-458 -42,-153 -210,-271 -570,-317 -359,-46 -910,-21 -1309,-53 -399,-32 -647,-120 -801,-288 -153,-168 -212,-416 -34,-546 179,-130 595,-143 1051,-122 456,21 952,76 1412,90 460,14 884,-12 1351,-57 467,-44 976,-106 1261,-131 286,-25 349,-12 631,-8z"/>
  <path class="fil1" d="M7146 1326c7,24 10,58 21,85 12,27 33,48 61,45 28,-3 62,-31 67,-85 5,-54 -19,-136 -70,-193 -52,-58 -131,-92 -205,-103 -74,-11 -143,1 -198,25 -55,24 -97,59 -127,95 -30,36 -48,72 -57,118 -9,46 -9,103 6,157 15,54 46,105 83,136 37,31 81,40 111,53 30,13 45,29 52,52 7,22 5,51 0,69 -5,18 -14,26 -128,76 -115,50 -335,143 -519,219 -184,75 -331,133 -430,182 -100,49 -152,89 -187,132 -35,43 -52,89 -24,113 28,24 100,27 267,27 167,0 429,-3 764,-3 336,0 745,1 1029,0 284,-2 444,-8 526,-14 83,-7 88,-14 89,-33 0,-19 -4,-50 -21,-70 -17,-21 -45,-31 -214,-33 -169,-2 -478,5 -819,8 -341,3 -713,3 -945,5 -232,2 -325,6 -373,2 -48,-4 -51,-15 -8,-34 42,-19 130,-46 262,-94 131,-48 306,-118 442,-175 136,-57 235,-102 302,-126 67,-23 102,-25 173,0 71,26 178,79 289,135 111,55 225,113 321,152 96,39 173,60 226,70 53,10 80,9 95,-2 15,-11 18,-33 -16,-63 -34,-29 -106,-65 -190,-105 -84,-40 -182,-84 -305,-145 -123,-61 -272,-138 -352,-180 -80,-42 -90,-50 -95,-70 -5,-20 -5,-53 -5,-80 0,-28 1,-51 -12,-66 -14,-15 -42,-23 -76,-36 -34,-13 -73,-31 -98,-53 -25,-22 -35,-48 -41,-79 -6,-31 -7,-67 1,-101 8,-34 25,-65 53,-86 28,-21 67,-30 103,-32 36,-2 68,4 92,14 24,10 39,24 52,39 13,15 23,30 30,54z"/>
  <path class="fil2" d="M7720 2073c101,30 304,106 428,169 124,63 170,113 284,349 115,237 298,661 521,1224 223,563 487,1266 628,1630 141,365 160,391 115,420 -46,29 -157,59 -252,95 -95,36 -176,78 -223,80 -48,2 -63,-36 -187,-346 -124,-309 -357,-890 -494,-1229 -137,-340 -179,-439 -220,-454 -40,-15 -78,53 -118,172 -40,118 -82,286 -84,571 -2,284 36,685 73,1054 36,368 71,704 88,1163 17,458 17,1039 0,1554 -17,515 -52,966 -76,1201 -25,235 -40,254 -147,309 -107,55 -305,147 -563,200 -258,53 -575,69 -850,50 -275,-19 -508,-73 -682,-143 -174,-71 -288,-158 -346,-225 -57,-67 -57,-113 -65,-729 -8,-617 -23,-1804 6,-2581 29,-777 101,-1144 134,-1447 32,-304 25,-544 -13,-746 -38,-202 -107,-367 -151,-414 -44,-48 -63,21 -116,158 -53,137 -141,344 -258,607 -116,263 -262,584 -351,809 -90,225 -124,355 -155,410 -31,55 -57,36 -141,0 -84,-36 -225,-90 -288,-136 -63,-46 -48,-84 99,-443 147,-359 426,-1039 588,-1447 162,-409 208,-546 296,-777 88,-231 218,-556 323,-731 105,-176 185,-202 296,-248 111,-46 252,-111 323,-127 71,-16 72,16 70,87 -2,71 -7,179 16,297 23,117 72,243 145,346 73,103 168,183 277,223 109,40 231,40 347,15 116,-25 227,-74 323,-147 95,-73 176,-168 225,-292 50,-124 69,-277 76,-370 8,-93 4,-126 2,-151 -2,-25 -2,-41 99,-11z"/>
  <path class="fil3" d="M6607 3086c-29,-22 -158,-96 -252,-194 -95,-99 -156,-223 -194,-353 -39,-131 -55,-268 -96,-310 -41,-42 -107,10 -166,42 -59,32 -111,43 -171,97 -60,54 -127,151 -232,365 -105,214 -248,546 -401,919 -153,373 -317,787 -421,1052 -104,265 -148,380 -118,333 30,-47 136,-257 329,-657 193,-399 475,-988 657,-1334 182,-346 265,-450 334,-475 69,-25 124,30 195,112 72,83 161,193 235,259 74,66 133,87 197,112 64,25 133,55 104,33z"/>
  <path class="fil4" d="M5334 10995c1,21 -10,58 -29,107 -20,49 -48,111 -76,167 -28,56 -54,107 -73,141 -19,34 -31,52 -96,78 -65,27 -183,62 -303,90 -120,28 -242,49 -352,47 -110,-2 -208,-26 -269,-52 -62,-25 -87,-52 -121,-116 -35,-64 -78,-166 -118,-257 -39,-92 -74,-174 -101,-229 -26,-55 -45,-84 -13,-93 31,-9 112,2 308,21 195,19 506,46 703,62 197,16 282,22 343,18 61,-3 99,-16 124,-19 25,-4 38,2 50,7 12,5 24,9 24,30z"/>
  <path class="fil4" d="M3290 10101c2,64 -48,143 -89,237 -41,95 -73,205 -98,323 -24,119 -41,246 -55,369 -15,124 -28,244 -35,317 -7,74 -9,100 -19,116 -10,16 -27,20 -45,20 -18,0 -36,-4 -43,-55 -7,-51 -3,-149 -8,-321 -5,-172 -20,-418 -42,-603 -22,-185 -52,-308 -86,-408 -34,-100 -72,-177 -95,-239 -23,-62 -31,-110 -34,-151 -3,-42 -2,-77 8,-93 10,-16 30,-13 86,15 56,28 149,82 229,138 80,56 149,115 210,169 61,54 114,102 116,165z"/>
  <path class="fil5" d="M2934 9041c30,-21 49,-31 73,-32 24,-1 52,7 121,54 69,47 180,133 286,247 106,114 209,255 321,403 112,148 233,302 337,437 104,135 191,251 265,326 74,74 134,107 232,136 98,28 233,53 351,82 118,29 220,64 286,96 67,33 99,63 118,101 19,38 26,82 20,118 -6,36 -25,63 -138,97 -113,34 -320,74 -511,98 -191,24 -367,31 -489,22 -122,-10 -190,-36 -250,-82 -60,-46 -112,-113 -186,-229 -74,-116 -168,-281 -251,-405 -82,-124 -152,-208 -250,-297 -98,-90 -225,-186 -328,-255 -103,-69 -181,-112 -228,-140 -47,-28 -63,-42 -72,-82 -9,-40 -12,-106 -5,-171 7,-66 23,-132 55,-205 32,-73 81,-154 126,-210 45,-56 85,-87 115,-108z"/>
  <path class="fil1" d="M4506 10579c12,8 26,21 29,40 3,19 -3,44 -29,61 -26,17 -71,26 -121,22 -50,-4 -106,-21 -165,-66 -59,-45 -123,-118 -202,-227 -79,-109 -175,-255 -280,-417 -105,-162 -221,-341 -313,-473 -92,-132 -160,-219 -218,-277 -57,-58 -104,-88 -137,-118 -34,-30 -55,-60 -58,-81 -3,-21 14,-32 43,-24 30,8 73,35 118,69 45,34 93,74 144,122 51,48 104,105 154,163 50,57 96,114 148,182 52,67 111,145 159,208 48,63 86,112 126,164 40,52 83,107 131,169 48,62 103,132 152,194 50,62 95,115 137,156 42,42 80,72 104,89 24,17 33,22 43,27 10,5 21,9 33,17z"/>
  <path class="fil1" d="M2956 11420c12,2 26,3 36,5 10,2 17,4 18,18 1,15 -4,42 -8,59 -3,17 -5,25 -9,31 -4,6 -10,10 -24,11 -14,0 -36,-4 -49,-14 -13,-10 -17,-26 -19,-44 -2,-17 -3,-35 -3,-47 0,-11 1,-15 6,-18 5,-3 13,-4 22,-5 9,0 19,1 31,3z"/>
  <path class="fil1" d="M5134 11445c-5,11 -25,44 -58,69 -33,25 -79,42 -167,63 -88,20 -217,44 -305,56 -88,12 -135,13 -197,9 -61,-4 -137,-13 -194,-25 -57,-12 -95,-27 -117,-42 -22,-15 -27,-31 -36,-46 -9,-15 -20,-31 -26,-39 -6,-9 -8,-11 7,-4 14,7 45,24 95,42 50,17 121,35 194,44 73,9 149,9 237,0 89,-8 190,-24 275,-43 84,-18 152,-39 195,-52 44,-13 64,-17 78,-24 14,-7 23,-18 18,-7z"/>
  <path class="fil1" d="M11066 9382c27,-110 33,-306 29,-443 -4,-137 -18,-215 -52,-273 -34,-58 -89,-97 -258,-114 -169,-17 -453,-11 -654,-7 -201,4 -320,6 -401,25 -81,19 -123,56 -150,103 -26,47 -36,103 -39,245 -3,142 1,369 15,490 14,121 37,134 66,136 29,2 64,-8 82,-50 18,-43 18,-118 16,-210 -2,-92 -6,-202 2,-289 8,-88 30,-154 58,-189 28,-35 63,-39 203,-43 140,-4 385,-8 545,-10 160,-2 236,-2 282,11 46,13 61,38 72,90 11,52 17,132 17,232 0,100 -6,221 0,299 6,79 23,116 56,123 33,7 82,-17 109,-126z"/>
  <path class="fil6" d="M10308 9306c206,-2 560,-10 770,-4 210,6 276,25 329,76 52,51 91,132 111,404 19,272 19,735 16,1038 -4,303 -12,447 -56,537 -45,89 -126,124 -408,142 -282,18 -764,18 -1099,16 -334,-2 -521,-6 -640,-39 -119,-33 -169,-95 -200,-270 -31,-175 -43,-463 -43,-762 0,-299 12,-610 31,-797 19,-187 47,-249 109,-286 62,-37 159,-49 292,-54 132,-6 299,-6 412,-4 113,2 171,6 377,4z"/>
  <path class="fil7" d="M11250 9313c0,268 1,535 -1,757 -2,221 -6,396 -37,510 -31,114 -89,166 -220,193 -130,26 -332,26 -576,26 -244,0 -530,0 -694,-14 -164,-14 -207,-41 -241,-86 -34,-45 -59,-107 -68,-279 -9,-172 -1,-454 3,-657 4,-203 4,-327 4,-452 610,0 1220,1 1830,1z"/>
  <path class="fil8" d="M10507 10701c5,69 -5,192 -8,273 -3,82 1,123 -10,150 -11,27 -36,41 -90,46 -54,5 -138,1 -183,-16 -45,-17 -51,-46 -54,-107 -4,-61 -6,-155 -6,-233 0,-78 2,-140 16,-173 15,-33 42,-37 92,-39 51,-2 124,-2 171,6 47,8 66,23 71,92z"/>
  <path class="fil4" d="M4507 11184c1,21 -10,58 -29,107 -19,49 -48,111 -76,167 -28,56 -54,107 -73,141 -19,34 -31,52 -96,78 -65,27 -183,62 -303,90 -120,28 -242,49 -352,47 -110,-2 -208,-26 -269,-52 -62,-25 -87,-52 -121,-116 -35,-64 -78,-166 -118,-257 -39,-92 -74,-174 -101,-229 -26,-55 -45,-84 -13,-93 31,-9 112,2 308,21 195,19 506,46 703,62 197,16 282,21 343,18 61,-3 99,-16 124,-19 25,-4 38,2 50,7 12,5 24,9 24,30z"/>
  <path class="fil4" d="M2464 10290c2,64 -48,143 -89,237 -41,95 -73,205 -98,323 -24,119 -41,246 -55,369 -15,124 -28,244 -35,317 -7,74 -9,100 -19,116 -10,16 -27,20 -45,20 -18,0 -36,-4 -43,-55 -7,-51 -3,-149 -8,-321 -5,-172 -20,-418 -42,-603 -22,-185 -52,-308 -86,-408 -34,-100 -72,-177 -95,-239 -23,-62 -31,-110 -34,-151 -3,-42 -2,-77 8,-93 10,-16 30,-13 86,15 56,28 149,82 229,138 80,56 149,115 210,169 61,54 114,102 116,165z"/>
  <path class="fil2" d="M2107 9230c30,-21 49,-31 73,-32 24,-1 52,7 121,54 69,47 180,133 286,247 106,114 209,255 321,403 112,148 233,302 337,437 104,135 191,251 265,326 74,74 134,107 232,136 98,28 233,52 351,82 118,29 220,64 286,96 67,33 99,63 118,101 19,38 26,82 20,118 -6,36 -25,63 -138,97 -113,34 -320,74 -511,98 -191,24 -367,31 -489,22 -122,-10 -190,-36 -250,-82 -60,-46 -112,-113 -186,-229 -74,-116 -168,-281 -251,-405 -82,-124 -152,-208 -250,-297 -98,-90 -225,-186 -328,-255 -103,-69 -181,-112 -228,-140 -47,-28 -63,-42 -72,-82 -9,-40 -12,-106 -5,-171 7,-66 23,-132 55,-205 32,-73 81,-154 126,-210 45,-56 85,-87 115,-108z"/>
  <path class="fil1" d="M3679 10768c12,8 26,21 29,40 3,19 -3,44 -29,61 -26,17 -71,26 -121,22 -50,-4 -106,-21 -165,-66 -59,-45 -123,-118 -202,-227 -79,-109 -175,-255 -280,-417 -105,-162 -221,-341 -313,-473 -92,-132 -160,-219 -218,-277 -57,-58 -104,-88 -138,-118 -34,-30 -55,-60 -58,-81 -3,-21 14,-32 43,-24 30,8 73,35 118,69 45,34 93,74 144,122 51,48 104,105 154,163 50,57 96,114 148,182 52,67 111,145 159,208 48,63 86,112 126,164 40,52 83,107 131,169 48,62 103,132 152,194 50,62 95,115 137,156 42,42 81,72 104,89 24,17 33,22 43,27 10,5 21,9 33,17z"/>
  <path class="fil1" d="M2129 11609c12,2 26,3 36,5 10,2 17,4 18,18 1,15 -4,42 -8,59 -3,17 -5,25 -9,31 -4,6 -10,10 -24,11 -14,0 -36,-4 -49,-14 -13,-10 -17,-26 -19,-44 -2,-17 -3,-36 -3,-47 0,-11 1,-15 6,-18 5,-3 13,-4 22,-5 9,0 19,1 31,3z"/>
  <path class="fil1" d="M4307 11634c-5,11 -25,44 -58,69 -33,25 -79,42 -167,63 -88,20 -217,44 -305,56 -88,12 -135,13 -197,9 -61,-4 -137,-13 -194,-25 -57,-12 -95,-27 -117,-42 -22,-15 -28,-31 -36,-46 -9,-15 -20,-31 -26,-39 -6,-9 -8,-11 7,-4 14,7 45,24 95,42 50,17 121,35 194,44 73,9 149,9 237,0 89,-8 190,-24 275,-43 84,-18 152,-39 195,-52 44,-13 64,-17 78,-24 14,-7 23,-18 18,-7z"/>
  <path class="fil0" d="M9982 9302c75,0 202,0 242,1 40,1 -6,2 -86,31 -79,29 -192,86 -292,117 -100,31 -188,35 -245,74 -57,40 -84,115 -98,186 -13,71 -13,137 -37,175 -23,39 -69,50 -82,-13 -12,-63 10,-199 -2,-266 -12,-67 -59,-66 -109,-47 -50,18 -104,52 -131,127 -27,75 -27,191 -27,311 0,121 0,246 0,346 0,99 0,172 -5,213 -5,41 -15,49 -28,-5 -13,-54 -28,-171 -33,-332 -5,-161 2,-367 7,-513 4,-146 7,-231 34,-287 28,-57 81,-85 152,-111 71,-26 161,-49 233,-49 73,-1 129,21 166,5 37,-16 56,-70 65,-97 9,-27 9,-27 22,0 13,27 38,81 62,108 24,27 46,27 68,27 23,0 46,0 121,1z"/>
  <path class="fil0" d="M11797 9190c13,-51 90,-203 192,-283 101,-80 227,-89 302,-65 75,24 99,82 52,123 -47,42 -166,68 -255,95 -88,26 -146,53 -200,91 -54,39 -105,89 -92,39z"/>
  <path class="fil0" d="M12518 9242c84,-45 218,-107 320,-125 101,-18 170,9 201,53 31,44 24,106 -57,120 -82,14 -238,-19 -353,-18 -115,1 -187,36 -207,40 -20,3 13,-25 97,-71z"/>
  <path class="fil0" d="M4078 8672c-26,-79 -64,-230 -161,-329 -97,-99 -253,-145 -347,-135 -94,10 -127,76 -119,129 8,53 58,94 140,129 83,35 200,62 276,96 76,34 113,73 150,108 38,35 77,64 90,76 12,12 -2,5 -29,-74z"/>
 </g>
</svg>
