<?xml version="1.0" encoding="UTF-8"?>
<!DOCTYPE svg PUBLIC "-//W3C//DTD SVG 1.1//EN" "http://www.w3.org/Graphics/SVG/1.1/DTD/svg11.dtd">
<!-- Creator: CorelDRAW 2017 -->
<svg xmlns="http://www.w3.org/2000/svg" xml:space="preserve" width="143mm" height="143mm" version="1.1" style="shape-rendering:geometricPrecision; text-rendering:geometricPrecision; image-rendering:optimizeQuality; fill-rule:evenodd; clip-rule:evenodd"
viewBox="0 0 14300 14300"
 xmlns:xlink="http://www.w3.org/1999/xlink">
 <defs>
  <style type="text/css">
   <![CDATA[
    .fil4 {fill:none}
    .fil0 {fill:black}
    .fil1 {fill:#269BB3}
    .fil2 {fill:#94E8FF}
    .fil3 {fill:white}
   ]]>
  </style>
 </defs>
 <g id="Слой_x0020_1">
  <metadata id="CorelCorpID_0Corel-Layer"/>
  <path class="fil0" d="M10785 5434c43,241 63,642 59,881 -4,239 -31,318 -147,418 -116,100 -320,222 -591,442 -271,220 -609,538 -844,768 -236,230 -369,371 -446,544 -77,173 -96,377 -90,644 6,267 37,597 33,897 -4,300 -43,571 -155,746 -112,175 -296,253 -424,263 -128,10 -198,-49 -250,-172 -52,-123 -86,-310 -152,-616 -67,-306 -167,-732 -236,-1045 -70,-313 -109,-513 -115,-670 -6,-157 22,-271 334,-539 312,-269 909,-692 1365,-1031 455,-340 769,-596 938,-767 169,-171 192,-258 222,-377 29,-120 65,-273 102,-402 37,-130 77,-236 114,-296 37,-61 73,-77 124,-43 51,33 118,116 161,357z"/>
  <path class="fil0" d="M5436 8336c186,132 465,473 728,771 263,298 510,554 654,732 143,179 183,281 141,398 -41,118 -163,251 -316,414 -153,163 -338,355 -487,485 -149,130 -263,196 -416,179 -153,-18 -346,-120 -410,-220 -65,-100 -3,-197 133,-339 135,-141 344,-326 487,-456 144,-130 222,-204 157,-353 -65,-148 -273,-370 -469,-591 -196,-221 -381,-441 -475,-607 -94,-166 -98,-278 -53,-373 45,-95 139,-174 326,-42z"/>
  <path class="fil0" d="M5938 6689c18,224 41,589 57,1001 16,412 24,872 -4,1284 -27,412 -90,777 -190,1139 -100,361 -238,718 -344,1007 -106,289 -181,508 -296,644 -116,135 -273,186 -399,161 -126,-26 -220,-128 -251,-281 -31,-153 0,-357 75,-568 75,-210 192,-427 316,-716 124,-289 253,-649 351,-1004 98,-355 165,-704 192,-1068 27,-363 16,-740 5,-1025 -11,-285 -21,-477 -7,-626 14,-149 51,-255 103,-320 52,-65 119,-88 180,-84 61,4 116,35 149,92 33,57 45,139 63,363z"/>
  <path class="fil0" d="M9476 3738c139,210 300,544 389,764 88,220 104,326 67,442 -37,116 -128,241 -236,528 -108,287 -234,734 -373,1215 -139,481 -293,995 -357,1298 -65,302 -41,393 57,797 98,404 271,1123 381,1576 110,453 157,642 135,864 -22,222 -112,477 -402,734 -291,257 -781,516 -1305,689 -524,173 -1082,259 -1561,275 -479,16 -879,-39 -1195,-169 -316,-130 -548,-334 -715,-542 -167,-208 -269,-420 -308,-597 -39,-177 -16,-318 2,-406 18,-88 29,-124 22,-177 -8,-53 -35,-124 -132,-188 -96,-65 -261,-124 -473,-222 -212,-98 -471,-236 -652,-442 -181,-206 -283,-481 -277,-736 6,-255 120,-491 263,-665 143,-175 316,-289 508,-318 192,-29 404,26 593,114 188,88 353,210 495,330 141,120 259,238 349,375 90,137 153,294 161,428 8,133 -39,243 -71,340 -31,96 -47,179 -26,277 22,98 80,212 236,318 155,106 406,204 703,255 296,51 638,55 952,10 314,-45 601,-139 803,-257 202,-118 320,-259 399,-481 79,-222 118,-524 128,-834 10,-310 -10,-628 -20,-875 -10,-247 -10,-424 55,-664 65,-239 194,-542 367,-1046 173,-504 389,-1211 508,-1633 120,-422 143,-559 130,-724 -14,-165 -65,-357 -86,-510 -22,-153 -14,-267 10,-347 24,-80 63,-128 141,-108 79,20 196,106 336,316z"/>
  <circle class="fil1" transform="matrix(-0.00872336 -0.622819 0.622819 -0.00872336 11352.2 9935.49)" r="474"/>
  <circle class="fil1" transform="matrix(0.103287 -0.814705 0.814705 0.103287 6044.15 2159.83)" r="515"/>
  <circle class="fil1" transform="matrix(0.103287 -0.814705 0.814705 0.103287 7404.53 3856.51)" r="1067"/>
  <circle class="fil1" transform="matrix(0.0516436 -0.407352 0.407352 0.0516436 4126.86 7641.41)" r="593"/>
  <circle class="fil1" transform="matrix(-0.0115012 -0.821145 0.821145 -0.0115012 10472.8 8589.9)" r="897"/>
  <path class="fil2" d="M10403 7966c85,-5 178,20 225,71 47,52 48,130 -14,182 -62,52 -187,77 -281,108 -95,31 -159,69 -206,113 -47,44 -76,93 -93,155 -17,63 -20,139 -12,202 8,62 27,111 49,157 22,46 45,90 31,96 -14,6 -65,-26 -115,-93 -50,-68 -97,-171 -121,-260 -23,-89 -22,-163 -8,-240 14,-77 41,-156 94,-226 53,-70 134,-132 212,-179 78,-47 154,-81 239,-86z"/>
  <path class="fil2" d="M7361 3060c111,-6 234,26 295,93 62,68 63,171 -18,240 -81,68 -245,101 -370,142 -124,41 -209,91 -271,149 -62,57 -100,122 -122,204 -22,83 -26,183 -16,265 10,82 36,146 64,206 28,61 60,118 41,126 -18,8 -86,-34 -151,-123 -65,-89 -128,-225 -159,-342 -31,-117 -29,-214 -11,-315 18,-101 54,-205 124,-297 70,-92 176,-173 279,-236 103,-62 203,-106 314,-113z"/>
  <circle class="fil1" transform="matrix(0.103287 -0.814705 0.814705 0.103287 4273.66 5100.78)" r="515"/>
  <path class="fil3" d="M3704 9451c-66,-197 -84,-263 -300,-298 114,134 158,185 300,298z"/>
  <path class="fil3" d="M3389 9375c246,-49 160,-53 388,-63 -130,-166 -276,-62 -388,63z"/>
  <path class="fil3" d="M3873 8876c-114,-174 -148,-233 -365,-213 144,101 199,140 365,213z"/>
  <path class="fil3" d="M3550 8882c226,-109 141,-91 360,-159 -168,-128 -283,9 -360,159z"/>
  <circle class="fil1" transform="matrix(0.103287 -0.814705 0.814705 0.103287 11148.2 3656.94)" r="627"/>
  <path class="fil2" d="M11111 3232c59,-3 123,14 156,49 33,36 33,90 -9,126 -43,36 -129,53 -195,75 -66,22 -110,48 -143,78 -33,30 -53,64 -64,108 -11,44 -14,97 -8,140 5,43 19,77 34,109 15,32 31,62 22,66 -10,4 -45,-18 -80,-65 -34,-47 -68,-119 -84,-180 -16,-62 -15,-113 -6,-166 10,-53 28,-108 65,-157 37,-49 93,-91 147,-124 54,-33 107,-56 165,-59z"/>
  <circle class="fil1" transform="matrix(0.0516436 -0.407352 0.407352 0.0516436 7652.14 11386.9)" r="593"/>
  <circle class="fil1" transform="matrix(0.0516436 -0.407352 0.407352 0.0516436 10335.3 1918)" r="593"/>
  <circle class="fil1" transform="matrix(0.0516436 -0.407352 0.407352 0.0516436 6624.31 1260.15)" r="593"/>
  <circle class="fil1" transform="matrix(0.0516436 -0.407352 0.407352 0.0516436 12682.2 6268.81)" r="593"/>
  <circle class="fil1" transform="matrix(0.0516436 -0.407352 0.407352 0.0516436 2107.78 7950.87)" r="593"/>
  <g id="_2907365380928">
   <path class="fil3" d="M1377 3276c960,-1026 1671,-731 2855,-213 1191,521 1712,-478 2894,-775 1535,-385 2043,939 2634,800 556,-130 877,-606 1815,-641 1037,-38 1089,796 1698,529 -426,411 -773,-470 -1689,-404 -674,48 -923,289 -1454,554 -741,370 -910,-48 -1565,-436 -952,-563 -1787,-52 -2642,379 -1174,593 -1218,334 -2261,-96 -1087,-448 -1421,-354 -2284,303z"/>
  </g>
  <path class="fil4" d="M1377 3276c292,-271 585,-542 991,-606 407,-64 927,78 1319,235 392,157 656,328 934,389 278,61 571,11 952,-164 382,-175 852,-474 1273,-635 421,-160 792,-182 1080,-146 289,36 496,128 692,253 196,125 382,282 571,403 189,121 382,207 585,171 203,-36 417,-193 645,-317 228,-125 471,-218 742,-282 271,-64 571,-100 813,-46 242,53 428,196 599,310 171,114 328,200 442,218 114,18 185,-32 257,-82"/>
  <g id="_2907365374816">
   <path class="fil3" d="M11972 10041c-778,541 -1350,1011 -2209,465 -621,-394 -975,-696 -1723,-302 -500,264 -839,616 -1460,234 -940,-579 -713,-1052 -1863,-430 -1313,711 -1623,978 -2675,-200 1187,991 1235,836 2591,52 878,-508 978,-445 1682,98 830,639 824,465 1633,64 1000,-497 1354,60 2073,472 650,372 1335,-143 1951,-452z"/>
  </g>
  <path class="fil4" d="M11972 10041c-269,163 -539,326 -811,457 -273,131 -549,230 -804,195 -255,-35 -489,-206 -732,-375 -243,-170 -495,-339 -782,-377 -287,-39 -609,52 -848,172 -239,120 -395,269 -608,335 -213,66 -483,49 -749,-107 -266,-156 -528,-449 -762,-600 -234,-150 -440,-157 -727,-44 -287,113 -655,346 -966,522 -311,177 -567,297 -807,326 -241,29 -467,-34 -687,-172 -220,-138 -433,-351 -647,-565"/>
  <g id="_2907365375872">
   <path class="fil3" d="M7629 5829c-1747,1394 -2068,615 -3884,180 -1438,-344 -1422,569 -2117,357 -220,-67 -347,-213 -483,-383 573,400 609,410 1234,13 603,-383 1095,-294 1776,-100 1871,534 1564,975 3474,-67z"/>
  </g>
  <path class="fil4" d="M7629 5829c-280,191 -560,383 -842,513 -282,130 -567,199 -815,197 -248,-2 -459,-74 -710,-158 -251,-84 -541,-180 -789,-263 -248,-83 -453,-154 -705,-211 -252,-57 -549,-99 -780,-74 -230,25 -393,117 -571,227 -177,110 -369,237 -539,271 -170,33 -320,-27 -439,-101 -119,-73 -208,-160 -296,-246"/>
  <circle class="fil1" transform="matrix(0.103287 -0.814705 0.814705 0.103287 3313.87 6376.75)" r="627"/>
  <path class="fil2" d="M3277 5952c59,-3 123,14 156,49 33,36 33,90 -9,126 -43,36 -129,53 -195,75 -66,22 -110,48 -143,78 -33,30 -53,64 -64,108 -11,44 -14,97 -8,140 5,43 19,77 34,109 15,32 31,62 22,66 -10,4 -45,-18 -80,-65 -34,-47 -68,-119 -84,-180 -16,-62 -15,-113 -6,-166 10,-53 28,-108 65,-157 37,-49 93,-91 147,-124 54,-33 107,-56 165,-59z"/>
  <circle class="fil1" transform="matrix(0.0516436 -0.407352 0.407352 0.0516436 3494.53 4163.58)" r="593"/>
  <circle class="fil1" transform="matrix(-0.00920487 -0.657197 0.657197 -0.00920487 8563.76 12238.8)" r="897"/>
  <path class="fil2" d="M8508 11740c68,-4 142,16 180,57 38,41 39,104 -11,146 -50,42 -149,61 -225,87 -76,25 -127,56 -165,90 -38,35 -61,74 -74,124 -13,50 -16,112 -10,162 6,50 22,89 39,126 17,37 36,72 25,77 -11,5 -52,-21 -92,-75 -40,-54 -78,-137 -97,-208 -19,-71 -18,-131 -6,-192 11,-61 33,-125 75,-181 43,-56 107,-105 170,-143 63,-38 123,-65 191,-69z"/>
  <circle class="fil1" transform="matrix(0.0516436 -0.407352 0.407352 0.0516436 3261.54 11161.2)" r="593"/>
  <circle class="fil1" transform="matrix(0.0516436 -0.407352 0.407352 0.0516436 8743.26 9512.8)" r="593"/>
 </g>
</svg>
