<?xml version="1.0" encoding="UTF-8"?>
<!DOCTYPE svg PUBLIC "-//W3C//DTD SVG 1.1//EN" "http://www.w3.org/Graphics/SVG/1.1/DTD/svg11.dtd">
<!-- Creator: CorelDRAW 2017 -->
<svg xmlns="http://www.w3.org/2000/svg" xml:space="preserve" width="143mm" height="143mm" version="1.1" style="shape-rendering:geometricPrecision; text-rendering:geometricPrecision; image-rendering:optimizeQuality; fill-rule:evenodd; clip-rule:evenodd"
viewBox="0 0 14300 14300"
 xmlns:xlink="http://www.w3.org/1999/xlink">
 <defs>
  <style type="text/css">
   <![CDATA[
    .fil5 {fill:black}
    .fil2 {fill:black}
    .fil0 {fill:#DE8066}
    .fil3 {fill:red}
    .fil4 {fill:white}
    .fil1 {fill:white;fill-rule:nonzero}
   ]]>
  </style>
 </defs>
 <g id="Слой_x0020_1">
  <metadata id="CorelCorpID_0Corel-Layer"/>
  <path class="fil0" d="M4268 11330c400,-3 1034,38 1643,49 609,10 1194,-10 1448,49 254,59 178,198 233,282 56,84 244,111 654,143 411,31 1044,66 1636,139 592,73 1142,185 1372,376 230,191 139,463 -453,592 -592,129 -1685,115 -2482,101 -797,-14 -1299,-28 -1521,10 -223,38 -167,129 -306,185 -139,56 -473,77 -992,66 -519,-10 -1222,-52 -1563,-181 -341,-129 -320,-345 -383,-508 -63,-164 -209,-275 -460,-331 -251,-56 -606,-56 -891,-104 -285,-49 -501,-146 -498,-216 3,-70 226,-111 585,-143 359,-31 853,-52 1065,-97 212,-45 143,-115 125,-171 -17,-56 17,-97 118,-143 101,-45 268,-94 668,-97z"/>
  <path class="fil1" d="M1144 6138c-40,-38 -42,-101 -4,-141 38,-40 101,-42 141,-4l161 152 154 -374c21,-51 79,-75 130,-54 16,7 29,17 39,29l375 409 105 -99 78 -3136c1,-55 47,-99 102,-97 52,1 94,42 97,93l0 0 228 3173 65 61 163 -430c19,-52 77,-78 129,-58 24,9 43,27 54,48l0 0 296 579 141 -91 182 -1539c6,-55 56,-94 111,-88 49,6 86,46 88,94l168 1571 48 46 166 -478c18,-52 75,-80 127,-62 17,6 32,16 43,29l0 0 307 355 153 -144 86 -3970c1,-55 47,-99 102,-98 53,1 95,43 98,95l201 4091 144 383 211 -586c19,-52 76,-79 127,-60 27,10 48,30 58,55l0 0 192 452 164 -217 43 -3166c1,-55 46,-99 101,-98 53,1 95,42 98,93l0 0 199 3105 73 69 233 -411c27,-48 88,-65 136,-38 13,7 23,17 31,27l289 348 67 -63c22,-21 52,-30 80,-26l0 0 562 66 57 -11c6,-1 12,-2 18,-2l0 0 1643 0 461 -144c21,-7 42,-6 61,1l673 198 1843 -54c55,-2 101,42 102,97 2,55 -42,101 -97,102l-1854 54c-12,1 -24,0 -36,-4l-663 -195 -441 138c-11,4 -23,7 -36,7l-1649 0 -57 11c-11,3 -23,4 -35,2l-531 -62 -110 104 0 0 -5 4c-42,35 -105,29 -140,-13l-268 -323 -222 393c-4,8 -10,16 -16,23 -38,40 -101,42 -141,4l-193 -181c-19,-17 -32,-41 -33,-68l-37 -581 -9 630c0,21 -7,41 -20,59l-284 374c-10,16 -25,29 -44,37 -51,22 -109,-2 -131,-53l-160 -376 -215 596c-9,29 -30,54 -61,65 -52,19 -109,-7 -129,-58l-245 -651c-4,-10 -6,-20 -6,-30l-63 -1289 -26 1187c1,27 -10,55 -31,75l-259 244 -3 3c-42,36 -105,31 -141,-10l-262 -303 -157 454c-4,15 -12,30 -24,42 -38,40 -101,42 -141,4l-187 -175c-17,-16 -29,-38 -32,-63l-78 -732 -83 706 0 0c-3,29 -19,56 -45,72l-269 173c-4,3 -8,6 -13,8 -49,25 -109,5 -134,-44l-244 -477 -136 357c-4,13 -12,24 -21,35 -38,40 -101,42 -141,4l-199 -187c-19,-17 -32,-41 -34,-68l-83 -1154 -28 1111c1,27 -10,55 -31,75l-209 197 0 0 -1 1c-41,37 -104,34 -141,-6l-341 -372 -148 359c-4,13 -12,24 -21,35 -38,40 -101,42 -141,4l-267 -251z"/>
  <path class="fil2" d="M8607 2964c156,33 315,106 433,265 118,159 196,404 208,644 11,240 -45,474 -173,666 -128,192 -329,343 -496,415 -167,72 -301,67 -354,95 -53,28 -25,89 56,203 81,114 215,281 195,429 -20,148 -192,276 -320,485 -128,209 -212,499 -290,786 -78,287 -150,571 -178,780 -28,209 -11,343 145,518 156,176 451,393 691,602 240,209 424,410 502,649 78,240 50,518 -3,931 -53,412 -131,959 -167,1251 -36,293 -31,332 45,401 75,70 220,170 309,267 89,98 123,192 70,259 -53,67 -192,106 -396,111 -203,6 -471,-22 -658,-86 -187,-64 -293,-164 -329,-320 -36,-156 -3,-368 42,-697 45,-329 100,-775 117,-1109 17,-334 -6,-557 -139,-747 -134,-189 -379,-345 -591,-493 -212,-148 -390,-287 -421,-276 -31,11 86,173 205,362 118,189 238,406 307,584 68,178 85,317 53,422 -32,104 -113,174 -319,353 -206,179 -538,466 -808,691 -270,225 -479,386 -575,517 -96,131 -79,231 -71,329 8,98 8,192 3,259 -6,67 -17,106 -84,148 -67,42 -190,86 -304,53 -114,-33 -220,-145 -323,-304 -103,-159 -203,-365 -256,-524 -53,-159 -59,-270 -36,-359 22,-89 72,-156 245,-273 173,-117 468,-284 730,-457 262,-173 490,-351 627,-482 137,-131 181,-215 72,-410 -109,-195 -371,-502 -577,-789 -206,-287 -357,-554 -412,-819 -56,-265 -17,-527 53,-864 70,-337 170,-750 315,-1112 145,-362 334,-674 471,-889 137,-215 220,-332 326,-415 106,-84 234,-134 354,-167 120,-33 231,-50 309,-78 78,-28 123,-67 150,-123 28,-56 39,-128 36,-231 -3,-103 -20,-237 -3,-396 17,-159 67,-343 137,-490 70,-148 159,-259 265,-351 106,-92 228,-164 366,-203 138,-39 291,-45 447,-11z"/>
  <path class="fil3" d="M7595 5712c44,-4 140,-28 219,-14 80,14 144,67 179,137 35,70 40,156 -18,265 -59,109 -181,240 -362,355 -181,116 -421,216 -535,248 -114,32 -103,-4 -117,-96 -14,-92 -53,-240 -77,-381 -24,-141 -32,-274 -15,-381 17,-107 58,-188 113,-252 54,-64 121,-111 184,-139 63,-28 121,-36 174,-26 53,10 100,38 137,83 37,46 63,110 72,150 9,40 2,56 46,52z"/>
  <path class="fil2" d="M8254 5212c198,149 397,298 556,537 159,240 279,570 327,841 48,272 25,485 -60,626 -85,141 -233,211 -469,154 -235,-57 -559,-241 -786,-432 -227,-191 -358,-389 -425,-550 -67,-162 -70,-287 -40,-366 29,-79 91,-113 150,-117 60,-4 118,21 199,85 81,64 184,167 281,263 98,96 189,185 273,245 84,60 159,91 163,32 4,-59 -63,-206 -108,-298 -46,-92 -70,-128 -88,-168 -18,-40 -30,-85 -15,-147 15,-61 57,-140 78,-198 21,-59 21,-98 24,-161 3,-63 10,-150 0,-212 -10,-62 -35,-98 -61,-135z"/>
  <path class="fil2" d="M7296 4724c-150,-34 -300,-68 -461,-75 -161,-7 -333,12 -488,41 -155,29 -293,66 -449,139 -156,73 -331,182 -468,302 -137,121 -237,253 -326,383 -89,130 -167,258 -153,384 14,125 120,248 275,324 155,76 359,107 544,121 185,14 352,12 538,6 186,-6 390,-16 527,-55 137,-40 207,-109 230,-164 24,-54 1,-93 -112,-132 -113,-38 -318,-76 -463,-98 -145,-22 -232,-27 -363,-44 -131,-17 -306,-46 -334,-135 -28,-88 92,-236 214,-276 122,-40 245,28 332,12 86,-16 135,-116 200,-194 65,-78 146,-134 239,-192 93,-59 199,-120 288,-178 88,-58 160,-114 231,-169z"/>
  <path class="fil4" d="M8522 4356c43,27 100,81 107,127 7,46 -37,84 -100,113 -64,29 -147,48 -205,84 -58,37 -91,91 -130,118 -38,27 -82,27 -109,-2 -27,-29 -37,-86 -24,-151 13,-64 50,-136 91,-190 42,-54 89,-91 135,-109 46,-18 91,-18 128,-18 37,0 64,0 107,27z"/>
  <path class="fil5" d="M7576 2913c-30,-10 -736,-449 -688,-520 10,-14 430,-182 559,-234 -419,-620 -453,-515 347,-415 31,-132 106,-492 179,-626 -1,-7 -1,-12 0,-14l7 2c17,-27 34,-42 50,-38 33,8 36,34 34,59l0 0 -1 3 -1 4c131,517 77,300 187,747 142,-171 498,-598 547,-575 55,25 -73,684 -103,849 791,31 725,-108 179,613l0 0c237,-377 127,-207 352,-546 -133,-2 -564,-7 -578,-14 -37,-18 37,-495 76,-738 -155,190 -458,559 -505,548 -42,-10 -150,-428 -207,-695 -169,653 -27,543 -746,435 85,130 259,399 261,413 7,52 -387,184 -549,239 261,180 283,228 598,504z"/>
  <path class="fil2" d="M9015 5034c115,-90 384,-285 565,-402 181,-117 275,-155 317,-152 42,3 31,47 -72,123 -102,75 -296,182 -453,269 -157,87 -277,155 -356,196 -79,41 -116,56 -1,-34z"/>
  <path class="fil2" d="M9220 5380c74,-29 351,-103 525,-140 175,-37 247,-36 269,-17 22,19 -6,55 -116,84 -110,29 -302,49 -462,68 -161,19 -290,35 -217,6z"/>
  <path class="fil2" d="M6436 4448c-41,-67 -201,-268 -314,-396 -113,-129 -177,-185 -217,-194 -40,-9 -56,28 -11,95 46,66 153,161 235,236 81,76 136,133 203,195 67,62 146,130 105,64z"/>
 </g>
</svg>
