<?xml version="1.0" encoding="UTF-8"?>
<!DOCTYPE svg PUBLIC "-//W3C//DTD SVG 1.1//EN" "http://www.w3.org/Graphics/SVG/1.1/DTD/svg11.dtd">
<!-- Creator: CorelDRAW 2017 -->
<svg xmlns="http://www.w3.org/2000/svg" xml:space="preserve" width="143mm" height="143mm" version="1.1" style="shape-rendering:geometricPrecision; text-rendering:geometricPrecision; image-rendering:optimizeQuality; fill-rule:evenodd; clip-rule:evenodd"
viewBox="0 0 14300 14300"
 xmlns:xlink="http://www.w3.org/1999/xlink">
 <defs>
  <style type="text/css">
   <![CDATA[
    .fil1 {fill:black}
    .fil2 {fill:#A60000}
    .fil0 {fill:#B3B3B3}
    .fil4 {fill:#FFD663}
    .fil3 {fill:white}
   ]]>
  </style>
 </defs>
 <g id="Слой_x0020_1">
  <metadata id="CorelCorpID_0Corel-Layer"/>
  <path class="fil0" d="M9747 7840c122,-27 275,-68 428,-131 153,-63 306,-148 452,-294 146,-146 285,-353 406,-647 121,-294 222,-674 202,-926 -20,-251 -163,-374 -262,-499 -99,-126 -153,-255 -109,-391 44,-136 187,-278 285,-425 98,-146 153,-295 160,-438 7,-143 -34,-278 -95,-414 -61,-136 -143,-272 -153,-394 -10,-122 51,-231 126,-357 75,-126 163,-268 180,-401 17,-132 -37,-255 -44,-289 -7,-34 34,20 71,95 37,75 71,170 46,287 -25,117 -110,256 -165,352 -54,95 -78,146 -61,224 17,78 75,183 136,290 61,107 126,216 172,357 46,141 73,314 42,481 -31,166 -119,326 -168,481 -49,155 -59,304 -10,421 49,117 158,202 222,307 65,105 85,231 80,392 -5,161 -36,358 -48,487 -12,129 -5,190 39,180 44,-10 126,-92 202,-194 76,-102 148,-224 165,-357 17,-132 -20,-275 -66,-409 -46,-134 -100,-260 -107,-370 -7,-110 34,-205 83,-284 49,-78 107,-139 161,-221 54,-82 105,-183 110,-284 5,-100 -36,-199 -76,-282 -41,-83 -82,-151 -97,-228 -15,-76 -5,-161 19,-245 24,-83 61,-165 85,-246 24,-82 34,-163 37,-212 3,-49 0,-66 10,-25 10,41 34,139 31,239 -3,100 -34,202 -48,289 -14,87 -10,158 29,239 39,82 114,173 173,260 59,87 104,168 119,268 15,100 2,219 -61,340 -63,121 -175,243 -233,350 -58,107 -61,199 -39,304 22,105 70,224 129,340 59,115 131,228 182,355 51,127 82,270 66,404 -15,134 -76,260 -115,346 -39,87 -56,134 -119,228 -63,93 -172,233 -438,402 -267,170 -691,370 -1138,482 -447,112 -915,136 -1243,112 -328,-24 -515,-95 -614,-152 -99,-57 -111,-99 -77,-127 34,-27 114,-39 227,-40 113,-1 259,9 378,8 119,-2 211,-15 333,-42z"/>
  <path class="fil0" d="M7704 7006c35,70 106,158 191,199 85,41 184,34 193,83 9,49 -73,154 -226,187 -153,32 -377,-9 -613,-175 -236,-166 -484,-459 -766,-645 -282,-187 -598,-268 -858,-243 -260,25 -464,158 -659,290 -195,132 -382,265 -596,363 -214,99 -455,163 -619,182 -164,19 -251,-7 -200,-66 51,-59 240,-152 479,-302 239,-150 527,-357 764,-541 236,-183 419,-343 581,-489 161,-146 301,-279 355,-457 54,-178 24,-402 -25,-567 -49,-165 -117,-270 -170,-394 -53,-124 -90,-267 -76,-387 14,-121 78,-219 183,-301 105,-82 251,-146 348,-236 97,-90 144,-205 151,-306 7,-100 -27,-185 -76,-265 -49,-80 -114,-155 -148,-219 -34,-65 -37,-119 -8,-175 29,-56 90,-114 127,-182 37,-68 51,-146 59,-155 8,-8 12,53 3,114 -8,61 -29,122 -27,183 2,61 25,122 68,180 42,58 104,112 151,170 48,58 82,119 98,222 17,104 17,250 -41,372 -58,122 -173,221 -287,302 -114,82 -226,146 -256,256 -31,110 20,267 88,396 68,129 153,231 219,328 66,97 114,188 144,316 31,127 44,290 32,418 -12,127 -49,219 -51,311 -2,92 32,183 110,239 78,56 200,76 312,58 112,-19 214,-76 277,-195 63,-119 87,-299 53,-425 -34,-126 -126,-197 -183,-277 -58,-80 -82,-168 -36,-262 46,-93 161,-192 253,-255 92,-63 160,-90 211,-149 51,-59 85,-151 71,-229 -14,-78 -75,-143 -132,-200 -58,-58 -112,-109 -119,-183 -7,-75 34,-173 88,-262 54,-88 122,-166 155,-216 32,-49 29,-70 19,-32 -10,37 -27,132 -48,207 -20,75 -44,129 -36,194 8,65 49,139 105,224 56,85 127,180 173,282 46,102 66,211 8,307 -58,97 -194,182 -292,260 -99,78 -160,149 -156,236 3,87 71,189 131,287 59,99 110,194 122,312 12,119 -15,262 -48,380 -32,119 -70,214 -68,289 2,75 42,129 114,126 71,-3 173,-65 226,-163 53,-98 56,-234 37,-355 -19,-121 -59,-226 -42,-309 17,-83 92,-144 178,-207 87,-63 185,-127 224,-204 39,-76 19,-165 3,-241 -15,-76 -25,-141 5,-209 31,-68 102,-139 139,-200 37,-61 41,-112 48,-102 7,10 17,82 7,136 -10,54 -41,92 -61,141 -20,49 -31,110 -22,199 8,88 36,204 39,312 3,109 -17,211 -87,284 -70,73 -189,117 -241,190 -53,73 -39,175 -15,284 24,109 58,224 78,324 20,100 27,185 -3,260 -31,75 -99,139 -132,197 -34,58 -34,109 1,178z"/>
  <path class="fil1" d="M9370 5321c170,-8 391,-12 572,65 182,76 324,233 409,445 85,212 112,481 32,734 -80,253 -267,491 -436,657 -170,166 -323,262 -465,307 -143,46 -275,42 -358,34 -83,-8 -117,-22 -185,-5 -68,17 -170,65 -207,117 -37,53 -10,110 88,168 98,58 268,115 518,153 250,37 579,54 948,7 369,-48 776,-160 1095,-284 319,-124 550,-260 708,-363 158,-104 243,-175 336,-205 93,-31 195,-20 221,59 25,80 -25,229 -204,416 -178,187 -484,411 -841,582 -357,172 -764,290 -1192,331 -428,41 -876,3 -1136,-15 -260,-19 -331,-19 -425,25 -93,44 -209,132 -352,280 -143,148 -312,355 -442,413 -129,58 -217,-34 -374,-115 -156,-82 -380,-153 -610,-173 -229,-20 -464,10 -698,70 -234,59 -469,148 -676,222 -207,75 -387,136 -562,143 -175,7 -345,-41 -453,-70 -109,-29 -156,-39 -124,-78 32,-39 144,-107 416,-285 272,-178 703,-467 1002,-661 299,-194 465,-292 589,-375 124,-83 205,-151 228,-243 22,-92 -15,-207 -172,-357 -156,-149 -431,-333 -599,-433 -168,-100 -229,-117 -335,-105 -105,12 -255,53 -445,153 -190,100 -421,260 -625,370 -204,110 -380,172 -569,205 -188,34 -389,41 -521,0 -132,-41 -197,-129 -197,-194 0,-65 65,-105 211,-155 146,-49 374,-107 584,-211 211,-104 404,-253 627,-404 222,-151 474,-304 710,-385 236,-82 457,-92 666,-24 209,68 406,214 593,374 187,160 363,333 511,465 148,132 267,224 370,285 104,61 192,92 279,82 87,-10 172,-61 234,-112 63,-51 104,-102 121,-204 17,-102 10,-255 19,-391 8,-136 32,-255 80,-408 48,-153 119,-340 228,-491 109,-151 255,-267 387,-331 132,-65 251,-78 421,-87z"/>
  <path class="fil2" d="M12616 9804c-69,-26 -249,-64 -368,-104 -119,-41 -177,-85 -214,-151 -37,-66 -54,-155 -27,-248 27,-93 98,-192 138,-323 39,-131 46,-294 12,-404 -34,-110 -109,-168 -126,-173 -17,-5 24,42 3,161 -20,119 -102,309 -209,425 -107,115 -239,156 -353,172 -114,15 -209,5 -260,-49 -51,-54 -58,-153 -51,-243 7,-90 27,-172 12,-221 -15,-49 -66,-66 -90,-58 -24,8 -20,42 -41,95 -20,53 -65,124 -124,187 -59,63 -134,117 -212,153 -78,36 -160,53 -216,31 -56,-22 -87,-83 -82,-136 5,-53 46,-97 58,-121 12,-24 -5,-27 -44,7 -39,34 -100,105 -151,178 -51,73 -92,148 -173,214 -82,66 -204,124 -312,168 -109,44 -204,75 -273,68 -70,-7 -114,-51 -112,-131 2,-80 49,-195 37,-307 -12,-112 -83,-221 -156,-300 -73,-80 -148,-130 -167,-111 -19,19 19,106 43,191 24,85 34,166 17,256 -17,90 -61,189 -114,221 -53,32 -114,-2 -148,-58 -34,-56 -41,-134 -58,-151 -17,-17 -44,27 -70,102 -25,75 -49,180 -126,250 -76,70 -205,104 -315,73 -110,-31 -200,-127 -322,-208 -122,-82 -276,-150 -432,-206 -156,-56 -313,-101 -475,-128 -162,-27 -327,-36 -622,24 -295,60 -720,189 -988,255 -268,66 -380,70 -504,48 -124,-22 -260,-70 -333,-166 -73,-97 -83,-243 -42,-411 41,-168 132,-358 132,-525 0,-166 -92,-309 -155,-397 -63,-88 -97,-122 -112,-97 -15,25 -12,110 -2,207 10,97 27,205 12,312 -15,107 -63,212 -121,292 -58,80 -126,134 -173,126 -48,-8 -75,-80 -85,-138 -10,-58 -3,-102 -14,-163 -10,-61 -37,-139 -73,-192 -36,-53 -80,-80 -93,-58 -14,22 3,93 15,197 12,104 19,239 -8,355 -27,115 -88,211 -189,262 -100,51 -239,58 -350,63 -110,5 -192,9 -248,-32 -56,-41 -87,-126 -78,-216 8,-90 56,-185 58,-272 2,-87 -42,-165 -58,-177 -15,-12 -2,42 -42,121 -41,78 -136,180 -204,279 -68,99 -109,194 -141,263 -32,70 -56,114 -92,134 -36,20 -83,17 -99,-17 -15,-34 2,-98 -3,-155 -5,-56 -32,-104 -104,-160 -71,-56 -187,-121 -212,-121 -25,0 39,65 65,115 25,51 12,88 -17,132 -29,44 -73,95 -87,168 -14,73 3,168 -61,243 -65,75 -211,129 -358,216 -148,87 -297,205 -406,272 -109,66 -177,80 -177,107 0,27 68,68 238,72 170,4 443,-27 693,-86 251,-59 480,-146 706,-202 226,-56 448,-83 673,-65 225,18 452,81 633,167 181,86 317,195 524,252 207,58 486,65 752,17 267,-48 521,-151 792,-224 271,-73 557,-117 820,-117 263,0 503,45 681,119 178,73 293,175 499,264 206,89 502,164 800,134 298,-30 598,-166 886,-278 288,-112 563,-200 783,-248 220,-48 386,-55 585,7 198,62 430,192 628,277 198,85 364,123 485,108 121,-15 196,-85 255,-128 59,-42 101,-58 33,-84z"/>
  <path class="fil2" d="M12641 10543c-97,-51 -341,-122 -565,-233 -224,-110 -428,-260 -661,-367 -233,-107 -494,-172 -752,-131 -258,41 -513,187 -764,336 -251,149 -499,302 -781,338 -282,36 -598,-46 -858,-170 -260,-124 -464,-290 -686,-389 -222,-98 -464,-129 -762,-109 -299,20 -655,92 -905,209 -250,117 -392,280 -603,324 -211,44 -489,-31 -757,-141 -268,-110 -526,-256 -751,-338 -224,-82 -414,-98 -615,-92 -200,7 -411,37 -613,119 -202,82 -396,214 -588,319 -192,105 -382,183 -537,214 -155,31 -273,14 -301,34 -27,20 37,78 160,124 122,46 302,80 508,70 205,-10 436,-65 644,-124 207,-59 391,-124 650,-139 260,-15 596,19 863,114 267,95 464,251 689,350 226,99 481,139 783,65 302,-75 652,-265 934,-385 282,-121 496,-172 723,-148 228,24 469,122 676,238 207,115 380,248 576,323 195,75 413,92 649,48 236,-44 491,-149 729,-279 238,-129 458,-282 662,-363 204,-82 391,-92 606,-61 216,31 460,102 678,178 217,76 408,158 564,189 156,31 279,10 365,-15 87,-25 138,-56 41,-107z"/>
  <path class="fil3" d="M9394 6656c66,29 141,93 131,197 -10,104 -105,246 -200,328 -95,82 -190,102 -275,121 -85,19 -160,36 -204,0 -44,-36 -58,-124 -58,-197 0,-73 14,-131 49,-192 36,-61 93,-126 160,-172 66,-46 141,-73 207,-90 66,-17 124,-24 190,5z"/>
  <path class="fil3" d="M10047 6092c45,5 79,42 82,99 3,56 -24,131 -65,175 -42,44 -98,58 -129,15 -31,-42 -38,-141 -14,-204 25,-63 81,-90 126,-85z"/>
  <path class="fil3" d="M9393 5772c47,-4 101,14 121,53 20,38 4,96 -33,146 -37,50 -97,93 -138,109 -42,16 -65,6 -75,-40 -9,-46 -4,-127 18,-182 22,-54 61,-82 108,-86z"/>
  <path class="fil4" d="M11902 9614c9,-10 -18,-51 -35,-119 -17,-68 -24,-163 3,-255 27,-92 89,-180 122,-245 33,-65 36,-108 9,-88 -27,19 -86,101 -157,178 -71,78 -156,152 -233,198 -77,47 -146,66 -206,76 -60,10 -111,10 -163,-16 -52,-26 -105,-77 -131,-144 -26,-67 -26,-150 -55,-154 -28,-4 -85,70 -125,131 -41,61 -65,108 -106,137 -41,28 -97,37 -168,28 -71,-9 -158,-35 -206,-73 -49,-38 -59,-87 -70,-89 -11,-2 -21,44 -35,96 -14,52 -32,110 -61,158 -29,48 -70,85 -34,83 35,-2 146,-42 288,-71 141,-28 312,-44 430,-46 118,-2 183,11 283,30 100,19 234,46 332,72 98,26 160,53 213,77 53,24 98,46 106,36z"/>
  <path class="fil4" d="M9341 9080c0,78 -7,177 -26,266 -19,90 -48,170 -73,240 -26,71 -48,131 -87,191 -40,60 -97,118 -150,150 -53,32 -101,38 -148,32 -46,-6 -90,-25 -104,-90 -14,-66 3,-179 24,-275 21,-96 45,-176 55,-237 10,-61 4,-105 11,-103 6,2 24,49 39,94 15,46 29,91 61,96 33,5 85,-29 137,-70 52,-41 105,-89 142,-146 37,-57 57,-123 65,-190 8,-67 4,-135 8,-161 4,-26 16,-9 27,28 11,37 19,94 20,172z"/>
  <path class="fil4" d="M4530 8455c-22,78 -60,172 -105,239 -45,67 -99,109 -163,108 -64,-1 -138,-44 -173,-102 -35,-58 -30,-130 -33,-117 -2,13 -11,112 -46,206 -35,94 -97,184 -204,239 -107,55 -258,74 -381,69 -123,-5 -217,-35 -279,-83 -61,-48 -90,-114 -105,-166 -16,-52 -19,-89 -32,-79 -13,9 -35,65 -49,121 -14,56 -19,114 -44,171 -25,57 -69,115 -137,142 -68,28 -161,26 -240,-8 -79,-34 -144,-99 -173,-155 -29,-56 -22,-104 -32,-90 -10,14 -36,89 -50,160 -14,71 -15,139 9,191 24,51 72,86 149,104 76,19 180,21 284,-1 103,-22 205,-69 271,-97 65,-29 93,-39 167,-37 74,2 193,16 300,35 107,19 202,44 296,77 94,33 187,73 264,110 77,37 139,69 197,106 58,37 112,77 169,107 57,30 118,48 183,52 65,4 134,-7 185,-40 51,-34 85,-90 81,-108 -4,-19 -45,1 -90,9 -45,8 -93,4 -138,-27 -44,-32 -84,-92 -112,-180 -28,-88 -45,-205 -41,-309 4,-105 30,-197 53,-291 23,-94 43,-191 57,-268 14,-77 21,-135 20,-181 -1,-45 -10,-78 -18,-63 -8,15 -16,79 -39,157z"/>
 </g>
</svg>
