<?xml version="1.0" encoding="UTF-8"?>
<!DOCTYPE svg PUBLIC "-//W3C//DTD SVG 1.1//EN" "http://www.w3.org/Graphics/SVG/1.1/DTD/svg11.dtd">
<!-- Creator: CorelDRAW 2017 -->
<svg xmlns="http://www.w3.org/2000/svg" xml:space="preserve" width="143mm" height="143mm" version="1.1" style="shape-rendering:geometricPrecision; text-rendering:geometricPrecision; image-rendering:optimizeQuality; fill-rule:evenodd; clip-rule:evenodd"
viewBox="0 0 14300 14300"
 xmlns:xlink="http://www.w3.org/1999/xlink">
 <defs>
  <style type="text/css">
   <![CDATA[
    .str0 {stroke:black;stroke-width:20}
    .fil2 {fill:black}
    .fil3 {fill:#4D4D4D}
    .fil0 {fill:#A60000}
    .fil1 {fill:white}
   ]]>
  </style>
 </defs>
 <g id="Слой_x0020_1">
  <metadata id="CorelCorpID_0Corel-Layer"/>
  <path class="fil0" d="M7548 9089c413,46 1053,48 1408,14 355,-34 425,-104 529,-112 104,-7 243,49 469,137 227,88 541,209 767,274 226,65 362,75 482,136 120,61 224,173 481,246 257,73 668,106 844,257 176,152 116,421 -75,571 -190,150 -511,179 -924,271 -412,92 -916,247 -1171,427 -255,180 -261,386 -277,534 -16,147 -41,236 -780,326 -739,91 -2193,184 -3177,47 -985,-137 -1501,-505 -1910,-660 -409,-155 -711,-96 -991,-76 -280,20 -538,0 -661,-79 -123,-78 -110,-216 -83,-375 28,-159 70,-340 -166,-463 -236,-123 -750,-189 -1017,-354 -267,-165 -286,-428 -191,-580 94,-151 302,-191 525,-225 223,-34 462,-64 632,-155 169,-92 268,-245 507,-363 239,-118 618,-200 1244,-287 626,-87 1497,-179 1996,-137 499,42 625,219 781,353 156,134 343,225 756,272z"/>
  <path class="fil1" d="M3163 5669c272,-7 775,-4 1091,-7 316,-2 445,-9 539,-50 95,-41 155,-117 182,-210 28,-93 23,-205 3,-283 -20,-78 -56,-122 -90,-149 -34,-27 -68,-36 -118,-43 -50,-8 -117,-14 -181,8 -65,22 -127,73 -159,126 -32,52 -34,106 -26,148 9,42 29,73 71,97 42,23 107,39 148,39 41,0 59,-16 72,-12 13,3 22,26 14,53 -8,28 -32,61 -82,76 -50,14 -126,10 -189,-19 -63,-29 -115,-82 -143,-138 -29,-56 -36,-113 -24,-189 11,-76 40,-169 117,-244 77,-75 201,-130 325,-141 123,-11 246,22 344,87 98,65 171,160 206,258 34,98 30,198 16,275 -14,77 -39,130 -99,198 -60,68 -156,150 -277,197 -121,47 -268,58 -597,59 -329,1 -841,-8 -1119,-19 -278,-11 -323,-24 -347,-38 -24,-13 -29,-27 -10,-41 19,-14 61,-30 334,-37z"/>
  <path class="fil1" d="M3724 6586c333,-8 945,-10 1352,-4 407,6 608,19 749,52 140,33 219,87 278,158 58,71 96,160 115,252 19,92 19,188 -16,277 -35,89 -104,171 -191,220 -87,49 -192,65 -282,62 -91,-2 -168,-22 -230,-69 -62,-47 -110,-120 -133,-191 -24,-71 -24,-140 -10,-202 14,-62 41,-118 79,-157 38,-39 85,-61 132,-68 47,-7 95,2 121,14 26,12 30,28 23,43 -7,16 -25,31 -62,47 -38,16 -95,31 -126,58 -32,27 -38,65 -35,112 3,48 15,106 51,150 37,44 98,76 164,83 66,8 137,-8 194,-44 57,-36 99,-93 117,-172 17,-80 9,-182 -22,-256 -31,-74 -85,-120 -174,-151 -88,-32 -211,-49 -548,-62 -337,-12 -888,-19 -1242,-28 -354,-9 -510,-20 -601,-36 -91,-16 -117,-36 -103,-52 14,-17 67,-30 400,-38z"/>
  <path class="fil1" d="M2753 6160c467,7 1375,20 2041,22 666,2 1091,-7 1337,-53 246,-47 313,-131 347,-220 34,-89 37,-182 -8,-254 -44,-71 -136,-120 -225,-123 -89,-3 -176,39 -221,98 -46,59 -50,135 -30,179 20,44 65,58 103,57 39,-1 72,-17 92,0 20,17 27,66 -2,98 -29,32 -93,48 -161,31 -68,-17 -139,-66 -179,-139 -40,-73 -49,-171 -22,-269 27,-98 89,-196 185,-255 96,-59 225,-79 343,-57 118,22 225,87 297,177 72,90 110,206 123,310 13,105 2,198 -43,283 -46,85 -126,160 -209,210 -83,50 -170,75 -571,91 -400,17 -1114,26 -1738,24 -624,-1 -1158,-12 -1496,-37 -338,-24 -480,-62 -528,-95 -48,-32 -1,-59 36,-72 37,-13 63,-13 531,-7z"/>
  <path class="fil2 str0" d="M1573 11018c291,-23 746,-91 1189,-131 443,-40 874,-53 1181,-75 308,-22 492,-53 638,-104 146,-52 254,-123 151,-190 -102,-67 -415,-129 -725,-167 -309,-38 -615,-53 -932,-34 -317,18 -644,69 -949,112 -305,43 -587,78 -793,143 -206,65 -335,159 -374,234 -38,76 15,133 105,173 90,40 217,62 507,39z"/>
  <path class="fil2 str0" d="M4911 9965c-272,57 -787,32 -1347,-32 -560,-64 -1165,-165 -1553,-248 -388,-83 -558,-148 -667,-227 -109,-79 -157,-174 -185,-290 -28,-117 -37,-256 -20,-356 17,-100 59,-161 134,-128 74,32 180,158 292,246 112,89 231,140 410,191 179,51 419,100 768,152 349,52 807,107 1148,146 341,39 566,62 772,95 206,32 393,74 472,165 79,91 49,232 -223,289z"/>
  <path class="fil2" d="M7670 9821c49,-49 85,-146 -13,-254 -98,-108 -331,-228 -610,-363 -279,-134 -606,-282 -938,-409 -332,-127 -670,-232 -941,-313 -271,-81 -475,-137 -583,-128 -108,9 -119,82 9,180 128,98 396,222 651,324 255,103 496,185 775,308 279,124 596,289 810,400 215,112 327,170 421,212 94,42 169,69 238,81 69,12 132,9 182,-40z"/>
  <path class="fil3" d="M7896 9977c3,74 4,178 -39,292 -43,115 -129,240 -252,317 -123,77 -282,106 -461,101 -179,-5 -377,-44 -520,-74 -143,-29 -232,-48 -350,-16 -119,32 -267,115 -486,220 -219,105 -507,230 -937,298 -430,68 -1002,77 -1389,82 -387,5 -588,4 -657,-17 -69,-21 -6,-61 59,-175 66,-113 135,-299 144,-469 10,-169 -40,-322 -106,-428 -66,-106 -148,-166 -163,-266 -15,-100 37,-241 97,-382 61,-142 130,-284 117,-397 -13,-113 -109,-196 -51,-224 59,-28 272,-2 537,22 266,24 584,44 879,96 295,52 567,134 819,222 251,88 482,182 650,256 168,75 272,130 368,176 96,46 184,83 290,61 106,-21 229,-100 347,-157 118,-57 232,-91 358,-119 126,-28 265,-50 387,-33 122,17 228,73 283,154 54,81 57,188 61,263 4,75 9,119 12,193z"/>
  <path class="fil2" d="M7461 10666c-190,178 -549,471 -978,728 -429,257 -926,476 -1253,630 -327,153 -483,240 -537,234 -54,-6 -7,-105 71,-213 79,-108 188,-226 384,-374 195,-148 476,-326 732,-472 257,-145 490,-257 674,-364 184,-107 319,-209 431,-304 112,-94 200,-181 285,-231 85,-50 168,-64 237,-47 70,17 127,64 145,118 18,54 -2,116 -191,294z"/>
  <path class="fil2 str0" d="M9466 9760c11,110 20,238 -37,361 -57,123 -179,240 -336,327 -157,87 -348,143 -553,133 -205,-10 -423,-85 -567,-194 -145,-108 -216,-250 -229,-398 -13,-148 34,-303 166,-424 133,-121 352,-208 565,-264 213,-57 419,-83 576,-50 157,33 265,125 327,217 61,92 76,183 88,293z"/>
  <path class="fil1" d="M8527 9935c106,-144 138,-193 324,-165 -128,79 -178,110 -324,165z"/>
  <path class="fil1" d="M8804 9956c-188,-104 -117,-85 -301,-154 150,-102 242,22 301,154z"/>
  <path class="fil1" d="M8651 9475c106,-144 138,-193 324,-165 -128,79 -178,110 -324,165z"/>
  <path class="fil1" d="M8928 9496c-188,-104 -117,-85 -301,-154 150,-102 242,22 301,154z"/>
  <path class="fil2 str0" d="M9477 8999c159,-87 336,-123 501,-120 165,2 318,43 465,128 146,85 286,214 405,317 119,103 216,178 293,217 77,39 135,41 229,22 95,-19 226,-59 321,-97 94,-38 152,-73 183,-114 31,-41 37,-86 39,-128 2,-42 1,-79 -10,-96 -10,-17 -29,-15 -45,-13 -16,2 -29,4 -40,14 -11,10 -20,29 -23,47 -4,18 -3,34 -9,37 -6,3 -18,-7 -25,-31 -7,-24 -8,-63 5,-107 13,-44 42,-95 81,-125 39,-30 89,-41 143,-36 54,5 114,24 159,61 45,37 75,90 96,161 21,71 34,159 34,235 0,76 -13,141 -38,207 -25,65 -61,131 -114,184 -53,53 -122,94 -213,118 -91,24 -203,31 -287,29 -84,-2 -139,-13 -212,-36 -73,-23 -162,-59 -206,-86 -44,-27 -42,-47 -23,-40 19,7 55,39 87,76 32,37 60,80 97,115 37,35 83,61 137,81 54,20 116,32 188,34 72,2 153,-8 228,-36 74,-29 141,-76 201,-150 60,-74 113,-174 159,-248 46,-74 85,-122 135,-162 50,-41 111,-74 168,-98 57,-23 109,-37 166,-32 57,5 119,28 179,58 60,31 119,70 156,104 37,34 52,63 62,86 10,23 15,41 6,39 -9,-3 -30,-25 -67,-43 -37,-18 -88,-30 -151,-31 -63,-1 -136,8 -208,29 -72,21 -142,53 -209,97 -67,45 -130,102 -194,168 -64,66 -128,142 -216,192 -88,50 -199,75 -312,77 -113,2 -227,-18 -311,-48 -84,-30 -139,-71 -146,-74 -7,-3 33,31 102,67 69,36 166,75 250,97 84,22 154,27 226,24 71,-4 144,-16 199,-39 55,-23 93,-56 175,-123 82,-67 210,-169 306,-239 97,-70 163,-110 247,-123 84,-13 184,1 261,30 77,29 130,74 176,124 46,50 84,107 107,165 23,58 30,118 23,189 -7,72 -28,156 -58,219 -29,64 -67,107 -118,140 -51,33 -116,56 -181,60 -65,3 -131,-14 -179,-43 -48,-29 -77,-70 -102,-117 -25,-47 -46,-99 -54,-153 -8,-54 -2,-108 8,-155 10,-46 25,-85 56,-121 32,-36 81,-70 132,-83 51,-12 104,-3 133,29 29,32 34,87 32,132 -1,45 -9,81 -29,95 -20,14 -52,7 -71,-7 -20,-15 -27,-37 -29,-61 -2,-24 2,-49 -8,-63 -10,-14 -32,-18 -57,-11 -25,7 -52,24 -71,52 -19,28 -30,68 -28,117 1,49 14,107 39,144 25,36 62,51 106,50 45,-1 97,-17 143,-46 46,-29 84,-71 106,-136 22,-65 28,-154 2,-226 -26,-72 -82,-127 -136,-154 -53,-26 -102,-23 -158,-11 -55,12 -116,34 -178,79 -62,45 -126,113 -207,213 -82,101 -182,234 -259,322 -77,88 -131,131 -220,159 -89,28 -213,40 -326,14 -112,-26 -213,-90 -301,-188 -88,-98 -164,-230 -244,-338 -81,-109 -166,-195 -239,-260 -74,-65 -136,-111 -205,-151 -69,-40 -143,-75 -205,-101 -62,-26 -111,-42 -171,-52 -60,-10 -132,-14 -194,-11 -62,3 -113,14 -163,47 -50,33 -98,88 -131,150 -33,62 -50,131 -74,189 -25,58 -57,104 -97,158 -40,54 -89,114 -118,146 -29,32 -38,34 -28,29 11,-6 42,-19 99,-58 57,-39 141,-103 226,-187 85,-84 173,-189 285,-249 112,-60 248,-77 357,-66 109,11 190,49 274,105 83,55 169,128 246,221 77,93 145,207 189,312 44,105 64,203 105,274 41,71 104,116 170,150 67,33 138,55 211,54 73,-1 147,-23 199,-46 53,-22 84,-43 91,-44 7,-1 -11,20 -53,61 -42,42 -108,105 -181,139 -73,34 -153,39 -242,26 -89,-13 -186,-45 -240,-117 -54,-72 -64,-186 -98,-315 -35,-130 -94,-275 -169,-391 -76,-115 -167,-200 -296,-232 -129,-32 -295,-12 -426,59 -132,71 -229,195 -316,328 -87,133 -163,276 -248,372 -85,96 -178,145 -260,165 -81,20 -150,12 -225,-22 -75,-34 -155,-95 -201,-141 -46,-46 -57,-78 -54,-66 3,12 20,67 64,136 44,68 116,149 199,201 82,52 175,74 258,69 83,-5 156,-37 218,-79 62,-43 113,-96 149,-150 36,-55 58,-110 63,-113 5,-3 -8,47 -41,115 -33,68 -88,154 -167,225 -79,72 -182,129 -277,155 -95,26 -183,20 -259,-9 -76,-29 -141,-82 -193,-152 -52,-71 -90,-160 -116,-225 -26,-66 -39,-108 -45,-88 -5,20 -2,102 8,171 11,70 30,127 68,189 39,62 97,127 166,174 69,47 150,77 226,94 77,17 150,23 221,2 71,-21 141,-67 212,-149 71,-82 144,-198 214,-346 70,-148 137,-327 199,-449 62,-122 119,-187 200,-242 81,-55 186,-99 264,-116 78,-18 128,-8 179,13 51,22 101,56 147,103 45,47 84,108 110,170 25,62 37,124 33,201 -4,76 -23,166 -59,230 -37,64 -91,102 -160,111 -69,8 -152,-14 -203,-53 -51,-39 -69,-94 -70,-135 -1,-41 16,-67 29,-81 12,-14 21,-17 21,-9 0,8 -7,27 -5,53 2,26 13,59 37,72 24,13 62,5 95,-20 33,-25 61,-67 60,-110 -1,-43 -30,-87 -82,-112 -52,-25 -128,-30 -190,-1 -62,29 -109,93 -158,190 -49,97 -100,228 -141,323 -41,95 -72,155 -137,229 -65,74 -164,163 -306,228 -143,64 -329,104 -509,96 -180,-8 -352,-64 -468,-124 -116,-60 -175,-124 -213,-218 -38,-94 -56,-217 -72,-296 -16,-80 -32,-116 -56,-171 -25,-56 -58,-131 -105,-186 -47,-55 -107,-90 -129,-101 -22,-11 -5,1 30,14 35,12 88,24 141,47 53,23 107,55 201,2 95,-53 230,-192 342,-279 112,-87 199,-123 254,-204 55,-81 76,-208 60,-300 -16,-92 -69,-148 -115,-188 -47,-39 -87,-61 -37,-141 50,-80 190,-218 349,-305z"/>
  <path class="fil1" d="M7026 2780c399,-10 1134,-7 1596,-10 462,-3 651,-13 789,-73 138,-60 226,-171 267,-307 41,-137 34,-299 5,-413 -29,-114 -81,-179 -132,-218 -50,-39 -99,-52 -172,-63 -73,-11 -171,-21 -265,11 -94,33 -185,107 -233,184 -47,76 -50,155 -37,216 13,62 42,107 104,142 62,34 156,57 216,57 60,0 86,-23 106,-18 20,5 33,37 21,78 -11,41 -47,89 -120,111 -73,21 -184,15 -277,-28 -93,-42 -168,-120 -210,-202 -42,-81 -52,-166 -36,-277 16,-111 59,-247 171,-356 112,-109 294,-190 475,-207 181,-16 359,33 503,127 143,94 251,234 301,377 50,143 44,290 23,402 -21,112 -57,190 -145,290 -88,99 -228,220 -405,288 -177,68 -392,85 -873,86 -481,2 -1230,-11 -1636,-28 -407,-16 -472,-36 -508,-55 -36,-20 -42,-39 -15,-60 28,-21 89,-44 488,-54z"/>
  <path class="fil1" d="M7120 4493c548,-11 1557,-15 2227,-7 670,8 1002,28 1233,76 231,49 361,127 457,231 96,104 158,234 189,369 31,135 31,275 -26,405 -57,130 -171,251 -314,322 -143,72 -316,94 -465,91 -150,-3 -277,-33 -379,-101 -102,-68 -181,-176 -220,-280 -39,-104 -39,-205 -16,-296 23,-91 68,-172 130,-229 62,-57 140,-89 218,-99 78,-10 156,3 198,21 42,18 49,41 37,63 -11,23 -41,46 -102,68 -62,23 -156,46 -208,85 -52,39 -62,94 -57,164 5,70 24,155 85,220 60,65 161,111 270,122 109,11 226,-11 320,-64 94,-53 163,-136 192,-252 28,-116 15,-266 -36,-374 -51,-108 -141,-175 -286,-221 -146,-46 -347,-72 -902,-90 -555,-18 -1462,-28 -2045,-41 -582,-13 -839,-29 -989,-52 -150,-23 -192,-52 -169,-76 23,-24 111,-44 659,-55z"/>
  <path class="fil1" d="M10172 4126c133,-14 352,-20 527,-16 175,4 305,19 462,72 157,54 341,146 475,286 134,140 219,327 247,483 28,156 1,281 -53,355 -54,74 -133,97 -197,76 -63,-20 -111,-84 -147,-191 -37,-107 -63,-259 -123,-393 -60,-134 -155,-251 -285,-337 -131,-85 -298,-139 -481,-167 -183,-28 -381,-29 -492,-44 -111,-15 -133,-42 -122,-67 11,-24 57,-46 190,-59z"/>
  <path class="fil1" d="M10504 2301c-9,-72 -9,-206 -45,-336 -36,-130 -107,-257 -181,-357 -73,-100 -148,-173 -174,-226 -26,-53 -3,-85 71,-87 74,-2 199,28 299,132 100,104 175,283 201,441 26,158 3,294 -26,379 -29,85 -65,117 -92,128 -27,11 -45,-1 -54,-73z"/>
  <path class="fil1" d="M6425 3499c683,10 2011,29 2985,33 974,3 1596,-10 1955,-78 359,-68 457,-192 508,-322 50,-130 54,-267 -11,-371 -65,-104 -198,-176 -329,-181 -130,-5 -257,57 -324,143 -67,86 -73,197 -44,262 29,65 94,85 151,83 57,-2 106,-24 135,0 29,24 39,96 -3,143 -42,47 -137,70 -236,46 -99,-24 -203,-96 -262,-203 -59,-107 -72,-251 -33,-394 39,-143 130,-286 270,-373 140,-86 329,-115 501,-83 172,33 329,127 434,259 106,132 161,301 181,454 20,153 3,290 -63,413 -67,124 -184,234 -306,307 -122,73 -249,109 -834,133 -586,24 -1630,37 -2542,36 -913,-2 -1693,-18 -2188,-54 -495,-36 -703,-91 -773,-138 -70,-47 -2,-86 52,-106 54,-20 93,-20 776,-10z"/>
  <path class="fil0" d="M10855 11867c151,-10 402,-1 612,29 210,30 379,82 439,133 60,51 10,100 -124,118 -134,18 -352,5 -565,-12 -213,-16 -420,-36 -561,-63 -141,-27 -216,-61 -215,-85 2,-25 81,-40 146,-61 65,-22 117,-49 268,-59z"/>
  <path class="fil0" d="M11755 11273c96,-2 226,8 334,23 108,15 195,35 250,55 56,21 81,42 19,56 -63,14 -213,21 -346,7 -133,-14 -247,-48 -323,-70 -76,-22 -114,-31 -103,-43 12,-12 72,-26 168,-28z"/>
  <path class="fil0" d="M3306 11785c-15,-11 -180,-11 -248,0 -68,11 -37,33 45,33 83,0 218,-22 203,-33z"/>
  <path class="fil0" d="M3118 11974c-82,12 -193,48 -256,86 -64,37 -80,76 -16,81 64,5 207,-23 313,-50 107,-27 177,-53 196,-71 18,-17 -16,-25 -59,-35 -43,-10 -96,-22 -177,-10z"/>
  <path class="fil0" d="M12180 12332c120,10 291,24 383,46 92,22 104,52 -11,55 -115,3 -356,-22 -482,-47 -126,-25 -137,-49 -108,-59 29,-10 98,-4 218,5z"/>
 </g>
</svg>
