<?xml version="1.0" encoding="UTF-8"?>
<!DOCTYPE svg PUBLIC "-//W3C//DTD SVG 1.1//EN" "http://www.w3.org/Graphics/SVG/1.1/DTD/svg11.dtd">
<!-- Creator: CorelDRAW 2017 -->
<svg xmlns="http://www.w3.org/2000/svg" xml:space="preserve" width="143mm" height="143mm" version="1.1" style="shape-rendering:geometricPrecision; text-rendering:geometricPrecision; image-rendering:optimizeQuality; fill-rule:evenodd; clip-rule:evenodd"
viewBox="0 0 14300 14300"
 xmlns:xlink="http://www.w3.org/1999/xlink">
 <defs>
  <style type="text/css">
   <![CDATA[
    .fil0 {fill:#1A1A1A}
    .fil4 {fill:#396912}
    .fil3 {fill:#419BE0}
    .fil2 {fill:#5B962C}
    .fil8 {fill:gray}
    .fil5 {fill:#A5D673}
    .fil6 {fill:#B3B3B3}
    .fil1 {fill:white}
    .fil7 {fill:white}
   ]]>
  </style>
 </defs>
 <g id="Слой_x0020_1">
  <metadata id="CorelCorpID_0Corel-Layer"/>
  <path class="fil0" d="M4368 5720c-32,-287 129,-707 457,-1099 327,-392 820,-756 1362,-1010 542,-255 1132,-400 1709,-416 578,-16 1144,97 1681,267 537,170 1047,396 1426,691 380,295 630,659 687,970 57,311 -81,570 -343,824 -263,255 -651,505 -1204,656 -553,151 -1272,201 -1955,189 -683,-12 -1330,-87 -1880,-177 -550,-90 -1002,-195 -1342,-324 -339,-129 -566,-283 -598,-570z"/>
  <path class="fil1" d="M8142 4191c17,192 11,564 5,778 -6,214 -12,271 -76,304 -64,33 -185,43 -409,41 -224,-2 -552,-16 -741,-41 -189,-25 -239,-62 -277,-154 -37,-92 -62,-239 -69,-357 -7,-118 3,-205 111,-285 108,-80 314,-152 531,-224 217,-72 446,-145 585,-192 139,-46 190,-67 235,-71 45,-4 86,8 103,200z"/>
  <path class="fil1" d="M8219 4184c-30,112 -38,373 -39,579 -1,206 5,358 22,440 17,83 45,97 185,105 139,8 390,10 584,7 194,-3 331,-11 431,-26 100,-15 163,-37 198,-115 35,-78 43,-211 45,-313 2,-102 -2,-173 -166,-266 -164,-93 -487,-208 -701,-287 -214,-79 -319,-121 -398,-161 -79,-39 -131,-76 -162,36z"/>
  <path class="fil1" d="M9697 4881c-35,35 -33,128 -22,194 11,66 31,104 81,129 50,25 128,37 250,54 121,16 285,36 376,34 91,-2 109,-26 112,-65 3,-38 -9,-91 -114,-150 -105,-59 -303,-123 -438,-167 -135,-43 -208,-66 -243,-30z"/>
  <path class="fil1" d="M9018 5823c34,-73 36,-212 34,-294 -2,-82 -8,-106 -93,-118 -85,-12 -249,-12 -386,-15 -137,-3 -249,-9 -307,7 -59,16 -65,55 -73,119 -8,65 -18,156 -18,241 0,86 10,167 65,204 55,37 154,31 263,14 109,-17 228,-45 321,-63 93,-17 160,-23 194,-96z"/>
  <path class="fil1" d="M7418 5438c133,-37 388,-41 528,-40 140,1 167,7 181,45 14,38 16,109 19,201 3,92 7,205 1,264 -6,59 -22,63 -124,46 -102,-16 -290,-53 -434,-85 -144,-32 -245,-61 -293,-102 -47,-41 -41,-96 -32,-159 9,-63 21,-133 155,-171z"/>
  <path class="fil1" d="M6659 5316c101,12 282,37 395,53 113,16 159,23 177,65 19,42 11,119 7,176 -4,57 -3,94 -92,108 -89,13 -269,2 -409,-14 -139,-16 -238,-37 -287,-72 -49,-35 -47,-82 -37,-132 10,-50 29,-101 47,-133 18,-32 36,-45 56,-53 20,-8 41,-10 142,2z"/>
  <path class="fil1" d="M9116 5780c-42,-58 -38,-183 -30,-252 8,-69 20,-81 77,-91 57,-10 158,-18 264,-20 106,-2 217,2 281,8 64,6 80,14 88,53 8,38 8,107 7,154 -1,46 -3,71 -81,98 -78,27 -231,58 -353,78 -121,20 -210,30 -253,-27z"/>
  <path class="fil1" d="M6543 4845c35,35 33,128 22,194 -11,66 -31,104 -81,129 -50,25 -128,37 -250,54 -121,16 -285,36 -376,34 -91,-2 -109,-26 -112,-65 -3,-38 9,-91 114,-150 105,-59 303,-123 438,-167 135,-43 208,-66 243,-30z"/>
  <path class="fil2" d="M3408 4833c-41,-87 88,-65 224,-134 136,-69 278,-230 491,-484 213,-254 496,-602 826,-938 331,-336 710,-660 1069,-858 360,-198 700,-270 940,-275 239,-5 378,57 508,124 130,67 251,140 374,213 123,73 249,145 413,130 165,-15 369,-118 550,-217 181,-98 340,-192 518,-226 178,-34 375,-9 610,62 235,71 508,188 779,399 271,211 541,515 818,875 276,360 559,776 777,1041 218,264 370,376 497,428 127,52 228,44 204,123 -24,79 -174,244 -367,346 -193,102 -429,140 -727,98 -298,-41 -658,-162 -1142,-316 -484,-154 -1091,-341 -1507,-493 -417,-152 -643,-269 -837,-336 -194,-67 -356,-83 -568,-38 -212,44 -475,150 -832,291 -358,141 -810,319 -1218,447 -407,128 -769,205 -1084,233 -315,28 -583,7 -822,-102 -240,-109 -452,-306 -493,-393z"/>
  <path class="fil2" d="M7704 5719c140,70 269,156 357,201 88,44 133,46 271,-5 137,-51 366,-156 640,-221 274,-65 593,-89 989,-109 395,-20 867,-36 1387,-117 520,-81 1089,-227 1657,-373 -125,187 -251,374 -412,593 -162,220 -360,472 -625,739 -265,267 -597,548 -933,814 -336,265 -677,515 -1116,700 -439,185 -976,306 -1614,304 -638,-2 -1378,-127 -1963,-390 -585,-262 -1017,-661 -1382,-1024 -365,-363 -664,-691 -913,-1014 -249,-324 -447,-644 -645,-963 326,190 653,379 1091,484 438,105 988,125 1468,145 481,20 893,40 1174,77 281,36 430,89 570,159z"/>
  <path class="fil3" d="M3867 10106c773,-18 1999,-77 3050,-124 1050,-47 1925,-83 2344,-50 419,33 383,134 375,223 -8,89 11,165 256,192 246,26 718,3 1061,2 343,-1 556,20 719,77 163,57 275,148 357,221 82,72 135,126 -88,165 -224,39 -724,65 -2144,143 -1420,78 -3759,209 -5038,271 -1279,62 -1499,55 -1734,-23 -235,-78 -484,-226 -718,-370 -234,-145 -453,-286 -574,-411 -122,-126 -146,-236 -10,-290 136,-54 433,-52 742,-40 308,12 628,33 1401,15z"/>
  <path class="fil4" d="M4932 4881c138,-199 397,-559 607,-837 210,-278 370,-472 505,-619 135,-147 245,-245 323,-303 78,-58 124,-75 195,-73 71,1 167,21 267,53 100,32 205,76 257,128 52,51 51,109 9,278 -43,169 -127,449 -279,785 -152,336 -372,730 -529,999 -157,269 -253,415 -318,501 -65,86 -99,113 -154,105 -55,-7 -131,-48 -283,-130 -152,-82 -380,-205 -527,-293 -147,-88 -214,-141 -241,-189 -27,-48 -16,-91 -1,-131 14,-40 31,-76 169,-275z"/>
  <path class="fil5" d="M6031 3446c-33,42 -64,89 -77,138 -13,49 -9,101 32,143 42,42 121,75 199,94 78,19 155,24 260,3 104,-22 235,-71 347,-137 112,-66 204,-149 256,-202 52,-53 63,-75 69,-100 6,-25 7,-54 1,-80 -6,-26 -19,-51 -41,-74 -22,-23 -54,-44 -85,-61 -31,-17 -62,-30 -111,-47 -49,-17 -116,-37 -170,-49 -54,-13 -94,-19 -128,-21 -34,-2 -60,0 -88,7 -27,7 -55,19 -89,40 -34,22 -76,53 -122,93 -46,40 -98,88 -141,131 -43,43 -79,80 -112,123z"/>
  <path class="fil6" d="M4783 5022c122,57 348,198 543,318 195,120 359,220 487,301 128,81 220,144 274,178 54,34 70,39 73,53 4,14 -5,36 -286,491 -281,455 -835,1341 -1137,1824 -302,483 -353,563 -404,587 -50,24 -101,-7 -273,-114 -172,-106 -465,-288 -693,-429 -227,-141 -389,-242 -464,-304 -75,-62 -65,-85 27,-232 92,-147 265,-418 551,-866 285,-448 682,-1072 891,-1403 209,-331 231,-370 251,-402 20,-32 38,-58 160,-1z"/>
  <path class="fil6" d="M2828 7600c18,10 33,20 245,157 212,137 620,402 853,555 233,152 292,191 350,227 58,35 116,67 181,91 66,24 139,41 171,59 32,18 23,38 -44,153 -67,114 -191,323 -276,422 -85,99 -130,88 -251,36 -120,-52 -315,-146 -559,-298 -244,-152 -537,-361 -737,-501 -201,-140 -310,-210 -360,-259 -50,-48 -43,-75 -26,-103 16,-28 41,-58 88,-124 47,-66 117,-169 164,-236 47,-67 70,-100 90,-129 19,-29 35,-56 53,-64 18,-8 40,3 58,14z"/>
  <path class="fil6" d="M2627 8219c235,165 678,472 955,659 278,187 391,253 469,289 78,36 122,42 196,60 74,18 179,48 233,80 53,32 54,64 -20,179 -74,114 -223,310 -382,543 -160,233 -331,503 -449,680 -119,176 -185,259 -254,304 -69,45 -141,52 -284,51 -143,-1 -356,-11 -480,-29 -124,-18 -158,-44 -331,-172 -173,-128 -484,-358 -702,-520 -217,-162 -340,-254 -422,-317 -82,-62 -124,-94 -132,-143 -7,-50 20,-118 165,-339 145,-221 408,-594 592,-872 184,-278 290,-461 360,-559 69,-98 103,-111 129,-114 27,-3 48,5 71,19 24,15 50,37 285,201z"/>
  <path class="fil7" d="M7145 2561c-9,47 -23,178 -46,274 -23,96 -55,158 -98,204 -43,46 -96,75 -140,95 -44,20 -80,29 -63,41 17,12 87,26 133,49 46,23 68,54 87,110 19,56 36,137 48,226 12,89 18,186 25,281 7,95 14,189 20,219 5,30 8,-3 12,-78 4,-75 10,-191 29,-296 19,-105 52,-197 94,-273 42,-76 94,-136 134,-170 40,-33 69,-40 59,-56 -10,-16 -57,-42 -95,-76 -38,-33 -65,-74 -93,-142 -27,-68 -54,-164 -69,-233 -14,-69 -16,-110 -19,-149 -3,-39 -9,-74 -18,-27z"/>
  <path class="fil1" d="M2923 7734c113,67 327,201 482,301 155,100 252,166 296,198 44,32 34,30 -86,-26 -119,-56 -347,-165 -502,-223 -155,-57 -235,-63 -304,-45 -69,18 -125,59 -164,78 -39,20 -61,18 -77,13 -16,-5 -27,-15 -15,-42 12,-28 45,-74 87,-131 42,-57 92,-124 124,-157 32,-34 45,-34 158,34z"/>
  <path class="fil1" d="M3103 8629c-152,-111 -454,-318 -619,-425 -165,-107 -193,-112 -243,-64 -50,48 -124,149 -208,273 -84,123 -180,268 -229,348 -49,80 -52,94 -6,73 46,-21 140,-78 239,-142 99,-64 203,-135 298,-169 94,-34 179,-29 280,-1 101,28 219,80 329,125 110,45 211,85 262,97 50,12 49,-3 -102,-114z"/>
  <path class="fil8" d="M4456 8629c57,-85 143,-222 281,-443 160,-256 391,-625 614,-983 155,-248 306,-490 427,-686 35,-56 67,-108 96,-155 281,-455 289,-477 286,-491 -4,-14 -19,-19 -73,-53 -23,-15 -54,-35 -92,-60 -49,-32 -110,-72 -183,-118 -70,-45 -152,-95 -243,-151 11,29 23,57 -31,167 -12,25 -28,55 -49,90 -67,118 -181,299 -367,600 -1,1 -1,2 -2,3 -73,118 -158,255 -247,399 -205,331 -429,696 -583,948 -219,361 -292,489 -364,616 83,54 144,94 191,125 27,18 54,36 71,54 21,21 29,42 30,59 1,17 -5,30 -38,85l-44 72c-30,48 -66,105 -98,154 -50,77 -92,135 -129,160 -36,25 -67,18 -97,10l0 0 0 0c-61,-39 -136,-88 -230,-152 44,52 89,105 104,154 7,22 8,44 -3,79 -14,43 -47,106 -111,215 -114,194 -328,534 -510,818 -3,5 -7,11 -10,16 -185,288 -336,515 -426,644 -90,129 -119,161 -149,167 -9,2 -18,1 -27,-1 -23,-5 -48,-22 -80,-44 -45,-32 -105,-75 -164,-119 27,20 52,38 74,55 118,88 172,127 233,150 29,10 59,17 98,22 124,18 337,27 480,29 143,1 215,-6 284,-51 69,-45 135,-127 254,-304 91,-136 214,-328 338,-515 37,-56 74,-111 111,-165 160,-233 309,-429 382,-543 74,-114 73,-147 20,-179 -37,-22 -98,-43 -157,-60l0 0c84,-104 199,-297 262,-406 67,-114 76,-134 44,-153 -32,-18 -105,-35 -171,-59 -1,0 -1,-1 -2,-1z"/>
 </g>
</svg>
