<?xml version="1.0" encoding="UTF-8"?>
<!DOCTYPE svg PUBLIC "-//W3C//DTD SVG 1.1//EN" "http://www.w3.org/Graphics/SVG/1.1/DTD/svg11.dtd">
<!-- Creator: CorelDRAW 2017 -->
<svg xmlns="http://www.w3.org/2000/svg" xml:space="preserve" width="143mm" height="143mm" version="1.1" style="shape-rendering:geometricPrecision; text-rendering:geometricPrecision; image-rendering:optimizeQuality; fill-rule:evenodd; clip-rule:evenodd"
viewBox="0 0 14300 14300"
 xmlns:xlink="http://www.w3.org/1999/xlink">
 <defs>
  <style type="text/css">
   <![CDATA[
    .fil0 {fill:black}
    .fil3 {fill:#4A94CE}
    .fil2 {fill:#F0889A}
    .fil1 {fill:white}
   ]]>
  </style>
 </defs>
 <g id="Слой_x0020_1">
  <metadata id="CorelCorpID_0Corel-Layer"/>
  <path class="fil0" d="M7340 1891c308,7 642,76 918,293 276,217 492,581 583,930 91,349 57,684 2,948 -54,264 -129,458 -234,621 -106,163 -242,297 -343,424 -101,127 -165,248 -72,432 93,184 344,430 635,658 290,229 620,441 925,746 305,305 586,704 760,1053 175,349 244,650 256,920 12,271 -32,512 -135,623 -103,111 -266,91 -455,-135 -189,-226 -406,-660 -568,-918 -162,-258 -271,-342 -379,-354 -108,-12 -217,47 -241,394 -25,347 34,982 106,1452 71,470 155,775 187,965 32,189 12,263 -426,290 -438,27 -1294,7 -1942,0 -647,-7 -1085,-2 -1307,-64 -221,-62 -226,-189 -187,-615 39,-426 123,-1149 155,-1659 32,-509 12,-805 -13,-960 -25,-155 -56,-171 -103,-113 -47,58 -109,189 -286,636 -176,447 -467,1210 -769,1609 -303,399 -618,433 -1016,-3 -398,-436 -880,-1344 -1090,-1873 -210,-529 -148,-679 1,-685 149,-6 384,133 627,454 243,321 493,824 647,1049 154,224 211,170 362,-237 151,-407 396,-1167 657,-1659 261,-492 538,-717 794,-858 257,-142 493,-201 680,-255 187,-54 325,-103 443,-167 118,-64 217,-143 256,-256 39,-113 20,-261 -69,-379 -89,-118 -246,-207 -404,-394 -158,-187 -315,-472 -384,-822 -69,-349 -49,-763 59,-1105 108,-342 305,-613 544,-775 239,-162 519,-217 827,-209z"/>
  <path class="fil1" d="M10395 8818c73,15 164,42 253,138 90,96 178,261 183,463 5,202 -74,441 -245,604 -171,164 -434,252 -887,281 -453,28 -1095,-4 -1633,-80 -538,-76 -971,-197 -1246,-359 -276,-162 -394,-367 -438,-568 -44,-202 -15,-401 105,-509 119,-108 329,-126 640,-130 311,-5 725,2 1107,18 383,16 735,41 1059,63 325,22 623,42 799,53 176,11 230,14 303,28z"/>
  <path class="fil1" d="M7835 4337c-52,99 -152,254 -278,350 -126,96 -278,134 -409,127 -131,-7 -241,-60 -334,-149 -93,-89 -169,-213 -216,-316 -47,-103 -63,-183 -46,-191 17,-9 69,54 146,115 78,60 182,117 283,152 101,34 200,46 302,33 102,-13 206,-49 293,-89 87,-40 156,-82 207,-119 51,-37 83,-69 96,-62 14,6 8,51 -44,150z"/>
  <path class="fil0" d="M6120 2999c-151,69 -239,100 -299,112 -60,12 -91,4 -71,-102 19,-106 89,-311 174,-488 85,-178 185,-328 349,-452 164,-123 392,-220 585,-270 193,-50 351,-54 506,-42 154,12 305,39 426,73 122,35 214,77 293,91 79,14 145,-2 206,-17 62,-15 120,-31 224,-13 104,18 255,69 415,181 160,112 330,285 475,566 145,281 264,671 243,1144 -21,473 -183,1028 -272,1391 -88,363 -103,533 12,607 114,74 357,50 460,62 102,12 64,58 -19,91 -83,33 -210,54 -299,61 -88,7 -137,1 -137,18 0,17 49,56 85,86 36,29 59,49 -2,55 -62,6 -208,-2 -373,-70 -164,-68 -347,-196 -452,-362 -105,-166 -132,-371 -163,-556 -31,-185 -66,-351 -85,-664 -19,-313 -23,-772 -96,-1090 -73,-318 -216,-496 -496,-589 -280,-93 -697,-100 -1011,-50 -315,50 -527,158 -677,228z"/>
  <path class="fil2" d="M3393 10881c1016,11 2816,39 4445,30 1629,-9 3087,-54 3940,-59 853,-5 1101,30 1006,68 -95,38 -532,79 -1261,173 -729,94 -1749,240 -2135,317 -386,76 -138,82 62,114 200,32 353,91 219,147 -135,56 -557,109 -1519,152 -962,44 -2463,79 -3516,70 -1053,-9 -1658,-62 -1986,-144 -328,-82 -379,-194 -415,-302 -36,-109 -58,-214 -117,-279 -58,-65 -153,-88 -193,-129 -40,-41 -26,-100 98,-132 124,-32 357,-38 1373,-27z"/>
  <path class="fil3" d="M6858 6346c223,621 640,1863 937,2610 297,747 473,999 589,1142 116,143 171,177 182,208 11,32 -21,61 -71,75 -49,15 -115,15 -237,-3 -122,-17 -299,-52 -424,-130 -126,-79 -199,-202 -308,-568 -109,-367 -253,-977 -433,-1641 -180,-664 -396,-1382 -506,-1762 -110,-381 -116,-424 -99,-460 16,-36 54,-65 87,-79 33,-14 61,-13 284,609z"/>
  <path class="fil3" d="M7233 8654c-37,104 -73,208 -128,379 -54,171 -127,409 -172,561 -46,152 -65,219 -84,285 -32,-19 -63,-39 -95,-58 40,-114 80,-228 142,-411 62,-183 146,-435 191,-573 45,-137 51,-160 56,-183 30,0 59,-1 89,-1z"/>
  <path class="fil3" d="M8061 8668c-72,223 -145,445 -216,666 -71,221 -141,440 -186,573 -45,133 -65,180 -84,228 46,10 91,19 137,29 67,-233 134,-467 197,-684 63,-217 121,-418 161,-550 40,-132 61,-195 82,-258 -30,-1 -60,-2 -90,-3z"/>
  <path class="fil3" d="M8936 8713c-119,377 -237,754 -327,1012 -89,258 -149,398 -209,538 52,5 103,10 155,15 15,-48 31,-96 70,-228 39,-132 103,-349 161,-560 58,-211 111,-415 143,-543 32,-128 44,-179 56,-231 -17,-1 -33,-2 -50,-3z"/>
  <path class="fil3" d="M9778 8769c-94,332 -188,663 -261,921 -73,257 -124,440 -175,623 48,0 95,-1 143,-1 26,-1 53,-1 79,-2 67,-311 134,-621 193,-876 58,-255 108,-455 157,-655 -45,-3 -91,-6 -136,-9z"/>
 </g>
</svg>
