<?xml version="1.0" encoding="UTF-8"?>
<!DOCTYPE svg PUBLIC "-//W3C//DTD SVG 1.1//EN" "http://www.w3.org/Graphics/SVG/1.1/DTD/svg11.dtd">
<!-- Creator: CorelDRAW 2017 -->
<svg xmlns="http://www.w3.org/2000/svg" xml:space="preserve" width="143mm" height="143mm" version="1.1" style="shape-rendering:geometricPrecision; text-rendering:geometricPrecision; image-rendering:optimizeQuality; fill-rule:evenodd; clip-rule:evenodd"
viewBox="0 0 14300 14300"
 xmlns:xlink="http://www.w3.org/1999/xlink">
 <defs>
  <style type="text/css">
   <![CDATA[
    .str0 {stroke:black;stroke-width:25}
    .fil9 {fill:none;fill-rule:nonzero}
    .fil5 {fill:black}
    .fil1 {fill:#1A1A1A}
    .fil0 {fill:#7BAD52}
    .fil7 {fill:gray}
    .fil4 {fill:#999999}
    .fil3 {fill:#C4AB85}
    .fil2 {fill:#E6DEC8}
    .fil6 {fill:white}
    .fil8 {fill:black;fill-rule:nonzero}
   ]]>
  </style>
 </defs>
 <g id="Слой_x0020_1">
  <metadata id="CorelCorpID_0Corel-Layer"/>
  <path class="fil0" d="M9690 12954c-586,152 -1637,505 -2671,522 -1034,18 -2050,-300 -2730,-600 -681,-300 -1027,-582 -1072,-963 -46,-381 208,-861 260,-1166 52,-305 -98,-435 -175,-703 -78,-268 -83,-674 -87,-1016 -4,-341 -6,-617 47,-850 53,-233 161,-422 158,-743 -3,-321 -115,-772 -140,-1319 -25,-547 39,-1189 314,-1722 275,-533 762,-956 1369,-1171 607,-215 1333,-222 1840,-127 506,95 792,293 1138,554 346,261 751,585 1102,949 351,363 647,765 813,1238 166,473 201,1016 392,1432 191,416 536,706 758,963 222,258 321,483 346,815 25,332 -25,769 49,1199 74,430 272,854 490,1118 219,265 459,370 547,497 88,127 25,275 -321,452 -346,176 -974,381 -1348,459 -374,78 -494,28 -1080,180z"/>
  <path class="fil1" d="M4969 4620c0,-93 36,-194 131,-296 94,-102 247,-205 485,-278 238,-72 562,-114 845,-120 282,-6 523,23 743,70 220,47 419,111 659,226 241,115 523,282 766,486 243,204 447,445 618,733 171,289 308,625 387,969 79,344 98,695 85,963 -14,268 -60,452 -161,598 -101,146 -255,254 -379,323 -124,69 -217,98 -273,75 -55,-23 -72,-99 -39,-352 33,-253 117,-683 49,-1120 -68,-437 -286,-882 -519,-1203 -233,-322 -481,-521 -748,-658 -266,-138 -551,-214 -810,-238 -259,-25 -492,2 -720,41 -227,38 -448,87 -609,113 -161,26 -262,28 -324,14 -63,-15 -87,-47 -118,-106 -30,-59 -67,-145 -67,-238z"/>
  <path class="fil2" d="M5043 10625c10,-231 69,-565 101,-835 32,-270 37,-476 -47,-759 -84,-282 -255,-641 -403,-1036 -147,-395 -270,-828 -251,-1304 20,-476 182,-997 506,-1373 324,-376 810,-607 1302,-712 491,-106 987,-86 1427,113 440,199 823,577 1083,970 260,393 398,801 432,1282 34,481 -34,1036 -216,1493 -182,457 -476,815 -675,1110 -199,295 -302,526 -391,815 -88,290 -162,639 -192,901 -29,263 -15,440 -81,607 -66,167 -214,324 -391,430 -177,106 -383,160 -631,125 -248,-34 -538,-157 -781,-334 -243,-177 -440,-408 -553,-585 -113,-177 -142,-300 -177,-425 -34,-125 -74,-253 -64,-484z"/>
  <path class="fil3" d="M7774 9392c98,-98 339,-442 501,-744 162,-302 246,-562 265,-896 20,-334 -25,-742 -157,-1108 -133,-366 -354,-690 -631,-911 -278,-221 -612,-339 -943,-371 -332,-33 -661,20 -914,141 -253,120 -430,308 -554,499 -124,190 -195,383 -216,577 -20,193 10,387 43,563 33,176 67,333 92,243 25,-90 41,-428 134,-696 93,-268 264,-465 463,-591 199,-125 426,-178 692,-192 266,-14 570,10 826,131 255,120 462,336 589,602 128,265 177,580 184,872 7,292 -27,562 -74,806 -47,243 -106,459 -160,602 -54,142 -103,211 -150,319 -47,108 -91,255 7,157z"/>
  <path class="fil3" d="M5487 7383c66,-142 214,-329 437,-435 223,-106 523,-130 729,-7 206,123 319,393 383,624 64,231 79,422 -5,602 -84,179 -265,346 -371,548 -106,201 -135,437 -138,592 -2,155 22,228 20,317 -2,88 -32,192 -128,248 -96,56 -258,66 -368,27 -111,-39 -169,-128 -169,-265 0,-138 59,-324 115,-494 56,-169 111,-322 103,-440 -7,-118 -76,-201 -165,-292 -88,-91 -196,-189 -226,-177 -29,12 20,135 71,265 52,130 106,268 106,415 0,147 -54,305 -93,454 -39,150 -64,292 -42,440 22,147 91,300 223,415 133,115 329,194 523,187 194,-7 386,-101 499,-309 113,-209 147,-533 155,-752 7,-219 -12,-332 54,-476 66,-145 219,-322 329,-469 111,-147 179,-265 221,-449 42,-184 56,-435 -5,-675 -61,-241 -199,-472 -388,-641 -189,-169 -430,-278 -717,-285 -287,-7 -621,86 -850,217 -228,131 -351,301 -425,424 -74,123 -98,199 -111,279 -12,80 -12,163 -2,239 10,76 29,145 66,216 37,71 91,145 115,145 25,0 20,-74 10,-160 -10,-86 -25,-184 42,-327z"/>
  <path class="fil3" d="M7658 11565c-42,42 -132,199 -244,297 -112,98 -248,138 -455,130 -208,-7 -488,-61 -732,-163 -244,-102 -453,-252 -621,-422 -168,-171 -296,-362 -382,-515 -86,-153 -129,-267 -151,-264 -22,3 -21,122 9,278 30,156 90,349 171,512 80,163 181,298 343,445 162,147 387,307 585,409 198,102 370,145 525,155 154,9 292,-16 417,-69 126,-53 240,-134 327,-223 87,-89 146,-187 181,-265 35,-79 47,-138 55,-205 8,-67 14,-141 -28,-99z"/>
  <path class="fil4" d="M6054 7686c124,43 311,117 484,214 173,97 333,217 450,368 116,151 189,331 208,516 19,185 -15,373 -133,521 -118,148 -321,257 -550,272 -229,15 -485,-63 -656,-186 -171,-123 -257,-292 -253,-485 4,-193 100,-409 205,-542 106,-133 222,-182 248,-228 26,-47 -38,-91 -218,-137 -181,-47 -478,-96 -756,-200 -279,-104 -539,-264 -731,-445 -192,-181 -314,-382 -375,-626 -60,-244 -58,-532 10,-807 68,-275 200,-538 344,-752 144,-214 298,-378 392,-486 93,-108 125,-160 210,-195 85,-36 222,-55 337,-24 114,32 206,114 241,208 35,94 15,199 -39,294 -54,95 -143,181 -285,317 -142,136 -339,323 -465,513 -127,189 -184,380 -206,567 -22,186 -8,367 32,510 40,143 106,249 213,348 107,99 254,193 436,258 182,65 398,102 537,126 139,25 200,37 324,80z"/>
  <path class="fil5" d="M3085 8096c8,296 0,904 -6,1356 -6,452 -10,748 -14,881 -4,133 -8,102 -119,-2 -111,-104 -330,-280 -477,-402 -147,-122 -223,-190 -274,-225 -51,-35 -78,-37 -155,-37 -76,0 -202,2 -285,-8 -82,-10 -121,-31 -141,-126 -20,-95 -22,-263 -23,-420 -1,-157 -1,-302 19,-393 20,-91 61,-128 147,-146 86,-18 218,-18 294,-18 76,0 98,0 159,-44 61,-44 162,-131 305,-252 143,-121 329,-276 434,-361 105,-85 128,-101 135,196z"/>
  <path class="fil5" d="M3357 8756c42,44 127,111 174,190 47,78 57,167 50,243 -7,75 -30,137 -63,192 -33,54 -76,101 -109,133 -34,32 -59,49 -65,69 -6,19 8,41 36,44 28,3 71,-13 125,-62 54,-49 120,-133 159,-215 39,-82 50,-164 41,-248 -10,-84 -41,-171 -84,-236 -44,-65 -100,-107 -147,-138 -47,-31 -86,-50 -110,-57 -24,-7 -34,-1 -40,12 -6,13 -8,32 34,75z"/>
  <path class="fil5" d="M3485 8337c40,28 113,67 184,127 72,60 142,140 198,220 56,80 96,159 118,243 22,84 25,173 18,260 -7,87 -23,171 -55,256 -31,85 -78,170 -144,245 -66,75 -151,141 -218,185 -67,44 -115,66 -143,84 -28,18 -36,31 -32,46 3,15 18,30 71,18 53,-12 144,-50 238,-126 94,-75 192,-188 262,-309 70,-121 113,-252 122,-378 9,-126 -15,-248 -53,-350 -38,-102 -89,-184 -157,-266 -68,-82 -152,-163 -225,-216 -73,-53 -135,-77 -173,-89 -38,-12 -53,-11 -56,-2 -3,8 4,24 45,51z"/>
  <path class="fil5" d="M3598 8016c55,26 150,70 255,150 105,79 220,194 308,331 88,138 149,300 178,448 29,149 26,284 -1,420 -27,135 -78,271 -148,391 -70,120 -158,226 -276,313 -119,87 -268,154 -347,196 -79,42 -89,57 -81,67 8,10 34,15 90,0 55,-15 139,-48 248,-117 109,-68 242,-171 345,-286 103,-115 174,-241 220,-359 45,-118 65,-226 75,-336 10,-110 10,-223 -13,-336 -23,-113 -68,-227 -119,-324 -50,-96 -106,-175 -177,-255 -72,-80 -160,-163 -256,-226 -96,-64 -201,-109 -264,-133 -63,-24 -86,-26 -99,-19 -13,6 -17,21 -12,31 5,11 20,17 75,43z"/>
  <path class="fil5" d="M2165 9992c381,-398 1158,-1145 1585,-1548 427,-403 503,-462 561,-475 58,-13 97,20 91,69 -5,49 -56,114 -373,420 -318,306 -904,852 -1294,1236 -391,383 -587,603 -708,709 -121,106 -167,97 -197,68 -30,-29 -46,-79 335,-478z"/>
  <path class="fil6" d="M6389 8224c84,16 131,56 146,118 15,62 -3,145 -57,215 -55,71 -146,129 -240,164 -93,35 -189,48 -250,27 -62,-20 -90,-73 -101,-136 -11,-62 -6,-134 26,-201 33,-66 93,-126 183,-161 90,-35 210,-43 294,-28z"/>
  <path class="fil6" d="M6463 8925c4,36 -21,82 -69,110 -49,28 -121,37 -164,19 -44,-18 -59,-62 -49,-101 9,-39 43,-72 82,-90 40,-18 86,-21 125,-10 39,11 72,36 76,71z"/>
  <path class="fil6" d="M4972 4573c26,-11 50,0 68,29 17,30 28,79 -71,231 -99,152 -307,406 -467,639 -160,233 -271,445 -330,594 -59,150 -66,238 -69,345 -3,107 -1,232 8,328 9,96 25,163 14,156 -11,-7 -48,-88 -76,-209 -28,-121 -48,-281 -24,-464 24,-183 91,-387 184,-597 93,-210 213,-425 322,-587 108,-161 206,-269 263,-325 57,-56 75,-62 98,-80 23,-18 52,-50 79,-60z"/>
  <path class="fil7" d="M9500 7663c-25,-147 -64,-458 -110,-752 -46,-294 -100,-572 -188,-807 -87,-235 -208,-426 -379,-657 -171,-231 -391,-503 -654,-705 -263,-202 -568,-335 -931,-413 -363,-78 -785,-100 -1088,-77 -303,22 -486,89 -606,107 -120,18 -176,-14 -159,-62 17,-48 108,-111 305,-165 197,-54 499,-98 845,-83 346,15 735,90 1015,174 280,84 452,177 651,311 199,135 425,311 633,559 208,248 399,567 527,867 129,300 196,580 229,792 34,212 34,355 32,482 -2,128 -5,241 -18,329 -12,88 -34,152 -50,191 -17,40 -29,56 -55,-92z"/>
  <path class="fil8" d="M6843 3732c-93,16 -147,-23 -163,-116 -16,-93 23,-147 116,-164 93,-16 148,23 164,116 16,93 -23,147 -116,164z"/>
  <path id="1" class="fil8" d="M7620 3604c-93,16 -147,-23 -163,-116 -16,-93 23,-147 116,-164 93,-16 148,23 164,116 16,93 -23,147 -116,164z"/>
  <path id="2" class="fil8" d="M8397 3476c-93,16 -147,-23 -163,-116 -16,-93 23,-147 116,-164 93,-16 148,23 164,116 16,93 -23,147 -116,164z"/>
  <path id="3" class="fil8" d="M9090 2852c-53,9 -122,-161 -207,-510 -85,-348 -140,-597 -165,-745 -25,-148 13,-230 114,-247 101,-17 165,48 190,196 25,148 56,400 93,757 36,357 28,540 -24,549zm82 496c-94,16 -149,-23 -165,-116 -16,-93 23,-148 118,-164 94,-16 149,23 165,116 16,93 -23,147 -117,164z"/>
  <path id="4" class="fil8" d="M9867 2724c-53,9 -122,-161 -207,-510 -85,-348 -140,-597 -165,-745 -25,-148 13,-230 114,-247 101,-17 165,48 190,196 25,148 56,400 93,757 36,357 28,540 -24,549zm82 496c-94,16 -149,-23 -165,-116 -16,-93 23,-148 118,-164 94,-16 149,23 165,116 16,93 -23,147 -117,164z"/>
  <path id="5" class="fil8" d="M10643 2596c-53,9 -122,-161 -207,-510 -85,-348 -140,-597 -165,-745 -25,-148 13,-230 114,-247 101,-17 165,48 190,196 25,148 56,400 93,757 36,357 28,540 -24,549zm82 496c-94,16 -149,-23 -165,-116 -16,-93 23,-148 118,-164 94,-16 149,23 165,116 16,93 -23,147 -117,164z"/>
  <path id="6" class="fil8" d="M11788 2410c-79,13 -120,12 -123,-4 -3,-16 -6,-28 -7,-37 -1,-8 -6,-36 -15,-84 -8,-48 -8,-91 -1,-128 8,-37 14,-70 20,-98 6,-28 17,-58 35,-88 18,-31 33,-57 46,-80 13,-22 56,-78 128,-168 72,-89 117,-158 135,-207 18,-49 24,-87 20,-113 -5,-26 -11,-63 -19,-111 -8,-48 -55,-101 -142,-161 -87,-59 -157,-85 -212,-75 -54,9 -107,18 -159,27 -52,9 -107,52 -166,129 -59,77 -88,152 -87,223 1,71 -41,109 -127,113 -85,4 -131,-41 -135,-136 -4,-95 41,-201 136,-320 96,-118 189,-185 282,-201 92,-16 187,-32 284,-49 98,-17 214,19 348,105 134,87 208,168 221,243 13,75 23,135 30,178 7,44 -3,106 -31,186 -28,80 -68,152 -118,215 -51,63 -93,115 -127,158 -34,42 -60,82 -79,120 -19,38 -30,80 -35,125 -4,46 -3,93 5,143 7,49 -28,80 -107,94zm90 491c-93,16 -147,-23 -164,-116 -16,-93 23,-147 116,-164 93,-16 147,23 163,116 16,93 -23,147 -116,163z"/>
  <path id="7" class="fil9 str0" d="M6843 3732c-93,16 -147,-23 -163,-116 -16,-93 23,-147 116,-164 93,-16 148,23 164,116 16,93 -23,147 -116,164z"/>
  <path id="8" class="fil9 str0" d="M7620 3604c-93,16 -147,-23 -163,-116 -16,-93 23,-147 116,-164 93,-16 148,23 164,116 16,93 -23,147 -116,164z"/>
  <path id="9" class="fil9 str0" d="M8397 3476c-93,16 -147,-23 -163,-116 -16,-93 23,-147 116,-164 93,-16 148,23 164,116 16,93 -23,147 -116,164z"/>
  <path id="10" class="fil9 str0" d="M9090 2852c-53,9 -122,-161 -207,-510 -85,-348 -140,-597 -165,-745 -25,-148 13,-230 114,-247 101,-17 165,48 190,196 25,148 56,400 93,757 36,357 28,540 -24,549zm82 496c-94,16 -149,-23 -165,-116 -16,-93 23,-148 118,-164 94,-16 149,23 165,116 16,93 -23,147 -117,164z"/>
  <path id="11" class="fil9 str0" d="M9867 2724c-53,9 -122,-161 -207,-510 -85,-348 -140,-597 -165,-745 -25,-148 13,-230 114,-247 101,-17 165,48 190,196 25,148 56,400 93,757 36,357 28,540 -24,549zm82 496c-94,16 -149,-23 -165,-116 -16,-93 23,-148 118,-164 94,-16 149,23 165,116 16,93 -23,147 -117,164z"/>
  <path id="12" class="fil9 str0" d="M10643 2596c-53,9 -122,-161 -207,-510 -85,-348 -140,-597 -165,-745 -25,-148 13,-230 114,-247 101,-17 165,48 190,196 25,148 56,400 93,757 36,357 28,540 -24,549zm82 496c-94,16 -149,-23 -165,-116 -16,-93 23,-148 118,-164 94,-16 149,23 165,116 16,93 -23,147 -117,164z"/>
  <path id="13" class="fil9 str0" d="M11788 2410c-79,13 -120,12 -123,-4 -3,-16 -6,-28 -7,-37 -1,-8 -6,-36 -15,-84 -8,-48 -8,-91 -1,-128 8,-37 14,-70 20,-98 6,-28 17,-58 35,-88 18,-31 33,-57 46,-80 13,-22 56,-78 128,-168 72,-89 117,-158 135,-207 18,-49 24,-87 20,-113 -5,-26 -11,-63 -19,-111 -8,-48 -55,-101 -142,-161 -87,-59 -157,-85 -212,-75 -54,9 -107,18 -159,27 -52,9 -107,52 -166,129 -59,77 -88,152 -87,223 1,71 -41,109 -127,113 -85,4 -131,-41 -135,-136 -4,-95 41,-201 136,-320 96,-118 189,-185 282,-201 92,-16 187,-32 284,-49 98,-17 214,19 348,105 134,87 208,168 221,243 13,75 23,135 30,178 7,44 -3,106 -31,186 -28,80 -68,152 -118,215 -51,63 -93,115 -127,158 -34,42 -60,82 -79,120 -19,38 -30,80 -35,125 -4,46 -3,93 5,143 7,49 -28,80 -107,94zm90 491c-93,16 -147,-23 -164,-116 -16,-93 23,-147 116,-164 93,-16 147,23 163,116 16,93 -23,147 -116,163z"/>
  <path class="fil5" d="M3687 4555c-183,-154 -635,-499 -904,-683 -270,-183 -358,-205 -402,-189 -44,16 -44,69 42,145 86,76 259,175 486,312 227,138 509,314 692,422 183,108 269,146 86,-7z"/>
  <path class="fil5" d="M4137 4150c-107,-202 -340,-609 -473,-812 -133,-203 -167,-201 -193,-185 -26,16 -46,46 -8,123 38,78 133,203 266,389 133,186 304,433 400,558 95,125 115,129 8,-73z"/>
  <path class="fil5" d="M10356 7803c179,12 670,78 942,123 273,45 328,69 351,94 24,26 16,53 -36,61 -52,8 -147,-2 -350,-40 -203,-38 -513,-102 -734,-156 -221,-53 -353,-95 -174,-83z"/>
  <path class="fil5" d="M10385 7388c91,-37 377,-123 538,-159 161,-35 198,-19 207,3 9,22 -11,50 -120,79 -109,29 -309,59 -460,80 -152,21 -256,34 -165,-4z"/>
  <path class="fil5" d="M10171 8278c74,21 192,65 308,109 116,44 228,88 288,125 59,37 64,67 12,63 -52,-4 -161,-43 -289,-95 -128,-52 -274,-117 -353,-156 -78,-39 -89,-51 -79,-58 10,-7 40,-9 114,12z"/>
 </g>
</svg>
