<?xml version="1.0" encoding="UTF-8"?>
<!DOCTYPE svg PUBLIC "-//W3C//DTD SVG 1.1//EN" "http://www.w3.org/Graphics/SVG/1.1/DTD/svg11.dtd">
<!-- Creator: CorelDRAW 2017 -->
<svg xmlns="http://www.w3.org/2000/svg" xml:space="preserve" width="143mm" height="143mm" version="1.1" style="shape-rendering:geometricPrecision; text-rendering:geometricPrecision; image-rendering:optimizeQuality; fill-rule:evenodd; clip-rule:evenodd"
viewBox="0 0 14300 14300"
 xmlns:xlink="http://www.w3.org/1999/xlink">
 <defs>
  <style type="text/css">
   <![CDATA[
    .fil0 {fill:black}
    .fil2 {fill:#7BAD52}
    .fil5 {fill:gray}
    .fil1 {fill:#DE8066}
    .fil3 {fill:red}
    .fil6 {fill:white}
    .fil4 {fill:white;fill-rule:nonzero}
   ]]>
  </style>
 </defs>
 <g id="Слой_x0020_1">
  <metadata id="CorelCorpID_0Corel-Layer"/>
  <path class="fil0" d="M3479 2918c73,77 156,210 251,308 95,98 200,161 332,201 132,40 290,57 555,25 265,-33 638,-115 954,-167 316,-52 576,-75 841,-72 265,3 535,31 779,97 243,67 459,172 705,335 246,162 522,381 759,621 238,240 437,500 624,699 187,199 362,338 502,415 140,78 245,95 355,93 110,-2 224,-23 313,-53 89,-30 151,-68 222,-72 71,-4 150,25 196,80 46,54 59,133 42,208 -17,75 -64,146 -171,208 -106,62 -272,115 -454,130 -181,15 -378,-8 -591,-96 -214,-88 -444,-240 -664,-449 -220,-208 -429,-473 -638,-702 -208,-229 -415,-422 -626,-575 -211,-153 -427,-266 -638,-330 -212,-65 -419,-81 -672,-82 -253,0 -551,16 -820,50 -269,34 -509,86 -754,129 -245,43 -494,76 -726,49 -232,-27 -445,-115 -609,-228 -164,-113 -279,-251 -351,-376 -72,-125 -100,-236 -100,-317 0,-81 28,-133 64,-169 36,-37 80,-59 133,-59 53,0 115,21 188,99z"/>
  <path class="fil0" d="M7014 3097c54,21 99,55 130,86 31,31 48,59 55,250 7,190 6,543 -4,1188 -10,645 -27,1581 -27,2072 0,491 18,537 76,655 58,118 157,309 208,496 51,187 55,370 58,752 3,382 6,962 146,1290 140,328 418,404 696,479 -319,110 -638,219 -922,272 -283,53 -530,50 -696,46 -166,-4 -250,-7 -431,-62 -181,-55 -458,-160 -735,-266 256,-64 512,-128 638,-543 127,-416 124,-1183 144,-1614 20,-431 62,-526 112,-609 49,-83 106,-153 144,-258 38,-105 59,-244 74,-842 15,-598 25,-1653 28,-2280 3,-627 -2,-824 18,-944 20,-120 65,-164 119,-181 54,-17 117,-8 170,13z"/>
  <path class="fil1" d="M7215 10958c742,64 1542,101 2010,150 468,50 605,111 708,210 103,98 172,233 316,338 144,105 364,180 710,248 346,68 818,130 1120,207 302,77 435,171 518,295 83,125 116,280 -125,376 -241,96 -757,132 -2018,101 -1262,-30 -3270,-127 -4360,-208 -1090,-81 -1262,-147 -1386,-240 -124,-93 -200,-214 -337,-384 -136,-169 -333,-387 -693,-499 -359,-112 -881,-119 -1265,-206 -383,-87 -627,-255 -714,-383 -87,-127 -16,-214 69,-272 85,-58 184,-86 742,-78 558,9 1574,54 2425,122 851,68 1536,157 2278,221z"/>
  <path class="fil0" d="M8111 10364c617,3 675,3 722,42 48,40 86,119 107,207 22,88 27,185 30,311 3,126 5,281 4,362 -1,81 -4,88 -373,92 -369,4 -1103,4 -1796,4 -693,0 -1344,0 -1675,-14 -331,-14 -341,-43 -346,-140 -4,-97 -3,-263 6,-383 9,-121 24,-196 53,-268 29,-72 70,-140 121,-177 51,-37 112,-42 731,-42 619,0 1797,5 2414,8z"/>
  <path class="fil0" d="M10389 5743c114,237 320,708 528,1184 208,475 418,955 518,1207 100,251 89,274 72,284 -17,10 -40,6 -74,-35 -34,-41 -80,-121 -226,-453 -146,-333 -391,-918 -554,-1309 -163,-391 -244,-587 -297,-716 -53,-130 -78,-193 -99,-188 -21,5 -39,79 -199,442 -161,362 -464,1013 -654,1435 -190,422 -265,614 -325,709 -59,95 -101,93 -125,78 -24,-16 -29,-46 144,-435 173,-389 524,-1137 737,-1595 213,-458 289,-625 332,-719 43,-93 54,-113 70,-121 16,-8 37,-4 151,233z"/>
  <path class="fil0" d="M3754 3525c109,240 305,715 502,1195 198,480 397,964 491,1217 94,253 83,276 66,285 -17,9 -40,5 -73,-37 -33,-42 -78,-123 -216,-458 -138,-336 -371,-926 -525,-1321 -155,-394 -232,-592 -282,-722 -50,-131 -73,-195 -95,-190 -21,5 -41,79 -209,437 -168,359 -486,1003 -685,1420 -199,417 -279,608 -340,702 -61,94 -103,91 -127,75 -23,-16 -28,-46 153,-432 181,-385 548,-1125 772,-1578 223,-453 303,-619 348,-711 45,-93 56,-112 72,-119 16,-8 37,-4 146,236z"/>
  <path class="fil0" d="M9211 8313c381,-6 1132,0 1610,2 478,2 683,0 795,6 113,6 134,20 146,43 12,22 15,52 18,84 2,32 4,65 -2,98 -6,33 -18,64 -40,83 -22,18 -54,23 -86,27 -32,3 -64,5 -86,16 -22,11 -35,32 -66,104 -31,72 -82,195 -162,310 -80,115 -191,222 -308,298 -117,77 -241,123 -372,158 -131,34 -269,56 -416,49 -147,-7 -304,-44 -452,-105 -148,-61 -286,-147 -399,-252 -113,-105 -200,-229 -253,-329 -53,-100 -72,-176 -88,-220 -16,-44 -30,-57 -57,-68 -26,-12 -65,-23 -97,-32 -32,-9 -56,-16 -71,-36 -15,-20 -20,-51 -21,-86 -1,-34 1,-71 7,-99 6,-27 17,-45 398,-51z"/>
  <path class="fil0" d="M4639 6033c-381,-8 -1132,-6 -1610,-7 -478,-1 -683,-4 -796,2 -113,6 -134,20 -146,42 -12,22 -16,52 -18,84 -3,32 -4,65 1,98 5,33 18,64 40,83 22,18 54,24 86,27 32,3 64,5 86,17 22,11 34,33 66,105 31,72 81,196 160,311 80,115 189,223 306,300 117,77 240,125 371,160 131,35 268,58 416,51 147,-7 304,-42 452,-103 148,-60 287,-145 401,-250 114,-104 201,-228 255,-328 54,-100 73,-176 89,-220 17,-44 31,-57 57,-68 26,-12 65,-22 97,-31 32,-9 56,-16 71,-35 15,-19 20,-51 22,-86 2,-34 0,-71 -6,-99 -6,-27 -17,-45 -398,-53z"/>
  <path class="fil2" d="M3175 6557c50,41 135,111 191,153 56,42 85,56 111,44 27,-12 52,-50 93,-120 41,-70 99,-171 154,-256 55,-85 108,-154 165,-198 56,-44 116,-64 131,-61 15,3 -15,27 -62,107 -47,79 -110,213 -175,362 -64,149 -130,313 -170,408 -41,95 -56,122 -86,120 -30,-2 -74,-32 -131,-89 -56,-57 -125,-142 -183,-222 -57,-80 -103,-156 -128,-207 -25,-51 -28,-78 -24,-91 4,-13 17,-13 31,-8 14,5 30,16 80,56z"/>
  <path class="fil3" d="M10178 8779c24,26 52,47 90,45 38,-2 86,-29 137,-74 51,-45 105,-108 149,-146 44,-38 76,-52 96,-46 20,6 27,31 16,67 -11,35 -39,81 -81,133 -42,52 -97,110 -134,148 -36,39 -54,59 -42,87 12,28 54,65 105,114 51,49 112,110 142,154 29,44 28,70 -1,75 -29,5 -84,-12 -133,-42 -49,-30 -92,-74 -129,-113 -37,-39 -68,-73 -88,-91 -20,-18 -29,-21 -50,-12 -21,9 -54,30 -102,68 -48,38 -110,94 -152,128 -41,34 -62,47 -79,47 -17,1 -30,-11 -36,-34 -5,-23 -3,-56 16,-93 19,-37 53,-77 98,-117 45,-40 99,-80 121,-108 22,-28 13,-42 -19,-76 -32,-33 -87,-85 -124,-127 -38,-42 -58,-73 -70,-105 -12,-32 -15,-64 -9,-83 6,-19 20,-25 45,-17 25,8 61,30 91,54 30,24 55,51 76,79 22,28 41,58 65,83z"/>
  <path class="fil4" d="M10972 3878c-120,-28 -176,-55 -172,-80 6,-26 9,-44 12,-56 4,-12 13,-55 30,-129 18,-73 43,-134 77,-182 33,-48 62,-91 87,-127 25,-37 59,-71 103,-103 43,-33 81,-62 113,-85 32,-23 126,-77 282,-160 157,-84 262,-154 317,-213 55,-59 87,-108 97,-148 10,-40 23,-96 40,-169 17,-72 -18,-177 -105,-314 -87,-137 -172,-215 -255,-234 -82,-20 -163,-39 -242,-57 -79,-19 -185,8 -315,83 -130,74 -216,162 -257,264 -42,101 -124,130 -249,85 -124,-46 -161,-137 -110,-275 51,-137 180,-261 386,-371 207,-110 380,-149 520,-115 140,33 284,67 433,103 149,35 292,155 431,358 139,204 194,363 167,478 -27,114 -48,205 -65,271 -16,66 -67,148 -156,245 -89,97 -188,175 -298,234 -110,59 -201,107 -275,147 -73,40 -135,80 -184,123 -49,43 -91,94 -125,156 -34,62 -60,130 -79,204 -18,74 -88,97 -208,69zm-167 751c-141,-34 -196,-122 -162,-263 34,-141 122,-196 263,-162 142,33 196,121 162,262 -34,142 -122,196 -263,162z"/>
  <path class="fil0" d="M6716 3329c3,-66 7,-164 3,-235 -4,-70 -16,-113 -38,-148 -22,-35 -54,-64 -86,-101 -33,-37 -66,-83 -93,-147 -27,-64 -49,-147 -50,-223 -2,-76 16,-145 68,-217 52,-72 138,-148 239,-196 101,-48 215,-67 324,-61 108,6 211,38 297,91 86,53 157,127 197,220 40,93 49,204 31,296 -18,93 -62,167 -116,216 -54,49 -117,74 -170,93 -53,19 -95,31 -114,116 -19,85 -13,242 -18,330 -4,88 -19,107 -61,123 -42,16 -113,28 -176,32 -64,4 -120,-2 -159,-12 -39,-11 -60,-27 -71,-52 -10,-25 -9,-59 -6,-125z"/>
  <path class="fil5" d="M7312 10538c-374,-16 -1159,-27 -1594,-30 -435,-4 -519,0 -585,10 -65,10 -111,26 -145,60 -34,34 -55,87 -68,147 -13,60 -19,127 -19,186 -1,59 3,111 19,118 16,6 44,-33 77,-92 33,-59 72,-136 161,-189 89,-53 228,-81 510,-99 281,-18 705,-25 1052,-32 348,-7 619,-14 774,-28 154,-14 191,-36 -183,-52z"/>
  <path class="fil6" d="M10045 4289c-30,-173 -112,-564 -179,-814 -67,-250 -120,-360 -160,-391 -39,-31 -65,17 -35,167 30,150 117,401 187,606 69,204 122,361 158,462 37,100 59,144 29,-30z"/>
  <path class="fil6" d="M9583 4432c-42,-85 -229,-375 -355,-549 -126,-174 -191,-232 -226,-233 -35,-1 -39,54 36,168 75,114 229,287 357,433 128,146 230,265 188,180z"/>
  <path class="fil6" d="M11601 4734c116,-133 388,-424 575,-603 187,-179 289,-245 339,-251 50,-6 47,49 -57,161 -104,112 -308,283 -473,421 -165,139 -291,246 -375,313 -84,67 -125,92 -9,-40z"/>
 </g>
</svg>
