<?xml version="1.0" encoding="UTF-8"?>
<!DOCTYPE svg PUBLIC "-//W3C//DTD SVG 1.1//EN" "http://www.w3.org/Graphics/SVG/1.1/DTD/svg11.dtd">
<!-- Creator: CorelDRAW 2017 -->
<svg xmlns="http://www.w3.org/2000/svg" xml:space="preserve" width="143mm" height="143mm" version="1.1" style="shape-rendering:geometricPrecision; text-rendering:geometricPrecision; image-rendering:optimizeQuality; fill-rule:evenodd; clip-rule:evenodd"
viewBox="0 0 14300 14300"
 xmlns:xlink="http://www.w3.org/1999/xlink">
 <defs>
  <style type="text/css">
   <![CDATA[
    .fil7 {fill:none}
    .fil6 {fill:black}
    .fil1 {fill:black}
    .fil0 {fill:#0069E1}
    .fil4 {fill:#C99F2B}
    .fil5 {fill:#FFD663}
    .fil2 {fill:white}
    .fil3 {fill:#A60000;fill-rule:nonzero}
   ]]>
  </style>
 </defs>
 <g id="Слой_x0020_1">
  <metadata id="CorelCorpID_0Corel-Layer"/>
  <path class="fil0" d="M8753 11616c530,16 1036,50 1447,121 411,72 728,182 860,288 132,107 81,210 171,287 90,78 323,129 559,178 236,48 475,94 581,171 107,78 81,187 -410,255 -491,68 -1447,94 -2535,94 -1088,0 -2309,-26 -2958,-87 -649,-61 -727,-158 -798,-255 -71,-97 -136,-194 -381,-258 -245,-65 -672,-97 -1171,-107 -499,-10 -1070,3 -1385,-30 -315,-32 -373,-110 -317,-178 56,-68 227,-126 594,-154 366,-29 928,-29 1519,-15 591,14 1211,43 1605,37 394,-6 562,-48 688,-114 126,-66 210,-156 528,-202 318,-46 871,-47 1401,-31z"/>
  <path class="fil1" d="M8427 1738c181,-72 372,-72 551,-39 178,34 344,101 472,197 128,96 218,221 279,379 61,158 93,348 67,564 -26,216 -110,457 -220,622 -110,165 -246,254 -307,345 -62,91 -49,185 -12,269 37,84 99,159 219,209 119,49 295,73 508,-5 213,-79 463,-259 663,-426 200,-167 350,-321 535,-501 185,-180 404,-388 564,-539 160,-152 260,-247 342,-290 82,-42 146,-31 198,27 53,58 94,162 -35,378 -130,216 -430,544 -706,823 -276,279 -526,509 -787,719 -260,210 -529,400 -707,524 -177,124 -262,180 -313,358 -51,178 -67,477 -68,922 -1,445 15,1036 36,1681 21,646 48,1347 51,1948 2,602 -20,1104 -13,1374 7,270 45,307 109,355 65,48 157,106 254,160 97,53 198,102 252,208 54,107 60,271 -7,362 -67,91 -207,108 -412,111 -205,3 -475,-10 -651,-64 -175,-54 -256,-151 -313,-603 -57,-453 -91,-1261 -124,-1849 -33,-588 -64,-955 -96,-1215 -32,-260 -64,-414 -96,-447 -32,-33 -63,55 -89,512 -26,457 -45,1284 -69,1932 -24,647 -51,1115 -75,1366 -24,251 -44,285 -148,317 -104,32 -291,62 -497,55 -206,-7 -431,-52 -562,-118 -131,-67 -168,-156 -159,-244 9,-88 65,-175 148,-240 82,-64 191,-106 281,-155 89,-49 160,-107 194,-296 35,-189 35,-510 36,-936 1,-426 4,-956 10,-1526 6,-571 16,-1182 31,-1700 15,-518 36,-942 54,-1269 18,-327 33,-557 -10,-708 -43,-151 -145,-222 -333,-349 -188,-127 -464,-310 -759,-637 -295,-327 -611,-798 -783,-1119 -173,-322 -203,-494 -180,-631 23,-137 99,-238 191,-187 92,51 200,255 357,522 157,267 362,598 569,842 206,244 414,401 593,496 179,95 331,128 444,106 113,-22 189,-99 249,-176 61,-77 107,-155 123,-233 17,-78 4,-157 -61,-244 -65,-87 -181,-183 -261,-340 -80,-156 -124,-373 -127,-589 -2,-216 37,-431 142,-610 105,-179 275,-322 456,-394z"/>
  <path class="fil2" d="M8369 3088c42,51 96,129 170,175 75,46 170,59 251,60 81,1 148,-10 204,-34 55,-24 99,-60 143,-102 44,-42 88,-91 100,-84 11,7 -10,68 -50,147 -40,79 -100,176 -177,242 -77,66 -171,102 -251,104 -80,2 -145,-28 -210,-81 -64,-53 -128,-129 -170,-200 -42,-71 -64,-138 -79,-191 -15,-53 -24,-93 -13,-102 11,-9 40,14 82,65z"/>
  <g id="_1995505567680">
   <path class="fil3" d="M8363 2442c885,0 1686,359 2266,938 580,580 938,1381 938,2266 0,885 -359,1686 -938,2266 -580,580 -1381,938 -2266,938 -885,0 -1686,-359 -2266,-938 -580,-580 -938,-1381 -938,-2266 0,-885 359,-1686 938,-2266 580,-580 1381,-938 2266,-938zm2119 1085c-542,-542 -1292,-878 -2119,-878 -828,0 -1577,335 -2119,878 -542,542 -878,1292 -878,2119 0,828 335,1577 878,2119 542,542 1292,878 2119,878 828,0 1577,-335 2119,-878 542,-542 878,-1292 878,-2119 0,-828 -335,-1577 -878,-2119z"/>
   <path class="fil3" d="M4879 5776c-71,0 -129,-58 -129,-129 0,-71 58,-129 129,-129l767 0c71,0 129,58 129,129 0,71 -58,129 -129,129l-767 0z"/>
   <path class="fil3" d="M11080 5776c-71,0 -129,-58 -129,-129 0,-71 58,-129 129,-129l767 0c71,0 129,58 129,129 0,71 -58,129 -129,129l-767 0z"/>
   <path class="fil3" d="M8493 2852c0,71 -58,129 -129,129 -71,0 -129,-58 -129,-129l0 -767c0,-71 58,-129 129,-129 71,0 129,58 129,129l0 767z"/>
   <path class="fil3" d="M8499 9130c0,71 -58,129 -129,129 -71,0 -129,-58 -129,-129l0 -767c0,-71 58,-129 129,-129 71,0 129,58 129,129l0 767z"/>
   <path class="fil3" d="M10855 5776c30,-1 49,-106 35,-193 -7,-41 -20,-65 -35,-66l-79 0c-30,1 -49,106 -35,193 7,41 20,65 35,66l79 0zm-317 0c30,-1 49,-106 35,-193 -7,-41 -20,-65 -35,-66l-79 0c-30,1 -49,106 -35,193 7,41 20,65 35,66l79 0zm-317 0c30,-1 49,-106 35,-193 -7,-41 -20,-65 -35,-66l-79 0c-30,1 -49,106 -35,193 7,41 20,65 35,66l79 0zm-317 0c30,-1 49,-106 35,-193 -7,-41 -20,-65 -35,-66l-79 0c-30,1 -49,106 -35,193 7,41 20,65 35,66l79 0z"/>
   <path class="fil3" d="M6849 5776c29,-1 48,-106 33,-193 -7,-41 -19,-65 -33,-66l-76 0c-29,1 -48,106 -33,193 7,41 19,65 33,66l76 0zm-306 0c29,-1 48,-106 33,-193 -7,-41 -19,-65 -33,-66l-76 0c-29,1 -48,106 -33,193 7,41 19,65 33,66l76 0zm-306 0c29,-1 48,-106 33,-193 -7,-41 -19,-65 -33,-66l-76 0c-29,1 -48,106 -33,193 7,41 19,65 33,66l76 0zm-306 0c29,-1 48,-106 33,-193 -7,-41 -19,-65 -33,-66l-76 0c-29,1 -48,106 -33,193 7,41 19,65 33,66l76 0z"/>
   <path class="fil3" d="M8485 3146c-1,-30 -106,-48 -193,-34 -41,7 -65,20 -66,34l0 77c1,30 106,48 193,34 41,-7 65,-20 66,-34l0 -77zm0 309c-1,-30 -106,-48 -193,-34 -41,7 -65,20 -66,34l0 77c1,30 106,48 193,34 41,-7 65,-20 66,-34l0 -77zm0 309c-1,-30 -106,-48 -193,-34 -41,7 -65,20 -66,34l0 77c1,30 106,48 193,34 41,-7 65,-20 66,-34l0 -77zm0 309c-1,-30 -106,-48 -193,-34 -41,7 -65,20 -66,34l0 77c1,30 106,48 193,34 41,-7 65,-20 66,-34l0 -77z"/>
   <path class="fil3" d="M8485 7110c-1,-31 -106,-50 -193,-35 -41,7 -65,20 -66,35l0 80c1,31 106,50 193,35 41,-7 65,-20 66,-35l0 -80zm0 319c-1,-31 -106,-50 -193,-35 -41,7 -65,20 -66,35l0 80c1,31 106,50 193,35 41,-7 65,-20 66,-35l0 -80zm0 319c-1,-31 -106,-50 -193,-35 -41,7 -65,20 -66,35l0 80c1,31 106,50 193,35 41,-7 65,-20 66,-35l0 -80zm0 319c-1,-31 -106,-50 -193,-35 -41,7 -65,20 -66,35l0 80c1,31 106,50 193,35 41,-7 65,-20 66,-35l0 -80z"/>
  </g>
  <path class="fil4" d="M3355 8553c26,-15 77,-38 142,-30 64,9 142,49 234,116 91,67 196,160 303,274 107,114 215,248 286,377 71,128 105,250 122,329 17,79 18,115 1,149 -17,34 -50,66 -72,71 -22,5 -32,-18 -197,-223 -165,-205 -485,-592 -652,-794 -167,-203 -182,-220 -188,-233 -6,-13 -5,-21 21,-36z"/>
  <path class="fil4" d="M6121 6445c-56,27 -149,96 -185,142 -37,46 -17,70 65,170 83,100 229,278 369,446 140,168 274,328 349,402 76,74 94,63 142,28 48,-35 126,-94 130,-170 4,-76 -66,-169 -207,-341 -141,-172 -353,-422 -470,-556 -116,-133 -137,-149 -193,-122z"/>
  <path class="fil5" d="M6118 6449c68,107 223,300 386,499 162,199 331,406 427,526 96,120 118,154 144,160 27,6 57,-17 141,-113 84,-96 221,-266 307,-445 86,-179 122,-368 118,-514 -5,-146 -50,-250 -121,-340 -71,-90 -168,-166 -313,-202 -145,-36 -338,-33 -508,0 -170,32 -316,94 -415,145 -98,51 -148,91 -182,123 -34,31 -52,54 16,161z"/>
  <path class="fil5" d="M5890 6496c20,-4 31,10 165,179 134,169 391,495 556,703 165,208 238,299 271,349 33,51 26,61 -98,164 -125,103 -367,298 -743,603 -376,305 -886,718 -1150,931 -264,213 -283,225 -312,208 -30,-17 -70,-65 -228,-254 -158,-190 -434,-522 -588,-710 -154,-188 -187,-231 -202,-260 -15,-29 -14,-43 137,-168 151,-125 450,-362 827,-663 377,-302 832,-668 1074,-862 242,-194 272,-215 292,-219z"/>
  <path class="fil2" d="M6424 7142c-231,182 -463,363 -743,585 -280,222 -608,484 -793,652 -185,169 -228,244 -237,309 -9,65 15,121 51,163 36,42 85,70 148,72 63,2 142,-23 273,-113 131,-90 315,-246 554,-442 240,-196 535,-431 718,-579 184,-148 256,-209 327,-269 -100,-126 -200,-252 -300,-378z"/>
  <path class="fil2" d="M6275 6953c-438,352 -876,704 -1150,924 -274,221 -383,310 -451,367 -68,57 -93,81 -105,104 -12,23 -11,43 -2,58 8,14 24,23 42,22 18,0 38,-9 104,-57 66,-48 176,-136 444,-351 268,-214 692,-555 919,-736 227,-181 256,-202 286,-224 -29,-36 -57,-72 -86,-109z"/>
  <path class="fil2" d="M7404 6265c-56,-26 -152,-67 -290,-58 -138,10 -317,71 -455,137 -138,66 -234,138 -292,167 -59,29 -79,15 -110,-18 -31,-33 -71,-84 -91,-119 -20,-35 -20,-53 10,-78 31,-25 92,-56 184,-97 92,-41 213,-91 345,-116 132,-25 275,-25 389,-3 114,22 200,66 256,98 56,32 83,52 101,72 19,20 29,41 26,46 -3,5 -18,-5 -74,-31z"/>
  <path class="fil2" d="M5880 6044c7,29 17,111 33,170 16,60 37,98 65,126 27,28 61,45 89,57 28,11 50,17 40,24 -10,8 -54,18 -82,33 -28,15 -41,35 -52,70 -11,35 -20,86 -26,142 -6,56 -8,116 -10,176 -3,60 -6,118 -8,137 -3,19 -5,-2 -9,-48 -4,-47 -10,-119 -23,-184 -14,-65 -36,-122 -64,-169 -28,-47 -61,-83 -87,-103 -26,-20 -43,-24 -38,-34 6,-10 35,-27 58,-49 23,-21 39,-47 55,-90 16,-43 31,-103 39,-146 8,-43 8,-69 9,-93 1,-24 4,-47 11,-17z"/>
  <path class="fil2" d="M4548 9032c-4,38 -5,143 -17,220 -11,78 -33,129 -63,169 -31,39 -70,66 -104,85 -34,19 -61,29 -47,37 14,8 71,14 108,29 38,15 57,38 77,81 19,43 38,106 54,176 15,70 27,146 39,221 12,75 25,149 31,172 6,24 6,-3 4,-63 -2,-60 -6,-152 2,-236 8,-84 27,-160 55,-223 28,-63 65,-115 94,-144 29,-29 51,-36 43,-49 -9,-12 -48,-29 -80,-53 -32,-24 -57,-54 -84,-106 -26,-52 -55,-126 -71,-180 -16,-53 -20,-86 -26,-116 -5,-30 -12,-58 -16,-20z"/>
  <g id="_1995505565472">
   <path class="fil6" d="M3439 9065c-429,258 -926,650 -1284,1006 489,-260 911,-585 1284,-1006z"/>
  </g>
  <path class="fil7" d="M3439 9065c-200,168 -401,335 -615,503 -214,168 -442,335 -669,503"/>
  <g id="_1995505564928">
   <path class="fil6" d="M3629 9423c-721,486 -1616,1220 -2243,1826 828,-516 1571,-1109 2243,-1826z"/>
  </g>
  <path class="fil7" d="M3629 9423c-344,293 -687,587 -1061,891 -374,304 -778,620 -1182,935"/>
  <g id="_1995505562432">
   <path class="fil6" d="M3916 9623c-494,336 -1181,896 -1601,1299 627,-372 1138,-773 1601,-1299z"/>
  </g>
  <path class="fil7" d="M3916 9623c-236,208 -472,416 -739,632 -267,217 -564,442 -862,667"/>
  <path class="fil1" d="M11808 4210c131,-78 434,-245 637,-342 203,-97 305,-124 347,-116 43,9 26,53 -90,118 -116,65 -330,150 -504,220 -174,70 -307,124 -393,157 -87,32 -128,43 3,-36z"/>
  <path class="fil1" d="M11974 4595c80,-20 376,-61 562,-77 186,-15 261,-5 281,17 20,22 -14,56 -131,72 -118,15 -319,12 -487,10 -169,-2 -305,-2 -225,-22z"/>
  <path class="fil1" d="M5599 3173c-46,-67 -224,-268 -348,-396 -124,-128 -194,-183 -237,-191 -42,-7 -57,33 -6,99 51,66 168,159 257,234 89,75 149,131 221,193 73,62 158,128 112,61z"/>
 </g>
</svg>
