<?xml version="1.0" encoding="UTF-8"?>
<!DOCTYPE svg PUBLIC "-//W3C//DTD SVG 1.1//EN" "http://www.w3.org/Graphics/SVG/1.1/DTD/svg11.dtd">
<!-- Creator: CorelDRAW 2017 -->
<svg xmlns="http://www.w3.org/2000/svg" xml:space="preserve" width="143mm" height="143mm" version="1.1" style="shape-rendering:geometricPrecision; text-rendering:geometricPrecision; image-rendering:optimizeQuality; fill-rule:evenodd; clip-rule:evenodd"
viewBox="0 0 14300 14300"
 xmlns:xlink="http://www.w3.org/1999/xlink">
 <defs>
  <style type="text/css">
   <![CDATA[
    .fil1 {fill:#94E8FF}
    .fil0 {fill:red}
    .fil2 {fill:white}
   ]]>
  </style>
 </defs>
 <g id="Слой_x0020_1">
  <metadata id="CorelCorpID_0Corel-Layer"/>
  <path class="fil0" d="M7099 3430c41,155 67,510 112,815 46,305 113,561 213,720 100,158 234,219 381,284 148,65 310,135 411,118 102,-17 143,-121 213,-397 71,-276 171,-725 268,-1023 97,-298 190,-445 246,-470 56,-24 76,74 43,239 -33,164 -119,395 -186,621 -67,226 -114,447 -128,607 -14,160 6,259 62,329 56,70 149,112 218,132 69,19 113,15 157,70 44,55 87,168 161,245 74,77 177,118 351,128 174,10 417,-11 602,-33 185,-22 311,-44 474,-63 163,-20 362,-37 474,-30 112,7 137,38 16,85 -121,47 -389,109 -619,154 -230,45 -423,73 -611,151 -188,78 -372,205 -438,314 -66,109 -13,199 78,291 92,92 222,187 314,279 92,92 144,183 146,299 2,117 -47,260 -127,401 -80,141 -190,278 -237,419 -46,141 -28,284 94,407 122,123 348,226 501,344 152,118 231,250 189,315 -42,65 -204,62 -406,-54 -202,-116 -445,-346 -626,-478 -181,-132 -301,-166 -420,-153 -119,13 -236,73 -275,169 -39,95 0,226 44,317 44,91 93,142 115,199 22,57 16,118 -34,120 -50,2 -144,-57 -249,-107 -105,-49 -220,-90 -317,-89 -98,0 -178,40 -270,93 -93,53 -199,118 -257,248 -58,130 -69,326 -59,507 10,180 41,345 50,480 9,136 -4,243 -51,280 -47,37 -128,6 -195,-122 -67,-128 -120,-352 -103,-576 17,-224 103,-449 151,-606 48,-157 57,-247 -33,-290 -90,-42 -279,-37 -418,0 -139,37 -228,106 -294,115 -66,9 -110,-43 -124,-117 -15,-74 -1,-170 3,-254 4,-84 -2,-156 -110,-211 -108,-55 -317,-92 -519,-111 -202,-19 -397,-18 -643,39 -246,58 -542,172 -803,309 -261,137 -487,296 -716,419 -229,123 -461,210 -621,207 -160,-3 -248,-95 -118,-232 130,-137 479,-317 890,-476 411,-158 884,-294 1146,-414 263,-120 315,-225 363,-371 49,-146 94,-334 49,-556 -44,-222 -178,-478 -382,-647 -204,-169 -479,-251 -730,-290 -251,-39 -480,-36 -726,-18 -246,19 -511,53 -670,19 -159,-34 -212,-135 -160,-212 52,-77 209,-130 434,-135 225,-6 518,36 758,68 240,32 425,55 597,37 171,-18 328,-76 408,-144 80,-68 85,-147 177,-210 92,-64 272,-113 401,-127 130,-14 210,7 278,-35 69,-42 126,-147 199,-248 72,-101 158,-198 181,-319 23,-122 -18,-269 20,-311 38,-42 155,20 230,86 75,66 109,135 166,147 57,12 136,-34 168,-221 31,-187 14,-514 1,-794 -13,-280 -22,-513 2,-652 24,-139 82,-183 123,-27z"/>
  <path class="fil0" d="M5010 9375c99,14 168,41 177,82 9,41 -42,96 -38,145 4,50 64,95 60,140 -4,45 -73,90 -157,119 -84,30 -183,44 -260,17 -78,-27 -134,-94 -144,-146 -10,-52 26,-89 54,-122 28,-33 48,-63 38,-104 -9,-41 -47,-93 -2,-120 45,-26 173,-26 272,-12z"/>
  <path class="fil0" d="M5087 7440c28,2 112,3 113,47 1,45 -80,132 -162,176 -81,43 -162,42 -176,6 -14,-36 38,-108 91,-153 53,-45 107,-64 121,-72 13,-8 -14,-6 14,-4z"/>
  <path class="fil0" d="M9204 9448c52,12 122,51 167,103 45,52 64,116 53,158 -12,43 -54,65 -110,55 -56,-10 -125,-51 -165,-105 -40,-54 -52,-122 -41,-164 11,-42 44,-59 96,-47z"/>
  <path class="fil0" d="M6178 4186c72,79 176,184 206,268 30,84 -15,146 -65,148 -50,2 -105,-58 -184,-148 -79,-91 -181,-213 -204,-293 -22,-80 36,-119 85,-112 49,7 90,59 162,138z"/>
  <polygon class="fil1" points="5392,5185 4087,2935 2898,3922 "/>
  <polygon class="fil1" points="4817,4722 2500,5128 3337,5775 "/>
  <polygon class="fil1" points="5936,6721 3870,6715 3957,7591 "/>
  <polygon class="fil1" points="4705,8050 3315,6948 3060,8275 "/>
  <polygon class="fil1" points="9337,5182 9780,3654 9974,3255 10396,3722 10905,3384 11087,3797 10919,5065 10609,4805 10569,4818 9742,5116 9761,4745 "/>
  <polygon class="fil1" points="10641,6713 12596,6625 12054,7125 12545,7339 11135,7903 10919,7192 10268,7033 "/>
  <polygon class="fil1" points="12017,8833 11962,8787 10277,7721 11193,9634 "/>
  <polygon class="fil1" points="6757,12393 6184,9340 4659,10952 "/>
  <polygon class="fil1" points="9921,5578 12545,4796 12725,5325 "/>
  <polygon class="fil1" points="8209,1833 8070,4732 7196,1643 "/>
  <polygon class="fil1" points="5665,9788 2490,11214 3120,11961 "/>
  <polygon class="fil1" points="11487,10364 9787,9597 10983,11065 "/>
  <polygon class="fil1" points="12775,10160 12237,9708 12143,10821 "/>
  <polygon class="fil1" points="1764,5588 2053,4895 988,4823 "/>
  <polygon class="fil1" points="2624,8390 2617,7610 2075,7749 2136,8103 "/>
  <polygon class="fil1" points="11488,1969 10356,1472 10511,2075 "/>
  <polygon class="fil1" points="8533,9829 9898,11827 8170,12039 8165,11978 "/>
  <polygon class="fil1" points="9745,10649 8629,12595 9446,12894 "/>
  <polygon class="fil1" points="7599,8184 8067,8719 7231,8915 "/>
  <polygon class="fil1" points="8174,8237 7818,8987 8201,9016 "/>
  <polygon class="fil1" points="6991,11006 6300,11569 6901,11856 6896,11805 "/>
  <polygon class="fil2" points="5146,4916 4064,3469 3034,3898 4056,3077 "/>
  <polygon class="fil2" points="8146,1909 8087,3646 8086,3638 7951,2075 7303,1717 "/>
  <polygon class="fil2" points="10900,4876 11054,3834 10905,3494 10463,3758 10875,3885 "/>
  <polygon class="fil2" points="12308,7359 11181,7812 10977,7201 11308,7592 "/>
  <polygon class="fil2" points="10671,8058 11644,8856 11223,9522 11924,8837 "/>
  <polygon class="fil2" points="8583,10096 8250,11947 9756,11800 8523,11732 "/>
  <polygon class="fil2" points="4572,10381 2601,11237 3105,11847 2817,11282 "/>
  <polygon class="fil2" points="3935,6787 3996,7488 5341,6912 4111,7287 "/>
 </g>
</svg>
