<?xml version="1.0" encoding="UTF-8"?>
<!DOCTYPE svg PUBLIC "-//W3C//DTD SVG 1.1//EN" "http://www.w3.org/Graphics/SVG/1.1/DTD/svg11.dtd">
<!-- Creator: CorelDRAW 2017 -->
<svg xmlns="http://www.w3.org/2000/svg" xml:space="preserve" width="143mm" height="143mm" version="1.1" style="shape-rendering:geometricPrecision; text-rendering:geometricPrecision; image-rendering:optimizeQuality; fill-rule:evenodd; clip-rule:evenodd"
viewBox="0 0 14300 14300"
 xmlns:xlink="http://www.w3.org/1999/xlink">
 <defs>
  <style type="text/css">
   <![CDATA[
    .fil8 {fill:black}
    .fil6 {fill:#0069E1}
    .fil7 {fill:#0084FF}
    .fil4 {fill:#419BE0}
    .fil0 {fill:#4D4D4D}
    .fil2 {fill:#999999}
    .fil3 {fill:#CCCCCC}
    .fil1 {fill:#E6E6E6}
    .fil5 {fill:white}
   ]]>
  </style>
 </defs>
 <g id="Слой_x0020_1">
  <metadata id="CorelCorpID_0Corel-Layer"/>
  <rect class="fil0" x="1365" y="1661" width="11531" height="183"/>
  <path class="fil1" d="M3356 9814l-63 -6767 7402 0 -175 6771 -7164 -3zm7783 -7263l-8304 0 0 7745 8202 76 102 -7821z"/>
  <polygon class="fil2" points="8943,8665 9016,3670 8880,3700 8803,8754 10276,9401 10280,9262 "/>
  <path class="fil3" d="M8803 8754l76 -5053 136 -30 1413 -313 -149 5905 -4 139 -1473 -648zm-190 -5282l-63 5485 1971 860 175 -6771 -2082 425z"/>
  <path class="fil4" d="M11172 10533c372,163 878,487 1126,687 248,200 237,276 229,458 -8,182 -14,469 -85,610 -71,141 -208,137 -404,97 -196,-40 -452,-115 -736,-141 -284,-26 -598,-4 -833,123 -236,128 -395,362 -668,518 -273,157 -661,236 -1217,245 -556,9 -1279,-53 -1753,-172 -474,-119 -699,-295 -851,-434 -152,-139 -232,-240 -364,-304 -132,-64 -318,-90 -529,-66 -212,24 -450,99 -686,181 -236,82 -470,170 -670,179 -201,9 -368,-62 -467,-139 -99,-77 -130,-161 -249,-183 -119,-22 -326,18 -613,60 -287,42 -653,86 -838,13 -185,-73 -190,-262 -205,-447 -15,-184 -40,-363 -29,-479 11,-116 59,-170 268,-308 210,-138 582,-362 815,-498 234,-136 329,-186 1279,-202 950,-16 2753,0 4001,12 1248,12 1940,18 2405,22 465,4 703,7 1075,169z"/>
  <polygon class="fil5" points="11038,10373 12589,11115 1262,11115 2836,10296 "/>
  <path class="fil3" d="M4909 3922l0 4746 -1246 623 -2 -108 -100 -5782 1254 485 94 36zm249 4927l0 -5142 -1865 -660 63 6767 1802 -965z"/>
  <polygon class="fil2" points="4909,8668 4909,3922 4815,3886 4815,8583 3661,9184 3663,9291 "/>
  <polygon class="fil3" points="4909,5002 3589,5025 3589,5172 4909,5101 "/>
  <polygon class="fil3" points="4909,7061 3628,7276 3632,7469 4909,7163 "/>
  <polygon class="fil3" points="8861,4932 10392,4807 10388,4966 8860,5028 "/>
  <polygon class="fil3" points="8829,7039 10329,7311 10326,7503 8828,7135 "/>
  <g id="_1995415734192">
   <path class="fil6" d="M11622 1631c-162,-67 -479,-67 -879,-67 -400,0 -884,0 -1284,0 -400,0 -718,0 -1035,0 93,111 185,223 276,535 91,312 179,826 273,1298 93,472 192,902 316,1238 125,336 276,578 566,812 291,234 721,461 1053,597 332,136 566,181 755,189 189,8 332,-23 396,-94 64,-72 49,-185 34,-264 -15,-79 -30,-125 34,-143 64,-19 208,-11 344,-23 136,-11 264,-42 298,-110 34,-68 -26,-174 -87,-268 -60,-94 -121,-177 -72,-185 49,-8 208,60 347,76 140,15 261,-23 306,-125 45,-102 15,-268 -30,-393 -45,-125 -106,-208 -98,-253 8,-45 83,-53 147,-72 64,-19 117,-49 140,-113 23,-64 15,-162 -113,-249 -128,-87 -378,-162 -597,-287 -219,-125 -408,-298 -555,-600 -147,-302 -253,-732 -310,-1015 -57,-282 -64,-416 -226,-483z"/>
   <path class="fil7" d="M11758 5474c-151,-38 -400,-136 -646,-276 -245,-140 -487,-321 -700,-549 -213,-228 -398,-504 -519,-770 -121,-266 -177,-523 -230,-842 -53,-319 -102,-700 -89,-714 13,-13 89,342 183,672 94,330 207,636 410,955 204,319 499,651 741,859 242,208 431,291 606,380 176,89 338,183 393,242 55,59 2,81 -149,43z"/>
   <path class="fil7" d="M12145 4836c-108,-45 -345,-189 -563,-368 -217,-180 -414,-395 -571,-609 -157,-213 -273,-424 -347,-611 -73,-187 -104,-349 -124,-562 -21,-213 -32,-478 -15,-491 17,-13 62,225 149,502 87,277 215,595 385,870 170,276 381,510 580,704 198,194 383,349 487,453 104,104 126,157 19,111z"/>
   <path class="fil7" d="M12774 4289c-106,-23 -279,-102 -447,-238 -168,-136 -330,-328 -427,-491 -96,-162 -127,-295 -89,-270 38,25 143,206 278,357 134,151 296,272 446,366 149,94 285,162 334,213 49,51 11,85 -94,62z"/>
  </g>
  <polygon class="fil3" points="12589,11115 12524,11573 1322,11437 1262,11115 "/>
  <path class="fil8" d="M7541 2345c105,38 190,85 253,185 63,99 104,250 108,400 5,149 -27,296 -87,425 -59,128 -146,237 -255,312 -109,75 -239,116 -323,153 -84,38 -123,72 -165,167 -42,95 -88,251 -153,550 -65,299 -150,742 -257,1164 -107,422 -236,823 -233,1063 3,240 139,320 342,432 202,112 471,255 502,510 32,255 -174,621 -414,1046 -240,425 -514,907 -659,1179 -145,272 -162,332 -157,402 5,70 31,151 72,221 41,70 97,131 84,172 -13,41 -95,64 -200,51 -105,-13 -232,-60 -322,-147 -91,-87 -145,-212 -130,-396 16,-184 101,-426 225,-706 124,-280 287,-598 382,-819 94,-220 120,-342 94,-394 -26,-52 -104,-33 -201,44 -97,76 -213,210 -393,429 -180,218 -425,521 -589,722 -164,201 -247,300 -296,389 -49,89 -64,168 -69,253 -4,86 2,178 22,248 20,70 53,119 57,151 4,32 -22,47 -78,49 -56,2 -144,-9 -224,-64 -80,-55 -154,-153 -204,-261 -50,-108 -77,-226 -49,-354 28,-128 111,-266 305,-532 194,-266 500,-660 715,-969 215,-309 340,-533 345,-694 5,-161 -111,-259 -221,-394 -111,-135 -216,-308 -249,-545 -32,-238 9,-540 86,-890 77,-350 190,-748 341,-1081 151,-333 338,-601 500,-767 162,-166 298,-229 393,-289 95,-60 149,-115 162,-210 13,-95 -14,-229 -13,-369 1,-141 30,-288 88,-426 58,-137 144,-265 234,-347 90,-82 183,-120 292,-125 109,-4 233,24 337,63z"/>
  <path class="fil8" d="M6400 4071c-186,-87 -537,-132 -829,-170 -292,-38 -525,-68 -789,-15 -264,53 -559,190 -807,352 -248,162 -448,348 -558,482 -110,134 -128,217 -112,267 16,49 68,66 189,-20 121,-85 310,-272 579,-423 269,-151 616,-267 848,-285 232,-19 348,59 541,142 193,84 464,174 658,197 194,23 312,-22 384,-64 72,-42 98,-80 100,-164 2,-84 -20,-213 -206,-300z"/>
  <path class="fil8" d="M6995 4293c22,86 42,245 28,383 -14,138 -63,254 -119,382 -56,128 -120,267 -167,435 -46,167 -75,363 -82,557 -7,194 9,386 130,624 121,238 348,524 460,734 112,210 109,345 74,541 -34,196 -99,453 -145,578 -46,125 -74,117 -121,111 -47,-7 -114,-13 -303,-42 -189,-29 -500,-81 -798,-154 -298,-73 -584,-167 -935,-341 -350,-173 -765,-426 -1030,-638 -265,-212 -382,-383 -473,-521 -91,-138 -156,-243 -141,-258 15,-15 110,60 243,100 133,40 304,47 528,-1 224,-48 501,-149 669,-327 169,-178 229,-433 343,-762 114,-329 282,-732 465,-1058 183,-326 382,-574 502,-708 120,-134 162,-154 195,-159 34,-5 59,5 99,36 40,32 93,86 148,140 55,55 110,110 154,147 44,37 75,55 107,68 32,13 65,19 93,29 28,9 51,21 72,107z"/>
  <path class="fil8" d="M6105 4113c-206,7 -539,126 -816,225 -277,99 -498,178 -709,345 -211,167 -412,423 -559,680 -147,256 -241,513 -278,683 -37,170 -16,252 21,288 37,37 90,28 159,-103 69,-131 153,-383 324,-640 171,-257 428,-517 626,-640 198,-122 337,-106 547,-119 210,-13 492,-55 675,-123 183,-68 268,-161 314,-231 45,-70 51,-116 15,-192 -36,-76 -114,-180 -320,-173z"/>
  <path class="fil8" d="M7834 2388c67,58 141,143 175,231 34,88 30,179 38,230 7,52 27,65 11,80 -15,15 -65,33 -192,22 -126,-12 -329,-53 -455,-73 -126,-20 -176,-20 -229,29 -53,49 -110,146 -183,225 -73,79 -161,141 -258,185 -97,44 -202,70 -313,61 -111,-9 -228,-52 -367,-160 -139,-108 -300,-279 -380,-395 -80,-116 -81,-176 -76,-193 5,-18 15,7 45,32 31,25 82,50 110,48 28,-2 31,-30 26,-71 -5,-41 -19,-95 -19,-156 0,-61 14,-130 29,-198 15,-68 32,-137 37,-126 5,11 -1,102 8,160 10,59 35,85 65,103 30,18 66,28 79,2 14,-26 6,-87 9,-142 3,-56 17,-106 25,-105 8,1 9,53 36,109 27,56 79,114 148,136 69,22 154,7 247,-22 92,-29 192,-71 293,-123 102,-52 206,-115 316,-136 110,-21 224,-1 295,26 71,27 98,62 116,87 19,25 29,40 56,40 27,1 71,-13 123,-4 53,9 114,41 182,99z"/>
 </g>
</svg>
