<?xml version="1.0" encoding="UTF-8"?>
<!DOCTYPE svg PUBLIC "-//W3C//DTD SVG 1.1//EN" "http://www.w3.org/Graphics/SVG/1.1/DTD/svg11.dtd">
<!-- Creator: CorelDRAW 2017 -->
<svg xmlns="http://www.w3.org/2000/svg" xml:space="preserve" width="143mm" height="143mm" version="1.1" style="shape-rendering:geometricPrecision; text-rendering:geometricPrecision; image-rendering:optimizeQuality; fill-rule:evenodd; clip-rule:evenodd"
viewBox="0 0 14300 14300"
 xmlns:xlink="http://www.w3.org/1999/xlink">
 <defs>
  <style type="text/css">
   <![CDATA[
    .fil4 {fill:black}
    .fil1 {fill:#333333}
    .fil0 {fill:#46AEB5}
    .fil2 {fill:#4D4D4D}
    .fil3 {fill:white}
   ]]>
  </style>
 </defs>
 <g id="Слой_x0020_1">
  <metadata id="CorelCorpID_0Corel-Layer"/>
  <path class="fil0" d="M6577 2036c649,185 1518,613 2187,861 669,247 1137,314 1727,316 590,2 1302,-61 1818,1 516,61 835,246 1059,482 224,236 352,523 381,821 30,298 -39,607 -274,809 -235,202 -637,297 -1132,472 -495,175 -1083,430 -1451,693 -367,263 -514,533 -513,808 1,275 151,556 350,885 199,329 447,707 711,1038 264,331 544,616 766,798 222,181 386,259 343,468 -43,209 -294,548 -737,741 -443,193 -1078,240 -1415,407 -337,167 -375,454 -231,676 145,222 473,378 331,485 -141,107 -752,166 -1667,153 -916,-13 -2137,-98 -2932,-133 -796,-34 -1165,-18 -1230,-248 -65,-230 176,-706 407,-1005 231,-299 452,-422 347,-505 -106,-83 -539,-127 -928,-187 -389,-60 -734,-137 -837,-307 -103,-170 37,-433 321,-762 285,-329 715,-723 958,-1010 243,-287 300,-466 61,-579 -239,-113 -773,-160 -1062,-293 -289,-133 -332,-352 -345,-617 -13,-265 5,-576 -331,-812 -336,-236 -1026,-397 -1434,-647 -408,-249 -534,-587 -713,-1060 -179,-473 -412,-1082 -503,-1509 -90,-427 -39,-671 238,-807 276,-135 777,-162 1164,-138 387,24 659,99 926,234 267,136 528,333 723,256 195,-77 322,-427 546,-615 224,-188 543,-213 918,-255 374,-42 804,-99 1453,86z"/>
  <path class="fil1" d="M8604 3583c-525,-216 -1616,-623 -2194,-831 -578,-208 -643,-217 -894,-197 -251,20 -687,68 -869,109 -182,41 -108,74 105,263 213,188 566,532 819,769 254,237 408,369 507,429 98,60 140,49 567,-6 427,-54 1240,-151 1704,-202 464,-52 581,-58 659,-75 79,-16 120,-42 -405,-259z"/>
  <path class="fil1" d="M6005 2785c121,-41 361,-95 511,-123 150,-28 211,-30 263,-22 52,7 94,23 134,53 40,29 77,72 94,111 17,39 13,75 15,90 1,15 8,10 33,3 25,-7 68,-17 116,-21 48,-4 101,-2 152,13 50,16 98,45 132,79 34,34 55,71 62,104 7,32 1,60 -12,87 -13,27 -33,54 -141,80 -108,26 -305,52 -499,54 -193,2 -384,-21 -525,-78 -141,-57 -234,-150 -302,-211 -69,-62 -113,-92 -134,-121 -21,-29 -19,-56 102,-97z"/>
  <ellipse class="fil1" transform="matrix(2.94204 0.412355 -0.412355 2.94204 11207 5041.94)" rx="108" ry="111"/>
  <ellipse class="fil1" transform="matrix(2.94204 0.412355 -0.412355 2.94204 10215.8 4931.55)" rx="108" ry="111"/>
  <path class="fil2" d="M1875 3377c169,194 424,593 578,814 154,221 205,262 705,220 499,-43 1446,-169 2765,-342 1319,-173 3011,-391 4011,-513 1001,-122 1310,-148 1577,-139 267,9 492,52 712,103 221,51 437,110 615,202 178,91 316,214 382,319 66,104 60,190 10,296 -49,106 -142,231 -310,320 -168,89 -412,141 -948,219 -536,78 -1363,181 -1928,255 -564,74 -864,118 -1574,203 -710,85 -1829,211 -2661,305 -832,94 -1377,156 -1847,174 -470,18 -864,-9 -1188,-60 -324,-51 -579,-127 -726,-188 -147,-61 -187,-107 -305,-351 -119,-244 -316,-687 -472,-1038 -156,-351 -269,-609 -304,-735 -34,-126 11,-120 120,-136 109,-16 282,-56 409,-81 128,-25 210,-37 379,157z"/>
  <path class="fil1" d="M8337 5799c73,46 153,132 189,228 36,96 27,201 -27,286 -54,85 -152,149 -322,187 -170,38 -411,51 -573,52 -162,2 -244,-7 -260,1 -16,8 36,32 81,63 45,31 83,68 107,120 24,52 35,120 31,192 -4,72 -23,147 -65,209 -42,62 -106,111 -312,138 -206,27 -553,34 -821,45 -268,11 -458,28 -509,-30 -51,-58 37,-190 205,-389 168,-200 416,-468 625,-662 209,-194 379,-315 536,-380 158,-66 304,-77 454,-88 150,-11 304,-21 414,-23 110,-2 175,4 248,51z"/>
  <path class="fil2" d="M8975 5152c-126,125 -408,371 -895,779 -487,408 -1178,977 -1566,1296 -388,319 -473,388 -579,426 -106,38 -234,46 -470,68 -235,22 -578,57 -719,46 -141,-11 -81,-69 141,-406 222,-337 605,-952 839,-1327 234,-375 320,-510 456,-591 137,-80 325,-106 785,-167 460,-61 1191,-157 1582,-207 390,-49 440,-51 480,-50 40,1 71,6 -54,131z"/>
  <path class="fil3" d="M12618 3793c-53,-31 -196,-84 -328,-120 -132,-37 -253,-56 -385,-55 -132,2 -275,25 -357,39 -81,15 -101,20 -104,52 -3,32 10,90 22,144 12,54 22,105 54,127 32,22 87,15 224,-5 138,-20 359,-54 515,-79 156,-25 248,-41 312,-53 64,-12 99,-20 46,-51z"/>
  <ellipse class="fil3" transform="matrix(1.60346 0.22474 -0.22474 1.60346 10762.1 4005.92)" rx="108" ry="111"/>
  <ellipse class="fil3" transform="matrix(1.60346 0.22474 -0.22474 1.60346 10078 4083.43)" rx="108" ry="111"/>
  <ellipse class="fil3" transform="matrix(1.60346 0.22474 -0.22474 1.60346 9475.23 4166.86)" rx="108" ry="111"/>
  <ellipse class="fil3" transform="matrix(1.60346 0.22474 -0.22474 1.60346 7895.11 4360.69)" rx="108" ry="111"/>
  <ellipse class="fil3" transform="matrix(1.60346 0.22474 -0.22474 1.60346 7216.85 4440.09)" rx="108" ry="111"/>
  <ellipse class="fil3" transform="matrix(1.60346 0.22474 -0.22474 1.60346 6499.17 4528.76)" rx="108" ry="111"/>
  <ellipse class="fil3" transform="matrix(1.60346 0.22474 -0.22474 1.60346 5820.91 4608.17)" rx="108" ry="111"/>
  <ellipse class="fil3" transform="matrix(1.60346 0.22474 -0.22474 1.60346 5099.33 4679.07)" rx="108" ry="111"/>
  <ellipse class="fil3" transform="matrix(1.60346 0.22474 -0.22474 1.60346 4421.08 4758.47)" rx="108" ry="111"/>
  <path class="fil4" d="M9209 4668c116,15 245,46 363,125 118,79 225,206 284,365 59,159 72,350 36,520 -36,171 -119,322 -222,432 -103,110 -224,178 -272,247 -48,69 -24,139 17,180 41,41 98,53 226,-14 127,-68 324,-215 585,-489 261,-274 586,-674 806,-959 220,-285 335,-455 433,-524 98,-69 180,-36 195,65 14,100 -39,269 -242,568 -204,299 -557,730 -837,1052 -279,322 -484,535 -599,903 -115,368 -138,889 -130,1308 9,419 50,735 107,1063 57,328 131,668 164,894 33,226 25,336 -62,455 -86,119 -250,246 -439,385 -189,139 -402,291 -511,398 -109,107 -113,168 -113,234 0,66 4,135 -21,195 -25,59 -78,109 -156,115 -78,6 -180,-31 -267,-131 -86,-100 -156,-265 -189,-390 -33,-125 -29,-211 39,-308 68,-96 199,-203 378,-313 179,-110 406,-224 526,-320 120,-96 132,-174 105,-415 -27,-241 -92,-645 -137,-857 -45,-212 -70,-233 -96,-209 -27,24 -55,91 -99,191 -44,99 -104,231 -184,403 -81,172 -182,385 -257,525 -75,139 -125,205 -196,250 -72,45 -166,70 -364,45 -198,-25 -501,-98 -681,-147 -180,-49 -237,-74 -297,-35 -60,38 -123,140 -187,203 -64,63 -130,88 -193,65 -64,-23 -125,-92 -144,-201 -18,-109 6,-256 49,-375 43,-119 105,-209 195,-265 90,-55 209,-76 392,-62 182,14 429,64 578,96 150,33 203,49 262,18 59,-31 125,-109 193,-250 68,-141 137,-347 182,-521 45,-174 66,-318 69,-640 4,-322 -9,-824 -67,-1154 -58,-331 -160,-491 -351,-745 -191,-254 -470,-603 -690,-921 -221,-318 -384,-605 -463,-792 -79,-187 -75,-273 -22,-316 53,-43 156,-43 323,155 167,198 399,594 644,930 246,336 505,613 659,739 154,126 204,102 238,75 35,-27 55,-55 64,-94 8,-39 4,-88 -37,-152 -41,-64 -119,-141 -182,-268 -64,-126 -113,-300 -120,-476 -7,-175 28,-352 100,-497 73,-146 184,-260 290,-318 107,-57 209,-57 325,-42z"/>
  <path class="fil3" d="M9224 5824c19,1 34,17 42,54 8,37 9,96 -4,150 -13,54 -39,103 -71,137 -33,34 -71,54 -101,45 -29,-9 -49,-47 -58,-94 -9,-47 -7,-102 3,-142 10,-40 28,-64 50,-83 22,-19 47,-31 72,-44 25,-13 49,-25 69,-24z"/>
  <path class="fil4" d="M8410 4729c-76,-70 -203,-171 -292,-237 -88,-66 -137,-97 -158,-87 -21,10 -13,62 23,100 36,38 101,61 198,121 97,60 227,156 279,184 52,29 26,-10 -51,-80z"/>
  <path class="fil4" d="M8608 4597c-83,-105 -242,-326 -339,-479 -97,-153 -131,-238 -155,-311 -23,-73 -35,-134 -35,-175 0,-41 12,-63 27,-54 16,8 35,47 105,179 70,132 191,358 281,528 91,170 152,283 179,345 27,62 20,73 -63,-32z"/>
  <path class="fil4" d="M9970 4866c71,-67 241,-211 339,-291 98,-80 124,-97 146,-92 22,5 40,32 40,56 0,24 -19,45 -86,91 -67,45 -183,114 -266,165 -83,51 -134,85 -174,106 -40,22 -69,32 2,-35z"/>
  <path class="fil1" d="M4580 5520c-459,-36 -1231,-90 -1724,-224 -492,-134 -704,-347 -955,-671 -251,-324 -540,-758 -688,-969 -147,-211 -153,-198 -45,47 108,245 328,723 478,1038 149,315 227,467 306,571 79,104 158,160 381,215 223,55 588,109 925,131 337,22 644,11 944,-3 299,-14 591,-30 777,-41 186,-11 268,-16 236,-28 -32,-12 -176,-30 -635,-66z"/>
 </g>
</svg>
