<?xml version="1.0" encoding="UTF-8"?>
<!DOCTYPE svg PUBLIC "-//W3C//DTD SVG 1.1//EN" "http://www.w3.org/Graphics/SVG/1.1/DTD/svg11.dtd">
<!-- Creator: CorelDRAW 2017 -->
<svg xmlns="http://www.w3.org/2000/svg" xml:space="preserve" width="143mm" height="143mm" version="1.1" style="shape-rendering:geometricPrecision; text-rendering:geometricPrecision; image-rendering:optimizeQuality; fill-rule:evenodd; clip-rule:evenodd"
viewBox="0 0 14300 14300"
 xmlns:xlink="http://www.w3.org/1999/xlink">
 <defs>
  <style type="text/css">
   <![CDATA[
    .str1 {stroke:black;stroke-width:150}
    .str0 {stroke:black;stroke-width:20}
    .fil10 {fill:none;fill-rule:nonzero}
    .fil1 {fill:black}
    .fil4 {fill:#0069E1}
    .fil3 {fill:#428CCE}
    .fil0 {fill:#46AEB5}
    .fil2 {fill:#4D4D4D}
    .fil7 {fill:gray}
    .fil5 {fill:#A60000}
    .fil8 {fill:#CCCCCC}
    .fil6 {fill:white}
    .fil9 {fill:black;fill-rule:nonzero}
   ]]>
  </style>
 </defs>
 <g id="Слой_x0020_1">
  <metadata id="CorelCorpID_0Corel-Layer"/>
  <path class="fil0" d="M10581 13058c-896,3 -2482,3 -3306,-52 -824,-55 -886,-165 -896,-352 -9,-187 34,-450 227,-736 194,-286 538,-594 593,-886 55,-292 -179,-567 -716,-784 -537,-217 -1378,-375 -2085,-544 -707,-169 -1280,-348 -1745,-632 -464,-284 -819,-673 -1034,-1026 -215,-353 -291,-670 -350,-1007 -59,-338 -100,-696 -63,-1032 37,-336 152,-649 290,-951 138,-302 298,-593 512,-838 214,-245 480,-443 873,-607 392,-165 910,-296 1408,-222 498,74 977,352 1328,603 351,251 573,473 690,735 117,262 128,563 159,844 31,281 83,543 213,757 130,214 340,381 540,522 200,142 390,258 702,470 312,212 746,518 1069,881 324,363 537,784 768,994 231,210 479,210 868,265 389,55 920,165 1123,310 203,145 79,324 -134,448 -214,124 -517,193 -644,320 -127,127 -79,313 110,458 189,145 520,248 803,355 282,107 517,217 572,303 55,86 -69,148 -176,214 -107,65 -196,134 -183,234 14,100 131,231 217,348 86,117 141,220 65,317 -76,96 -282,186 -489,234 -207,48 -413,55 -1310,59z"/>
  <path class="fil1" d="M4576 2721c2,57 4,157 4,242 0,85 -2,155 -11,202 -9,48 -24,73 -64,85 -40,12 -104,11 -147,3 -43,-8 -63,-24 -80,-62 -16,-38 -28,-100 -35,-177 -7,-78 -8,-172 -8,-236 0,-64 1,-98 16,-121 15,-23 45,-35 89,-42 44,-7 103,-8 144,-4 40,4 62,13 74,25 12,12 14,27 16,85z"/>
  <path class="fil1" d="M4685 2607c36,-11 95,-37 151,-92 57,-55 112,-141 146,-221 34,-80 49,-156 42,-247 -7,-91 -36,-197 -95,-284 -59,-87 -149,-156 -222,-203 -73,-47 -130,-72 -192,-81 -62,-9 -130,-1 -198,9 -68,10 -136,23 -207,69 -71,45 -145,123 -199,200 -54,77 -86,154 -97,245 -10,91 2,197 31,281 29,83 75,143 117,193 42,49 79,87 117,108 38,21 76,24 98,9 22,-15 29,-48 11,-78 -18,-31 -60,-60 -97,-95 -38,-36 -71,-78 -95,-130 -23,-52 -36,-113 -40,-169 -4,-56 2,-108 16,-161 14,-53 37,-108 77,-157 39,-49 95,-93 146,-121 51,-28 97,-40 153,-46 56,-7 121,-8 182,6 61,14 116,42 159,75 42,33 71,70 100,118 30,48 60,107 72,170 12,63 5,130 -9,188 -14,59 -36,109 -56,145 -20,36 -38,59 -65,85 -27,27 -62,58 -84,84 -22,26 -31,47 -32,64 -1,17 5,30 15,38 9,8 21,10 57,-2z"/>
  <path class="fil2" d="M4669 2298c18,6 40,18 54,48 14,30 19,78 19,146 0,68 -5,155 -11,212 -5,56 -11,81 -30,100 -19,19 -50,31 -112,36 -61,5 -152,3 -226,2 -74,-1 -131,1 -174,-6 -43,-7 -73,-21 -89,-56 -16,-35 -20,-91 -21,-158 -2,-67 -2,-144 7,-197 9,-52 26,-80 50,-100 24,-20 53,-32 104,-37 51,-5 125,-3 192,-1 67,2 129,3 166,3 38,1 52,1 70,7z"/>
  <path class="fil2" d="M4831 3070c235,35 443,99 634,176 191,77 366,169 536,291 170,122 335,276 481,456 146,180 272,387 360,600 87,214 136,435 163,667 27,233 32,478 0,720 -32,243 -100,483 -192,703 -92,221 -209,423 -350,605 -141,182 -306,346 -498,487 -192,142 -411,262 -629,348 -219,86 -437,139 -690,161 -253,22 -539,12 -814,-43 -275,-55 -537,-156 -768,-286 -231,-130 -430,-288 -593,-461 -163,-173 -289,-360 -401,-569 -112,-209 -209,-439 -262,-667 -53,-228 -63,-454 -46,-696 17,-243 61,-502 138,-742 78,-240 190,-461 327,-657 137,-196 300,-366 502,-523 202,-157 442,-301 672,-403 230,-101 450,-160 691,-186 241,-26 504,-18 739,17z"/>
  <path class="fil3" d="M4035 3519c234,-40 489,-30 712,5 223,35 415,95 600,184 185,89 363,206 516,348 154,142 283,307 390,485 107,178 191,367 241,575 50,208 67,433 47,666 -20,233 -78,473 -176,699 -98,226 -238,437 -413,622 -175,185 -387,343 -647,456 -261,113 -570,180 -866,191 -295,11 -576,-35 -803,-106 -227,-71 -400,-167 -569,-307 -169,-140 -335,-325 -462,-528 -127,-203 -216,-424 -269,-648 -53,-224 -70,-453 -52,-677 18,-224 71,-445 154,-653 83,-208 196,-402 357,-582 161,-180 370,-346 581,-473 211,-127 425,-216 659,-256z"/>
  <path class="fil4" d="M3999 3793c234,-40 489,-30 712,5 223,35 415,95 600,184 185,89 363,206 516,348 154,142 283,307 390,485 107,178 191,367 241,575 48,196 65,408 50,627 15,-78 26,-157 33,-234 20,-233 4,-459 -47,-666 -50,-208 -134,-397 -241,-575 -107,-178 -236,-343 -390,-485 -154,-142 -331,-259 -516,-348 -185,-89 -377,-149 -600,-184 -223,-35 -478,-44 -712,-5 -234,40 -448,128 -659,256 -211,127 -420,293 -581,473 -161,180 -274,375 -357,582 -83,208 -136,429 -154,653 -1,9 -1,18 -2,26 27,-139 67,-275 120,-406 83,-208 196,-402 357,-582 161,-180 370,-346 581,-473 211,-127 425,-216 659,-256z"/>
  <path class="fil5" d="M5361 3762c9,-1 3,23 -29,147 -32,124 -91,347 -162,671 -71,324 -155,749 -203,986 -48,237 -59,286 -70,335 -321,-161 -643,-321 -964,-482 77,-95 154,-190 304,-366 151,-176 375,-433 565,-652 190,-220 345,-402 435,-507 90,-104 115,-131 125,-132z"/>
  <path class="fil6" d="M3932 5418c321,161 643,321 964,482 -73,84 -146,169 -305,353 -160,184 -406,469 -598,692 -193,223 -332,385 -413,480 -81,95 -104,123 -113,126 -9,4 -4,-17 21,-133 25,-116 69,-327 137,-634 68,-307 159,-709 214,-953 55,-244 74,-329 94,-414z"/>
  <path class="fil7" d="M4415 5663c-145,294 -292,590 -448,905 -153,308 -315,634 -478,963 16,-18 44,-51 91,-106 81,-95 220,-257 413,-480 193,-223 439,-508 598,-692l305 -353 -280 -140c0,0 0,0 0,0 -58,-28 -125,-59 -195,-94 -2,-1 -4,-2 -6,-3z"/>
  <ellipse class="fil8" cx="4430" cy="5667" rx="239" ry="250"/>
  <path class="fil2" d="M4650 5786c-12,23 -33,54 -71,83 -38,28 -94,53 -149,54 -55,1 -109,-23 -148,-52 -38,-29 -60,-63 -75,-101 -15,-38 -22,-79 -8,-99 14,-21 50,-21 106,-21 56,0 133,0 199,0 66,0 121,0 148,0 27,0 27,0 26,14 -2,14 -5,43 -9,64 -4,21 -8,35 -21,57z"/>
  <path class="fil1 str0" d="M9815 3264c156,61 301,183 393,347 92,163 130,367 122,553 -8,185 -63,352 -146,472 -83,121 -195,195 -258,269 -63,74 -78,149 -45,218 33,69 114,134 193,190 79,56 156,105 219,140 63,35 112,56 174,53 62,-3 138,-31 258,-75 120,-43 283,-102 339,-170 56,-68 4,-144 -49,-226 -53,-82 -108,-169 -185,-257 -78,-88 -178,-178 -255,-243 -77,-65 -131,-105 -123,-200 8,-94 79,-242 162,-283 83,-41 179,25 284,121 105,96 218,222 308,341 89,119 155,230 204,343 49,113 82,228 86,345 4,116 -20,233 -107,362 -87,129 -236,270 -409,386 -173,115 -368,205 -475,278 -107,73 -125,130 -157,230 -32,100 -78,242 -81,652 -3,411 37,1090 35,1724 -2,634 -45,1224 -71,1724 -26,500 -36,910 -17,1147 19,238 68,303 122,357 54,54 113,96 150,158 37,63 53,147 37,214 -16,68 -65,119 -153,141 -88,23 -215,17 -349,-8 -135,-25 -277,-70 -355,-219 -78,-149 -92,-402 -99,-793 -8,-391 -9,-921 -14,-1360 -6,-439 -15,-787 -32,-988 -17,-201 -41,-255 -69,-104 -28,151 -61,506 -82,1045 -22,539 -33,1263 -45,1690 -12,427 -26,558 -70,642 -44,84 -119,122 -246,139 -126,17 -304,15 -424,-6 -120,-21 -183,-60 -204,-124 -21,-64 -1,-154 46,-214 47,-61 121,-92 169,-189 48,-96 69,-257 86,-542 16,-285 27,-693 22,-1205 -5,-512 -27,-1128 -9,-1704 17,-576 74,-1111 91,-1462 17,-351 -4,-519 -45,-546 -40,-27 -100,87 -154,319 -55,232 -104,584 -121,903 -17,319 -1,606 -6,792 -5,186 -33,272 -71,316 -38,45 -87,48 -140,14 -53,-35 -109,-108 -148,-278 -39,-170 -62,-438 -45,-771 17,-333 74,-731 137,-1070 63,-340 133,-621 198,-848 65,-227 124,-399 207,-514 82,-115 187,-171 283,-226 96,-54 182,-105 218,-159 36,-54 23,-111 -39,-192 -62,-81 -172,-187 -235,-336 -63,-149 -78,-340 -54,-530 24,-189 87,-377 186,-517 100,-140 236,-234 387,-281 151,-48 317,-49 472,12z"/>
  <path class="fil9" d="M10295 2627c-59,-34 -85,-58 -78,-71 7,-12 12,-22 16,-28 4,-6 16,-27 37,-64 21,-36 45,-64 70,-85 26,-20 48,-38 67,-54 19,-16 43,-28 71,-39 29,-10 53,-19 74,-27 21,-7 80,-21 177,-40 97,-19 165,-40 203,-62 39,-22 64,-43 75,-63 12,-20 28,-48 49,-84 21,-36 19,-97 -5,-184 -24,-87 -57,-143 -98,-166 -41,-24 -81,-47 -120,-70 -39,-23 -99,-25 -181,-7 -81,18 -141,52 -180,99 -39,48 -88,49 -146,5 -59,-45 -63,-99 -14,-164 50,-65 138,-110 266,-135 128,-25 227,-17 296,23 70,40 141,82 214,125 73,43 130,130 171,261 41,131 44,225 12,281 -33,57 -60,101 -79,134 -19,33 -60,68 -124,105 -63,37 -128,63 -196,76 -68,13 -125,25 -170,34 -46,9 -85,21 -118,35 -33,15 -64,36 -92,63 -28,27 -53,59 -76,96 -22,36 -63,37 -122,3zm-211 373c-70,-41 -84,-96 -44,-167 41,-70 96,-84 166,-43 70,41 85,96 44,166 -41,70 -96,84 -166,44z"/>
  <path id="1" class="fil10 str1" d="M10295 2627c-59,-34 -85,-58 -78,-71 7,-12 12,-22 16,-28 4,-6 16,-27 37,-64 21,-36 45,-64 70,-85 26,-20 48,-38 67,-54 19,-16 43,-28 71,-39 29,-10 53,-19 74,-27 21,-7 80,-21 177,-40 97,-19 165,-40 203,-62 39,-22 64,-43 75,-63 12,-20 28,-48 49,-84 21,-36 19,-97 -5,-184 -24,-87 -57,-143 -98,-166 -41,-24 -81,-47 -120,-70 -39,-23 -99,-25 -181,-7 -81,18 -141,52 -180,99 -39,48 -88,49 -146,5 -59,-45 -63,-99 -14,-164 50,-65 138,-110 266,-135 128,-25 227,-17 296,23 70,40 141,82 214,125 73,43 130,130 171,261 41,131 44,225 12,281 -33,57 -60,101 -79,134 -19,33 -60,68 -124,105 -63,37 -128,63 -196,76 -68,13 -125,25 -170,34 -46,9 -85,21 -118,35 -33,15 -64,36 -92,63 -28,27 -53,59 -76,96 -22,36 -63,37 -122,3zm-211 373c-70,-41 -84,-96 -44,-167 41,-70 96,-84 166,-43 70,41 85,96 44,166 -41,70 -96,84 -166,44z"/>
  <path class="fil1" d="M10223 3818c87,3 228,45 380,128 152,83 315,207 451,354 136,148 246,319 326,465 79,146 129,265 143,403 14,138 -7,294 -105,444 -98,150 -272,293 -469,395 -197,101 -416,160 -532,238 -115,78 -127,175 -136,259 -9,84 -16,156 -58,210 -42,54 -120,91 -184,1 -64,-90 -115,-307 -118,-495 -3,-188 42,-349 143,-461 101,-113 257,-177 390,-228 134,-51 245,-87 336,-135 91,-48 162,-107 190,-180 28,-73 12,-160 -38,-261 -50,-101 -136,-217 -236,-314 -101,-96 -217,-174 -315,-251 -98,-77 -176,-155 -227,-221 -51,-67 -73,-123 -84,-168 -11,-45 -11,-79 6,-114 17,-35 51,-72 138,-69z"/>
  <path class="fil6" d="M9427 4422c21,31 44,74 53,131 9,58 5,130 -12,176 -16,46 -44,66 -85,66 -41,0 -97,-20 -137,-67 -41,-47 -67,-120 -75,-180 -8,-60 1,-106 21,-140 21,-35 53,-58 84,-64 31,-7 62,2 87,16 25,14 43,32 64,63z"/>
  <path class="fil1" d="M10672 3275c133,-79 439,-248 644,-346 205,-98 308,-126 351,-117 43,9 26,53 -91,119 -117,65 -334,152 -510,222 -176,71 -310,126 -398,158 -88,33 -129,43 3,-36z"/>
  <path class="fil1" d="M10840 3664c81,-21 381,-62 568,-78 188,-15 263,-5 284,17 21,22 -14,57 -133,72 -119,16 -322,12 -493,10 -170,-2 -308,-2 -227,-22z"/>
  <path class="fil1" d="M8970 2865c-36,-145 -143,-489 -220,-670 -78,-181 -126,-198 -134,-158 -9,40 22,136 83,289 60,153 150,363 212,496 62,133 96,188 60,43z"/>
  <path class="fil6" d="M6438 1631c67,36 197,139 368,273 171,135 384,302 504,397 120,96 147,121 156,138 9,16 -1,24 -53,49 -53,25 -149,68 -193,96 -45,28 -39,42 17,175 56,133 161,384 240,568 79,184 133,301 160,366 27,65 27,78 -67,124 -94,47 -282,127 -387,168 -104,41 -124,42 -137,35 -13,-7 -20,-23 -101,-215 -81,-192 -236,-560 -319,-746 -83,-186 -94,-191 -145,-174 -51,16 -142,53 -194,72 -52,19 -64,21 -54,-125 10,-146 41,-439 67,-659 26,-221 45,-369 57,-458 11,-90 15,-120 82,-85z"/>
  <path class="fil6" d="M3141 11729c32,-69 128,-204 254,-382 126,-178 281,-399 371,-524 90,-125 113,-153 129,-163 16,-10 24,-1 52,51 28,51 76,145 106,188 31,43 44,37 174,-26 130,-62 375,-181 555,-269 180,-89 294,-148 357,-178 63,-30 76,-31 128,61 51,92 141,276 187,377 46,102 48,121 42,135 -7,14 -22,21 -209,112 -187,91 -547,265 -728,357 -182,93 -186,104 -167,154 19,50 60,139 82,190 22,51 24,63 -122,61 -146,-2 -440,-18 -662,-32 -222,-14 -371,-26 -461,-33 -90,-7 -121,-9 -89,-77z"/>
  <path class="fil6" d="M13300 8294c-51,-57 -181,-159 -352,-294 -171,-135 -383,-303 -505,-397 -121,-94 -152,-115 -170,-120 -18,-5 -23,6 -36,64 -12,57 -31,160 -48,211 -17,50 -32,48 -174,25 -142,-23 -411,-67 -608,-101 -198,-34 -324,-59 -393,-70 -69,-11 -82,-8 -105,95 -23,102 -57,304 -72,415 -15,111 -12,130 -1,141 10,11 27,14 232,48 205,34 599,98 800,135 200,37 207,47 204,100 -4,53 -18,150 -25,205 -7,55 -5,67 134,23 139,-43 417,-143 625,-219 208,-76 348,-130 432,-162 84,-32 114,-43 63,-99z"/>
 </g>
</svg>
