<?xml version="1.0" encoding="UTF-8"?>
<!DOCTYPE svg PUBLIC "-//W3C//DTD SVG 1.1//EN" "http://www.w3.org/Graphics/SVG/1.1/DTD/svg11.dtd">
<!-- Creator: CorelDRAW 2017 -->
<svg xmlns="http://www.w3.org/2000/svg" xml:space="preserve" width="143mm" height="143mm" version="1.1" style="shape-rendering:geometricPrecision; text-rendering:geometricPrecision; image-rendering:optimizeQuality; fill-rule:evenodd; clip-rule:evenodd"
viewBox="0 0 14300 14300"
 xmlns:xlink="http://www.w3.org/1999/xlink">
 <defs>
  <style type="text/css">
   <![CDATA[
    .fil1 {fill:black}
    .fil4 {fill:#4D4D4D}
    .fil6 {fill:gray}
    .fil2 {fill:#A60000}
    .fil3 {fill:#CCCCCC}
    .fil5 {fill:red}
    .fil0 {fill:white}
   ]]>
  </style>
 </defs>
 <g id="Слой_x0020_1">
  <metadata id="CorelCorpID_0Corel-Layer"/>
  <path class="fil0" d="M5176 8613c97,-160 277,-449 396,-687 119,-239 176,-427 230,-546 54,-119 105,-170 118,-193 14,-23 -10,-18 -76,-23 -65,-5 -172,-21 -276,-50 -105,-29 -208,-71 -255,-81 -48,-9 -40,15 -37,59 3,44 2,109 -40,239 -42,129 -126,322 -222,490 -96,168 -204,311 -279,414 -76,103 -119,166 -159,217 -40,51 -75,88 -88,108 -12,20 -1,23 45,63 46,40 126,119 189,208 63,89 110,188 140,224 31,36 45,9 74,-39 28,-47 70,-115 99,-164 28,-49 43,-79 140,-238z"/>
  <path class="fil1" d="M12188 1218c-468,236 -1290,666 -1989,1094 -700,429 -1277,856 -1670,1121 -393,265 -603,368 -872,519 -269,150 -598,348 -784,467 -186,119 -229,159 -245,197 -16,38 -5,74 38,95 43,21 117,26 213,2 96,-24 214,-79 385,-154 171,-76 395,-173 505,-215 110,-42 106,-29 10,65 -96,93 -285,267 -456,451 -171,184 -324,379 -408,536 -84,157 -99,276 -79,356 20,80 74,122 164,68 90,-54 214,-202 373,-387 158,-184 351,-405 501,-557 150,-152 258,-235 308,-266 49,-31 40,-8 -31,71 -71,79 -205,215 -361,407 -156,192 -336,441 -439,621 -103,179 -130,289 -113,367 17,78 78,125 155,104 77,-21 170,-109 300,-264 130,-155 296,-377 436,-541 139,-164 251,-271 349,-353 98,-82 180,-139 188,-122 8,17 -60,107 -125,226 -65,119 -129,268 -153,416 -25,148 -10,294 28,423 39,129 102,242 178,318 76,76 165,115 222,106 58,-9 85,-67 78,-158 -7,-91 -48,-215 -65,-334 -18,-119 -12,-234 11,-331 23,-98 62,-179 150,-268 88,-89 224,-187 326,-253 102,-66 169,-100 204,-74 35,26 39,113 9,229 -30,117 -95,263 -162,367 -67,103 -135,163 -186,218 -51,54 -83,103 -99,160 -16,56 -14,120 -11,173 4,53 10,95 50,108 40,12 115,-5 234,-85 119,-79 283,-220 415,-373 131,-153 230,-319 299,-487 69,-168 109,-339 141,-526 32,-187 57,-391 82,-538 26,-147 53,-239 250,-370 198,-131 566,-303 1025,-489 459,-186 1009,-386 1347,-548 338,-161 465,-284 518,-427 53,-144 32,-308 -24,-520 -56,-211 -147,-469 -239,-638 -93,-169 -188,-249 -292,-267 -104,-18 -218,25 -685,261z"/>
  <path class="fil0" d="M9201 5458c-93,11 -261,59 -393,93 -132,34 -227,52 -323,71 63,62 127,124 161,194 35,70 40,147 37,263 -3,116 -15,270 -57,459 -42,189 -114,412 -176,535 -62,123 -116,145 -127,158 -11,13 20,15 88,40 68,25 174,71 266,111 92,40 171,74 217,89 46,15 60,13 85,-31 25,-44 62,-129 108,-302 46,-173 101,-433 142,-673 41,-239 66,-458 80,-615 14,-157 16,-254 8,-315 -8,-61 -24,-87 -117,-76z"/>
  <path class="fil1" d="M9552 4807c-137,170 -70,136 -34,162 35,26 39,113 9,229 -30,117 -95,263 -162,367 -67,103 -135,163 -186,218 -51,54 -83,103 -99,160 -16,56 -14,120 -11,173 4,53 10,95 50,108 40,12 115,-5 234,-85 119,-79 283,-220 415,-373 131,-153 230,-319 299,-487 69,-168 109,-339 141,-526 32,-187 57,-391 82,-538 26,-147 53,-239 -104,-97 -157,142 -498,517 -634,688z"/>
  <path class="fil2" d="M7939 10867c382,24 1016,72 1541,113 525,41 941,75 1084,150 143,75 14,191 -99,276 -113,85 -208,140 -116,184 92,44 372,78 702,89 331,10 713,-3 989,34 276,38 447,126 389,246 -58,119 -344,269 -1047,351 -702,82 -1821,95 -2588,99 -767,3 -1183,-3 -1384,14 -201,17 -188,58 -177,113 10,55 17,123 -181,171 -198,48 -600,75 -1245,65 -645,-10 -1531,-58 -2104,-119 -573,-61 -832,-136 -917,-246 -85,-109 3,-252 48,-368 44,-116 44,-205 -85,-266 -130,-61 -389,-95 -610,-130 -222,-34 -406,-68 -512,-133 -106,-65 -133,-160 -61,-239 72,-78 242,-140 498,-160 256,-20 597,0 1078,24 481,24 1101,51 1507,31 406,-20 597,-89 645,-147 48,-58 -48,-106 106,-136 153,-31 556,-44 914,-48 358,-3 672,3 893,7 222,3 351,3 733,27z"/>
  <path class="fil1" d="M9376 8777c-38,352 -106,981 -190,1450 -84,468 -186,776 -309,1006 -123,230 -267,384 -436,484 -169,100 -362,146 -616,126 -253,-20 -567,-106 -812,-192 -246,-86 -424,-172 -600,-215 -177,-43 -352,-43 -528,-12 -177,31 -355,92 -522,132 -167,40 -324,58 -461,40 -137,-18 -253,-74 -390,-329 -137,-255 -293,-710 -399,-1209 -106,-499 -161,-1043 -172,-1418 -11,-375 23,-581 40,-691 17,-111 17,-126 290,-137 273,-11 820,-17 1557,37 737,54 1665,167 2278,246 613,78 911,121 1080,146 169,25 209,31 224,71 15,40 6,114 -32,465z"/>
  <path class="fil0" d="M7387 7817c-113,-72 -286,-188 -404,-297 -118,-109 -179,-211 -198,-300 -19,-89 5,-164 2,-191 -3,-27 -34,-7 -140,32 -106,39 -286,97 -467,155 41,68 82,136 165,244 84,107 210,254 353,380 143,126 303,232 425,310 121,78 203,130 249,136 46,7 56,-31 84,-85 27,-55 72,-126 99,-172 27,-46 38,-66 17,-90 -20,-24 -72,-51 -184,-123z"/>
  <path class="fil0" d="M7958 7435c-20,109 -41,218 -44,298 -3,80 10,131 -6,149 -16,18 -62,3 -116,0 -54,-3 -115,8 -234,37 -119,29 -294,77 -412,139 -118,62 -177,139 -217,213 -39,74 -58,146 -71,177 -13,32 -20,23 -79,-24 -60,-47 -172,-132 -262,-179 -90,-47 -156,-55 -182,-73 -26,-18 -10,-45 55,-113 66,-68 182,-177 318,-280 136,-103 293,-200 447,-257 153,-56 303,-72 419,-79 116,-8 198,-8 256,-8 58,0 92,0 126,0z"/>
  <path class="fil0" d="M5424 8052c-33,-156 -91,-441 -158,-658 -67,-217 -142,-367 -178,-473 -37,-106 -35,-167 -40,-189 -5,-22 -17,-5 -61,30 -43,35 -119,88 -200,131 -82,43 -171,78 -205,100 -35,22 -16,32 12,58 28,26 66,67 115,171 49,105 111,274 150,434 39,160 56,312 70,420 14,108 24,173 29,228 5,55 5,99 9,119 4,20 13,14 65,13 52,-2 147,0 239,18 91,18 178,52 218,56 40,4 33,-21 23,-67 -10,-46 -24,-113 -35,-159 -11,-47 -20,-74 -53,-230z"/>
  <path class="fil1" d="M9235 7757c198,-8 511,-20 746,3 235,23 392,81 530,158 138,77 258,172 339,267 81,95 124,190 131,284 6,94 -25,186 -180,260 -155,74 -435,129 -763,126 -329,-3 -706,-64 -1193,-163 -487,-98 -1083,-233 -1689,-356 -607,-123 -1224,-233 -1785,-299 -561,-66 -1064,-88 -1454,-75 -390,12 -667,58 -855,108 -189,49 -290,101 -347,169 -57,68 -69,151 -8,206 61,55 197,83 414,77 218,-6 517,-46 817,-86 0,32 0,64 0,97 -281,51 -563,101 -766,128 -204,27 -330,30 -446,2 -117,-28 -224,-86 -290,-158 -66,-72 -91,-158 -77,-260 14,-101 66,-218 186,-324 120,-106 307,-201 608,-263 301,-61 716,-89 1258,-86 542,3 1212,37 1872,77 660,40 1312,86 1742,108 430,22 639,18 785,15 146,-3 229,-6 427,-14z"/>
  <path class="fil3" d="M7849 9064c659,-32 1099,-82 1510,-135 5,-50 11,-96 15,-139 -162,-26 -337,-59 -530,-98 -487,-98 -1083,-233 -1689,-356 -607,-123 -1224,-233 -1785,-299 -532,-63 -1012,-85 -1393,-77 -14,90 -36,237 -40,475l0 1 0 95c0,0 0,0 0,0 0,35 1,71 2,109 3,91 8,193 16,302 260,47 650,114 1350,142 725,29 1782,17 2545,-20z"/>
  <path class="fil4" d="M3938 8434c4,-235 26,-382 39,-472 0,-1 0,-2 0,-3 -21,0 -41,1 -61,2 -390,12 -667,58 -855,108 -189,49 -290,101 -347,169 -57,68 -69,151 -8,206 61,55 197,83 414,77 218,-6 517,-46 817,-86z"/>
  <path class="fil2" d="M10599 8028c-16,43 20,161 20,243 -1,82 -38,130 -132,163 -94,32 -244,49 -343,36 -99,-14 -147,-58 -208,-96 -61,-38 -136,-68 -186,-60 -49,9 -73,56 -157,73 -84,17 -227,3 -409,-20 -182,-24 -404,-58 -602,-94 -198,-36 -372,-73 -548,-78 -176,-5 -354,24 -615,13 -261,-11 -604,-62 -895,-99 -291,-36 -530,-58 -854,-79 -324,-21 -734,-42 -874,-51 -140,-8 -10,-4 238,35 247,39 612,114 951,193 339,78 653,160 1054,250 401,90 888,189 1221,253 332,63 510,90 716,130 206,39 442,90 613,105 172,15 279,-7 354,15 75,22 117,88 139,140 22,51 23,88 28,125 5,36 14,72 33,100 19,28 49,47 88,31 39,-16 88,-67 109,-132 21,-65 13,-143 62,-193 49,-49 156,-70 260,-111 104,-41 207,-102 290,-171 84,-68 148,-143 148,-230 0,-87 -65,-186 -134,-267 -69,-81 -143,-144 -214,-191 -71,-47 -139,-77 -155,-33z"/>
  <path class="fil2" d="M10273 10001c26,38 70,143 89,218 19,75 12,119 -15,159 -27,39 -75,73 -107,70 -32,-3 -49,-44 -56,-95 -7,-51 -3,-113 7,-169 10,-56 27,-107 39,-148 12,-41 19,-72 44,-34z"/>
  <path class="fil5" d="M10891 11505c12,-75 94,-306 206,-443 112,-137 256,-181 356,-184 100,-3 156,34 103,103 -53,69 -215,169 -328,247 -112,78 -175,134 -234,203 -59,69 -116,150 -103,75z"/>
  <path class="fil5" d="M12096 10858c169,-84 431,-147 581,-134 150,12 187,100 116,147 -72,47 -253,53 -440,94 -187,41 -381,116 -440,100 -59,-16 16,-122 184,-206z"/>
  <path class="fil5" d="M2167 10705c0,-25 -60,-127 -132,-196 -72,-69 -157,-104 -213,-106 -56,-2 -85,30 -67,58 18,28 81,53 138,79 56,26 106,55 161,95 55,41 115,93 115,69z"/>
  <path class="fil5" d="M1761 10046c-19,-27 -80,-87 -139,-116 -59,-29 -116,-27 -141,-13 -26,14 -20,41 18,59 38,19 108,29 153,42 44,13 62,29 83,40 21,11 46,16 27,-11z"/>
  <path class="fil5" d="M2250 12257c44,-2 122,11 170,38 49,27 68,70 104,105 36,35 89,64 40,75 -49,11 -201,6 -307,-4 -106,-10 -166,-24 -233,-35 -67,-11 -141,-20 -158,-40 -17,-19 24,-49 76,-59 52,-10 116,1 158,-4 42,-4 63,-24 79,-41 16,-18 26,-34 71,-35z"/>
  <path class="fil5" d="M1666 12464c55,-3 131,4 167,12 36,8 33,15 5,22 -28,7 -80,12 -138,15 -58,4 -123,5 -150,1 -27,-4 -16,-14 6,-25 22,-11 56,-23 110,-26z"/>
  <path class="fil6" d="M4181 9541c43,213 172,740 292,1101 120,361 231,555 329,661 98,107 183,126 295,113 112,-13 251,-59 406,-86 154,-27 324,-36 405,-42 81,-6 74,-10 -65,-20 -139,-11 -411,-28 -592,-61 -181,-33 -271,-80 -382,-226 -111,-146 -243,-389 -355,-646 -111,-258 -201,-529 -267,-716 -66,-187 -108,-289 -65,-77z"/>
 </g>
</svg>
