<?xml version="1.0" encoding="UTF-8"?>
<!DOCTYPE svg PUBLIC "-//W3C//DTD SVG 1.1//EN" "http://www.w3.org/Graphics/SVG/1.1/DTD/svg11.dtd">
<!-- Creator: CorelDRAW 2017 -->
<svg xmlns="http://www.w3.org/2000/svg" xml:space="preserve" width="143mm" height="143mm" version="1.1" style="shape-rendering:geometricPrecision; text-rendering:geometricPrecision; image-rendering:optimizeQuality; fill-rule:evenodd; clip-rule:evenodd"
viewBox="0 0 14300 14300"
 xmlns:xlink="http://www.w3.org/1999/xlink">
 <defs>
  <style type="text/css">
   <![CDATA[
    .fil7 {fill:black}
    .fil13 {fill:#0069E1}
    .fil14 {fill:#0084FF}
    .fil10 {fill:#333333}
    .fil1 {fill:#4D4D4D}
    .fil6 {fill:gray}
    .fil3 {fill:#999999}
    .fil8 {fill:#A5D673}
    .fil4 {fill:#CCCCCC}
    .fil11 {fill:#CCCCCC}
    .fil2 {fill:#E6E6E6}
    .fil9 {fill:red}
    .fil5 {fill:white}
    .fil15 {fill:black;fill-rule:nonzero}
    .fil12 {fill:red;fill-rule:nonzero}
    .fil0 {fill:white;fill-rule:nonzero}
   ]]>
  </style>
 </defs>
 <g id="Слой_x0020_1">
  <metadata id="CorelCorpID_0Corel-Layer"/>
  <path class="fil0" d="M8381 8466c296,-314 439,-692 439,-1072 0,-924 -848,-1674 -1893,-1674 -1045,0 -1893,750 -1893,1674 0,924 848,1674 1893,1674 321,0 610,-66 879,-192 511,542 1022,1084 1533,1627 -958,-2037 -639,-1358 -958,-2037z"/>
  <rect class="fil1" x="1338" y="2155" width="11531" height="183"/>
  <path class="fil2" d="M3329 10308l-63 -6767 7402 0 -175 6771 -7164 -3zm7783 -7263l-8304 0 0 7745 8202 76 102 -7821z"/>
  <polygon class="fil3" points="8916,9159 8988,4164 8852,4194 8776,9248 10249,9895 10253,9756 "/>
  <path class="fil4" d="M8776 9248l76 -5053 136 -30 1413 -313 -149 5905 -4 139 -1473 -648zm-190 -5282l-63 5485 1971 860 175 -6771 -2082 425z"/>
  <polygon class="fil5" points="11011,10866 12562,11608 1235,11608 2809,10790 "/>
  <path class="fil4" d="M4882 4416l0 4746 -1246 623 -2 -108 -100 -5782 1254 485 94 36zm249 4927l0 -5142 -1865 -660 63 6767 1802 -965z"/>
  <polygon class="fil3" points="4882,9162 4882,4416 4787,4379 4787,9077 3634,9677 3636,9785 "/>
  <polygon class="fil4" points="4882,5496 3562,5519 3562,5666 4882,5595 "/>
  <polygon class="fil4" points="4882,7555 3601,7770 3604,7963 4882,7657 "/>
  <polygon class="fil4" points="8834,5425 10365,5300 10361,5459 8832,5522 "/>
  <polygon class="fil4" points="8802,7532 10302,7805 10298,7997 8801,7629 "/>
  <g id="_2208478169872">
   <path class="fil6" d="M4582 10108c170,1 440,4 609,13 169,9 238,23 297,63 59,40 107,106 166,255 59,150 128,383 164,539 36,155 38,232 13,295 -25,63 -78,111 -319,134 -241,23 -669,20 -983,17 -313,-3 -511,-6 -641,-16 -129,-10 -189,-27 -222,-78 -33,-51 -40,-137 -10,-308 30,-171 97,-428 149,-589 52,-161 89,-227 164,-265 75,-38 188,-50 280,-56 92,-6 164,-6 334,-4z"/>
   <path class="fil1" d="M4665 9196c-6,25 -21,38 -40,43 -19,5 -42,2 -53,-17 -11,-20 -10,-57 -10,-134 0,-77 -1,-193 -1,-268 0,-76 1,-110 11,-136 10,-26 29,-42 45,-40 16,2 30,22 38,72 9,50 12,130 13,199 1,69 0,128 0,175 0,47 3,83 -4,107z"/>
   <path class="fil7" d="M4706 10265c58,2 97,8 125,25 28,17 44,46 51,118 7,72 6,187 -3,279 -9,92 -27,161 -66,199 -40,38 -101,44 -190,48 -88,4 -203,5 -296,-1 -93,-6 -163,-18 -202,-44 -38,-26 -44,-64 -43,-123 1,-59 10,-137 23,-211 13,-74 30,-143 58,-187 28,-44 66,-62 124,-75 58,-12 134,-19 210,-23 76,-4 152,-7 209,-5z"/>
   <path class="fil3" d="M4717 10555c7,-184 7,-489 9,-731 1,-242 3,-422 -7,-536 -10,-114 -33,-163 -100,-198 -67,-36 -178,-58 -275,-60 -97,-1 -180,19 -230,120 -50,101 -67,284 -74,523 -7,239 -4,536 -1,738 3,202 6,311 36,375 30,64 87,84 157,94 70,10 153,10 230,6 77,-4 148,-13 191,-48 43,-36 58,-98 65,-282z"/>
   <path class="fil8" d="M4270 9140c46,-3 121,1 180,9 59,9 103,22 130,55 27,32 38,84 40,148 2,64 -4,141 -21,189 -17,48 -45,67 -112,72 -67,5 -173,-4 -240,-12 -67,-8 -94,-15 -107,-47 -13,-32 -12,-89 -9,-144 4,-55 11,-107 21,-148 10,-41 24,-71 39,-91 15,-20 32,-29 78,-32z"/>
   <path class="fil9" d="M4158 9735c19,-6 49,-6 68,-2 19,5 28,15 32,41 3,26 1,66 -13,86 -14,19 -40,18 -62,16 -22,-1 -40,-2 -50,-21 -10,-19 -12,-56 -8,-80 4,-24 14,-35 33,-41z"/>
   <path class="fil10" d="M4335 9744c16,-8 45,-8 65,-6 20,3 32,7 36,29 4,22 -1,61 -8,84 -7,24 -18,32 -36,35 -18,3 -44,1 -59,-4 -15,-5 -18,-14 -19,-31 -2,-17 -2,-41 -1,-62 2,-21 6,-38 23,-46z"/>
   <path class="fil8" d="M4527 9744c19,-6 49,-6 68,-2 19,5 28,15 32,41 3,26 1,66 -13,86 -14,19 -40,18 -62,16 -22,-1 -40,-2 -50,-21 -10,-19 -12,-56 -8,-80 4,-24 14,-35 33,-41z"/>
   <path class="fil11" d="M4149 10069c19,-6 49,-6 68,-2 19,5 28,15 32,41 3,26 1,66 -13,86 -14,19 -40,18 -62,16 -22,-1 -40,-2 -50,-21 -10,-19 -12,-56 -8,-80 4,-24 14,-35 33,-41z"/>
   <path class="fil11" d="M4326 10077c16,-8 45,-8 65,-6 20,3 32,7 36,29 4,22 -1,61 -8,84 -7,24 -18,32 -36,35 -18,3 -44,1 -59,-4 -15,-5 -18,-14 -19,-31 -2,-17 -2,-41 -1,-62 2,-21 6,-38 23,-46z"/>
   <path class="fil11" d="M4518 10078c19,-6 49,-6 68,-2 19,5 28,15 32,41 3,26 1,66 -13,86 -14,19 -40,18 -62,16 -22,-1 -40,-2 -50,-21 -10,-19 -12,-56 -8,-80 4,-24 14,-35 33,-41z"/>
   <path class="fil11" d="M4144 10417c19,6 49,6 68,2 19,-5 28,-15 32,-41 3,-26 1,-66 -13,-86 -14,-19 -40,-18 -62,-16 -22,1 -40,2 -50,21 -10,19 -12,56 -8,80 4,24 14,35 33,41z"/>
   <path class="fil11" d="M4321 10425c16,8 45,8 65,6 20,-3 32,-7 36,-29 4,-22 -1,-61 -8,-84 -7,-24 -18,-32 -36,-35 -18,-3 -44,-1 -59,4 -15,5 -18,14 -19,31 -2,17 -2,41 -1,62 2,21 6,38 23,46z"/>
   <path class="fil11" d="M4579 10288c-19,-6 -49,-6 -68,-2 -19,5 -28,15 -32,41 -3,26 -1,66 13,86 14,19 40,18 62,16 22,-1 40,-2 50,-21 10,-19 12,-56 8,-80 -4,-24 -14,-35 -33,-41z"/>
   <path class="fil11" d="M4580 10502c-19,-7 -48,-9 -68,-5 -19,4 -29,14 -34,39 -5,25 -4,66 9,87 13,20 39,20 61,20 22,0 40,0 51,-18 11,-18 15,-55 12,-80 -3,-24 -12,-36 -31,-43z"/>
   <path class="fil11" d="M4403 10502c-16,-9 -44,-11 -65,-9 -20,1 -32,6 -37,28 -5,22 -3,61 4,85 6,24 16,32 34,37 18,4 44,4 59,-1 15,-4 18,-13 21,-30 3,-17 5,-41 4,-62 -1,-21 -4,-38 -20,-47z"/>
   <path class="fil11" d="M4211 10492c-19,-7 -48,-9 -68,-5 -19,4 -29,14 -34,39 -5,25 -4,66 9,87 13,20 39,20 61,20 22,0 40,0 51,-18 11,-18 15,-55 12,-80 -3,-24 -12,-36 -31,-43z"/>
   <path class="fil7" d="M3278 10977l0 0zm-921 -480l0 0zm94 280c101,153 261,-72 519,-86 307,-17 254,420 488,472 54,12 121,2 180,-12 2,-25 5,-53 10,-85 -184,45 -220,31 -298,-126l0 0c-113,-231 -197,-392 -505,-309 -112,30 -267,118 -301,118 -74,0 -32,-249 -144,-321l0 0c-86,-54 -223,-13 -305,55 -205,171 -211,544 -215,788l81 -42c4,-224 17,-685 303,-742 186,-38 105,165 187,289z"/>
   <path class="fil12" d="M5043 8335c-26,-11 -39,-41 -28,-67 11,-26 41,-39 67,-28 34,14 67,28 98,42 33,15 67,32 102,52 35,20 70,43 102,70 33,27 64,58 88,92 25,35 43,71 57,109 13,35 24,73 35,110 8,27 -8,56 -35,64 -27,8 -56,-8 -64,-35 -10,-34 -20,-68 -33,-102 -12,-31 -26,-60 -44,-86 -19,-26 -43,-50 -70,-72 -28,-23 -58,-43 -89,-60 -31,-18 -62,-33 -92,-47 -34,-15 -64,-28 -95,-40z"/>
   <path class="fil12" d="M5018 7900c-27,-9 -42,-38 -33,-65 9,-27 38,-42 65,-33 65,21 130,42 195,67 66,25 132,53 198,89 71,38 142,85 207,141 58,50 111,107 156,172 95,138 151,310 207,481 9,27 -6,56 -33,65 -27,9 -56,-6 -65,-33 -54,-164 -107,-329 -194,-455 -40,-58 -87,-108 -138,-152 -59,-51 -124,-93 -189,-128 -62,-33 -123,-60 -185,-83 -64,-24 -127,-44 -190,-65z"/>
   <path class="fil12" d="M3390 9673c17,-23 49,-28 72,-12 23,17 28,49 12,72 -41,57 -82,114 -100,172 -8,26 -12,53 -13,80 -1,32 1,63 7,91 9,51 28,92 46,133 12,26 0,57 -27,68 -26,12 -57,0 -68,-27 -20,-46 -41,-92 -53,-156 -6,-34 -10,-74 -8,-114 2,-35 7,-72 18,-106 23,-74 69,-138 115,-202z"/>
   <path class="fil12" d="M3168 9306c16,-24 48,-30 72,-14 24,16 30,48 14,72l-2 3c-52,69 -105,137 -140,230 -18,47 -32,100 -41,156 -9,57 -14,117 -14,177 0,57 6,115 14,168 9,57 22,110 37,153 14,41 29,72 45,99 17,28 35,52 53,77 17,23 12,55 -11,72 -23,17 -55,12 -72,-11 -20,-26 -39,-53 -59,-85 -20,-33 -38,-71 -55,-118 -16,-48 -31,-106 -41,-170 -9,-58 -15,-121 -15,-184 -1,-66 5,-132 15,-194 10,-63 26,-123 46,-176 40,-105 96,-179 152,-253z"/>
  </g>
  <g id="_2208478167504">
   <path class="fil13" d="M11595 2125c-162,-67 -479,-67 -879,-67 -400,0 -884,0 -1284,0 -400,0 -718,0 -1035,0 93,111 185,223 276,535 91,312 179,826 273,1298 93,472 192,902 316,1238 125,336 276,578 566,812 291,234 721,461 1053,597 332,136 566,181 755,189 189,8 332,-23 396,-94 64,-72 49,-185 34,-264 -15,-79 -30,-125 34,-143 64,-19 208,-11 344,-23 136,-11 264,-42 298,-110 34,-68 -26,-174 -87,-268 -60,-94 -121,-177 -72,-185 49,-8 208,60 347,76 140,15 261,-23 306,-125 45,-102 15,-268 -30,-393 -45,-125 -106,-208 -98,-253 8,-45 83,-53 147,-72 64,-19 117,-49 140,-113 23,-64 15,-162 -113,-249 -128,-87 -378,-162 -597,-287 -219,-125 -408,-298 -555,-600 -147,-302 -253,-732 -310,-1015 -57,-282 -64,-416 -226,-483z"/>
   <path class="fil14" d="M11731 5968c-151,-38 -400,-136 -646,-276 -245,-140 -487,-321 -700,-549 -213,-228 -398,-504 -519,-770 -121,-266 -177,-523 -230,-842 -53,-319 -102,-700 -89,-714 13,-13 89,342 183,672 94,330 207,636 410,955 204,319 499,651 741,859 242,208 431,291 606,380 176,89 338,183 393,242 55,59 2,81 -149,43z"/>
   <path class="fil14" d="M12118 5330c-108,-45 -345,-189 -563,-368 -217,-180 -414,-395 -571,-609 -157,-213 -273,-424 -347,-611 -73,-187 -104,-349 -124,-562 -21,-213 -32,-478 -15,-491 17,-13 62,225 149,502 87,277 215,595 385,870 170,276 381,510 580,704 198,194 383,349 487,453 104,104 126,157 19,111z"/>
   <path class="fil14" d="M12746 4783c-106,-23 -279,-102 -447,-238 -168,-136 -330,-328 -427,-491 -96,-162 -127,-295 -89,-270 38,25 143,206 278,357 134,151 296,272 446,366 149,94 285,162 334,213 49,51 11,85 -94,62z"/>
  </g>
  <polygon class="fil4" points="12562,11608 12497,12066 1294,11930 1235,11608 "/>
  <path class="fil15" d="M5966 7474l-191 -62 31 -93c10,3 19,1 28,-7 8,-8 17,-25 25,-51l97 -297c6,-19 9,-34 7,-44 -2,-10 -8,-18 -17,-24l29 -90 163 53 50 369 52 -160c8,-24 11,-43 8,-56 -3,-13 -8,-20 -17,-23l29 -90 191 62 -29 90c-9,-3 -19,0 -28,9 -9,9 -19,27 -28,56l-145 442 -130 -43 -50 -368 -51 156c-8,24 -11,43 -10,55 2,12 7,20 17,23l-31 93zm594 -174l-55 169c-9,27 -11,47 -6,61 5,14 18,24 38,31 19,6 36,5 48,-3 13,-8 24,-26 32,-52l55 -169c9,-27 10,-47 5,-61 -6,-14 -18,-24 -38,-30 -21,-7 -37,-6 -49,2 -12,8 -23,26 -31,52zm-55 361c-66,-22 -109,-50 -129,-87 -20,-36 -22,-80 -5,-131l67 -206c17,-52 44,-86 81,-102 37,-16 89,-14 154,8 67,22 110,50 129,85 19,35 21,78 4,130l-67 206c-17,51 -43,86 -79,103 -36,18 -88,16 -156,-7zm491 -219l-55 169c-9,27 -11,47 -6,61 5,14 18,24 38,31 19,6 36,5 48,-3 13,-8 24,-26 32,-52l55 -169c9,-27 10,-47 5,-61 -6,-14 -18,-24 -38,-30 -21,-7 -37,-6 -49,2 -12,8 -23,26 -31,52zm-55 361c-66,-22 -109,-50 -129,-87 -20,-36 -22,-80 -5,-131l67 -206c17,-52 44,-86 81,-102 37,-16 89,-14 154,8 67,22 110,50 129,85 19,35 21,78 4,130l-67 206c-17,51 -43,86 -79,103 -36,18 -88,16 -156,-7zm491 -219l-55 169c-9,27 -11,47 -6,61 5,14 18,24 38,31 19,6 36,5 48,-3 13,-8 24,-26 32,-52l55 -169c9,-27 10,-47 5,-61 -6,-14 -18,-24 -38,-30 -21,-7 -37,-6 -49,2 -12,8 -23,26 -31,52zm-55 361c-66,-22 -109,-50 -129,-87 -20,-36 -22,-80 -5,-131l67 -206c17,-52 44,-86 81,-102 37,-16 89,-14 154,8 67,22 110,50 129,85 19,35 21,78 4,130l-67 206c-17,51 -43,86 -79,103 -36,18 -88,16 -156,-7zm460 -532l185 61 -118 293c-7,19 -15,36 -21,49 -7,14 -14,25 -22,33 -8,8 -17,13 -28,14 -11,2 -24,0 -39,-5 -16,-5 -27,-12 -35,-19 -8,-8 -12,-17 -14,-28 -2,-11 -1,-24 2,-39 3,-15 7,-33 12,-52l78 -306zm-108 645c-16,-5 -28,-10 -37,-15 -9,-5 -15,-11 -19,-18 -4,-7 -5,-16 -3,-26 2,-10 5,-23 10,-40 5,-14 9,-26 14,-34 5,-8 10,-14 17,-17 7,-3 15,-4 25,-3 10,1 23,5 38,10 16,5 28,10 37,15 9,5 15,10 19,17 4,7 5,15 4,24 -1,9 -4,21 -9,36 -5,16 -10,29 -15,38 -5,9 -11,16 -18,19 -7,4 -16,5 -26,3 -10,-1 -23,-5 -38,-10z"/>
 </g>
</svg>
