<?xml version="1.0" encoding="UTF-8"?>
<!DOCTYPE svg PUBLIC "-//W3C//DTD SVG 1.1//EN" "http://www.w3.org/Graphics/SVG/1.1/DTD/svg11.dtd">
<!-- Creator: CorelDRAW 2017 -->
<svg xmlns="http://www.w3.org/2000/svg" xml:space="preserve" width="143mm" height="143mm" version="1.1" style="shape-rendering:geometricPrecision; text-rendering:geometricPrecision; image-rendering:optimizeQuality; fill-rule:evenodd; clip-rule:evenodd"
viewBox="0 0 14300 14300"
 xmlns:xlink="http://www.w3.org/1999/xlink">
 <defs>
  <style type="text/css">
   <![CDATA[
    .str0 {stroke:black;stroke-width:20}
    .fil0 {fill:black}
    .fil2 {fill:#CCCCCC}
    .fil1 {fill:red}
   ]]>
  </style>
 </defs>
 <g id="Слой_x0020_1">
  <metadata id="CorelCorpID_0Corel-Layer"/>
  <path class="fil0" d="M8449 7711c13,57 30,197 87,363 56,166 152,358 205,502 53,144 63,240 56,322 -7,82 -31,151 -51,202 -21,51 -38,86 -50,120 -12,34 -19,68 -27,65 -9,-3 -19,-45 -45,-108 -26,-63 -67,-149 -96,-199 -29,-50 -46,-63 -41,-21 5,43 33,142 56,277 24,135 45,306 36,490 -9,183 -46,378 -96,510 -50,132 -111,200 -169,258 -58,58 -113,106 -140,140 -27,34 -27,55 -27,7 0,-48 0,-164 0,-240 0,-75 0,-110 -10,-87 -10,22 -31,101 -68,214 -38,113 -92,260 -156,365 -63,105 -135,169 -200,221 -65,53 -123,95 -178,127 -55,32 -107,54 -141,75 -34,21 -49,39 -60,44 -11,5 -18,-5 -36,-31 -18,-27 -48,-70 -74,-109 -26,-39 -47,-72 -63,-104 -16,-32 -26,-63 -31,-71 -5,-8 -5,6 0,34 5,28 15,69 28,114 12,45 27,94 44,133 17,39 37,69 54,90 18,21 33,32 20,29 -13,-3 -55,-20 -92,-44 -36,-24 -67,-53 -95,-86 -28,-32 -53,-66 -74,-111 -21,-45 -39,-101 -50,-142 -11,-42 -15,-69 -20,-100 -5,-31 -10,-65 -14,-71 -4,-6 -8,15 -6,66 2,51 10,133 22,199 12,67 28,119 47,175 18,56 39,115 59,156 20,42 40,65 60,93 21,28 42,59 55,77 13,18 18,22 -6,11 -24,-12 -78,-39 -123,-72 -45,-33 -81,-71 -114,-120 -33,-49 -63,-108 -84,-168 -21,-60 -34,-122 -48,-180 -14,-58 -30,-113 -40,-176 -11,-63 -17,-135 -20,-157 -3,-21 -4,8 -8,65 -3,57 -9,143 -12,220 -3,77 -3,147 6,211 9,65 27,125 45,175 18,51 37,93 60,126 23,33 50,57 45,61 -5,4 -43,-11 -109,-45 -66,-34 -160,-86 -232,-135 -72,-49 -122,-94 -193,-165 -71,-71 -163,-168 -233,-255 -69,-87 -116,-165 -151,-233 -36,-68 -62,-126 -80,-167 -19,-41 -31,-64 -39,-84 -9,-21 -14,-39 -12,-20 1,19 9,74 22,142 13,68 31,147 49,206 18,59 36,98 54,131 18,33 36,62 38,71 2,10 -12,1 -54,-28 -42,-30 -113,-80 -172,-129 -59,-49 -106,-97 -153,-160 -47,-63 -93,-141 -120,-233 -27,-92 -35,-199 -36,-297 -1,-97 4,-184 9,-258 5,-74 10,-134 17,-187 7,-53 15,-99 20,-132 4,-33 4,-51 -7,-39 -11,13 -33,57 -56,116 -22,58 -45,130 -57,196 -13,66 -16,126 -27,134 -10,9 -27,-34 -68,-114 -41,-80 -106,-196 -155,-304 -49,-108 -81,-207 -105,-302 -24,-95 -39,-186 -45,-282 -6,-96 -3,-197 16,-309 19,-112 53,-235 80,-326 27,-91 45,-149 63,-209 18,-60 35,-122 45,-193 9,-71 11,-151 9,-220 -2,-68 -7,-125 1,-128 8,-3 28,46 64,105 36,59 87,128 126,181 39,54 64,93 87,142 23,49 44,107 70,163 27,56 59,111 116,164 57,53 140,104 223,131 84,27 169,28 239,17 69,-11 122,-35 161,-47 39,-12 62,-12 105,-5 43,7 104,21 193,34 88,14 203,27 313,23 110,-4 217,-27 288,-41 72,-15 110,-21 157,-11 47,10 104,38 192,41 88,3 208,-17 303,-57 95,-40 165,-100 215,-163 50,-62 79,-128 94,-175 15,-47 17,-76 27,-102 9,-26 27,-48 61,-86 34,-39 86,-93 118,-138 33,-45 46,-79 56,-105 10,-27 17,-45 25,-68 8,-23 18,-49 31,8z"/>
  <path class="fil0" d="M8043 7877c9,9 15,66 3,148 -11,82 -39,190 -74,267 -35,77 -78,123 -139,157 -61,34 -140,56 -208,66 -68,9 -127,6 -198,-7 -71,-13 -155,-35 -222,-59 -67,-24 -116,-50 -172,-66 -56,-16 -117,-23 -157,-16 -40,7 -59,27 -74,34 -15,7 -25,0 -60,-5 -35,-5 -95,-9 -163,3 -68,11 -143,37 -216,60 -73,23 -143,44 -223,52 -80,9 -171,5 -250,-22 -79,-27 -146,-79 -199,-138 -53,-59 -92,-126 -112,-187 -20,-62 -20,-118 -13,-169 7,-51 21,-98 28,-106 8,-9 9,21 24,60 15,39 42,89 80,124 38,35 86,56 145,56 60,0 132,-21 212,-50 80,-29 169,-67 250,-96 80,-29 152,-50 212,-53 60,-3 108,10 151,35 44,25 83,61 103,75 20,15 20,8 35,-9 15,-16 46,-42 88,-65 42,-23 95,-44 152,-52 57,-9 119,-5 195,19 76,24 167,68 248,104 81,36 153,63 210,78 56,15 98,16 134,6 36,-10 67,-33 94,-64 27,-32 51,-73 70,-112 19,-39 33,-77 42,-68z"/>
  <path class="fil0" d="M6988 6340c-27,34 -24,80 12,94 36,14 103,-3 203,-26 100,-23 232,-52 337,-65 105,-14 182,-12 252,-1 70,12 133,34 191,63 58,29 110,64 143,86 32,22 44,29 9,-2 -35,-31 -117,-102 -208,-159 -91,-57 -192,-100 -287,-116 -95,-16 -185,-4 -269,9 -84,12 -161,26 -229,43 -68,18 -126,40 -154,74z"/>
  <path class="fil0" d="M6052 6264c60,5 160,15 237,31 77,16 132,37 171,50 39,13 63,18 73,33 10,15 8,40 4,58 -4,18 -9,30 -71,29 -62,-1 -181,-14 -294,-22 -113,-8 -221,-10 -309,-9 -88,2 -158,9 -212,19 -54,10 -94,25 -132,42 -38,17 -75,37 -88,38 -14,1 -5,-16 27,-44 31,-29 85,-69 145,-107 60,-37 125,-71 184,-91 59,-20 111,-25 148,-28 37,-3 58,-5 118,0z"/>
  <path class="fil0" d="M8430 6519c-50,-186 -126,-614 -174,-888 -48,-274 -68,-395 -126,-448 -58,-53 -154,-38 -264,-53 -111,-15 -237,-60 -362,-65 -126,-5 -252,30 -335,68 -83,38 -123,78 -247,96 -123,18 -330,13 -576,-15 -247,-28 -534,-78 -702,-103 -169,-25 -219,-25 -247,23 -28,48 -33,143 -65,335 -33,191 -93,478 -126,697 -33,219 -38,370 -43,511 -5,141 -10,272 -23,289 -13,18 -33,-78 -81,-214 -48,-136 -123,-312 -174,-488 -50,-176 -76,-352 -106,-511 -30,-159 -65,-300 -78,-428 -13,-128 -3,-244 23,-352 25,-108 65,-209 123,-327 58,-118 133,-254 181,-378 48,-123 68,-234 131,-352 63,-118 169,-244 305,-342 136,-98 302,-169 501,-229 199,-60 430,-111 637,-108 206,3 388,58 496,131 108,73 143,164 174,186 30,23 55,-23 91,-58 35,-35 81,-60 161,-68 81,-8 196,3 289,40 93,38 164,103 237,186 73,83 148,184 191,267 43,83 53,148 96,232 43,83 118,184 209,274 91,91 196,171 279,249 83,78 143,154 143,284 0,131 -60,317 -103,473 -43,156 -68,282 -70,413 -3,131 18,267 8,362 -10,96 -50,151 -98,191 -48,40 -103,65 -133,96 -30,30 -35,65 -50,111 -15,45 -40,101 -91,-86z"/>
  <path class="fil1" d="M5235 11281c-441,-168 -874,-406 -1275,-779 -401,-373 -769,-882 -1004,-1367 -235,-484 -338,-945 -379,-1367 -41,-422 -19,-806 60,-1183 78,-376 214,-744 319,-1004 106,-260 181,-411 252,-517 70,-106 135,-165 208,-179 73,-14 154,19 541,379 387,360 1080,1047 1938,1894 858,847 1881,1854 2474,2457 593,604 755,804 820,958 65,154 32,263 -198,406 -230,143 -658,322 -1093,438 -436,116 -880,171 -1326,149 -447,-22 -896,-119 -1337,-287zm2211 -4041c-779,-771 -1483,-1464 -1989,-1970 -506,-506 -815,-825 -966,-1023 -152,-198 -146,-273 -65,-360 81,-87 238,-184 438,-287 200,-103 444,-211 834,-300 390,-89 926,-160 1448,-127 522,32 1031,168 1489,392 457,225 863,539 1210,893 346,355 633,750 834,1188 200,438 314,920 338,1440 24,520 -41,1077 -170,1540 -130,463 -325,831 -452,1018 -127,187 -187,192 -252,173 -65,-19 -135,-62 -598,-509 -463,-447 -1318,-1296 -2097,-2068zm2065 -4344c-387,-244 -744,-401 -1080,-518 -336,-118 -650,-196 -1018,-235 -368,-39 -790,-39 -1226,19 -436,58 -885,175 -1315,349 -430,175 -842,407 -1218,697 -376,290 -717,636 -1004,1026 -287,390 -520,823 -698,1275 -179,452 -303,923 -357,1345 -54,422 -38,796 19,1188 57,392 154,804 306,1207 152,403 357,798 620,1158 263,360 582,685 945,969 363,284 769,528 1287,729 518,202 1149,361 1720,405 571,43 1083,-30 1574,-153 491,-123 962,-296 1406,-548 444,-252 861,-582 1194,-939 333,-357 582,-742 798,-1199 217,-457 401,-988 490,-1505 89,-517 84,-1020 8,-1524 -76,-503 -222,-1007 -438,-1480 -217,-474 -503,-917 -855,-1304 -352,-387 -769,-717 -1156,-961z"/>
  <path class="fil1" d="M10967 3388c9,-46 54,-180 133,-311 79,-131 193,-258 331,-315 137,-57 298,-44 349,12 50,56 -10,154 -94,221 -84,67 -191,103 -275,142 -84,39 -144,82 -207,117 -63,36 -129,64 -175,100 -46,36 -72,79 -62,33z"/>
  <path class="fil1" d="M12601 2863c123,11 265,58 364,127 99,70 156,163 131,225 -25,63 -133,95 -257,37 -124,-58 -265,-206 -390,-258 -125,-52 -234,-8 -261,-8 -27,0 27,-44 107,-77 79,-34 184,-58 307,-46z"/>
  <path class="fil1" d="M11276 2552c48,-69 149,-247 191,-355 42,-108 24,-144 -13,-142 -37,2 -91,41 -127,108 -35,67 -51,162 -62,229 -11,67 -18,107 -24,147 -7,40 -13,82 34,13z"/>
  <path class="fil0 str0" d="M11806 4164c7,-45 -7,-51 -226,-146 -219,-94 -642,-277 -975,-417 -333,-140 -574,-237 -745,-307 -171,-70 -272,-113 -340,-146 -68,-33 -102,-57 -132,11 -30,67 -57,225 4,336 61,111 209,174 370,253 161,79 335,173 423,242 87,68 87,111 68,492 -20,382 -59,1102 -106,1752 -48,650 -104,1228 -125,1549 -21,321 -7,385 32,420 39,35 102,42 160,-389 58,-432 110,-1302 161,-1965 52,-663 103,-1120 150,-1381 46,-262 87,-329 224,-315 137,14 370,110 528,168 159,58 243,79 309,83 65,4 111,-10 149,-60 37,-49 65,-134 72,-179z"/>
  <path class="fil2" d="M11740 4099c34,-13 49,-53 64,-84 15,-31 29,-54 30,-70 1,-16 -11,-25 -268,-134 -257,-109 -758,-319 -1146,-483 -389,-164 -665,-281 -802,-323 -138,-41 -137,-7 -139,23 -2,30 -8,55 -10,81 -2,26 -2,54 193,143 195,89 584,239 940,388 356,149 679,297 866,378 187,81 238,94 272,81z"/>
  <path class="fil2" d="M11538 4296c32,8 49,2 63,-9 14,-11 24,-26 23,-38 -1,-12 -13,-21 -253,-123 -239,-102 -706,-298 -1062,-450 -357,-152 -603,-262 -726,-306 -123,-45 -123,-25 -124,-5 -1,20 -3,41 4,59 7,19 24,35 206,109 182,75 531,207 849,336 318,128 606,251 774,324 168,73 215,95 248,103z"/>
  <path class="fil0 str0" d="M10331 5854c53,10 108,26 126,152 18,125 -2,360 -37,722 -35,362 -86,850 -115,1137 -28,287 -34,371 -40,424 -6,53 -13,74 -53,92 -40,18 -112,32 -168,29 -56,-3 -97,-22 -123,-47 -26,-25 -36,-55 -26,-285 11,-230 42,-661 77,-1063 34,-402 71,-776 95,-967 24,-191 34,-198 50,-202 16,-5 36,-7 72,-6 36,1 88,4 141,14z"/>
  <path class="fil1" d="M9553 2336c-14,-61 -63,-216 -125,-328 -62,-112 -136,-181 -228,-223 -92,-42 -201,-58 -279,-34 -78,24 -123,87 -117,142 6,55 64,101 144,132 79,32 180,49 264,85 84,35 151,88 200,128 49,40 80,67 107,97 26,30 48,63 34,2z"/>
 </g>
</svg>
