<?xml version="1.0" encoding="UTF-8"?>
<!DOCTYPE svg PUBLIC "-//W3C//DTD SVG 1.1//EN" "http://www.w3.org/Graphics/SVG/1.1/DTD/svg11.dtd">
<!-- Creator: CorelDRAW 2017 -->
<svg xmlns="http://www.w3.org/2000/svg" xml:space="preserve" width="143mm" height="143mm" version="1.1" style="shape-rendering:geometricPrecision; text-rendering:geometricPrecision; image-rendering:optimizeQuality; fill-rule:evenodd; clip-rule:evenodd"
viewBox="0 0 14300 14300"
 xmlns:xlink="http://www.w3.org/1999/xlink">
 <defs>
  <style type="text/css">
   <![CDATA[
    .fil8 {fill:black}
    .fil5 {fill:#000066}
    .fil3 {fill:#1A1A1A}
    .fil4 {fill:#4D4D4D}
    .fil1 {fill:#6666FF}
    .fil2 {fill:#94E8FF}
    .fil7 {fill:#999999}
    .fil0 {fill:#EDBF42}
    .fil6 {fill:white}
   ]]>
  </style>
 </defs>
 <g id="Слой_x0020_1">
  <metadata id="CorelCorpID_0Corel-Layer"/>
  <path class="fil0" d="M12070 10485c-975,38 -3003,-5 -4065,21 -1062,27 -1160,123 -1097,231 63,107 286,225 571,375 286,150 634,333 833,579 199,247 247,558 -7,719 -254,161 -812,172 -1655,161 -843,-11 -1972,-43 -2916,-48 -944,-5 -1703,16 -2116,-169 -413,-185 -479,-577 -345,-826 134,-249 468,-357 630,-434 162,-78 152,-126 91,-209 -61,-83 -172,-201 -12,-373 160,-172 592,-397 1275,-504 683,-107 1617,-96 2007,-180 390,-84 237,-265 -56,-415 -293,-151 -725,-272 -975,-413 -251,-141 -320,-301 -254,-451 66,-150 268,-289 667,-376 399,-87 994,-122 1851,-170 857,-48 1975,-110 3057,-125 1082,-15 2127,17 2778,57 651,39 909,86 944,253 35,166 -153,452 -324,600 -171,148 -324,159 -362,261 -38,102 38,295 185,424 146,129 362,193 502,290 139,97 202,225 125,306 -77,80 -293,113 -362,188 -70,75 7,193 -968,231z"/>
  <path class="fil1" d="M10759 4287c-157,101 -381,278 -615,495 -234,217 -478,472 -646,638 -168,166 -261,244 -431,298 -170,54 -418,85 -613,122 -195,37 -338,79 -400,171 -62,92 -43,233 -190,303 -147,71 -461,71 -650,43 -189,-28 -255,-84 -372,-62 -118,22 -288,123 -398,229 -110,106 -160,218 -203,323 -43,104 -77,201 -95,303 -17,102 -17,211 -27,278 -10,68 -29,95 -43,118 -14,23 -21,43 -27,77 -6,35 -10,85 10,118 19,33 62,48 89,66 27,17 39,37 43,91 4,54 0,143 10,211 10,68 33,114 112,155 79,41 215,75 348,91 133,15 265,12 325,-23 60,-35 48,-101 43,-222 -6,-122 -6,-300 54,-487 60,-188 180,-385 375,-537 195,-153 466,-261 698,-292 232,-31 425,15 590,95 164,79 300,191 398,336 99,145 160,323 191,479 31,157 31,292 27,394 -4,102 -12,172 -4,215 8,43 31,58 498,63 467,5 1378,0 2020,-4 642,-4 1015,-6 1181,-135 166,-129 126,-384 -105,-551 -231,-167 -654,-245 -462,-365 192,-119 998,-280 1086,-563 88,-283 -543,-689 -679,-1109 -135,-421 225,-856 257,-1118 32,-262 -265,-349 -663,-385 -398,-36 -897,-21 -1190,-1 -294,19 -383,43 -539,143z"/>
  <path class="fil2" d="M10576 4494c-159,124 -431,375 -661,590 -230,215 -418,394 -474,494 -56,100 20,120 114,142 94,21 206,44 313,51 107,7 210,-2 297,-75 86,-73 156,-211 317,-412 161,-201 412,-465 551,-618 138,-153 164,-196 139,-227 -24,-31 -98,-51 -164,-60 -65,-9 -122,-7 -173,-7 -52,0 -99,-3 -259,122z"/>
  <path class="fil2" d="M11344 4697c-179,187 -478,560 -649,772 -170,213 -211,265 -220,300 -10,35 12,52 344,55 333,3 976,-9 1412,-20 435,-11 663,-22 641,-102 -22,-80 -292,-229 -377,-335 -85,-106 15,-168 115,-215 100,-46 200,-76 274,-129 74,-53 121,-129 161,-203 40,-74 74,-147 45,-197 -29,-49 -119,-76 -372,-90 -252,-15 -666,-19 -902,-21 -236,-2 -294,-2 -473,185z"/>
  <path class="fil3" d="M8058 6938c-47,3 -121,9 -207,40 -86,31 -185,87 -271,147 -86,60 -159,124 -230,214 -71,90 -138,206 -184,328 -45,122 -69,249 -66,387 3,137 32,284 89,419 57,135 142,259 236,358 94,99 196,172 351,221 155,49 362,75 531,60 169,-14 301,-69 421,-145 121,-76 231,-175 307,-267 76,-92 119,-177 158,-281 39,-104 73,-228 77,-366 4,-138 -23,-291 -75,-423 -52,-132 -130,-245 -224,-340 -95,-96 -207,-175 -306,-227 -100,-52 -187,-77 -271,-94 -84,-16 -165,-24 -217,-28 -51,-4 -73,-4 -120,-1z"/>
  <path class="fil4" d="M8410 7265c-58,-14 -134,-28 -217,-29 -83,0 -173,13 -253,38 -80,25 -149,62 -220,120 -71,58 -144,139 -196,220 -53,82 -86,165 -104,259 -18,94 -22,200 -2,305 20,106 65,212 126,300 61,87 140,156 225,207 86,51 178,85 274,103 95,18 193,21 294,4 101,-17 205,-54 289,-106 84,-53 148,-121 199,-204 51,-83 90,-181 114,-275 24,-95 32,-187 21,-280 -12,-94 -43,-189 -88,-273 -45,-83 -103,-154 -159,-210 -57,-57 -112,-99 -159,-127 -47,-28 -86,-40 -143,-54z"/>
  <g id="_2907367351824">
   <path class="fil5" d="M10506 5922c63,-13 148,-56 198,-117 49,-60 63,-138 97,-202 34,-64 88,-114 178,-150 90,-36 216,-57 324,-68 108,-11 199,-11 259,27 60,38 89,113 106,174 17,61 23,107 5,143 -18,36 -60,62 -139,93 -79,31 -196,67 -294,86 -98,19 -177,21 -248,32 -71,11 -132,30 -179,59 -46,29 -77,68 -96,98 -18,30 -24,51 -54,74 -30,23 -84,48 -142,47 -58,-1 -118,-29 -161,-66 -43,-37 -67,-82 -64,-125 3,-43 33,-84 69,-96 36,-12 77,4 141,-9z"/>
   <path class="fil6" d="M6538 6596c41,-32 107,-68 177,-82 70,-14 143,-6 237,15 94,20 210,53 249,83 40,30 4,58 -50,89 -54,32 -128,67 -201,110 -74,42 -149,91 -217,116 -68,25 -130,27 -180,23 -50,-4 -89,-14 -110,-37 -21,-23 -24,-58 -17,-98 7,-40 25,-84 41,-120 16,-37 31,-66 71,-98z"/>
  </g>
  <path class="fil7" d="M8145 7570c-13,5 -19,14 -23,43 -4,29 -6,80 -11,109 -5,29 -12,36 -25,43 -13,7 -31,14 -49,24 -18,11 -37,25 -54,28 -17,2 -34,-7 -58,-19 -25,-12 -57,-26 -78,-33 -21,-8 -29,-9 -37,-4 -8,5 -15,16 -23,28 -8,12 -17,26 -20,36 -2,9 2,14 20,29 19,15 51,39 75,60 23,21 37,39 43,53 6,14 4,25 2,42 -2,17 -5,40 -3,56 1,16 6,25 3,33 -3,8 -15,14 -37,29 -22,15 -55,39 -75,54 -20,15 -27,22 -30,29 -3,7 -1,15 8,28 9,13 25,31 38,39 13,8 24,6 50,-5 26,-11 66,-31 92,-40 25,-9 36,-8 50,-2 14,7 32,19 49,29 17,10 33,18 43,23 10,5 15,8 19,35 4,27 8,77 11,108 3,31 5,42 15,50 9,8 26,11 41,13 15,2 29,2 38,-3 8,-5 12,-15 16,-48 5,-32 11,-86 14,-115 4,-29 5,-32 21,-41 16,-9 46,-24 67,-36 21,-12 32,-21 40,-24 8,-3 14,0 40,13 26,13 74,35 100,46 26,11 32,9 43,-3 11,-12 27,-35 34,-49 6,-14 3,-20 -21,-39 -24,-19 -68,-53 -92,-72 -24,-19 -28,-24 -29,-40 -1,-16 0,-42 0,-63 0,-20 -1,-34 -2,-45 -1,-10 -1,-17 16,-32 17,-15 50,-37 76,-55 25,-18 43,-32 51,-41 8,-8 5,-12 -2,-23 -7,-12 -18,-32 -27,-45 -9,-12 -16,-16 -33,-12 -16,4 -42,16 -67,29 -25,12 -51,24 -67,29 -16,5 -22,3 -34,-4 -12,-7 -29,-20 -46,-30 -17,-10 -32,-17 -44,-23 -12,-6 -19,-10 -23,-24 -4,-14 -5,-39 -6,-68 -1,-30 -3,-65 -10,-85 -7,-19 -20,-23 -36,-23 -17,0 -38,2 -51,7z"/>
  <path class="fil8" d="M3668 2725c-131,77 -233,205 -301,354 -68,148 -102,317 -75,511 27,194 115,415 227,563 112,149 247,226 342,287 95,61 148,105 150,170 2,65 -48,151 -97,240 -49,89 -99,182 -104,345 -5,163 35,396 127,600 92,204 237,378 416,598 179,219 392,483 532,716 140,233 208,436 226,717 18,281 -14,640 -61,947 -48,307 -112,563 -244,829 -132,266 -332,542 -507,741 -175,199 -324,320 -442,413 -118,93 -204,157 -262,209 -59,52 -90,92 -108,182 -18,90 -24,230 -15,357 9,127 32,240 67,335 35,95 83,172 182,211 99,39 248,41 342,19 94,-22 131,-69 144,-131 13,-62 1,-140 -8,-205 -8,-65 -13,-117 -12,-183 1,-67 9,-148 115,-281 106,-133 311,-317 479,-491 168,-173 299,-336 422,-509 122,-173 236,-357 345,-642 109,-285 215,-672 273,-856 58,-184 68,-165 56,62 -13,226 -49,660 -85,1071 -37,411 -74,799 -101,1096 -27,297 -44,502 -42,662 1,159 21,273 72,354 51,81 134,131 250,147 116,16 265,-1 392,-41 127,-40 233,-101 293,-175 60,-73 73,-158 63,-226 -10,-68 -44,-119 -106,-155 -62,-36 -152,-56 -210,-72 -58,-16 -85,-28 -83,-180 1,-151 30,-442 70,-765 40,-323 91,-679 132,-1024 40,-344 69,-677 67,-1035 -2,-358 -37,-741 -87,-1071 -50,-330 -117,-608 -260,-923 -143,-315 -361,-666 -482,-865 -121,-199 -144,-245 -122,-306 22,-61 89,-137 188,-251 99,-114 232,-266 341,-465 110,-199 197,-445 212,-594 15,-149 -44,-201 -93,-238 -49,-37 -89,-58 -152,-68 -63,-10 -149,-8 -227,12 -78,20 -149,58 -303,133 -155,75 -394,188 -527,258 -133,69 -160,95 -190,110 -29,15 -61,20 -83,10 -23,-10 -36,-36 -20,-97 17,-61 64,-156 92,-269 28,-112 35,-241 21,-366 -14,-125 -50,-246 -101,-359 -51,-113 -115,-219 -230,-308 -115,-89 -280,-163 -442,-186 -163,-24 -323,2 -454,79z"/>
  <path class="fil8" d="M5250 4205c6,-43 -15,-104 -45,-159 -30,-55 -69,-104 -117,-130 -47,-25 -103,-27 -170,0 -67,27 -145,83 -201,139 -56,56 -90,113 -107,173 -18,60 -19,124 3,157 22,34 68,37 143,26 75,-11 180,-37 256,-59 76,-22 122,-39 162,-60 39,-21 71,-44 77,-87z"/>
  <path class="fil8" d="M4674 4175c-344,147 -1005,480 -1593,795 -589,315 -1106,611 -1444,832 -338,221 -498,367 -570,532 -71,165 -54,349 -3,476 51,128 136,199 247,187 111,-12 248,-107 491,-284 243,-177 593,-435 950,-732 357,-297 722,-631 1082,-924 360,-293 716,-544 922,-695 206,-151 263,-202 277,-248 14,-46 -14,-87 -359,60z"/>
  <path class="fil5" d="M11697 6463c-47,-42 -99,-85 -126,-128 -28,-43 -31,-87 -15,-118 17,-32 53,-52 69,-62 16,-10 11,-9 -16,-7 -27,2 -76,6 -125,19 -49,13 -98,36 -129,62 -31,26 -43,56 -80,74 -37,18 -100,25 -209,37 -109,11 -264,27 -368,45 -105,18 -158,39 -221,74 -63,35 -134,84 -227,92 -93,9 -208,-23 -283,-48 -75,-25 -111,-43 -134,-88 -23,-45 -33,-117 -51,-195 -18,-78 -44,-161 -93,-202 -49,-40 -121,-37 -149,-33 -28,5 -12,12 11,34 23,22 53,59 54,120 1,60 -27,144 -30,219 -3,75 17,141 67,195 50,54 128,96 181,135 53,39 81,76 53,112 -28,37 -111,73 -173,120 -62,47 -102,105 -138,204 -36,99 -67,240 -89,329 -22,89 -36,126 -25,119 10,-7 45,-58 85,-114 40,-56 85,-117 152,-170 67,-53 156,-98 229,-120 73,-22 131,-20 175,-12 44,8 76,22 122,41 46,19 107,44 180,77 73,33 158,75 256,114 98,39 207,76 286,126 78,51 125,115 148,168 23,53 22,94 22,60 1,-34 4,-143 31,-191 27,-48 77,-34 125,-3 48,30 93,78 168,94 75,16 178,1 214,-6 36,-7 3,-6 -62,-58 -66,-52 -165,-156 -237,-247 -72,-91 -118,-167 -187,-239 -70,-72 -164,-140 -235,-192 -71,-52 -120,-89 -122,-135 -2,-46 44,-102 154,-133 111,-31 287,-38 417,-38 131,0 216,7 288,30 72,23 132,61 207,84 76,24 168,32 245,39 77,7 139,11 174,9 35,-2 44,-11 -13,-27 -57,-16 -179,-39 -264,-63 -85,-24 -133,-50 -178,-84 -45,-34 -87,-76 -134,-118z"/>
  <path class="fil6" d="M11127 5148c81,-124 226,-323 325,-431 99,-108 151,-124 344,-126 192,-2 524,11 730,22 207,11 288,21 287,31 -1,10 -85,20 -270,31 -185,11 -470,24 -637,44 -167,21 -216,49 -272,93 -56,44 -120,103 -200,177 -80,74 -176,163 -249,228 -73,66 -121,108 -138,105 -16,-3 0,-52 81,-176z"/>
  <path class="fil8" d="M4912 3895c72,-76 197,-172 281,-243 84,-70 129,-115 187,-130 58,-16 129,-2 177,30 48,32 72,83 56,131 -17,48 -74,92 -149,152 -75,60 -167,135 -266,197 -99,63 -206,113 -273,119 -67,6 -96,-32 -100,-78 -4,-47 16,-102 88,-177z"/>
  <polygon class="fil8" points="9157,5841 9716,6036 9678,6215 9705,6383 10151,6611 10254,6769 10460,6557 10780,6449 11340,6351 11448,6161 12165,6107 12914,5900 12214,6134 11910,6166 11478,6191 11375,6386 11660,6432 11872,6590 12366,6666 12898,6443 12338,6736 11850,6644 11660,6497 11274,6421 10525,6573 10482,6736 10552,6915 10905,6986 11209,7285 11388,7605 12034,7654 12300,7670 12034,7703 11380,7654 11174,7309 10886,7021 10531,6956 10585,7206 10992,7445 11174,8056 10973,7472 10563,7252 10482,6953 10121,7057 9746,7054 9505,7423 9464,7659 9469,7961 9423,7654 9423,7646 9453,7415 9730,7010 10094,7019 10164,6867 10064,6693 10037,6606 9689,6454 9640,6253 9676,6060 "/>
  <polygon class="fil5" points="10819,4641 10766,4647 10275,4976 10309,5077 9904,5357 9951,5509 9500,5706 9655,5739 9967,5545 9951,5376 10346,5109 10304,4978 10778,4658 "/>
  <path class="fil5" d="M9555 5720l444 -73 89 -105 0 -152c26,-3 49,-6 76,-8l212 -110 39 -238 -9 268 -242 127 -52 -21c0,6 0,12 0,18l0 138 128 -18 0 -57 28 86 -180 8 -89 120 -243 54 -200 -39z"/>
  <path class="fil5" d="M8134 5952c43,-9 116,-24 150,-13 34,11 29,47 48,61 19,14 63,5 124,-15 61,-20 139,-51 212,-81 73,-30 141,-57 158,-53 17,4 -18,41 -90,76 -71,35 -179,68 -212,98 -33,30 9,58 69,78 60,20 138,32 211,56 72,24 138,58 108,78 -30,19 -158,23 -275,21 -118,-2 -226,-9 -309,1 -84,10 -143,36 -158,71 -16,36 12,81 17,115 5,34 -12,57 -62,60 -50,3 -132,-12 -192,-17 -61,-5 -101,0 -127,40 -26,40 -38,115 -78,122 -39,7 -105,-54 -181,-97 -76,-43 -161,-67 -230,-76 -69,-9 -121,-2 -178,-3 -57,-1 -118,-10 -137,-28 -19,-18 3,-46 -26,-61 -30,-15 -111,-17 -178,-15 -66,2 -117,7 -137,6 -20,-1 -9,-7 21,-24 30,-17 78,-45 126,-60 49,-16 98,-20 169,-20 71,0 163,6 241,23 77,17 140,47 229,48 89,2 204,-24 294,-48 90,-24 156,-46 193,-65 37,-19 45,-35 54,-67 9,-32 19,-78 32,-114 13,-35 29,-59 44,-73 15,-14 27,-17 70,-26z"/>
  <path class="fil8" d="M2363 6998c-56,39 -226,179 -384,279 -158,100 -303,160 -427,181 -124,21 -226,3 -339,-63 -113,-67 -238,-182 -307,-289 -69,-107 -82,-204 -73,-158 9,47 40,238 131,380 91,142 242,235 431,238 189,2 415,-87 573,-182 158,-96 247,-198 320,-280 73,-82 131,-144 75,-106z"/>
  <path class="fil8" d="M1735 7902c-58,12 -211,57 -365,53 -154,-3 -310,-54 -417,-139 -107,-84 -164,-202 -197,-284 -32,-82 -39,-129 -27,-74 12,54 43,210 113,338 70,128 179,228 305,269 127,41 271,23 369,-9 98,-32 149,-79 193,-112 44,-33 82,-53 24,-41z"/>
  <path class="fil8" d="M6176 3535c72,-6 172,-8 282,18 110,26 230,79 300,179 70,100 90,247 -13,486 -103,240 -330,573 -423,719 -93,146 -53,103 62,-42 116,-146 307,-394 428,-592 121,-198 172,-344 146,-475 -27,-131 -131,-247 -269,-303 -138,-57 -309,-54 -426,-39 -118,16 -182,44 -192,54 -10,10 34,1 107,-4z"/>
  <path class="fil8" d="M4222 9774c-81,87 -270,324 -486,499 -217,174 -461,285 -651,343 -190,58 -325,62 -361,68 -36,6 29,12 163,-1 134,-13 339,-47 534,-133 195,-87 382,-227 519,-358 137,-131 223,-253 280,-347 57,-93 83,-158 2,-71z"/>
  <path class="fil8" d="M6621 3161c84,-13 211,-24 322,-4 111,20 207,71 265,133 59,62 81,135 79,244 -2,109 -29,253 -29,288 0,34 27,-41 47,-141 20,-100 33,-224 22,-330 -11,-106 -47,-192 -122,-238 -76,-46 -191,-50 -323,-28 -132,22 -281,71 -334,88 -53,17 -11,1 73,-12z"/>
  <path class="fil6" d="M4238 3652c25,40 58,103 103,139 45,37 103,47 152,48 49,1 90,-8 123,-27 34,-19 60,-48 87,-81 27,-34 53,-72 60,-67 7,5 -6,54 -31,117 -24,63 -61,140 -107,193 -46,53 -103,81 -152,83 -48,2 -88,-23 -127,-65 -39,-42 -77,-102 -103,-159 -26,-57 -39,-110 -48,-152 -9,-42 -15,-74 -8,-81 6,-7 24,11 50,52z"/>
 </g>
</svg>
