<?xml version="1.0" encoding="UTF-8"?>
<!DOCTYPE svg PUBLIC "-//W3C//DTD SVG 1.1//EN" "http://www.w3.org/Graphics/SVG/1.1/DTD/svg11.dtd">
<!-- Creator: CorelDRAW 2017 -->
<svg xmlns="http://www.w3.org/2000/svg" xml:space="preserve" width="143mm" height="143mm" version="1.1" style="shape-rendering:geometricPrecision; text-rendering:geometricPrecision; image-rendering:optimizeQuality; fill-rule:evenodd; clip-rule:evenodd"
viewBox="0 0 14300 14300"
 xmlns:xlink="http://www.w3.org/1999/xlink">
 <defs>
  <style type="text/css">
   <![CDATA[
    .str0 {stroke:black;stroke-width:49.9697}
    .fil10 {fill:none;fill-rule:nonzero}
    .fil3 {fill:black}
    .fil7 {fill:black}
    .fil2 {fill:black}
    .fil5 {fill:#4D4D4D}
    .fil1 {fill:#D65036}
    .fil0 {fill:#DE8066}
    .fil4 {fill:#F76B84}
    .fil6 {fill:red}
    .fil9 {fill:black;fill-rule:nonzero}
    .fil8 {fill:white;fill-rule:nonzero}
   ]]>
  </style>
 </defs>
 <g id="Слой_x0020_1">
  <metadata id="CorelCorpID_0Corel-Layer"/>
  <path class="fil0" d="M2432 10475c1353,10 3948,22 6002,29 2055,7 3570,9 4390,38 821,29 947,85 933,181 -14,95 -169,229 -538,335 -369,106 -953,183 -1354,247 -401,63 -619,113 -711,190 -91,78 -56,183 95,282 151,99 419,190 647,303 229,113 419,247 531,381 113,134 148,268 -204,356 -352,88 -1091,130 -1615,155 -524,25 -834,32 -1369,25 -535,-7 -1295,-28 -1928,-74 -633,-46 -1140,-116 -1428,-197 -288,-81 -359,-173 -348,-282 11,-109 102,-236 88,-398 -14,-162 -134,-360 -359,-472 -225,-113 -556,-141 -1133,-180 -577,-39 -1400,-88 -1893,-113 -493,-25 -654,-25 -809,-85 -155,-60 -303,-180 -398,-314 -95,-134 -137,-282 -102,-353 35,-71 148,-63 1501,-54z"/>
  <path class="fil1" d="M797 5929c64,21 135,72 221,199 86,127 188,331 293,617 105,286 214,653 292,942 79,289 127,499 178,605 51,105 104,105 333,96 229,-9 635,-27 942,-32 308,-6 518,1 669,30 151,29 241,80 279,163 38,83 22,198 -19,310 -41,112 -107,220 -162,290 -54,70 -96,101 -199,116 -103,15 -267,15 -613,17 -347,1 -876,3 -1164,-4 -288,-8 -334,-25 -394,-126 -60,-101 -133,-285 -256,-725 -123,-441 -296,-1138 -404,-1577 -109,-439 -153,-618 -172,-729 -19,-111 -12,-153 20,-178 32,-25 90,-34 154,-13z"/>
  <path class="fil1" d="M1849 9278c-67,-2 -121,-4 -165,-8 2,18 5,38 8,59 23,143 72,346 113,589 41,242 74,524 109,663 34,140 70,137 269,136 199,-1 563,-2 764,-4 202,-2 241,-7 267,-24 25,-17 37,-45 96,-302 60,-257 168,-741 226,-999 10,-45 19,-83 26,-115 -62,5 -143,7 -256,8 -6,31 -16,74 -29,134 -41,185 -119,532 -162,716 -43,184 -51,205 -69,216 -18,12 -47,15 -191,17 -144,2 -405,2 -548,3 -143,1 -168,3 -193,-97 -25,-100 -48,-302 -78,-475 -29,-174 -64,-320 -81,-422 -6,-36 -9,-67 -8,-92 -35,-1 -68,-1 -98,-2z"/>
  <path class="fil2" d="M13024 1868c-120,-20 -270,-21 -2253,-32 -1983,-11 -5798,-33 -7775,-39 -1978,-6 -2118,4 -2186,43 -68,39 -64,106 1,149 65,43 191,61 951,70 760,9 2154,9 3914,11 1760,2 3884,8 5129,9 1245,2 1610,1 1837,-1 227,-1 314,-2 405,-21 90,-19 183,-55 185,-92 2,-37 -87,-76 -206,-96z"/>
  <path class="fil1" d="M4789 5515c71,23 149,79 243,219 95,140 207,364 323,678 116,314 235,718 321,1036 86,318 140,549 196,665 56,116 114,116 366,106 252,-10 698,-29 1036,-35 338,-6 570,1 735,33 166,32 265,88 307,179 41,91 24,218 -21,341 -45,123 -118,242 -178,319 -60,77 -106,111 -219,128 -113,17 -293,17 -674,18 -381,1 -963,4 -1280,-5 -317,-9 -368,-28 -433,-139 -66,-111 -146,-313 -281,-797 -135,-485 -325,-1252 -444,-1734 -119,-482 -168,-679 -189,-801 -21,-122 -13,-168 22,-196 35,-28 99,-38 169,-15z"/>
  <path class="fil1" d="M5946 9196c-73,-2 -133,-5 -181,-9 2,20 5,42 9,65 26,157 79,381 124,647 45,267 82,576 119,729 38,153 77,151 296,149 219,-2 618,-2 840,-5 222,-3 265,-8 293,-26 28,-18 40,-50 106,-332 66,-282 185,-815 248,-1098 11,-50 20,-91 28,-127 -68,5 -157,8 -282,9 -7,34 -17,81 -32,147 -45,203 -131,585 -178,787 -47,202 -56,225 -76,238 -20,13 -51,17 -210,19 -159,2 -445,2 -602,4 -157,1 -185,3 -212,-107 -27,-110 -53,-332 -86,-523 -32,-191 -71,-351 -89,-464 -6,-40 -10,-73 -9,-102 -38,-1 -74,-1 -108,-2z"/>
  <path class="fil1" d="M9099 5512c71,23 149,79 243,219 95,140 207,364 323,678 116,314 235,718 321,1036 86,318 140,549 196,665 56,116 114,116 366,106 252,-10 698,-29 1036,-35 338,-6 570,1 735,33 166,32 265,88 307,179 41,91 24,218 -21,341 -45,123 -118,242 -178,319 -60,77 -106,111 -219,128 -113,17 -293,17 -674,18 -381,1 -963,4 -1280,-5 -317,-9 -368,-28 -433,-139 -66,-111 -146,-313 -281,-797 -135,-485 -325,-1252 -444,-1734 -119,-482 -168,-679 -189,-801 -21,-122 -13,-168 22,-196 35,-28 99,-38 169,-15z"/>
  <path class="fil1" d="M10256 9193c-73,-2 -133,-5 -181,-9 2,20 5,42 9,65 26,157 79,381 124,647 45,267 82,576 119,729 38,153 77,151 296,149 219,-2 618,-2 840,-5 222,-3 265,-8 293,-26 28,-18 40,-50 106,-332 66,-282 185,-815 248,-1098 11,-50 20,-91 28,-127 -68,5 -157,8 -282,9 -7,34 -17,81 -32,147 -45,203 -131,585 -178,787 -47,202 -56,225 -76,238 -20,13 -51,17 -210,19 -159,2 -445,2 -602,4 -157,1 -185,3 -212,-107 -27,-110 -53,-332 -86,-523 -32,-191 -71,-351 -89,-464 -6,-40 -10,-73 -9,-102 -38,-1 -74,-1 -108,-2z"/>
  <path class="fil1" d="M6755 4001c112,-8 233,9 345,93 111,84 213,234 268,393 55,159 64,328 16,483 -48,155 -154,296 -252,378 -98,82 -190,105 -220,134 -30,29 1,65 32,186 32,121 64,328 81,538 17,209 18,421 22,630 4,209 12,415 30,525 18,110 48,123 258,132 210,9 601,13 874,84 273,71 429,210 525,444 96,233 132,561 178,917 46,356 102,740 135,944 34,204 45,230 110,262 65,32 182,71 262,119 79,48 121,105 98,161 -22,56 -109,110 -245,154 -136,44 -322,78 -461,72 -139,-6 -230,-53 -285,-151 -55,-98 -75,-247 -110,-478 -35,-231 -86,-542 -125,-823 -39,-280 -67,-529 -200,-660 -133,-130 -372,-141 -649,-155 -277,-13 -591,-29 -836,-35 -245,-6 -422,-4 -561,-248 -139,-244 -242,-735 -279,-1107 -37,-372 -8,-625 24,-792 32,-167 67,-247 103,-328 36,-81 72,-164 123,-227 50,-63 115,-106 159,-145 44,-39 66,-74 74,-117 8,-43 1,-94 -21,-163 -22,-69 -60,-156 -80,-266 -20,-110 -23,-244 -5,-358 18,-113 56,-206 109,-289 53,-83 121,-156 207,-210 85,-54 188,-88 299,-96z"/>
  <path class="fil2" d="M3053 1934c-10,115 -17,305 -17,429 0,123 7,180 35,231 28,51 76,97 131,164 55,67 115,155 158,230 42,75 67,138 75,200 8,62 1,122 -38,163 -39,41 -109,62 -232,71 -123,9 -297,7 -408,-1 -110,-8 -157,-23 -186,-52 -29,-29 -41,-73 -45,-137 -4,-64 1,-147 35,-235 34,-88 97,-180 144,-244 47,-64 79,-99 103,-148 24,-49 41,-112 46,-203 5,-91 -2,-210 -7,-298 -5,-88 -7,-144 -13,-198 -6,-53 -16,-104 -4,-144 12,-41 46,-72 84,-89 38,-17 79,-19 108,-5 29,14 46,43 49,77 2,34 -10,74 -19,189zm-36 875c43,36 104,109 149,175 45,66 76,124 79,168 3,43 -21,72 -75,86 -54,14 -138,14 -212,12 -74,-3 -138,-8 -179,-21 -41,-14 -58,-36 -63,-70 -5,-34 2,-80 28,-136 25,-56 69,-123 102,-166 33,-43 55,-62 78,-72 24,-10 49,-11 92,25z"/>
  <path class="fil2" d="M5828 1966c-10,115 -17,305 -17,429 0,123 7,180 35,231 28,51 76,97 131,164 55,67 115,155 158,230 42,75 67,138 75,200 8,62 1,122 -38,163 -39,41 -109,62 -232,71 -123,9 -297,7 -408,-1 -110,-8 -157,-23 -186,-52 -29,-29 -41,-73 -45,-137 -4,-64 1,-147 35,-235 34,-88 97,-180 144,-244 47,-64 79,-99 103,-148 24,-49 41,-112 46,-203 5,-91 -2,-210 -7,-298 -5,-88 -7,-144 -13,-198 -6,-53 -16,-104 -4,-144 12,-41 46,-72 84,-89 38,-17 79,-19 108,-5 29,14 46,43 49,77 2,34 -10,74 -19,189zm-36 875c43,36 104,109 149,175 45,66 76,124 79,168 3,43 -21,72 -75,86 -54,14 -138,14 -212,12 -74,-3 -138,-8 -179,-21 -41,-14 -58,-36 -63,-70 -5,-34 2,-80 28,-136 25,-56 69,-123 102,-166 33,-43 55,-62 78,-72 24,-10 49,-11 92,25z"/>
  <path class="fil2" d="M7039 1950c-10,115 -17,305 -17,429 0,123 7,180 35,231 28,51 76,97 131,164 55,67 115,155 158,230 42,75 67,138 75,200 8,62 1,122 -38,163 -39,41 -109,62 -232,71 -123,9 -297,7 -408,-1 -110,-8 -157,-23 -186,-52 -29,-29 -41,-73 -45,-137 -4,-64 1,-147 35,-235 34,-88 97,-180 144,-244 47,-64 79,-99 103,-148 24,-49 41,-112 46,-203 5,-91 -2,-210 -7,-298 -5,-88 -7,-144 -13,-198 -6,-53 -16,-104 -4,-144 12,-41 46,-72 84,-89 38,-17 79,-19 108,-5 29,14 46,43 49,77 2,34 -10,74 -19,189zm-36 875c43,36 104,109 149,175 45,66 76,124 79,168 3,43 -21,72 -75,86 -54,14 -138,14 -212,12 -74,-3 -138,-8 -179,-21 -41,-14 -58,-36 -63,-70 -5,-34 2,-80 28,-136 25,-56 69,-123 102,-166 33,-43 55,-62 78,-72 24,-10 49,-11 92,25z"/>
  <path class="fil3" d="M8029 2623c-120,-157 -335,-432 -457,-580 -122,-149 -150,-171 -179,-171 -28,0 -57,22 -4,107 53,86 187,235 335,392 148,157 311,323 380,386 69,63 44,23 -76,-134z"/>
  <path class="fil3" d="M8436 2415c-22,-227 -65,-628 -114,-876 -49,-248 -106,-343 -149,-350 -43,-7 -74,75 -52,231 22,156 96,387 162,621 66,233 123,469 151,561 27,92 25,40 2,-187z"/>
  <path class="fil1" d="M2665 4147c112,-8 233,9 345,93 111,84 213,234 268,393 55,159 64,328 16,483 -48,155 -154,296 -252,378 -98,82 -190,105 -220,134 -30,29 1,65 32,186 32,121 64,328 81,538 17,209 18,421 22,630 4,209 12,415 30,525 18,110 48,123 258,132 210,9 601,13 874,84 273,71 429,210 525,444 96,233 132,561 178,917 46,356 102,740 135,944 34,204 45,230 110,262 65,32 182,71 262,119 79,48 121,105 98,161 -22,56 -109,110 -245,154 -136,44 -322,78 -461,72 -139,-6 -230,-53 -285,-151 -55,-98 -75,-247 -110,-478 -35,-231 -86,-542 -125,-823 -39,-280 -67,-529 -200,-660 -133,-130 -372,-141 -649,-155 -277,-13 -591,-29 -836,-35 -245,-6 -422,-4 -561,-248 -139,-244 -242,-735 -279,-1107 -37,-372 -8,-625 24,-792 32,-167 67,-247 103,-328 36,-81 72,-164 123,-227 50,-63 115,-106 159,-145 44,-39 66,-74 74,-117 8,-43 1,-94 -21,-163 -22,-69 -60,-156 -80,-266 -20,-110 -23,-244 -5,-358 18,-113 56,-206 109,-289 53,-83 121,-156 207,-210 85,-54 188,-88 299,-96z"/>
  <path class="fil1" d="M11028 3938c112,-8 233,9 345,93 111,84 213,234 268,393 55,159 64,328 16,483 -48,155 -154,296 -252,378 -98,82 -190,105 -220,134 -30,29 1,65 32,186 32,121 64,328 81,538 17,209 18,421 22,630 4,209 12,415 30,525 18,110 48,123 258,132 210,9 601,13 874,84 273,71 429,210 525,444 96,233 132,561 178,917 46,356 102,740 135,944 34,204 45,230 110,262 65,32 182,71 262,119 79,48 121,105 98,161 -22,56 -109,110 -245,154 -136,44 -322,78 -461,72 -139,-6 -230,-53 -285,-151 -55,-98 -75,-247 -110,-478 -35,-231 -86,-542 -125,-823 -39,-280 -67,-529 -200,-660 -133,-130 -372,-141 -649,-155 -277,-13 -591,-29 -836,-35 -245,-6 -422,-4 -561,-248 -139,-244 -242,-735 -279,-1107 -37,-372 -8,-625 24,-792 32,-167 67,-247 103,-328 36,-81 72,-164 123,-227 50,-63 115,-106 159,-145 44,-39 66,-74 74,-117 8,-43 1,-94 -21,-163 -22,-69 -60,-156 -80,-266 -20,-110 -23,-244 -5,-358 18,-113 56,-206 109,-289 53,-83 121,-156 207,-210 85,-54 188,-88 299,-96z"/>
  <path class="fil2" d="M9321 3215c110,92 230,242 302,389 72,147 97,291 95,460 -2,169 -30,363 -73,508 -44,146 -104,243 -185,330 -81,87 -184,164 -246,227 -61,63 -81,112 -63,163 18,50 74,102 170,227 96,125 231,325 221,595 -10,270 -166,611 -400,658 -234,47 -546,-200 -686,-433 -139,-233 -106,-451 -70,-619 36,-167 76,-283 91,-387 15,-104 5,-196 -53,-286 -58,-90 -163,-179 -240,-324 -77,-144 -127,-344 -123,-581 4,-237 63,-512 167,-704 104,-192 253,-302 391,-352 138,-50 264,-41 378,-19 113,22 214,56 324,148z"/>
  <path class="fil2" d="M9566 9283c0,256 -45,564 -57,879 -12,316 9,639 15,907 7,268 0,480 -6,665 -6,184 -9,340 -39,469 -29,129 -84,230 -217,277 -133,47 -344,40 -438,2 -94,-38 -70,-108 -15,-180 55,-72 140,-147 187,-214 47,-67 55,-125 56,-231 1,-106 -6,-259 -26,-397 -20,-138 -53,-262 -86,-460 -32,-198 -64,-471 -85,-729 -21,-257 -30,-499 -9,-801 21,-302 73,-665 136,-857 63,-192 137,-214 221,-184 84,30 178,111 247,253 70,143 115,347 115,603z"/>
  <path class="fil4" d="M9522 4345c-50,26 -111,96 -155,178 -44,82 -72,177 -75,238 -3,61 19,88 51,89 32,2 75,-22 121,-78 45,-56 93,-145 125,-219 32,-75 47,-135 35,-175 -12,-40 -52,-59 -102,-33z"/>
  <path class="fil2" d="M9706 4686c117,86 275,270 418,472 143,202 271,422 338,648 67,225 73,456 20,581 -53,125 -166,144 -314,113 -148,-31 -332,-114 -453,-216 -122,-102 -181,-224 -249,-334 -68,-109 -144,-206 -165,-309 -21,-103 13,-213 61,-268 47,-56 107,-57 168,-43 60,15 121,46 197,114 76,68 169,174 184,183 15,9 -47,-78 -133,-200 -86,-122 -196,-280 -268,-393 -72,-113 -106,-182 -112,-243 -6,-61 16,-115 65,-148 49,-32 126,-43 244,43z"/>
  <path class="fil4" d="M8533 4174c42,19 94,52 130,98 36,46 55,104 58,175 3,71 -10,155 -45,221 -35,66 -90,113 -148,125 -58,12 -118,-11 -169,-52 -50,-41 -91,-99 -115,-161 -24,-62 -30,-126 -26,-186 4,-60 18,-115 55,-155 37,-40 96,-65 141,-76 45,-11 77,-7 118,12z"/>
  <path class="fil2" d="M8029 4659c-145,155 -293,488 -401,809 -108,322 -175,633 -165,876 10,243 97,419 198,498 100,80 213,64 338,-28 125,-92 262,-260 346,-394 85,-134 117,-235 156,-343 38,-108 81,-223 70,-327 -11,-104 -77,-198 -139,-237 -62,-39 -120,-22 -173,10 -53,32 -101,80 -153,168 -52,88 -108,217 -119,226 -11,9 22,-103 68,-242 46,-139 103,-306 152,-426 48,-120 88,-194 128,-303 41,-109 83,-253 33,-337 -50,-84 -193,-107 -338,48z"/>
  <path class="fil2" d="M7906 9264c0,256 45,564 57,879 12,316 -9,639 -15,907 -7,268 0,480 6,665 6,184 9,340 39,469 29,129 84,230 217,277 133,47 344,40 438,2 94,-38 70,-108 15,-180 -55,-72 -140,-147 -187,-214 -47,-67 -55,-125 -56,-231 -1,-106 6,-259 26,-397 20,-138 53,-262 86,-461 32,-198 64,-471 85,-729 21,-257 30,-499 9,-801 -21,-302 -73,-665 -136,-857 -63,-192 -137,-214 -221,-184 -84,30 -178,111 -247,253 -70,143 -115,347 -115,603z"/>
  <path class="fil5" d="M9744 6203c41,60 71,112 76,247 4,135 -17,353 -95,506 -77,154 -211,243 -201,366 10,124 164,281 243,579 79,297 83,734 144,1058 60,324 177,534 217,634 40,99 3,86 -255,124 -258,38 -736,126 -1139,101 -403,-25 -730,-164 -953,-266 -223,-103 -342,-169 -425,-220 -83,-51 -129,-86 -108,-132 20,-46 108,-102 173,-230 66,-127 109,-325 190,-587 80,-262 197,-589 334,-784 138,-195 297,-257 321,-367 24,-110 -86,-266 -124,-382 -38,-116 -3,-190 30,-235 32,-45 61,-59 87,-111 26,-52 48,-142 76,-250 28,-109 62,-236 53,-363 -9,-127 -62,-253 -74,-324 -12,-71 17,-85 49,-102 31,-16 65,-34 127,20 61,54 150,178 238,241 88,63 176,64 244,36 69,-28 119,-84 154,-154 35,-70 55,-155 74,-200 19,-45 35,-51 57,-55 22,-5 49,-8 79,-15 30,-6 63,-15 81,20 18,36 22,117 31,197 9,81 24,161 51,236 27,75 65,145 110,214 45,69 96,136 136,196z"/>
  <path class="fil6" d="M9164 4712c-6,-19 -32,-51 -50,-69 -19,-18 -31,-21 -48,-18 -17,3 -39,12 -57,8 -17,-5 -30,-23 -43,-32 -13,-8 -28,-6 -63,-1 -35,5 -90,13 -111,21 -22,9 -10,18 5,31 15,13 34,29 66,46 32,18 76,37 113,48 37,10 66,11 92,9 26,-2 49,-7 68,-12 19,-6 33,-12 27,-31z"/>
  <path class="fil6" d="M9067 4711c-33,-2 -74,-3 -113,-14 -39,-12 -77,-33 -104,-42 -27,-9 -45,-4 -37,16 8,21 40,57 70,90 30,33 56,62 88,68 32,6 71,-11 100,-28 29,-17 49,-34 60,-47 11,-14 14,-25 4,-31 -11,-7 -35,-9 -67,-11z"/>
  <path class="fil7" d="M9085 2960c-57,-4 -121,-46 -207,-72 -86,-26 -194,-36 -305,-26 -112,10 -228,40 -327,89 -100,49 -184,117 -270,209 -86,92 -174,210 -225,346 -51,136 -65,291 -75,394 -9,104 -14,156 -28,191 -14,35 -37,53 -87,46 -49,-7 -124,-39 -158,-70 -34,-31 -26,-60 -33,-28 -7,32 -27,127 -13,195 14,68 62,110 133,143 71,32 164,55 221,59 57,4 77,-12 83,0 6,12 -2,53 -28,76 -26,23 -69,28 -67,46 2,17 50,47 101,50 51,3 107,-19 174,-81 68,-61 148,-161 189,-263 41,-101 44,-204 75,-329 31,-124 91,-270 188,-377 96,-107 228,-177 378,-207 150,-31 317,-22 440,8 123,30 203,83 259,147 56,65 88,142 106,236 18,95 20,208 17,305 -3,97 -12,177 -15,252 -4,75 -3,145 36,195 38,50 114,79 188,75 74,-3 146,-40 183,-65 37,-25 40,-38 31,-36 -9,2 -29,21 -60,26 -31,5 -71,-3 -94,-38 -22,-35 -27,-98 -23,-161 4,-62 17,-125 33,-206 16,-81 36,-181 42,-288 6,-107 -2,-221 -38,-335 -36,-114 -101,-228 -168,-312 -68,-84 -138,-137 -204,-175 -66,-37 -126,-58 -175,-69 -48,-11 -85,-13 -127,3 -43,16 -92,48 -149,44z"/>
  <path class="fil2" d="M4178 9936c-3,-887 -1,-2602 -24,-4041 -23,-1439 -70,-2602 -94,-3380 -24,-778 -24,-1172 -5,-1374 19,-202 58,-212 97,-219 39,-7 79,-10 106,62 27,72 42,218 67,1453 25,1235 59,3557 71,5071 12,1514 1,2219 -4,2633 -4,414 -2,538 -1,615 1,76 2,105 -2,131 -4,26 -13,50 -35,64 -22,15 -58,20 -87,17 -29,-3 -51,-15 -66,-51 -15,-36 -21,-96 -24,-983z"/>
  <path class="fil8" d="M11088 3037c161,85 326,123 499,123 593,0 1073,-481 1073,-1073 0,-593 -481,-1073 -1073,-1073 -593,0 -1073,481 -1073,1073 0,262 93,500 249,687 -262,129 -524,258 -786,387 1112,-124 741,-82 1112,-124z"/>
  <path class="fil9" d="M11073 2604c-28,8 -73,-98 -136,-320 -63,-221 -79,-336 -49,-344 30,-9 128,57 293,198 166,141 224,124 174,-49 -49,-174 -60,-264 -32,-272 28,-8 73,99 136,320 63,221 79,336 49,345 -30,8 -128,-58 -293,-198 -165,-141 -224,-124 -174,49 49,174 60,265 32,273z"/>
  <path id="1" class="fil9" d="M11611 2262c-12,-41 -24,-83 -36,-128 -13,-45 -10,-81 9,-109 19,-28 36,-55 51,-78 16,-24 38,-40 68,-48 30,-8 61,-17 94,-27 33,-9 77,2 131,33 54,31 87,66 98,104 11,38 21,73 29,104 9,31 9,67 1,107 -8,41 -28,76 -58,106 -30,30 -55,48 -76,53 -21,6 -48,14 -82,23 -34,10 -77,-1 -131,-33 -54,-31 -86,-67 -98,-108zm53 -131c9,31 18,62 26,92 9,31 31,58 67,81 36,23 63,32 84,26 21,-6 41,-12 61,-17 20,-6 39,-28 58,-66 18,-38 23,-73 14,-105 -9,-32 -18,-62 -26,-92 -8,-30 -31,-56 -66,-79 -36,-23 -64,-32 -84,-26 -20,6 -40,11 -61,17 -20,6 -40,28 -58,66 -18,38 -23,72 -14,103z"/>
  <path id="2" class="fil9" d="M12232 2106c-17,5 -47,-50 -89,-165 -42,-115 -69,-197 -83,-246 -14,-49 -4,-78 30,-88 34,-10 57,10 71,59 14,49 34,133 59,253 26,119 29,182 12,187zm46 165c-31,9 -51,-2 -60,-33 -9,-31 2,-51 34,-60 31,-9 51,2 60,33 9,31 -2,51 -34,60z"/>
  <path id="3" class="fil10 str0" d="M11073 2604c-28,8 -73,-98 -136,-320 -63,-221 -79,-336 -49,-344 30,-9 128,57 293,198 166,141 224,124 174,-49 -49,-174 -60,-264 -32,-272 28,-8 73,99 136,320 63,221 79,336 49,345 -30,8 -128,-58 -293,-198 -165,-141 -224,-124 -174,49 49,174 60,265 32,273z"/>
  <path id="4" class="fil10 str0" d="M11611 2262c-12,-41 -24,-83 -36,-128 -13,-45 -10,-81 9,-109 19,-28 36,-55 51,-78 16,-24 38,-40 68,-48 30,-8 61,-17 94,-27 33,-9 77,2 131,33 54,31 87,66 98,104 11,38 21,73 29,104 9,31 9,67 1,107 -8,41 -28,76 -58,106 -30,30 -55,48 -76,53 -21,6 -48,14 -82,23 -34,10 -77,-1 -131,-33 -54,-31 -86,-67 -98,-108zm53 -131c9,31 18,62 26,92 9,31 31,58 67,81 36,23 63,32 84,26 21,-6 41,-12 61,-17 20,-6 39,-28 58,-66 18,-38 23,-73 14,-105 -9,-32 -18,-62 -26,-92 -8,-30 -31,-56 -66,-79 -36,-23 -64,-32 -84,-26 -20,6 -40,11 -61,17 -20,6 -40,28 -58,66 -18,38 -23,72 -14,103z"/>
  <path id="5" class="fil10 str0" d="M12232 2106c-17,5 -47,-50 -89,-165 -42,-115 -69,-197 -83,-246 -14,-49 -4,-78 30,-88 34,-10 57,10 71,59 14,49 34,133 59,253 26,119 29,182 12,187zm46 165c-31,9 -51,-2 -60,-33 -9,-31 2,-51 34,-60 31,-9 51,2 60,33 9,31 -2,51 -34,60z"/>
 </g>
</svg>
