<?xml version="1.0" encoding="UTF-8"?>
<!DOCTYPE svg PUBLIC "-//W3C//DTD SVG 1.1//EN" "http://www.w3.org/Graphics/SVG/1.1/DTD/svg11.dtd">
<!-- Creator: CorelDRAW 2017 -->
<svg xmlns="http://www.w3.org/2000/svg" xml:space="preserve" width="143mm" height="143mm" version="1.1" style="shape-rendering:geometricPrecision; text-rendering:geometricPrecision; image-rendering:optimizeQuality; fill-rule:evenodd; clip-rule:evenodd"
viewBox="0 0 14300 14300"
 xmlns:xlink="http://www.w3.org/1999/xlink">
 <defs>
  <style type="text/css">
   <![CDATA[
    .fil4 {fill:black}
    .fil10 {fill:#1A1A1A}
    .fil1 {fill:#4A94CE}
    .fil5 {fill:#7BAD52}
    .fil2 {fill:#94E8FF}
    .fil0 {fill:#A3313C}
    .fil7 {fill:#A5D673}
    .fil6 {fill:#E09B2D}
    .fil3 {fill:#F7B239}
    .fil8 {fill:#FFD663}
    .fil9 {fill:white}
   ]]>
  </style>
 </defs>
 <g id="Слой_x0020_1">
  <metadata id="CorelCorpID_0Corel-Layer"/>
  <path class="fil0" d="M7792 12004c797,-67 1577,-122 2255,-59 678,63 1255,244 1609,427 354,183 484,367 -186,515 -670,148 -2141,259 -3320,277 -1180,19 -2068,-55 -2691,-144 -623,-89 -980,-192 -1161,-308 -181,-116 -186,-244 22,-328 208,-83 628,-121 1244,-179 617,-58 1431,-136 2228,-202z"/>
  <path class="fil1" d="M6277 1150c198,0 455,0 659,0 204,0 355,0 478,55 123,55 218,166 226,257 8,91 -70,161 -123,202 -53,41 -81,54 -84,266 -3,213 20,626 64,1073 45,448 112,931 271,1278 159,347 411,557 651,811 240,254 469,551 609,884 140,332 190,700 215,1332 25,632 25,1528 25,2184 0,656 0,1073 -6,1424 -6,351 -17,636 -45,851 -28,215 -73,359 -148,475 -75,116 -182,202 -341,281 -159,78 -372,148 -626,183 -254,35 -550,35 -964,35 -413,0 -944,0 -1282,0 -338,0 -483,0 -654,-18 -170,-18 -366,-55 -528,-106 -162,-51 -291,-117 -394,-204 -103,-87 -182,-194 -243,-328 -61,-134 -106,-295 -123,-946 -17,-650 -6,-1790 0,-2616 6,-826 6,-1338 34,-1709 28,-372 84,-603 156,-805 73,-202 162,-376 271,-537 109,-161 237,-310 388,-458 151,-149 324,-297 439,-407 115,-109 170,-180 226,-328 56,-149 112,-376 156,-702 45,-326 78,-751 106,-1082 28,-330 50,-566 42,-694 -8,-128 -48,-149 -87,-196 -39,-47 -78,-122 -78,-182 0,-60 39,-105 84,-148 45,-43 95,-84 190,-104 95,-20 235,-20 433,-20z"/>
  <path class="fil2" d="M7122 1184c-6,31 -69,90 -101,258 -32,168 -32,445 -4,930 28,485 84,1179 162,1612 78,434 179,607 369,834 190,227 469,508 670,772 201,264 324,512 402,904 78,392 112,929 129,1730 17,801 17,1866 -17,2502 -34,636 -101,842 -302,974 -201,132 -536,190 -1129,211 -592,21 -1441,4 -1933,-33 -492,-37 -626,-95 -726,-244 -101,-149 -168,-388 -207,-987 -39,-599 -50,-1557 -50,-2337 0,-780 11,-1383 78,-1821 67,-438 190,-710 346,-927 156,-217 346,-378 508,-543 162,-165 296,-334 391,-578 95,-244 151,-562 210,-1022 59,-460 120,-1063 142,-1443 22,-380 6,-537 -24,-636 -30,-99 -73,-141 -72,-163 1,-22 48,-25 162,-26 114,-1 297,-2 443,-2 146,0 256,0 325,0 69,0 98,0 139,1 41,1 94,2 88,33z"/>
  <g id="_2562951362624">
   <path class="fil3" d="M6510 7378c85,0 204,4 335,39 130,35 271,102 377,224 106,122 176,298 217,469 41,171 51,337 107,492 56,155 159,300 280,472 122,173 263,374 352,594 90,220 129,460 127,682 -2,222 -44,426 -113,592 -69,166 -164,292 -326,422 -163,129 -392,262 -643,329 -250,67 -521,69 -777,47 -257,-22 -500,-68 -718,-170 -218,-102 -412,-261 -546,-440 -134,-180 -208,-381 -240,-606 -32,-226 -21,-476 44,-715 65,-240 185,-469 310,-661 125,-192 255,-347 335,-518 79,-171 107,-358 141,-513 33,-155 72,-278 137,-382 65,-104 157,-189 231,-243 74,-55 130,-79 183,-93 53,-14 102,-18 187,-18z"/>
   <path class="fil4" d="M6665 7366c10,-75 11,-214 70,-333 59,-119 175,-218 277,-261 102,-43 190,-31 242,-20 52,11 68,19 70,-19 2,-38 -11,-122 -33,-194 -22,-71 -54,-129 -100,-127 -46,3 -106,66 -189,144 -83,78 -189,169 -260,255 -71,85 -108,165 -136,246 -27,81 -45,164 -54,230 -9,66 -9,115 4,142 12,26 37,30 58,26 21,-4 39,-14 48,-89z"/>
   <path class="fil5" d="M6643 7008c13,-85 14,-253 -40,-429 -54,-176 -161,-361 -299,-504 -138,-143 -307,-243 -487,-344 -180,-101 -370,-203 -473,-270 -103,-66 -119,-96 -124,-59 -5,37 0,141 32,304 32,163 90,385 199,597 109,212 270,415 443,547 174,132 360,194 477,223 116,29 162,26 198,23 36,-2 62,-4 75,-88z"/>
   <path class="fil6" d="M5933 9607c62,-176 129,-335 162,-521 33,-187 33,-402 79,-645 46,-243 137,-514 301,-715 101,-124 230,-221 369,-308 0,0 0,0 0,0 -130,-35 -250,-39 -335,-39 -85,0 -134,4 -187,18 -53,14 -109,39 -183,93 -74,55 -166,139 -231,243 -65,104 -104,227 -137,382 -33,155 -62,342 -141,513 -79,171 -210,326 -335,518 -125,192 -245,421 -310,661 -65,240 -76,490 -44,715 32,226 106,426 240,606 134,180 328,338 546,440 218,102 462,148 718,170 257,22 527,20 777,-47 30,-8 60,-17 89,-27 -43,0 -86,0 -128,-2 -340,-11 -608,-75 -812,-207 -204,-133 -345,-333 -437,-559 -92,-226 -134,-476 -127,-698 7,-222 63,-416 125,-592z"/>
   <path class="fil7" d="M5544 5914c97,72 301,257 478,435 177,178 327,349 409,456 82,107 96,151 77,167 -19,16 -72,4 -159,-25 -87,-28 -209,-72 -330,-154 -122,-82 -243,-202 -329,-329 -86,-127 -137,-261 -168,-351 -31,-91 -41,-138 -52,-183 -11,-45 -21,-87 76,-16z"/>
   <path class="fil8" d="M6961 7650c-38,9 -73,26 -80,64 -7,38 13,98 53,154 40,56 100,107 158,182 58,75 115,175 157,275 41,100 67,199 78,204 11,4 9,-87 1,-199 -7,-113 -19,-246 -60,-365 -41,-118 -113,-221 -169,-272 -57,-51 -100,-51 -138,-42z"/>
   <path class="fil8" d="M7455 8945c80,53 179,161 278,289 98,128 195,276 266,420 71,144 117,283 141,429 24,145 27,296 6,443 -21,147 -67,289 -91,322 -24,33 -27,-44 -24,-132 3,-88 11,-188 1,-319 -10,-131 -38,-293 -83,-439 -44,-145 -104,-273 -175,-385 -71,-111 -154,-205 -234,-275 -80,-70 -157,-115 -211,-165 -54,-50 -85,-104 -94,-144 -9,-40 6,-66 43,-80 37,-14 97,-17 177,36z"/>
   <path class="fil8" d="M7880 11109c-4,32 -24,88 -73,144 -50,56 -130,113 -189,150 -60,36 -100,52 -116,43 -16,-9 -9,-43 38,-91 48,-48 136,-109 196,-160 60,-51 91,-93 113,-109 22,-16 35,-8 31,24z"/>
  </g>
  <path class="fil9" d="M4725 5956c-63,32 -64,118 -66,904 -2,786 -7,2271 -11,3298 -4,1027 -8,1596 7,1882 16,286 51,290 145,312 94,22 247,61 332,67 85,6 102,-22 92,-357 -10,-334 -49,-975 -71,-1962 -22,-987 -29,-2320 -31,-3065 -2,-745 1,-902 -12,-982 -13,-80 -41,-83 -118,-95 -77,-12 -204,-34 -267,-1z"/>
  <path class="fil9" d="M5453 6671c-26,555 -41,1657 -51,2716 -10,1058 -16,2072 1,2577 17,505 57,502 89,502 32,0 57,3 76,-7 19,-9 32,-30 36,-322 5,-291 1,-853 12,-1687 11,-833 37,-1939 53,-2699 16,-760 21,-1175 16,-1391 -5,-216 -21,-233 -45,-243 -24,-10 -56,-14 -90,-12 -34,2 -71,9 -96,564z"/>
  <path class="fil9" d="M7370 1301c-60,18 -156,77 -329,107 -173,30 -425,32 -651,33 -226,1 -427,1 -497,12 -70,11 -10,32 139,62 149,30 387,68 607,82 220,13 423,2 566,-16 143,-18 227,-41 273,-68 46,-27 54,-57 49,-89 -6,-32 -26,-65 -49,-93 -23,-28 -48,-49 -108,-31z"/>
  <path class="fil10" d="M9301 5189c80,-140 295,-436 510,-715 215,-279 429,-540 561,-665 133,-125 184,-112 167,-54 -17,58 -103,162 -260,361 -156,199 -383,494 -553,707 -170,212 -283,342 -366,416 -84,73 -139,90 -58,-50z"/>
  <path class="fil10" d="M9506 5628c167,-79 502,-205 804,-292 302,-86 572,-132 725,-149 153,-16 190,-3 158,24 -31,27 -130,68 -366,140 -236,72 -610,176 -880,252 -270,75 -437,122 -522,130 -85,7 -86,-25 80,-105z"/>
  <path class="fil10" d="M3241 4058c193,124 555,385 754,536 200,151 238,192 245,228 7,37 -18,69 -156,-13 -138,-81 -388,-276 -562,-411 -174,-135 -271,-209 -346,-272 -75,-63 -127,-115 -140,-147 -13,-33 12,-46 205,78z"/>
 </g>
</svg>
