<?xml version="1.0" encoding="UTF-8"?>
<!DOCTYPE svg PUBLIC "-//W3C//DTD SVG 1.1//EN" "http://www.w3.org/Graphics/SVG/1.1/DTD/svg11.dtd">
<!-- Creator: CorelDRAW 2017 -->
<svg xmlns="http://www.w3.org/2000/svg" xml:space="preserve" width="143mm" height="143mm" version="1.1" style="shape-rendering:geometricPrecision; text-rendering:geometricPrecision; image-rendering:optimizeQuality; fill-rule:evenodd; clip-rule:evenodd"
viewBox="0 0 14300 14300"
 xmlns:xlink="http://www.w3.org/1999/xlink">
 <defs>
  <style type="text/css">
   <![CDATA[
    .fil6 {fill:#244509}
    .fil7 {fill:#244509}
    .fil1 {fill:#396912}
    .fil2 {fill:#5B962C}
    .fil3 {fill:#6E2D17}
    .fil5 {fill:#B3B3B3}
    .fil0 {fill:#EDBF42}
    .fil4 {fill:white}
   ]]>
  </style>
 </defs>
 <g id="Слой_x0020_1">
  <metadata id="CorelCorpID_0Corel-Layer"/>
  <path class="fil0" d="M2107 11103c478,-252 1218,-662 1978,-964 759,-303 1537,-499 2273,-578 736,-79 1430,-41 1903,-48 473,-6 725,-57 902,-167 177,-110 278,-281 245,-436 -33,-156 -199,-297 -495,-441 -296,-145 -722,-293 -1082,-437 -360,-144 -655,-285 -888,-440 -233,-155 -403,-326 -467,-502 -64,-176 -22,-357 176,-539 198,-182 551,-365 1005,-479 454,-114 1009,-158 1536,-215 526,-57 1024,-128 1569,-185 545,-57 1138,-101 1390,-105 252,-3 164,35 -183,95 -347,60 -953,142 -1531,240 -578,98 -1129,213 -1592,311 -463,98 -839,180 -1046,278 -207,98 -245,211 -156,322 88,110 303,218 514,287 211,69 420,101 716,183 296,82 680,214 1100,345 419,131 874,260 1277,442 402,181 753,415 1001,675 249,260 396,546 422,809 26,263 -68,503 -390,739 -322,237 -871,470 -1549,625 -678,155 -1486,230 -2154,325 -669,95 -1199,208 -1387,364 -189,156 -36,353 279,476 315,123 794,171 1068,287 274,116 343,299 -2,360 -345,62 -1105,2 -1651,-39 -546,-41 -877,-64 -1223,-21 -346,42 -705,150 -951,156 -246,6 -378,-88 -514,-220 -136,-132 -274,-301 -684,-383 -410,-82 -1091,-77 -1552,-77 -461,0 -700,-5 -836,-90 -136,-85 -167,-250 -139,-349 28,-98 117,-130 269,-193 152,-63 369,-158 847,-410z"/>
  <path class="fil1" d="M5812 9150c-5,-410 -26,-1069 -36,-1559 -10,-490 -9,-813 34,-992 43,-179 129,-214 256,-237 127,-23 295,-35 483,-84 188,-49 395,-136 529,-372 135,-236 197,-621 226,-975 28,-354 22,-676 -27,-860 -49,-184 -140,-229 -248,-198 -109,31 -235,138 -288,332 -53,194 -33,475 -116,659 -83,183 -267,269 -404,303 -137,35 -226,19 -284,-80 -58,-99 -84,-280 -101,-536 -17,-255 -24,-585 -55,-949 -31,-364 -87,-764 -201,-1053 -114,-289 -287,-469 -517,-567 -230,-99 -517,-116 -680,140 -163,256 -201,787 -204,1359 -3,572 30,1186 -26,1505 -56,319 -201,343 -303,291 -102,-52 -162,-180 -206,-401 -44,-221 -72,-534 -108,-807 -36,-273 -81,-504 -163,-634 -82,-130 -201,-159 -294,-61 -93,98 -158,322 -176,655 -17,333 14,775 62,1129 48,353 114,618 239,798 124,180 307,276 474,349 166,73 316,121 415,280 98,158 145,427 174,802 28,376 38,859 33,1233 -5,374 -24,639 8,850 32,210 116,366 279,458 164,92 407,120 622,102 215,-18 401,-81 499,-193 99,-113 110,-275 105,-685z"/>
  <path class="fil1" d="M12162 8014c10,-280 5,-763 34,-1047 29,-284 92,-368 212,-442 120,-75 296,-140 404,-354 108,-214 146,-577 126,-793 -21,-216 -101,-286 -170,-294 -70,-8 -129,46 -174,196 -45,150 -75,398 -148,540 -74,142 -191,180 -259,85 -68,-95 -85,-323 -118,-609 -33,-287 -83,-632 -201,-783 -119,-152 -306,-110 -431,1 -125,110 -188,290 -212,633 -23,343 -7,851 9,1335 17,484 34,945 61,1264 27,318 63,494 133,592 70,98 175,118 293,123 118,5 250,-5 328,-48 79,-43 104,-118 114,-397z"/>
  <path class="fil1" d="M9090 5533c2,-143 0,-351 1,-470 2,-119 7,-148 33,-169 26,-21 72,-35 108,-75 36,-40 63,-105 77,-167 13,-62 13,-120 0,-149 -13,-29 -38,-29 -56,-18 -19,11 -30,32 -40,60 -10,29 -18,66 -30,93 -12,27 -29,45 -50,39 -21,-6 -48,-36 -59,-102 -12,-66 -8,-168 -21,-262 -13,-94 -42,-178 -80,-203 -38,-25 -85,11 -112,89 -28,78 -36,199 -44,321 -8,122 -17,247 -14,360 3,113 18,216 7,267 -11,51 -47,50 -74,34 -27,-16 -45,-49 -54,-84 -9,-35 -9,-74 -29,-108 -20,-34 -60,-64 -85,-44 -25,20 -34,89 -36,138 -1,49 5,76 20,111 15,35 38,78 81,112 43,35 106,62 138,114 32,52 35,129 44,198 9,70 25,132 56,179 30,46 75,77 111,79 36,3 64,-22 82,-73 18,-51 25,-128 27,-270z"/>
  <path class="fil2" d="M5252 9596c44,-381 56,-1184 88,-1948 32,-763 83,-1486 99,-2108 16,-622 -2,-1142 -34,-1661 -32,-520 -78,-1040 -138,-1321 -60,-282 -134,-326 -160,-303 -26,23 -6,113 29,379 34,266 82,707 98,1320 16,613 2,1396 -29,2216 -31,819 -79,1674 -102,2271 -24,597 -24,935 -27,1134 -4,199 -11,260 23,311 34,51 110,92 153,-289z"/>
  <path class="fil2" d="M4677 3074c29,292 51,872 59,1813 7,941 0,2245 -6,3049 -6,805 -10,1111 -5,1345 5,234 21,395 12,478 -9,82 -42,85 -72,45 -29,-40 -55,-123 -84,-449 -29,-326 -62,-894 -69,-1654 -7,-760 11,-1712 13,-2489 2,-777 -13,-1378 -7,-1756 5,-378 31,-531 62,-606 31,-74 68,-69 97,223z"/>
  <path class="fil2" d="M6027 5526c85,-45 257,-101 400,-187 143,-86 256,-201 330,-356 74,-155 109,-348 131,-487 22,-139 31,-223 43,-290 12,-67 27,-116 45,-132 18,-16 40,3 45,65 5,62 -8,168 -26,334 -17,165 -39,390 -81,572 -42,182 -104,321 -195,405 -91,84 -209,113 -314,134 -104,20 -194,31 -268,38 -74,7 -133,11 -163,-4 -30,-15 -32,-48 53,-92z"/>
  <path class="fil2" d="M3255 3590c21,133 45,390 79,638 34,248 78,486 112,665 35,179 60,300 107,391 47,91 114,154 198,198 84,45 185,72 254,89 69,16 108,22 130,37 22,15 27,38 -3,54 -30,16 -96,23 -179,17 -83,-5 -184,-24 -272,-57 -88,-33 -163,-80 -224,-179 -61,-99 -109,-249 -150,-482 -41,-233 -76,-550 -97,-771 -21,-221 -28,-347 -33,-445 -5,-98 -6,-167 -3,-213 4,-46 13,-68 27,-75 14,-7 32,0 53,133z"/>
  <path class="fil3" d="M5693 2935c74,-39 226,-87 291,-99 65,-12 43,10 -24,75 -67,65 -177,171 -236,215 -59,44 -66,25 -73,0 -7,-25 -14,-57 -21,-89 -6,-32 -12,-63 62,-103z"/>
  <path class="fil3" d="M5547 2444c71,-36 181,-166 258,-254 77,-89 122,-138 113,-147 -10,-9 -74,22 -168,61 -95,39 -220,85 -296,112 -76,28 -104,37 -102,59 1,22 32,57 63,103 31,46 63,103 133,66z"/>
  <path class="fil3" d="M4937 1900c5,-91 -18,-261 -34,-371 -16,-110 -24,-158 -36,-156 -13,2 -30,55 -64,150 -34,95 -84,233 -118,320 -34,87 -52,122 -37,139 15,17 61,15 103,16 42,2 78,8 113,5 35,-3 68,-14 74,-104z"/>
  <path class="fil3" d="M4283 2245c-80,-37 -232,-109 -294,-126 -63,-17 -36,21 -7,61 29,40 60,83 99,139 39,56 87,126 118,166 31,40 44,51 59,56 15,5 30,3 47,-20 17,-22 35,-65 49,-103 14,-38 24,-71 28,-91 4,-21 1,-29 -5,-35 -5,-6 -14,-10 -94,-47z"/>
  <path class="fil3" d="M4171 2989c-49,-8 -135,-18 -202,-23 -66,-5 -112,-6 -107,10 5,16 62,50 112,80 50,30 93,56 131,78 38,22 70,40 91,36 21,-4 31,-30 38,-60 6,-30 8,-66 3,-86 -5,-21 -17,-27 -66,-35z"/>
  <path class="fil3" d="M5822 3795c52,-7 137,-18 185,-25 48,-7 60,-11 49,1 -11,12 -45,41 -90,76 -46,35 -103,77 -140,102 -38,26 -56,35 -68,21 -12,-14 -17,-52 -20,-83 -3,-31 -5,-54 4,-68 9,-13 28,-17 80,-24z"/>
  <path class="fil3" d="M7191 3884c0,-76 -21,-232 -36,-329 -15,-96 -23,-133 -32,-129 -8,5 -17,51 -35,124 -18,73 -46,171 -68,239 -22,68 -38,106 -37,126 1,20 20,22 50,25 30,3 72,7 104,11 32,4 54,8 55,-69z"/>
  <path class="fil3" d="M7306 4383c39,-9 120,5 183,15 63,9 109,13 115,21 6,8 -28,20 -77,41 -49,21 -114,49 -157,70 -43,20 -65,33 -77,19 -13,-13 -16,-51 -19,-87 -3,-36 -7,-69 32,-79z"/>
  <path class="fil3" d="M7279 5068c45,-14 125,-7 185,-1 59,6 98,9 98,19 0,10 -38,25 -90,51 -51,26 -115,61 -160,82 -44,21 -69,27 -82,14 -13,-13 -14,-46 -10,-80 4,-34 13,-70 58,-84z"/>
  <path class="fil3" d="M6709 4455c-49,-28 -155,-45 -190,-40 -35,5 0,33 44,75 43,42 95,99 126,113 31,14 42,-15 52,-49 10,-34 18,-71 -31,-99z"/>
  <path class="fil3" d="M3182 3299c-26,-61 -93,-168 -136,-238 -43,-70 -61,-103 -70,-107 -9,-3 -9,23 -7,80 2,57 7,144 13,217 6,73 13,133 18,178 5,44 8,74 23,75 15,2 41,-24 68,-48 27,-23 56,-44 78,-62 22,-19 38,-35 12,-96z"/>
  <path class="fil3" d="M3467 3914c33,-30 112,-63 169,-88 57,-25 92,-43 91,-21 -1,21 -37,80 -74,133 -36,52 -72,98 -96,126 -24,28 -37,40 -51,26 -14,-14 -29,-53 -43,-86 -15,-33 -29,-60 4,-90z"/>
  <path class="fil3" d="M2957 4656c-34,-4 -95,-11 -175,-25 -80,-14 -181,-35 -281,-62 -100,-27 -198,-59 -231,-57 -32,2 1,37 63,85 62,48 151,108 229,160 78,52 144,96 205,137 62,41 119,78 170,103 51,25 95,36 112,2 17,-35 8,-116 4,-176 -5,-60 -5,-98 -11,-122 -7,-24 -21,-33 -32,-37 -11,-5 -19,-5 -53,-8z"/>
  <path class="fil4" d="M2124 4232c102,27 277,70 415,94 139,24 242,30 335,19 93,-11 175,-37 187,-12 11,25 -49,102 -92,207 -43,105 -67,237 -92,396 -25,159 -49,345 -79,551 -30,206 -64,433 -132,573 -67,140 -167,193 -276,211 -109,17 -227,-1 -369,-8 -142,-7 -309,-1 -435,-7 -126,-5 -212,-22 -281,-51 -69,-29 -120,-71 -136,-88 -16,-16 2,-7 50,-21 48,-14 127,-50 206,-107 79,-57 157,-134 226,-258 69,-124 127,-296 173,-505 46,-208 79,-454 98,-620 19,-166 25,-254 29,-312 5,-58 8,-85 25,-93 16,-8 46,3 148,30z"/>
  <path class="fil5" d="M2617 6050c-33,20 -70,30 -119,36 -49,6 -112,10 -154,8 -43,-2 -65,-9 -73,-7 -7,2 1,13 15,33 14,20 33,49 34,75 1,26 -15,49 -46,63 -17,8 -39,13 -54,17 61,3 117,4 171,-5 109,-17 208,-71 276,-211 11,-22 21,-47 30,-73l-2 1c-13,10 -43,42 -77,62z"/>
  <path class="fil3" d="M2613 4643c-33,-9 -89,-16 -143,-26 -54,-10 -107,-24 -141,-39 -35,-16 -52,-33 -53,-28 -2,5 12,32 41,69 29,37 73,84 112,121 39,37 74,66 105,85 31,19 59,28 79,17 20,-11 34,-43 42,-74 8,-32 11,-63 7,-84 -4,-21 -15,-31 -48,-40z"/>
  <path class="fil6" d="M5811 9128c-5,-411 -26,-1055 -36,-1537 -10,-490 -9,-813 34,-992 43,-179 129,-214 256,-237 117,-21 268,-33 437,-72 15,-4 30,-7 46,-11 188,-49 395,-136 529,-372 68,-119 118,-277 154,-449 -42,-1 -87,24 -129,86 -43,62 -83,161 -155,252 -71,91 -174,176 -316,226 -72,26 -155,43 -239,55 -82,12 -165,18 -242,22 -155,9 -283,9 -373,66 -90,57 -141,171 -174,365 -33,194 -48,469 -62,906 -15,437 -29,1037 -48,1428 -6,134 -13,243 -20,335 -13,175 -27,283 -41,368 -20,128 -38,201 -99,270 -60,69 -163,133 -338,164 -40,7 -84,13 -130,16 111,18 230,21 341,12 215,-18 401,-81 499,-193 99,-113 110,-275 105,-685 0,-7 0,-15 0,-22z"/>
  <path class="fil6" d="M4280 6766c-25,-26 -65,-147 -157,-251 -92,-104 -236,-192 -358,-264 -122,-72 -224,-128 -312,-206 -88,-78 -163,-177 -204,-253 -41,-77 -48,-132 -11,-113 37,18 120,110 238,182 118,72 272,125 388,157 116,32 195,43 259,69 64,27 113,69 148,119 35,50 55,109 61,185 6,76 -1,169 -9,251 -8,81 -17,151 -42,125z"/>
  <path class="fil2" d="M11583 8284c-38,-53 -97,-186 -139,-541 -42,-355 -67,-931 -76,-1408 -10,-477 -4,-855 8,-1112 12,-257 30,-395 45,-482 15,-87 26,-125 38,-106 12,18 25,91 28,364 3,272 -2,744 4,1254 7,510 26,1060 56,1405 30,345 70,486 81,570 11,84 -6,110 -44,57z"/>
  <path class="fil2" d="M11737 5000c-22,150 -5,657 -3,1178 2,521 -9,1055 -10,1345 0,290 11,336 29,175 18,-161 44,-530 65,-969 22,-440 40,-951 20,-1310 -21,-360 -80,-568 -101,-418z"/>
  <path class="fil2" d="M12214 6090c45,-27 131,-61 200,-102 69,-41 120,-89 163,-195 42,-106 76,-271 96,-367 20,-96 26,-123 36,-126 10,-3 24,17 21,111 -3,94 -25,263 -68,394 -43,131 -108,224 -173,284 -65,60 -131,86 -178,98 -47,11 -76,7 -98,0 -22,-7 -36,-18 -41,-33 -5,-15 -2,-35 43,-62z"/>
  <path class="fil7" d="M12162 8014c10,-280 5,-763 34,-1047 29,-284 92,-368 212,-442 110,-69 269,-130 377,-306 -99,29 -196,87 -297,127 -111,44 -226,66 -305,129 -79,63 -121,166 -144,355 -23,188 -26,462 -35,683 -9,221 -22,390 -51,501 -29,111 -72,163 -115,206 -43,43 -86,76 -119,102 -3,3 -7,5 -10,8 -28,22 -49,38 -72,54 -24,16 -50,32 -44,62 39,9 82,13 126,15 55,2 113,1 167,-5 62,-7 119,-21 161,-43 79,-43 104,-118 114,-397z"/>
  <path class="fil7" d="M9319 4577c-14,18 -28,36 -43,65 -15,29 -30,69 -51,99 -22,30 -50,50 -82,74 -32,23 -67,50 -84,112 -17,62 -15,160 -15,283 0,123 -2,270 -5,361 -3,91 -8,127 -27,155 -20,28 -54,49 -84,53 -30,4 -56,-10 -81,-23 14,36 28,71 48,92 20,21 47,28 70,30 23,2 43,0 60,-7 17,-7 31,-18 44,-47 13,-29 25,-76 34,-183 9,-107 14,-273 16,-396 2,-123 1,-201 0,-251 -1,-49 -3,-70 19,-94 22,-24 68,-52 98,-81 30,-29 44,-59 55,-89 11,-30 19,-60 23,-86 4,-25 4,-46 4,-67z"/>
 </g>
</svg>
