<?xml version="1.0" encoding="UTF-8"?>
<!DOCTYPE svg PUBLIC "-//W3C//DTD SVG 1.1//EN" "http://www.w3.org/Graphics/SVG/1.1/DTD/svg11.dtd">
<!-- Creator: CorelDRAW 2017 -->
<svg xmlns="http://www.w3.org/2000/svg" xml:space="preserve" width="143mm" height="143mm" version="1.1" style="shape-rendering:geometricPrecision; text-rendering:geometricPrecision; image-rendering:optimizeQuality; fill-rule:evenodd; clip-rule:evenodd"
viewBox="0 0 14300 14300"
 xmlns:xlink="http://www.w3.org/1999/xlink">
 <defs>
  <style type="text/css">
   <![CDATA[
    .fil0 {fill:black}
    .fil1 {fill:#999999}
    .fil4 {fill:#E6E6E6}
    .fil2 {fill:#FFD663}
    .fil3 {fill:#FFFF66}
   ]]>
  </style>
 </defs>
 <g id="Слой_x0020_1">
  <metadata id="CorelCorpID_0Corel-Layer"/>
  <path class="fil0" d="M10134 3472c-56,-22 -127,-25 -1058,-65 -932,-40 -2724,-117 -3654,-151 -929,-34 -996,-27 -1029,11 -33,38 -33,105 -4,149 29,44 88,63 445,83 357,20 1012,40 1839,67 827,28 1826,63 2411,83 585,20 757,24 863,26 107,2 148,2 191,-15 43,-17 88,-52 90,-90 2,-37 -38,-78 -94,-99z"/>
  <path class="fil0" d="M9901 11124c-5,-1048 -5,-3057 7,-4720 12,-1664 37,-2983 62,-3865 24,-882 48,-1328 80,-1555 32,-227 71,-237 111,-242 40,-5 79,-7 102,76 23,83 29,249 3,1655 -26,1406 -83,4052 -116,5800 -33,1748 -43,2598 -51,3109 -8,511 -15,684 -23,784 -8,100 -18,126 -43,143 -25,18 -64,27 -89,-12 -25,-39 -36,-126 -42,-1174z"/>
  <path class="fil0" d="M10289 3471c15,-16 36,-15 351,-10 315,6 925,17 1340,24 416,7 638,11 778,16 141,5 200,10 239,40 39,30 57,83 47,116 -10,33 -48,45 -346,47 -299,2 -858,-5 -1288,-12 -430,-7 -732,-14 -899,-21 -167,-7 -200,-13 -220,-34 -20,-20 -26,-55 -26,-87 1,-33 8,-65 23,-80z"/>
  <path class="fil0" d="M4342 11257c-3,-1008 -1,-2956 -24,-4591 -23,-1635 -70,-2956 -94,-3840 -24,-884 -24,-1331 -5,-1561 19,-229 58,-241 97,-248 39,-8 79,-11 106,70 27,81 42,248 67,1650 25,1403 59,4042 71,5762 12,1720 1,2521 -4,2992 -4,471 -2,612 -1,698 1,87 2,119 -2,149 -4,30 -13,56 -35,73 -22,17 -58,23 -87,20 -29,-3 -51,-17 -66,-58 -15,-41 -21,-109 -24,-1117z"/>
  <path class="fil0" d="M4015 3258c-274,-9 -770,-28 -1273,-38 -504,-9 -1016,-9 -1353,-2 -337,8 -500,24 -573,50 -73,26 -58,62 62,83 119,22 341,30 764,44 423,14 1045,34 1525,50 480,16 817,28 997,22 180,-5 203,-28 214,-64 12,-36 13,-86 -12,-111 -25,-25 -77,-25 -350,-34z"/>
  <path class="fil0" d="M4953 7020c0,-1194 0,-2059 20,-2507 20,-448 60,-480 159,-484 99,-4 258,20 575,89 317,69 793,184 1101,254 307,69 446,93 520,133 73,40 81,95 77,425 -4,329 -20,932 -40,1928 -20,996 -44,2384 -67,3120 -24,736 -48,819 -107,881 -60,62 -155,101 -478,208 -323,107 -875,282 -1206,393 -331,111 -442,159 -498,115 -56,-44 -56,-179 -56,-1008l0 -3547zm2614 3920c-4,-143 12,-405 36,-1238 24,-833 56,-2238 79,-3194 24,-956 40,-1464 52,-1758 12,-294 20,-373 20,-428 0,-56 -8,-87 -548,-223 -540,-136 -1613,-377 -2149,-497 -536,-120 -536,-120 -533,103 3,223 10,670 19,1495 10,825 23,2028 29,3125 6,1098 5,2090 4,2679 -1,589 -2,775 -4,913 -2,138 -4,229 504,90 508,-139 1525,-507 2022,-703 497,-196 473,-220 469,-363z"/>
  <path class="fil0" d="M7474 6129c-30,-26 -99,-32 -543,-86 -444,-53 -1265,-152 -1689,-197 -424,-45 -452,-35 -461,-9 -9,26 0,68 14,93 14,25 32,32 280,60 247,28 723,75 1134,118 410,42 754,79 957,101 202,22 263,28 297,9 34,-19 42,-64 12,-89z"/>
  <path class="fil0" d="M5145 7975c360,-18 1078,-28 1518,-37 439,-9 600,-17 684,-7 84,10 92,38 94,63 2,26 -2,50 -127,67 -125,18 -371,30 -735,43 -364,13 -846,27 -1157,34 -311,7 -452,7 -530,0 -77,-7 -91,-21 -99,-38 -8,-17 -10,-37 -10,-60 0,-23 2,-49 362,-66z"/>
  <path class="fil0" d="M7386 9708c-28,-16 -64,-7 -442,73 -378,80 -1097,232 -1512,326 -414,95 -523,132 -582,170 -59,38 -66,75 -67,106 -1,31 5,55 27,63 22,9 60,3 404,-78 344,-81 995,-238 1394,-337 399,-99 547,-141 646,-169 99,-28 150,-42 166,-69 16,-28 -4,-69 -32,-86z"/>
  <path class="fil0" d="M5807 4757c-22,801 -11,2397 -11,3580 -1,1183 -12,1952 -19,2438 -7,486 -8,688 1,784 10,95 31,83 56,73 25,-10 52,-18 72,-177 20,-159 32,-468 48,-1347 16,-879 36,-2327 42,-3394 6,-1067 -2,-1754 -1,-2145 0,-391 9,-488 1,-543 -8,-56 -33,-70 -72,-74 -40,-4 -94,3 -116,804z"/>
  <path class="fil0" d="M6837 4208c-25,26 -33,61 -48,500 -15,439 -37,1283 -63,2214 -27,931 -58,1950 -76,2693 -18,744 -22,1213 -10,1448 12,235 39,235 61,204 22,-31 37,-92 43,-287 6,-194 3,-522 35,-1655 32,-1134 99,-3074 132,-4072 33,-998 33,-1053 13,-1072 -21,-19 -61,0 -86,26z"/>
  <path class="fil1" d="M9805 8202c-4,33 -5,79 -18,110 -13,31 -37,48 -75,52 -38,4 -90,-5 -117,-24 -27,-19 -30,-49 -30,-82 0,-33 1,-69 6,-94 4,-25 11,-39 42,-46 31,-7 86,-6 117,-7 32,-1 41,-4 52,-1 11,3 24,11 28,25 4,14 -1,35 -5,68z"/>
  <path class="fil0" d="M9901 7689c-160,36 -319,71 -429,114 -110,43 -169,92 -191,157 -22,64 -6,144 48,187 54,44 145,52 267,51 122,-1 275,-11 367,-23 92,-12 123,-28 137,-57 14,-30 11,-74 -49,-92 -59,-18 -174,-10 -256,-14 -81,-4 -129,-20 -146,-44 -17,-24 -3,-56 32,-79 35,-23 91,-38 132,-44 41,-5 66,-1 92,3 -1,-52 -3,-105 -4,-157z"/>
  <path class="fil0" d="M7563 7630c47,-18 144,-34 240,-42 96,-9 191,-11 249,8 57,19 77,57 82,107 5,49 -4,109 -37,156 -34,47 -92,80 -167,108 -75,28 -167,51 -238,65 -71,14 -123,19 -149,0 -26,-19 -28,-64 -19,-93 9,-29 28,-43 79,-64 51,-21 134,-49 176,-84 41,-34 41,-75 19,-93 -22,-18 -66,-12 -107,-7 -41,5 -78,11 -105,10 -27,-1 -45,-8 -56,-21 -11,-13 -14,-33 33,-50z"/>
  <path class="fil1" d="M9529 7974c-29,-34 -76,-87 -136,-117 -60,-30 -132,-37 -192,-17 -60,20 -109,67 -138,132 -29,65 -39,148 -48,219 -9,71 -18,131 -38,169 -20,38 -52,54 -89,62 -37,8 -78,8 -98,-15 -20,-22 -19,-67 -11,-140 8,-72 23,-172 42,-254 19,-82 42,-148 80,-202 38,-55 92,-99 151,-131 59,-33 123,-54 186,-64 62,-10 122,-9 180,0 58,9 113,26 167,68 54,42 107,110 142,164 35,54 52,95 57,124 5,29 -2,45 -30,55 -27,9 -75,11 -107,12 -32,1 -49,1 -63,-7 -14,-7 -26,-22 -55,-57z"/>
  <path class="fil2" d="M9542 8605c-85,-56 -237,-144 -362,-204 -125,-60 -224,-90 -295,-116 -71,-25 -115,-46 -148,-28 -33,18 -57,74 -89,150 -32,77 -72,174 -111,268 -39,94 -77,184 -80,280 -3,96 28,197 103,276 75,79 193,136 300,154 107,18 204,-2 289,-46 85,-44 160,-113 219,-184 59,-71 104,-145 143,-212 39,-67 71,-126 96,-164 25,-39 42,-56 41,-77 -1,-20 -21,-44 -106,-99z"/>
  <path class="fil0" d="M9150 8583c-19,-9 -45,-19 -71,-16 -26,3 -51,20 -68,38 -17,19 -25,39 -27,62 -2,23 2,48 9,64 6,16 15,22 18,29 3,7 -1,14 -12,29 -11,15 -30,37 -53,65 -24,28 -52,62 -72,84 -20,22 -32,33 -33,40 -1,8 9,12 31,22 23,10 59,26 87,38 29,12 50,21 64,19 14,-2 19,-15 25,-48 5,-33 10,-85 15,-122 4,-37 8,-59 16,-68 8,-10 20,-8 37,-9 17,-2 38,-8 56,-22 19,-14 35,-36 46,-58 10,-22 15,-43 15,-59 1,-16 -3,-28 -10,-38 -7,-10 -17,-19 -28,-27 -12,-8 -25,-15 -44,-24z"/>
  <path class="fil3" d="M8753 8561c44,-89 90,-181 137,-273 -2,-1 -4,-1 -5,-2 -71,-25 -115,-46 -148,-28 -33,18 -57,74 -89,150l-111 268c-39,94 -77,184 -80,280 -3,96 28,197 103,276 75,79 193,136 300,154 2,0 4,1 6,1 -33,-10 -65,-23 -95,-38 -65,-33 -115,-75 -148,-107 -33,-32 -49,-55 -59,-82 -10,-27 -14,-58 -9,-100 4,-43 17,-97 51,-181 34,-85 88,-199 147,-319z"/>
  <path class="fil4" d="M8868 8178c9,-74 18,-158 40,-225 22,-67 55,-117 104,-160 49,-43 112,-78 177,-97 65,-19 132,-20 190,-13 57,7 105,23 140,37 35,14 58,28 75,32 18,5 30,1 24,-18 -3,-12 -14,-30 -30,-51 -1,-1 -2,-2 -3,-2 -54,-42 -110,-59 -167,-68 -58,-9 -118,-10 -180,0 -62,10 -127,31 -186,64 -59,33 -113,77 -151,131 -38,55 -61,120 -80,202 -18,77 -32,169 -40,240 21,3 46,12 76,23 4,-30 8,-62 12,-97z"/>
  <path class="fil0" d="M9948 12143c-53,-22 -121,-25 -1010,-65 -889,-40 -2600,-117 -3487,-151 -887,-34 -950,-27 -982,11 -32,38 -32,105 -4,149 28,44 84,63 424,83 341,20 966,40 1756,67 789,28 1743,63 2301,83 559,20 722,24 824,26 102,2 141,2 182,-15 41,-17 84,-52 86,-90 2,-37 -37,-78 -90,-99z"/>
  <path class="fil0" d="M10010 12154c15,-16 36,-15 351,-10 315,6 925,17 1340,24 416,7 638,11 778,16 141,5 200,10 239,40 39,30 57,83 47,116 -10,33 -48,45 -346,47 -299,2 -858,-5 -1288,-12 -430,-7 -732,-14 -899,-21 -167,-7 -200,-13 -220,-34 -20,-20 -26,-55 -26,-87 1,-33 8,-65 23,-80z"/>
  <path class="fil0" d="M4111 12169c-274,-9 -770,-28 -1273,-38 -504,-9 -1016,-9 -1353,-2 -337,8 -500,24 -573,50 -73,26 -58,62 62,83 119,22 341,30 764,44 423,14 1045,34 1525,50 480,16 817,28 997,22 180,-5 203,-28 214,-64 12,-36 13,-86 -12,-111 -25,-25 -77,-25 -350,-34z"/>
 </g>
</svg>
