<?xml version="1.0" encoding="UTF-8"?>
<!DOCTYPE svg PUBLIC "-//W3C//DTD SVG 1.1//EN" "http://www.w3.org/Graphics/SVG/1.1/DTD/svg11.dtd">
<!-- Creator: CorelDRAW 2017 -->
<svg xmlns="http://www.w3.org/2000/svg" xml:space="preserve" width="143mm" height="143mm" version="1.1" style="shape-rendering:geometricPrecision; text-rendering:geometricPrecision; image-rendering:optimizeQuality; fill-rule:evenodd; clip-rule:evenodd"
viewBox="0 0 14300 14300"
 xmlns:xlink="http://www.w3.org/1999/xlink">
 <defs>
  <style type="text/css">
   <![CDATA[
    .str1 {stroke:black;stroke-width:150}
    .str0 {stroke:black;stroke-width:20}
    .fil14 {fill:none;fill-rule:nonzero}
    .fil12 {fill:black}
    .fil0 {fill:#3D9984}
    .fil2 {fill:#4D4D4D}
    .fil9 {fill:#6E402C}
    .fil5 {fill:gray}
    .fil10 {fill:#96573D}
    .fil1 {fill:#999999}
    .fil4 {fill:#B3B3B3}
    .fil11 {fill:#CC9933}
    .fil7 {fill:#CCCCCC}
    .fil8 {fill:#E6E6E6}
    .fil3 {fill:white}
    .fil6 {fill:white}
    .fil13 {fill:black;fill-rule:nonzero}
   ]]>
  </style>
 </defs>
 <g id="Слой_x0020_1">
  <metadata id="CorelCorpID_0Corel-Layer"/>
  <path class="fil0" d="M2113 10745c580,-9 1496,19 3133,45 1637,26 3995,50 5396,83 1401,34 1845,77 2060,144 215,67 200,157 154,242 -46,86 -125,167 -129,269 -4,102 66,225 220,369 154,144 393,309 444,502 51,193 -86,413 -598,495 -512,81 -1399,23 -2327,-8 -928,-32 -1896,-37 -2759,-53 -863,-16 -1620,-42 -2440,-75 -820,-32 -1703,-71 -2223,-135 -520,-65 -678,-156 -640,-249 39,-93 273,-188 185,-235 -89,-47 -502,-47 -830,-107 -328,-60 -572,-180 -760,-305 -188,-125 -321,-256 -304,-404 17,-148 184,-313 389,-418 205,-105 449,-151 1029,-160z"/>
  <g id="_1499522281936">
   <path class="fil1" d="M10023 9800c493,33 1032,85 1418,135 386,50 621,97 749,-37 129,-134 152,-449 187,-670 35,-221 83,-349 38,-428 -45,-79 -183,-111 -392,-155 -209,-44 -489,-102 -1019,-158 -529,-56 -1307,-109 -1981,-134 -674,-25 -1244,-22 -1786,-1 -542,21 -1057,59 -1402,105 -345,46 -520,99 -606,185 -86,86 -83,205 -56,423 27,218 78,536 212,686 134,149 350,130 689,105 339,-25 799,-55 1246,-76 447,-20 880,-31 1320,-29 441,2 889,16 1383,49z"/>
   <path class="fil2" d="M5638 9243c-267,-31 -366,-105 -465,-179 27,218 78,536 212,686 134,149 350,130 689,105 339,-25 799,-55 1246,-76 447,-20 880,-31 1320,-29 441,2 889,16 1383,49 493,33 1032,85 1418,135 386,50 621,97 749,-37 123,-128 150,-420 183,-639 -43,49 -74,89 -127,109 -67,26 -169,22 -280,18 -110,-4 -229,-7 -454,-32 -225,-25 -558,-73 -930,-122 -372,-49 -785,-99 -1426,-97 -641,2 -1512,58 -2164,92 -653,34 -1087,47 -1354,16z"/>
   <path class="fil3" d="M9897 8409c-86,14 -215,49 -343,142 -128,93 -255,245 -325,375 -70,130 -83,240 -72,343 11,103 46,199 71,265 25,66 40,102 15,115 -25,13 -91,2 -189,-11 -98,-12 -230,-25 -434,-33 -205,-8 -482,-10 -738,-2 -256,8 -490,25 -715,36 -225,11 -442,16 -607,10 -165,-7 -279,-25 -382,-44 -103,-19 -195,-39 -217,-54 -22,-15 26,-24 101,-42 74,-18 175,-45 279,-111 104,-66 211,-172 324,-299 114,-127 234,-277 345,-386 111,-109 211,-177 314,-233 103,-56 208,-99 325,-129 117,-30 246,-47 391,-62 144,-15 304,-28 502,-32 198,-4 434,3 661,15 226,12 443,30 594,45 151,15 236,27 294,39 58,12 89,23 100,34 12,11 4,22 -19,25 -23,3 -62,-3 -103,-9 -41,-6 -85,-12 -171,2z"/>
   <path class="fil2" d="M12093 10841c25,-270 85,-768 156,-1235 71,-467 154,-903 252,-1341 98,-437 211,-876 294,-1130 83,-254 136,-322 187,-350 50,-28 98,-16 113,30 15,46 -3,126 -62,322 -59,196 -160,507 -265,909 -105,402 -215,894 -298,1358 -83,464 -139,900 -175,1194 -36,294 -50,445 -67,524 -16,79 -34,85 -58,85 -24,0 -53,-6 -73,-30 -19,-24 -28,-65 -3,-335z"/>
   <path class="fil2" d="M5438 11060c-48,-211 -106,-644 -162,-1061 -56,-417 -112,-818 -153,-1117 -41,-299 -68,-497 -82,-642 -15,-145 -18,-237 -6,-299 12,-62 39,-95 59,-107 21,-12 36,-3 59,99 24,102 56,298 104,672 47,374 110,925 168,1367 58,442 111,774 133,968 22,194 13,251 -10,285 -24,34 -62,46 -110,-165z"/>
   <path class="fil4" d="M9737 8388c-11,10 -140,45 -261,131 -121,86 -234,222 -305,360 -72,138 -103,276 -108,384 -5,107 16,183 31,232 15,49 24,71 1,81 -23,10 -78,7 -193,2 -115,-5 -291,-13 -405,-15 -114,-2 -168,3 -150,-14 18,-17 106,-56 206,-131 99,-75 209,-186 310,-317 101,-131 193,-282 303,-401 110,-118 238,-204 356,-255 118,-51 226,-67 216,-57z"/>
   <path class="fil3" d="M11087 9103c99,3 241,6 353,14 112,8 193,22 258,44 65,22 115,53 159,75 44,22 83,36 125,46 43,10 90,18 137,24 46,6 92,11 109,11 17,0 6,-6 -8,-29 -15,-24 -33,-65 -55,-92 -22,-26 -47,-37 -73,-41 -27,-3 -56,1 -59,0 -3,0 19,-5 35,-11 16,-5 27,-12 43,-47 16,-36 38,-101 60,-190 22,-89 44,-201 81,-277 37,-76 88,-115 102,-159 14,-44 -9,-93 -69,-138 -59,-45 -155,-86 -284,-130 -128,-43 -289,-89 -449,-114 -160,-25 -319,-30 -449,-32 -130,-2 -232,0 -342,20 -110,20 -229,59 -311,105 -83,46 -130,101 -156,162 -27,62 -33,131 -38,201 -5,70 -7,141 -16,191 -9,50 -23,79 -45,106 -22,27 -51,52 -70,75 -19,23 -29,44 -28,59 1,16 13,26 8,29 -5,2 -25,-4 -64,-2 -38,2 -94,11 -131,21 -36,10 -52,21 -33,33 19,13 75,27 130,29 55,2 111,-8 158,-21 47,-12 84,-27 113,-27 29,0 50,14 77,21 27,7 61,8 102,7 41,0 88,-2 134,-1 46,1 89,5 136,9 47,4 97,9 150,13 53,4 110,8 209,11z"/>
   <path class="fil4" d="M11816 8204c33,17 94,43 143,80 49,37 87,83 109,147 23,64 31,146 31,220 0,73 -8,138 -19,207 -11,69 -25,141 -45,189 -20,48 -46,72 -43,72 4,0 38,-24 67,-67 29,-43 55,-105 78,-179 24,-73 46,-158 70,-222 25,-64 52,-108 67,-142 16,-34 20,-58 14,-82 -6,-24 -21,-49 -58,-75 -37,-26 -94,-54 -160,-82 -66,-28 -141,-57 -193,-73 -51,-16 -79,-19 -90,-17 -11,2 -7,8 26,25z"/>
  </g>
  <path class="fil5" d="M7056 1366c-612,245 -1731,714 -2392,987 -662,273 -866,351 -1004,404 -138,53 -208,81 -236,212 -28,131 -14,363 -18,1658 -4,1295 -25,3651 -18,4847 7,1196 42,1231 120,1263 78,32 198,60 655,197 458,137 1253,382 1945,608 691,226 1279,432 1558,517 280,85 251,50 230,-52 -21,-102 -35,-272 -53,-1584 -18,-1312 -39,-3768 -40,-5445 -2,-1677 16,-2577 29,-3079 12,-503 20,-608 27,-679 7,-71 14,-106 -35,-113 -49,-7 -155,14 -767,259z"/>
  <g id="_1499522278320">
   <polygon class="fil6" points="4690,3942 6987,3196 6987,11912 4667,11175 "/>
   <polygon class="fil7" points="6987,3196 7263,3196 7238,11915 6983,11915 "/>
   <polygon class="fil8" points="6515,8456 4973,8400 4968,10840 6525,11313 "/>
   <polygon class="fil8" points="6515,7853 6559,3862 5018,4325 4971,7966 "/>
   <path class="fil9" d="M6647 8252c27,2 67,-2 94,-16 27,-14 41,-36 49,-60 8,-23 8,-47 4,-67 -5,-20 -15,-36 -33,-45 -18,-9 -43,-12 -71,-11 -28,0 -58,3 -79,27 -21,24 -34,70 -36,99 -2,29 6,40 18,51 12,10 27,20 55,22z"/>
   <circle class="fil10" transform="matrix(-0.2415 -0.0534295 -0.0534295 0.2415 6529.96 8150.55)" r="741"/>
   <path class="fil11" d="M6563 7985c-16,-3 -31,-3 -44,0 -13,4 -23,12 -25,25 -2,13 3,32 19,46 16,15 43,25 64,36 21,11 37,22 45,31 8,9 8,16 6,30 -1,14 -4,35 -9,51 -4,16 -10,28 -10,34 -1,6 3,7 10,4 7,-3 18,-10 30,-25 12,-14 24,-35 31,-58 6,-23 6,-48 0,-71 -6,-23 -18,-43 -30,-58 -13,-15 -26,-25 -40,-33 -14,-7 -29,-12 -45,-15z"/>
   <path class="fil9" d="M6465 8253c27,25 67,41 106,48 21,4 41,4 60,2 -40,27 -90,38 -141,26 -99,-22 -161,-120 -139,-218 8,-38 28,-71 55,-95 24,-22 54,-38 86,-45 -13,16 -25,34 -36,52 -2,4 -4,8 -6,11 -18,39 -28,82 -27,119 1,41 15,74 42,99z"/>
   <polygon class="fil7" points="5063,7959 6515,7853 6516,7732 5099,7826 5099,4301 5099,4300 5018,4325 4971,7966 "/>
   <polygon class="fil7" points="5059,10738 5059,8403 4973,8400 4968,10840 5035,10860 6525,11313 6524,11228 "/>
  </g>
  <path class="fil2" d="M7917 1113c83,-12 246,8 327,32 81,24 81,53 62,1566 -19,1513 -55,4512 -68,6332 -13,1820 -3,2463 -19,2783 -16,321 -58,320 -148,312 -90,-8 -227,-24 -287,-103 -61,-79 -45,-222 -32,-1409 13,-1187 23,-3419 31,-4974 7,-1556 12,-2435 16,-3003 4,-569 6,-827 11,-1014 5,-187 11,-304 16,-384 5,-81 9,-126 92,-138z"/>
  <path class="fil12 str0" d="M2911 4244c-121,45 -235,138 -307,264 -73,125 -104,282 -100,426 4,143 45,272 108,366 63,94 148,153 197,211 48,58 59,116 32,169 -26,53 -89,102 -151,145 -62,43 -122,79 -171,106 -49,26 -87,42 -135,39 -48,-3 -106,-26 -198,-60 -92,-35 -218,-82 -260,-135 -42,-53 -2,-111 40,-174 42,-63 85,-129 146,-197 61,-67 139,-136 200,-185 60,-49 102,-80 97,-153 -5,-73 -58,-188 -122,-221 -64,-33 -138,18 -220,91 -82,73 -171,170 -241,260 -70,91 -122,176 -161,263 -39,87 -66,176 -70,265 -4,90 13,180 79,281 66,101 180,211 312,302 132,91 282,162 364,219 82,58 95,102 119,179 24,77 58,187 56,505 -2,317 -40,841 -45,1331 -5,490 22,946 37,1332 15,386 18,703 1,886 -17,183 -56,233 -98,274 -42,41 -88,73 -117,121 -29,48 -42,113 -30,165 12,52 49,92 116,111 67,18 166,15 270,-3 104,-18 214,-51 276,-165 62,-114 75,-309 85,-612 10,-302 16,-711 25,-1050 9,-339 20,-607 35,-762 15,-155 34,-196 55,-80 20,117 42,391 53,808 11,417 12,976 18,1306 5,330 14,431 48,496 33,65 91,95 188,110 98,15 235,14 328,-1 93,-15 142,-44 159,-93 17,-49 3,-119 -33,-166 -36,-47 -93,-73 -129,-147 -36,-75 -51,-199 -61,-419 -10,-220 -14,-535 -4,-931 9,-395 32,-871 24,-1315 -8,-445 -46,-859 -55,-1130 -10,-272 9,-401 40,-421 31,-20 76,68 116,248 40,180 75,452 84,698 10,247 -6,468 -4,612 2,144 22,210 51,245 29,35 67,38 108,12 41,-26 85,-82 117,-213 32,-131 52,-338 55,-600 2,-262 -14,-580 -59,-843 -45,-263 -120,-471 -180,-642 -60,-171 -104,-305 -166,-394 -62,-89 -143,-134 -216,-177 -73,-43 -139,-83 -167,-125 -28,-42 -17,-86 32,-148 49,-62 135,-143 185,-257 50,-114 64,-262 47,-409 -16,-147 -63,-292 -139,-401 -76,-109 -180,-183 -296,-221 -116,-38 -244,-41 -365,4z"/>
  <path class="fil13" d="M2350 3195c-49,19 -76,23 -80,13 -4,-10 -7,-18 -9,-23 -2,-5 -9,-23 -20,-53 -12,-30 -18,-58 -18,-83 0,-25 0,-47 0,-66 0,-19 3,-39 11,-62 8,-22 14,-41 20,-58 6,-16 26,-58 61,-125 35,-68 55,-118 61,-152 5,-34 5,-59 -2,-76 -7,-17 -15,-40 -27,-70 -12,-30 -49,-58 -114,-86 -64,-28 -113,-35 -147,-22 -34,13 -67,26 -100,38 -33,13 -63,48 -91,106 -28,58 -37,110 -27,156 10,46 -13,76 -68,90 -55,14 -90,-9 -106,-71 -15,-61 0,-136 47,-226 47,-89 99,-145 157,-167 58,-22 117,-45 179,-69 61,-23 141,-16 240,23 99,38 157,82 175,129 18,47 33,85 43,112 10,28 12,69 4,125 -8,56 -24,108 -49,155 -25,47 -45,87 -62,119 -17,32 -28,61 -36,88 -8,27 -9,56 -6,86 3,30 10,61 21,92 11,31 -8,56 -57,75zm123 307c-58,22 -99,4 -121,-54 -23,-58 -5,-99 54,-121 58,-22 99,-4 121,54 23,58 4,99 -54,121z"/>
  <path id="1" class="fil14 str1" d="M2350 3195c-49,19 -76,23 -80,13 -4,-10 -7,-18 -9,-23 -2,-5 -9,-23 -20,-53 -12,-30 -18,-58 -18,-83 0,-25 0,-47 0,-66 0,-19 3,-39 11,-62 8,-22 14,-41 20,-58 6,-16 26,-58 61,-125 35,-68 55,-118 61,-152 5,-34 5,-59 -2,-76 -7,-17 -15,-40 -27,-70 -12,-30 -49,-58 -114,-86 -64,-28 -113,-35 -147,-22 -34,13 -67,26 -100,38 -33,13 -63,48 -91,106 -28,58 -37,110 -27,156 10,46 -13,76 -68,90 -55,14 -90,-9 -106,-71 -15,-61 0,-136 47,-226 47,-89 99,-145 157,-167 58,-22 117,-45 179,-69 61,-23 141,-16 240,23 99,38 157,82 175,129 18,47 33,85 43,112 10,28 12,69 4,125 -8,56 -24,108 -49,155 -25,47 -45,87 -62,119 -17,32 -28,61 -36,88 -8,27 -9,56 -6,86 3,30 10,61 21,92 11,31 -8,56 -57,75zm123 307c-58,22 -99,4 -121,-54 -23,-58 -5,-99 54,-121 58,-22 99,-4 121,54 23,58 4,99 -54,121z"/>
  <path class="fil12" d="M2591 4668c-67,1 -176,32 -295,95 -118,63 -245,156 -352,269 -107,113 -193,244 -256,356 -63,112 -102,203 -114,310 -12,106 2,227 76,344 74,117 207,229 358,309 151,80 320,128 408,189 88,61 96,136 102,202 6,65 10,121 42,163 32,42 92,71 142,3 50,-69 92,-236 96,-381 4,-146 -29,-270 -106,-358 -77,-88 -196,-139 -299,-180 -103,-40 -188,-70 -258,-108 -70,-38 -124,-84 -145,-141 -21,-57 -8,-123 32,-201 40,-78 107,-166 186,-240 79,-73 170,-132 246,-190 76,-59 138,-118 178,-169 40,-51 58,-94 67,-129 9,-35 10,-61 -3,-88 -13,-27 -38,-56 -106,-55z"/>
  <path class="fil3" d="M3200 5143c-16,23 -35,56 -42,101 -8,44 -5,100 7,136 12,36 33,51 65,52 32,0 75,-14 107,-50 32,-36 53,-92 60,-138 7,-46 0,-82 -15,-109 -16,-27 -40,-45 -64,-51 -24,-6 -48,1 -67,12 -19,10 -33,24 -50,48z"/>
  <path class="fil12" d="M1953 3659c-102,-63 -337,-196 -494,-274 -157,-78 -237,-100 -270,-94 -33,6 -20,41 69,93 90,52 256,120 391,177 135,56 238,100 306,126 67,26 99,35 -2,-28z"/>
  <path class="fil12" d="M1819 3958c-62,-17 -293,-52 -438,-66 -145,-14 -203,-7 -220,10 -16,17 10,44 102,57 92,13 249,13 380,13 132,0 238,2 176,-15z"/>
  <path class="fil12" d="M3272 3360c29,-111 115,-376 177,-515 62,-139 99,-152 105,-121 6,31 -19,105 -67,223 -48,118 -119,279 -169,381 -49,102 -76,144 -47,33z"/>
  <path class="fil12" d="M10288 4271c128,-51 263,-51 389,-27 126,24 243,71 333,139 90,68 154,156 197,267 43,111 65,246 47,398 -18,152 -78,323 -155,439 -78,117 -173,179 -217,244 -44,64 -35,130 -8,190 26,60 70,113 126,247 56,135 124,351 152,565 28,214 16,425 5,724 -11,299 -21,686 -23,1136 -2,450 3,963 15,1403 12,440 31,806 54,1002 23,196 49,222 95,256 46,34 111,75 179,113 68,38 140,72 178,147 38,75 43,191 -5,255 -47,64 -146,76 -291,78 -145,2 -336,-7 -460,-45 -124,-38 -181,-106 -221,-426 -40,-320 -64,-891 -87,-1305 -23,-415 -45,-674 -68,-858 -22,-184 -45,-292 -68,-315 -22,-23 -45,39 -63,361 -18,323 -32,907 -49,1364 -17,457 -36,787 -53,964 -17,177 -31,201 -105,224 -73,23 -205,44 -351,39 -145,-5 -304,-36 -397,-84 -92,-47 -119,-110 -112,-172 7,-62 46,-124 104,-169 58,-45 135,-75 198,-110 63,-35 113,-75 137,-209 25,-134 24,-360 25,-661 1,-300 2,-675 7,-1078 4,-403 11,-835 22,-1200 11,-366 25,-665 38,-896 13,-231 23,-394 38,-572 15,-178 33,-372 69,-496 36,-124 89,-178 132,-233 43,-54 75,-109 87,-164 12,-55 3,-111 -43,-173 -46,-62 -128,-129 -184,-240 -57,-110 -88,-264 -89,-416 -2,-153 26,-304 100,-431 74,-126 194,-228 322,-278z"/>
  <path class="fil3" d="M10246 5225c30,36 68,91 120,124 53,32 120,42 177,43 57,1 105,-7 144,-24 39,-17 70,-42 101,-72 31,-30 62,-64 70,-60 8,5 -7,48 -36,104 -29,56 -71,124 -125,171 -54,47 -121,72 -177,73 -56,2 -103,-20 -148,-57 -45,-37 -90,-91 -120,-141 -30,-50 -45,-97 -56,-135 -11,-38 -17,-66 -9,-72 7,-6 28,10 58,46z"/>
  <path class="fil3" d="M2836 5643c-12,9 -29,30 -45,50 -15,20 -29,38 -23,52 6,14 30,24 49,44 18,20 30,49 38,86 7,36 10,79 14,118 3,39 7,73 15,81 8,8 20,-9 47,-41 27,-32 70,-77 107,-110 37,-33 68,-54 87,-65 18,-11 24,-13 36,-3 12,9 30,30 61,64 31,35 74,83 103,117 29,34 43,53 54,53 10,1 17,-17 29,-60 13,-43 32,-110 48,-160 17,-50 31,-81 44,-102 13,-21 26,-32 26,-42 0,-10 -11,-20 -25,-35 -14,-15 -30,-36 -39,-48 -10,-12 -14,-15 -21,-12 -8,3 -20,12 -59,40 -39,28 -105,74 -149,99 -44,24 -65,26 -93,25 -28,-1 -61,-5 -93,-19 -32,-13 -61,-35 -82,-51 -21,-16 -32,-25 -48,-38 -16,-13 -37,-30 -50,-40 -13,-10 -20,-14 -31,-5z"/>
  <path class="fil12" d="M2476 4628c-33,-22 -84,-65 -120,-104 -36,-39 -55,-74 -61,-94 -6,-20 3,-25 25,-76 22,-51 58,-147 80,-211 21,-64 28,-97 34,-116 5,-19 9,-24 20,-28 11,-4 29,-7 99,-32 69,-25 190,-72 288,-114 98,-42 175,-80 216,-104 42,-24 49,-33 58,-35 9,-2 20,2 91,39 71,37 203,107 295,155 92,49 145,76 181,93 37,17 58,25 71,30 14,5 20,8 24,16 4,8 7,20 20,70 13,50 37,138 60,199 23,61 47,95 61,115 14,20 20,25 20,32 0,7 -4,16 -40,50 -35,34 -101,91 -137,125 -37,33 -44,43 -57,36 -13,-7 -32,-29 -69,-60 -36,-31 -89,-70 -170,-100 -80,-30 -188,-51 -305,-57 -117,-6 -244,4 -341,25 -96,21 -161,54 -204,84 -42,30 -62,56 -79,70 -17,13 -30,13 -62,-8z"/>
  <path class="fil3" d="M2535 4650c29,-11 69,-47 152,-77 83,-30 209,-55 309,-69 99,-14 171,-16 254,-7 82,9 174,29 244,55 70,26 118,59 147,85 29,27 40,47 51,54 12,6 25,-2 34,-14 9,-13 14,-30 6,-57 -7,-26 -27,-62 -66,-98 -39,-36 -98,-72 -180,-102 -82,-29 -188,-51 -283,-61 -95,-9 -179,-6 -274,10 -95,16 -202,46 -268,73 -67,27 -93,51 -115,76 -21,25 -37,50 -49,70 -12,20 -19,34 -14,48 5,13 23,26 52,15z"/>
  <path class="fil3" d="M2986 3925c5,-3 17,6 35,7 18,1 41,-5 59,-16 17,-11 28,-28 34,-40 6,-12 8,-20 13,-16 5,4 14,20 25,32 11,12 24,21 37,27 12,6 24,8 34,7 10,-1 20,-5 26,-7 6,-3 9,-5 9,7 0,12 -2,39 -6,68 -4,29 -11,62 -22,90 -11,28 -27,53 -42,70 -16,17 -31,25 -47,30 -16,5 -31,5 -48,-1 -17,-6 -36,-20 -52,-43 -16,-23 -29,-55 -38,-88 -8,-32 -12,-65 -16,-88 -3,-23 -6,-37 -1,-39z"/>
  <path class="fil12" d="M9477 5470c23,76 39,226 23,303 -16,76 -64,78 -86,100 -22,22 -17,63 -13,144 3,81 5,201 6,302 1,101 1,184 38,192 37,8 111,-59 209,-145 97,-86 218,-190 300,-264 82,-74 124,-117 167,-160 36,109 72,218 93,333 21,115 26,237 9,297 -17,60 -56,58 -144,113 -88,55 -226,166 -356,261 -131,95 -254,175 -348,175 -94,0 -160,-79 -208,-160 -48,-80 -79,-161 -94,-248 -15,-86 -14,-178 -17,-312 -3,-134 -11,-309 -14,-484 -3,-175 -1,-350 59,-437 60,-87 178,-86 252,-86 74,0 104,1 127,76z"/>
  <path class="fil12" d="M9039 5696c-2,-33 -7,-91 -16,-143 -9,-52 -24,-99 -41,-134 -18,-35 -39,-59 -57,-75 -18,-15 -33,-22 -43,-30 -10,-8 -15,-17 -13,-27 3,-11 13,-23 31,-31 18,-8 42,-11 72,-5 30,7 64,23 92,49 28,25 49,59 67,93 18,34 32,70 39,107 7,37 8,76 3,111 -6,35 -18,67 -33,92 -15,25 -33,42 -44,53 -11,11 -17,15 -25,13 -8,-2 -19,-11 -24,-20 -5,-9 -5,-19 -7,-52z"/>
  <path class="fil12" d="M11519 5464c-23,76 -39,226 -23,303 16,76 64,78 86,100 22,22 17,63 13,144 -3,81 -5,201 -6,302 -1,101 -1,184 -38,192 -37,8 -111,-59 -209,-145 -97,-86 -218,-190 -300,-266 -82,-76 -126,-124 -169,-171 -35,113 -70,227 -90,344 -20,118 -25,239 -9,299 17,60 56,58 144,113 88,55 226,166 356,261 131,95 254,175 348,175 94,0 160,-79 208,-160 48,-80 79,-161 94,-248 15,-86 14,-178 17,-312 3,-134 11,-309 14,-484 3,-175 1,-350 -59,-437 -60,-87 -178,-86 -252,-86 -74,0 -104,1 -127,76z"/>
  <path class="fil12" d="M11958 5691c2,-33 7,-91 16,-143 9,-52 24,-99 41,-134 18,-35 39,-59 57,-75 18,-15 33,-22 43,-30 10,-8 15,-17 13,-27 -3,-11 -13,-23 -31,-31 -18,-8 -42,-11 -72,-5 -30,7 -64,23 -92,49 -28,25 -49,59 -67,93 -18,34 -32,70 -39,107 -7,37 -8,76 -3,111 6,35 18,67 33,92 15,25 33,42 44,53 11,11 17,15 25,13 8,-2 19,-11 24,-20 5,-9 5,-19 7,-52z"/>
 </g>
</svg>
