<?xml version="1.0" encoding="UTF-8"?>
<!DOCTYPE svg PUBLIC "-//W3C//DTD SVG 1.1//EN" "http://www.w3.org/Graphics/SVG/1.1/DTD/svg11.dtd">
<!-- Creator: CorelDRAW 2017 -->
<svg xmlns="http://www.w3.org/2000/svg" xml:space="preserve" width="143mm" height="103mm" version="1.1" style="shape-rendering:geometricPrecision; text-rendering:geometricPrecision; image-rendering:optimizeQuality; fill-rule:evenodd; clip-rule:evenodd"
viewBox="0 0 14300 10300"
 xmlns:xlink="http://www.w3.org/1999/xlink">
 <defs>
  <style type="text/css">
   <![CDATA[
    .fil2 {fill:black}
    .fil4 {fill:#4D4D4D}
    .fil0 {fill:#786072}
    .fil1 {fill:#999999}
    .fil5 {fill:#B3B3B3}
    .fil3 {fill:white}
   ]]>
  </style>
 </defs>
 <g id="Слой_x0020_1">
  <metadata id="CorelCorpID_0Corel-Layer"/>
  <path class="fil0" d="M11390 5954c294,193 651,437 1002,689 351,252 695,512 938,713 243,201 386,344 373,503 -13,159 -180,335 -1346,436 -1166,101 -3329,126 -5112,126 -1782,0 -3183,-25 -4088,-132 -906,-107 -1317,-296 -1681,-598 -364,-303 -681,-720 -798,-1041 -117,-321 -35,-545 122,-707 157,-162 390,-261 1148,-344 758,-83 2043,-150 3327,-180 1284,-30 2569,-25 3462,-9 894,16 1397,42 1763,126 366,84 595,226 889,419z"/>
  <path class="fil1" d="M7979 5791c698,47 1459,120 2005,190 546,70 877,137 1060,-52 182,-189 215,-635 265,-948 50,-313 117,-493 53,-605 -64,-112 -259,-156 -555,-219 -296,-63 -692,-145 -1440,-223 -748,-79 -1848,-154 -2801,-190 -953,-36 -1759,-31 -2525,-2 -767,29 -1494,84 -1982,149 -487,65 -735,140 -856,262 -122,122 -117,289 -79,598 38,309 110,758 299,970 189,211 495,184 974,149 479,-35 1130,-78 1761,-107 632,-29 1244,-43 1867,-41 623,3 1257,23 1955,69z"/>
  <path class="fil2" d="M8392 2740c-259,-222 -908,-420 -1357,-548 -449,-128 -697,-184 -976,-192 -279,-8 -590,34 -791,137 -202,103 -295,269 -318,458 -23,189 23,401 49,590 26,189 31,354 8,463 -23,109 -75,160 -202,186 -127,26 -328,26 -628,-31 -300,-57 -698,-171 -926,-217 -228,-47 -284,-26 -362,75 -78,101 -176,282 -248,411 -72,129 -119,207 -72,259 47,52 186,78 295,57 109,-21 186,-88 261,-134 75,-47 147,-72 269,-59 122,13 292,65 543,124 251,59 582,127 828,160 246,34 406,34 541,-26 134,-59 243,-178 326,-331 83,-153 140,-339 176,-466 36,-127 52,-194 171,-199 119,-5 341,52 582,156 240,105 499,257 741,364 242,107 467,168 615,132 148,-36 220,-171 260,-247 41,-76 50,-94 127,-76 77,18 221,72 320,164 100,91 155,220 250,326 94,106 228,190 401,242 174,52 389,73 576,23 187,-50 348,-169 420,-319 72,-150 57,-330 -17,-525 -74,-195 -206,-404 -415,-519 -209,-115 -497,-136 -751,-74 -254,62 -475,207 -520,156 -45,-50 85,-296 -174,-518z"/>
  <path class="fil3" d="M8981 3946c136,35 332,82 483,129 151,47 259,94 341,152 82,58 140,126 192,177 53,51 101,86 156,117 55,31 118,58 180,82 62,24 123,46 146,51 24,5 11,-8 -1,-53 -12,-45 -22,-122 -42,-174 -20,-52 -51,-78 -87,-92 -36,-14 -77,-16 -82,-17 -5,-2 28,-3 53,-8 25,-5 41,-12 77,-69 36,-57 90,-162 153,-309 63,-146 135,-334 214,-453 79,-120 163,-172 199,-243 36,-72 22,-163 -44,-258 -66,-95 -183,-194 -344,-307 -161,-113 -367,-239 -578,-329 -212,-91 -429,-146 -609,-188 -180,-42 -321,-69 -481,-67 -160,2 -338,33 -469,89 -131,56 -216,135 -276,234 -60,98 -94,215 -126,335 -32,119 -62,241 -93,325 -30,84 -61,129 -101,169 -40,40 -89,75 -124,109 -35,34 -56,66 -61,94 -4,27 8,49 1,52 -7,3 -34,-14 -87,-22 -54,-9 -135,-9 -188,-3 -54,6 -80,20 -58,48 22,28 93,69 169,89 76,20 157,19 226,11 69,-7 126,-21 167,-12 40,8 63,39 98,59 35,21 82,31 138,42 57,11 123,23 185,39 62,16 121,35 184,56 63,21 131,44 203,67 72,23 149,46 285,81z"/>
  <path class="fil2" d="M8101 3678c108,48 218,99 332,145 114,46 232,86 311,42 80,-44 121,-173 165,-321 44,-147 92,-314 149,-418 57,-104 125,-146 189,-164 64,-18 125,-11 180,0 55,11 104,27 120,102 16,75 -3,209 -47,392 -44,182 -114,412 -213,609 -100,197 -229,359 -362,463 -133,103 -270,147 -433,103 -163,-44 -352,-176 -504,-280 -152,-104 -268,-181 -340,-251 -72,-69 -99,-131 -101,-195 -1,-65 23,-132 54,-183 31,-51 68,-85 99,-112 31,-27 56,-47 121,-35 65,12 171,56 279,103z"/>
  <path class="fil2" d="M4165 2910c-120,-40 -340,-120 -478,-178 -138,-58 -195,-94 -292,-39 -98,55 -236,202 -321,333 -85,131 -116,247 -96,322 20,75 91,108 166,104 74,-4 152,-46 213,-87 61,-41 105,-83 172,-69 67,14 157,83 254,168 96,86 199,188 289,193 90,6 168,-86 214,-195 46,-109 61,-236 62,-324 1,-88 -12,-138 -27,-163 -16,-25 -35,-25 -154,-65z"/>
  <path class="fil4" d="M1780 5004c-377,-43 -517,-148 -657,-253 38,309 110,758 299,970 189,211 495,184 974,149 479,-35 1130,-78 1761,-107 632,-29 1244,-43 1867,-41 623,3 1257,23 1955,69 698,47 1459,120 2005,190 546,70 877,137 1060,-52 174,-181 212,-594 258,-904 -61,70 -105,126 -179,155 -95,37 -240,31 -396,25 -156,-5 -324,-10 -643,-45 -319,-36 -788,-103 -1315,-172 -526,-69 -1109,-140 -2016,-137 -907,3 -2137,82 -3060,130 -923,48 -1537,66 -1914,23z"/>
  <path class="fil3" d="M7221 2314c-102,37 -254,126 -405,366 -151,240 -301,631 -384,967 -83,336 -98,618 -85,883 13,265 54,513 84,684 30,171 48,264 18,296 -30,32 -107,4 -224,-27 -116,-31 -272,-65 -513,-84 -242,-19 -570,-25 -873,-5 -303,19 -579,63 -846,92 -266,28 -522,41 -718,25 -195,-17 -330,-63 -451,-112 -122,-49 -230,-101 -256,-138 -26,-37 31,-61 119,-107 88,-47 207,-116 330,-287 123,-171 249,-442 383,-771 134,-328 277,-714 408,-994 131,-281 250,-456 371,-600 122,-144 246,-255 384,-332 138,-78 291,-122 462,-160 171,-39 359,-72 594,-81 234,-9 513,6 781,38 268,31 524,78 702,116 178,39 279,70 348,100 69,30 105,58 118,87 14,29 5,58 -23,65 -27,7 -73,-8 -122,-23 -49,-15 -101,-31 -202,6z"/>
  <path class="fil2" d="M10039 2209c71,32 137,80 177,130 40,51 52,103 33,141 -20,37 -72,58 -159,44 -86,-14 -207,-64 -267,-112 -61,-48 -63,-95 -61,-130 2,-35 7,-57 17,-78 10,-20 24,-38 69,-40 45,-2 121,13 192,45z"/>
  <path class="fil4" d="M10906 7262c36,-382 120,-1086 220,-1746 101,-660 218,-1277 356,-1895 138,-619 298,-1239 415,-1598 117,-359 193,-455 264,-495 71,-40 138,-23 159,42 21,65 -4,178 -88,455 -84,277 -226,717 -375,1285 -149,568 -304,1264 -421,1921 -117,656 -197,1273 -247,1688 -50,415 -71,629 -94,740 -23,111 -48,120 -82,120 -34,0 -75,-8 -103,-42 -27,-34 -40,-92 -4,-474z"/>
  <path class="fil4" d="M1497 7572c-68,-298 -149,-911 -229,-1500 -80,-590 -158,-1156 -216,-1580 -58,-423 -96,-703 -117,-908 -21,-205 -25,-335 -8,-423 17,-88 55,-134 84,-151 29,-17 50,-4 84,140 34,145 80,421 147,950 67,528 155,1308 237,1933 82,625 157,1094 189,1369 31,275 19,354 -15,403 -34,48 -88,65 -156,-233z"/>
  <path class="fil5" d="M7032 2259c-13,25 -166,117 -309,338 -143,221 -276,572 -361,927 -85,354 -122,712 -127,988 -6,276 19,471 37,597 18,126 28,182 1,208 -27,25 -92,19 -229,6 -136,-13 -344,-34 -479,-38 -135,-4 -198,8 -177,-37 21,-44 126,-145 243,-338 117,-193 247,-478 367,-816 120,-338 229,-728 359,-1033 130,-305 281,-525 420,-656 139,-131 267,-172 255,-147z"/>
  <path class="fil5" d="M10321 2613c39,38 114,102 168,180 55,78 89,169 97,286 8,117 -11,261 -38,387 -27,126 -61,235 -102,350 -40,115 -86,235 -132,312 -46,77 -91,111 -85,112 5,1 61,-30 117,-96 57,-66 114,-165 174,-285 60,-120 122,-259 179,-362 58,-103 111,-170 145,-224 34,-53 49,-93 50,-137 1,-44 -12,-91 -52,-147 -41,-56 -110,-121 -191,-189 -81,-68 -175,-139 -240,-182 -65,-42 -102,-56 -118,-57 -16,-1 -12,12 27,50z"/>
 </g>
</svg>
