<?xml version="1.0" encoding="UTF-8"?>
<!DOCTYPE svg PUBLIC "-//W3C//DTD SVG 1.1//EN" "http://www.w3.org/Graphics/SVG/1.1/DTD/svg11.dtd">
<!-- Creator: CorelDRAW 2017 -->
<svg xmlns="http://www.w3.org/2000/svg" xml:space="preserve" width="143mm" height="143mm" version="1.1" style="shape-rendering:geometricPrecision; text-rendering:geometricPrecision; image-rendering:optimizeQuality; fill-rule:evenodd; clip-rule:evenodd"
viewBox="0 0 14300 14300"
 xmlns:xlink="http://www.w3.org/1999/xlink">
 <defs>
  <style type="text/css">
   <![CDATA[
    .fil1 {fill:black}
    .fil8 {fill:#1A1A1A}
    .fil5 {fill:#4D4D4D}
    .fil6 {fill:gray}
    .fil3 {fill:#A5D673}
    .fil0 {fill:#AD5240}
    .fil7 {fill:#EDBF42}
    .fil4 {fill:#FFE77B}
    .fil2 {fill:white}
   ]]>
  </style>
 </defs>
 <g id="Слой_x0020_1">
  <metadata id="CorelCorpID_0Corel-Layer"/>
  <path class="fil0" d="M5535 13369c-1452,71 -2214,63 -2764,-12 -550,-75 -889,-216 -1090,-368 -201,-152 -265,-314 -229,-512 35,-198 169,-430 406,-593 236,-162 575,-254 891,-333 316,-79 610,-145 894,-335 284,-189 558,-502 667,-886 109,-384 53,-840 -58,-1119 -111,-279 -278,-381 -396,-474 -119,-93 -189,-178 -231,-263 -42,-85 -56,-169 166,-303 222,-134 681,-318 1316,-617 635,-300 1446,-716 2166,-1182 720,-466 1348,-981 1693,-1291 346,-310 409,-416 325,-501 -85,-85 -318,-148 -575,-222 -258,-74 -540,-159 -653,-233 -113,-74 -56,-138 282,-282 339,-145 960,-370 1630,-644 670,-273 1390,-594 1810,-778 420,-183 540,-229 663,139 123,369 250,1152 353,1861 102,709 180,1344 95,1655 -85,310 -332,296 -564,247 -233,-49 -452,-134 -600,-131 -148,4 -226,95 -113,286 113,191 416,480 695,755 279,275 533,536 720,963 187,427 307,1020 318,1573 11,554 -88,1069 -453,1600 -365,531 -997,1078 -2383,1427 -1386,349 -3528,501 -4979,572z"/>
  <path class="fil1" d="M3573 3984c146,-58 301,-58 445,-31 144,27 277,82 381,159 103,78 176,178 225,306 49,127 75,281 54,456 -21,174 -89,369 -177,503 -89,133 -198,205 -248,279 -50,74 -40,149 -9,217 30,68 80,129 176,169 96,40 238,59 410,-4 172,-63 374,-209 536,-344 162,-135 283,-259 432,-405 149,-146 326,-313 456,-435 129,-122 210,-200 276,-234 66,-34 117,-25 160,22 43,47 76,131 -28,305 -105,174 -347,439 -570,664 -223,225 -425,411 -635,580 -210,170 -428,323 -570,423 -143,100 -211,146 -252,289 -41,144 -54,385 -55,744 -1,359 12,836 29,1357 17,521 39,1087 41,1573 2,486 -16,892 -10,1109 6,218 36,248 88,286 52,39 127,86 205,129 78,43 160,82 204,168 44,86 49,219 -5,292 -54,73 -167,87 -333,89 -166,2 -384,-8 -526,-51 -142,-44 -207,-122 -253,-487 -46,-365 -74,-1018 -100,-1493 -26,-475 -52,-771 -77,-981 -26,-210 -52,-334 -77,-361 -26,-27 -51,44 -72,413 -21,369 -37,1037 -56,1560 -19,523 -41,900 -61,1103 -19,203 -36,230 -120,256 -84,26 -235,50 -401,44 -166,-6 -348,-42 -453,-96 -106,-54 -136,-126 -128,-197 8,-71 53,-141 119,-193 67,-52 155,-86 227,-126 72,-40 129,-86 157,-239 28,-153 28,-412 29,-756 1,-344 3,-772 8,-1232 5,-461 13,-955 25,-1373 12,-418 29,-760 44,-1025 14,-264 27,-450 -8,-572 -35,-122 -117,-179 -269,-282 -152,-103 -375,-250 -581,-473 -207,-223 -398,-520 -506,-739 -108,-218 -132,-358 -114,-468 18,-111 80,-192 154,-151 74,41 162,206 257,380 95,175 198,359 333,515 135,156 303,282 447,359 145,77 267,103 359,86 92,-18 152,-80 201,-142 49,-62 86,-125 99,-188 13,-63 3,-127 -49,-197 -52,-71 -146,-148 -211,-274 -65,-126 -100,-302 -102,-476 -2,-174 30,-348 114,-493 85,-145 222,-260 368,-318z"/>
  <path class="fil2" d="M3817 5866c59,0 116,-2 147,11 31,13 36,39 37,76 1,37 -2,84 -28,108 -26,24 -75,25 -124,25 -49,0 -97,-1 -132,-29 -34,-28 -55,-83 -66,-120 -11,-37 -14,-55 16,-64 30,-8 91,-7 151,-7z"/>
  <path class="fil2" d="M3921 6288c24,142 68,414 104,613 35,199 62,325 72,395 10,70 2,86 -36,193 -38,107 -108,307 -146,393 -39,86 -46,59 -89,-33 -43,-92 -121,-250 -157,-341 -37,-91 -32,-115 -4,-334 28,-219 80,-634 114,-841 34,-206 49,-204 64,-205 15,0 31,-3 41,1 10,4 14,16 38,158z"/>
  <path class="fil3" d="M11922 4066c41,267 62,801 49,1107 -12,306 -58,384 -125,380 -67,-4 -155,-88 -215,-212 -60,-123 -92,-286 -122,-434 -30,-148 -58,-282 -145,-279 -86,4 -231,145 -588,500 -357,355 -927,925 -1545,1418 -618,494 -1285,911 -2010,1210 -725,299 -1508,479 -1884,549 -376,71 -344,32 -26,-109 318,-141 921,-385 1547,-701 626,-316 1275,-706 1963,-1236 688,-530 1415,-1200 1782,-1561 367,-361 374,-414 328,-446 -46,-32 -145,-42 -272,-56 -127,-14 -282,-32 -400,-64 -118,-32 -199,-78 -242,-125 -42,-48 -46,-97 104,-135 150,-38 453,-64 752,-75 299,-11 594,-5 771,-3 177,3 237,3 278,270z"/>
  <path class="fil4" d="M4083 1663c91,22 176,67 256,142 81,75 157,179 200,286 42,107 50,217 32,313 -18,95 -61,176 -114,245 -53,69 -116,127 -164,157 -48,29 -82,29 -99,48 -18,19 -20,56 -19,105 1,49 5,109 7,156 2,48 2,83 -56,103 -58,20 -173,25 -265,20 -93,-5 -164,-20 -198,-66 -34,-46 -32,-124 -31,-180 1,-56 1,-90 -5,-117 -6,-27 -19,-45 -54,-64 -34,-19 -90,-39 -144,-96 -53,-58 -103,-153 -131,-247 -28,-94 -34,-186 -24,-280 10,-94 37,-189 94,-272 57,-83 145,-152 221,-195 77,-43 143,-59 224,-67 82,-9 179,-11 270,11z"/>
  <path class="fil5" d="M4122 3353c0,26 -7,76 -20,117 -14,41 -34,74 -75,91 -41,16 -102,16 -152,1 -50,-15 -89,-46 -115,-82 -25,-37 -36,-79 -41,-108 -5,-29 -5,-44 41,-51 46,-7 138,-7 204,-5 66,1 107,4 130,6 23,2 29,5 28,31z"/>
  <path class="fil6" d="M3945 3032c74,3 153,3 207,4 53,1 80,4 96,27 16,23 22,66 27,118 5,52 9,112 -1,151 -10,39 -35,58 -106,65 -71,7 -188,2 -293,1 -105,0 -197,3 -248,-33 -51,-37 -61,-115 -64,-177 -3,-63 1,-111 31,-137 30,-26 86,-29 148,-28 62,1 130,6 204,9z"/>
  <path class="fil7" d="M3972 1920c-14,56 -60,182 -69,242 -9,59 20,52 72,50 52,-1 128,3 156,27 28,23 8,64 -46,146 -54,82 -143,204 -191,270 -48,66 -56,77 -48,33 8,-45 33,-145 51,-207 18,-62 29,-86 7,-100 -23,-14 -79,-17 -120,-24 -41,-6 -67,-15 -80,-30 -14,-15 -16,-35 11,-89 27,-54 83,-140 127,-203 44,-62 77,-101 102,-128 25,-27 43,-43 29,13z"/>
  <path class="fil8" d="M4871 2230c42,-21 124,-45 228,-56 104,-11 229,-9 302,-2 73,7 92,18 74,36 -18,18 -72,42 -140,57 -68,15 -150,20 -237,22 -87,3 -181,3 -226,-7 -45,-9 -43,-28 -1,-49z"/>
  <path class="fil8" d="M2449 1901c47,-5 132,3 236,31 103,28 225,76 293,109 68,33 82,51 59,61 -23,10 -83,13 -154,1 -71,-12 -154,-38 -239,-67 -85,-30 -172,-63 -211,-88 -39,-25 -30,-42 17,-46z"/>
  <path class="fil8" d="M3379 611c28,38 66,114 98,231 32,117 58,273 67,362 9,89 1,110 -19,96 -21,-14 -54,-64 -83,-145 -29,-81 -54,-193 -75,-295 -21,-102 -37,-194 -36,-240 1,-46 20,-47 48,-10z"/>
  <path class="fil8" d="M5053 944c-18,44 -66,115 -150,201 -85,86 -207,188 -279,240 -72,53 -94,57 -93,32 2,-25 28,-79 83,-145 55,-66 139,-144 217,-213 78,-69 149,-130 189,-152 41,-22 51,-7 33,37z"/>
  <path class="fil2" d="M4081 1729c-20,-11 -97,-23 -186,-19 -89,5 -191,27 -271,64 -80,37 -139,89 -185,157 -46,67 -79,150 -93,232 -14,81 -10,161 11,240 20,80 56,160 96,213 39,52 82,77 90,44 8,-34 -19,-125 -19,-226 0,-101 26,-210 72,-308 45,-98 110,-184 170,-239 60,-55 117,-79 160,-95 43,-16 73,-24 106,-33 33,-9 69,-19 49,-30z"/>
  <path class="fil1" d="M10481 8307c-108,12 -214,41 -310,93 -96,53 -181,130 -244,213 -64,83 -106,171 -128,274 -21,103 -21,221 -3,336 18,115 54,227 117,323 63,96 153,176 254,234 102,57 215,92 335,101 120,9 246,-9 357,-49 112,-40 209,-103 286,-179 76,-76 131,-166 167,-262 35,-96 51,-198 48,-302 -3,-104 -25,-209 -70,-312 -45,-103 -113,-204 -196,-282 -84,-78 -184,-134 -289,-164 -105,-30 -215,-34 -324,-22z"/>
  <path class="fil1" d="M7643 10024c-62,-12 -122,-10 -183,4 -61,13 -122,38 -172,75 -50,37 -87,87 -116,141 -29,55 -50,115 -56,179 -6,65 2,135 20,197 19,62 49,117 94,162 45,45 105,81 174,104 69,23 148,32 227,17 79,-15 159,-54 219,-105 61,-51 102,-113 124,-179 22,-66 24,-136 22,-199 -3,-63 -11,-118 -39,-172 -28,-54 -76,-107 -132,-146 -56,-40 -121,-67 -183,-79z"/>
  <path class="fil1" d="M8492 9331c-27,-71 -46,-187 -50,-301 -5,-113 5,-224 16,-285 11,-61 24,-74 87,-77 63,-3 176,3 247,3 71,0 99,-6 124,-33 25,-27 47,-74 80,-150 33,-76 77,-179 99,-239 22,-60 22,-76 -19,-121 -41,-46 -123,-121 -165,-179 -43,-58 -46,-99 2,-164 47,-65 145,-153 228,-228 83,-76 153,-139 198,-170 46,-31 68,-31 107,-8 39,24 96,71 145,115 49,44 90,85 179,80 90,-5 228,-55 312,-88 83,-33 112,-49 123,-99 11,-50 5,-135 -2,-200 -6,-65 -13,-109 -5,-137 8,-28 30,-41 98,-55 68,-14 181,-30 277,-33 96,-3 175,6 236,20 61,14 105,33 126,104 20,71 17,194 31,260 14,66 46,76 126,110 80,35 209,94 285,126 76,31 98,35 151,-2 54,-36 139,-112 195,-159 57,-47 85,-66 115,-61 30,5 61,33 120,82 58,49 143,118 208,189 65,71 109,143 121,198 13,55 -6,93 -47,140 -41,47 -104,104 -135,145 -31,41 -31,66 -8,137 24,71 71,187 101,268 30,80 43,124 58,153 16,28 35,41 104,47 69,6 189,6 258,35 69,28 88,85 96,176 8,91 5,217 -2,310 -6,93 -16,153 -33,189 -17,36 -43,49 -90,55 -47,6 -116,6 -176,5 -60,-2 -110,-5 -150,28 -39,33 -68,102 -101,187 -33,85 -71,186 -88,257 -17,71 -14,112 22,161 36,49 105,105 143,146 38,41 44,66 27,105 -17,39 -58,93 -126,164 -68,71 -162,159 -230,213 -68,54 -109,72 -150,58 -41,-14 -82,-61 -120,-105 -38,-44 -72,-85 -109,-101 -36,-16 -74,-6 -137,14 -63,20 -151,52 -224,77 -72,25 -129,44 -162,72 -33,28 -43,66 -47,134 -5,68 -5,165 -17,220 -13,55 -38,68 -99,77 -61,9 -159,16 -263,14 -104,-2 -214,-11 -283,-28 -69,-17 -98,-43 -112,-94 -14,-52 -14,-131 -13,-189 2,-58 5,-96 -33,-128 -38,-31 -116,-57 -195,-88 -79,-31 -157,-69 -209,-93 -52,-24 -77,-33 -113,-13 -36,20 -83,71 -124,110 -41,39 -76,68 -104,80 -28,13 -50,9 -87,0 -36,-9 -87,-25 -154,-77 -68,-52 -153,-140 -211,-213 -58,-72 -90,-129 -105,-167 -16,-38 -16,-57 11,-85 27,-28 80,-66 126,-101 46,-35 83,-66 107,-91 24,-25 33,-44 13,-102 -20,-58 -71,-156 -112,-238 -41,-82 -72,-148 -90,-187 -17,-39 -20,-52 -69,-57 -49,-5 -143,-2 -208,-13 -65,-11 -99,-36 -126,-107zm2160 -1407c-128,-3 -274,9 -397,40 -124,31 -224,80 -319,142 -94,63 -183,140 -264,244 -82,104 -157,235 -204,379 -46,144 -64,301 -56,449 8,147 41,284 103,410 62,126 153,241 255,336 102,95 213,171 320,226 107,55 209,90 336,102 127,13 278,3 422,-28 144,-31 281,-85 401,-168 120,-83 224,-197 298,-300 74,-103 118,-196 150,-302 31,-106 50,-226 51,-344 1,-118 -17,-235 -52,-348 -35,-113 -89,-224 -157,-327 -68,-103 -152,-199 -245,-276 -93,-77 -195,-135 -301,-174 -105,-39 -214,-57 -342,-61z"/>
  <path class="fil1" d="M7831 9355c4,29 13,67 46,111 32,44 87,94 156,135 68,40 150,70 212,85 61,15 102,15 142,2 39,-13 77,-38 107,-59 30,-21 52,-39 76,-28 24,11 51,50 87,115 36,65 82,154 109,217 28,63 37,99 34,125 -3,26 -19,42 -37,48 -18,6 -39,3 -68,15 -30,12 -69,39 -98,89 -28,50 -46,124 -49,205 -3,81 8,169 23,235 15,66 34,110 68,139 34,29 83,43 118,57 35,14 57,28 64,53 6,24 -3,59 -34,117 -31,58 -83,140 -128,198 -46,58 -85,93 -116,109 -31,17 -53,15 -70,2 -17,-13 -30,-36 -46,-53 -17,-17 -37,-26 -72,-31 -35,-5 -86,-5 -146,10 -60,15 -129,45 -191,86 -62,41 -117,93 -150,139 -32,46 -42,85 -46,118 -4,33 -2,60 3,84 6,24 15,46 13,62 -2,16 -17,25 -66,35 -50,9 -135,19 -222,18 -87,-1 -177,-12 -224,-24 -46,-13 -50,-27 -48,-46 2,-20 8,-45 13,-79 6,-34 10,-76 0,-116 -10,-39 -35,-76 -79,-114 -43,-39 -105,-80 -170,-111 -65,-31 -135,-54 -188,-61 -54,-8 -91,-2 -128,15 -36,17 -71,43 -95,63 -24,20 -39,32 -61,20 -23,-12 -54,-48 -96,-112 -42,-64 -94,-155 -125,-216 -31,-61 -43,-93 -43,-117 0,-24 11,-42 37,-53 26,-11 67,-16 108,-41 41,-25 82,-71 103,-136 21,-65 23,-150 18,-226 -5,-76 -16,-142 -33,-191 -17,-50 -41,-83 -72,-105 -31,-23 -68,-35 -98,-46 -30,-10 -52,-18 -64,-31 -12,-13 -13,-30 3,-74 17,-44 51,-115 90,-181 39,-66 81,-128 112,-164 31,-36 50,-47 67,-54 17,-7 33,-10 50,2 17,13 36,41 61,61 24,20 54,33 92,39 38,6 83,4 143,-17 60,-21 134,-62 193,-103 59,-41 103,-82 131,-115 28,-33 39,-58 46,-87 7,-28 10,-60 7,-87 -3,-28 -13,-51 -15,-71 -2,-20 2,-35 45,-47 43,-12 123,-20 200,-22 77,-2 151,1 202,9 50,9 77,23 90,45 13,22 11,52 9,77 -2,25 -3,46 1,75zm-83 523c-87,-24 -179,-30 -258,-24 -79,6 -143,25 -205,55 -61,30 -120,71 -170,123 -50,52 -93,115 -122,183 -29,68 -45,142 -49,220 -4,77 4,157 24,231 20,74 51,142 108,205 57,63 139,121 218,157 80,36 157,50 239,54 83,3 171,-5 253,-32 82,-28 157,-75 216,-134 58,-59 99,-130 129,-207 30,-77 49,-161 50,-245 2,-84 -14,-169 -48,-250 -34,-80 -86,-156 -152,-214 -66,-58 -146,-99 -233,-123z"/>
  <path class="fil2" d="M10586 8493c-77,3 -161,22 -224,54 -63,32 -105,79 -123,121 -18,42 -11,80 29,103 39,23 110,32 200,37 89,5 197,8 286,33 89,25 158,74 206,134 48,60 74,130 81,203 7,73 -5,148 -30,216 -25,68 -64,127 -114,174 -50,47 -112,80 -159,99 -47,19 -79,25 -81,29 -2,4 26,7 73,-2 47,-9 112,-30 169,-64 57,-34 107,-80 150,-135 43,-55 80,-118 105,-188 24,-70 35,-148 34,-223 -1,-75 -14,-148 -46,-223 -32,-76 -82,-155 -141,-213 -59,-58 -126,-96 -195,-121 -69,-25 -140,-37 -217,-34z"/>
  <path class="fil2" d="M7548 10106c-45,2 -95,13 -132,32 -37,19 -62,46 -72,71 -10,25 -6,47 17,61 23,14 65,19 117,22 53,3 116,5 168,20 52,15 93,43 121,79 28,35 43,77 47,120 4,43 -3,87 -18,127 -15,40 -38,75 -67,102 -30,27 -66,47 -93,58 -28,11 -46,14 -48,17 -1,2 15,4 43,-1 27,-5 66,-18 100,-37 34,-20 63,-47 88,-79 25,-32 47,-69 61,-111 14,-41 21,-87 20,-131 -1,-44 -8,-87 -27,-131 -19,-44 -48,-91 -83,-125 -35,-34 -74,-57 -115,-71 -41,-15 -82,-22 -128,-20z"/>
  <path class="fil2" d="M3565 5067c34,41 77,104 138,141 60,37 137,48 203,49 66,1 120,-8 164,-28 45,-19 80,-48 116,-82 36,-34 71,-73 80,-68 9,5 -8,55 -41,119 -33,64 -81,142 -143,196 -62,53 -138,82 -202,84 -64,2 -117,-23 -169,-66 -52,-43 -103,-104 -137,-161 -34,-57 -52,-111 -64,-154 -12,-43 -19,-75 -11,-82 9,-7 33,12 66,53z"/>
 </g>
</svg>
