<?xml version="1.0" encoding="UTF-8"?>
<!DOCTYPE svg PUBLIC "-//W3C//DTD SVG 1.1//EN" "http://www.w3.org/Graphics/SVG/1.1/DTD/svg11.dtd">
<!-- Creator: CorelDRAW 2017 -->
<svg xmlns="http://www.w3.org/2000/svg" xml:space="preserve" width="143mm" height="143mm" version="1.1" style="shape-rendering:geometricPrecision; text-rendering:geometricPrecision; image-rendering:optimizeQuality; fill-rule:evenodd; clip-rule:evenodd"
viewBox="0 0 14300 14300"
 xmlns:xlink="http://www.w3.org/1999/xlink">
 <defs>
  <style type="text/css">
   <![CDATA[
    .fil2 {fill:black}
    .fil3 {fill:#999999}
    .fil0 {fill:#A60000}
    .fil1 {fill:white}
   ]]>
  </style>
 </defs>
 <g id="Слой_x0020_1">
  <metadata id="CorelCorpID_0Corel-Layer"/>
  <path class="fil0" d="M8467 10319c596,87 1660,264 2484,392 824,128 1408,207 1621,362 213,155 54,386 -371,497 -425,111 -1115,103 -1606,123 -490,21 -780,70 -922,163 -142,93 -137,230 -339,310 -202,80 -611,103 -1041,78 -430,-25 -881,-97 -1263,-97 -382,-1 -695,70 -1172,94 -477,25 -1119,3 -1753,-24 -634,-28 -1261,-61 -1348,-158 -86,-96 368,-255 660,-392 292,-137 422,-252 321,-332 -101,-79 -432,-123 -786,-180 -353,-58 -728,-130 -887,-241 -159,-112 -101,-263 65,-335 166,-72 440,-65 714,-29 274,36 548,101 893,68 345,-33 760,-163 1271,-243 511,-80 1118,-110 1569,-124 451,-15 745,-15 955,-16 211,-1 338,-3 934,84z"/>
  <g id="_2296378094064">
   <path class="fil0" d="M1509 11907c182,9 488,31 667,68 178,38 229,92 153,119 -76,27 -278,27 -463,29 -186,2 -355,5 -485,2 -130,-4 -220,-14 -241,-52 -22,-38 25,-103 77,-137 52,-34 110,-38 292,-29z"/>
   <path class="fil0" d="M5852 12502c81,-5 175,2 173,31 -2,29 -99,79 -238,103 -139,23 -319,20 -351,0 -32,-20 83,-56 175,-83 92,-27 160,-45 241,-50z"/>
   <path class="fil0" d="M5048 12673c51,-14 111,-18 122,-5 11,13 -27,41 -78,56 -51,14 -116,14 -127,2 -11,-13 32,-38 84,-52z"/>
   <path class="fil0" d="M12477 11688c14,-10 161,-10 222,0 60,10 33,30 -41,30 -74,0 -195,-20 -181,-30z"/>
   <path class="fil0" d="M12645 11857c73,11 172,43 229,77 57,33 71,68 14,72 -57,5 -185,-21 -280,-45 -96,-24 -159,-48 -175,-63 -16,-15 14,-23 53,-32 39,-9 86,-20 159,-9z"/>
  </g>
  <path class="fil1" d="M4334 5768c5,13 21,21 35,16l1570 -509c27,3 45,13 53,32 6,14 8,32 -4,56l-1341 1072c-10,8 -13,22 -6,33 8,12 25,16 38,8l1590 -917c22,0 42,4 56,11 21,10 25,28 25,60 1,31 -2,75 -11,128l-281 688c-5,10 -2,22 7,30 12,9 29,8 39,-3l784 -841c87,-15 178,-23 258,-32 118,-12 215,-25 310,-31 62,-4 123,-5 192,5l667 705c7,8 18,11 29,8 15,-4 23,-18 19,-32l-227 -725c7,-15 17,-28 27,-36 15,-13 30,-15 60,-4 11,4 25,10 40,18l1272 1187c9,9 25,11 37,3 12,-8 15,-25 6,-36l-1047 -1332c-5,-25 -5,-49 3,-66 11,-24 36,-34 66,-35 26,-2 57,3 95,10l1717 663c13,6 28,1 36,-11 8,-12 3,-28 -10,-35l-1557 -849c-28,-21 -52,-41 -69,-59 -31,-35 -33,-62 -3,-77 24,-12 68,-15 124,-16l794 88c11,1 22,-4 28,-13 7,-13 2,-28 -11,-35l-756 -386c-56,-92 -116,-196 -172,-292 -48,-83 -92,-160 -112,-233l959 -661c9,-6 14,-18 10,-29 -5,-14 -21,-21 -35,-16l-711 222c-28,0 -55,-2 -69,-9 -14,-8 -16,-23 -5,-48 5,-13 14,-28 24,-44l2003 -1347c13,-8 16,-23 9,-35 -8,-12 -25,-16 -38,-9l-2315 1323c-25,2 -47,-1 -61,-6 -22,-8 -26,-21 -30,-49 -3,-21 -7,-50 -1,-83l1205 -1505c9,-10 9,-26 -2,-36 -11,-10 -29,-9 -39,1l-1421 1405c-27,14 -53,24 -77,29 -44,9 -79,-1 -106,-26 -18,-17 -32,-40 -41,-65l66 -549c1,-9 -3,-19 -12,-24 -13,-8 -30,-5 -39,7l-251 344c-54,4 -114,11 -174,22 -124,23 -245,61 -366,86 -120,25 -240,37 -338,22l-7 -1 -633 -931c-6,-9 -17,-14 -28,-12 -15,3 -25,16 -22,30l169 865c-6,48 -12,100 -26,134 -25,62 -77,72 -134,48l-1074 -1099c-9,-10 -24,-12 -36,-5 -13,8 -17,24 -9,36l810 1191c6,18 11,34 13,46 6,42 -25,42 -88,23 -35,-11 -81,-27 -129,-47l-1952 -1145c-12,-8 -29,-6 -38,5 -9,11 -7,28 5,36l1771 1300c8,10 15,18 21,26 24,32 28,49 21,67 -7,18 -25,36 -74,45 -26,5 -62,8 -99,9l-1143 -264c-12,-3 -26,3 -32,14 -7,13 -1,28 13,34l1564 701c-14,19 -37,38 -67,55 -78,43 -207,74 -263,96 -57,22 -41,35 -6,77 35,42 88,113 122,175 33,63 46,118 42,173 -2,28 -8,56 -16,83l-387 215c-9,5 -15,15 -14,25 2,14 15,24 31,23l520 -54c64,6 131,10 159,25 32,17 13,48 -14,75 -9,9 -19,17 -29,25l-1444 732c-12,6 -17,19 -13,31z"/>
  <polygon class="fil2" points="7726,1546 6687,1546 6610,10808 7465,10808 "/>
  <polygon class="fil2" points="3866,3909 3837,4691 10459,4632 10431,3923 "/>
  <path class="fil3" d="M7199 1725c-78,-22 -240,-25 -319,0 -79,25 -76,79 -81,258 -5,179 -17,485 -18,804 -2,319 8,651 11,856 3,205 0,282 -28,320 -27,39 -79,39 -506,40 -426,1 -1226,4 -1662,3 -435,-1 -506,-7 -542,1 -37,9 -40,33 -41,59 -2,27 -2,56 208,76 209,19 628,28 1094,36 466,7 979,13 1275,12 296,-1 376,-10 426,-83 50,-73 72,-209 105,-565 34,-356 79,-931 105,-1253 26,-322 32,-390 38,-445 6,-55 12,-96 -66,-119z"/>
  <path class="fil3" d="M6877 5032c-26,-253 -77,-253 -109,541 -32,793 -45,2380 -55,3362 -10,982 -16,1361 -3,1544 13,183 45,171 90,180 45,9 103,39 122,-685 19,-724 0,-2201 -10,-3193 -10,-992 -10,-1497 -36,-1750z"/>
 </g>
</svg>
