<?xml version="1.0" encoding="UTF-8"?>
<!DOCTYPE svg PUBLIC "-//W3C//DTD SVG 1.1//EN" "http://www.w3.org/Graphics/SVG/1.1/DTD/svg11.dtd">
<!-- Creator: CorelDRAW 2017 -->
<svg xmlns="http://www.w3.org/2000/svg" xml:space="preserve" width="143mm" height="143mm" version="1.1" style="shape-rendering:geometricPrecision; text-rendering:geometricPrecision; image-rendering:optimizeQuality; fill-rule:evenodd; clip-rule:evenodd"
viewBox="0 0 14300 14300"
 xmlns:xlink="http://www.w3.org/1999/xlink">
 <defs>
  <style type="text/css">
   <![CDATA[
    .str0 {stroke:black;stroke-width:50;stroke-linecap:round;stroke-linejoin:round}
    .fil7 {fill:none}
    .fil0 {fill:black}
    .fil2 {fill:#4D4D4D}
    .fil8 {fill:#5ACEF7}
    .fil1 {fill:#5B962C}
    .fil3 {fill:gray}
    .fil6 {fill:#B3B3B3}
    .fil5 {fill:#E6E6E6}
    .fil4 {fill:white}
   ]]>
  </style>
 </defs>
 <g id="Слой_x0020_1">
  <metadata id="CorelCorpID_0Corel-Layer"/>
  <path class="fil0" d="M5554 6637c-113,94 -289,292 -467,619 -178,327 -358,785 -579,1284 -220,499 -480,1040 -585,1405 -104,364 -53,551 -2,738 17,46 34,92 99,176 65,83 179,204 332,238 152,34 343,-19 485,-134 142,-115 235,-291 329,-555 94,-264 187,-615 304,-1000 116,-385 256,-804 373,-1168 118,-364 215,-672 243,-910 28,-238 -12,-407 -77,-524 -65,-117 -154,-181 -223,-218 -69,-37 -119,-46 -232,48z"/>
  <path class="fil0" d="M6814 5441c-66,125 -69,349 -114,500 -45,151 -131,230 -223,280 -92,50 -191,72 -289,93 -174,211 -348,421 -388,688 -40,266 53,588 310,775 256,187 676,237 1068,228 392,-9 757,-79 988,-205 231,-126 328,-308 424,-522 96,-214 191,-459 286,-705 -246,-11 -493,-21 -656,-65 -163,-44 -243,-121 -323,-198 -74,-87 -149,-174 -186,-277 -38,-103 -38,-222 -39,-344 0,-122 0,-246 -90,-318 -89,-72 -268,-91 -421,-87 -153,4 -281,31 -347,156z"/>
  <path class="fil1" d="M9175 7057c164,28 355,141 480,335 125,194 185,469 233,777 48,308 83,648 120,1044 37,396 76,848 228,1346 152,498 418,1043 570,1377 152,334 189,457 227,581 -908,-3 -1817,-6 -2725,-10 -340,-635 -681,-1270 -758,-1833 -77,-563 110,-1053 280,-1536 170,-483 322,-958 470,-1289 148,-332 292,-520 433,-642 141,-122 278,-179 443,-151z"/>
  <path class="fil2" d="M5190 8247c-50,149 -85,301 -62,483 23,181 103,392 210,542 106,151 239,241 172,656 -66,415 -331,1155 -535,2259 -19,104 -38,210 -56,319l4512 0c-142,-518 -301,-968 -438,-1368 -203,-591 -359,-1072 -424,-1313 -65,-240 -39,-240 6,-329 45,-89 108,-268 172,-446 -10,-228 -20,-456 -108,-670 -88,-214 -255,-415 -282,-727 -27,-313 85,-737 110,-965 25,-228 -37,-260 -122,-294 -84,-35 -191,-72 -272,-101 -82,-29 -138,-49 -216,62 -77,111 -176,353 -329,499 -153,146 -361,197 -562,204 -201,7 -396,-31 -518,-166 -123,-135 -174,-367 -217,-489 -43,-122 -79,-134 -130,-117 -50,18 -114,66 -194,113 -79,48 -174,95 -212,184 -38,89 -19,221 -30,362 -11,140 -51,290 -106,435 -55,145 -124,285 -190,428 -67,143 -131,289 -180,438z"/>
  <path class="fil0" d="M7849 6254c-426,-33 -852,-66 -1278,-99 32,-56 64,-112 66,-182 2,-70 -27,-155 -165,-257 -138,-102 -384,-222 -590,-429 -206,-207 -370,-501 -437,-816 -67,-315 -37,-650 2,-854 39,-204 87,-277 38,-310 -49,-33 -193,-27 -260,-49 -66,-22 -54,-72 -21,-175 33,-104 87,-261 165,-408 79,-147 182,-284 292,-399 110,-115 227,-208 390,-286 163,-77 371,-139 550,-153 179,-15 330,18 426,86 97,69 140,174 215,192 75,18 182,-50 348,-84 166,-33 391,-31 598,35 207,66 396,195 569,367 173,172 331,388 430,667 99,279 139,621 123,898 -16,277 -88,488 -109,684 -21,196 8,376 86,416 78,40 204,-62 238,-63 34,-2 -24,96 -118,221 -94,125 -224,276 -357,356 -133,79 -269,87 -421,69 -151,-17 -318,-59 -430,-91 -112,-31 -170,-53 -225,-28 -55,25 -108,97 -152,173 -44,76 -79,158 -73,245 6,87 52,180 99,273z"/>
  <g id="_1499424677968">
   <path class="fil3" d="M7313 6923c-177,-155 -532,-464 -850,-735 -317,-271 -596,-502 -744,-626 -148,-123 -165,-138 -177,-142 -12,-4 -21,3 -187,102 -166,99 -490,290 -850,501 -360,210 -757,439 -958,555 -202,116 -208,119 -214,123 -6,4 -11,8 16,46 27,38 86,110 333,344 247,233 681,627 917,834 236,207 275,226 363,246 89,20 228,39 369,50 141,11 282,14 432,-50 150,-64 309,-195 596,-388 287,-192 701,-445 910,-573 209,-128 214,-129 217,-130 3,-1 4,-1 -173,-156z"/>
   <path class="fil4" d="M6925 6062c-255,-24 -764,-70 -1320,-118 -556,-49 -1160,-100 -1468,-126 -308,-26 -320,-27 -326,-13 -6,14 -7,42 -30,269 -22,227 -66,651 -104,1029 -38,378 -70,708 -91,903 -20,194 -28,253 -26,296 2,43 15,71 539,138 524,66 1559,170 2111,224 551,53 619,56 661,54 42,-2 57,-8 71,-75 14,-67 26,-194 58,-517 31,-323 82,-841 116,-1201 34,-359 52,-559 60,-672 8,-113 7,-139 5,-152 -1,-14 -2,-15 -257,-39z"/>
   <path class="fil5" d="M7239 9514c-66,-67 -199,-194 -467,-426 -268,-232 -671,-570 -879,-743 -209,-173 -223,-182 -276,-190 -54,-8 -147,-16 -259,-24 -113,-8 -245,-16 -324,-21 -80,-4 -107,-5 -231,57 -124,62 -346,186 -646,371 -300,184 -678,428 -871,556 -192,128 -199,139 -200,148 -1,8 2,12 7,17 5,4 12,8 453,47 440,39 1314,113 2004,171 690,58 1196,101 1457,122 261,21 277,19 286,14 9,-5 12,-12 13,-19 1,-7 1,-13 -66,-79z"/>
   <path class="fil6" d="M7164 7241c-314,177 -935,532 -1242,719 -308,187 -303,206 -256,263 47,57 138,151 408,390 270,238 721,619 954,813 233,193 248,199 260,194 12,-5 21,-19 27,-81 7,-62 11,-171 39,-574 29,-403 81,-1101 109,-1466 28,-365 30,-397 27,-415 -3,-17 -12,-19 -326,157z"/>
   <path class="fil6" d="M3613 6927c280,227 832,681 1104,918 272,236 265,254 208,302 -56,48 -161,126 -468,315 -307,189 -815,490 -1077,641 -262,152 -278,154 -289,148 -11,-7 -17,-22 -13,-84 4,-62 18,-170 58,-573 40,-402 105,-1099 138,-1464 34,-365 37,-397 43,-413 6,-17 15,-17 295,210z"/>
   <path class="fil7 str0" d="M4678 6663c31,-31 62,-61 92,-75 29,-14 57,-10 70,10 14,20 13,56 23,71 10,15 30,8 48,-1 18,-9 34,-19 52,-15 18,3 37,20 55,24 18,3 36,-7 44,2 8,9 6,36 15,43 9,7 29,-5 58,-35 28,-30 65,-76 78,-79 13,-3 2,38 -7,80 -9,43 -18,87 2,82 19,-5 66,-60 94,-78 28,-18 37,2 66,7 29,5 76,-5 100,-5 24,1 25,13 50,3 25,-9 73,-39 95,-36 22,3 19,40 37,57 18,17 58,14 81,18 23,4 29,15 56,19 27,4 74,3 110,-11 36,-14 62,-40 85,-80 24,-40 45,-95 47,-103 2,-8 -15,31 -32,74 -18,42 -36,88 -12,101 24,13 91,-6 126,-12 34,-6 36,2 65,4 29,2 84,-3 116,-4 32,-1 41,1 54,5 13,4 31,9 49,14"/>
   <path class="fil7 str0" d="M4497 6890c30,-28 61,-55 81,-46 20,10 30,56 58,70 29,13 76,-7 95,8 19,14 10,63 39,73 28,10 94,-19 115,-19 21,0 -2,28 41,27 43,-1 153,-31 201,-22 48,8 33,54 66,71 33,17 113,5 163,6 49,1 67,16 86,6 18,-10 37,-44 66,-45 29,-1 69,33 115,38 46,5 97,-17 124,-17 27,0 30,23 52,35 22,12 64,12 89,10 25,-3 34,-8 42,-14"/>
   <path class="fil7 str0" d="M5385 7458c27,-40 53,-79 62,-88 9,-8 -1,15 -2,33 -1,18 6,31 24,28 18,-3 47,-23 60,-25 13,-2 10,15 16,22 6,7 20,3 49,-12 28,-15 71,-42 98,-57 28,-15 41,-18 38,3 -3,21 -22,66 -13,86 9,20 46,15 75,5 29,-9 50,-22 69,-19 19,3 35,22 63,19 28,-3 68,-28 97,-30 29,-2 46,19 69,26 23,7 51,-2 77,4 26,6 49,25 67,36 18,10 31,12 50,6 19,-6 43,-18 57,-18 14,0 19,13 23,26"/>
  </g>
  <path class="fil0" d="M8399 6639c-79,70 -163,182 -275,392 -112,209 -251,515 -349,900 -98,385 -154,848 -173,1140 -19,292 -2,412 -40,456 -39,44 -134,11 -214,-54 -80,-65 -146,-163 -252,-357 -106,-194 -252,-484 -379,-645 -127,-161 -236,-192 -352,-192 -116,-1 -239,29 -268,165 -29,136 36,378 87,635 51,258 87,531 246,829 159,298 441,620 715,827 275,208 542,301 752,306 209,6 361,-76 469,-168 108,-92 173,-195 290,-526 117,-330 285,-888 409,-1375 124,-487 203,-904 244,-1198 41,-293 45,-463 -9,-652 -54,-189 -164,-398 -286,-503 -122,-104 -254,-104 -358,-90 -104,14 -179,40 -258,110z"/>
  <path class="fil0" d="M5553 8438c-141,143 -277,401 -414,652 -137,251 -276,494 -486,720 -211,226 -493,434 -628,600 -136,166 -124,289 -53,410 72,121 203,239 356,288 153,49 327,28 548,-152 221,-180 489,-519 679,-840 190,-320 302,-622 377,-820 75,-199 115,-294 135,-411 21,-117 23,-256 7,-368 -16,-112 -51,-196 -142,-224 -91,-28 -237,0 -378,144z"/>
  <path class="fil4" d="M6801 3709c61,22 162,90 227,158 64,68 91,137 63,141 -27,4 -109,-56 -183,-112 -74,-57 -140,-110 -163,-148 -23,-38 -4,-62 56,-39z"/>
  <path class="fil4" d="M6278 3786c-56,24 -144,95 -194,166 -50,70 -63,140 -35,143 28,3 98,-59 160,-118 62,-59 117,-114 133,-153 16,-39 -8,-61 -64,-37z"/>
  <path class="fil8" d="M7130 3974c42,-15 112,-33 187,-26 75,7 156,41 211,86 55,45 85,101 88,152 3,51 -21,95 -48,111 -27,15 -57,2 -91,-35 -34,-37 -74,-96 -120,-137 -47,-42 -101,-66 -147,-82 -46,-16 -84,-25 -108,-29 -24,-4 -33,-4 -31,-9 3,-5 17,-16 60,-30z"/>
  <path class="fil8" d="M6081 4061c-21,-5 -69,-6 -137,2 -69,8 -158,26 -236,76 -79,50 -148,132 -167,197 -20,65 10,114 60,126 50,12 121,-12 175,-52 53,-40 89,-97 117,-143 28,-45 49,-78 73,-103 24,-25 52,-42 73,-54 21,-12 36,-19 47,-27 11,-8 18,-16 -3,-21z"/>
  <path class="fil8" d="M3933 4596c-70,3 -291,65 -420,140 -129,76 -166,165 -140,202 26,37 114,22 203,-26 89,-48 178,-128 262,-196 85,-68 165,-124 94,-121z"/>
  <path class="fil8" d="M2921 6159c-119,183 -252,479 -258,637 -6,159 115,180 207,64 91,-116 153,-370 212,-563 59,-193 114,-326 89,-358 -25,-32 -130,37 -249,220z"/>
  <path class="fil8" d="M2431 5168c-73,9 -289,93 -432,215 -142,121 -211,280 -195,348 16,69 116,48 224,-40 108,-88 222,-243 314,-354 92,-111 162,-178 89,-170z"/>
  <path class="fil8" d="M8346 4776c63,-2 250,62 355,135 105,73 128,155 98,186 -30,31 -113,10 -187,-30 -74,-39 -139,-97 -203,-160 -64,-62 -126,-129 -63,-131z"/>
  <path class="fil8" d="M9795 6498c114,66 380,307 493,470 113,163 73,249 -15,273 -88,25 -222,-12 -317,-121 -94,-109 -148,-290 -193,-435 -46,-145 -83,-253 31,-187z"/>
  <path class="fil8" d="M9984 5115c109,28 405,192 544,333 140,141 123,260 14,232 -109,-28 -311,-201 -450,-343 -140,-141 -218,-250 -109,-222z"/>
  <path class="fil8" d="M2155 7187c-46,55 -153,217 -202,352 -49,135 -42,242 -2,289 40,47 112,35 147,-41 36,-75 35,-213 42,-315 7,-102 21,-169 35,-229 14,-60 28,-112 -19,-57z"/>
  <path class="fil4" d="M7007 5102c11,-32 5,-111 -35,-176 -40,-65 -115,-117 -197,-142 -81,-25 -168,-24 -250,4 -82,29 -158,85 -199,149 -40,64 -44,135 -39,160 5,25 20,3 47,-24 27,-28 67,-62 110,-80 44,-18 91,-20 150,-10 58,10 127,32 176,48 49,16 77,26 103,38 26,11 48,24 72,38 24,14 51,28 61,-4z"/>
  <path class="fil8" d="M11351 6492c57,43 141,133 190,208 49,75 64,135 24,139 -40,5 -136,-46 -226,-129 -90,-82 -174,-196 -190,-244 -16,-48 34,-30 75,-22 40,7 70,5 127,48z"/>
  <path class="fil8" d="M11154 7609c46,55 153,217 202,352 49,135 42,242 2,289 -40,47 -112,35 -147,-41 -36,-75 -35,-213 -42,-315 -7,-102 -21,-169 -35,-229 -14,-60 -28,-112 19,-57z"/>
 </g>
</svg>
