<?xml version="1.0" encoding="UTF-8"?>
<!DOCTYPE svg PUBLIC "-//W3C//DTD SVG 1.1//EN" "http://www.w3.org/Graphics/SVG/1.1/DTD/svg11.dtd">
<!-- Creator: CorelDRAW 2017 -->
<svg xmlns="http://www.w3.org/2000/svg" xml:space="preserve" width="143mm" height="143mm" version="1.1" style="shape-rendering:geometricPrecision; text-rendering:geometricPrecision; image-rendering:optimizeQuality; fill-rule:evenodd; clip-rule:evenodd"
viewBox="0 0 14300 14300"
 xmlns:xlink="http://www.w3.org/1999/xlink">
 <defs>
  <style type="text/css">
   <![CDATA[
    .str0 {stroke:black;stroke-width:25}
    .fil4 {fill:none;fill-rule:nonzero}
    .fil9 {fill:black}
    .fil8 {fill:#4A94CE}
    .fil7 {fill:#999999}
    .fil0 {fill:#AD5240}
    .fil5 {fill:#E6DEC8}
    .fil2 {fill:#F79C84}
    .fil1 {fill:#FFF7E3}
    .fil6 {fill:white}
    .fil3 {fill:black;fill-rule:nonzero}
   ]]>
  </style>
 </defs>
 <g id="Слой_x0020_1">
  <metadata id="CorelCorpID_0Corel-Layer"/>
  <path class="fil0" d="M11478 10971c271,82 737,215 1039,380 302,165 442,361 605,487 163,126 350,181 393,248 42,66 -61,143 -378,256 -317,113 -849,261 -1920,320 -1071,59 -2682,29 -3961,-33 -1279,-62 -2228,-157 -2799,-239 -571,-83 -765,-153 -933,-213 -168,-60 -309,-109 -295,-225 14,-115 183,-297 519,-480 335,-183 836,-369 1148,-541 312,-172 434,-330 372,-474 -62,-145 -307,-276 -830,-380 -523,-104 -1323,-181 -1910,-245 -587,-64 -961,-115 -1218,-154 -257,-38 -396,-64 -422,-190 -26,-125 62,-351 247,-564 185,-213 467,-415 879,-554 412,-139 955,-216 1557,-169 602,47 1262,218 1831,252 569,34 1046,-68 1417,-102 371,-34 637,1 894,45 257,43 505,95 696,136 191,41 325,72 264,189 -61,117 -318,320 -667,518 -350,197 -792,389 -966,545 -174,156 -78,275 113,355 192,80 479,121 850,210 371,90 824,228 1260,327 436,99 854,159 1149,178 295,19 467,-2 592,2 125,4 202,34 474,116z"/>
  <path class="fil1" d="M6068 2438c4,54 -12,152 -119,365 -107,213 -305,539 -381,768 -77,229 -33,361 107,517 140,156 376,338 617,612 242,274 488,642 672,1026 184,384 305,785 370,1142 66,357 77,670 77,895 0,225 -11,362 -10,443 1,81 15,106 55,134 40,29 106,62 173,100 67,38 136,82 177,161 41,78 55,191 60,259 5,69 3,93 -60,108 -63,15 -187,21 -336,7 -150,-14 -325,-47 -450,-71 -125,-25 -199,-41 -311,-16 -113,25 -263,91 -482,173 -218,82 -504,181 -930,233 -427,52 -995,58 -1456,-12 -461,-70 -815,-215 -1030,-295 -215,-80 -292,-93 -391,-86 -99,7 -220,34 -366,58 -147,23 -320,43 -445,48 -125,5 -202,-3 -232,-37 -30,-34 -14,-95 29,-183 43,-88 111,-203 180,-285 69,-82 137,-132 192,-151 55,-19 96,-8 123,-18 27,-10 41,-40 44,-103 3,-63 -5,-159 -37,-328 -32,-169 -86,-410 -34,-803 52,-392 211,-936 451,-1412 240,-476 561,-885 815,-1169 254,-284 440,-443 543,-587 103,-144 122,-273 54,-456 -69,-182 -225,-419 -343,-620 -118,-202 -198,-369 -195,-464 3,-95 88,-117 206,-71 118,45 269,158 461,224 192,66 425,85 605,82 180,-3 306,-27 484,-44 178,-16 409,-25 572,-41 163,-16 259,-41 329,-71 70,-30 114,-66 148,-80 34,-14 59,-5 63,48z"/>
  <path class="fil2" d="M5485 3500c66,-12 154,-21 217,34 63,55 102,173 51,296 -51,123 -191,252 -421,324 -231,71 -552,85 -829,59 -278,-26 -512,-93 -658,-148 -146,-55 -204,-98 -240,-188 -36,-91 -49,-229 -33,-314 16,-85 61,-116 143,-111 83,6 203,49 320,86 117,37 229,67 350,85 121,18 250,23 409,8 159,-15 349,-51 465,-77 117,-26 161,-43 226,-55z"/>
  <path class="fil3" d="M2979 7274c-10,-57 15,-91 75,-100 60,-9 93,4 98,40 5,36 31,74 77,112 46,39 90,58 132,58 42,0 83,0 125,0 42,0 84,-17 124,-51 41,-34 61,-63 61,-86 0,-23 0,-45 0,-66 0,-20 -9,-37 -27,-49 -18,-12 -33,-22 -46,-30 -13,-8 -44,-18 -93,-31 -50,-12 -108,-27 -176,-44 -67,-17 -127,-38 -178,-62 -52,-25 -91,-59 -118,-103 -27,-44 -40,-79 -40,-105 0,-26 0,-52 0,-76 0,-24 11,-57 33,-98 22,-41 42,-68 61,-82 19,-14 36,-26 50,-36 14,-11 46,-23 95,-38 49,-15 88,-22 116,-22 28,0 64,0 106,0 42,0 95,12 160,37 64,24 111,57 142,99 31,42 49,80 54,115 6,35 -21,56 -81,65 -60,8 -92,-2 -96,-30 -4,-28 -26,-57 -65,-89 -39,-31 -76,-47 -112,-47 -36,0 -75,0 -117,0 -42,0 -81,14 -117,42 -36,28 -54,51 -54,70 0,18 0,34 0,46 0,12 4,22 11,32 8,9 15,19 23,29 7,10 19,18 35,25 16,6 28,11 38,15 9,3 36,11 81,24 45,12 100,27 164,44 65,17 123,37 174,59 51,22 92,54 121,96 29,42 44,78 44,110 0,31 0,62 0,93 0,31 -18,73 -53,126 -36,54 -87,96 -154,125 -67,30 -122,44 -164,44 -42,0 -99,0 -169,0 -70,0 -142,-29 -216,-87 -74,-58 -115,-116 -126,-173z"/>
  <path id="1" class="fil3" d="M4787 7415c-3,-25 -21,-24 -55,5 -34,29 -82,55 -145,79 -63,24 -112,35 -148,35 -36,0 -84,0 -143,0 -59,0 -121,-29 -185,-87 -64,-58 -95,-110 -95,-155 0,-45 0,-81 0,-107 0,-26 12,-61 36,-105 24,-44 56,-79 94,-105 39,-26 71,-43 95,-50 25,-7 46,-13 64,-17 18,-5 45,-9 82,-14 36,-5 91,-11 165,-20 74,-9 128,-19 163,-32 35,-12 52,-25 53,-37 0,-13 1,-20 1,-24 0,-3 0,-24 0,-61 0,-37 -9,-64 -26,-79 -17,-15 -37,-33 -61,-54 -23,-20 -58,-31 -104,-31 -46,0 -91,0 -134,0 -43,0 -85,15 -126,45 -41,30 -66,65 -76,103 -10,38 -45,53 -104,45 -59,-8 -85,-31 -77,-69 8,-39 31,-81 68,-128 38,-47 91,-84 162,-109 70,-25 129,-38 175,-38 47,0 93,0 139,0 46,0 98,11 156,33 58,22 100,49 127,82 27,33 43,62 49,87 6,25 10,45 13,61 3,16 5,44 5,84 0,41 0,102 0,183 0,81 0,165 0,250 0,85 4,150 12,195 8,45 17,78 29,99 11,20 -15,31 -78,31 -64,0 -100,-9 -110,-28 -9,-19 -16,-41 -18,-67zm-19 -413c0,-22 -17,-27 -50,-13 -33,14 -83,25 -149,35 -67,9 -119,17 -156,22 -37,6 -72,15 -103,28 -31,14 -56,33 -72,60 -17,26 -26,47 -26,63 0,16 0,36 0,61 0,24 19,53 56,85 37,32 73,49 109,49 36,0 71,0 107,0 35,0 80,-15 135,-46 55,-31 89,-60 102,-86 13,-27 24,-51 34,-71 10,-21 15,-51 15,-92 0,-40 0,-72 0,-94z"/>
  <path id="2" class="fil3" d="M5324 7511c-61,0 -91,-249 -91,-745 0,-497 31,-746 91,-746 61,0 92,249 92,746 0,497 -31,745 -92,745z"/>
  <path id="3" class="fil3" d="M6074 7350c17,-2 30,23 38,77 9,54 0,84 -25,89 -26,5 -49,8 -69,8 -20,0 -47,0 -81,0 -33,0 -68,-10 -105,-32 -36,-21 -62,-49 -77,-83 -15,-34 -23,-79 -23,-134 0,-55 0,-186 0,-393 0,-207 -22,-311 -67,-311 -45,0 -67,-24 -67,-71 0,-48 23,-71 67,-71 45,0 67,-45 67,-134 0,-89 31,-152 91,-189 61,-36 91,8 91,134 0,126 31,189 92,189 61,0 92,24 92,71 0,47 -31,71 -92,71 -61,0 -92,105 -92,316 0,211 0,329 0,355 0,26 3,47 9,61 7,15 17,27 32,36 15,9 29,13 42,13 14,0 25,0 35,0 10,0 24,-1 40,-3z"/>
  <path id="4" class="fil4 str0" d="M2979 7274c-10,-57 15,-91 75,-100 60,-9 93,4 98,40 5,36 31,74 77,112 46,39 90,58 132,58 42,0 83,0 125,0 42,0 84,-17 124,-51 41,-34 61,-63 61,-86 0,-23 0,-45 0,-66 0,-20 -9,-37 -27,-49 -18,-12 -33,-22 -46,-30 -13,-8 -44,-18 -93,-31 -50,-12 -108,-27 -176,-44 -67,-17 -127,-38 -178,-62 -52,-25 -91,-59 -118,-103 -27,-44 -40,-79 -40,-105 0,-26 0,-52 0,-76 0,-24 11,-57 33,-98 22,-41 42,-68 61,-82 19,-14 36,-26 50,-36 14,-11 46,-23 95,-38 49,-15 88,-22 116,-22 28,0 64,0 106,0 42,0 95,12 160,37 64,24 111,57 142,99 31,42 49,80 54,115 6,35 -21,56 -81,65 -60,8 -92,-2 -96,-30 -4,-28 -26,-57 -65,-89 -39,-31 -76,-47 -112,-47 -36,0 -75,0 -117,0 -42,0 -81,14 -117,42 -36,28 -54,51 -54,70 0,18 0,34 0,46 0,12 4,22 11,32 8,9 15,19 23,29 7,10 19,18 35,25 16,6 28,11 38,15 9,3 36,11 81,24 45,12 100,27 164,44 65,17 123,37 174,59 51,22 92,54 121,96 29,42 44,78 44,110 0,31 0,62 0,93 0,31 -18,73 -53,126 -36,54 -87,96 -154,125 -67,30 -122,44 -164,44 -42,0 -99,0 -169,0 -70,0 -142,-29 -216,-87 -74,-58 -115,-116 -126,-173z"/>
  <path id="5" class="fil4 str0" d="M4787 7415c-3,-25 -21,-24 -55,5 -34,29 -82,55 -145,79 -63,24 -112,35 -148,35 -36,0 -84,0 -143,0 -59,0 -121,-29 -185,-87 -64,-58 -95,-110 -95,-155 0,-45 0,-81 0,-107 0,-26 12,-61 36,-105 24,-44 56,-79 94,-105 39,-26 71,-43 95,-50 25,-7 46,-13 64,-17 18,-5 45,-9 82,-14 36,-5 91,-11 165,-20 74,-9 128,-19 163,-32 35,-12 52,-25 53,-37 0,-13 1,-20 1,-24 0,-3 0,-24 0,-61 0,-37 -9,-64 -26,-79 -17,-15 -37,-33 -61,-54 -23,-20 -58,-31 -104,-31 -46,0 -91,0 -134,0 -43,0 -85,15 -126,45 -41,30 -66,65 -76,103 -10,38 -45,53 -104,45 -59,-8 -85,-31 -77,-69 8,-39 31,-81 68,-128 38,-47 91,-84 162,-109 70,-25 129,-38 175,-38 47,0 93,0 139,0 46,0 98,11 156,33 58,22 100,49 127,82 27,33 43,62 49,87 6,25 10,45 13,61 3,16 5,44 5,84 0,41 0,102 0,183 0,81 0,165 0,250 0,85 4,150 12,195 8,45 17,78 29,99 11,20 -15,31 -78,31 -64,0 -100,-9 -110,-28 -9,-19 -16,-41 -18,-67zm-19 -413c0,-22 -17,-27 -50,-13 -33,14 -83,25 -149,35 -67,9 -119,17 -156,22 -37,6 -72,15 -103,28 -31,14 -56,33 -72,60 -17,26 -26,47 -26,63 0,16 0,36 0,61 0,24 19,53 56,85 37,32 73,49 109,49 36,0 71,0 107,0 35,0 80,-15 135,-46 55,-31 89,-60 102,-86 13,-27 24,-51 34,-71 10,-21 15,-51 15,-92 0,-40 0,-72 0,-94z"/>
  <path id="6" class="fil4 str0" d="M5324 7511c-61,0 -91,-249 -91,-745 0,-497 31,-746 91,-746 61,0 92,249 92,746 0,497 -31,745 -92,745z"/>
  <path id="7" class="fil4 str0" d="M6074 7350c17,-2 30,23 38,77 9,54 0,84 -25,89 -26,5 -49,8 -69,8 -20,0 -47,0 -81,0 -33,0 -68,-10 -105,-32 -36,-21 -62,-49 -77,-83 -15,-34 -23,-79 -23,-134 0,-55 0,-186 0,-393 0,-207 -22,-311 -67,-311 -45,0 -67,-24 -67,-71 0,-48 23,-71 67,-71 45,0 67,-45 67,-134 0,-89 31,-152 91,-189 61,-36 91,8 91,134 0,126 31,189 92,189 61,0 92,24 92,71 0,47 -31,71 -92,71 -61,0 -92,105 -92,316 0,211 0,329 0,355 0,26 3,47 9,61 7,15 17,27 32,36 15,9 29,13 42,13 14,0 25,0 35,0 10,0 24,-1 40,-3z"/>
  <path class="fil5" d="M5818 4717c113,316 379,958 509,1529 130,571 125,1070 77,1382 -48,311 -139,435 -357,593 -218,158 -564,350 -1043,451 -479,102 -1091,113 -1468,133 -377,21 -520,51 -510,100 10,49 172,118 469,177 298,59 731,108 1146,107 414,-1 810,-54 1147,-140 338,-86 617,-207 837,-290 220,-82 379,-126 520,-133 141,-7 265,23 364,44 99,21 173,32 158,-3 -15,-34 -119,-114 -199,-189 -80,-75 -134,-147 -152,-258 -18,-111 1,-262 -19,-564 -21,-302 -81,-755 -214,-1181 -133,-427 -339,-827 -541,-1139 -202,-311 -399,-534 -524,-671 -125,-137 -177,-189 -224,-221 -47,-32 -88,-43 25,273z"/>
  <path class="fil6" d="M11598 11288c-187,-181 -469,-518 -825,-932 -355,-413 -783,-903 -1073,-1198 -290,-295 -442,-397 -542,-437 -100,-40 -147,-18 -286,96 -140,114 -372,321 -758,748 -386,428 -926,1076 -1220,1428 -294,352 -341,406 -348,437 -7,31 25,38 188,76 163,38 457,107 854,154 397,47 897,72 1473,67 576,-5 1229,-42 1709,-65 480,-24 788,-34 991,-47 203,-13 301,-27 317,-44 16,-16 -49,-34 -127,-56 -78,-22 -169,-47 -355,-228z"/>
  <path class="fil7" d="M8957 9141c19,6 34,37 28,68 -6,31 -31,62 -52,66 -21,4 -38,-20 -44,-41 -6,-21 -3,-39 11,-59 14,-19 38,-39 57,-34z"/>
  <path class="fil7" d="M9727 9521c27,9 65,55 75,93 10,38 -8,67 -36,70 -28,3 -64,-21 -82,-45 -17,-24 -16,-48 -7,-73 8,-26 23,-53 50,-44z"/>
  <path class="fil7" d="M9485 9882c17,8 25,39 15,66 -10,27 -38,49 -57,52 -19,4 -30,-11 -34,-30 -4,-19 0,-43 16,-62 16,-19 43,-34 61,-26z"/>
  <path class="fil7" d="M8656 9464c28,-15 65,0 62,27 -3,27 -45,65 -73,80 -28,15 -43,6 -40,-21 3,-27 23,-71 51,-85z"/>
  <path class="fil7" d="M9346 9622c23,13 50,48 50,80 -1,32 -30,61 -57,70 -27,8 -50,-5 -59,-32 -8,-28 -1,-70 12,-95 13,-26 31,-35 54,-22z"/>
  <path class="fil7" d="M8877 9413c20,-4 33,15 33,39 0,24 -13,53 -28,67 -16,14 -34,12 -48,1 -14,-11 -23,-31 -14,-54 9,-23 37,-49 57,-52z"/>
  <path class="fil7" d="M8354 9708c13,17 13,59 2,90 -11,31 -33,51 -50,44 -17,-7 -28,-42 -29,-69 -2,-27 6,-45 22,-59 17,-14 42,-23 55,-6z"/>
  <path class="fil7" d="M7968 10164c23,5 38,28 32,51 -6,23 -31,45 -54,55 -23,10 -43,8 -53,-7 -10,-16 -10,-45 6,-67 16,-22 47,-37 70,-32z"/>
  <path class="fil7" d="M11316 11239c63,38 142,124 192,179 50,55 70,79 -150,105 -219,27 -678,56 -1202,78 -524,22 -1113,37 -1571,23 -459,-14 -787,-56 -904,-72 -117,-16 -24,-5 360,-14 383,-9 1057,-39 1594,-82 537,-43 939,-100 1170,-141 231,-41 292,-67 346,-85 54,-18 102,-29 165,8z"/>
  <path class="fil8" d="M12177 4708c95,70 266,233 459,426 193,193 409,417 517,542 108,125 108,151 22,242 -85,91 -256,246 -529,480 -272,234 -646,547 -859,722 -213,175 -266,212 -323,193 -58,-18 -121,-92 -267,-242 -146,-150 -375,-376 -490,-504 -116,-128 -118,-156 -45,-260 74,-104 224,-283 450,-548 226,-266 529,-618 697,-811 168,-193 202,-227 229,-256 26,-29 45,-53 139,17z"/>
  <path class="fil8" d="M11352 7250c-28,28 -71,63 -97,88 -26,25 -35,39 -132,-42 -97,-81 -281,-257 -394,-379 -114,-122 -157,-191 -153,-256 5,-65 57,-127 103,-142 45,-15 83,16 156,90 73,74 181,189 282,292 101,103 196,192 236,247 41,55 27,75 -1,102z"/>
  <path class="fil9" d="M10552 6620c110,97 307,302 450,448 143,145 231,231 287,284 56,53 80,74 84,93 5,19 -10,36 -57,66 -47,30 -128,72 -212,93 -84,21 -172,21 -253,11 -81,-11 -154,-32 -235,-78 -80,-47 -167,-119 -227,-205 -60,-86 -93,-186 -103,-286 -11,-100 1,-200 24,-283 22,-83 55,-151 83,-189 28,-39 50,-49 160,48z"/>
  <path class="fil7" d="M10521 7311c19,17 42,42 54,60 12,19 12,31 -2,37 -13,6 -40,5 -65,-11 -25,-16 -48,-47 -60,-67 -12,-21 -13,-31 -7,-38 6,-7 18,-11 32,-9 14,2 29,11 48,28z"/>
  <path class="fil7" d="M10407 7073c22,18 54,49 66,70 12,21 6,33 -5,40 -11,7 -26,9 -44,3 -17,-6 -37,-19 -54,-39 -17,-21 -32,-49 -34,-67 -1,-18 11,-26 24,-28 12,-2 25,3 47,21z"/>
  <path class="fil7" d="M10772 7413c22,15 42,37 55,59 12,22 16,43 7,54 -10,11 -33,12 -55,3 -22,-9 -44,-29 -63,-52 -19,-23 -36,-49 -38,-65 -2,-16 12,-22 31,-21 19,1 42,8 64,23z"/>
  <path class="fil6" d="M12586 6214c-164,144 -515,441 -726,620 -212,179 -284,239 -332,263 -48,24 -72,11 -171,-86 -99,-97 -274,-277 -381,-389 -107,-112 -147,-155 -158,-195 -11,-39 6,-75 43,-99 37,-24 95,-37 195,-36 100,2 242,19 408,27 166,8 355,7 540,-26 185,-32 365,-95 471,-133 106,-37 137,-49 163,-57 26,-8 45,-12 67,-18 22,-7 45,-16 -118,128z"/>
  <path class="fil6" d="M10041 7479c31,7 57,48 52,84 -5,37 -39,70 -70,76 -30,6 -56,-14 -70,-38 -14,-24 -16,-51 2,-78 17,-27 54,-52 85,-45z"/>
  <path class="fil6" d="M10552 7765c21,31 36,88 17,114 -19,26 -72,20 -101,-6 -28,-26 -32,-72 -27,-100 6,-28 20,-39 41,-42 21,-3 49,3 70,34z"/>
  <path class="fil6" d="M9932 7916c32,0 65,28 75,61 10,33 -3,72 -32,87 -29,16 -75,8 -101,-11 -26,-19 -31,-50 -18,-80 13,-29 44,-57 76,-57z"/>
  <path class="fil6" d="M10249 8145c18,23 26,61 16,87 -10,26 -38,39 -64,28 -27,-10 -52,-43 -57,-72 -5,-29 12,-55 35,-64 23,-9 52,-2 71,21z"/>
  <path class="fil6" d="M10519 8380c31,9 64,35 77,71 13,36 6,82 -25,99 -30,17 -83,6 -111,-26 -28,-32 -29,-85 -16,-116 14,-30 43,-38 74,-28z"/>
  <path class="fil6" d="M9648 7720c37,-1 79,17 89,37 10,19 -12,39 -46,52 -34,13 -80,18 -105,9 -26,-9 -31,-33 -18,-55 13,-22 44,-42 81,-43z"/>
  <path class="fil6" d="M10564 8985c3,33 -1,68 -20,82 -19,14 -54,6 -67,-17 -13,-24 -4,-64 11,-94 15,-29 35,-48 50,-41 15,6 24,38 27,71z"/>
  <path class="fil6" d="M9930 8518c29,14 42,56 30,93 -12,37 -49,68 -83,71 -34,3 -65,-23 -76,-52 -11,-29 -2,-62 26,-86 28,-24 73,-39 103,-25z"/>
  <path class="fil6" d="M9430 8200c28,2 50,28 50,59 0,31 -22,68 -52,84 -30,17 -69,13 -85,-7 -17,-20 -11,-57 8,-86 19,-29 52,-51 80,-50z"/>
 </g>
</svg>
