<?xml version="1.0" encoding="UTF-8"?>
<!DOCTYPE svg PUBLIC "-//W3C//DTD SVG 1.1//EN" "http://www.w3.org/Graphics/SVG/1.1/DTD/svg11.dtd">
<!-- Creator: CorelDRAW 2017 -->
<svg xmlns="http://www.w3.org/2000/svg" xml:space="preserve" width="143mm" height="143mm" version="1.1" style="shape-rendering:geometricPrecision; text-rendering:geometricPrecision; image-rendering:optimizeQuality; fill-rule:evenodd; clip-rule:evenodd"
viewBox="0 0 14300 14300"
 xmlns:xlink="http://www.w3.org/1999/xlink">
 <defs>
  <style type="text/css">
   <![CDATA[
    .fil6 {fill:black}
    .fil5 {fill:#396912}
    .fil0 {fill:#52C6EF}
    .fil3 {fill:#5B962C}
    .fil8 {fill:#5B962C}
    .fil4 {fill:#6E2D17}
    .fil9 {fill:#A5D673}
    .fil2 {fill:#AB6844}
    .fil10 {fill:#F7B239}
    .fil1 {fill:#FFD663}
    .fil11 {fill:#FFFF66}
    .fil7 {fill:white}
   ]]>
  </style>
 </defs>
 <g id="Слой_x0020_1">
  <metadata id="CorelCorpID_0Corel-Layer"/>
  <path class="fil0" d="M1624 12069c-150,-54 -284,-279 -374,-616 -90,-337 -136,-785 -53,-1276 83,-491 294,-1025 567,-1615 273,-589 609,-1233 817,-1760 208,-527 290,-936 266,-1356 -24,-420 -153,-850 -291,-1157 -139,-307 -288,-490 -363,-755 -75,-265 -75,-610 58,-921 132,-310 397,-586 847,-808 451,-222 1088,-392 1909,-384 821,8 1824,192 2799,404 975,212 1921,452 2710,614 788,162 1419,247 1663,437 244,190 102,487 14,734 -88,247 -122,445 81,677 203,233 644,501 797,829 153,328 17,716 -274,1234 -291,518 -738,1165 -821,1699 -83,534 198,954 433,1379 235,424 424,853 529,1307 105,454 125,934 -48,1281 -174,347 -541,561 -2071,608 -1530,47 -4223,-72 -5868,-223 -1646,-151 -2245,-334 -2627,-366 -382,-32 -548,86 -698,33z"/>
  <path class="fil1" d="M1449 12366c21,-145 320,-429 774,-686 454,-257 1063,-488 1782,-675 719,-188 1548,-332 2307,-450 758,-118 1446,-209 2000,-249 554,-40 974,-29 1399,59 425,88 856,255 1233,469 378,214 703,477 1005,729 302,252 580,493 756,649 176,155 249,225 201,293 -48,67 -219,132 -780,183 -562,50 -1515,85 -2621,85 -1106,0 -2366,-36 -3397,-92 -1031,-56 -1834,-131 -2490,-160 -656,-29 -1165,-13 -1548,-8 -383,5 -640,0 -619,-145z"/>
  <g id="_1499597191552">
   <path class="fil2" d="M10002 10638c-34,-150 -79,-436 -91,-756 -12,-320 8,-674 89,-1095 81,-422 222,-911 358,-1274 135,-363 265,-599 373,-782 108,-183 194,-313 270,-417 76,-103 142,-180 193,-219 51,-40 87,-42 115,-21 29,21 51,64 22,135 -29,71 -108,168 -223,388 -115,220 -264,564 -382,953 -117,389 -202,825 -236,1194 -34,369 -16,672 27,965 44,292 113,574 156,733 43,159 60,196 45,226 -15,30 -62,54 -142,80 -80,26 -193,55 -280,67 -88,12 -149,6 -193,-3 -43,-10 -68,-24 -102,-174z"/>
   <path class="fil3" d="M11498 6121c56,52 140,162 221,312 81,150 159,338 203,451 44,113 53,149 48,169 -5,20 -25,23 -58,31 -32,8 -77,22 -96,34 -18,11 -9,21 10,29 19,8 48,16 69,25 21,10 35,22 41,35 6,13 5,27 -1,84 -6,57 -17,157 -43,252 -26,95 -67,185 -120,261 -53,77 -119,140 -176,182 -58,41 -107,60 -135,69 -28,8 -36,6 -32,-38 3,-44 18,-129 25,-255 8,-125 9,-290 -1,-400 -10,-110 -30,-166 -41,-204 -11,-38 -13,-58 -5,-72 7,-13 24,-20 48,-46 24,-27 57,-73 72,-98 15,-25 13,-27 -4,-26 -18,1 -51,6 -79,9 -28,3 -51,6 -62,-5 -11,-11 -11,-34 -15,-112 -5,-78 -14,-210 -20,-302 -6,-92 -8,-142 -6,-193 2,-51 8,-101 16,-139 8,-38 20,-64 39,-80 19,-17 46,-24 102,28z"/>
   <path class="fil3" d="M11575 6001c56,-29 162,-70 302,-102 140,-33 315,-57 476,-47 161,10 310,55 418,128 109,73 177,175 229,300 52,126 88,276 105,465 18,189 18,417 12,561 -6,144 -19,204 -35,238 -16,34 -35,41 -51,25 -16,-16 -28,-54 -61,-139 -33,-85 -86,-216 -130,-311 -43,-95 -77,-155 -110,-200 -33,-44 -65,-73 -79,-100 -14,-27 -10,-53 -2,-86 9,-33 21,-75 29,-104 7,-29 9,-46 2,-52 -7,-6 -22,-1 -56,7 -34,8 -86,19 -116,21 -30,2 -37,-6 -57,-30 -20,-24 -54,-63 -96,-106 -43,-43 -96,-89 -171,-134 -75,-45 -173,-90 -263,-127 -90,-37 -173,-65 -235,-84 -62,-19 -102,-28 -128,-37 -26,-9 -37,-17 -41,-30 -3,-12 1,-28 57,-57z"/>
   <path class="fil3" d="M11361 6075c-6,-70 -21,-194 -7,-307 14,-113 58,-214 123,-323 66,-108 153,-223 244,-319 91,-96 185,-173 302,-236 117,-63 257,-113 414,-149 157,-36 331,-57 446,-58 116,-1 173,18 190,29 16,12 -9,16 -42,29 -33,13 -75,36 -132,67 -57,30 -130,68 -148,88 -18,20 18,22 51,28 34,6 65,17 65,41 0,23 -30,59 -81,110 -51,51 -121,117 -185,180 -64,63 -121,124 -165,152 -45,28 -77,24 -136,26 -59,2 -143,9 -176,21 -32,12 -12,28 9,46 22,18 45,37 61,58 16,21 25,42 -3,73 -28,31 -92,71 -176,124 -84,53 -189,120 -273,176 -84,56 -146,101 -197,136 -51,35 -90,59 -120,75 -30,16 -50,24 -57,21 -8,-3 -3,-18 -9,-87z"/>
   <path class="fil3" d="M11331 6044c-31,-94 -94,-265 -183,-405 -89,-140 -203,-249 -320,-332 -117,-83 -236,-139 -370,-173 -134,-34 -282,-46 -411,-34 -129,12 -239,47 -306,74 -67,27 -90,46 -89,59 1,14 26,22 95,31 69,9 180,19 282,36 101,17 191,41 245,58 54,16 71,25 71,34 1,9 -15,18 -42,38 -26,20 -64,52 -72,71 -8,20 13,27 70,58 57,31 149,85 254,142 104,57 220,117 318,180 98,64 179,131 241,182 62,51 105,85 143,101 38,16 70,13 87,3 17,-10 19,-28 -12,-123z"/>
   <path class="fil3" d="M11264 6023c-86,-34 -239,-89 -414,-99 -175,-11 -373,23 -545,64 -172,41 -318,89 -450,179 -133,90 -252,222 -328,351 -76,130 -108,258 -128,366 -20,109 -26,198 -17,227 9,30 34,-1 138,-60 104,-60 288,-149 418,-233 131,-83 208,-161 253,-231 44,-70 55,-133 69,-190 14,-57 30,-109 38,-124 8,-15 9,7 15,45 6,38 18,91 27,127 9,36 16,53 50,48 34,-5 95,-34 167,-76 72,-42 154,-99 241,-141 87,-42 178,-70 262,-93 84,-22 162,-39 215,-55 54,-16 84,-31 89,-45 5,-14 -14,-28 -100,-62z"/>
   <path class="fil4" d="M11286 5956c15,-21 32,-42 64,-58 31,-16 77,-27 120,-21 43,6 83,28 113,59 30,31 51,70 64,112 12,42 16,86 7,123 -9,37 -31,65 -61,86 -30,21 -68,34 -111,41 -43,7 -91,8 -129,-6 -38,-14 -66,-44 -84,-79 -19,-35 -28,-75 -30,-108 -2,-34 3,-61 11,-85 9,-24 22,-43 37,-64z"/>
   <path class="fil4" d="M11092 6095c27,-16 73,-34 125,-32 51,2 107,26 148,69 40,43 65,106 69,165 4,59 -11,113 -47,151 -36,38 -93,59 -143,58 -51,-1 -95,-23 -133,-52 -37,-29 -68,-65 -84,-103 -16,-38 -18,-79 -13,-115 6,-36 20,-67 31,-89 11,-22 20,-36 47,-52z"/>
   <path class="fil4" d="M10933 5879c32,-15 71,-30 120,-23 49,7 110,35 153,77 43,42 68,98 63,159 -5,61 -41,127 -86,171 -45,44 -101,66 -158,61 -57,-5 -117,-38 -152,-92 -35,-55 -47,-131 -46,-186 0,-55 12,-88 30,-113 19,-24 45,-40 77,-54z"/>
  </g>
  <path class="fil5" d="M9186 10839c-334,-10 -898,-23 -1284,-34 -386,-12 -595,-22 -739,-38 -143,-16 -221,-38 -271,-82 -50,-44 -71,-111 -67,-178 4,-66 34,-132 83,-171 48,-39 115,-51 173,-45 59,6 110,31 151,62 42,31 74,68 78,67 5,-1 -18,-39 -36,-99 -19,-60 -34,-143 -28,-210 6,-67 33,-118 76,-169 43,-51 102,-102 181,-133 79,-31 178,-42 253,-15 75,27 126,91 154,146 28,55 34,101 36,95 3,-5 3,-62 16,-129 13,-67 40,-145 106,-206 66,-61 171,-106 287,-132 116,-26 244,-34 356,-11 113,23 210,77 286,141 76,63 129,136 159,208 29,72 35,145 34,207 -1,63 -9,116 6,116 15,0 52,-53 106,-87 54,-34 125,-48 200,-48 74,-1 152,12 225,55 73,43 141,117 183,192 41,75 56,153 46,226 -9,73 -43,142 -85,190 -42,48 -93,77 -171,87 -78,10 -182,2 -516,-8z"/>
  <g id="_1499597186112">
   <path class="fil6" d="M8378 8789c-20,-68 -62,-118 -107,-185 -45,-66 -91,-148 -152,-341 -60,-192 -134,-495 -188,-710 -54,-215 -87,-343 -106,-422 -19,-79 -24,-109 -16,-133 8,-23 29,-39 60,-44 31,-5 72,1 108,70 36,68 66,199 118,409 53,211 129,502 187,663 59,161 101,192 134,194 33,2 58,-26 82,-54 21,177 41,353 54,469 13,116 18,172 -10,216 -29,44 -91,76 -121,49 -30,-27 -27,-113 -46,-181z"/>
   <path class="fil6" d="M8579 7327c71,-28 147,-29 217,-15 70,13 136,40 186,78 50,38 86,87 110,149 24,62 37,137 26,223 -10,85 -43,181 -87,246 -43,65 -97,100 -121,136 -24,36 -19,73 -5,106 15,33 39,63 97,108 58,46 150,107 241,168 -60,178 -121,355 -154,552 -33,197 -39,413 -40,665 -1,252 2,539 8,785 7,246 17,451 30,561 13,110 27,124 53,143 26,19 62,42 100,63 38,21 78,40 100,82 21,42 24,107 -3,143 -26,36 -82,43 -163,44 -81,1 -188,-4 -257,-25 -69,-21 -101,-59 -124,-238 -23,-179 -36,-498 -49,-730 -13,-232 -25,-377 -38,-480 -13,-103 -25,-163 -38,-176 -13,-13 -25,22 -35,202 -10,181 -18,507 -27,763 -9,256 -20,440 -30,539 -10,99 -18,112 -59,125 -41,13 -115,24 -196,22 -81,-3 -170,-20 -222,-47 -52,-26 -66,-62 -63,-96 4,-35 26,-69 58,-95 33,-25 76,-42 111,-61 35,-20 63,-42 77,-117 14,-75 14,-202 14,-370 0,-168 1,-377 4,-603 2,-225 6,-467 12,-671 6,-204 14,-372 -3,-532 -17,-160 -58,-313 -100,-467 58,-46 116,-92 159,-130 44,-38 74,-69 98,-99 24,-30 42,-61 49,-92 7,-31 1,-62 -24,-96 -26,-34 -71,-72 -103,-134 -32,-62 -49,-147 -50,-233 -1,-85 15,-170 56,-241 41,-71 109,-127 180,-156z"/>
   <path class="fil6" d="M9082 8806c20,-68 62,-118 107,-185 45,-66 91,-148 152,-341 60,-192 134,-495 188,-710 54,-215 87,-343 106,-422 19,-79 24,-109 16,-133 -8,-23 -29,-39 -61,-44 -31,-5 -72,1 -108,70 -36,68 -66,199 -118,409 -53,211 -129,502 -187,663 -59,161 -101,192 -143,193 -42,1 -84,-28 -127,-56 -3,177 -6,355 -10,471 -4,117 -9,172 19,216 29,44 91,76 121,49 30,-27 27,-113 46,-181z"/>
   <path class="fil7" d="M8900 7791c-21,22 -48,55 -84,74 -36,18 -79,21 -116,19 -37,-2 -67,-10 -91,-23 -24,-13 -43,-31 -62,-52 -19,-21 -37,-45 -42,-42 -5,3 2,31 18,69 16,38 39,84 72,117 33,33 74,52 110,56 36,4 67,-8 98,-30 31,-22 63,-54 85,-85 22,-31 34,-60 43,-84 9,-24 14,-42 10,-46 -4,-4 -19,5 -40,27z"/>
  </g>
  <g id="_1499597184128">
   <path class="fil6" d="M6203 8598c-26,-89 -81,-154 -139,-240 -58,-86 -119,-193 -197,-444 -79,-250 -175,-644 -245,-925 -70,-280 -113,-447 -138,-550 -25,-103 -31,-143 -20,-173 11,-30 38,-51 79,-58 41,-6 94,2 141,91 46,89 85,259 154,533 69,275 168,654 244,864 77,210 131,251 175,253 43,2 75,-34 107,-71 27,230 54,460 71,611 17,151 24,224 -14,281 -37,57 -119,99 -157,64 -39,-35 -35,-147 -60,-236z"/>
   <path class="fil6" d="M6465 6693c93,-37 191,-37 283,-20 92,17 177,52 243,102 66,49 112,114 144,195 31,81 48,179 34,290 -13,111 -56,235 -113,320 -56,85 -126,131 -158,178 -32,47 -25,95 -6,138 19,43 51,82 127,141 76,59 195,139 314,220 -79,231 -157,463 -200,719 -43,257 -50,539 -52,867 -2,328 2,702 11,1022 9,320 23,587 39,730 17,143 36,162 69,187 33,25 81,55 130,82 50,28 102,52 130,107 28,55 31,139 -3,186 -34,47 -106,56 -212,57 -106,1 -245,-5 -335,-33 -90,-28 -132,-77 -161,-310 -29,-233 -47,-649 -64,-951 -17,-302 -33,-491 -49,-625 -16,-134 -33,-213 -49,-230 -16,-17 -33,28 -46,263 -13,235 -23,661 -35,994 -12,333 -26,574 -39,703 -12,129 -23,146 -76,163 -53,16 -150,32 -256,28 -106,-4 -222,-27 -289,-61 -67,-34 -87,-80 -82,-126 5,-45 34,-90 76,-123 42,-33 98,-55 144,-80 46,-25 82,-55 100,-152 18,-97 18,-263 18,-481 1,-219 2,-492 5,-785 3,-294 8,-608 16,-875 8,-266 19,-484 -3,-693 -22,-209 -76,-408 -130,-608 75,-60 151,-120 208,-170 57,-50 96,-89 127,-129 31,-40 55,-80 63,-120 9,-40 2,-81 -31,-126 -33,-45 -93,-94 -134,-175 -41,-80 -64,-192 -65,-303 -1,-111 19,-222 73,-314 54,-92 141,-166 234,-203z"/>
   <path class="fil6" d="M7121 8620c26,-89 81,-154 139,-240 58,-86 119,-193 197,-444 79,-250 175,-644 245,-925 70,-280 113,-447 138,-550 25,-103 31,-143 20,-173 -11,-30 -38,-51 -79,-58 -41,-6 -94,2 -141,91 -46,89 -85,259 -154,533 -69,275 -168,654 -244,864 -77,210 -131,251 -186,252 -55,2 -110,-36 -165,-74 -4,231 -8,462 -13,614 -5,152 -12,225 25,282 37,57 119,99 157,64 39,-35 35,-147 60,-236z"/>
   <path class="fil7" d="M6884 7297c-27,28 -63,72 -109,96 -46,24 -103,27 -152,24 -48,-3 -87,-13 -119,-30 -32,-17 -56,-40 -80,-67 -24,-27 -48,-58 -55,-55 -7,3 3,41 23,90 20,49 51,109 94,152 42,43 97,68 144,73 47,5 87,-10 128,-39 41,-29 82,-70 110,-111 29,-40 44,-79 56,-110 12,-31 19,-54 13,-60 -6,-6 -25,7 -52,35z"/>
  </g>
  <g id="_1499597185472">
   <path class="fil6" d="M4172 8522c-19,-66 -60,-115 -104,-180 -43,-64 -89,-144 -148,-332 -59,-187 -131,-481 -183,-691 -52,-209 -84,-334 -103,-411 -19,-77 -23,-107 -15,-129 8,-23 29,-38 59,-43 30,-5 70,1 105,68 35,66 64,193 115,399 51,205 125,489 182,645 57,157 98,187 130,189 32,2 56,-26 80,-53 20,172 40,344 53,457 13,113 18,167 -10,210 -28,43 -89,74 -118,47 -29,-26 -26,-110 -45,-176z"/>
   <path class="fil6" d="M4368 7099c69,-28 143,-28 212,-15 69,13 132,39 181,76 49,37 84,85 107,146 23,61 36,134 26,217 -10,83 -42,176 -84,239 -42,63 -94,98 -118,133 -24,35 -19,71 -5,103 14,32 38,61 95,106 57,44 146,104 235,164 -59,173 -117,346 -150,537 -32,192 -38,402 -39,647 -1,245 2,524 8,764 7,239 17,439 29,546 12,107 27,121 52,139 25,18 60,41 97,61 37,21 76,39 97,80 21,41 23,104 -3,139 -26,35 -79,42 -158,43 -79,1 -183,-4 -250,-25 -67,-21 -98,-58 -120,-232 -22,-174 -35,-485 -48,-711 -13,-226 -25,-367 -37,-467 -12,-100 -25,-159 -37,-172 -12,-13 -24,21 -34,197 -10,176 -17,494 -27,742 -9,249 -20,429 -29,525 -9,96 -17,109 -57,122 -40,12 -112,24 -191,21 -79,-3 -166,-20 -216,-46 -50,-26 -65,-60 -61,-94 4,-34 25,-67 57,-92 32,-25 74,-41 108,-60 34,-19 61,-41 75,-114 13,-73 13,-196 14,-360 0,-164 1,-367 4,-587 2,-219 6,-454 12,-653 6,-199 14,-362 -2,-518 -16,-156 -57,-305 -97,-454 56,-45 113,-90 155,-127 43,-37 72,-67 95,-96 23,-30 41,-59 47,-89 6,-30 1,-60 -23,-94 -25,-34 -70,-70 -100,-131 -31,-60 -48,-144 -49,-227 -1,-83 14,-166 54,-235 40,-69 106,-124 175,-152z"/>
   <path class="fil6" d="M4858 8538c19,-66 60,-115 104,-180 43,-64 89,-144 148,-332 59,-187 131,-481 183,-691 52,-209 84,-334 103,-411 19,-77 23,-107 15,-129 -8,-23 -29,-38 -59,-43 -30,-5 -70,1 -105,68 -35,66 -64,193 -115,399 -51,205 -125,489 -182,645 -57,157 -98,187 -139,188 -41,1 -82,-27 -123,-55 -3,173 -6,345 -10,459 -4,113 -9,168 19,210 28,43 89,74 118,47 29,-26 26,-110 45,-176z"/>
   <path class="fil7" d="M4681 7550c-20,21 -47,54 -82,72 -35,18 -77,20 -113,18 -36,-2 -65,-10 -89,-22 -24,-12 -42,-30 -60,-50 -18,-20 -36,-43 -41,-41 -5,3 2,31 17,67 15,37 38,82 70,114 32,32 72,51 107,55 35,4 65,-7 96,-29 30,-21 61,-53 82,-83 21,-30 33,-59 42,-82 9,-23 14,-40 9,-45 -4,-4 -18,5 -39,26z"/>
  </g>
  <path class="fil8" d="M3574 9612c1,19 -5,54 -44,130 -39,76 -111,192 -140,274 -28,82 -13,129 36,186 49,57 133,122 219,222 85,99 172,232 237,370 64,138 106,282 128,410 22,128 25,240 24,321 -1,81 -5,130 -5,159 0,29 5,38 19,48 14,10 38,23 61,37 24,14 48,30 63,58 14,28 19,68 21,93 2,25 1,33 -22,39 -23,5 -67,7 -120,1 -53,-6 -116,-18 -161,-27 -45,-9 -71,-16 -111,-7 -40,8 -95,31 -173,60 -78,29 -181,63 -334,80 -153,17 -356,17 -521,-10 -165,-27 -291,-80 -368,-110 -77,-29 -104,-35 -140,-33 -35,2 -79,11 -131,19 -53,8 -115,14 -159,15 -45,1 -72,-2 -83,-14 -11,-12 -5,-34 11,-65 16,-31 41,-72 65,-101 25,-29 50,-47 69,-53 20,-7 34,-3 44,-6 10,-3 15,-14 16,-37 1,-23 -1,-57 -12,-118 -11,-61 -29,-147 -9,-287 20,-140 79,-334 167,-504 88,-169 204,-315 296,-415 92,-101 159,-157 197,-208 37,-51 45,-97 21,-163 -24,-66 -79,-151 -120,-223 -41,-73 -69,-133 -68,-167 1,-34 32,-41 74,-25 42,17 96,58 164,82 68,24 152,32 216,32 64,0 110,-9 174,-14 64,-5 146,-7 205,-12 59,-5 93,-14 118,-24 25,-11 41,-23 53,-28 12,-5 21,-2 22,17z"/>
  <path class="fil5" d="M3361 9990c24,-4 55,-7 77,13 22,20 36,62 17,106 -19,44 -69,90 -152,114 -83,25 -198,28 -297,18 -99,-11 -183,-35 -235,-56 -52,-20 -73,-36 -85,-68 -12,-33 -17,-82 -11,-112 6,-30 22,-41 52,-39 30,2 73,18 114,32 42,14 82,25 125,32 43,7 89,9 146,5 57,-5 125,-17 167,-26 42,-9 58,-15 81,-19z"/>
  <path class="fil5" d="M3475 10426c39,113 132,344 176,549 44,205 40,384 22,495 -18,111 -51,155 -130,211 -79,56 -203,123 -375,157 -172,34 -391,36 -526,42 -135,6 -186,16 -183,34 3,18 61,43 167,65 106,22 261,42 410,43 148,1 290,-16 411,-45 121,-30 222,-72 301,-100 79,-29 136,-44 187,-46 51,-2 95,9 130,17 35,8 62,12 56,0 -5,-12 -42,-41 -70,-69 -28,-27 -48,-53 -53,-93 -6,-40 2,-94 -5,-202 -6,-108 -26,-270 -72,-424 -46,-153 -118,-298 -189,-410 -71,-112 -141,-193 -185,-242 -44,-50 -63,-68 -79,-80 -17,-11 -31,-16 8,98z"/>
  <path class="fil9" d="M3136 10606c21,14 61,25 92,38 31,12 54,26 61,45 7,19 -1,42 -10,68 -9,26 -18,55 -34,61 -15,6 -36,-11 -62,-23 -26,-12 -56,-18 -87,-21 -31,-3 -64,-4 -90,1 -26,5 -45,16 -55,34 -9,18 -9,44 2,68 10,24 30,46 63,62 33,17 79,29 118,44 39,15 71,34 99,56 27,22 49,47 67,78 17,31 30,69 36,102 6,34 4,64 -3,94 -7,30 -20,59 -41,86 -21,27 -51,53 -86,70 -35,17 -74,27 -96,36 -22,9 -27,18 -29,29 -2,11 -1,23 -1,39 0,16 -2,37 -5,53 -3,16 -8,29 -25,35 -17,6 -46,7 -64,-4 -18,-11 -24,-34 -25,-54 -1,-20 2,-38 1,-53 -1,-15 -8,-26 -20,-33 -12,-7 -30,-10 -60,-17 -30,-7 -71,-19 -100,-29 -29,-10 -46,-18 -49,-35 -3,-17 8,-43 16,-64 9,-22 16,-40 21,-54 5,-15 9,-26 26,-21 17,4 49,24 78,36 29,12 56,17 83,21 27,3 54,5 79,-1 25,-6 49,-21 63,-39 13,-19 16,-42 -4,-71 -20,-28 -62,-62 -105,-90 -43,-28 -86,-50 -116,-69 -29,-19 -45,-35 -60,-60 -15,-25 -30,-59 -39,-91 -8,-32 -10,-61 -9,-90 2,-29 7,-58 14,-85 8,-26 18,-50 41,-71 23,-22 58,-41 85,-53 27,-12 46,-16 59,-21 12,-5 18,-10 24,-28 5,-17 10,-47 18,-66 8,-19 18,-28 36,-32 18,-4 44,-4 61,-1 17,3 25,7 25,19 0,12 -7,31 -10,49 -3,19 -2,37 18,51z"/>
  <g id="_1499597180224">
   <path class="fil8" d="M12086 9261c1,25 -8,71 -62,168 -54,97 -152,246 -191,352 -40,106 -22,168 41,243 63,75 169,164 277,296 108,132 216,308 295,491 79,182 128,371 153,539 24,168 24,314 20,419 -4,105 -12,169 -12,207 -1,38 5,50 23,64 18,14 48,31 79,50 31,19 62,41 80,78 18,37 22,90 24,122 1,32 0,44 -30,49 -30,6 -87,6 -157,-3 -70,-9 -151,-27 -209,-41 -58,-14 -92,-23 -145,-13 -53,10 -124,38 -228,72 -103,35 -238,76 -438,92 -200,17 -465,9 -679,-31 -214,-41 -376,-115 -475,-156 -99,-41 -135,-49 -181,-47 -46,1 -103,12 -172,20 -69,8 -150,14 -208,15 -58,0 -94,-5 -107,-21 -13,-17 -5,-44 17,-85 21,-40 55,-93 89,-130 33,-37 66,-59 92,-67 26,-8 45,-2 58,-6 13,-4 20,-18 22,-47 2,-29 0,-74 -11,-154 -12,-79 -33,-193 -2,-375 31,-182 115,-433 235,-650 120,-218 277,-403 401,-531 123,-128 213,-199 264,-264 51,-65 62,-125 33,-212 -29,-86 -98,-199 -149,-295 -51,-96 -86,-176 -83,-220 3,-44 43,-53 97,-30 54,23 123,78 211,112 88,34 197,47 281,49 84,2 143,-7 227,-12 83,-5 191,-4 268,-9 76,-5 122,-15 155,-27 33,-13 54,-29 71,-35 16,-6 28,-2 29,24z"/>
   <path class="fil5" d="M11796 9745c31,-5 72,-7 101,20 28,27 44,82 18,139 -26,57 -93,114 -202,144 -109,29 -259,30 -388,13 -129,-17 -237,-52 -304,-81 -67,-28 -93,-49 -109,-92 -15,-43 -19,-108 -10,-147 9,-39 30,-53 69,-49 38,4 94,26 148,46 54,19 106,35 162,46 56,10 116,15 191,11 74,-4 163,-18 218,-28 55,-10 76,-17 107,-22z"/>
   <path class="fil5" d="M11930 10319c47,149 160,453 210,722 51,269 39,501 11,646 -28,144 -72,200 -177,270 -105,70 -269,153 -494,192 -225,39 -511,33 -687,36 -176,3 -243,14 -240,38 4,23 78,58 216,91 138,33 339,63 532,70 193,7 378,-11 537,-45 159,-34 292,-86 395,-120 104,-35 179,-52 245,-53 66,-1 123,16 169,27 46,11 80,18 74,2 -6,-16 -54,-55 -89,-92 -36,-37 -60,-71 -66,-123 -6,-52 5,-122 1,-263 -4,-141 -24,-353 -79,-555 -55,-201 -143,-392 -232,-541 -89,-149 -177,-256 -233,-322 -56,-66 -79,-91 -100,-107 -21,-16 -40,-21 7,128z"/>
   <path class="fil9" d="M11482 10541c26,20 78,35 119,52 40,17 69,36 77,61 8,25 -3,55 -16,89 -13,34 -26,72 -46,79 -20,7 -47,-16 -80,-32 -33,-16 -72,-25 -113,-31 -41,-5 -83,-7 -117,-2 -34,6 -60,19 -72,43 -13,24 -13,57 0,89 13,31 38,60 80,84 42,23 102,40 152,62 50,21 92,47 127,76 35,29 63,63 84,104 22,41 37,90 43,135 6,44 3,84 -8,122 -11,38 -28,76 -57,111 -29,35 -68,67 -114,88 -46,21 -98,32 -127,44 -29,11 -36,23 -38,36 -3,14 -2,30 -3,51 -1,21 -4,48 -8,69 -5,21 -11,37 -34,45 -22,8 -61,8 -83,-7 -23,-15 -30,-45 -31,-71 -1,-26 4,-50 3,-69 -1,-19 -10,-34 -25,-44 -16,-10 -39,-13 -77,-24 -38,-11 -92,-28 -130,-42 -38,-14 -59,-25 -62,-48 -3,-22 11,-55 24,-83 12,-28 22,-51 30,-70 7,-19 12,-33 35,-27 22,6 62,33 100,50 37,17 72,25 107,30 35,5 70,8 103,1 33,-7 65,-25 83,-49 18,-24 22,-55 -3,-93 -25,-38 -79,-83 -133,-120 -55,-38 -111,-68 -149,-94 -38,-26 -57,-47 -76,-80 -19,-33 -38,-78 -48,-120 -10,-42 -11,-80 -8,-118 3,-38 11,-76 22,-110 11,-34 26,-64 56,-91 31,-27 77,-52 113,-66 36,-15 61,-19 77,-25 16,-6 24,-13 32,-35 8,-22 15,-60 26,-85 11,-24 24,-36 48,-40 24,-5 57,-3 79,1 22,4 32,10 32,26 0,15 -10,40 -15,64 -5,24 -4,48 22,67z"/>
  </g>
  <g id="_1499597180000">
   <path class="fil1" d="M6076 4669c-25,-21 -58,-45 -99,-63 -41,-18 -90,-30 -137,-33 -48,-3 -94,3 -134,11 -40,8 -75,19 -113,40 -38,21 -80,54 -116,95 -35,42 -64,92 -83,150 -19,57 -28,122 -29,186 -1,64 6,128 17,178 11,51 26,89 44,127 18,38 41,76 66,110 26,35 55,66 91,92 36,27 77,48 116,62 38,14 73,20 116,19 43,0 93,-7 139,-20 46,-12 87,-31 122,-52 34,-21 62,-46 88,-78 26,-31 50,-69 69,-110 19,-41 33,-86 40,-135 8,-49 9,-103 5,-153 -4,-51 -14,-98 -28,-143 -14,-45 -32,-87 -51,-124 -20,-38 -42,-71 -61,-97 -19,-26 -36,-43 -61,-64z"/>
   <path class="fil10" d="M5470 5013c2,-71 18,-135 35,-185 17,-50 36,-88 60,-120 24,-33 54,-61 87,-87 15,-12 32,-24 49,-36 -38,8 -71,19 -108,39 -38,21 -80,54 -116,95 -35,42 -64,92 -83,150 -19,57 -28,122 -29,186 -1,64 6,128 17,178 11,51 26,89 44,127 18,38 41,76 66,110 26,35 55,66 91,92 36,27 77,48 116,62 38,14 73,20 116,19 43,0 93,-7 139,-20 46,-12 87,-31 122,-52 4,-3 9,-6 13,-9 -42,14 -81,27 -114,36 -57,15 -95,20 -139,8 -44,-12 -95,-39 -138,-73 -43,-34 -77,-73 -110,-124 -33,-50 -65,-111 -87,-180 -22,-69 -33,-147 -31,-218z"/>
  </g>
  <path class="fil7" d="M10911 9548c-5,25 -12,93 -24,143 -12,50 -29,83 -51,107 -22,24 -50,39 -73,50 -23,10 -42,15 -33,21 9,6 45,14 69,25 24,12 35,28 46,57 10,29 19,72 25,118 6,46 9,97 13,147 4,50 8,99 10,115 3,16 4,-2 7,-41 2,-39 5,-100 15,-155 10,-55 27,-103 49,-143 22,-40 49,-71 70,-89 21,-17 36,-21 31,-29 -5,-9 -30,-22 -50,-40 -20,-17 -34,-39 -49,-74 -14,-36 -28,-86 -36,-122 -7,-36 -8,-58 -10,-78 -2,-20 -5,-39 -10,-14z"/>
  <g id="_1499597181504">
   <path class="fil1" d="M7111 2698c31,-19 71,-41 120,-54 48,-14 104,-19 158,-15 53,4 104,18 148,34 44,16 80,33 120,63 39,30 81,73 114,124 33,52 56,113 68,180 12,67 12,140 3,211 -9,71 -27,141 -47,196 -20,55 -43,95 -69,134 -27,39 -57,78 -91,112 -34,34 -72,65 -116,89 -44,24 -94,42 -139,51 -45,9 -85,10 -132,3 -47,-7 -102,-23 -151,-44 -49,-21 -92,-48 -127,-77 -35,-29 -61,-61 -85,-100 -24,-39 -45,-85 -59,-133 -15,-49 -23,-101 -23,-156 -1,-56 6,-116 19,-171 13,-56 32,-107 54,-155 23,-48 49,-91 77,-130 28,-39 58,-72 83,-98 25,-25 47,-42 78,-62z"/>
   <path class="fil10" d="M7731 3177c9,-79 1,-153 -10,-211 -11,-59 -26,-103 -48,-143 -22,-40 -51,-77 -83,-111 -15,-16 -31,-32 -48,-47 41,15 76,32 114,60 39,30 81,73 114,124 33,52 56,113 68,180 12,67 12,140 3,211 -9,71 -27,141 -47,196 -20,55 -43,95 -69,134 -27,39 -57,78 -91,112 -34,34 -72,65 -116,89 -44,24 -94,42 -139,51 -45,9 -85,10 -132,3 -47,-7 -102,-23 -151,-44 -49,-21 -92,-48 -127,-77 -5,-4 -9,-8 -13,-12 44,22 86,43 122,58 61,26 102,37 154,31 51,-6 112,-29 165,-59 53,-31 97,-70 142,-120 45,-51 90,-113 125,-186 35,-74 60,-159 69,-238z"/>
  </g>
  <g id="_1499597179648">
   <path class="fil1" d="M9148 4936c-9,-30 -24,-66 -48,-102 -24,-36 -58,-70 -95,-97 -37,-27 -78,-46 -115,-60 -37,-14 -71,-23 -113,-25 -42,-2 -93,3 -143,18 -50,16 -99,43 -144,80 -45,37 -85,85 -119,136 -34,52 -61,107 -78,154 -17,47 -25,86 -29,126 -4,40 -6,82 -2,124 3,41 11,82 27,122 15,40 38,79 62,110 24,31 50,54 85,75 35,22 79,42 123,55 44,13 87,20 126,20 39,0 74,-6 111,-18 37,-12 76,-30 113,-54 37,-24 71,-53 102,-89 31,-36 60,-79 82,-123 22,-43 39,-88 50,-131 12,-44 19,-87 22,-128 3,-41 2,-79 0,-110 -3,-31 -7,-54 -17,-83z"/>
   <path class="fil10" d="M8477 4905c38,-57 84,-101 123,-133 40,-32 74,-53 111,-67 37,-14 75,-22 116,-27 19,-2 38,-4 58,-4 -35,-13 -67,-21 -108,-23 -42,-2 -93,3 -143,18 -50,16 -99,43 -144,80 -45,37 -85,85 -119,136 -34,52 -61,107 -78,154 -17,47 -25,86 -29,126 -4,40 -6,82 -2,124 3,41 11,82 27,122 15,40 38,79 62,110 24,31 50,54 85,75 35,22 79,42 123,55 44,13 87,20 126,20 5,0 10,0 15,0 -42,-10 -80,-20 -112,-29 -54,-17 -87,-32 -118,-65 -30,-32 -58,-81 -75,-130 -17,-49 -25,-99 -26,-157 -1,-58 4,-124 21,-191 18,-68 49,-137 87,-193z"/>
  </g>
  <g id="_1499597178720">
   <path class="fil1" d="M3711 2465c-20,-15 -47,-31 -79,-43 -32,-12 -70,-18 -107,-18 -37,0 -72,7 -102,16 -31,8 -56,18 -85,37 -28,18 -59,45 -83,79 -25,34 -44,74 -55,119 -11,45 -15,95 -13,144 3,49 11,97 23,136 11,38 24,67 41,95 16,28 35,56 57,81 22,25 46,48 74,66 29,18 62,33 92,42 30,9 57,11 90,9 33,-3 71,-10 105,-22 35,-12 65,-28 91,-46 25,-18 45,-39 63,-64 18,-25 35,-55 47,-88 12,-33 20,-67 23,-105 3,-38 1,-79 -5,-118 -6,-39 -16,-75 -29,-108 -13,-34 -29,-65 -46,-92 -17,-28 -36,-52 -52,-71 -16,-19 -30,-31 -50,-46z"/>
   <path class="fil10" d="M3265 2762c-2,-54 7,-104 17,-144 10,-40 23,-69 40,-95 17,-26 38,-50 62,-72 11,-10 23,-20 35,-30 -29,8 -53,18 -80,36 -28,18 -59,45 -83,79 -25,34 -44,74 -55,119 -11,45 -15,95 -13,144 3,49 11,97 23,136 11,38 24,67 41,95 16,28 35,56 57,81 22,25 46,48 74,66 29,18 62,33 92,42 30,9 57,11 90,9 33,-3 71,-10 105,-22 35,-12 65,-28 91,-46 3,-2 6,-5 10,-7 -31,13 -61,25 -86,34 -43,15 -71,20 -106,14 -35,-7 -75,-25 -110,-49 -34,-24 -63,-52 -91,-89 -28,-37 -56,-81 -76,-133 -20,-52 -33,-111 -35,-165z"/>
  </g>
  <g id="_1499597177888">
   <path class="fil1" d="M3800 5273c-18,-8 -42,-17 -70,-20 -27,-3 -58,-2 -87,5 -29,7 -55,18 -78,30 -23,12 -41,24 -60,44 -19,19 -38,46 -52,77 -14,31 -22,66 -23,104 -1,37 5,77 15,115 11,38 26,75 42,103 15,28 31,48 49,67 18,19 37,38 59,54 21,16 44,29 70,39 26,10 55,15 80,17 25,1 47,-1 72,-9 25,-8 54,-21 79,-36 25,-16 46,-34 63,-52 17,-19 28,-38 38,-61 10,-23 18,-50 22,-77 4,-28 4,-57 0,-87 -4,-30 -13,-63 -24,-92 -12,-29 -26,-56 -42,-80 -16,-24 -34,-46 -52,-65 -18,-19 -37,-35 -53,-47 -16,-12 -29,-19 -47,-27z"/>
   <path class="fil10" d="M3501 5585c-11,-42 -13,-83 -12,-116 1,-33 6,-58 14,-82 9,-24 21,-46 36,-67 7,-10 14,-20 23,-30 -21,12 -39,24 -57,42 -19,19 -38,46 -52,77 -14,31 -22,66 -23,104 -1,37 5,77 15,115 11,38 26,75 42,103 15,28 31,48 49,67 18,19 37,38 59,54 21,16 44,29 70,39 26,10 55,15 80,17 25,1 47,-1 72,-9 25,-8 54,-21 79,-36 25,-16 46,-34 63,-52 2,-2 4,-5 6,-7 -22,16 -44,30 -62,41 -31,19 -53,28 -81,29 -28,1 -64,-7 -95,-19 -31,-12 -59,-30 -87,-54 -29,-24 -58,-54 -83,-91 -25,-37 -46,-82 -57,-124z"/>
  </g>
  <g id="_1499597176416">
   <path class="fil1" d="M5081 3391c-18,-8 -42,-17 -70,-20 -27,-4 -58,-2 -87,5 -29,7 -55,18 -78,30 -23,12 -41,24 -60,44 -19,19 -38,46 -52,77 -14,31 -22,66 -23,104 -1,37 5,77 15,115 11,38 26,75 42,103 15,28 31,48 49,67 18,19 37,38 59,54 21,16 44,29 70,39 26,10 55,15 80,17 25,1 47,-1 72,-9 25,-8 54,-21 79,-36 25,-16 46,-34 63,-52 17,-19 28,-38 38,-61 10,-23 18,-50 22,-77 4,-28 4,-57 0,-87 -4,-30 -13,-63 -24,-92 -12,-29 -26,-56 -42,-80 -16,-24 -34,-46 -52,-65 -18,-19 -37,-35 -53,-47 -16,-12 -29,-19 -47,-27z"/>
   <path class="fil10" d="M4782 3703c-11,-42 -13,-83 -12,-116 1,-33 6,-58 14,-82 9,-24 21,-46 36,-67 7,-10 14,-20 23,-30 -21,12 -39,24 -57,42 -19,19 -38,46 -52,77 -14,31 -22,66 -23,104 -1,37 5,77 15,115 11,38 26,75 42,103 15,28 31,48 49,67 18,19 37,38 59,54 21,16 44,29 70,39 26,10 55,15 80,17 25,1 47,-1 72,-9 25,-8 54,-21 79,-36 25,-16 46,-34 63,-52 2,-2 4,-5 6,-7 -22,16 -44,30 -62,41 -31,19 -53,28 -81,29 -28,1 -64,-6 -95,-19 -31,-12 -59,-30 -87,-54 -29,-24 -58,-54 -83,-91 -25,-37 -46,-82 -57,-124z"/>
  </g>
  <path class="fil11" d="M5898 4817c13,6 36,7 54,10 18,3 32,8 38,18 6,9 4,23 2,38 -2,15 -4,32 -12,37 -8,5 -21,-2 -36,-6 -15,-4 -32,-4 -50,-2 -17,2 -35,5 -49,10 -13,6 -23,14 -26,25 -3,11 0,25 8,37 8,12 21,21 41,27 20,6 46,7 68,11 23,4 42,11 59,20 17,9 32,20 44,35 13,15 24,34 30,52 7,18 9,34 8,51 -1,17 -5,34 -13,51 -9,17 -22,34 -39,47 -17,13 -37,22 -48,30 -11,7 -13,13 -12,19 0,6 2,13 4,21 2,9 3,20 3,29 0,9 -1,16 -10,22 -8,5 -24,9 -35,5 -11,-4 -17,-16 -20,-26 -3,-11 -3,-21 -5,-29 -2,-8 -7,-13 -14,-16 -7,-2 -17,-2 -34,-3 -17,-1 -41,-3 -57,-5 -17,-2 -27,-5 -30,-14 -3,-9 -1,-24 2,-37 2,-13 4,-23 6,-32 1,-8 2,-15 12,-14 10,0 29,8 46,11 17,4 32,3 47,2 15,-1 30,-3 43,-9 13,-6 24,-16 30,-28 5,-12 4,-25 -10,-38 -14,-13 -40,-27 -66,-37 -26,-10 -52,-18 -70,-25 -18,-7 -28,-14 -39,-26 -11,-12 -23,-29 -31,-45 -8,-16 -12,-32 -14,-48 -2,-16 -3,-32 -1,-47 1,-15 5,-29 15,-43 10,-14 27,-28 40,-38 13,-9 23,-14 30,-18 6,-4 9,-8 10,-18 1,-10 1,-26 3,-37 2,-11 7,-17 16,-21 9,-4 23,-7 33,-7 9,0 14,1 16,8 1,6 0,17 0,28 0,10 3,20 15,26z"/>
  <path class="fil11" d="M8919 4962c8,11 27,23 41,34 14,11 23,22 23,33 0,11 -8,21 -17,33 -9,12 -19,25 -27,26 -9,0 -17,-12 -28,-22 -11,-10 -26,-18 -41,-25 -15,-7 -32,-13 -46,-14 -14,-2 -26,1 -34,8 -8,8 -12,21 -10,35 1,14 8,28 22,42 14,14 35,28 53,42 17,14 31,29 41,45 10,16 17,32 21,51 4,19 4,40 1,58 -3,18 -9,33 -17,47 -9,14 -20,27 -35,37 -15,10 -35,18 -55,21 -21,3 -42,1 -55,2 -13,1 -17,5 -19,10 -3,5 -4,12 -7,20 -3,8 -7,18 -11,26 -4,8 -9,13 -18,14 -10,0 -25,-4 -32,-13 -7,-9 -7,-21 -4,-32 3,-11 8,-19 9,-27 2,-8 0,-15 -5,-20 -5,-6 -14,-10 -28,-19 -14,-9 -33,-22 -46,-32 -13,-10 -20,-17 -19,-26 1,-9 11,-20 19,-30 8,-10 15,-18 20,-24 5,-7 9,-12 17,-7 8,5 21,20 33,31 13,11 26,18 39,24 13,6 27,11 41,12 14,1 29,-2 38,-10 10,-7 15,-19 10,-37 -5,-18 -21,-42 -38,-63 -17,-21 -36,-40 -48,-54 -12,-15 -17,-25 -21,-41 -4,-15 -6,-35 -5,-53 1,-18 5,-33 11,-47 6,-15 13,-29 21,-41 8,-12 18,-22 33,-29 15,-7 36,-11 52,-13 16,-2 26,0 33,-1 7,0 11,-2 17,-10 6,-8 13,-22 20,-30 7,-8 14,-11 24,-10 10,1 23,5 31,9 8,4 11,8 10,14 -2,6 -9,15 -13,23 -5,9 -7,18 1,29z"/>
  <path class="fil7" d="M3397 9602c-6,32 -15,121 -31,187 -16,66 -38,108 -67,139 -29,31 -65,51 -95,65 -30,13 -54,20 -43,28 12,8 59,18 90,33 31,15 46,37 59,75 13,38 25,93 32,154 8,61 12,126 17,191 5,65 10,129 13,150 4,21 6,-2 8,-53 3,-51 7,-130 20,-202 13,-71 35,-134 64,-186 29,-52 64,-93 91,-116 27,-23 47,-27 40,-38 -7,-11 -39,-29 -65,-52 -26,-23 -45,-50 -63,-97 -19,-46 -37,-112 -47,-159 -10,-47 -11,-75 -13,-101 -2,-26 -6,-51 -12,-18z"/>
  <g id="_1499597174784">
   <path class="fil1" d="M10428 3648c30,-8 68,-16 110,-16 43,0 90,9 132,25 43,16 81,39 112,62 32,23 58,46 83,79 25,34 49,78 63,128 14,50 19,105 13,163 -6,57 -23,117 -47,173 -24,56 -55,109 -85,149 -29,40 -57,67 -88,93 -31,26 -65,50 -101,70 -36,20 -74,36 -115,45 -41,9 -86,12 -125,9 -39,-3 -71,-12 -108,-29 -37,-17 -78,-43 -113,-72 -35,-29 -64,-61 -86,-93 -22,-32 -36,-64 -46,-102 -10,-37 -17,-80 -17,-123 0,-43 5,-87 18,-133 13,-46 32,-93 56,-135 24,-42 51,-80 81,-114 30,-34 62,-63 93,-88 32,-25 64,-45 91,-60 27,-15 48,-24 78,-32z"/>
   <path class="fil10" d="M10820 4186c26,-63 37,-124 42,-175 5,-51 3,-90 -5,-128 -8,-38 -23,-74 -42,-110 -9,-17 -18,-34 -28,-50 30,22 55,44 78,76 25,34 49,78 63,128 14,50 19,105 13,163 -6,57 -23,117 -47,173 -24,56 -55,109 -85,149 -29,40 -57,67 -88,93 -31,26 -65,50 -101,70 -36,20 -74,36 -115,45 -41,9 -86,12 -125,9 -39,-3 -71,-12 -108,-29 -37,-17 -78,-43 -113,-72 -35,-29 -64,-61 -86,-93 -3,-4 -5,-8 -8,-13 31,29 60,55 86,76 43,36 75,54 118,62 43,7 98,3 149,-9 50,-13 96,-34 144,-64 49,-31 100,-71 146,-122 46,-52 86,-115 112,-178z"/>
  </g>
  <path class="fil11" d="M7353 2927c11,11 35,21 53,32 18,10 30,21 33,33 2,12 -5,26 -13,41 -8,15 -16,32 -26,34 -10,2 -21,-10 -36,-20 -15,-10 -32,-16 -51,-21 -19,-5 -39,-8 -55,-8 -16,1 -29,6 -37,16 -7,10 -9,26 -5,42 4,15 14,31 32,44 18,13 45,25 68,38 22,13 40,27 55,43 14,16 26,33 33,54 8,21 12,45 12,66 0,21 -4,39 -11,57 -7,17 -18,34 -33,48 -16,15 -36,27 -59,34 -23,7 -48,9 -62,13 -14,4 -18,8 -20,15 -2,6 -3,14 -4,24 -2,10 -5,22 -8,32 -3,10 -7,17 -18,19 -11,2 -29,0 -39,-8 -10,-8 -12,-23 -10,-35 1,-12 5,-23 6,-32 1,-9 -2,-17 -9,-22 -7,-5 -17,-9 -35,-16 -17,-7 -41,-18 -58,-27 -17,-9 -26,-15 -26,-26 0,-11 9,-25 16,-38 7,-12 13,-23 18,-31 5,-8 8,-15 18,-11 10,4 27,19 44,29 17,10 32,16 49,20 16,5 32,8 48,7 16,-1 32,-8 42,-18 10,-10 14,-24 4,-44 -9,-19 -32,-44 -55,-64 -23,-21 -48,-39 -64,-53 -16,-14 -24,-26 -31,-42 -7,-17 -13,-39 -15,-59 -2,-20 0,-38 3,-56 4,-18 10,-35 17,-50 7,-15 16,-29 32,-40 16,-11 39,-20 57,-24 18,-5 30,-5 38,-7 8,-2 12,-5 17,-15 5,-10 11,-27 17,-38 6,-11 14,-15 25,-16 11,-1 27,2 37,5 10,3 14,7 13,14 -1,7 -7,18 -11,29 -4,11 -5,22 6,33z"/>
  <path class="fil7" d="M7614 2440c-4,18 -9,68 -17,105 -9,37 -21,61 -38,78 -16,18 -37,29 -54,36 -17,8 -31,11 -24,16 7,5 33,10 51,19 18,9 26,21 33,42 7,22 14,53 18,87 4,34 7,71 9,108 3,37 6,73 8,84 2,12 3,-1 5,-30 2,-29 4,-73 11,-114 7,-40 20,-76 36,-105 16,-29 36,-52 52,-65 15,-13 26,-15 23,-21 -4,-6 -22,-16 -36,-29 -14,-13 -25,-28 -36,-54 -10,-26 -21,-63 -26,-89 -5,-26 -6,-42 -7,-57 -1,-15 -3,-29 -7,-10z"/>
  <path class="fil7" d="M8262 4960c-3,15 -7,55 -14,85 -7,30 -17,49 -30,63 -13,14 -30,23 -43,29 -14,6 -25,9 -19,13 5,4 27,8 41,15 14,7 21,17 27,34 6,17 11,42 15,70 4,28 5,57 8,87 2,29 4,59 6,68 2,9 3,-1 4,-24 1,-23 3,-59 9,-92 6,-32 16,-61 29,-85 13,-24 29,-42 42,-52 12,-10 21,-12 18,-17 -3,-5 -18,-13 -29,-23 -12,-10 -20,-23 -29,-44 -8,-21 -17,-51 -21,-72 -4,-21 -5,-34 -6,-46 -1,-12 -3,-23 -6,-8z"/>
 </g>
</svg>
