<?xml version="1.0" encoding="UTF-8"?>
<!DOCTYPE svg PUBLIC "-//W3C//DTD SVG 1.1//EN" "http://www.w3.org/Graphics/SVG/1.1/DTD/svg11.dtd">
<!-- Creator: CorelDRAW 2017 -->
<svg xmlns="http://www.w3.org/2000/svg" xml:space="preserve" width="143mm" height="143mm" version="1.1" style="shape-rendering:geometricPrecision; text-rendering:geometricPrecision; image-rendering:optimizeQuality; fill-rule:evenodd; clip-rule:evenodd"
viewBox="0 0 14300 14300"
 xmlns:xlink="http://www.w3.org/1999/xlink">
 <defs>
  <style type="text/css">
   <![CDATA[
    .fil3 {fill:black}
    .fil1 {fill:#4D4D4D}
    .fil0 {fill:#998293}
    .fil5 {fill:#A5D673}
    .fil4 {fill:#CCCCCC}
    .fil2 {fill:red}
    .fil6 {fill:white}
   ]]>
  </style>
 </defs>
 <g id="Слой_x0020_1">
  <metadata id="CorelCorpID_0Corel-Layer"/>
  <path class="fil0" d="M12338 1284c253,240 650,650 875,944 225,294 277,473 211,708 -65,235 -248,526 -561,860 -313,334 -757,710 -1024,990 -268,280 -360,463 -365,788 -5,325 77,791 93,1281 16,489 -33,1002 -227,1416 -195,414 -535,731 -833,976 -298,245 -554,419 -739,676 -185,257 -300,597 -537,857 -237,260 -595,439 -1085,476 -490,37 -1111,-68 -1599,-103 -489,-35 -845,1 -1172,126 -327,125 -624,339 -1034,713 -409,373 -931,906 -1305,1215 -374,309 -601,394 -863,271 -262,-124 -557,-457 -786,-744 -228,-287 -389,-529 -471,-760 -82,-230 -85,-449 267,-909 353,-460 1061,-1160 1484,-1708 422,-548 558,-942 602,-1356 44,-413 -4,-845 127,-1151 131,-306 442,-486 675,-705 233,-219 387,-476 460,-759 73,-283 64,-591 205,-1068 141,-477 431,-1122 626,-1526 194,-404 293,-567 500,-690 207,-123 523,-207 1025,-148 502,59 1190,261 1657,378 467,117 713,148 1023,26 310,-122 683,-397 936,-584 253,-188 384,-288 554,-409 169,-121 377,-261 518,-341 142,-80 217,-99 309,-74 92,25 200,95 453,335z"/>
  <path class="fil1" d="M6817 8426c106,112 204,211 244,287 40,76 21,128 -30,193 -52,65 -137,143 -201,182 -64,39 -107,40 -167,38 -61,-3 -140,-9 -227,29 -87,38 -182,120 -260,210 -78,89 -137,185 -177,274 -40,89 -60,172 -68,243 -8,71 -5,131 -2,178 2,47 3,83 -28,121 -31,38 -95,79 -191,130 -97,50 -227,109 -317,146 -90,36 -140,49 -195,27 -55,-23 -116,-81 -314,-284 -198,-203 -532,-549 -733,-752 -201,-203 -268,-263 -309,-310 -42,-47 -59,-81 -55,-138 4,-57 28,-137 74,-248 45,-111 111,-252 159,-335 48,-84 77,-111 132,-127 55,-16 137,-22 223,-33 86,-11 176,-28 254,-56 78,-28 144,-67 211,-117 67,-51 135,-114 188,-169 52,-55 89,-101 108,-151 19,-50 20,-105 16,-158 -4,-53 -14,-104 18,-166 32,-62 105,-135 168,-192 63,-57 117,-98 169,-98 52,0 103,42 266,201 163,159 439,436 633,638 194,201 307,327 412,439z"/>
  <path class="fil2" d="M5783 7515c155,149 443,439 657,658 214,219 354,367 414,450 61,83 42,101 18,128 -24,27 -53,64 -103,56 -50,-7 -120,-59 -285,-222 -165,-164 -425,-439 -612,-639 -187,-200 -303,-323 -352,-394 -49,-71 -33,-89 -11,-114 22,-25 49,-56 73,-68 24,-12 45,-5 199,144z"/>
  <path class="fil3" d="M1548 11419c252,-286 773,-808 1150,-1174 378,-367 613,-579 732,-706 119,-128 123,-171 161,-237 39,-66 112,-155 202,-231 90,-76 195,-139 338,-93 143,45 322,199 531,407 209,208 447,471 562,642 116,171 109,249 57,340 -52,91 -149,193 -236,245 -88,52 -167,53 -291,140 -124,86 -294,257 -627,574 -333,318 -830,782 -1134,1074 -304,292 -416,413 -493,459 -77,46 -120,18 -233,-96 -113,-115 -297,-316 -466,-489 -168,-174 -321,-320 -405,-418 -84,-98 -100,-149 153,-435z"/>
  <path class="fil3" d="M11770 1592c-110,105 -307,298 -628,608 -322,311 -767,739 -1073,1031 -305,291 -470,446 -539,550 -69,105 -42,159 82,296 124,137 345,356 535,547 191,191 351,354 443,437 92,83 114,86 175,43 61,-43 159,-130 509,-462 350,-331 952,-906 1304,-1243 352,-337 452,-435 512,-502 60,-67 80,-104 81,-150 2,-46 -15,-100 -97,-200 -82,-100 -231,-246 -400,-417 -168,-171 -357,-366 -471,-483 -114,-117 -154,-156 -189,-176 -34,-20 -63,-20 -88,-12 -25,9 -47,26 -157,131z"/>
  <path class="fil4" d="M8886 5083c-220,-222 -313,-320 -367,-372 -54,-53 -70,-60 -85,-60 -15,0 -30,8 -111,97 -1,1 -1,1 -2,2 -82,91 -232,265 -409,466 -177,200 -380,427 -501,577 -121,150 -158,223 -166,285 -7,62 16,113 98,209 82,97 224,239 366,384 142,144 284,290 379,385 95,95 142,139 186,166 44,27 85,37 135,22 50,-14 108,-53 293,-195 185,-142 497,-388 705,-549 176,-137 276,-214 339,-261 11,-9 22,-16 31,-23 61,-46 80,-60 76,-90 -4,-31 -30,-78 -216,-275 -186,-197 -532,-544 -752,-766zm-504 260c33,-38 56,-66 76,-77 20,-12 38,-8 72,20 34,28 85,81 190,190 104,109 261,275 351,374 89,99 111,131 117,161 6,30 -3,59 -117,159 -114,100 -332,272 -463,370 -130,98 -173,121 -206,126 -33,5 -58,-8 -101,-44 -43,-36 -104,-95 -173,-167 -69,-72 -146,-156 -202,-217 -56,-60 -90,-97 -107,-125 -18,-29 -19,-49 -2,-85 17,-36 52,-86 128,-180 77,-94 195,-231 277,-324 81,-93 126,-143 159,-181z"/>
  <path class="fil1" d="M8289 4716c129,140 384,388 656,671 273,283 563,602 732,783 169,181 217,224 267,240 49,16 99,5 224,-99 125,-105 324,-303 483,-462 159,-158 277,-277 344,-347 67,-70 82,-93 77,-130 -5,-38 -30,-90 -165,-239 -135,-149 -380,-393 -633,-647 -253,-253 -514,-515 -679,-677 -166,-162 -236,-225 -289,-260 -53,-35 -88,-42 -148,-6 -60,36 -146,116 -271,236 -125,119 -290,277 -404,390 -114,112 -176,179 -222,228 -46,49 -76,81 -89,113 -14,33 -11,67 118,207z"/>
  <path class="fil5" d="M7779 7574c-51,-47 -122,-111 -163,-151 -41,-40 -53,-56 -69,-74 -16,-18 -36,-39 -32,-65 4,-26 32,-56 75,-97 43,-41 102,-93 133,-127 30,-34 32,-49 -21,-112 -54,-63 -163,-174 -226,-226 -62,-51 -78,-43 -115,-7 -37,36 -96,100 -143,147 -46,47 -79,77 -102,85 -23,7 -37,-8 -84,-65 -47,-56 -128,-153 -180,-212 -52,-59 -76,-80 -92,-51 -16,29 -24,107 -25,261 -2,154 3,383 0,524 -4,141 -17,194 -11,229 5,35 29,53 119,60 90,7 246,5 395,1 149,-4 290,-8 399,-11 108,-3 182,-4 204,-20 22,-15 -10,-44 -61,-90z"/>
  <path class="fil1" d="M11779 1759c-179,148 -509,464 -815,756 -306,292 -587,560 -792,761 -205,201 -334,336 -350,375 -17,39 78,-18 266,-162 188,-144 469,-376 779,-627 310,-251 649,-521 875,-689 226,-168 338,-233 388,-281 50,-48 39,-79 9,-116 -29,-37 -77,-81 -115,-113 -38,-32 -67,-53 -246,95z"/>
  <path class="fil1" d="M3544 9649c-52,30 -176,129 -369,304 -193,175 -453,426 -686,657 -233,231 -438,441 -594,609 -156,168 -262,293 -317,371 -55,78 -59,109 -31,154 28,46 89,107 135,147 46,41 76,62 115,3 39,-58 88,-196 270,-459 183,-262 500,-649 735,-927 235,-278 388,-447 500,-564 111,-117 181,-183 226,-235 45,-52 66,-91 15,-61z"/>
  <path class="fil6" d="M8189 5117c-87,113 -244,302 -367,462 -123,160 -212,290 -243,383 -31,93 -2,148 99,292 101,144 276,378 390,537 114,159 168,243 138,237 -30,-6 -143,-104 -274,-231 -131,-128 -279,-285 -380,-396 -101,-110 -155,-173 -184,-213 -29,-41 -34,-60 -34,-86 0,-27 6,-61 31,-112 25,-52 69,-121 164,-238 96,-117 244,-280 360,-405 117,-125 202,-211 267,-274 65,-63 110,-104 124,-105 14,-1 -4,36 -91,149z"/>
  <path class="fil2" d="M5318 6200c18,-77 35,-278 19,-453 -16,-175 -65,-323 -141,-426 -75,-104 -177,-164 -252,-160 -75,4 -124,72 -138,160 -13,89 9,199 62,287 53,88 138,154 205,224 67,69 118,142 146,201 28,59 34,103 47,150 13,46 33,95 51,18z"/>
  <path class="fil2" d="M3897 5063c-49,-64 -204,-220 -337,-299 -134,-79 -247,-81 -317,-51 -71,30 -99,91 -79,134 20,43 88,68 168,86 80,18 172,30 257,52 85,22 163,54 231,84 68,30 126,58 77,-6z"/>
  <path class="fil2" d="M3605 4329c-50,-61 -182,-203 -281,-273 -100,-70 -168,-68 -196,-37 -28,30 -15,89 39,136 54,47 149,83 227,113 78,30 139,55 185,78 46,23 76,44 26,-17z"/>
  <path class="fil2" d="M7655 8699c89,20 204,60 291,116 86,56 143,129 159,204 16,76 -9,154 -45,170 -36,17 -83,-29 -130,-81 -47,-52 -94,-111 -175,-184 -81,-73 -196,-160 -223,-204 -27,-43 35,-42 124,-22z"/>
  <path class="fil2" d="M10860 8605c147,21 369,62 522,111 153,49 238,105 290,172 52,68 71,146 35,202 -37,56 -130,89 -259,56 -130,-33 -296,-131 -440,-205 -144,-74 -267,-124 -399,-167 -133,-43 -276,-80 -365,-98 -89,-18 -123,-19 -59,-32 63,-13 225,-38 341,-49 117,-12 188,-11 335,10z"/>
  <path class="fil2" d="M11651 11430c58,39 122,99 169,164 47,66 77,138 74,189 -3,51 -37,82 -66,73 -29,-9 -52,-57 -80,-116 -28,-59 -61,-128 -106,-194 -44,-67 -100,-131 -101,-153 -1,-22 51,-3 110,37z"/>
  <path class="fil2" d="M11546 12224c33,39 69,77 86,125 17,48 15,105 -6,139 -21,34 -61,44 -84,12 -22,-32 -26,-108 -38,-181 -12,-73 -31,-143 -26,-159 5,-15 34,24 67,63z"/>
  <path class="fil2" d="M4145 2177c-12,-34 -65,-134 -115,-201 -50,-67 -98,-102 -127,-106 -29,-4 -40,23 -23,61 17,38 60,86 101,124 41,38 79,65 113,95 34,30 63,62 51,28z"/>
  <path class="fil2" d="M12029 3918c-103,134 -367,414 -526,634 -159,220 -213,380 -233,500 -21,119 -8,198 -32,307 -24,109 -84,248 -208,414 -124,166 -312,358 -463,487 -151,129 -265,196 -334,245 -69,49 -94,79 -103,128 -9,49 -4,118 -1,185 2,67 1,132 -32,183 -33,51 -99,87 -131,53 -32,-35 -30,-141 -26,-221 5,-80 12,-135 -17,-200 -30,-65 -97,-142 -161,-188 -64,-46 -124,-61 -214,-22 -90,39 -209,132 -209,132 0,0 119,-93 216,-196 97,-103 171,-215 242,-265 71,-50 137,-37 221,-68 83,-31 184,-104 317,-220 134,-116 300,-274 388,-407 88,-132 97,-239 100,-319 3,-80 -1,-135 84,-246 85,-111 259,-280 458,-460 199,-180 425,-371 566,-474 142,-102 199,-116 96,18z"/>
  <path class="fil2" d="M9948 10394c37,52 100,190 122,315 22,125 3,238 -51,305 -54,68 -143,90 -190,40 -47,-50 -52,-174 -40,-283 12,-109 41,-205 60,-262 20,-58 30,-78 41,-105 11,-27 21,-61 58,-9z"/>
  <path class="fil2" d="M9995 7580c20,17 46,100 61,167 14,67 17,118 -11,150 -28,32 -86,45 -112,21 -25,-24 -17,-86 -10,-135 8,-49 15,-87 26,-130 11,-43 25,-90 46,-73z"/>
 </g>
</svg>
