<?xml version="1.0" encoding="UTF-8"?>
<!DOCTYPE svg PUBLIC "-//W3C//DTD SVG 1.1//EN" "http://www.w3.org/Graphics/SVG/1.1/DTD/svg11.dtd">
<!-- Creator: CorelDRAW 2017 -->
<svg xmlns="http://www.w3.org/2000/svg" xml:space="preserve" width="143mm" height="143mm" version="1.1" style="shape-rendering:geometricPrecision; text-rendering:geometricPrecision; image-rendering:optimizeQuality; fill-rule:evenodd; clip-rule:evenodd"
viewBox="0 0 14300 14300"
 xmlns:xlink="http://www.w3.org/1999/xlink">
 <defs>
  <style type="text/css">
   <![CDATA[
    .str0 {stroke:black;stroke-width:20}
    .fil6 {fill:black}
    .fil0 {fill:black}
    .fil9 {fill:black}
    .fil10 {fill:#333333}
    .fil5 {fill:#4D4D4D}
    .fil8 {fill:#999999}
    .fil1 {fill:#A3313C}
    .fil4 {fill:#A60000}
    .fil2 {fill:#E6E6E6}
    .fil7 {fill:#F75A6B}
    .fil3 {fill:white}
   ]]>
  </style>
 </defs>
 <g id="Слой_x0020_1">
  <metadata id="CorelCorpID_0Corel-Layer"/>
  <path class="fil0 str0" d="M2621 7004c-37,-16 -93,-33 -169,-55 -76,-21 -171,-46 -282,-112 -112,-66 -240,-175 -325,-248 -86,-73 -129,-112 -160,-155 -31,-42 -49,-88 -51,-128 -2,-40 11,-73 33,-92 22,-19 54,-23 83,-15 29,8 56,27 68,34 12,7 8,2 -17,-25 -25,-26 -73,-74 -100,-121 -28,-47 -36,-93 -28,-131 8,-38 33,-68 64,-77 31,-9 68,3 101,18 33,15 62,32 61,25 0,-7 -29,-37 -52,-64 -22,-27 -38,-50 -40,-77 -2,-27 11,-58 28,-79 17,-21 40,-34 71,-31 31,3 71,22 99,36 27,14 42,23 13,-7 -28,-30 -99,-100 -171,-180 -72,-80 -146,-169 -193,-235 -47,-66 -68,-109 -75,-146 -7,-37 0,-69 17,-82 17,-13 43,-7 118,49 74,56 196,162 307,265 111,103 211,204 292,289 81,85 144,155 168,169 24,14 8,-30 -1,-82 -9,-52 -13,-114 -7,-165 6,-51 22,-92 47,-129 26,-38 62,-72 92,-93 30,-21 55,-27 80,-25 25,2 51,13 64,23 13,10 13,19 5,45 -8,26 -26,69 -36,108 -10,40 -14,77 -8,123 6,46 21,102 51,159 30,57 76,115 108,162 33,47 52,83 102,181 50,97 130,256 227,390 97,134 211,242 185,390 -27,148 -194,336 -295,380 -101,43 -137,-59 -194,-124 -56,-65 -134,-94 -180,-116 -47,-22 -63,-37 -100,-53z"/>
  <path class="fil1" d="M5688 6343c316,-166 477,-499 724,-1220 247,-721 580,-1829 1009,-2236 429,-407 956,-113 1482,182 862,1329 1724,2659 2276,3578 551,919 792,1428 919,2092 127,664 141,1482 375,1977 234,495 688,667 901,835 213,168 186,334 53,497 -132,163 -370,325 -884,393 -514,68 -1306,43 -2276,37 -970,-5 -2117,10 -2783,-92 -666,-102 -851,-320 -1451,-406 -601,-86 -1618,-40 -1844,-113 -226,-73 340,-266 722,-471 383,-205 582,-423 366,-1097 -217,-674 -849,-1805 -1482,-2936 212,-285 424,-570 636,-856 470,1 940,2 1256,-164z"/>
  <g id="_1499522222416">
   <path class="fil0" d="M8806 7597c135,-257 177,-531 -33,-773 -211,-241 -675,-449 -932,-656 -258,-207 -309,-414 -338,-566 -29,-153 -37,-251 4,-325 41,-73 130,-122 229,-226 100,-104 210,-265 306,-441 96,-176 177,-368 222,-580 44,-212 52,-444 4,-688 -48,-244 -151,-499 -292,-697 -140,-197 -318,-337 -554,-427 -237,-90 -532,-131 -798,-136 -266,-6 -503,23 -698,96 -196,73 -351,189 -470,392 -119,203 -202,494 -245,762 -43,268 -45,513 -16,743 29,230 89,446 184,629 95,183 225,334 334,406 109,71 196,63 244,126 48,63 55,196 40,377 -15,181 -53,408 -256,542 -203,134 -572,173 -886,239 -314,66 -572,159 -739,249 -166,90 -240,177 -310,299 -70,122 -137,279 66,531 203,252 674,599 1044,869 370,270 637,463 1098,545 462,82 1118,54 1774,26 144,-193 289,-386 474,-603 185,-216 412,-455 546,-712z"/>
   <path class="fil0" d="M6112 1369c79,38 180,106 278,151 97,45 191,68 295,60 104,-8 219,-48 320,-87 101,-39 189,-79 264,-104 75,-26 139,-38 207,-30 68,8 140,35 200,80 60,45 106,109 155,189 48,81 98,179 135,306 37,127 61,282 82,386 21,104 39,157 95,206 56,49 149,94 245,142 95,48 192,97 273,150 82,53 148,109 192,145 44,36 65,53 50,105 -14,52 -64,140 -191,241 -127,102 -332,217 -586,294 -255,77 -560,117 -908,132 -349,16 -741,8 -1076,-26 -334,-35 -611,-97 -817,-155 -207,-58 -344,-112 -465,-173 -121,-60 -225,-126 -288,-176 -63,-50 -85,-85 -79,-130 6,-45 39,-101 95,-163 57,-62 137,-130 248,-195 111,-65 253,-127 334,-173 82,-46 103,-76 128,-168 26,-92 56,-246 87,-381 31,-135 63,-251 97,-339 34,-88 70,-146 115,-195 45,-48 97,-86 152,-109 55,-23 112,-30 170,-30 57,0 115,8 194,45z"/>
   <path class="fil0" d="M6528 1309c65,-7 173,-12 253,-11 80,1 131,9 159,28 28,19 34,50 32,82 -2,32 -11,65 -50,104 -40,39 -110,82 -183,103 -74,21 -151,19 -206,-2 -55,-21 -88,-61 -109,-105 -21,-44 -30,-93 -29,-123 1,-30 12,-40 28,-50 17,-10 39,-18 104,-25z"/>
   <path class="fil0" d="M5728 4823c-78,37 -215,124 -312,185 -97,61 -153,96 -189,110 -36,14 -51,6 -67,-6 -15,-12 -31,-27 -50,-29 -19,-2 -42,10 -130,74 -88,63 -241,178 -351,257 -110,79 -177,123 -219,139 -42,15 -58,2 -88,-34 -30,-36 -73,-96 -112,-146 -39,-50 -74,-91 -99,-113 -25,-22 -39,-25 -72,-19 -32,7 -83,23 -156,64 -73,41 -167,106 -214,155 -46,50 -44,84 -17,154 27,70 79,177 127,264 48,86 92,152 156,192 64,40 149,53 244,29 95,-24 199,-84 321,-170 122,-85 260,-195 384,-289 123,-94 231,-172 299,-223 68,-51 97,-75 111,-101 14,-26 13,-53 12,-78 -1,-24 -1,-45 42,-82 43,-37 129,-90 204,-141 75,-52 139,-102 185,-136 46,-34 75,-52 80,-67 6,-15 -12,-27 -90,10z"/>
   <path class="fil2" d="M3772 5227c6,-396 -149,-446 -242,-770 -90,-315 482,-364 337,-871 -85,-295 -74,-220 15,-477l5 -27c-222,149 -172,309 -139,498 95,544 -606,473 -286,1004 153,254 213,390 312,643z"/>
   <path class="fil3" d="M7421 6044c-7,-7 -13,-6 -111,15 -98,22 -288,63 -437,95 -149,32 -258,55 -323,66 -65,11 -85,10 -135,-10 -50,-20 -130,-58 -201,-93 -71,-35 -131,-68 -166,-82 -34,-14 -41,-11 -59,4 -17,15 -45,41 -75,65 -30,23 -62,44 -75,57 -13,13 -7,19 54,109 61,90 178,263 236,346 59,83 60,76 105,6 45,-70 133,-202 180,-270 47,-67 53,-70 57,-69 4,1 7,4 47,79 41,75 119,222 160,293 41,71 45,68 51,64 7,-4 16,-7 138,-104 122,-97 356,-287 475,-384 119,-97 123,-99 121,-108 -3,-9 -12,-24 -20,-39 -8,-16 -16,-32 -23,-39z"/>
  </g>
  <path class="fil0 str0" d="M3124 6567c-83,72 -233,231 -325,331 -92,100 -124,140 -143,162 -18,22 -22,24 -7,47 15,23 49,66 86,120 37,54 78,118 109,164 31,46 52,73 75,74 24,1 50,-26 112,-87 62,-62 161,-159 249,-251 88,-92 166,-177 200,-228 34,-51 23,-67 -5,-104 -29,-37 -76,-96 -119,-145 -43,-49 -82,-87 -108,-113 -27,-26 -42,-40 -125,32z"/>
  <path class="fil4" d="M6181 10932c267,30 679,31 908,9 229,-22 274,-67 341,-72 67,-5 157,31 303,88 146,57 349,135 494,177 145,42 234,48 311,88 77,39 144,112 310,158 166,47 431,68 544,166 113,98 75,272 -48,368 -123,96 -330,115 -595,175 -266,59 -591,159 -755,275 -164,116 -169,249 -179,344 -10,95 -26,152 -503,210 -477,59 -1414,119 -2048,30 -635,-89 -967,-326 -1231,-425 -264,-100 -458,-62 -639,-49 -181,13 -347,0 -426,-51 -79,-51 -71,-139 -53,-242 18,-103 45,-219 -107,-299 -152,-80 -484,-122 -656,-228 -172,-106 -184,-276 -123,-374 61,-98 195,-123 339,-145 144,-22 298,-41 407,-100 109,-59 173,-158 327,-234 154,-76 399,-129 802,-185 403,-56 965,-115 1287,-88 322,27 403,141 504,228 101,86 221,145 488,175z"/>
  <path class="fil4" d="M10418 10969c225,-14 599,-1 912,44 313,45 566,123 655,198 89,75 15,149 -185,176 -200,27 -526,7 -843,-17 -317,-24 -626,-53 -837,-93 -211,-40 -323,-91 -320,-127 3,-37 121,-59 218,-91 97,-32 174,-74 400,-88z"/>
  <path class="fil4" d="M9758 12392c143,-3 337,12 499,34 162,22 290,51 373,82 83,31 121,63 28,84 -93,21 -318,31 -516,10 -198,-21 -368,-72 -482,-105 -114,-32 -170,-46 -153,-63 17,-17 108,-39 251,-42z"/>
  <path class="fil4" d="M1914 12134c-23,-17 -269,-17 -370,0 -101,17 -56,50 68,50 123,0 325,-33 302,-50z"/>
  <path class="fil4" d="M1635 12416c-122,18 -287,72 -382,128 -95,56 -119,113 -24,120 95,8 308,-35 467,-75 159,-41 265,-80 292,-105 27,-26 -24,-38 -89,-53 -65,-15 -143,-33 -265,-15z"/>
  <path class="fil4" d="M12394 11663c179,14 434,36 571,68 137,33 155,78 -16,82 -171,4 -531,-33 -719,-70 -188,-37 -204,-74 -160,-88 43,-14 146,-7 325,8z"/>
  <path class="fil5" d="M9460 6231c-126,124 -333,369 -431,512 -98,144 -87,187 -33,240 54,54 151,118 234,124 84,7 154,-45 260,-157 105,-113 246,-286 329,-395 83,-109 109,-153 96,-207 -13,-54 -66,-118 -112,-161 -46,-43 -85,-65 -128,-74 -43,-9 -89,-6 -215,118z"/>
  <path class="fil0" d="M8780 6814c-137,133 -370,387 -654,696 -284,308 -619,670 -829,924 -210,253 -296,397 -308,537 -13,140 48,274 166,374 118,100 294,164 435,126 142,-38 249,-178 485,-485 235,-306 598,-779 844,-1112 246,-333 374,-526 441,-653 66,-127 71,-187 33,-263 -38,-76 -117,-169 -190,-221 -73,-52 -139,-64 -192,-65 -53,-1 -93,10 -230,143z"/>
  <path class="fil6" d="M10613 2940c-1048,69 -1844,943 -1778,1951 67,1008 971,1769 2019,1700 1048,-69 1844,-943 1778,-1951 -67,-1008 -971,-1769 -2019,-1700zm-967 933c244,-267 595,-446 997,-473 402,-27 774,104 1051,337 272,229 453,558 477,932 25,375 -111,724 -350,987 -244,267 -595,446 -997,473 -402,27 -774,-104 -1051,-337 -272,-229 -453,-558 -477,-932 -25,-375 111,-724 350,-987z"/>
  <path class="fil7" d="M9646 3873c244,-267 595,-446 997,-473 402,-27 774,104 1051,337 272,229 453,558 477,932 25,375 -111,724 -350,987 -244,267 -595,446 -997,473 -402,27 -774,-104 -1051,-337 -272,-229 -453,-558 -477,-932 -25,-375 111,-724 350,-987z"/>
  <path class="fil8" d="M7870 8184c-221,337 -394,664 -507,819 -112,155 -164,136 -202,111 -39,-25 -65,-58 -72,-112 -7,-54 4,-130 59,-234 55,-104 154,-237 343,-458 188,-221 466,-530 660,-741 194,-211 306,-325 418,-441 112,-116 224,-235 235,-230 10,4 -82,132 -263,368 -181,236 -449,582 -670,919z"/>
  <path class="fil3" d="M9692 5560c-28,-21 -100,-141 -146,-268 -46,-127 -67,-261 -60,-425 7,-163 41,-356 103,-519 62,-163 151,-297 268,-409 117,-112 261,-201 407,-268 146,-67 294,-112 454,-127 160,-15 332,-2 454,38 122,40 194,105 237,182 43,77 57,167 34,244 -22,77 -81,143 -182,186 -101,43 -246,64 -397,79 -151,15 -309,26 -445,48 -136,22 -249,57 -339,105 -89,48 -155,110 -217,191 -62,81 -120,181 -156,282 -36,101 -50,205 -50,292 0,88 14,160 29,236 15,76 33,155 5,134z"/>
  <path class="fil9" d="M7495 12619c113,-125 209,-238 292,-292 83,-53 153,-46 289,-42 136,5 338,7 439,2 101,-5 101,-16 101,-33 0,-17 0,-40 -2,-60 -2,-20 -7,-39 -40,-52 -33,-14 -94,-23 -191,-25 -96,-2 -228,2 -313,5 -85,2 -124,2 -142,-17 -18,-19 -16,-58 -15,-99 1,-41 1,-84 31,-103 29,-19 88,-15 392,-8 304,7 853,16 1172,22 319,6 407,8 451,20 44,12 44,35 44,60 0,25 0,52 -34,67 -34,15 -102,17 -225,23 -123,6 -299,15 -454,22 -154,7 -286,11 -362,15 -76,3 -96,6 -107,26 -10,20 -10,59 -10,92 0,33 0,60 54,74 54,14 163,14 569,12 406,-1 1109,-3 1616,-5 507,-1 818,-1 993,-5 175,-3 213,-10 241,-16 28,-6 45,-10 52,-26 8,-16 7,-42 18,-60 11,-17 35,-25 50,-15 16,11 23,40 26,95 3,56 0,138 -2,190 -2,52 -5,75 -54,86 -50,11 -146,9 -351,8 -205,-1 -518,-1 -722,-3 -204,-2 -299,-7 -347,0 -48,7 -48,25 -51,52 -3,27 -10,64 -33,100 -23,36 -61,73 -128,88 -67,16 -162,11 -310,8 -147,-3 -347,-6 -614,-6 -267,0 -600,2 -880,2 -280,0 -507,-2 -640,8 -133,10 -171,33 -220,87 -49,54 -109,140 -169,215 -60,75 -121,139 -173,179 -53,40 -98,56 -200,63 -102,8 -261,8 -410,3 -149,-5 -287,-14 -287,-75 0,-61 138,-175 273,-299 135,-125 267,-261 380,-386z"/>
  <path class="fil10" d="M8026 12408c171,-8 475,-9 785,-7 310,2 625,6 744,17 119,12 42,31 -37,51 -79,20 -159,40 -264,50 -105,10 -234,10 -424,11 -190,1 -441,2 -626,1 -185,-1 -306,-5 -377,-7 -71,-3 -94,-5 -94,-18 0,-12 23,-35 53,-54 31,-19 69,-35 240,-43z"/>
  <g id="_1499522279184">
   <path class="fil0 str0" d="M1802 11553c284,-13 729,-65 1162,-89 433,-25 853,-23 1153,-34 300,-11 481,-36 625,-81 144,-45 251,-112 154,-180 -98,-69 -400,-139 -700,-186 -300,-47 -598,-71 -907,-64 -309,7 -630,46 -928,78 -298,32 -574,57 -777,114 -203,56 -332,144 -371,216 -40,73 10,130 97,172 86,42 209,68 493,55z"/>
   <path class="fil0 str0" d="M5088 10635c-267,47 -768,5 -1311,-75 -543,-80 -1130,-199 -1505,-292 -375,-94 -539,-162 -642,-243 -104,-81 -147,-174 -171,-289 -24,-115 -28,-251 -8,-348 20,-97 63,-155 134,-121 71,34 170,159 277,249 106,90 220,144 393,199 173,55 405,111 743,173 338,62 783,130 1114,179 331,49 549,79 749,117 199,38 380,85 454,176 74,91 40,227 -227,274z"/>
   <path class="fil0" d="M7780 10585c50,-47 88,-139 -5,-248 -92,-109 -315,-233 -582,-339 -267,-106 -579,-194 -896,-286 -317,-93 -638,-190 -897,-269 -259,-79 -456,-141 -562,-136 -105,5 -119,76 3,176 122,100 378,229 621,329 242,100 471,171 736,259 265,88 567,192 772,274 205,82 313,142 403,187 90,44 163,73 230,87 67,14 129,13 178,-33z"/>
   <path class="fil5" d="M7996 10745c1,72 -2,173 -47,284 -45,110 -133,229 -255,301 -122,71 -278,94 -452,84 -174,-11 -365,-56 -504,-89 -139,-33 -224,-54 -341,-27 -117,27 -264,104 -481,198 -216,95 -501,208 -922,260 -421,52 -978,43 -1355,35 -377,-8 -573,-15 -640,-38 -67,-22 -4,-60 1,-144 6,-84 -46,-215 -70,-410 -24,-195 -21,-454 -1,-761 20,-307 56,-663 178,-825 122,-162 328,-129 586,-97 258,32 567,62 853,122 286,60 548,149 790,243 242,94 464,193 625,271 161,78 261,136 353,184 92,48 177,87 281,69 104,-17 226,-90 343,-142 117,-51 229,-81 333,-92 104,-11 199,-3 321,49 122,52 271,147 342,216 70,69 62,111 60,153 -2,42 2,85 2,157z"/>
   <path class="fil0" d="M7537 11445c-214,136 -611,353 -1105,448 -494,94 -1086,65 -1441,69 -355,4 -474,40 -513,9 -39,-30 1,-127 75,-194 74,-68 182,-107 422,-124 240,-17 611,-12 918,-42 307,-30 550,-96 746,-165 195,-70 343,-143 467,-214 124,-70 224,-138 315,-170 91,-33 172,-31 236,-2 64,29 110,84 118,139 8,55 -22,111 -236,247z"/>
   <path class="fil9" d="M9302 9957c-33,-6 -69,-13 -85,-32 -15,-19 -10,-51 -23,-56 -13,-6 -44,15 -84,55 -40,40 -91,101 -66,237 25,137 125,350 135,545 10,195 -69,371 -168,476 -99,105 -217,140 -226,181 -9,41 91,89 235,126 144,37 332,64 546,77 214,12 453,10 702,-58 249,-68 507,-201 654,-301 147,-100 184,-166 190,-188 6,-22 -17,1 -60,13 -42,13 -103,15 -127,0 -24,-15 -10,-48 20,-91 29,-43 74,-96 111,-164 37,-68 66,-151 94,-235 28,-83 54,-167 43,-158 -11,10 -60,113 -104,174 -44,61 -82,78 -120,84 -38,6 -75,-1 -72,-36 3,-35 47,-99 78,-162 31,-63 48,-126 41,-129 -7,-3 -40,55 -97,104 -57,49 -140,89 -214,80 -74,-9 -141,-67 -208,-118 -67,-51 -133,-94 -220,-138 -87,-44 -195,-88 -306,-99 -111,-11 -225,11 -288,46 -62,36 -73,85 -80,77 -7,-9 -11,-76 -45,-135 -34,-59 -98,-109 -145,-137 -47,-28 -78,-33 -112,-40z"/>
   <path class="fil0 str0" d="M9532 10585c8,107 11,232 -48,350 -59,118 -182,228 -338,308 -155,79 -344,128 -543,112 -199,-16 -409,-97 -546,-207 -137,-110 -202,-250 -210,-395 -7,-145 43,-295 176,-408 133,-114 350,-191 559,-239 209,-48 411,-67 562,-30 152,37 254,131 311,222 57,91 68,181 76,288z"/>
   <path class="fil3" d="M8611 10724c108,-137 141,-183 321,-150 -128,73 -177,101 -321,150z"/>
   <path class="fil3" d="M8880 10754c-180,-108 -111,-87 -288,-159 150,-94 235,29 288,159z"/>
   <path class="fil3" d="M8747 10280c108,-137 141,-183 321,-150 -128,73 -177,101 -321,150z"/>
   <path class="fil3" d="M9016 10310c-180,-108 -111,-87 -288,-159 150,-94 235,29 288,159z"/>
  </g>
 </g>
</svg>
