<?xml version="1.0" encoding="UTF-8"?>
<!DOCTYPE svg PUBLIC "-//W3C//DTD SVG 1.1//EN" "http://www.w3.org/Graphics/SVG/1.1/DTD/svg11.dtd">
<!-- Creator: CorelDRAW 2017 -->
<svg xmlns="http://www.w3.org/2000/svg" xml:space="preserve" width="143mm" height="143mm" version="1.1" style="shape-rendering:geometricPrecision; text-rendering:geometricPrecision; image-rendering:optimizeQuality; fill-rule:evenodd; clip-rule:evenodd"
viewBox="0 0 14300 14300"
 xmlns:xlink="http://www.w3.org/1999/xlink">
 <defs>
  <style type="text/css">
   <![CDATA[
    .fil6 {fill:black}
    .fil2 {fill:#000066}
    .fil7 {fill:#269BB3}
    .fil3 {fill:#4A94CE}
    .fil1 {fill:#6666CC}
    .fil5 {fill:gray}
    .fil8 {fill:#94E8FF}
    .fil9 {fill:#94E8FF}
    .fil0 {fill:#FFD663}
    .fil4 {fill:red;fill-rule:nonzero}
   ]]>
  </style>
 </defs>
 <g id="Слой_x0020_1">
  <metadata id="CorelCorpID_0Corel-Layer"/>
  <path class="fil0" d="M4649 5117c47,-11 95,-20 125,-77 31,-57 45,-162 51,-288 6,-126 4,-274 -9,-397 -13,-123 -38,-223 -138,-260 -100,-37 -277,-11 -474,51 -197,62 -414,159 -543,240 -129,81 -169,144 -184,224 -16,80 -7,177 9,310 17,133 41,303 71,402 30,99 65,127 122,137 56,10 134,1 166,15 32,14 20,51 17,82 -3,31 3,54 -31,81 -35,26 -110,55 -173,63 -63,8 -115,-5 -163,-55 -47,-50 -91,-136 -136,-289 -45,-154 -92,-375 -104,-542 -12,-167 11,-279 60,-373 48,-94 121,-171 249,-245 128,-74 310,-147 518,-208 208,-61 442,-110 597,-99 154,11 229,82 269,197 39,115 43,276 48,438 5,162 12,327 7,442 -5,115 -23,180 -73,232 -50,51 -134,89 -203,111 -69,22 -124,30 -160,12 -36,-18 -53,-63 -60,-95 -7,-32 -3,-52 22,-69 25,-16 73,-28 120,-39z"/>
  <path class="fil1" d="M4881 7879c-133,-148 -360,-416 -565,-709 -204,-293 -386,-609 -507,-902 -121,-293 -180,-562 -187,-717 -6,-156 41,-198 161,-259 120,-61 313,-142 502,-215 189,-73 373,-139 459,-139 86,-1 74,64 85,167 11,102 45,243 89,384 44,141 99,284 195,482 96,198 233,451 399,676 166,225 361,421 452,538 91,117 77,156 7,254 -70,99 -197,258 -338,379 -141,121 -296,205 -388,243 -92,37 -122,28 -157,10 -35,-18 -75,-44 -208,-192z"/>
  <path class="fil1" d="M8499 10316c33,-7 87,-4 135,18 48,22 90,64 108,100 17,36 9,68 -10,101 -19,33 -49,67 -81,76 -33,9 -68,-7 -101,-29 -34,-22 -66,-49 -90,-76 -25,-27 -41,-54 -43,-79 -1,-25 13,-48 25,-68 13,-20 25,-37 57,-44zm184 -523c-322,-247 -691,-524 -1003,-775 -110,-18 -209,7 -299,59 -145,84 -270,238 -347,382 -2,4 -5,9 -7,13 -12,23 -22,45 -31,67 -51,121 -64,230 -43,309 2,6 4,12 6,18 26,69 54,145 136,210 171,135 352,295 524,444 226,195 571,437 901,670 330,233 694,442 917,574 223,132 305,186 434,216 129,30 305,34 460,15 155,-19 289,-62 406,-93 117,-31 216,-49 236,-94 20,-45 -39,-115 -115,-230 -77,-114 -171,-272 -250,-402 -79,-130 -143,-232 -191,-288 -49,-56 -82,-67 -192,-106 -110,-39 -296,-106 -576,-275 -280,-169 -667,-485 -966,-714zm421 951c48,-5 98,23 137,51 39,28 67,55 66,98 -2,42 -33,99 -67,124 -34,25 -71,19 -108,6 -37,-13 -75,-33 -103,-67 -28,-34 -46,-82 -32,-125 14,-43 59,-82 107,-87zm565 382c43,-7 92,11 137,35 45,24 87,54 105,91 18,37 13,82 -13,119 -27,37 -75,67 -124,67 -49,0 -100,-28 -140,-59 -40,-30 -69,-62 -80,-92 -12,-30 -7,-60 14,-91 21,-31 58,-64 101,-71z"/>
  <path class="fil2" d="M6104 6874c101,-8 227,-4 351,11 124,16 246,43 379,97 133,54 278,133 398,221 120,88 215,186 302,293 88,108 169,226 234,356 66,130 116,273 140,436 24,163 20,346 -15,537 -35,191 -100,391 -207,571 -107,180 -255,340 -396,458 -141,118 -273,193 -453,247 -179,54 -405,86 -580,92 -175,6 -298,-14 -418,-49 -120,-35 -238,-84 -367,-164 -129,-79 -271,-189 -380,-297 -109,-109 -186,-216 -257,-347 -71,-131 -134,-284 -178,-435 -43,-151 -66,-300 -56,-475 10,-175 54,-377 131,-555 76,-178 186,-331 322,-465 136,-134 300,-249 437,-327 137,-78 248,-120 341,-151 93,-30 169,-49 270,-57z"/>
  <path class="fil3" d="M6318 7127c128,8 287,36 431,87 144,51 271,125 379,210 108,85 195,181 269,295 74,114 136,246 173,372 38,126 52,245 54,385 2,141 -9,303 -50,460 -41,157 -113,307 -186,422 -74,114 -149,192 -247,275 -98,83 -217,171 -350,230 -133,59 -278,89 -429,96 -151,8 -307,-6 -459,-49 -152,-43 -300,-115 -429,-210 -129,-96 -238,-215 -324,-333 -86,-119 -147,-236 -195,-355 -47,-119 -80,-239 -94,-360 -13,-122 -7,-245 13,-366 20,-122 55,-242 111,-348 56,-106 135,-199 214,-288 79,-89 159,-175 246,-247 87,-72 182,-131 275,-172 93,-41 185,-64 279,-82 94,-17 189,-29 317,-21z"/>
  <path class="fil4" d="M6300 8574c-21,18 -52,16 -70,-5 -18,-21 -16,-52 5,-70l646 -561c21,-18 52,-16 70,5 10,12 14,27 11,41l-37 223c-5,27 -30,46 -57,41 -27,-5 -46,-30 -41,-57l14 -86 -541 470z"/>
  <path class="fil4" d="M6907 7926c27,-3 52,16 56,44 3,27 -16,52 -44,56l-187 23c-27,3 -52,-16 -56,-44 -3,-27 16,-52 44,-56l187 -23z"/>
  <path class="fil5" d="M6415 9619c12,-1 24,-1 33,13 10,15 17,44 22,83 5,38 9,85 6,118 -2,33 -11,52 -22,60 -12,8 -26,3 -39,-23 -13,-27 -23,-76 -29,-113 -6,-37 -7,-63 -7,-83 0,-20 1,-34 7,-42 6,-8 18,-11 29,-13z"/>
  <path class="fil5" d="M6129 7457c12,-1 23,-4 29,-21 6,-17 5,-47 1,-85 -4,-38 -12,-85 -23,-116 -10,-31 -23,-48 -36,-53 -13,-5 -26,3 -32,32 -6,29 -5,79 -1,117 3,38 9,63 14,82 5,19 9,32 17,39 8,7 20,7 31,5z"/>
  <path class="fil6" d="M6160 7596c16,48 41,142 74,282 34,140 76,327 102,450 26,122 36,181 33,223 -3,42 -19,69 -47,82 -28,13 -69,13 -98,5 -30,-8 -48,-24 -58,-46 -9,-22 -10,-50 -14,-202 -5,-152 -14,-428 -19,-584 -5,-157 -6,-194 -5,-218 0,-24 2,-33 6,-37 4,-4 10,-2 26,46z"/>
  <path class="fil5" d="M7351 8394c-1,-12 -1,-24 13,-33 15,-10 44,-17 83,-22 38,-5 85,-9 118,-6 33,2 52,11 60,22 8,12 3,26 -23,39 -27,13 -76,23 -113,29 -37,6 -63,7 -83,7 -20,0 -34,-1 -42,-7 -8,-6 -11,-18 -13,-29z"/>
  <path class="fil5" d="M5190 8679c-1,-12 -4,-23 -21,-29 -17,-6 -47,-5 -85,-1 -38,4 -85,12 -116,23 -31,10 -48,23 -53,36 -5,13 3,26 32,32 29,6 79,5 117,1 38,-3 63,-9 82,-14 19,-5 32,-9 39,-17 7,-8 7,-20 5,-31z"/>
  <path class="fil0" d="M4291 5203c15,-50 11,-124 4,-220 -7,-95 -17,-212 -23,-305 -6,-93 -7,-161 -16,-207 -10,-46 -29,-69 -52,-75 -23,-5 -51,8 -74,27 -23,19 -43,43 -62,94 -19,50 -39,127 -40,225 -2,98 15,219 23,318 8,99 9,176 25,218 16,42 46,48 71,47 25,-1 44,-11 71,-28 26,-18 60,-44 75,-94z"/>
  <circle class="fil7" transform="matrix(-0.0106224 -0.758402 0.758402 -0.0106224 11139.9 9301.47)" r="474"/>
  <circle class="fil7" transform="matrix(0.125772 -0.992059 0.992059 0.125772 9358.12 4138.71)" r="627"/>
  <circle class="fil7" transform="matrix(0.125772 -0.992059 0.992059 0.125772 5569.35 2686.62)" r="515"/>
  <circle class="fil7" transform="matrix(0.125772 -0.992059 0.992059 0.125772 7225.87 4752.65)" r="1067"/>
  <circle class="fil7" transform="matrix(0.141992 -1.12 1.12 0.141992 5773.05 11227.6)" r="412"/>
  <circle class="fil7" transform="matrix(0.106351 -0.838867 0.838867 0.106351 2919.73 9464.03)" r="330"/>
  <circle class="fil7" transform="matrix(0.125772 -0.992059 0.992059 0.125772 11350 2694.37)" r="593"/>
  <circle class="fil7" transform="matrix(-0.0140049 -0.999902 0.999902 -0.0140049 10069 7662.96)" r="897"/>
  <path class="fil8" d="M9984 6903c103,-6 216,24 274,86 57,63 59,159 -17,222 -75,63 -227,94 -343,132 -115,38 -194,85 -251,138 -57,53 -93,113 -113,189 -20,76 -24,170 -15,246 10,76 33,135 59,191 26,56 55,109 38,117 -17,7 -79,-31 -140,-114 -60,-82 -119,-209 -147,-317 -28,-108 -27,-199 -10,-292 17,-93 50,-190 115,-275 65,-86 163,-160 258,-218 95,-58 188,-99 291,-104z"/>
  <path class="fil8" d="M7173 3783c135,-7 284,31 360,114 75,82 77,209 -22,292 -99,83 -299,123 -450,173 -151,50 -255,111 -330,181 -75,70 -122,148 -149,249 -26,101 -32,223 -20,323 13,100 43,178 78,251 34,74 73,144 50,153 -22,10 -105,-41 -184,-150 -79,-108 -156,-274 -193,-417 -37,-142 -35,-261 -13,-384 22,-123 65,-250 151,-362 86,-113 214,-211 339,-287 125,-76 247,-130 382,-137z"/>
  <path class="fil8" d="M9313 3622c71,-4 150,16 190,60 40,43 41,110 -12,154 -52,44 -158,65 -237,91 -80,27 -134,59 -174,95 -40,37 -64,78 -78,131 -14,53 -17,118 -10,170 7,53 23,94 41,132 18,39 38,76 27,81 -12,5 -55,-22 -97,-79 -42,-57 -82,-145 -102,-220 -20,-75 -19,-138 -7,-202 12,-65 34,-132 80,-191 45,-59 113,-111 179,-151 66,-40 130,-68 202,-72z"/>
  <path class="fil9" d="M5011 6219c-114,-241 -174,-449 -220,-627 -47,-178 -80,-327 -90,-405 -9,-78 5,-86 33,-33 27,52 67,164 116,303 49,139 107,304 175,462 69,158 149,308 235,454 87,146 180,287 249,374 69,87 113,121 120,145 7,24 -23,38 -57,56 -34,18 -73,39 -176,-87 -103,-126 -271,-400 -385,-640z"/>
  <path class="fil9" d="M10201 10855c-55,-36 -231,-106 -426,-209 -195,-103 -408,-239 -672,-432 -264,-193 -578,-444 -787,-608 -209,-164 -313,-242 -372,-282 -59,-41 -73,-44 -93,-30 -19,14 -44,47 -67,78 -22,32 -43,64 34,136 77,72 250,184 470,334 220,150 487,337 733,499 246,162 472,297 652,386 180,88 314,129 415,148 101,19 168,17 113,-20z"/>
 </g>
</svg>
