<?xml version="1.0" encoding="UTF-8"?>
<!DOCTYPE svg PUBLIC "-//W3C//DTD SVG 1.1//EN" "http://www.w3.org/Graphics/SVG/1.1/DTD/svg11.dtd">
<!-- Creator: CorelDRAW 2017 -->
<svg xmlns="http://www.w3.org/2000/svg" xml:space="preserve" width="143mm" height="143mm" version="1.1" style="shape-rendering:geometricPrecision; text-rendering:geometricPrecision; image-rendering:optimizeQuality; fill-rule:evenodd; clip-rule:evenodd"
viewBox="0 0 14300 14300"
 xmlns:xlink="http://www.w3.org/1999/xlink">
 <defs>
  <style type="text/css">
   <![CDATA[
    .str0 {stroke:black;stroke-width:75}
    .fil8 {fill:none;fill-rule:nonzero}
    .fil9 {fill:black}
    .fil1 {fill:black}
    .fil4 {fill:#4D4D4D}
    .fil0 {fill:#9786B8}
    .fil5 {fill:#B3B3B3}
    .fil3 {fill:white}
    .fil6 {fill:white}
    .fil2 {fill:white}
    .fil7 {fill:black;fill-rule:nonzero}
   ]]>
  </style>
 </defs>
 <g id="Слой_x0020_1">
  <metadata id="CorelCorpID_0Corel-Layer"/>
  <path class="fil0" d="M9000 11920c-526,144 -1449,197 -2140,223 -691,26 -1149,26 -1573,38 -423,12 -811,35 -1055,91 -244,56 -344,144 -473,194 -129,50 -288,62 -449,40 -161,-22 -323,-77 -573,-102 -250,-25 -587,-18 -850,-111 -263,-93 -451,-285 -396,-463 55,-178 352,-343 501,-549 149,-206 149,-453 173,-686 24,-233 72,-452 705,-676 231,-82 541,-164 883,-246 55,-49 146,-108 235,-175 198,-149 391,-343 325,-453 -66,-110 -390,-136 -780,-166 -390,-31 -847,-67 -1223,-171 -376,-104 -672,-277 -688,-412 -16,-136 246,-234 540,-275 294,-41 618,-25 972,-12 353,12 735,21 1105,-86 370,-107 727,-329 1000,-561 272,-232 460,-475 698,-625 238,-150 527,-207 758,-222 231,-14 403,14 654,-88 250,-103 579,-337 765,-281 170,51 222,343 307,675 187,-425 370,-846 631,-1078 335,-300 800,-288 1138,-353 338,-65 550,-206 694,-420 144,-215 220,-503 288,-729 68,-226 126,-391 256,-485 129,-94 329,-118 532,-56 203,62 409,209 541,435 132,226 191,532 179,853 -12,320 -94,656 -179,961 -85,306 -173,582 -191,903 -18,320 35,685 76,1044 41,359 71,711 165,988 94,276 253,476 367,614 115,138 185,215 232,335 47,121 71,285 -38,406 -109,121 -350,197 -723,244 -373,47 -879,65 -1267,88 -388,24 -659,53 -861,176 -203,123 -338,341 -470,567 -132,226 -262,462 -788,606z"/>
  <path class="fil1" d="M9867 2379c188,28 399,110 587,264 188,153 352,378 407,623 55,245 2,509 -116,661 -118,152 -301,192 -370,288 -69,96 -25,249 -46,339 -21,90 -107,117 -163,170 -56,53 -83,133 -77,201 5,69 42,127 164,172 122,45 328,77 532,201 204,124 405,341 550,717 145,376 235,910 314,1487 79,577 147,1197 261,1558 115,360 276,461 355,545 79,84 76,150 12,202 -64,52 -189,91 -318,80 -129,-10 -261,-70 -373,-224 -112,-154 -202,-402 -289,-751 -87,-349 -170,-799 -247,-1224 -77,-425 -148,-826 -191,-1090 -43,-264 -58,-392 -81,-421 -23,-29 -55,39 -47,193 8,153 56,392 77,571 21,180 16,302 -53,392 -69,90 -201,148 -323,201 -122,53 -233,101 -292,170 -59,70 -67,161 -66,274 1,113 12,247 20,347 8,100 13,166 -40,227 -53,61 -166,117 -287,146 -121,30 -251,33 -340,11 -89,-22 -136,-69 -151,-189 -15,-120 2,-312 0,-446 -2,-133 -23,-207 -92,-279 -69,-71 -185,-140 -307,-206 -122,-66 -249,-130 -320,-254 -71,-124 -87,-310 -79,-484 8,-175 40,-339 56,-452 16,-114 16,-177 -13,-204 -29,-26 -87,-16 -138,50 -50,66 -93,188 -211,450 -119,263 -314,666 -507,956 -192,290 -382,466 -666,613 -284,147 -663,265 -885,267 -222,2 -287,-113 -268,-199 19,-85 121,-141 302,-229 181,-88 441,-208 667,-369 226,-161 419,-364 568,-642 149,-277 253,-630 358,-906 105,-277 211,-478 362,-636 151,-159 347,-275 500,-339 153,-63 265,-74 347,-87 82,-13 135,-29 175,-61 40,-32 66,-79 79,-138 13,-58 13,-127 -39,-201 -52,-74 -157,-154 -160,-264 -3,-110 95,-252 53,-402 -42,-150 -225,-309 -287,-538 -62,-229 -3,-529 114,-727 117,-198 292,-293 461,-354 169,-61 333,-87 521,-59z"/>
  <path class="fil2" d="M10188 3794c-198,-154 -265,-201 -219,-460 106,183 148,253 219,460z"/>
  <path class="fil2" d="M10227 3406c-153,260 -124,161 -226,416 -137,-214 39,-339 226,-416z"/>
  <path class="fil2" d="M9467 3758c-153,-199 -206,-261 -97,-500 57,204 79,282 97,500z"/>
  <path class="fil2" d="M9603 3392c-213,213 -160,124 -323,346 -79,-242 123,-318 323,-346z"/>
  <path class="fil3" d="M10149 4337c2,-4 -8,2 -37,14 -29,12 -77,30 -106,25 -29,-5 -40,-33 -46,-64 -6,-30 -8,-62 -10,-52 -2,10 -5,62 -24,97 -19,34 -55,51 -82,61 -27,10 -46,14 -56,6 -10,-8 -11,-27 -14,-59 -3,-32 -9,-78 -13,-77 -4,1 -7,49 -9,83 -2,34 -3,52 -19,62 -16,10 -47,11 -71,11 -24,0 -42,-1 -51,-14 -9,-13 -9,-38 -10,-71 -1,-33 -4,-75 -8,-72 -4,3 -10,50 -15,84 -5,34 -9,54 -27,62 -18,8 -50,5 -75,1 -25,-4 -44,-7 -57,-21 -13,-14 -19,-37 -22,-70 -3,-33 -3,-75 -5,-78 -2,-3 -6,33 -9,62 -3,29 -5,50 -17,62 -12,12 -34,16 -58,13 -24,-3 -50,-14 -75,-22 -24,-8 -46,-15 -31,-5 15,10 68,36 104,55 37,19 58,31 67,58 9,27 7,70 11,70 3,1 12,-41 21,-63 9,-22 20,-26 34,-24 14,2 31,9 43,28 12,19 20,51 25,77 5,25 8,44 10,56 2,12 2,17 2,-2 0,-18 0,-60 2,-87 2,-28 6,-42 24,-50 18,-8 50,-11 66,-2 16,9 17,29 18,58 1,29 1,67 4,87 3,20 9,22 13,5 4,-17 5,-54 6,-80 1,-26 2,-41 13,-51 11,-9 32,-13 47,-15 15,-2 25,-2 31,10 6,12 9,35 13,63 4,27 8,58 12,53 4,-5 7,-47 8,-74 2,-27 2,-40 12,-54 11,-14 32,-28 50,-35 18,-7 33,-7 47,-6 14,1 28,4 39,14 11,10 20,28 26,48 7,21 12,44 13,39 1,-5 -4,-40 -5,-63 -1,-24 1,-37 8,-46 7,-9 18,-15 33,-22 15,-6 33,-14 46,-17 13,-4 22,-4 30,5 8,9 15,27 23,48 7,21 15,46 18,38 3,-8 2,-48 2,-74 0,-27 1,-40 9,-53 8,-14 23,-29 25,-33z"/>
  <path class="fil1" d="M9905 8922c-106,98 -235,161 -342,255 -107,94 -191,220 -254,358 -63,138 -105,288 -183,400 -78,112 -192,186 -672,369 -481,182 -1328,473 -1972,677 -644,204 -1085,322 -1366,409 -281,86 -402,141 -496,231 -94,90 -162,215 -224,285 -62,70 -119,85 -186,27 -67,-58 -144,-187 -161,-353 -17,-165 26,-366 241,-538 215,-172 602,-316 1199,-543 597,-227 1403,-536 1858,-752 455,-215 558,-336 586,-397 29,-61 -16,-62 -222,-30 -205,31 -570,94 -1065,228 -495,134 -1120,339 -1607,488 -487,148 -837,239 -1076,249 -239,10 -369,-62 -456,-160 -87,-98 -131,-223 -177,-351 -45,-129 -92,-261 -64,-315 28,-54 129,-28 236,12 107,41 218,96 370,102 152,6 345,-38 717,-158 372,-120 924,-315 1462,-512 538,-197 1063,-396 1432,-527 369,-132 582,-196 740,-242 158,-45 261,-71 364,-51 102,20 204,84 289,150 85,65 153,131 225,117 71,-13 146,-105 169,-219 23,-114 -4,-251 -6,-394 -2,-143 22,-292 108,-374 86,-81 235,-95 355,-86 119,9 210,41 270,102 61,61 92,150 118,352 25,202 44,515 11,738 -32,223 -115,356 -221,454z"/>
  <path class="fil1" d="M9834 2331c68,8 153,-25 261,-36 107,-10 236,3 366,41 129,38 258,101 364,182 106,81 189,180 268,310 79,129 156,288 184,460 28,172 8,358 -5,482 -13,124 -20,187 -12,232 8,45 31,71 91,75 60,3 156,-17 203,-45 47,-28 45,-65 45,-25 0,40 2,156 -30,233 -32,77 -99,115 -190,137 -91,22 -206,26 -274,17 -68,-9 -87,-32 -97,-19 -10,13 -10,63 15,96 25,33 75,50 68,70 -7,20 -70,43 -131,35 -61,-8 -121,-48 -186,-136 -65,-88 -136,-225 -161,-354 -25,-129 -4,-251 -11,-405 -8,-154 -44,-339 -132,-488 -88,-149 -227,-262 -396,-333 -169,-71 -368,-101 -520,-94 -152,7 -258,50 -339,113 -81,63 -137,146 -180,253 -43,108 -73,240 -92,355 -19,115 -28,211 -41,301 -13,89 -31,172 -88,221 -57,49 -153,66 -239,44 -86,-22 -162,-81 -200,-119 -38,-38 -38,-55 -28,-50 10,5 30,31 65,45 35,13 84,13 119,-23 35,-36 55,-109 65,-184 10,-75 10,-151 10,-250 0,-99 0,-222 18,-349 18,-127 55,-260 124,-386 70,-126 172,-245 272,-328 99,-83 195,-129 281,-157 86,-28 162,-38 222,-40 60,-2 103,5 149,33 47,28 97,79 165,87z"/>
  <g id="_2907367320592">
   <path class="fil4" d="M5471 5689c42,-86 120,-226 149,-296 29,-70 11,-70 -57,-101 -68,-31 -186,-94 -304,-147 -118,-53 -236,-98 -306,-116 -70,-18 -92,-11 -151,92 -59,103 -155,302 -214,428 -59,125 -81,177 -79,214 2,37 28,59 133,95 105,37 289,89 406,117 116,28 164,31 214,5 50,-27 101,-83 131,-128 29,-44 37,-76 79,-162z"/>
   <path class="fil4" d="M4233 5739c-31,-140 -55,-300 -67,-386 -12,-86 -12,-97 -91,-93 -79,4 -238,22 -395,45 -158,23 -314,51 -403,67 -88,17 -109,22 -102,66 6,44 40,127 73,241 33,114 66,258 90,359 24,101 39,160 161,175 123,15 353,-12 512,-35 159,-23 245,-41 269,-111 24,-69 -15,-189 -46,-329z"/>
   <path class="fil4" d="M3050 6002c57,-192 153,-514 203,-683 50,-169 55,-185 -35,-235 -90,-50 -274,-134 -436,-190 -162,-56 -302,-84 -391,0 -90,84 -129,279 -191,469 -62,190 -146,374 -186,507 -40,133 -35,214 50,269 85,55 250,83 377,106 127,23 216,42 295,54 79,12 149,16 193,-13 44,-29 63,-92 120,-284z"/>
   <path class="fil5" d="M5885 6051c-29,192 -125,564 -219,909 -94,345 -186,662 -258,850 -72,188 -123,247 -245,296 -122,49 -313,88 -717,107 -404,19 -1019,19 -1392,9 -372,-10 -501,-30 -612,-88 -111,-58 -203,-154 -291,-399 -88,-245 -173,-640 -247,-955 -74,-315 -136,-551 -170,-699 -33,-147 -37,-206 76,-229 112,-22 341,-7 901,-4 560,4 1452,-4 2029,-7 577,-4 839,-4 988,2 149,6 186,17 157,208z"/>
   <path class="fil6" d="M1970 5517c540,-10 1611,-14 2398,-14 787,0 1290,4 1556,13 265,9 293,24 311,54 18,30 25,76 25,157 0,80 -7,194 -18,262 -11,67 -26,88 -193,97 -167,9 -486,7 -1219,4 -734,-4 -1882,-9 -2514,-14 -632,-5 -748,-8 -811,-15 -63,-6 -72,-16 -80,-43 -8,-28 -16,-74 -17,-146 -1,-72 5,-170 6,-226 2,-56 0,-71 4,-87 4,-16 13,-32 553,-42z"/>
   <path class="fil4" d="M3878 6071c-75,64 -214,169 -458,345 -244,176 -592,423 -873,622 -281,199 -495,350 -612,433 -117,83 -137,98 -160,105 -23,7 -49,7 -88,-30 -39,-38 -90,-113 -119,-160 -29,-47 -34,-65 -31,-84 3,-18 14,-37 243,-209 229,-172 677,-499 1015,-749 338,-251 566,-426 702,-525 136,-99 181,-120 220,-125 39,-5 72,7 105,44 33,37 65,100 90,142 25,42 42,63 46,84 4,22 -7,44 -81,108z"/>
   <path class="fil5" d="M3696 5611c35,-18 83,-37 135,-44 53,-7 110,-4 158,18 49,21 89,60 112,112 24,52 30,118 19,180 -12,63 -42,123 -76,161 -34,38 -71,55 -118,63 -48,8 -107,8 -153,-4 -46,-12 -79,-36 -103,-61 -24,-25 -39,-51 -55,-89 -17,-39 -35,-90 -35,-139 0,-49 18,-95 39,-127 20,-32 42,-51 77,-69z"/>
   <path class="fil4" d="M3858 5706c25,-1 51,3 70,19 19,16 31,43 34,71 3,28 -4,57 -18,79 -14,22 -34,35 -54,42 -20,6 -39,6 -60,2 -21,-3 -44,-9 -60,-24 -16,-15 -26,-38 -28,-61 -2,-22 3,-44 12,-62 8,-18 20,-34 37,-46 18,-12 41,-19 66,-20z"/>
   <path class="fil7" d="M3120 7401c-22,3 -44,-79 -67,-246 -23,-167 23,-258 135,-273 113,-15 170,-13 173,7 3,20 -41,36 -132,48 -90,12 -132,44 -125,96 7,52 50,72 128,62 78,-11 119,-6 121,14 3,20 -35,35 -114,45 -78,11 -112,54 -102,130 10,76 4,115 -18,118z"/>
   <path id="1" class="fil7" d="M3463 7219c-4,-31 -8,-63 -13,-96 -4,-34 1,-60 18,-78 16,-19 32,-36 45,-51 14,-16 32,-25 54,-28 22,-3 46,-6 71,-10 25,-3 55,9 91,38 36,28 56,57 60,86 4,29 7,55 11,78 3,23 -1,49 -11,78 -10,29 -28,52 -53,71 -25,18 -45,29 -61,31 -16,2 -36,5 -62,8 -25,3 -56,-9 -92,-37 -36,-28 -56,-58 -60,-88zm52 -89c3,23 6,46 9,70 3,23 16,45 40,65 23,20 43,30 58,28 15,-2 31,-4 46,-6 15,-2 31,-16 49,-42 17,-26 24,-51 21,-75 -3,-24 -6,-47 -9,-69 -3,-22 -16,-44 -40,-64 -24,-20 -43,-30 -58,-28 -15,2 -30,4 -46,6 -15,2 -32,16 -49,42 -17,26 -24,50 -21,73z"/>
   <path id="2" class="fil7" d="M3852 7169c-4,-31 -8,-63 -13,-96 -4,-34 2,-60 18,-78 16,-19 32,-36 45,-51 14,-16 32,-25 54,-28 22,-3 46,-6 71,-10 25,-3 55,9 91,38 36,28 56,57 60,86 4,29 7,55 11,78 3,23 -1,49 -11,78 -10,29 -28,52 -53,71 -25,18 -45,29 -61,31 -16,2 -36,5 -62,8 -25,3 -56,-9 -92,-37 -36,-28 -56,-58 -60,-88zm52 -89c3,23 6,46 9,70 3,23 16,45 40,65 23,20 43,30 58,28 15,-2 31,-4 46,-6 15,-2 31,-16 49,-42 17,-26 24,-51 21,-75 -3,-24 -6,-47 -9,-69 -3,-22 -16,-44 -40,-64 -24,-20 -43,-30 -58,-28 -15,2 -30,4 -46,6 -15,2 -32,16 -49,42 -17,26 -24,50 -21,73z"/>
   <path id="3" class="fil7" d="M4547 7215c-19,3 -30,-4 -32,-19 -2,-15 -8,-13 -17,6 -9,19 -25,31 -47,34 -22,3 -41,5 -55,7 -14,2 -35,-3 -61,-16 -26,-13 -48,-32 -65,-59 -17,-27 -27,-49 -30,-68 -2,-19 -5,-37 -7,-55 -2,-18 0,-43 8,-74 8,-31 23,-56 45,-75 22,-19 41,-29 55,-31 15,-2 28,-4 39,-5 11,-1 26,1 44,8 18,7 31,14 37,20 6,7 5,-20 -3,-80 -8,-60 -2,-91 18,-94 20,-3 42,79 64,246 22,167 24,252 5,254zm-252 -187c3,24 6,48 10,71 3,23 16,45 39,65 23,20 41,30 54,28 13,-2 27,-4 40,-5 13,-2 28,-15 44,-39 16,-24 22,-48 19,-71 -3,-23 -6,-46 -10,-71 -3,-25 -16,-48 -38,-68 -22,-21 -40,-30 -54,-28 -14,2 -28,4 -42,6 -14,2 -28,15 -43,40 -15,25 -21,49 -18,73z"/>
   <path id="4" class="fil8 str0" d="M3120 7401c-22,3 -44,-79 -67,-246 -23,-167 23,-258 135,-273 113,-15 170,-13 173,7 3,20 -41,36 -132,48 -90,12 -132,44 -125,96 7,52 50,72 128,62 78,-11 119,-6 121,14 3,20 -35,35 -114,45 -78,11 -112,54 -102,130 10,76 4,115 -18,118z"/>
   <path id="5" class="fil8 str0" d="M3463 7219c-4,-31 -8,-63 -13,-96 -4,-34 1,-60 18,-78 16,-19 32,-36 45,-51 14,-16 32,-25 54,-28 22,-3 46,-6 71,-10 25,-3 55,9 91,38 36,28 56,57 60,86 4,29 7,55 11,78 3,23 -1,49 -11,78 -10,29 -28,52 -53,71 -25,18 -45,29 -61,31 -16,2 -36,5 -62,8 -25,3 -56,-9 -92,-37 -36,-28 -56,-58 -60,-88zm52 -89c3,23 6,46 9,70 3,23 16,45 40,65 23,20 43,30 58,28 15,-2 31,-4 46,-6 15,-2 31,-16 49,-42 17,-26 24,-51 21,-75 -3,-24 -6,-47 -9,-69 -3,-22 -16,-44 -40,-64 -24,-20 -43,-30 -58,-28 -15,2 -30,4 -46,6 -15,2 -32,16 -49,42 -17,26 -24,50 -21,73z"/>
   <path id="6" class="fil8 str0" d="M3852 7169c-4,-31 -8,-63 -13,-96 -4,-34 2,-60 18,-78 16,-19 32,-36 45,-51 14,-16 32,-25 54,-28 22,-3 46,-6 71,-10 25,-3 55,9 91,38 36,28 56,57 60,86 4,29 7,55 11,78 3,23 -1,49 -11,78 -10,29 -28,52 -53,71 -25,18 -45,29 -61,31 -16,2 -36,5 -62,8 -25,3 -56,-9 -92,-37 -36,-28 -56,-58 -60,-88zm52 -89c3,23 6,46 9,70 3,23 16,45 40,65 23,20 43,30 58,28 15,-2 31,-4 46,-6 15,-2 31,-16 49,-42 17,-26 24,-51 21,-75 -3,-24 -6,-47 -9,-69 -3,-22 -16,-44 -40,-64 -24,-20 -43,-30 -58,-28 -15,2 -30,4 -46,6 -15,2 -32,16 -49,42 -17,26 -24,50 -21,73z"/>
   <path id="7" class="fil8 str0" d="M4547 7215c-19,3 -30,-4 -32,-19 -2,-15 -8,-13 -17,6 -9,19 -25,31 -47,34 -22,3 -41,5 -55,7 -14,2 -35,-3 -61,-16 -26,-13 -48,-32 -65,-59 -17,-27 -27,-49 -30,-68 -2,-19 -5,-37 -7,-55 -2,-18 0,-43 8,-74 8,-31 23,-56 45,-75 22,-19 41,-29 55,-31 15,-2 28,-4 39,-5 11,-1 26,1 44,8 18,7 31,14 37,20 6,7 5,-20 -3,-80 -8,-60 -2,-91 18,-94 20,-3 42,79 64,246 22,167 24,252 5,254zm-252 -187c3,24 6,48 10,71 3,23 16,45 39,65 23,20 41,30 54,28 13,-2 27,-4 40,-5 13,-2 28,-15 44,-39 16,-24 22,-48 19,-71 -3,-23 -6,-46 -10,-71 -3,-25 -16,-48 -38,-68 -22,-21 -40,-30 -54,-28 -14,2 -28,4 -42,6 -14,2 -28,15 -43,40 -15,25 -21,49 -18,73z"/>
  </g>
  <path class="fil9" d="M8030 2804c-196,-28 -542,-73 -733,-93 -191,-20 -227,-17 -248,3 -20,20 -25,55 73,79 98,24 298,36 514,44 216,8 449,12 542,8 93,-3 48,-14 -148,-42z"/>
  <path class="fil9" d="M8175 2370c-175,-146 -487,-403 -697,-545 -209,-142 -317,-171 -352,-145 -36,26 0,105 126,201 125,96 340,209 551,329 211,120 417,248 501,294 84,46 46,11 -130,-135z"/>
  <path class="fil9" d="M11381 2450c68,-66 280,-251 426,-370 146,-119 226,-171 280,-186 54,-15 81,7 59,44 -22,37 -94,90 -215,171 -121,81 -293,192 -417,273 -124,81 -201,134 -134,68z"/>
 </g>
</svg>
