<?xml version="1.0" encoding="UTF-8"?>
<!DOCTYPE svg PUBLIC "-//W3C//DTD SVG 1.1//EN" "http://www.w3.org/Graphics/SVG/1.1/DTD/svg11.dtd">
<!-- Creator: CorelDRAW 2017 -->
<svg xmlns="http://www.w3.org/2000/svg" xml:space="preserve" width="143mm" height="143mm" version="1.1" style="shape-rendering:geometricPrecision; text-rendering:geometricPrecision; image-rendering:optimizeQuality; fill-rule:evenodd; clip-rule:evenodd"
viewBox="0 0 14300 14300"
 xmlns:xlink="http://www.w3.org/1999/xlink">
 <defs>
  <style type="text/css">
   <![CDATA[
    .fil4 {fill:black}
    .fil5 {fill:black}
    .fil2 {fill:#000066}
    .fil0 {fill:#0069E1}
    .fil1 {fill:#4A94CE}
    .fil3 {fill:#94E8FF}
    .fil6 {fill:#EDBF42}
    .fil8 {fill:#FFE77B}
    .fil7 {fill:white}
   ]]>
  </style>
 </defs>
 <g id="Слой_x0020_1">
  <metadata id="CorelCorpID_0Corel-Layer"/>
  <path class="fil0" d="M2916 9642c-280,184 -621,416 -955,657 -334,240 -662,488 -894,680 -232,192 -368,328 -356,480 12,152 172,320 1283,416 1111,96 3173,120 4872,120 1699,0 3033,-24 3897,-126 863,-102 1255,-282 1602,-570 347,-289 649,-686 761,-992 112,-306 34,-520 -116,-674 -150,-154 -371,-249 -1094,-328 -723,-79 -1947,-143 -3171,-172 -1224,-29 -2448,-24 -3300,-8 -852,15 -1331,40 -1680,120 -349,80 -568,215 -847,399z"/>
  <path class="fil1" d="M5955 9105c-665,44 -1390,114 -1911,181 -521,67 -836,131 -1010,-49 -174,-180 -205,-605 -253,-903 -48,-298 -112,-470 -51,-577 61,-107 247,-149 529,-209 282,-60 659,-138 1372,-213 713,-75 1762,-147 2670,-181 908,-34 1676,-30 2407,-2 731,28 1424,80 1889,142 465,62 700,134 816,250 116,116 112,276 76,570 -36,294 -105,723 -285,924 -180,201 -472,175 -928,142 -456,-34 -1077,-75 -1679,-102 -602,-27 -1185,-41 -1779,-39 -594,3 -1198,22 -1863,66z"/>
  <path class="fil2" d="M11863 8355c360,-41 493,-141 626,-241 -36,294 -105,723 -285,924 -180,201 -472,175 -928,142 -456,-34 -1077,-75 -1679,-102 -602,-27 -1185,-41 -1779,-39 -594,3 -1198,22 -1863,66 -665,44 -1390,114 -1911,181 -521,67 -836,131 -1010,-49 -166,-172 -202,-566 -246,-861 58,66 100,120 171,148 91,35 228,29 377,24 149,-5 309,-9 612,-43 304,-34 751,-98 1253,-164 502,-66 1057,-134 1921,-131 864,3 2037,78 2916,124 879,46 1465,63 1825,22z"/>
  <path class="fil2" d="M3166 10507c-34,-364 -114,-1035 -210,-1665 -96,-629 -208,-1217 -340,-1806 -132,-589 -284,-1181 -396,-1523 -112,-342 -184,-434 -252,-472 -68,-38 -132,-22 -152,40 -20,62 4,170 84,434 80,264 216,683 358,1225 142,542 290,1205 402,1830 112,625 188,1213 236,1609 48,396 68,599 90,705 22,106 46,114 78,114 32,0 72,-8 98,-40 26,-32 38,-88 4,-452z"/>
  <path class="fil2" d="M12133 10803c65,-284 142,-868 218,-1430 76,-562 150,-1102 206,-1505 55,-403 91,-670 111,-866 20,-195 24,-319 8,-403 -16,-84 -52,-128 -80,-144 -28,-16 -48,-4 -80,134 -32,138 -76,402 -140,905 -64,504 -148,1247 -226,1842 -78,595 -150,1043 -180,1305 -30,262 -18,338 14,384 32,46 84,62 149,-222z"/>
  <path class="fil3" d="M3947 8141c117,-25 283,-64 416,-86 133,-22 232,-27 317,-15 84,12 154,42 213,61 60,19 109,27 163,29 54,2 112,-1 168,-6 56,-5 111,-11 131,-17 20,-6 5,-10 -21,-40 -26,-30 -63,-84 -98,-116 -35,-31 -68,-40 -101,-36 -33,3 -65,18 -69,18 -4,1 20,-13 37,-26 17,-13 27,-25 32,-82 5,-57 6,-157 10,-219 4,-62 10,-85 35,-132 25,-47 70,-119 70,-187 0,-68 -46,-132 -132,-179 -86,-47 -213,-78 -378,-102 -165,-24 -369,-41 -564,-29 -195,12 -382,53 -534,90 -152,37 -270,70 -390,132 -120,62 -244,154 -322,246 -79,92 -112,185 -120,261 -7,76 12,135 19,188 7,53 0,99 -15,144 -15,46 -39,91 -53,130 -14,39 -17,72 -10,94 7,22 25,34 20,39 -4,5 -31,2 -75,16 -44,14 -106,44 -144,69 -38,25 -53,46 -26,58 27,12 97,17 162,3 65,-14 126,-46 176,-78 50,-32 88,-64 122,-73 34,-9 63,5 97,8 34,2 74,-8 121,-21 47,-13 102,-29 155,-41 53,-12 105,-20 161,-28 56,-8 116,-17 179,-27 63,-10 130,-22 247,-47z"/>
  <path class="fil4" d="M4076 6281c127,-25 271,5 388,65 116,60 205,150 268,226 63,75 100,135 133,177 33,42 63,66 160,84 97,18 260,29 474,58 214,28 480,74 738,125 258,51 509,108 668,195 159,87 228,205 192,332 -36,127 -176,264 -387,343 -211,80 -491,102 -742,99 -250,-4 -471,-34 -676,-99 -205,-65 -395,-163 -499,-268 -104,-104 -123,-214 -169,-256 -46,-42 -118,-15 -241,-11 -123,4 -298,-15 -423,-68 -125,-53 -201,-140 -250,-247 -49,-106 -72,-231 -65,-330 8,-99 46,-171 120,-246 74,-75 184,-154 311,-179z"/>
  <path class="fil3" d="M11778 7319c-93,3 -230,25 -370,222 -140,197 -283,569 -362,890 -79,320 -94,589 -81,842 12,253 52,489 80,652 28,163 46,251 17,282 -28,31 -102,4 -213,-26 -111,-30 -259,-62 -1043,-123 -784,-62 -2204,-154 -3045,-178 -842,-25 -1105,17 -1359,44 -254,27 -498,39 -684,23 -186,-16 -314,-60 -430,-107 -116,-47 -219,-96 -244,-132 -25,-36 30,-58 113,-102 84,-44 197,-111 314,-274 117,-163 237,-421 365,-735 128,-313 264,-680 389,-948 125,-267 238,-435 354,-572 116,-137 234,-243 366,-317 132,-74 277,-116 440,-153 163,-37 343,-69 1119,-34 776,35 2149,136 2954,241 804,105 1041,213 1207,281 166,69 262,98 328,127 65,28 100,55 113,83 13,27 5,55 -22,62 -26,7 -70,-7 -117,-22 -47,-15 -96,-30 -189,-26z"/>
  <g id="_1995421650848">
   <path class="fil5" d="M9514 2576c-173,19 -372,73 -504,243 -132,170 -197,456 -197,706 0,251 65,466 154,612 89,146 202,221 256,288 54,67 49,127 18,173 -30,47 -86,81 -134,109 -48,28 -89,51 -139,74 -50,22 -109,44 -178,76 -69,33 -147,76 -112,113 35,36 182,65 237,206 55,141 17,395 41,691 24,297 111,636 116,840 5,204 -70,271 -190,371 -120,100 -284,232 -422,363 -138,131 -248,260 -298,395 -50,135 -39,275 13,422 52,147 145,301 414,600 270,299 716,744 963,1025 247,282 296,400 309,530 13,129 -8,270 11,386 19,116 78,208 202,170 124,-38 313,-205 423,-377 111,-173 143,-350 140,-474 -3,-124 -40,-194 -163,-337 -122,-142 -329,-357 -522,-571 -193,-214 -371,-426 -526,-624 -154,-198 -284,-380 -300,-518 -16,-137 81,-229 357,-304 276,-75 732,-134 1006,-228 274,-94 365,-223 422,-496 57,-272 78,-687 46,-1095 -32,-407 -119,-806 -221,-1054 -102,-248 -221,-345 -326,-418 -105,-73 -197,-121 -232,-191 -35,-70 -13,-162 46,-294 59,-132 156,-305 175,-499 19,-194 -40,-410 -124,-563 -84,-154 -191,-245 -318,-299 -127,-54 -272,-70 -445,-51z"/>
   <path class="fil5" d="M9789 7524c96,42 278,60 433,131 155,71 283,194 340,346 57,152 44,333 -92,565 -136,232 -395,516 -648,736 -253,220 -501,377 -638,476 -136,100 -160,143 -179,206 -19,63 -32,147 -40,264 -8,117 -11,268 53,419 63,151 193,302 299,310 107,8 190,-127 243,-262 53,-135 74,-270 140,-378 66,-108 177,-189 350,-322 173,-133 409,-318 647,-548 237,-230 475,-506 628,-704 153,-198 220,-317 256,-455 35,-138 38,-294 -5,-435 -43,-141 -133,-267 -288,-426 -155,-159 -376,-350 -549,-437 -173,-86 -297,-67 -466,7 -170,74 -386,204 -488,301 -102,97 -92,162 5,203z"/>
   <path class="fil6" d="M8556 6103c-57,-252 -166,-712 -226,-970 -60,-258 -72,-316 -64,-343 8,-27 37,-24 160,-12 123,13 341,35 506,82 166,47 279,118 354,163 75,45 110,64 140,73 30,9 54,8 150,-25 95,-33 261,-99 405,-162 144,-62 265,-121 340,-157 75,-36 103,-49 128,45 26,93 49,293 82,490 32,197 73,393 114,591 41,199 81,401 88,501 8,100 -17,98 -77,104 -60,7 -155,22 -279,53 -124,31 -277,78 -396,108 -119,30 -205,43 -274,54 -69,11 -121,20 -155,20 -34,0 -49,-9 -104,-41 -54,-32 -148,-85 -278,-131 -130,-45 -296,-82 -393,-98 -97,-15 -124,-10 -141,-30 -17,-20 -23,-65 -80,-318z"/>
   <path class="fil5" d="M10246 4359c79,34 157,68 246,84 89,17 188,16 309,48 121,32 264,97 440,281 177,185 387,489 496,737 109,248 117,439 62,600 -55,160 -174,290 -386,363 -212,73 -516,89 -768,53 -252,-36 -452,-125 -565,-229 -113,-104 -140,-222 -119,-284 22,-62 92,-67 218,-55 127,12 310,42 445,54 135,12 221,7 321,-11 100,-17 214,-47 266,-94 52,-47 41,-112 18,-199 -23,-87 -58,-198 -112,-285 -55,-87 -130,-150 -194,-180 -64,-29 -118,-25 -169,-117 -51,-92 -99,-280 -166,-398 -67,-118 -153,-166 -213,-216 -60,-50 -95,-101 -131,-153z"/>
   <path class="fil5" d="M8349 5212c-102,107 -204,213 -290,373 -86,160 -157,373 -171,569 -14,197 29,377 161,472 132,94 353,102 568,74 216,-28 426,-93 563,-185 138,-92 203,-210 232,-297 30,-88 24,-144 -16,-174 -40,-30 -116,-32 -235,-4 -119,28 -280,88 -413,123 -132,35 -235,46 -293,9 -58,-38 -72,-124 -59,-193 13,-69 51,-120 90,-172 -46,-198 -93,-396 -139,-594z"/>
   <path class="fil7" d="M9828 3858c-29,30 -66,75 -118,102 -52,27 -118,35 -174,35 -56,1 -103,-6 -141,-20 -38,-14 -69,-35 -99,-59 -31,-25 -61,-53 -69,-49 -8,4 7,40 35,86 28,46 69,103 123,141 53,39 118,59 174,61 55,1 101,-17 145,-47 45,-31 89,-75 118,-116 29,-41 44,-80 55,-111 11,-31 17,-54 9,-59 -7,-5 -28,8 -57,38z"/>
  </g>
  <path class="fil7" d="M6066 6791c-12,24 -158,111 -294,322 -136,211 -263,545 -344,883 -81,338 -116,679 -121,942 -6,263 18,449 35,569 17,120 27,174 1,198 -26,24 -88,18 -218,5 -130,-13 -328,-32 -457,-36 -129,-4 -189,7 -169,-35 20,-42 120,-138 232,-322 112,-184 236,-456 350,-777 114,-322 218,-693 342,-984 124,-291 268,-501 401,-625 133,-125 255,-164 243,-140z"/>
  <path class="fil4" d="M5136 6808c115,-21 302,-73 511,-123 208,-50 438,-98 589,-87 151,12 222,83 209,163 -13,80 -110,168 -210,283 -99,115 -201,258 -281,351 -80,93 -138,135 -187,126 -49,-9 -87,-69 -79,-154 9,-86 65,-197 126,-289 61,-93 126,-167 116,-193 -10,-26 -97,-4 -189,42 -93,45 -192,114 -268,140 -76,26 -129,10 -182,-15 -53,-25 -106,-60 -157,-84 -51,-24 -101,-38 -133,-63 -33,-25 -49,-61 -36,-74 13,-13 56,-2 171,-23z"/>
  <path class="fil4" d="M4669 7431c-10,64 -8,149 -15,211 -7,63 -23,103 -76,172 -53,68 -144,165 -213,121 -69,-44 -116,-229 -150,-360 -34,-132 -55,-211 -96,-279 -41,-68 -101,-124 -147,-134 -47,-9 -80,28 -83,133 -4,105 22,277 74,443 52,166 129,324 211,435 81,111 166,175 261,170 96,-4 202,-76 298,-169 96,-93 181,-206 254,-298 73,-91 135,-161 152,-230 17,-70 -10,-139 -70,-201 -60,-62 -154,-117 -218,-143 -64,-26 -97,-25 -124,-2 -27,23 -48,67 -58,132z"/>
  <path class="fil7" d="M4562 6939c21,11 45,36 59,67 14,31 18,69 5,90 -14,21 -45,26 -77,11 -31,-16 -63,-52 -80,-81 -17,-29 -20,-50 -12,-64 8,-14 27,-22 46,-27 19,-5 38,-7 59,4z"/>
  <path class="fil7" d="M3743 8031c-98,30 -322,91 -461,127 -139,36 -194,48 -247,60 -53,13 -104,27 -131,42 -27,15 -31,30 -46,24 -15,-6 -41,-32 -40,-86 2,-53 32,-134 50,-192 19,-59 26,-96 24,-139 -1,-44 -11,-94 -11,-136 0,-42 11,-75 33,-123 22,-47 56,-108 100,-164 44,-56 99,-107 121,-127 22,-20 13,-8 -11,30 -24,38 -62,102 -83,169 -21,67 -26,135 -21,196 4,60 18,112 53,153 36,41 94,70 170,89 76,19 169,29 262,36 93,7 186,10 246,11 60,1 89,0 -9,30z"/>
  <path class="fil8" d="M10219 4882c-131,46 -399,162 -555,225 -156,63 -200,71 -220,93 -19,22 -14,57 14,235 28,177 79,497 118,722 39,226 65,358 80,369 15,11 19,-101 13,-303 -5,-203 -19,-497 -11,-676 8,-179 38,-243 116,-308 78,-65 203,-132 304,-191 101,-59 179,-110 221,-148 42,-38 49,-63 -81,-17z"/>
 </g>
</svg>
