<?xml version="1.0" encoding="UTF-8"?>
<!DOCTYPE svg PUBLIC "-//W3C//DTD SVG 1.1//EN" "http://www.w3.org/Graphics/SVG/1.1/DTD/svg11.dtd">
<!-- Creator: CorelDRAW 2017 -->
<svg xmlns="http://www.w3.org/2000/svg" xml:space="preserve" width="143mm" height="143mm" version="1.1" style="shape-rendering:geometricPrecision; text-rendering:geometricPrecision; image-rendering:optimizeQuality; fill-rule:evenodd; clip-rule:evenodd"
viewBox="0 0 14300 14300"
 xmlns:xlink="http://www.w3.org/1999/xlink">
 <defs>
  <style type="text/css">
   <![CDATA[
    .str0 {stroke:black;stroke-width:25}
    .fil10 {fill:none;fill-rule:nonzero}
    .fil11 {fill:black}
    .fil1 {fill:black}
    .fil4 {fill:#428CCE}
    .fil5 {fill:#4D4D4D}
    .fil8 {fill:#52C6CE}
    .fil0 {fill:#F0889A}
    .fil7 {fill:red}
    .fil3 {fill:#FFE77B}
    .fil6 {fill:white}
    .fil9 {fill:black;fill-rule:nonzero}
    .fil2 {fill:white;fill-rule:nonzero}
   ]]>
  </style>
 </defs>
 <g id="Слой_x0020_1">
  <metadata id="CorelCorpID_0Corel-Layer"/>
  <path class="fil0" d="M10730 10976c334,330 835,864 1211,1266 376,402 626,674 716,840 89,166 17,228 -213,264 -230,36 -619,47 -1051,23 -432,-24 -907,-82 -1241,-191 -334,-109 -528,-270 -702,-445 -174,-175 -330,-364 -529,-615 -199,-251 -442,-563 -629,-723 -187,-159 -319,-165 -666,-165 -347,0 -908,6 -1235,34 -327,28 -421,76 -586,284 -165,207 -402,573 -660,848 -258,275 -536,458 -758,583 -222,125 -389,192 -784,244 -395,51 -1020,86 -1406,92 -386,5 -534,-20 -485,-169 49,-149 293,-421 639,-805 346,-384 793,-880 1119,-1249 326,-369 530,-611 739,-761 210,-151 425,-210 1015,-265 591,-55 1557,-105 2361,-137 804,-32 1445,-44 1831,36 386,81 517,255 666,406 148,150 314,277 648,606z"/>
  <path class="fil1" d="M4984 10451c2,211 10,595 10,838 0,244 -8,347 -81,442 -72,95 -208,182 -361,198 -153,17 -322,-37 -434,-132 -111,-95 -165,-231 -196,-440 -31,-209 -38,-489 -32,-690 6,-200 26,-320 69,-405 43,-85 109,-134 248,-155 138,-21 349,-12 491,2 143,15 217,35 252,64 35,29 31,66 33,277z"/>
  <path class="fil1" d="M10266 10302c60,249 81,695 75,978 -6,283 -39,403 -138,491 -99,89 -264,147 -413,167 -149,21 -281,4 -390,-93 -109,-97 -196,-275 -237,-558 -41,-283 -37,-671 -27,-900 10,-229 27,-299 93,-354 67,-55 183,-94 321,-105 138,-11 298,5 427,39 130,34 229,86 289,335z"/>
  <path class="fil2" d="M3932 4753c-368,85 -725,83 -1085,8 -1234,-257 -2051,-1344 -1826,-2428 226,-1084 1409,-1754 2643,-1497 1234,257 2051,1344 1826,2428 -100,479 -383,874 -780,1149 463,509 926,1018 1388,1527 -2167,-1187 -1445,-791 -2167,-1187z"/>
  <path class="fil3" d="M9387 5517c260,407 723,1200 1016,1654 293,454 417,570 529,690 112,120 211,244 277,624 66,380 99,1016 85,1400 -14,384 -76,516 -221,593 -145,76 -372,97 -1222,105 -851,8 -2325,4 -3516,8 -1191,4 -2100,17 -2598,-8 -498,-25 -584,-87 -640,-388 -56,-301 -81,-842 -72,-1241 8,-398 50,-654 140,-832 91,-178 231,-277 341,-361 109,-85 188,-155 411,-529 223,-374 591,-1051 820,-1452 229,-401 320,-524 456,-599 136,-74 318,-99 834,-109 516,-10 1367,-6 1920,-4 553,2 809,2 966,12 157,10 215,31 475,438z"/>
  <path class="fil4" d="M9001 5847c209,299 543,894 723,1229 180,335 204,409 165,469 -39,60 -142,105 -999,126 -857,21 -2467,17 -3345,10 -877,-6 -1022,-14 -1101,-50 -78,-35 -91,-97 47,-394 138,-297 427,-830 611,-1140 184,-310 262,-396 485,-456 223,-60 591,-93 1121,-105 531,-12 1225,-4 1613,2 388,6 471,10 679,310z"/>
  <path class="fil5" d="M9798 8743c147,-13 312,5 446,108 134,103 237,291 237,489 0,198 -103,407 -270,520 -167,114 -399,132 -564,88 -165,-44 -264,-152 -333,-278 -68,-126 -105,-270 -87,-411 19,-140 93,-277 194,-368 101,-91 229,-136 376,-150z"/>
  <path class="fil5" d="M4623 8765c151,8 299,58 403,142 103,85 161,204 169,366 8,161 -33,363 -129,502 -96,138 -247,213 -398,230 -152,18 -305,-22 -421,-88 -117,-66 -197,-159 -237,-282 -40,-123 -40,-276 -7,-416 33,-140 99,-268 209,-349 109,-81 262,-114 413,-105z"/>
  <g id="_1995426005664">
   <path class="fil1" d="M8154 4943c3,16 -27,54 -48,82 -21,27 -32,43 -115,51 -82,7 -236,6 -525,5 -289,-1 -715,0 -940,-1 -225,0 -248,-1 -268,-10 -20,-9 -38,-28 -51,-50 -13,-22 -23,-48 -14,-62 8,-14 34,-17 205,-17 171,0 487,3 791,4 305,1 599,-1 763,-5 164,-4 199,-12 202,4z"/>
   <path class="fil3" d="M8128 4278c28,46 61,116 89,200 28,84 52,181 65,247 12,66 13,101 8,132 -5,31 -17,59 -35,78 -18,19 -42,30 -217,35 -175,5 -501,4 -806,4 -305,0 -588,2 -769,1 -180,0 -257,-2 -309,-10 -52,-8 -80,-21 -101,-43 -22,-23 -37,-55 -43,-90 -6,-35 -2,-74 21,-155 24,-81 67,-205 102,-288 35,-83 60,-125 93,-156 33,-30 73,-49 137,-59 64,-11 152,-14 365,-14 213,-1 549,0 776,1 226,1 342,1 415,6 73,5 102,15 129,31 27,15 52,36 80,81z"/>
   <rect class="fil1" transform="matrix(0.103348 -4.65225E-05 4.65225E-05 0.103348 6366.22 4591)" width="2201" height="2201"/>
   <rect class="fil1" transform="matrix(0.103348 -4.65225E-05 4.65225E-05 0.103348 6593.62 4363.39)" width="2201" height="2201"/>
   <rect class="fil1" transform="matrix(0.103348 -4.65225E-05 4.65225E-05 0.103348 6821.23 4590.79)" width="2201" height="2201"/>
   <rect class="fil1" transform="matrix(0.103348 -4.65225E-05 4.65225E-05 0.103348 7048.63 4363.19)" width="2201" height="2201"/>
   <rect class="fil1" transform="matrix(0.103348 -4.65225E-05 4.65225E-05 0.103348 7276.23 4590.59)" width="2201" height="2201"/>
   <rect class="fil1" transform="matrix(0.103348 -4.65225E-05 4.65225E-05 0.103348 7503.63 4362.98)" width="2201" height="2201"/>
   <rect class="fil1" transform="matrix(0.103348 -4.65225E-05 4.65225E-05 0.103348 7731.24 4590.38)" width="2201" height="2201"/>
   <path class="fil6" d="M7887 4208c-86,-2 -234,-4 -476,-5 -242,-1 -578,-1 -776,3 -198,4 -257,11 -302,25 -45,14 -75,35 -110,91 -34,56 -72,146 -102,228 -30,82 -53,156 -64,203 -12,48 -12,70 -7,76 5,7 17,-2 50,-60 32,-58 86,-165 137,-244 51,-79 101,-130 161,-166 61,-36 132,-56 287,-73 155,-16 393,-29 611,-37 217,-8 413,-11 531,-13 117,-2 156,-4 175,-7 19,-4 18,-9 6,-13 -12,-4 -35,-6 -121,-8z"/>
  </g>
  <path class="fil2" d="M10547 5521c300,165 606,239 928,239 1103,0 1997,-935 1997,-2087 0,-1152 -894,-2087 -1997,-2087 -1103,0 -1997,935 -1997,2087 0,510 172,972 463,1336 -487,421 -975,841 -1462,1262 2068,-750 1379,-500 2068,-750z"/>
  <path class="fil1" d="M10960 3447c28,-109 106,-337 194,-478 88,-141 187,-195 291,-223 104,-28 212,-30 305,-10 93,20 171,63 236,130 65,67 117,158 152,253 35,95 52,194 36,306 -16,112 -67,238 -133,325 -66,86 -147,133 -205,185 -57,52 -90,111 -122,185 -32,75 -63,166 -106,246 -43,80 -97,150 -154,184 -57,34 -117,32 -175,18 -58,-14 -114,-39 -160,-84 -46,-46 -80,-111 -100,-173 -19,-61 -23,-117 -17,-147 6,-30 21,-34 39,-20 17,14 37,45 61,83 24,39 53,85 87,115 34,30 73,44 122,42 49,-2 110,-19 161,-60 51,-41 94,-105 142,-185 48,-80 100,-177 153,-254 53,-77 108,-133 156,-212 48,-79 91,-182 106,-282 15,-100 1,-197 -34,-280 -35,-83 -91,-153 -148,-197 -57,-44 -115,-61 -181,-65 -66,-4 -140,6 -208,31 -69,25 -133,66 -201,168 -68,102 -139,266 -187,357 -47,92 -71,111 -93,125 -22,15 -44,24 -16,-85z"/>
  <path class="fil1" d="M11828 3067c29,29 47,62 58,99 11,37 16,79 16,114 0,35 -6,63 -22,69 -16,6 -41,-9 -57,-41 -16,-32 -23,-80 -43,-115 -20,-35 -53,-56 -90,-57 -37,-1 -79,18 -112,61 -33,43 -57,109 -62,173 -5,64 10,127 25,189 15,62 31,122 36,174 5,53 0,98 -17,147 -18,49 -49,101 -86,132 -37,31 -81,39 -122,38 -41,-1 -80,-12 -108,-42 -28,-30 -46,-79 -47,-127 -1,-47 15,-92 43,-127 28,-35 69,-62 95,-98 26,-36 36,-83 40,-139 3,-56 0,-121 5,-178 5,-58 20,-108 41,-158 21,-49 49,-98 84,-129 34,-31 75,-46 112,-54 37,-8 71,-9 108,3 37,12 76,36 104,64z"/>
  <path class="fil7" d="M11059 4716c-118,-45 -235,-109 -342,-209 -108,-100 -206,-237 -270,-367 -63,-130 -91,-254 -102,-367 -11,-113 -5,-217 16,-317 21,-101 57,-200 86,-270 28,-70 49,-110 68,-139 19,-28 36,-44 56,-48 20,-4 41,5 145,102 104,97 290,281 520,509 230,227 505,498 664,660 159,162 203,216 220,257 17,41 9,70 -53,109 -62,39 -177,86 -294,118 -117,31 -236,46 -356,40 -120,-6 -240,-32 -359,-77zm594 -1085c-209,-207 -398,-393 -534,-529 -136,-136 -219,-222 -259,-275 -41,-53 -39,-73 -17,-97 22,-23 64,-49 118,-77 54,-28 119,-57 224,-81 105,-24 248,-43 389,-34 140,9 277,45 400,105 123,60 232,145 325,240 93,95 170,201 224,319 54,118 84,247 91,387 7,139 -11,289 -46,413 -35,124 -87,223 -121,273 -34,50 -50,52 -68,46 -17,-5 -36,-17 -161,-137 -124,-120 -354,-348 -563,-555zm554 -1166c-104,-65 -200,-108 -290,-139 -90,-32 -174,-53 -273,-63 -99,-11 -212,-11 -329,5 -117,16 -238,47 -353,94 -116,47 -226,109 -327,187 -101,78 -193,171 -270,275 -77,105 -140,221 -187,342 -48,121 -81,248 -96,361 -15,113 -10,214 5,319 15,105 41,216 82,324 41,108 96,214 166,311 70,97 156,184 254,260 97,76 206,142 345,196 139,54 308,97 462,109 153,12 291,-8 422,-41 132,-33 258,-80 377,-147 119,-68 231,-156 320,-252 89,-96 156,-199 214,-322 58,-123 108,-265 132,-404 24,-139 23,-274 2,-409 -20,-135 -60,-270 -118,-397 -58,-127 -135,-246 -230,-350 -94,-104 -206,-193 -310,-258z"/>
  <path class="fil6" d="M8824 9797c9,86 5,210 -2,288 -7,78 -18,109 -535,118 -517,9 -1541,-6 -2079,-11 -538,-5 -589,0 -615,-67 -26,-67 -27,-205 -26,-299 1,-94 5,-143 45,-182 41,-39 118,-67 596,-74 478,-7 1356,7 1845,16 489,9 587,12 642,16 55,4 65,7 81,34 16,26 37,76 46,162z"/>
  <path class="fil8" d="M8004 5687c-307,-9 -1002,-5 -1455,2 -453,7 -665,18 -818,53 -153,35 -249,95 -355,236 -106,141 -222,363 -353,631 -131,268 -275,582 -303,683 -28,101 60,-12 215,-226 155,-213 377,-527 593,-730 215,-203 423,-295 695,-369 272,-74 607,-131 938,-166 332,-35 660,-49 864,-67 205,-18 286,-39 -21,-48z"/>
  <path class="fil9" d="M2256 2377c6,21 -5,35 -31,43 -27,7 -72,-107 -135,-342 -63,-235 -80,-356 -51,-364 29,-8 55,30 77,114 23,84 40,112 52,84 12,-28 32,-46 61,-53 28,-8 50,-14 66,-18 16,-4 39,-4 71,1 32,5 59,17 84,35 24,18 46,42 65,71 19,30 31,54 36,72 5,18 13,50 25,93 12,44 2,95 -28,155 -30,59 -61,93 -91,101 -30,8 -61,16 -91,24 -30,8 -57,2 -81,-19 -24,-21 -33,-20 -27,1zm-74 -274c8,31 17,62 25,93 8,31 18,52 30,63 12,11 28,26 47,45 20,19 41,25 64,19 23,-6 44,-12 63,-17 19,-5 38,-28 57,-68 19,-40 24,-77 15,-109 -9,-33 -18,-65 -27,-99 -9,-33 -31,-62 -66,-87 -35,-25 -62,-34 -81,-29 -19,5 -38,10 -57,15 -19,5 -38,28 -56,68 -19,40 -24,76 -16,107z"/>
  <path id="1" class="fil9" d="M2773 2267c-29,8 -75,-106 -138,-341 -63,-235 -80,-356 -51,-364 29,-8 75,106 138,341 63,235 80,356 51,364z"/>
  <path id="2" class="fil9" d="M3273 2083c-5,-12 -13,-8 -25,9 -12,18 -32,36 -59,56 -27,19 -48,31 -65,36 -17,5 -40,11 -67,18 -28,8 -61,2 -98,-18 -38,-19 -59,-40 -65,-61 -6,-21 -10,-38 -14,-51 -3,-12 -2,-31 4,-54 6,-24 16,-44 31,-62 15,-18 28,-29 39,-36 11,-6 20,-12 28,-16 8,-5 20,-10 37,-17 17,-7 42,-17 76,-30 34,-13 58,-25 73,-36 15,-10 22,-18 20,-24 -1,-6 -2,-10 -3,-11 0,-2 -3,-11 -8,-29 -5,-18 -12,-29 -22,-34 -10,-5 -22,-11 -36,-18 -14,-7 -31,-7 -53,-1 -22,6 -43,11 -63,17 -20,5 -38,18 -54,37 -16,19 -23,39 -23,58 0,19 -14,31 -43,35 -29,4 -44,-4 -45,-23 -1,-19 4,-42 16,-69 12,-27 32,-51 62,-72 30,-21 56,-35 78,-40 22,-6 44,-12 66,-18 22,-6 48,-7 78,-4 30,3 53,10 70,23 17,12 28,24 34,35 6,11 10,20 14,27 3,7 8,20 13,39 5,19 13,48 23,86 10,39 21,78 32,118 11,40 21,71 30,91 9,20 18,35 26,43 8,8 -3,16 -33,25 -30,8 -49,8 -56,0 -7,-8 -13,-17 -17,-29zm-62 -193c-3,-11 -11,-10 -25,0 -14,11 -36,22 -66,35 -30,13 -54,23 -71,30 -17,7 -32,16 -45,26 -13,10 -22,23 -27,37 -5,14 -6,25 -4,33 2,8 5,17 8,29 3,12 15,23 37,33 22,11 41,14 58,9 17,-4 34,-9 50,-13 17,-4 36,-18 58,-39 22,-22 35,-40 37,-54 3,-14 5,-27 7,-38 2,-11 1,-26 -5,-45 -5,-19 -9,-34 -12,-44z"/>
  <path id="3" class="fil9" d="M3539 1828c-89,24 -137,21 -145,-8 -8,-29 33,-55 121,-79 89,-24 137,-21 145,8 8,29 -33,55 -121,79z"/>
  <path id="4" class="fil10 str0" d="M2256 2377c6,21 -5,35 -31,43 -27,7 -72,-107 -135,-342 -63,-235 -80,-356 -51,-364 29,-8 55,30 77,114 23,84 40,112 52,84 12,-28 32,-46 61,-53 28,-8 50,-14 66,-18 16,-4 39,-4 71,1 32,5 59,17 84,35 24,18 46,42 65,71 19,30 31,54 36,72 5,18 13,50 25,93 12,44 2,95 -28,155 -30,59 -61,93 -91,101 -30,8 -61,16 -91,24 -30,8 -57,2 -81,-19 -24,-21 -33,-20 -27,1zm-74 -274c8,31 17,62 25,93 8,31 18,52 30,63 12,11 28,26 47,45 20,19 41,25 64,19 23,-6 44,-12 63,-17 19,-5 38,-28 57,-68 19,-40 24,-77 15,-109 -9,-33 -18,-65 -27,-99 -9,-33 -31,-62 -66,-87 -35,-25 -62,-34 -81,-29 -19,5 -38,10 -57,15 -19,5 -38,28 -56,68 -19,40 -24,76 -16,107z"/>
  <path id="5" class="fil10 str0" d="M2773 2267c-29,8 -75,-106 -138,-341 -63,-235 -80,-356 -51,-364 29,-8 75,106 138,341 63,235 80,356 51,364z"/>
  <path id="6" class="fil10 str0" d="M3273 2083c-5,-12 -13,-8 -25,9 -12,18 -32,36 -59,56 -27,19 -48,31 -65,36 -17,5 -40,11 -67,18 -28,8 -61,2 -98,-18 -38,-19 -59,-40 -65,-61 -6,-21 -10,-38 -14,-51 -3,-12 -2,-31 4,-54 6,-24 16,-44 31,-62 15,-18 28,-29 39,-36 11,-6 20,-12 28,-16 8,-5 20,-10 37,-17 17,-7 42,-17 76,-30 34,-13 58,-25 73,-36 15,-10 22,-18 20,-24 -1,-6 -2,-10 -3,-11 0,-2 -3,-11 -8,-29 -5,-18 -12,-29 -22,-34 -10,-5 -22,-11 -36,-18 -14,-7 -31,-7 -53,-1 -22,6 -43,11 -63,17 -20,5 -38,18 -54,37 -16,19 -23,39 -23,58 0,19 -14,31 -43,35 -29,4 -44,-4 -45,-23 -1,-19 4,-42 16,-69 12,-27 32,-51 62,-72 30,-21 56,-35 78,-40 22,-6 44,-12 66,-18 22,-6 48,-7 78,-4 30,3 53,10 70,23 17,12 28,24 34,35 6,11 10,20 14,27 3,7 8,20 13,39 5,19 13,48 23,86 10,39 21,78 32,118 11,40 21,71 30,91 9,20 18,35 26,43 8,8 -3,16 -33,25 -30,8 -49,8 -56,0 -7,-8 -13,-17 -17,-29zm-62 -193c-3,-11 -11,-10 -25,0 -14,11 -36,22 -66,35 -30,13 -54,23 -71,30 -17,7 -32,16 -45,26 -13,10 -22,23 -27,37 -5,14 -6,25 -4,33 2,8 5,17 8,29 3,12 15,23 37,33 22,11 41,14 58,9 17,-4 34,-9 50,-13 17,-4 36,-18 58,-39 22,-22 35,-40 37,-54 3,-14 5,-27 7,-38 2,-11 1,-26 -5,-45 -5,-19 -9,-34 -12,-44z"/>
  <path id="7" class="fil10 str0" d="M3539 1828c-89,24 -137,21 -145,-8 -8,-29 33,-55 121,-79 89,-24 137,-21 145,8 8,29 -33,55 -121,79z"/>
  <path class="fil9" d="M2237 3646c11,19 5,35 -19,50 -24,14 -98,-83 -224,-291 -125,-208 -175,-320 -150,-336 25,-15 61,14 105,88 45,74 69,96 73,66 4,-30 19,-53 44,-68 25,-15 45,-27 59,-35 14,-8 37,-15 68,-18 32,-4 62,0 90,10 28,11 56,28 82,51 27,23 45,43 54,59 10,16 26,44 50,83 23,39 29,91 16,156 -13,65 -33,106 -60,122 -27,16 -54,32 -80,48 -27,16 -54,18 -83,4 -29,-13 -37,-10 -26,9zm-147 -242c17,28 33,55 49,82 16,27 32,44 47,52 15,8 34,18 58,30 24,12 46,13 67,0 21,-12 39,-24 56,-34 17,-10 29,-37 36,-81 7,-44 2,-80 -16,-109 -17,-29 -35,-58 -53,-88 -18,-30 -47,-51 -87,-65 -40,-14 -69,-16 -86,-6 -17,10 -33,20 -50,30 -17,10 -29,37 -36,81 -7,44 -2,80 14,107z"/>
  <path id="1" class="fil9" d="M2703 3398c-26,15 -101,-81 -227,-290 -125,-208 -175,-320 -150,-336 26,-15 101,81 226,290 125,208 175,320 150,336z"/>
  <path id="2" class="fil9" d="M3133 3083c-8,-10 -15,-5 -22,16 -7,21 -21,44 -41,70 -20,26 -38,43 -53,52 -15,9 -35,21 -60,36 -25,15 -58,18 -99,10 -41,-8 -68,-22 -79,-41 -11,-19 -20,-34 -27,-45 -7,-11 -10,-29 -11,-53 -1,-24 3,-47 13,-68 10,-21 19,-36 27,-45 9,-9 16,-17 22,-23 6,-7 17,-15 31,-26 14,-11 36,-28 64,-50 29,-22 49,-41 60,-54 12,-14 16,-24 13,-29 -3,-5 -5,-9 -6,-10 -1,-2 -6,-10 -15,-26 -9,-16 -20,-24 -31,-27 -11,-2 -24,-4 -39,-7 -15,-3 -32,2 -52,13 -19,12 -38,23 -56,34 -18,11 -32,28 -41,51 -10,23 -12,44 -6,62 5,19 -5,34 -32,45 -27,12 -44,8 -50,-10 -6,-18 -8,-42 -4,-71 4,-29 17,-58 40,-86 23,-28 45,-48 64,-60 19,-12 39,-23 58,-35 19,-12 44,-20 73,-26 30,-6 54,-5 74,2 20,7 34,15 42,24 9,9 16,16 21,22 5,6 13,17 23,34 10,17 26,43 46,77 21,34 42,69 63,105 21,36 39,62 54,79 15,17 27,28 37,34 10,6 2,17 -25,33 -27,16 -44,21 -53,16 -9,-6 -17,-13 -24,-23zm-112 -169c-6,-9 -14,-7 -24,7 -10,14 -28,31 -54,52 -25,21 -45,37 -60,49 -14,12 -26,24 -36,38 -10,14 -15,28 -15,43 -1,15 1,26 5,33 4,7 9,15 15,25 6,10 21,18 45,22 24,4 43,2 58,-7 15,-9 30,-18 45,-27 15,-9 30,-27 45,-54 15,-27 22,-47 21,-62 -1,-14 -3,-27 -4,-38 -1,-11 -7,-25 -17,-42 -10,-17 -18,-30 -24,-39z"/>
  <path id="3" class="fil9" d="M3318 2764c-79,47 -126,58 -141,32 -15,-26 16,-62 95,-109 79,-47 126,-58 141,-32 15,26 -16,62 -95,109z"/>
  <path id="4" class="fil10 str0" d="M2237 3646c11,19 5,35 -19,50 -24,14 -98,-83 -224,-291 -125,-208 -175,-320 -150,-336 25,-15 61,14 105,88 45,74 69,96 73,66 4,-30 19,-53 44,-68 25,-15 45,-27 59,-35 14,-8 37,-15 68,-18 32,-4 62,0 90,10 28,11 56,28 82,51 27,23 45,43 54,59 10,16 26,44 50,83 23,39 29,91 16,156 -13,65 -33,106 -60,122 -27,16 -54,32 -80,48 -27,16 -54,18 -83,4 -29,-13 -37,-10 -26,9zm-147 -242c17,28 33,55 49,82 16,27 32,44 47,52 15,8 34,18 58,30 24,12 46,13 67,0 21,-12 39,-24 56,-34 17,-10 29,-37 36,-81 7,-44 2,-80 -16,-109 -17,-29 -35,-58 -53,-88 -18,-30 -47,-51 -87,-65 -40,-14 -69,-16 -86,-6 -17,10 -33,20 -50,30 -17,10 -29,37 -36,81 -7,44 -2,80 14,107z"/>
  <path id="5" class="fil10 str0" d="M2703 3398c-26,15 -101,-81 -227,-290 -125,-208 -175,-320 -150,-336 26,-15 101,81 226,290 125,208 175,320 150,336z"/>
  <path id="6" class="fil10 str0" d="M3133 3083c-8,-10 -15,-5 -22,16 -7,21 -21,44 -41,70 -20,26 -38,43 -53,52 -15,9 -35,21 -60,36 -25,15 -58,18 -99,10 -41,-8 -68,-22 -79,-41 -11,-19 -20,-34 -27,-45 -7,-11 -10,-29 -11,-53 -1,-24 3,-47 13,-68 10,-21 19,-36 27,-45 9,-9 16,-17 22,-23 6,-7 17,-15 31,-26 14,-11 36,-28 64,-50 29,-22 49,-41 60,-54 12,-14 16,-24 13,-29 -3,-5 -5,-9 -6,-10 -1,-2 -6,-10 -15,-26 -9,-16 -20,-24 -31,-27 -11,-2 -24,-4 -39,-7 -15,-3 -32,2 -52,13 -19,12 -38,23 -56,34 -18,11 -32,28 -41,51 -10,23 -12,44 -6,62 5,19 -5,34 -32,45 -27,12 -44,8 -50,-10 -6,-18 -8,-42 -4,-71 4,-29 17,-58 40,-86 23,-28 45,-48 64,-60 19,-12 39,-23 58,-35 19,-12 44,-20 73,-26 30,-6 54,-5 74,2 20,7 34,15 42,24 9,9 16,16 21,22 5,6 13,17 23,34 10,17 26,43 46,77 21,34 42,69 63,105 21,36 39,62 54,79 15,17 27,28 37,34 10,6 2,17 -25,33 -27,16 -44,21 -53,16 -9,-6 -17,-13 -24,-23zm-112 -169c-6,-9 -14,-7 -24,7 -10,14 -28,31 -54,52 -25,21 -45,37 -60,49 -14,12 -26,24 -36,38 -10,14 -15,28 -15,43 -1,15 1,26 5,33 4,7 9,15 15,25 6,10 21,18 45,22 24,4 43,2 58,-7 15,-9 30,-18 45,-27 15,-9 30,-27 45,-54 15,-27 22,-47 21,-62 -1,-14 -3,-27 -4,-38 -1,-11 -7,-25 -17,-42 -10,-17 -18,-30 -24,-39z"/>
  <path id="7" class="fil10 str0" d="M3318 2764c-79,47 -126,58 -141,32 -15,-26 16,-62 95,-109 79,-47 126,-58 141,-32 15,26 -16,62 -95,109z"/>
  <path class="fil9" d="M3712 3068c4,22 -8,35 -35,40 -27,5 -61,-113 -102,-353 -41,-240 -46,-362 -17,-367 29,-5 51,35 66,121 15,86 29,115 44,88 15,-27 36,-42 65,-47 29,-5 51,-9 67,-11 16,-3 39,0 70,8 31,8 58,22 80,43 22,20 42,46 58,77 16,31 26,56 29,75 3,19 8,50 16,95 8,45 -7,95 -42,151 -36,56 -69,87 -100,92 -31,5 -62,10 -93,16 -31,5 -57,-4 -79,-26 -22,-23 -31,-23 -27,-2zm-48 -279c5,32 11,63 16,94 5,31 13,53 24,66 11,12 25,29 43,49 18,20 39,29 62,24 24,-4 45,-8 65,-11 19,-3 40,-24 63,-62 23,-38 31,-74 25,-107 -6,-33 -11,-67 -17,-101 -6,-34 -25,-65 -57,-93 -32,-28 -58,-40 -77,-37 -19,3 -38,7 -58,10 -19,3 -40,24 -63,62 -22,38 -31,73 -26,105z"/>
  <path id="1" class="fil9" d="M4238 3015c-29,5 -64,-112 -105,-352 -41,-240 -46,-362 -17,-367 29,-5 65,112 105,352 41,240 46,362 17,367z"/>
  <path id="2" class="fil9" d="M4753 2882c-3,-12 -12,-10 -26,7 -14,17 -35,33 -63,50 -28,17 -51,26 -69,29 -17,3 -40,7 -69,12 -29,5 -61,-4 -96,-27 -36,-23 -55,-45 -59,-67 -4,-22 -7,-39 -9,-52 -2,-13 1,-31 9,-54 8,-23 20,-43 37,-59 17,-16 31,-27 42,-32 11,-5 21,-10 29,-14 8,-4 21,-8 38,-13 17,-5 43,-13 78,-23 35,-10 60,-20 76,-29 16,-9 23,-16 22,-22 -1,-6 -1,-10 -2,-12 0,-2 -2,-12 -5,-30 -3,-18 -9,-30 -19,-36 -10,-6 -21,-13 -34,-21 -13,-8 -31,-10 -53,-6 -22,4 -44,7 -65,11 -21,4 -40,14 -57,32 -17,18 -27,36 -28,56 -2,19 -17,29 -47,30 -29,1 -44,-8 -43,-27 1,-19 8,-42 22,-67 14,-26 37,-48 69,-66 32,-18 59,-29 81,-33 22,-4 45,-8 67,-11 22,-4 48,-3 78,3 30,6 52,15 68,29 16,14 26,26 31,38 5,12 8,21 11,29 3,7 6,21 9,40 3,20 8,49 15,88 7,39 14,79 20,120 7,41 14,72 22,93 7,21 15,36 22,45 7,9 -5,16 -35,21 -31,5 -49,4 -55,-5 -6,-8 -11,-19 -14,-31zm-43 -198c-2,-11 -10,-12 -25,-2 -15,9 -38,19 -69,29 -31,10 -56,18 -73,24 -18,6 -34,13 -47,22 -14,9 -24,21 -30,35 -6,14 -8,25 -7,33 1,8 3,18 5,29 2,12 13,24 34,37 20,13 39,17 57,15 17,-3 34,-6 51,-9 17,-3 38,-14 62,-33 24,-19 38,-36 42,-50 4,-14 7,-26 10,-37 3,-11 3,-26 0,-45 -3,-19 -6,-34 -8,-45z"/>
  <path id="3" class="fil10 str0" d="M3712 3068c4,22 -8,35 -35,40 -27,5 -61,-113 -102,-353 -41,-240 -46,-362 -17,-367 29,-5 51,35 66,121 15,86 29,115 44,88 15,-27 36,-42 65,-47 29,-5 51,-9 67,-11 16,-3 39,0 70,8 31,8 58,22 80,43 22,20 42,46 58,77 16,31 26,56 29,75 3,19 8,50 16,95 8,45 -7,95 -42,151 -36,56 -69,87 -100,92 -31,5 -62,10 -93,16 -31,5 -57,-4 -79,-26 -22,-23 -31,-23 -27,-2zm-48 -279c5,32 11,63 16,94 5,31 13,53 24,66 11,12 25,29 43,49 18,20 39,29 62,24 24,-4 45,-8 65,-11 19,-3 40,-24 63,-62 23,-38 31,-74 25,-107 -6,-33 -11,-67 -17,-101 -6,-34 -25,-65 -57,-93 -32,-28 -58,-40 -77,-37 -19,3 -38,7 -58,10 -19,3 -40,24 -63,62 -22,38 -31,73 -26,105z"/>
  <path id="4" class="fil10 str0" d="M4238 3015c-29,5 -64,-112 -105,-352 -41,-240 -46,-362 -17,-367 29,-5 65,112 105,352 41,240 46,362 17,367z"/>
  <path id="5" class="fil10 str0" d="M4753 2882c-3,-12 -12,-10 -26,7 -14,17 -35,33 -63,50 -28,17 -51,26 -69,29 -17,3 -40,7 -69,12 -29,5 -61,-4 -96,-27 -36,-23 -55,-45 -59,-67 -4,-22 -7,-39 -9,-52 -2,-13 1,-31 9,-54 8,-23 20,-43 37,-59 17,-16 31,-27 42,-32 11,-5 21,-10 29,-14 8,-4 21,-8 38,-13 17,-5 43,-13 78,-23 35,-10 60,-20 76,-29 16,-9 23,-16 22,-22 -1,-6 -1,-10 -2,-12 0,-2 -2,-12 -5,-30 -3,-18 -9,-30 -19,-36 -10,-6 -21,-13 -34,-21 -13,-8 -31,-10 -53,-6 -22,4 -44,7 -65,11 -21,4 -40,14 -57,32 -17,18 -27,36 -28,56 -2,19 -17,29 -47,30 -29,1 -44,-8 -43,-27 1,-19 8,-42 22,-67 14,-26 37,-48 69,-66 32,-18 59,-29 81,-33 22,-4 45,-8 67,-11 22,-4 48,-3 78,3 30,6 52,15 68,29 16,14 26,26 31,38 5,12 8,21 11,29 3,7 6,21 9,40 3,20 8,49 15,88 7,39 14,79 20,120 7,41 14,72 22,93 7,21 15,36 22,45 7,9 -5,16 -35,21 -31,5 -49,4 -55,-5 -6,-8 -11,-19 -14,-31zm-43 -198c-2,-11 -10,-12 -25,-2 -15,9 -38,19 -69,29 -31,10 -56,18 -73,24 -18,6 -34,13 -47,22 -14,9 -24,21 -30,35 -6,14 -8,25 -7,33 1,8 3,18 5,29 2,12 13,24 34,37 20,13 39,17 57,15 17,-3 34,-6 51,-9 17,-3 38,-14 62,-33 24,-19 38,-36 42,-50 4,-14 7,-26 10,-37 3,-11 3,-26 0,-45 -3,-19 -6,-34 -8,-45z"/>
  <path class="fil9" d="M3399 3991c-33,6 -53,-8 -59,-42 -6,-33 8,-53 42,-59 34,-6 53,8 59,42 6,33 -8,53 -42,59z"/>
  <path id="1" class="fil9" d="M3679 3945c-33,6 -53,-8 -59,-42 -6,-33 8,-53 42,-59 34,-6 53,8 59,42 6,33 -8,53 -42,59z"/>
  <path id="2" class="fil9" d="M3958 3899c-33,6 -53,-8 -59,-42 -6,-33 8,-53 42,-59 34,-6 53,8 59,42 6,33 -8,53 -42,59z"/>
  <path id="3" class="fil10 str0" d="M3399 3991c-33,6 -53,-8 -59,-42 -6,-33 8,-53 42,-59 34,-6 53,8 59,42 6,33 -8,53 -42,59z"/>
  <path id="4" class="fil10 str0" d="M3679 3945c-33,6 -53,-8 -59,-42 -6,-33 8,-53 42,-59 34,-6 53,8 59,42 6,33 -8,53 -42,59z"/>
  <path id="5" class="fil10 str0" d="M3958 3899c-33,6 -53,-8 -59,-42 -6,-33 8,-53 42,-59 34,-6 53,8 59,42 6,33 -8,53 -42,59z"/>
  <path class="fil1" d="M9204 7514c-408,-29 -1206,-83 -1646,-105 -440,-22 -522,-12 -551,3 -28,15 -2,35 274,62 276,27 801,61 1100,79 299,18 371,20 393,32 22,12 -6,35 -106,47 -100,13 -273,15 -361,16 -88,1 -92,1 -74,16 18,15 58,44 276,50 218,6 613,-10 844,-24 232,-14 300,-26 333,-42 33,-16 31,-35 19,-52 -12,-17 -34,-32 -54,-42 -20,-10 -38,-14 -446,-43z"/>
  <path class="fil6" d="M4933 8986c-66,-56 -163,-105 -275,-119 -112,-14 -239,7 -328,42 -89,35 -140,84 -178,152 -38,68 -63,154 -73,242 -11,87 -7,176 14,248 21,72 60,129 73,135 13,7 0,-37 -8,-106 -8,-70 -11,-166 8,-254 19,-89 60,-170 113,-232 54,-62 121,-104 199,-129 78,-25 167,-32 245,-25 78,7 143,30 199,70 56,41 102,100 107,98 5,-2 -30,-66 -96,-122z"/>
  <path class="fil6" d="M10193 8946c-66,-56 -163,-105 -275,-119 -112,-14 -239,7 -328,42 -89,35 -140,84 -178,152 -38,68 -63,154 -73,242 -11,87 -7,176 14,248 21,72 60,129 73,135 13,7 0,-37 -8,-106 -8,-70 -11,-166 8,-254 19,-89 60,-170 113,-232 54,-62 121,-104 199,-129 78,-25 167,-32 245,-25 78,7 143,30 199,70 56,41 102,100 107,98 5,-2 -30,-66 -96,-122z"/>
  <path class="fil11" d="M4024 6470c-20,15 -628,507 -653,443 -5,-13 74,-372 98,-482 -608,-2 -553,69 -120,-423 -74,-81 -282,-296 -339,-406 -5,-3 -8,-5 -9,-6l5 -4c-11,-24 -13,-42 -3,-51 20,-18 39,-9 55,4l0 0 2 2 2 2c407,148 237,86 587,216 -50,-174 -174,-607 -137,-630 42,-25 426,361 523,457 382,-517 258,-536 494,160l0 0c-145,-331 -81,-180 -206,-486 -62,89 -263,376 -273,382 -29,17 -316,-251 -461,-388 57,191 166,563 137,589 -26,24 -356,-95 -562,-178 361,411 352,267 -48,700 126,3 387,8 396,13 38,19 -53,344 -90,477 368,-245 184,-125 602,-389z"/>
 </g>
</svg>
