<?xml version="1.0" encoding="UTF-8"?>
<!DOCTYPE svg PUBLIC "-//W3C//DTD SVG 1.1//EN" "http://www.w3.org/Graphics/SVG/1.1/DTD/svg11.dtd">
<!-- Creator: CorelDRAW 2017 -->
<svg xmlns="http://www.w3.org/2000/svg" xml:space="preserve" width="143mm" height="143mm" version="1.1" style="shape-rendering:geometricPrecision; text-rendering:geometricPrecision; image-rendering:optimizeQuality; fill-rule:evenodd; clip-rule:evenodd"
viewBox="0 0 14300 14300"
 xmlns:xlink="http://www.w3.org/1999/xlink">
 <defs>
  <style type="text/css">
   <![CDATA[
    .str1 {stroke:black;stroke-width:20}
    .str0 {stroke:red;stroke-width:200;stroke-dasharray:400.000000 200.000000}
    .fil1 {fill:none}
    .fil2 {fill:black}
    .fil5 {fill:#1A1A1A}
    .fil4 {fill:#A60000}
    .fil3 {fill:#FF9933}
    .fil6 {fill:#FFAD9E}
    .fil0 {fill:#FFD663}
   ]]>
  </style>
 </defs>
 <g id="Слой_x0020_1">
  <metadata id="CorelCorpID_0Corel-Layer"/>
  <path class="fil0" d="M12325 6487c-971,-52 -2733,-94 -3883,-63 -1150,31 -1687,136 -1931,240 -244,104 -193,209 11,334 204,125 562,271 634,379 72,108 -143,177 -304,240 -161,63 -269,118 -219,198 50,80 258,184 362,288 104,104 104,209 -14,351 -118,143 -355,323 -949,459 -595,136 -1548,226 -2382,292 -835,66 -1551,108 -2099,170 -548,63 -928,146 -871,275 57,129 552,302 906,462 355,160 570,306 537,431 -32,125 -312,229 -383,358 -72,129 64,282 591,375 527,94 1444,129 2228,153 785,24 1437,38 1730,97 294,59 229,163 265,275 36,111 172,229 605,282 433,52 1164,38 1755,37 591,-1 1042,12 1494,-34 451,-46 903,-150 1057,-286 154,-136 11,-302 -136,-532 -147,-229 -297,-521 -294,-730 4,-209 161,-334 579,-557 417,-223 1094,-545 1379,-869 285,-324 177,-651 64,-868 -113,-217 -231,-325 -140,-521 91,-196 392,-481 550,-673 158,-191 172,-288 90,-368 -82,-80 -262,-143 -1232,-195z"/>
  <path class="fil1 str0" d="M10783 6428c-33,202 -67,404 -200,610 -133,206 -367,418 -565,612 -198,194 -361,372 -339,580 22,207 230,445 463,533 233,89 493,30 726,48 233,19 441,115 437,267 -4,152 -219,359 -556,496 -337,137 -796,204 -1182,274 -385,70 -696,144 -848,326 -152,182 -144,470 -321,605 -176,134 -537,114 -1052,33 -515,-81 -1186,-221 -1791,-245 -605,-23 -1145,71 -1467,59 -322,-12 -426,-131 -499,-312 -74,-182 -118,-427 -162,-672"/>
  <path class="fil2" d="M11958 2809c-1,-79 15,-240 19,-325 4,-85 -3,-94 -26,-100 -23,-6 -62,-8 -126,-8 -64,1 -153,5 -198,2 -45,-3 -45,-13 -23,-20 22,-7 67,-11 133,-14 66,-2 151,-3 194,-19 42,-16 41,-49 19,-69 -22,-21 -65,-29 -161,-35 -97,-6 -248,-10 -322,-18 -74,-8 -72,-21 -16,-28 56,-7 167,-7 263,-2 97,5 180,16 220,-8 40,-24 36,-84 33,-145 -3,-61 -5,-122 0,-156 5,-34 18,-39 26,-8 8,31 13,99 15,162 2,63 3,121 38,149 35,28 104,25 193,27 88,2 196,8 246,17 50,9 43,21 -14,24 -57,4 -162,-1 -232,-3 -70,-1 -104,1 -130,2 -27,2 -46,3 -57,15 -11,12 -12,35 -12,53 0,18 3,31 11,39 9,8 23,12 54,14 31,2 78,2 116,3 38,1 67,2 85,5 17,3 22,8 11,12 -11,5 -38,10 -75,12 -37,2 -84,2 -117,2 -33,0 -53,2 -66,19 -14,17 -21,50 -27,130 -6,81 -9,209 -15,274 -6,65 -16,68 -29,70 -13,2 -29,4 -30,-75z"/>
  <path class="fil3" d="M9844 2750c366,7 912,17 1405,24 493,6 934,8 1161,22 227,14 241,42 235,363 -5,322 -29,937 -30,1575 -1,638 20,1298 -40,1630 -60,333 -202,339 -499,342 -297,3 -749,3 -1230,-2 -481,-5 -990,-15 -1315,-16 -325,-1 -467,8 -537,-113 -71,-122 -71,-374 -84,-839 -12,-465 -37,-1144 -58,-1662 -21,-518 -40,-874 3,-1070 43,-196 146,-231 291,-248 145,-17 332,-14 698,-8z"/>
  <path class="fil3" d="M2337 3933c443,8 1112,24 1707,38 595,14 1116,27 1385,54 269,27 285,67 288,534 3,467 -7,1360 -14,2292 -7,932 -12,1902 -101,2392 -89,490 -263,499 -612,503 -349,4 -872,2 -1442,-2 -570,-4 -1188,-11 -1553,-8 -365,4 -477,18 -553,-162 -76,-180 -114,-554 -154,-1240 -40,-687 -81,-1686 -101,-2417 -21,-731 -22,-1193 -26,-1472 -4,-279 -10,-376 39,-432 49,-56 155,-72 316,-80 161,-8 378,-8 821,0z"/>
  <path class="fil2" d="M11047 6543c29,-164 45,-493 42,-672 -3,-179 -24,-208 -73,-224 -49,-16 -126,-19 -214,-23 -88,-4 -186,-9 -250,-9 -64,0 -93,5 -108,83 -15,77 -14,226 -9,405 5,179 16,387 43,492 27,105 69,105 121,106 52,1 113,2 171,2 58,1 112,2 160,2 48,1 89,1 118,-163z"/>
  <path class="fil2" d="M3826 9570c42,-187 54,-561 62,-809 9,-248 14,-371 -26,-443 -40,-72 -125,-95 -254,-106 -129,-11 -300,-12 -405,-1 -105,11 -144,33 -157,117 -14,83 -3,228 7,433 10,205 18,471 25,645 7,174 12,258 48,300 36,42 102,43 193,44 91,1 207,3 300,4 94,1 165,2 207,-184z"/>
  <path class="fil2" d="M5101 7004c-15,-37 -40,-40 -148,-50 -107,-10 -296,-25 -392,-17 -96,9 -100,42 -106,101 -6,58 -15,141 -21,232 -6,92 -9,192 -1,244 8,52 26,55 119,60 93,5 262,11 363,7 101,-4 135,-20 158,-88 23,-68 36,-190 41,-286 5,-96 2,-166 -13,-203z"/>
  <path class="fil2" d="M4977 6378c-109,9 -312,-6 -415,-18 -103,-12 -106,-21 -103,-105 3,-84 12,-243 20,-342 8,-99 14,-139 38,-162 24,-23 67,-29 148,-29 81,0 200,6 286,11 86,5 137,8 165,24 28,17 31,47 27,141 -4,93 -15,249 -27,344 -13,95 -28,128 -137,137z"/>
  <path class="fil2" d="M3140 6956c17,-36 43,-37 151,-38 108,-1 297,-3 392,13 95,16 96,50 98,108 2,58 4,141 3,233 -1,92 -6,193 -17,244 -12,51 -30,53 -124,50 -93,-2 -262,-9 -362,-21 -100,-12 -133,-30 -151,-100 -18,-70 -21,-192 -19,-288 2,-96 11,-166 28,-201z"/>
  <path class="fil2" d="M3253 6339c108,18 312,18 416,14 104,-4 107,-13 111,-97 3,-84 6,-243 6,-343 0,-100 -3,-140 -26,-164 -23,-25 -65,-34 -146,-40 -81,-6 -200,-9 -286,-11 -86,-2 -138,-3 -166,12 -29,15 -34,45 -37,138 -3,93 -5,249 1,345 6,95 18,130 127,148z"/>
  <path class="fil2" d="M2423 6972c-17,-36 -43,-37 -151,-38 -108,-1 -297,-3 -392,13 -95,16 -96,50 -98,108 -2,58 -4,141 -3,233 1,92 6,193 17,244 12,51 30,53 124,50 93,-2 262,-9 362,-21 100,-12 133,-30 151,-100 18,-70 21,-192 19,-288 -2,-96 -11,-166 -28,-201z"/>
  <path class="fil2" d="M2287 6355c-108,17 -312,18 -416,14 -104,-4 -107,-13 -111,-97 -3,-84 -6,-243 -6,-343 0,-100 3,-140 26,-164 23,-25 65,-34 146,-40 81,-6 200,-9 286,-11 86,-2 138,-3 166,12 29,15 34,45 37,138 3,93 5,249 -1,345 -6,95 -18,130 -127,148z"/>
  <path class="fil2" d="M12111 4540c-12,-31 -34,-34 -125,-42 -91,-8 -250,-22 -332,-14 -81,7 -84,36 -89,85 -5,49 -13,119 -17,196 -5,77 -8,163 -1,207 6,44 22,47 101,50 79,4 221,9 307,6 85,-4 114,-17 133,-75 20,-58 30,-161 35,-242 4,-81 2,-141 -11,-172z"/>
  <path class="fil2" d="M12006 3909c-92,8 -264,-5 -351,-15 -87,-10 -90,-18 -87,-89 3,-71 10,-205 17,-289 6,-84 12,-118 32,-137 21,-19 57,-25 125,-25 68,0 169,5 242,9 72,4 116,6 139,21 23,14 26,40 23,119 -3,79 -12,211 -23,291 -11,80 -24,108 -116,116z"/>
  <path class="fil2" d="M10482 4488c15,-30 37,-31 128,-32 91,-1 251,-2 332,11 80,14 81,42 83,92 1,49 3,119 2,197 -1,78 -5,163 -15,206 -10,43 -25,45 -104,43 -79,-2 -221,-8 -306,-18 -85,-10 -112,-25 -127,-85 -15,-59 -18,-163 -16,-244 2,-81 9,-140 24,-170z"/>
  <path class="fil2" d="M10576 3865c91,15 264,15 351,11 88,-4 91,-11 94,-82 3,-71 5,-206 5,-290 0,-84 -3,-118 -22,-139 -19,-21 -55,-29 -123,-34 -68,-5 -169,-8 -241,-9 -72,-2 -116,-2 -141,10 -24,12 -29,38 -32,117 -3,79 -4,211 1,292 5,81 16,110 107,125z"/>
  <path class="fil2" d="M9919 4501c-15,-30 -37,-31 -128,-32 -91,-1 -251,-2 -332,11 -80,14 -81,42 -83,92 -1,49 -3,119 -2,197 1,78 5,163 15,206 10,43 25,45 104,43 79,-2 221,-8 306,-18 85,-10 112,-25 127,-85 15,-59 18,-163 16,-244 -2,-81 -9,-140 -24,-170z"/>
  <path class="fil2" d="M9803 3877c-91,15 -264,15 -351,11 -88,-4 -91,-11 -94,-82 -3,-71 -5,-206 -5,-290 0,-84 3,-118 22,-139 19,-21 55,-29 123,-34 68,-5 169,-8 241,-9 72,-2 116,-2 141,10 24,12 29,38 32,117 3,79 4,211 -1,292 -5,81 -16,110 -107,125z"/>
  <path class="fil4" d="M3507 7884c96,41 263,140 406,222 144,81 264,144 335,187 70,43 91,68 67,81 -24,13 -92,14 -277,16 -186,1 -490,3 -770,6 -281,3 -539,7 -632,-11 -93,-18 -22,-58 95,-125 117,-68 280,-163 393,-231 113,-68 175,-108 219,-137 44,-29 70,-48 166,-7z"/>
  <path class="fil4" d="M10763 5345c69,29 188,100 292,157 103,58 190,102 240,133 51,31 65,48 48,57 -17,9 -66,10 -199,11 -133,1 -351,2 -553,4 -202,2 -387,5 -454,-8 -67,-13 -16,-41 68,-89 84,-48 201,-116 282,-164 81,-48 125,-76 157,-97 32,-21 50,-34 119,-5z"/>
  <rect class="fil5" x="2749" y="9595" width="1478" height="233"/>
  <rect class="fil5" x="10218" y="6602" width="1091" height="172"/>
  <path class="fil2" d="M4999 5188c-109,9 -312,-6 -415,-18 -103,-12 -106,-21 -103,-105 3,-84 12,-243 20,-342 8,-99 14,-139 38,-162 24,-23 67,-29 148,-29 81,0 200,6 286,11 86,5 137,8 165,24 28,17 31,47 27,141 -4,93 -15,249 -28,344 -13,95 -28,128 -137,137z"/>
  <path class="fil2" d="M3276 5150c108,18 312,18 416,14 104,-4 107,-13 111,-97 3,-84 6,-243 6,-343 0,-100 -3,-140 -26,-164 -23,-25 -65,-34 -146,-40 -81,-6 -200,-9 -286,-11 -86,-2 -138,-3 -166,12 -29,15 -34,45 -37,138 -3,93 -5,249 1,345 6,95 18,130 127,148z"/>
  <path class="fil2" d="M2310 5166c-108,18 -312,18 -416,14 -104,-4 -107,-13 -111,-97 -3,-84 -6,-243 -6,-343 0,-100 3,-140 26,-164 23,-25 65,-34 146,-40 81,-6 200,-9 286,-11 86,-2 138,-3 166,12 29,15 34,45 37,138 3,93 5,249 -1,345 -6,95 -18,130 -127,148z"/>
  <path class="fil2 str1" d="M2136 3911c1,-91 -17,-275 -21,-372 -5,-97 3,-108 30,-115 26,-7 71,-9 144,-9 73,1 175,5 226,2 51,-3 52,-14 26,-22 -25,-8 -77,-13 -152,-16 -75,-3 -173,-3 -222,-22 -48,-19 -47,-56 -22,-79 25,-23 74,-33 185,-40 111,-7 284,-11 369,-21 85,-10 82,-25 18,-32 -64,-8 -191,-8 -301,-2 -111,6 -206,19 -252,-9 -46,-28 -41,-96 -38,-166 3,-69 6,-140 0,-178 -6,-38 -20,-45 -30,-9 -10,36 -14,113 -17,185 -3,72 -3,139 -43,171 -40,32 -120,29 -221,31 -101,2 -224,9 -281,20 -57,10 -49,24 16,28 65,4 186,-1 266,-3 80,-2 119,1 149,3 31,2 53,3 65,17 12,14 14,40 14,60 0,20 -3,35 -13,45 -10,10 -27,14 -62,17 -35,2 -89,3 -133,4 -44,1 -77,3 -97,6 -20,3 -26,9 -13,14 13,5 44,11 86,14 43,3 96,2 134,3 38,1 60,2 76,21 15,20 24,57 31,149 6,92 10,239 18,314 7,75 18,78 33,80 15,2 33,5 34,-86z"/>
  <path class="fil6" d="M3323 7959c-85,44 -234,132 -358,206 -124,74 -223,133 -267,164 -44,31 -33,34 21,35 54,1 151,0 208,-1 57,-1 74,-3 102,-24 28,-21 68,-61 133,-126 65,-65 155,-155 207,-209 52,-54 65,-71 62,-79 -3,-9 -24,-9 -109,35z"/>
  <path class="fil6" d="M10615 5401c-58,30 -160,90 -244,140 -85,50 -152,91 -182,112 -30,21 -22,23 15,24 37,1 103,0 142,-1 39,-1 50,-2 69,-16 19,-14 46,-41 91,-86 44,-44 106,-106 141,-143 35,-37 45,-48 42,-54 -2,-6 -16,-6 -74,24z"/>
 </g>
</svg>
