<?xml version="1.0" encoding="UTF-8"?>
<!DOCTYPE svg PUBLIC "-//W3C//DTD SVG 1.1//EN" "http://www.w3.org/Graphics/SVG/1.1/DTD/svg11.dtd">
<!-- Creator: CorelDRAW 2017 -->
<svg xmlns="http://www.w3.org/2000/svg" xml:space="preserve" width="143mm" height="143mm" version="1.1" style="shape-rendering:geometricPrecision; text-rendering:geometricPrecision; image-rendering:optimizeQuality; fill-rule:evenodd; clip-rule:evenodd"
viewBox="0 0 14300 14300"
 xmlns:xlink="http://www.w3.org/1999/xlink">
 <defs>
  <style type="text/css">
   <![CDATA[
    .str0 {stroke:black;stroke-width:50}
    .fil8 {fill:none;fill-rule:nonzero}
    .fil3 {fill:black}
    .fil0 {fill:#6666FF}
    .fil1 {fill:#A60000}
    .fil9 {fill:#F79C84}
    .fil4 {fill:#FFD663}
    .fil2 {fill:#FFE77B}
    .fil10 {fill:white}
    .fil5 {fill:white}
    .fil7 {fill:black;fill-rule:nonzero}
    .fil6 {fill:white;fill-rule:nonzero}
   ]]>
  </style>
 </defs>
 <g id="Слой_x0020_1">
  <metadata id="CorelCorpID_0Corel-Layer"/>
  <path class="fil0" d="M8855 9573c57,244 140,629 291,1116 151,487 372,1074 579,1559 207,485 401,867 514,1082 113,215 146,262 101,262 -44,0 -165,-47 -354,-225 -190,-178 -448,-487 -598,-669 -150,-182 -191,-238 -194,-128 -3,110 32,387 71,631 38,244 79,456 57,525 -22,69 -107,-4 -262,-219 -154,-215 -378,-570 -536,-919 -159,-348 -253,-689 -340,-1007 -87,-317 -166,-611 -212,-766 -46,-154 -57,-169 -101,-41 -44,128 -121,398 -163,681 -43,282 -51,576 -85,670 -34,94 -93,-12 -138,-215 -46,-203 -78,-503 -112,-901 -34,-398 -69,-895 -74,-1242 -5,-347 21,-545 53,-706 32,-162 72,-288 165,-343 93,-56 240,-41 414,2 173,43 373,113 511,185 138,72 215,146 269,234 54,88 87,191 144,435z"/>
  <path class="fil1" d="M7757 7246c-121,223 -304,715 -396,1073 -92,358 -92,581 -64,663 28,82 84,24 112,12 28,-12 28,24 29,100 1,76 4,194 18,303 13,109 37,209 54,260 18,51 29,54 71,-4 41,-59 112,-179 160,-193 49,-13 75,81 116,228 41,147 97,347 207,512 110,165 275,294 366,359 91,65 109,65 103,-50 -6,-115 -35,-344 -37,-522 -1,-178 25,-304 68,-325 43,-21 101,65 178,159 76,94 171,197 223,203 53,6 65,-85 62,-244 -3,-159 -21,-385 -37,-598 -16,-213 -31,-413 -29,-592 1,-179 19,-338 -21,-470 -40,-132 -137,-238 -248,-354 -112,-116 -238,-243 -357,-353 -119,-110 -231,-204 -315,-274 -85,-70 -142,-115 -263,109z"/>
  <path class="fil0" d="M10965 7934c-74,119 -188,289 -303,424 -115,134 -229,233 -434,397 -204,164 -498,393 -657,511 -159,118 -182,123 -156,54 26,-69 103,-213 190,-376 87,-163 184,-345 265,-528 81,-182 146,-365 193,-508 47,-144 76,-249 97,-315 21,-66 34,-92 112,-100 78,-8 221,4 343,22 123,19 226,45 304,74 78,29 131,59 141,109 10,49 -22,117 -96,236z"/>
  <path class="fil2" d="M11395 6400c1,112 -19,290 -59,491 -40,201 -98,424 -168,621 -69,197 -148,367 -219,457 -71,90 -132,98 -250,79 -118,-19 -291,-66 -412,-116 -121,-50 -188,-103 -182,-195 6,-93 85,-225 151,-358 66,-133 119,-267 143,-381 24,-115 20,-210 34,-297 15,-87 49,-167 149,-235 101,-68 268,-124 406,-166 138,-43 247,-72 313,-64 66,8 90,53 91,165z"/>
  <path class="fil1" d="M10691 5104c62,-38 147,-59 226,-34 79,25 153,96 237,222 84,126 178,309 223,504 46,195 43,404 40,536 -3,132 -6,188 -24,235 -18,47 -50,85 -134,140 -84,54 -219,125 -335,178 -116,53 -213,87 -300,108 -87,21 -163,27 -196,-15 -32,-42 -21,-134 -10,-351 10,-218 19,-561 41,-811 22,-250 57,-406 94,-511 37,-106 75,-162 137,-200z"/>
  <path class="fil1" d="M9715 2643c66,31 228,69 407,84 179,15 376,6 488,-15 112,-21 138,-53 118,-26 -21,26 -88,112 -182,171 -94,59 -215,91 -266,126 -51,35 -34,73 41,200 75,126 207,341 307,611 100,270 168,597 204,941 36,344 41,705 26,1055 -15,350 -50,688 -191,1080 -141,392 -387,839 -585,1111 -198,272 -348,369 -524,437 -176,68 -379,106 -561,122 -182,16 -344,10 -488,-13 -144,-24 -270,-65 -375,-123 -104,-59 -187,-135 -273,-259 -87,-123 -178,-294 -222,-475 -44,-181 -41,-372 -24,-592 18,-220 50,-470 100,-700 50,-229 118,-438 204,-601 87,-163 193,-281 279,-378 87,-97 154,-173 184,-244 29,-71 21,-135 -4,-235 -25,-100 -66,-235 -109,-433 -43,-198 -88,-458 -94,-677 -6,-219 27,-397 85,-544 58,-147 141,-263 269,-351 128,-88 301,-148 450,-203 150,-55 276,-105 402,-179 126,-74 253,-171 335,-244 82,-73 121,-123 140,-122 19,1 19,54 -9,129 -28,75 -84,172 -126,232 -43,60 -72,84 -6,115z"/>
  <path class="fil3" d="M11963 8615c-666,-17 -1868,-41 -2787,-61 -919,-21 -1554,-39 -2331,-54 -778,-15 -1698,-27 -2202,-21 -504,6 -592,29 -648,74 -56,44 -79,109 -3,144 76,35 253,41 818,46 565,5 1520,10 2743,34 1223,24 2714,66 3686,90 972,24 1425,30 1660,-2 235,-32 253,-103 215,-144 -38,-41 -132,-53 -244,-65 -112,-12 -241,-24 -907,-41z"/>
  <path class="fil3" d="M8562 2897c15,19 6,34 -6,66 -12,32 -26,82 -67,164 -41,82 -108,196 -160,269 -52,73 -89,104 -127,115 -37,11 -75,1 -163,-46 -88,-47 -227,-132 -338,-163 -111,-31 -194,-7 -269,43 -75,51 -143,129 -190,191 -47,62 -75,108 -88,98 -14,-10 -13,-76 -1,-148 12,-72 37,-149 101,-241 64,-93 167,-201 284,-283 117,-81 248,-135 369,-165 122,-30 235,-38 326,-28 92,9 162,35 218,59 55,25 96,49 111,68z"/>
  <path class="fil3" d="M8204 3715c30,27 82,95 113,164 31,69 41,139 49,211 8,71 14,144 9,214 -6,70 -23,139 -37,191 -15,52 -27,87 -48,102 -21,15 -52,11 -128,-22 -75,-32 -196,-93 -301,-165 -105,-73 -195,-157 -251,-222 -56,-64 -79,-108 -83,-131 -5,-24 9,-27 47,-38 38,-11 100,-29 165,-56 65,-27 132,-62 194,-101 62,-39 119,-82 156,-107 37,-25 53,-33 65,-43 12,-10 21,-23 51,4z"/>
  <path class="fil0" d="M7188 6475c-89,51 -165,294 -320,624 -155,330 -389,747 -633,1154 -244,408 -496,806 -777,1110 -281,304 -589,514 -581,549 9,35 335,-107 626,-246 291,-140 547,-278 939,-553 393,-276 922,-689 1228,-934 306,-246 389,-325 448,-381 59,-57 96,-91 56,-206 -40,-115 -155,-312 -284,-472 -128,-160 -269,-285 -391,-418 -121,-133 -223,-275 -312,-225z"/>
  <path class="fil2" d="M9031 6720c8,66 -9,152 -36,230 -28,78 -68,147 -115,209 -47,62 -102,117 -224,227 -122,110 -310,274 -451,383 -141,109 -235,162 -312,201 -76,40 -135,66 -223,16 -88,-50 -206,-176 -309,-326 -103,-150 -191,-323 -243,-464 -51,-141 -66,-250 -50,-407 16,-157 63,-363 106,-507 43,-144 81,-226 126,-308 45,-83 96,-166 140,-233 44,-67 81,-116 196,-100 115,17 309,99 512,236 203,137 414,328 551,451 137,123 198,179 245,230 47,50 78,96 86,161z"/>
  <path class="fil1" d="M8287 5099c112,-4 256,16 389,87 134,71 257,191 342,347 85,156 132,347 143,560 10,213 -16,448 -72,642 -56,194 -141,347 -203,432 -62,85 -100,103 -265,51 -165,-51 -456,-172 -678,-326 -222,-154 -375,-342 -481,-484 -106,-141 -165,-235 -182,-309 -18,-73 6,-126 75,-237 69,-110 184,-278 301,-404 118,-126 238,-212 338,-269 100,-57 179,-87 291,-91z"/>
  <path class="fil4" d="M9495 8386c86,24 151,62 171,133 20,71 -5,176 -43,237 -37,62 -87,81 -126,69 -38,-12 -65,-54 -82,-84 -17,-29 -24,-46 -39,-43 -15,2 -37,23 -53,49 -16,26 -26,57 -39,63 -12,7 -27,-11 -41,-37 -14,-26 -27,-62 -45,-65 -18,-3 -40,26 -59,52 -19,26 -35,48 -62,35 -26,-13 -63,-62 -78,-116 -15,-54 -9,-115 27,-172 36,-57 101,-110 188,-132 87,-22 194,-13 281,11z"/>
  <path class="fil4" d="M8559 8350c52,4 140,11 207,44 67,33 114,92 126,158 12,66 -12,139 -47,185 -35,45 -81,63 -118,47 -37,-17 -64,-67 -79,-87 -15,-20 -19,-9 -31,14 -12,22 -33,56 -62,62 -30,6 -69,-15 -89,-44 -21,-29 -23,-65 -38,-61 -15,3 -44,46 -78,68 -33,22 -72,25 -103,8 -31,-16 -55,-51 -63,-98 -7,-47 2,-108 30,-155 28,-47 75,-81 122,-104 46,-23 92,-35 123,-39 31,-5 48,-3 100,2z"/>
  <path class="fil2" d="M9628 3231c66,40 154,109 217,193 62,84 99,182 107,298 8,116 -12,250 -79,350 -66,100 -178,166 -288,192 -110,26 -219,11 -342,-51 -123,-62 -259,-173 -343,-291 -84,-118 -115,-245 -101,-361 13,-116 71,-222 159,-291 89,-69 209,-101 301,-112 91,-10 153,1 206,12 53,11 97,21 163,61z"/>
  <path class="fil3" d="M9248 3314c56,7 132,24 187,62 55,37 89,95 108,167 19,72 24,159 -13,229 -36,70 -112,123 -192,143 -79,21 -162,9 -230,-27 -68,-36 -123,-96 -153,-168 -30,-71 -36,-154 -19,-215 17,-61 57,-101 91,-129 35,-28 64,-44 96,-54 32,-10 68,-15 123,-8z"/>
  <path class="fil5" d="M9173 3390c38,1 70,14 93,43 23,29 36,73 29,115 -7,42 -33,83 -71,102 -38,19 -87,18 -125,-4 -37,-22 -63,-64 -70,-106 -7,-42 6,-84 34,-112 28,-27 71,-40 109,-39z"/>
  <path class="fil6" d="M5533 4084c-440,972 -1619,1438 -2697,1108 -1181,-362 -1855,-1535 -1504,-2619 351,-1084 1593,-1670 2774,-1308 964,295 1596,1148 1596,2032 500,191 1000,383 1501,574 -1670,213 -1113,142 -1670,213z"/>
  <path class="fil7" d="M2548 3312c11,-35 35,-46 72,-33 37,13 47,43 30,88 -17,45 -58,89 -125,132 -67,43 -122,61 -166,57 -45,-5 -90,-9 -136,-14 -46,-5 -96,-29 -150,-72 -54,-43 -92,-102 -115,-176 -23,-74 -32,-132 -28,-172 4,-41 9,-83 13,-128 5,-45 27,-98 68,-161 41,-63 94,-108 160,-136 66,-28 118,-40 156,-36 38,4 78,8 121,12 43,4 91,31 145,81 54,49 85,94 92,135 7,40 -8,63 -46,68 -38,5 -60,-9 -67,-41 -7,-32 -28,-64 -62,-96 -35,-32 -66,-50 -95,-52 -29,-3 -59,-6 -92,-9 -33,-3 -73,9 -120,36 -47,27 -82,66 -106,117 -23,51 -36,91 -39,119 -3,28 -6,60 -10,97 -4,36 2,83 18,139 16,56 44,100 86,132 42,31 76,48 102,51 26,3 55,6 87,9 32,3 71,-11 119,-43 48,-32 77,-66 89,-101z"/>
  <path id="1" class="fil7" d="M2755 3575c-40,-4 9,-143 148,-417 138,-274 228,-409 268,-404 41,4 105,154 192,451 88,297 110,443 67,438 -43,-4 -77,-51 -101,-141 -24,-90 -96,-141 -215,-153 -119,-12 -199,23 -239,107 -40,83 -80,122 -120,119zm282 -453c-40,80 -11,126 85,135 96,10 134,-26 112,-108 -22,-82 -38,-142 -48,-179 -10,-37 -17,-68 -21,-92 -4,-24 -11,-22 -19,5 -8,27 -19,53 -31,79 -13,26 -39,79 -79,160z"/>
  <path id="2" class="fil7" d="M3748 3670c-38,-4 -81,-152 -128,-444 -47,-292 -51,-437 -12,-433 39,4 70,101 95,293 24,191 39,302 43,332 4,30 7,60 9,89 2,29 11,22 26,-23 16,-45 25,-70 27,-77 3,-7 41,-104 114,-291 74,-187 133,-278 179,-273 46,5 81,81 107,229 26,148 44,250 54,305 10,55 16,107 18,155 2,48 7,59 15,32 8,-27 19,-57 31,-91 12,-34 50,-140 113,-319 63,-178 114,-266 152,-262 38,4 3,144 -104,421 -107,277 -179,414 -215,410 -36,-4 -73,-117 -112,-340 -38,-223 -59,-349 -64,-377 -5,-28 -7,-45 -8,-51 -1,-6 -4,0 -11,19 -7,19 -12,35 -18,49 -5,13 -49,126 -132,336 -82,211 -143,315 -181,310z"/>
  <path id="3" class="fil7" d="M4767 3552c-23,-2 -31,-79 -27,-232 5,-152 10,-259 16,-323 6,-63 31,-93 75,-88 43,4 62,38 55,101 -6,63 -22,170 -48,320 -25,150 -49,224 -72,222zm-22 212c-40,-4 -58,-26 -54,-66 4,-40 26,-58 66,-54 40,4 58,26 54,66 -4,40 -26,58 -66,54z"/>
  <path id="4" class="fil8 str0" d="M2548 3312c11,-35 35,-46 72,-33 37,13 47,43 30,88 -17,45 -58,89 -125,132 -67,43 -122,61 -166,57 -45,-5 -90,-9 -136,-14 -46,-5 -96,-29 -150,-72 -54,-43 -92,-102 -115,-176 -23,-74 -32,-132 -28,-172 4,-41 9,-83 13,-128 5,-45 27,-98 68,-161 41,-63 94,-108 160,-136 66,-28 118,-40 156,-36 38,4 78,8 121,12 43,4 91,31 145,81 54,49 85,94 92,135 7,40 -8,63 -46,68 -38,5 -60,-9 -67,-41 -7,-32 -28,-64 -62,-96 -35,-32 -66,-50 -95,-52 -29,-3 -59,-6 -92,-9 -33,-3 -73,9 -120,36 -47,27 -82,66 -106,117 -23,51 -36,91 -39,119 -3,28 -6,60 -10,97 -4,36 2,83 18,139 16,56 44,100 86,132 42,31 76,48 102,51 26,3 55,6 87,9 32,3 71,-11 119,-43 48,-32 77,-66 89,-101z"/>
  <path id="5" class="fil8 str0" d="M2755 3575c-40,-4 9,-143 148,-417 138,-274 228,-409 268,-404 41,4 105,154 192,451 88,297 110,443 67,438 -43,-4 -77,-51 -101,-141 -24,-90 -96,-141 -215,-153 -119,-12 -199,23 -239,107 -40,83 -80,122 -120,119zm282 -453c-40,80 -11,126 85,135 96,10 134,-26 112,-108 -22,-82 -38,-142 -48,-179 -10,-37 -17,-68 -21,-92 -4,-24 -11,-22 -19,5 -8,27 -19,53 -31,79 -13,26 -39,79 -79,160z"/>
  <path id="6" class="fil8 str0" d="M3748 3670c-38,-4 -81,-152 -128,-444 -47,-292 -51,-437 -12,-433 39,4 70,101 95,293 24,191 39,302 43,332 4,30 7,60 9,89 2,29 11,22 26,-23 16,-45 25,-70 27,-77 3,-7 41,-104 114,-291 74,-187 133,-278 179,-273 46,5 81,81 107,229 26,148 44,250 54,305 10,55 16,107 18,155 2,48 7,59 15,32 8,-27 19,-57 31,-91 12,-34 50,-140 113,-319 63,-178 114,-266 152,-262 38,4 3,144 -104,421 -107,277 -179,414 -215,410 -36,-4 -73,-117 -112,-340 -38,-223 -59,-349 -64,-377 -5,-28 -7,-45 -8,-51 -1,-6 -4,0 -11,19 -7,19 -12,35 -18,49 -5,13 -49,126 -132,336 -82,211 -143,315 -181,310z"/>
  <path id="7" class="fil8 str0" d="M4767 3552c-23,-2 -31,-79 -27,-232 5,-152 10,-259 16,-323 6,-63 31,-93 75,-88 43,4 62,38 55,101 -6,63 -22,170 -48,320 -25,150 -49,224 -72,222zm-22 212c-40,-4 -58,-26 -54,-66 4,-40 26,-58 66,-54 40,4 58,26 54,66 -4,40 -26,58 -66,54z"/>
  <path class="fil9" d="M8794 7014c36,-49 132,-192 203,-374 70,-181 115,-401 123,-575 7,-175 -23,-305 -70,-419 -47,-114 -111,-213 -201,-288 -90,-75 -204,-126 -303,-146 -99,-20 -182,-9 -210,22 -28,31 -1,81 54,132 56,51 140,104 226,161 86,57 174,118 236,220 62,102 97,245 108,387 11,142 -1,283 -31,423 -30,139 -77,277 -112,368 -35,92 -58,137 -22,89z"/>
  <path class="fil9" d="M11320 6405c-17,-96 -41,-318 -100,-485 -58,-167 -150,-278 -215,-372 -65,-94 -102,-172 -102,-221 1,-49 40,-71 94,-39 53,32 120,116 182,238 62,122 118,280 146,439 28,159 28,317 23,411 -4,94 -13,125 -30,29z"/>
  <path class="fil10" d="M9956 12929c-122,-286 -393,-894 -590,-1406 -197,-512 -318,-926 -383,-1152 -64,-226 -71,-263 -86,-295 -15,-32 -38,-58 -78,-102 -40,-44 -96,-106 -138,-151 -41,-45 -68,-73 -64,-22 4,51 37,182 119,444 82,262 213,655 385,1086 173,430 388,898 545,1206 157,308 256,456 319,549 64,93 92,130 -30,-156z"/>
 </g>
</svg>
