<svg width="868" height="868" viewBox="0 0 868 868" fill="none" xmlns="http://www.w3.org/2000/svg">
<path d="M718.682 311.83C878.199 392.516 715.538 688.328 462.016 709.939C312.144 749.109 152 671.356 152 521.05C152 370.744 347.682 319.833 508.705 319.833C669.728 319.833 644.488 274.302 718.682 311.83Z" fill="#FEDE6F"/>
<g filter="url(#filter0_b_13_7)">
<path d="M283.778 473.224L480.283 407.243C480.283 407.243 476.711 494.665 494.055 546C510.992 596.131 629.555 644.5 629.555 656.5C623.535 685.956 573.261 690.59 502.111 710C429.181 729.896 360.961 733.04 336.055 715C304.897 703.5 392.83 639.649 375.998 588C358.812 535.265 283.778 473.224 283.778 473.224Z" fill="black"/>
<path d="M515.418 429.044C524.279 486.123 481.354 522.349 431.303 549.903C338.253 601.13 210.649 528.596 193.846 423.756C180.716 341.831 191.597 238.69 296.841 238.69C402.085 238.69 498.297 318.76 515.418 429.044Z" fill="black"/>
</g>
<path d="M428.371 450.411C448.525 474.945 433.023 458.989 390.999 480.5C345.616 503.73 299.468 492.334 295.871 469.411C291.382 440.804 298.895 444.911 350.372 444.911C401.849 444.911 408.217 425.876 428.371 450.411Z" fill="white"/>
<path d="M308.059 366.32C309.387 369.829 285.739 363.17 264.633 371.412C243.528 379.654 232.956 399.677 231.629 396.168C230.301 392.659 243.528 374.563 264.633 366.32C285.739 358.078 306.732 362.811 308.059 366.32Z" fill="white"/>
<path d="M423.953 324.485C425.128 328.05 402.095 322.841 380.653 330.132C359.211 337.423 347.479 354.453 346.305 350.888C345.13 347.323 359.211 331.776 380.653 324.485C402.095 317.194 422.779 320.92 423.953 324.485Z" fill="white"/>
<path d="M367.312 483.154C349.975 478.881 332.38 478.194 315.858 483.659C313.788 484.27 302.543 485.625 309.602 487.644C315.858 490.652 321.089 491.774 324.642 498.232C327.542 503.503 326.739 503.177 327.864 506.428C330.432 513.848 324.848 525.033 332.621 525.976C335.351 526.307 338.309 527.506 339.514 524.472C341.354 519.84 342.409 517.811 341.527 513.188C340.77 509.217 337.16 503.179 343.297 500.343C345.984 499.101 349.103 500.715 350.743 502.232C353.803 505.06 354.901 508.743 353.807 512.477C353.345 514.053 353.112 517.683 355.314 518.534C359.721 520.238 362.553 518.905 363.775 515.047C364.569 512.54 365.236 509.693 365.053 507.153C364.929 505.43 364.416 502.664 365.143 501.217C365.967 499.576 365.158 498.334 367.658 497.179C369.891 496.147 372.309 496.212 374.847 496.014C380.428 495.578 380.703 491.235 386.247 490.802C391.291 490.408 397.756 481.083 397.498 477.5C397.347 475.402 394.805 479.785 391.498 479.5C387.697 479.173 386.025 482.789 382.163 482.456C376.868 482.001 372.253 484.372 367.312 483.154Z" fill="#44BBCC"/>
<path d="M315.996 484.139L316.004 484.137L316.012 484.134C332.419 478.707 349.914 479.382 367.19 483.64C369.767 484.275 372.244 483.969 374.68 483.585C374.942 483.544 375.203 483.502 375.464 483.46C377.653 483.106 379.819 482.757 382.118 482.955C384.217 483.136 385.724 482.235 387.087 481.421L387.107 481.409C388.495 480.581 389.732 479.85 391.452 479.998C393.321 480.159 394.93 479.004 395.979 478.22C396.042 478.173 396.102 478.128 396.161 478.084C396.358 477.936 396.531 477.806 396.689 477.696C396.816 477.607 396.917 477.544 396.996 477.5C396.997 477.512 396.999 477.525 397 477.539C397.055 478.302 396.746 479.459 396.106 480.824C395.475 482.17 394.555 483.652 393.468 485.04C392.381 486.429 391.138 487.709 389.871 488.662C388.595 489.621 387.337 490.216 386.211 490.303C383.287 490.532 381.729 491.806 380.263 493.006L380.246 493.02C378.8 494.204 377.439 495.31 374.811 495.515C374.357 495.551 373.899 495.577 373.441 495.604C371.412 495.723 369.359 495.843 367.45 496.725C366.787 497.032 366.309 497.359 365.964 497.723C365.614 498.093 365.421 498.478 365.296 498.865C365.209 499.134 365.151 499.425 365.098 499.691C365.079 499.782 365.062 499.87 365.043 499.953C364.968 500.3 364.875 500.639 364.696 500.995C364.268 501.847 364.226 503.019 364.28 504.109C364.307 504.667 364.361 505.231 364.415 505.756C364.426 505.858 364.436 505.958 364.447 506.056C364.49 506.47 364.53 506.852 364.554 507.191C364.73 509.634 364.088 512.406 363.299 514.898C362.716 516.739 361.779 517.89 360.545 518.416C359.3 518.947 357.636 518.894 355.496 518.067C354.653 517.742 354.208 516.86 354.057 515.709C353.908 514.576 354.072 513.345 354.286 512.615C355.439 508.682 354.269 504.808 351.084 501.863C350.219 501.064 348.97 500.241 347.572 499.778C346.174 499.314 344.584 499.199 343.09 499.889C341.473 500.636 340.452 501.618 339.879 502.767C339.309 503.907 339.209 505.156 339.33 506.391C339.45 507.624 339.793 508.88 340.142 510.05C340.211 510.281 340.28 510.507 340.347 510.729C340.629 511.656 340.889 512.511 341.036 513.285C341.466 515.539 341.42 517.131 341.054 518.717C340.742 520.072 340.198 521.426 339.482 523.209C339.344 523.553 339.2 523.912 339.05 524.29C338.78 524.968 338.431 525.369 338.048 525.611C337.659 525.857 337.187 525.969 336.627 525.986C336.063 526.003 335.439 525.925 334.764 525.814C334.568 525.782 334.366 525.746 334.161 525.711C333.676 525.626 333.173 525.539 332.684 525.479C331.775 525.369 331.092 525.113 330.575 524.757C330.06 524.402 329.685 523.932 329.412 523.352C328.857 522.17 328.739 520.557 328.79 518.641C328.814 517.757 328.873 516.829 328.933 515.868C328.938 515.796 328.942 515.725 328.947 515.654C329.012 514.62 329.076 513.552 329.097 512.487C329.138 510.36 329.007 508.2 328.336 506.261C328.003 505.298 327.842 504.648 327.697 504.057C327.366 502.715 327.111 501.679 325.08 497.989C322.119 492.608 317.972 490.799 313.231 488.732C312.124 488.25 310.985 487.753 309.821 487.193L309.782 487.175L309.742 487.163C308.872 486.914 308.331 486.688 308.029 486.496C307.915 486.423 307.855 486.37 307.824 486.337C307.831 486.329 307.839 486.321 307.849 486.312C307.912 486.253 308.014 486.18 308.168 486.097C308.475 485.932 308.914 485.766 309.45 485.602C310.516 485.277 311.872 484.991 313.109 484.746C313.356 484.697 313.601 484.65 313.838 484.604C314.757 484.424 315.562 484.267 315.996 484.139ZM307.795 486.294C307.796 486.294 307.798 486.297 307.8 486.305C307.795 486.297 307.795 486.294 307.795 486.294Z" stroke="#ED5966" stroke-opacity="0.92549" stroke-linecap="round"/>
<path d="M811.001 207.027C811.001 247.912 719.465 281.055 606.549 281.055C593.49 281.055 472.426 412.156 529.907 335.812C587.389 259.468 402.098 243.183 402.098 207.027C402.098 166.143 493.634 133 606.549 133C719.465 133 811.001 166.143 811.001 207.027Z" fill="#8E2F38"/>
<path d="M517.113 225.35C516.263 231.514 511.936 236.632 505.796 237.639V237.639C501.611 238.326 498.351 238.669 496.015 238.669C486.964 238.669 480.59 235.825 476.891 230.137C473.29 224.449 472.317 215.672 473.972 203.806C475.626 191.842 479.081 183.066 484.337 177.476C489.592 171.886 496.745 169.091 505.796 169.091C507.389 169.091 510.063 169.393 512.01 169.643C513.612 169.849 515.195 170.167 516.763 170.552L518.284 170.926C519.69 171.271 521.035 171.827 522.439 172.18V172.18C522.686 172.242 521.972 176.848 520.97 179.979C520.233 182.281 517.911 182.438 515.586 181.776L513.694 181.237C512.81 180.986 511.906 180.812 510.992 180.717V180.717C508.165 180.425 505.311 180.901 502.732 182.096L501.831 182.513C496.83 184.831 493.05 189.166 491.437 194.438L489.671 200.209C488.94 202.599 488.474 205.062 488.376 207.56C488.203 211.983 488.115 219.036 489.154 221.458C490.906 225.381 494.507 227.342 499.957 227.342V227.342C501.631 227.342 503.049 226.108 503.28 224.45L504.876 213.006C505.131 211.176 503.71 209.543 501.862 209.543V209.543C500.01 209.543 498.587 207.902 498.85 206.068L499.268 203.159C499.664 200.407 502.021 198.364 504.801 198.364H508.94C515.228 198.364 520.067 203.916 519.209 210.145L517.113 225.35Z" fill="white"/>
<path d="M575.155 175.41C574.674 178.075 573.477 180.538 571.983 182.797C565.371 192.797 558.698 202.776 551.965 212.735C548.231 218.257 552.178 225.724 558.843 225.724H561.872C565.316 225.724 567.963 228.773 567.479 232.182V232.182C567.083 234.975 564.693 237.051 561.872 237.051H533.52C529.485 237.051 526.367 233.508 526.88 229.506V229.506C527.012 228.47 527.385 227.48 527.969 226.614L550.022 193.905C553.558 188.66 549.8 181.595 543.475 181.595H542.009C537.981 181.595 534.886 178.029 535.451 174.042V174.042C535.783 171.705 537.33 169.722 539.552 168.928C549.072 165.526 574.444 157.682 575.548 170.268C575.684 171.819 575.457 173.735 575.155 175.41Z" fill="white"/>
<path d="M627.267 177.908C627.127 178.883 626.773 179.814 626.231 180.636C619.152 191.359 612.003 202.059 604.784 212.735C601.051 218.257 604.997 225.724 611.663 225.724H614.692C618.136 225.724 620.782 228.773 620.299 232.182V232.182C619.903 234.975 617.512 237.051 614.692 237.051H586.34C582.305 237.051 579.187 233.508 579.699 229.506V229.506C579.832 228.47 580.205 227.48 580.789 226.614L602.842 193.905C606.378 188.66 602.62 181.595 596.295 181.595H593.723C590.279 181.595 587.632 178.546 588.116 175.136V175.136C588.512 172.344 590.902 170.268 593.723 170.268H620.649C624.721 170.268 627.848 173.877 627.267 177.908V177.908Z" fill="white"/>
<path d="M665.859 189.685C665.755 188.324 663.811 188.007 663.365 189.297C663.321 189.425 663.276 189.554 663.231 189.685C662.355 192.235 661.382 194.98 660.312 197.922C659.241 200.766 658.122 203.757 656.954 206.895C656.811 207.301 656.667 207.706 656.523 208.111C655.182 211.854 657.912 215.869 661.888 215.869V215.869C665.144 215.869 667.725 213.115 667.445 209.872C667.359 208.885 667.269 207.893 667.173 206.895C666.881 203.757 666.638 200.766 666.443 197.922C666.248 194.98 666.054 192.235 665.859 189.685V189.685ZM656.508 176.967C658.192 172.911 662.152 170.268 666.543 170.268V170.268C671.999 170.268 676.609 174.313 677.318 179.722L683.762 228.855C684.332 233.198 680.951 237.051 676.571 237.051H675.94C672.61 237.051 669.81 234.55 669.436 231.24V231.24C669.062 227.931 666.262 225.43 662.931 225.43H656.501C652.718 225.43 649.314 227.73 647.903 231.24L647.192 233.009C646.21 235.451 643.843 237.051 641.211 237.051V237.051C636.614 237.051 633.494 232.377 635.257 228.131L656.508 176.967Z" fill="white"/>
<path d="M752.847 170.268C757.267 170.268 760.37 174.623 758.927 178.801L740.693 231.594C739.565 234.86 736.491 237.051 733.036 237.051H732.537C728.581 237.051 725.293 234.002 724.995 230.058V230.058C724.38 221.913 713.079 220.392 710.332 228.084L709.008 231.791C707.882 234.945 704.894 237.051 701.544 237.051V237.051C697.375 237.051 693.918 233.82 693.636 229.661L690.111 177.642C689.841 173.653 693.004 170.268 697.003 170.268V170.268C700.705 170.268 703.749 173.187 703.904 176.885L703.966 178.363C704.302 186.346 715.388 188.043 718.096 180.526L718.251 180.096C719.199 177.465 721.707 175.711 724.504 175.711V175.711C727.954 175.711 730.838 178.366 731.104 181.806V181.806C731.662 189.032 741.768 190.214 743.977 183.311L746.72 174.74C747.573 172.076 750.049 170.268 752.847 170.268V170.268Z" fill="white"/>
<defs>
<filter id="filter0_b_13_7" x="185.402" y="234.69" width="448.152" height="496.199" filterUnits="userSpaceOnUse" color-interpolation-filters="sRGB">
<feFlood flood-opacity="0" result="BackgroundImageFix"/>
<feGaussianBlur in="BackgroundImageFix" stdDeviation="2"/>
<feComposite in2="SourceAlpha" operator="in" result="effect1_backgroundBlur_13_7"/>
<feBlend mode="normal" in="SourceGraphic" in2="effect1_backgroundBlur_13_7" result="shape"/>
</filter>
</defs>
</svg>
