<?xml version="1.0" encoding="UTF-8"?>
<!DOCTYPE svg PUBLIC "-//W3C//DTD SVG 1.1//EN" "http://www.w3.org/Graphics/SVG/1.1/DTD/svg11.dtd">
<!-- Creator: CorelDRAW 2017 -->
<svg xmlns="http://www.w3.org/2000/svg" xml:space="preserve" width="143mm" height="143mm" version="1.1" style="shape-rendering:geometricPrecision; text-rendering:geometricPrecision; image-rendering:optimizeQuality; fill-rule:evenodd; clip-rule:evenodd"
viewBox="0 0 14300 14300"
 xmlns:xlink="http://www.w3.org/1999/xlink">
 <defs>
  <style type="text/css">
   <![CDATA[
    .fil2 {fill:#1A1A1A}
    .fil1 {fill:#5A526B}
    .fil0 {fill:#9786B8}
   ]]>
  </style>
 </defs>
 <g id="Слой_x0020_1">
  <metadata id="CorelCorpID_0Corel-Layer"/>
  <path class="fil0" d="M12916 8256c130,-112 291,-181 452,-249l-2039 0 0 702 -1933 0 -265 0 -185 0 -1415 0 -55 0 -431 0 0 671 -2043 0 0 656 -2000 0 0 702 -2090 0 0 702c0,0 -1,0 72,58 73,58 219,175 387,283 168,108 359,206 542,252 183,46 360,39 677,67 318,28 776,92 1242,180 466,88 938,201 1266,205 328,4 512,-102 790,-208 279,-106 653,-212 1030,-208 377,4 758,116 1058,268 300,152 519,342 822,445 303,102 691,116 963,42 272,-74 427,-236 674,-349 247,-113 586,-176 875,-148 289,28 529,148 748,113 219,-35 416,-226 526,-501 109,-275 131,-635 134,-1044 4,-409 -11,-868 -35,-1245 -25,-377 -60,-674 -28,-900 32,-226 131,-381 260,-493z"/>
  <rect class="fil1" x="8947" y="8007" width="2382" height="702"/>
  <rect class="fil1" x="7046" y="8709" width="2350" height="671"/>
  <rect class="fil1" x="5003" y="9380" width="2411" height="656"/>
  <path class="fil2" d="M7715 2878c-13,22 -15,72 5,108 20,36 64,56 118,70 55,14 121,22 183,36 62,14 121,34 210,92 89,57 209,151 333,253 125,102 254,211 338,294 84,83 122,139 160,245 38,107 76,265 108,420 32,155 57,308 90,411 33,103 74,156 113,195 39,38 78,61 75,89 -3,28 -46,61 -97,78 -51,17 -109,17 -163,6 -53,-10 -102,-31 -145,-107 -43,-76 -81,-209 -122,-369 -41,-160 -84,-348 -146,-493 -62,-145 -144,-247 -223,-326 -79,-79 -155,-135 -219,-169 -64,-34 -114,-47 -146,-24 -32,23 -45,81 -27,251 18,169 66,449 117,738 51,289 104,586 160,881 56,295 114,588 200,791 85,203 197,318 219,390 22,72 -47,103 -123,132 -76,29 -160,57 -273,66 -113,9 -256,-1 -373,-36 -117,-34 -209,-93 -314,-144 -106,-51 -225,-94 -318,-112 -93,-18 -159,-10 -203,33 -45,43 -67,122 -51,216 17,94 72,203 163,370 90,167 215,390 308,542 93,151 154,230 201,291 47,61 80,104 107,168 27,64 47,148 62,225 15,78 25,149 22,184 -4,36 -22,36 -36,13 -14,-23 -24,-69 -46,-102 -22,-33 -55,-53 -83,-42 -28,11 -51,55 -78,88 -27,33 -57,56 -117,67 -60,11 -149,11 -229,11 -80,0 -151,0 -195,-6 -43,-6 -59,-19 -36,-41 23,-22 84,-52 136,-92 52,-39 95,-88 121,-134 25,-46 33,-89 19,-146 -14,-57 -50,-128 -125,-248 -75,-120 -189,-287 -267,-399 -78,-112 -118,-168 -179,-282 -61,-114 -142,-287 -186,-425 -43,-137 -48,-239 -50,-312 -1,-72 1,-116 -25,-150 -27,-34 -83,-60 -141,-80 -59,-20 -120,-36 -155,-56 -36,-20 -46,-46 -13,-84 33,-38 109,-89 202,-181 93,-92 202,-224 286,-341 84,-117 142,-219 198,-337 56,-118 109,-253 151,-369 42,-116 72,-212 86,-299 14,-86 11,-163 -3,-228 -14,-65 -39,-118 -65,-155 -25,-37 -51,-57 -89,-43 -38,14 -89,62 -162,134 -72,71 -167,165 -259,265 -93,99 -184,203 -273,286 -89,83 -176,144 -268,189 -93,46 -192,76 -271,86 -79,10 -137,0 -175,-19 -38,-19 -56,-47 -50,-69 6,-22 37,-37 103,-74 66,-37 168,-95 305,-212 137,-117 310,-292 450,-449 140,-156 247,-294 328,-402 81,-108 137,-187 189,-266 52,-79 100,-158 151,-240 51,-83 104,-169 130,-233 25,-64 23,-104 11,-145 -11,-41 -32,-81 -62,-116 -31,-34 -71,-62 -125,-89 -53,-27 -120,-52 -174,-112 -55,-60 -98,-154 -127,-253 -29,-99 -45,-203 -43,-280 1,-76 19,-125 19,-139 0,-14 -18,6 -27,4 -9,-3 -9,-28 9,-71 18,-43 53,-104 103,-150 50,-46 113,-76 187,-97 74,-20 158,-31 248,-22 90,9 187,37 280,93 93,56 182,140 263,223 81,83 155,164 228,240 72,76 144,148 206,178 62,31 116,20 150,3 34,-18 50,-43 53,-28 4,15 -4,71 -31,116 -27,45 -72,78 -106,102 -33,24 -53,39 -46,55 8,15 43,31 67,37 24,6 37,4 29,25 -8,22 -36,67 -93,100 -57,33 -144,53 -233,47 -89,-6 -181,-39 -242,-69 -61,-29 -92,-55 -118,-71 -27,-17 -50,-24 -62,-3z"/>
  <path class="fil2" d="M8101 6329c88,83 141,274 245,423 104,149 259,256 404,341 145,85 278,149 371,182 92,33 143,36 210,53 67,17 152,49 195,71 43,22 45,34 31,39 -15,6 -46,6 -82,1 -36,-5 -77,-14 -97,2 -20,16 -20,58 -11,116 8,58 25,131 -20,211 -45,80 -152,167 -224,215 -72,48 -109,57 -118,35 -9,-22 10,-76 24,-139 14,-64 24,-137 25,-194 1,-56 -8,-96 -57,-131 -50,-35 -141,-66 -240,-100 -99,-34 -205,-71 -327,-141 -122,-69 -260,-171 -381,-289 -121,-118 -224,-251 -299,-362 -75,-111 -122,-198 -114,-256 7,-57 68,-85 161,-111 93,-26 217,-51 305,33z"/>
  <rect class="fil1" x="3003" y="10036" width="2382" height="702"/>
  <rect class="fil1" x="10957" y="7351" width="2411" height="656"/>
  <rect class="fil1" x="913" y="10738" width="2382" height="702"/>
 </g>
</svg>
