<?xml version="1.0" encoding="UTF-8"?>
<!DOCTYPE svg PUBLIC "-//W3C//DTD SVG 1.1//EN" "http://www.w3.org/Graphics/SVG/1.1/DTD/svg11.dtd">
<!-- Creator: CorelDRAW 2017 -->
<svg xmlns="http://www.w3.org/2000/svg" xml:space="preserve" width="143mm" height="143mm" version="1.1" style="shape-rendering:geometricPrecision; text-rendering:geometricPrecision; image-rendering:optimizeQuality; fill-rule:evenodd; clip-rule:evenodd"
viewBox="0 0 14300 14300"
 xmlns:xlink="http://www.w3.org/1999/xlink">
 <defs>
  <style type="text/css">
   <![CDATA[
    .str0 {stroke:black;stroke-width:20}
    .fil0 {fill:black}
    .fil2 {fill:#4D4D4D}
    .fil3 {fill:#7BAD52}
    .fil1 {fill:gray}
    .fil4 {fill:#E6E6E6}
   ]]>
  </style>
 </defs>
 <g id="Слой_x0020_1">
  <metadata id="CorelCorpID_0Corel-Layer"/>
  <path class="fil0" d="M7954 4321c379,10 788,83 1163,218 376,134 718,330 1019,562 301,232 561,501 784,844 223,343 410,761 519,1186 109,424 140,856 96,1253 -44,398 -164,762 -300,1067 -136,304 -287,549 -380,722 -93,173 -129,276 -84,358 44,82 169,144 291,162 122,18 242,-9 382,-13 140,-4 300,13 416,49 116,36 187,89 207,156 20,67 -11,147 18,191 29,44 118,53 218,87 100,33 211,91 184,138 -27,47 -191,82 -593,93 -402,11 -1042,-2 -2407,-2 -1364,0 -3453,13 -4562,9 -1109,-4 -1238,-27 -1282,-71 -44,-44 -4,-111 76,-158 80,-47 200,-73 316,-98 116,-24 227,-47 251,-89 24,-42 -38,-104 -60,-156 -22,-51 -4,-91 73,-136 78,-44 216,-93 293,-153 78,-60 96,-131 80,-208 -16,-77 -64,-159 -151,-350 -87,-191 -211,-491 -302,-781 -91,-290 -149,-570 -161,-891 -12,-320 21,-680 97,-1020 76,-340 193,-660 354,-960 161,-300 366,-580 608,-829 242,-249 522,-467 822,-642 300,-176 620,-309 954,-402 334,-93 683,-147 1062,-137z"/>
  <path class="fil1" d="M7859 5866c264,2 518,57 753,173 236,116 453,294 611,481 158,187 256,382 336,589 80,207 142,424 160,669 18,244 -9,516 -98,768 -89,253 -242,487 -439,636 -197,148 -439,211 -698,255 -259,44 -534,71 -808,76 -273,4 -544,-13 -796,-57 -252,-44 -484,-114 -662,-291 -178,-177 -303,-462 -374,-742 -71,-280 -89,-556 -69,-791 20,-236 78,-431 178,-638 100,-207 242,-424 431,-598 189,-173 424,-302 680,-392 256,-89 531,-139 796,-137z"/>
  <path class="fil2" d="M7887 6037c49,20 69,51 83,159 14,108 23,292 41,398 18,106 44,132 91,158 46,26 112,50 179,89 67,39 134,92 198,101 64,9 124,-27 214,-70 90,-43 210,-94 286,-122 76,-28 107,-32 136,-14 29,18 56,58 86,103 30,46 63,97 72,131 9,34 -7,52 -74,106 -68,53 -188,142 -273,219 -86,77 -137,141 -159,193 -22,52 -16,92 -8,154 8,62 17,147 12,206 -4,59 -22,92 -10,120 12,28 54,50 136,104 81,54 201,141 274,197 73,56 100,80 110,107 10,27 3,56 -29,103 -32,48 -90,114 -139,144 -49,30 -89,23 -183,-17 -94,-40 -243,-113 -337,-148 -93,-34 -131,-30 -183,-6 -52,24 -119,69 -181,106 -62,37 -120,66 -158,86 -38,20 -56,31 -71,129 -16,98 -29,282 -40,396 -11,113 -20,156 -54,183 -34,28 -94,41 -150,48 -56,7 -107,7 -138,-12 -31,-19 -42,-57 -59,-174 -17,-118 -39,-316 -52,-420 -13,-104 -18,-116 -76,-149 -58,-33 -169,-89 -244,-133 -76,-44 -116,-78 -146,-89 -30,-11 -50,0 -147,47 -97,47 -270,129 -367,168 -97,39 -117,34 -157,-10 -40,-44 -100,-129 -123,-181 -23,-52 -10,-72 78,-143 88,-71 250,-193 338,-263 88,-70 101,-88 106,-146 4,-58 0,-156 0,-230 0,-74 4,-126 7,-163 2,-38 2,-62 -59,-116 -61,-53 -183,-136 -277,-202 -93,-67 -158,-118 -186,-149 -28,-31 -19,-42 6,-86 24,-43 64,-119 98,-163 33,-44 60,-58 120,-42 60,16 153,60 247,104 93,44 187,89 244,108 58,19 80,12 123,-14 43,-27 108,-73 169,-110 61,-37 119,-63 161,-84 42,-21 69,-37 84,-89 15,-52 18,-141 23,-251 5,-109 12,-239 38,-311 26,-71 72,-83 133,-85 62,-2 139,7 188,27z"/>
  <circle class="fil0" cx="7746" cy="7689" r="553"/>
  <path class="fil3 str0" d="M4718 9702c-49,-82 -173,-353 -260,-653 -86,-300 -135,-628 -142,-953 -7,-324 28,-645 108,-947 80,-302 204,-587 342,-827 138,-240 289,-436 462,-620 173,-184 369,-358 571,-513 202,-155 409,-292 671,-402 262,-111 577,-195 824,-239 247,-44 424,-49 573,-40 149,9 269,31 231,56 -38,24 -233,51 -553,146 -320,94 -764,257 -1139,468 -375,212 -681,473 -950,801 -269,328 -503,724 -645,1109 -142,386 -193,761 -203,1102 -10,341 21,648 46,872 24,224 42,367 64,491 22,124 49,231 0,149z"/>
  <path class="fil4 str0" d="M7840 7252c-37,-18 -115,-24 -194,-9 -79,16 -159,53 -219,99 -61,46 -102,99 -129,163 -27,64 -41,138 -44,199 -3,61 3,109 24,162 21,53 57,111 88,147 32,36 59,51 66,32 7,-18 -8,-69 -14,-139 -6,-69 -4,-157 15,-231 19,-74 54,-134 99,-182 45,-48 99,-85 157,-111 58,-26 119,-40 151,-62 32,-22 36,-51 -2,-68z"/>
  <path class="fil4" d="M6384 6395c-308,-671 -615,-1341 -811,-1741 -196,-399 -280,-528 -300,-618 -19,-91 26,-144 193,-178 167,-34 455,-49 717,-205 262,-156 497,-452 581,-733 84,-281 15,-547 -167,-698 -182,-152 -478,-190 -676,-171 -197,19 -296,95 -323,53 -27,-42 19,-201 19,-349 0,-148 -46,-285 -243,-391 -197,-106 -547,-182 -790,-133 -243,49 -380,224 -444,399 -65,175 -57,349 -72,380 -15,30 -53,-84 -190,-163 -137,-80 -372,-125 -622,-102 -251,23 -516,114 -664,307 -148,194 -178,490 -251,619 -72,129 -186,91 -372,95 -186,4 -444,49 -611,224 -167,175 -243,478 -87,740 156,262 543,482 664,630 121,148 -23,224 -129,361 -106,137 -175,334 -72,535 102,201 376,406 702,444 326,38 706,-91 930,-266 224,-175 292,-395 399,-421 106,-27 251,140 421,140 171,0 368,-167 471,-319 102,-152 110,-288 382,-26 272,263 808,925 1344,1587z"/>
  <path class="fil3 str0" d="M9878 7242c-24,38 31,315 36,611 5,295 -38,609 -122,853 -84,244 -208,419 -376,556 -168,137 -379,235 -678,299 -299,64 -685,93 -939,109 -253,16 -374,20 -312,36 62,16 306,46 583,62 277,16 587,20 901,-47 314,-67 631,-206 844,-421 213,-215 323,-507 354,-802 31,-295 -16,-594 -91,-844 -75,-250 -177,-450 -201,-412z"/>
 </g>
</svg>
