<svg width="888" height="943" viewBox="0 0 888 943" fill="none" xmlns="http://www.w3.org/2000/svg">
<rect width="888" height="943" fill="#448ACB"/>
<path d="M275 115H641L555.988 243H357.775L275 115Z" fill="black"/>
<path d="M572 190.303C572 196.75 522.751 194.685 462 194.685C401.249 194.685 352 196.75 352 190.303C352 183.856 401.249 186.565 462 186.565C522.751 186.565 572 183.856 572 190.303Z" fill="#D9D9D9"/>
<path d="M589 155.693C589 165.722 533.036 162.511 464 162.511C394.964 162.511 339 165.722 339 155.693C339 145.665 394.964 149.879 464 149.879C533.036 149.879 589 145.665 589 155.693Z" fill="#D9D9D9"/>
<path d="M553 216.825C553 222.555 509.572 220.72 456 220.72C402.428 220.72 359 222.555 359 216.825C359 211.094 402.428 213.502 456 213.502C509.572 213.502 553 211.094 553 216.825Z" fill="#D9D9D9"/>
<rect x="275" y="99" width="366" height="16" fill="#494949"/>
<path d="M364.37 240.411H557.379C557.379 240.411 685.473 509.86 727.113 743.756C768.753 977.651 106.724 936.174 160.06 743.756C213.397 551.337 364.37 240.411 364.37 240.411Z" fill="#D9D9D9" fill-opacity="0.06"/>
<path d="M364.37 240.411H557.379C557.379 240.411 685.473 509.86 727.113 743.756C768.753 977.651 106.724 936.174 160.06 743.756C213.397 551.337 364.37 240.411 364.37 240.411Z" fill="#D9D9D9" fill-opacity="0.06"/>
<path d="M364.37 240.411H557.379C557.379 240.411 685.473 509.86 727.113 743.756C768.753 977.651 106.724 936.174 160.06 743.756C213.397 551.337 364.37 240.411 364.37 240.411Z" fill="#F2EC96" fill-opacity="0.16"/>
<path d="M364.37 240.411H557.379C557.379 240.411 685.473 509.86 727.113 743.756C768.753 977.651 106.724 936.174 160.06 743.756C213.397 551.337 364.37 240.411 364.37 240.411Z" fill="#F2EC96" fill-opacity="0.16"/>
<path d="M358.072 214.275L467.857 215.768L575.254 214.73C575.254 214.73 685.473 509.86 727.113 743.756C768.753 977.651 106.724 936.174 160.06 743.756C213.397 551.337 358.072 214.275 358.072 214.275Z" fill="#F2EC96" fill-opacity="0.16"/>
<path d="M358.072 214.275L467.857 215.768L575.254 214.73C575.254 214.73 685.473 509.86 727.113 743.756C768.753 977.651 106.724 936.174 160.06 743.756C213.397 551.337 358.072 214.275 358.072 214.275Z" fill="#D9D9D9" fill-opacity="0.06"/>
<path d="M341.113 163H590.022C590.022 163 685.473 509.86 727.113 743.756C768.753 977.651 106.724 936.174 160.06 743.756C213.397 551.337 341.113 163 341.113 163Z" fill="#D9D9D9" fill-opacity="0.06"/>
<path d="M341.113 163H590.022C590.022 163 685.473 509.86 727.113 743.756C768.753 977.651 106.724 936.174 160.06 743.756C213.397 551.337 341.113 163 341.113 163Z" fill="#D9D9D9" fill-opacity="0.06"/>
<path d="M341.113 163H590.022C590.022 163 685.473 509.86 727.113 743.756C768.753 977.651 106.724 936.174 160.06 743.756C213.397 551.337 341.113 163 341.113 163Z" fill="#F2EC96" fill-opacity="0.16"/>
<path d="M341.113 163H590.022C590.022 163 685.473 509.86 727.113 743.756C768.753 977.651 106.724 936.174 160.06 743.756C213.397 551.337 341.113 163 341.113 163Z" fill="#F2EC96" fill-opacity="0.16"/>
<path d="M717 803.798C717 852.455 591.642 899.204 461.853 899.204C334.279 908.334 170 836.935 170 788.278C170 739.62 332.064 723 461.853 723C591.642 723 717 755.141 717 803.798Z" fill="#EBEBEB"/>
<ellipse cx="478.5" cy="761.5" rx="35.5" ry="8.5" fill="#1D1D1D"/>
<path d="M496.407 741.559C495.857 728.011 495.014 701.155 496.04 702.117L479.947 681.007L461.509 681.155L447.719 702.505L448.085 741.947L462.253 761.252L480.692 761.104L496.407 741.559Z" stroke="black"/>
<path d="M478.123 741.706C477.573 728.158 476.73 701.302 477.756 702.264L461.664 681.154L443.226 681.302L429.435 702.652L429.802 742.094L443.97 761.399L462.408 761.251L478.123 741.706Z" fill="#929292" stroke="black"/>
<path d="M496.395 740.346L495.381 701.516L480.171 681.005L462.54 681.147L449.025 702.495L449.386 741.33L463.273 760.031L480.904 759.889L496.395 740.346Z" fill="#9E9E9E" stroke="#D9D9D9"/>
<path d="M474.915 747.8C468.784 747.85 463.703 735.936 463.566 721.19C463.429 706.445 468.287 694.451 474.418 694.402C480.549 694.353 485.63 706.267 485.767 721.012C485.904 735.758 481.045 747.751 474.915 747.8Z" fill="black"/>
<path d="M496.998 701.582L497.13 701.461C497.117 701.515 497.104 701.576 497.091 701.645C497.046 701.623 497.015 701.597 496.998 701.582ZM496.689 701.192C496.618 701.397 496.569 701.694 496.531 702.035C496.452 702.737 496.402 703.794 496.372 705.113C496.314 707.757 496.34 711.512 496.418 715.719C496.571 724.061 496.922 734.209 497.203 741.086L481.329 760.599L462.881 760.747L448.581 741.486L448.212 701.761L462.148 680.436L480.569 680.289L496.689 701.192Z" stroke="black"/>
<path d="M461 681H443.478L430 701H447.522L461 681Z" fill="white" stroke="black"/>
<path d="M448.48 742L430 743.212L444.52 762L463 761.394L448.48 742Z" fill="#333333" stroke="black"/>
<path d="M518.854 836.902C508.168 824.303 511.939 805.043 526.587 797.404L551.017 784.664C559.142 780.426 568.694 779.875 577.253 783.151L583.264 785.452C588.039 787.28 592.308 790.226 595.71 794.042L606.319 805.941C609.978 810.045 612 815.351 612 820.85V820.85C612 828.961 607.616 836.438 600.538 840.399L597.142 842.301C592.807 844.726 587.924 846 582.957 846H538.498C530.931 846 523.748 842.673 518.854 836.902V836.902Z" fill="#161616"/>
<path d="M578.152 768C563.601 768.395 534.76 768.947 535.803 768L513 782.803V799.974L535.803 813H578.152L599 799.974V782.803L578.152 768Z" stroke="black"/>
<path d="M578.152 783C563.601 783.395 534.76 783.947 535.803 783L513 797.803V814.974L535.803 828H578.152L599 814.974V797.803L578.152 783Z" fill="#575757" stroke="black"/>
<path d="M577.077 768L535.231 768.611L513 782.667V799.167L535.885 812H577.731L598 799.167V782.667L577.077 768Z" fill="#BABABA" stroke="#D9D9D9"/>
<path d="M584 788C584 793.523 571.24 798 555.5 798C539.76 798 527 793.523 527 788C527 782.477 539.76 778 555.5 778C571.24 778 584 782.477 584 788Z" fill="black"/>
<path d="M535.406 767.368L535.257 767.176C535.324 767.195 535.407 767.212 535.504 767.229C535.471 767.305 535.425 767.351 535.406 767.368ZM535.023 767.628C535.038 767.633 535.052 767.638 535.067 767.642C535.277 767.706 535.586 767.753 535.95 767.792C536.696 767.87 537.823 767.927 539.233 767.965C542.06 768.042 546.075 768.05 550.577 768.014C559.515 767.944 570.395 767.705 577.754 767.504L598.5 782.388V799.409L577.765 812.5H535.202L512.5 799.396V782.402L535.023 767.628Z" stroke="black"/>
<path d="M535 813V829" stroke="black"/>
<path d="M578 812V828" stroke="black"/>
<path d="M514.851 783.729C523.522 778.042 528.383 774.853 537.054 769.166" stroke="white" stroke-width="2"/>
<path d="M548.618 799.506L553.998 799.902C565.454 800.744 576.656 797.114 585.186 789.797V789.797" stroke="white" stroke-width="2"/>
<path d="M370.267 813L447.904 815.481L466.402 833.067C470.398 836.866 470.069 843.333 465.708 846.708L449.46 859.281C447.182 861.044 444.384 862 441.504 862H391.574C387.04 862 382.606 860.66 378.831 858.147L362.851 847.513C356.863 843.527 355.249 835.437 359.25 829.459L370.267 813Z" fill="#171717"/>
<path d="M434.909 783C420.189 783.395 391.013 783.947 392.068 783L369 797.803V814.974L392.068 828H434.909L456 814.974V797.803L434.909 783Z" stroke="black"/>
<path d="M434.909 799C420.189 799.395 391.013 799.947 392.068 799L369 813.803V830.974L392.068 844H434.909L456 830.974V813.803L434.909 799Z" fill="#575757" stroke="black"/>
<path d="M433.077 783L391.231 783.611L369 797.667V814.167L391.885 827H433.731L454 814.167V797.667L433.077 783Z" fill="#BABABA" stroke="#D9D9D9"/>
<path d="M440 803C440 808.523 426.792 813 410.5 813C394.208 813 381 808.523 381 803C381 797.477 394.208 793 410.5 793C426.792 793 440 797.477 440 803Z" fill="black"/>
<path d="M391.669 782.37L391.519 782.175C391.587 782.193 391.67 782.211 391.769 782.228C391.735 782.307 391.688 782.353 391.669 782.37ZM391.286 782.627C391.303 782.632 391.319 782.638 391.335 782.642C391.546 782.707 391.858 782.754 392.226 782.792C392.981 782.87 394.12 782.927 395.547 782.965C398.405 783.042 402.467 783.05 407.02 783.014C416.063 782.944 427.069 782.705 434.513 782.504L455.5 797.39V814.407L434.524 827.5H391.466L368.5 814.394V797.403L391.286 782.627Z" stroke="black"/>
<path d="M389 828V844" stroke="black"/>
<path d="M432 827V843" stroke="black"/>
<path d="M390 784C406.011 784 414.989 784 431 784" stroke="white" stroke-width="2"/>
<path d="M391 813.091L391.342 813.17C405.101 816.337 419.441 815.935 433 812V812" stroke="white" stroke-width="2"/>
<path d="M390 843V828H432V843H390Z" fill="#373737" stroke="black"/>
<path d="M578 828V811.934L598 800V816.066L578 828Z" fill="#373737" stroke="black"/>
<path d="M305.674 748L382.93 755.001L394.564 760.252L379.356 785.1L366.638 793.453C364.844 794.632 362.745 795.259 360.599 795.259H320.199C318.522 795.259 316.873 794.838 315.402 794.034L294.526 782.621C291.576 781.008 289.438 778.232 288.632 774.967L287.492 770.349C286.013 764.354 288.635 758.098 293.947 754.95L305.674 748Z" fill="#0E0E0E"/>
<path d="M368.546 722.297C355.33 723.032 329.128 724.265 330.051 723.319L309.706 738.27L310.151 754.975L331.216 767.097L369.71 766.076L388.324 752.9L387.88 736.195L368.546 722.297Z" stroke="black"/>
<path d="M368.811 737.683C355.494 738.42 329.094 739.659 330.024 738.712L309.522 753.667L309.744 762.02L309.966 770.372L330.024 781.461L369.975 781.461L388.733 768.282L388.289 751.577L368.811 737.683Z" fill="#6D6D6D" stroke="black"/>
<path d="M367.361 722.328L329.475 723.926L309.701 738.067L310.126 754.041L331.184 765.914L369.086 764.908L387.115 751.997L386.69 736.024L367.361 722.328Z" fill="#C3C3C3" stroke="#EBEBEB"/>
<path d="M374.987 741.663C375.135 747.217 363.588 752.03 349.197 752.412C334.806 752.794 323.019 748.601 322.872 743.046C322.724 737.492 334.271 732.679 348.662 732.297C363.053 731.915 374.839 736.108 374.987 741.663Z" fill="black"/>
<path d="M329.509 722.506L329.359 722.335C329.424 722.35 329.501 722.364 329.592 722.378C329.564 722.444 329.527 722.487 329.509 722.506ZM329.135 722.792C329.138 722.793 329.14 722.794 329.142 722.794C329.343 722.855 329.632 722.893 329.966 722.922C330.652 722.981 331.684 723.009 332.972 723.012C335.553 723.019 339.217 722.929 343.323 722.786C351.465 722.501 361.369 722.005 368.077 721.631L387.365 735.661L387.808 752.306L369.256 765.588L330.474 766.617L309.449 754.372L309.007 737.754L329.135 722.792Z" stroke="black"/>
<path d="M369.361 765.443L369.75 781.018" stroke="black" stroke-opacity="0.95"/>
<path d="M330.526 766.631L330.915 782.206" stroke="black" stroke-opacity="0.95"/>
<path d="M309 770.6V755L330 767V782L309 770.6Z" fill="#373737" stroke="black"/>
<path d="M346.172 753.019L333.889 751.425C331.241 751.082 328.699 750.042 326.509 748.406V748.406C324.746 747.089 323.546 745.117 323.182 742.936L322.789 740.591" stroke="white"/>
<path d="M367 722L387 737" stroke="white"/>
<path d="M484.758 351.012L452.59 391.293L430.201 391.133L484.758 351.012Z" fill="black"/>
<path d="M355.29 145.514C355.29 145.514 281.64 599.057 465.537 369.278" stroke="black" stroke-width="8"/>
</svg>
