<?xml version="1.0" encoding="UTF-8"?>
<!DOCTYPE svg PUBLIC "-//W3C//DTD SVG 1.1//EN" "http://www.w3.org/Graphics/SVG/1.1/DTD/svg11.dtd">
<!-- Creator: CorelDRAW 2017 -->
<svg xmlns="http://www.w3.org/2000/svg" xml:space="preserve" width="143mm" height="143mm" version="1.1" style="shape-rendering:geometricPrecision; text-rendering:geometricPrecision; image-rendering:optimizeQuality; fill-rule:evenodd; clip-rule:evenodd"
viewBox="0 0 14300 14300"
 xmlns:xlink="http://www.w3.org/1999/xlink">
 <defs>
  <style type="text/css">
   <![CDATA[
    .str1 {stroke:red;stroke-width:150}
    .str3 {stroke:black;stroke-width:100;stroke-linecap:round;stroke-linejoin:round}
    .str0 {stroke:black;stroke-width:150;stroke-linecap:round;stroke-linejoin:round}
    .str2 {stroke:red;stroke-width:150;stroke-linecap:round;stroke-linejoin:round}
    .fil4 {fill:none}
    .fil2 {fill:black}
    .fil5 {fill:#4D4D4D}
    .fil0 {fill:#5B962C}
    .fil3 {fill:#FFD663}
    .fil1 {fill:#FFE291}
   ]]>
  </style>
 </defs>
 <g id="Слой_x0020_1">
  <metadata id="CorelCorpID_0Corel-Layer"/>
  <path class="fil0" d="M3752 12404c220,2 601,5 781,-18 180,-23 160,-73 124,-184 -36,-110 -88,-281 -111,-472 -23,-191 -18,-403 21,-550 39,-147 112,-230 515,-269 403,-39 1137,-35 1906,-22 769,13 1573,33 2141,62 567,29 898,65 1139,160 241,94 392,246 473,407 81,161 90,331 107,494 16,164 39,321 146,402 107,80 300,83 491,94 191,11 381,30 483,-94 102,-124 116,-392 167,-754 52,-362 141,-819 208,-1230 67,-411 112,-777 97,-1017 -15,-240 -90,-355 -250,-567 -160,-212 -407,-522 -592,-742 -185,-220 -309,-350 -375,-525 -66,-175 -75,-394 -79,-648 -4,-254 -4,-544 -1,-791 3,-247 8,-452 20,-659 12,-208 32,-419 16,-566 -16,-147 -68,-230 -246,-412 -179,-181 -485,-460 -859,-820 -373,-360 -814,-802 -1116,-1001 -302,-199 -465,-155 -782,58 -317,212 -788,593 -1387,1224 -600,630 -1328,1510 -1837,2233 -509,723 -799,1291 -1051,1860 -252,570 -466,1141 -613,1568 -147,426 -228,707 -265,1002 -37,296 -31,606 -13,854 18,247 49,432 89,542 40,110 88,147 142,198 54,51 112,116 142,149 29,33 29,33 59,33 30,0 90,1 310,4z"/>
  <path class="fil1" d="M3578 1674c-25,23 -26,55 -65,1107 -39,1053 -115,3126 -171,4477 -55,1351 -89,1978 -109,2311 -20,332 -26,369 10,392 36,22 116,30 1189,66 1073,36 3139,100 4217,134 1078,33 1168,36 1227,33 58,-3 85,-13 101,-347 16,-334 20,-991 52,-2093 32,-1102 90,-2649 110,-3446 19,-798 0,-846 -180,-1037 -180,-191 -519,-525 -779,-790 -260,-265 -439,-462 -566,-572 -127,-110 -200,-133 -700,-160 -500,-26 -1428,-55 -2175,-75 -747,-21 -1314,-33 -1624,-40 -310,-7 -363,-9 -414,-2 -51,6 -99,21 -123,44z"/>
  <path class="fil2" d="M4014 8047c42,13 73,38 94,90 21,52 32,132 13,231 -19,99 -68,217 -111,369 -43,152 -81,340 -97,503 -16,164 -9,305 -39,475 -29,170 -94,370 -162,525 -68,156 -141,267 -172,418 -31,150 -21,339 17,582 38,243 103,540 149,742 46,202 72,309 47,365 -24,56 -99,62 -341,53 -242,-9 -653,-32 -915,-52 -262,-20 -375,-37 -441,-156 -65,-119 -82,-339 -98,-551 -16,-212 -32,-414 -78,-722 -46,-308 -124,-721 -178,-995 -54,-273 -84,-407 -101,-508 -17,-101 -20,-170 5,-241 25,-71 77,-143 193,-282 116,-138 294,-342 421,-487 126,-145 201,-230 256,-298 55,-69 91,-120 173,-144 82,-24 209,-20 340,-15 131,5 266,12 332,32 66,19 62,51 57,177 -5,126 -12,346 -21,515 -9,169 -21,288 -38,375 -17,87 -40,142 -32,128 8,-14 48,-98 89,-220 41,-122 83,-282 136,-421 53,-139 118,-256 179,-337 61,-80 118,-124 173,-144 55,-21 108,-19 150,-6z"/>
  <path class="fil3" d="M8508 1846c-37,-12 -78,-12 -106,16 -28,28 -43,83 -55,295 -12,212 -21,580 -31,825 -10,245 -22,367 -45,457 -23,91 -56,151 -52,187 4,36 46,48 170,66 124,18 330,43 599,40 269,-4 602,-36 792,-68 191,-33 239,-66 259,-115 20,-50 10,-117 -60,-219 -70,-102 -201,-240 -345,-388 -144,-148 -300,-305 -444,-452 -144,-147 -275,-282 -369,-378 -94,-95 -151,-150 -197,-190 -46,-40 -80,-64 -117,-76z"/>
  <path class="fil2" d="M9346 8237c-43,11 -75,33 -99,84 -24,51 -40,130 -27,230 13,100 54,220 88,375 34,155 60,344 65,508 5,165 -9,305 9,476 19,172 71,375 129,534 59,160 124,276 146,427 22,152 0,339 -41,559 -41,220 -100,472 -146,651 -46,179 -78,284 -58,341 21,58 95,68 337,74 242,6 653,8 916,5 263,-4 377,-13 449,-128 72,-114 103,-334 120,-524 17,-190 21,-351 74,-636 53,-284 156,-692 227,-962 71,-270 109,-401 132,-501 23,-100 30,-169 10,-241 -20,-72 -68,-148 -175,-293 -107,-145 -273,-360 -390,-512 -117,-152 -186,-242 -237,-314 -51,-72 -84,-126 -164,-155 -80,-29 -207,-33 -338,-36 -131,-3 -266,-4 -333,11 -67,15 -65,47 -68,173 -3,126 -9,346 -11,515 -1,170 3,289 15,377 12,88 31,144 24,129 -8,-15 -42,-101 -75,-225 -33,-124 -65,-287 -110,-429 -45,-142 -102,-263 -158,-347 -56,-84 -110,-131 -164,-155 -54,-24 -107,-26 -149,-15z"/>
  <path class="fil4 str0" d="M4193 4806c311,-102 622,-204 833,-197 211,8 322,126 504,134 182,8 435,-93 591,-103 156,-10 213,71 303,71 90,-1 213,-83 316,-86 104,-3 188,73 313,95 125,22 290,-9 399,11 109,20 163,93 217,85 54,-8 109,-96 162,-121 53,-25 105,12 198,25 93,12 227,-1 303,-4 76,-3 94,3 127,15 34,12 83,29 140,49 57,20 120,42 184,64"/>
  <path class="fil4 str0" d="M4126 6520c373,-111 746,-222 979,-230 233,-8 326,87 443,108 117,21 257,-33 373,-24 115,9 205,80 303,146 98,66 206,126 359,123 154,-3 354,-68 494,-69 140,-1 221,61 288,59 67,-2 120,-70 180,-82 59,-12 125,32 186,28 61,-4 118,-56 198,-52 80,5 183,66 306,41 123,-25 265,-137 361,-164 96,-27 146,32 174,74 28,43 33,70 44,78 11,8 29,-3 85,-20 57,-17 153,-40 249,-62"/>
  <g id="_1499527029936">
   <path class="fil2" d="M9464 6373c16,11 34,30 44,42 10,12 10,17 1,31 -9,14 -27,36 -45,56 -18,20 -36,38 -50,45 -14,7 -24,3 -27,-12 -3,-16 0,-43 5,-67 4,-24 9,-45 14,-63 5,-18 11,-32 21,-38 9,-6 22,-5 37,6z"/>
   <path class="fil5" d="M11515 3929c-199,308 -612,897 -919,1334 -307,437 -509,721 -617,872 -109,150 -124,166 -180,199 -56,33 -152,84 -208,109 -56,26 -73,27 -90,21 -17,-6 -35,-19 -52,-30 -17,-11 -35,-19 -44,-32 -9,-13 -10,-30 -4,-91 7,-62 22,-168 32,-230 11,-62 18,-79 54,-135 36,-55 102,-148 394,-564 292,-416 811,-1156 1087,-1547 276,-391 309,-434 341,-452 32,-18 63,-11 96,5 33,17 68,43 106,71 38,27 79,55 108,73 29,18 46,27 63,45 16,18 32,45 -166,353z"/>
   <path class="fil5" d="M12289 1939c31,-21 70,-74 103,-114 33,-40 60,-66 85,-81 25,-15 46,-18 95,-1 48,17 123,55 179,94 56,40 94,81 111,118 18,37 16,70 2,99 -14,29 -40,54 -61,82 -21,28 -37,57 -49,78 -12,21 -21,32 -22,42 -1,11 7,21 13,31 6,10 11,21 8,42 -3,21 -13,54 -116,209 -103,155 -298,433 -464,669 -166,236 -303,432 -377,540 -73,108 -83,130 -97,141 -14,11 -32,10 -58,-3 -26,-13 -60,-40 -141,-96 -81,-57 -211,-143 -288,-198 -78,-54 -104,-77 -118,-94 -14,-18 -15,-31 53,-122 68,-91 204,-259 364,-477 160,-218 343,-487 453,-647 110,-161 146,-213 169,-245 23,-32 32,-43 42,-52 10,-8 23,-14 40,-11 18,3 41,15 72,-5z"/>
   <path class="fil5" d="M12718 2307c44,16 117,48 168,80 51,32 81,64 93,89 11,25 4,44 -147,273 -151,230 -447,670 -603,894 -156,224 -172,231 -194,230 -22,-1 -51,-11 -75,-28 -25,-17 -46,-42 -52,-66 -7,-24 2,-47 117,-210 115,-163 338,-466 486,-672 148,-206 222,-315 261,-376 39,-61 42,-75 38,-85 -4,-10 -16,-16 -34,-26 -19,-10 -45,-24 -68,-38 -23,-14 -43,-28 -53,-41 -10,-13 -9,-25 -1,-31 8,-7 23,-8 67,7z"/>
  </g>
  <path class="fil4 str0" d="M7707 5774c-163,-86 -327,-171 -473,-188 -146,-17 -275,36 -373,51 -97,16 -163,-5 -267,-35 -104,-29 -247,-67 -352,-68 -105,-1 -172,34 -246,21 -74,-13 -153,-74 -209,-57 -56,17 -87,113 -165,127 -78,15 -203,-52 -302,-59 -99,-7 -172,47 -238,56 -66,9 -125,-26 -184,-75 -59,-49 -117,-112 -175,-110 -58,1 -116,67 -181,86 -65,19 -137,-10 -200,-43 -62,-33 -115,-71 -168,-110"/>
  <ellipse class="fil4 str1" transform="matrix(0.751216 0.212025 -0.212025 0.751216 8014.92 8357.76)" rx="857" ry="837"/>
  <path class="fil4 str2" d="M7614 8102c29,-30 58,-61 92,-64 33,-4 71,19 100,49 29,30 51,66 74,76 24,10 49,-5 73,-4 23,1 45,19 70,38 25,19 55,39 88,27 34,-12 71,-55 92,-47 21,8 26,67 43,100 17,33 46,39 72,27 26,-12 49,-42 70,-40 21,2 39,36 59,50 19,13 39,6 49,4 9,-2 8,2 7,6"/>
  <path class="fil4 str2" d="M7667 8578c20,-18 39,-36 65,-39 26,-3 59,9 79,24 19,15 25,33 56,18 30,-15 85,-64 106,-57 21,7 7,69 26,100 18,31 68,30 103,16 35,-14 56,-39 70,-37 14,2 23,33 29,54 6,21 8,31 17,33 9,2 25,-3 42,-9"/>
  <path class="fil4 str3" d="M6109 8401c210,-94 419,-189 553,-358 134,-170 192,-414 138,-439 -54,-24 -219,172 -302,382 -83,210 -85,432 -85,599 0,167 2,278 63,238 61,-41 181,-233 135,-291 -46,-58 -258,17 -345,49 -87,32 -50,20 107,-21 156,-40 432,-109 574,-74 142,35 151,173 177,150 26,-23 69,-207 127,-290 58,-83 132,-65 206,-47"/>
  <path class="fil4 str0" d="M8001 3963c-91,-83 -183,-167 -265,-182 -83,-15 -156,39 -212,56 -55,17 -92,-3 -151,-31 -59,-28 -139,-64 -198,-64 -59,0 -98,36 -139,24 -41,-12 -86,-72 -118,-55 -32,18 -51,114 -95,129 -44,16 -114,-49 -170,-55 -56,-5 -98,49 -135,59 -37,10 -71,-24 -103,-72 -33,-48 -65,-110 -98,-108 -33,2 -67,69 -104,88 -37,20 -78,-8 -112,-40 -35,-32 -64,-70 -93,-107"/>
 </g>
</svg>
