<?xml version="1.0" encoding="iso-8859-1"?>
<!-- Generator: Adobe Illustrator 19.0.0, SVG Export Plug-In . SVG Version: 6.00 Build 0)  -->
<svg version="1.1" id="Capa_1" xmlns="http://www.w3.org/2000/svg" xmlns:xlink="http://www.w3.org/1999/xlink" x="0px" y="0px"
	 viewBox="0 0 512 512" style="enable-background:new 0 0 512 512;" xml:space="preserve">
<path style="fill:#1DE8F1;" d="M500.241,29.758L255.97,85.851l-118.285,26.998c-1.201,0.298-2.401,0.298-3.602,0.298
	c-6.598,0-12.898-4.498-14.397-11.397c-1.8-8.1,3.001-16.199,11.099-17.999L255.97,54.954L493.642,0.361
	c8.098-1.8,15.897,3.3,17.997,11.399C513.439,19.858,508.34,27.958,500.241,29.758z"/>
<path style="fill:#17ACE8;" d="M134.984,150.043H74.991c-8.29,0-14.998-6.708-14.998-14.998v-29.996
	c0-24.811,20.184-44.995,44.995-44.995s44.995,20.184,44.995,44.995v29.996C149.982,143.335,143.274,150.043,134.984,150.043z"/>
<path style="fill:#FD003A;" d="M466.945,120.047H44.995C20.097,120.047,0,140.144,0,165.042v301.964
	C0,491.902,20.097,512,44.995,512h421.95c24.898,0,44.995-20.099,44.995-44.995V165.042
	C511.939,140.145,491.843,120.047,466.945,120.047z"/>
<path style="fill:#E50027;" d="M511.939,165.042v301.964c0,24.896-20.097,44.995-44.995,44.995H255.97V120.047h210.975
	C491.843,120.047,511.939,140.145,511.939,165.042z"/>
<g>
	<path style="fill:#CAE8F9;" d="M286.966,180.04H74.991c-8.4,0-14.998,6.598-14.998,14.998v60.993
		c0,8.398,6.598,14.998,14.998,14.998h211.975c8.4,0,14.998-6.6,14.998-14.998v-60.993
		C301.964,186.638,295.366,180.04,286.966,180.04z"/>
	<path style="fill:#CAE8F9;" d="M376.955,452.008c-41.348,0-74.991-33.643-74.991-74.991s33.643-75.991,74.991-75.991
		s74.991,34.643,74.991,75.991S418.304,452.008,376.955,452.008z"/>
</g>
<path style="fill:#B7E0F6;" d="M436.948,271.029h-89.989c-8.29,0-14.998-6.708-14.998-14.998v-60.993
	c0-8.29,6.708-14.998,14.998-14.998h89.989c8.29,0,14.998,6.708,14.998,14.998v60.993
	C451.947,264.321,445.238,271.029,436.948,271.029z"/>
<g>
	<path style="fill:#E50027;" d="M270.968,316.024v120.986c0,8.398-6.598,14.998-14.998,14.998s-14.998-6.6-14.998-14.998V316.024
		c0-8.4,6.598-14.998,14.998-14.998S270.968,307.624,270.968,316.024z"/>
	<path style="fill:#E50027;" d="M194.977,452.008c-8.29,0-14.998-6.708-14.998-14.998V316.024c0-8.29,6.708-14.998,14.998-14.998
		c8.29,0,14.998,6.708,14.998,14.998v120.986C209.975,445.299,203.267,452.008,194.977,452.008z"/>
	<path style="fill:#E50027;" d="M134.984,452.008c-8.29,0-14.998-6.708-14.998-14.998V316.024c0-8.29,6.708-14.998,14.998-14.998
		s14.998,6.708,14.998,14.998v120.986C149.982,445.299,143.274,452.008,134.984,452.008z"/>
	<path style="fill:#E50027;" d="M74.991,452.008c-8.29,0-14.998-6.708-14.998-14.998V316.024c0-8.29,6.708-14.998,14.998-14.998
		s14.998,6.708,14.998,14.998v120.986C89.99,445.299,83.281,452.008,74.991,452.008z"/>
</g>
<path style="fill:#A4D9F5;" d="M376.955,331.022c-24.811,0-44.995,21.184-44.995,45.995s20.184,44.995,44.995,44.995
	s44.995-20.184,44.995-44.995S401.766,331.022,376.955,331.022z"/>
<path style="fill:#B7E0F6;" d="M301.964,195.038v60.993c0,8.398-6.598,14.998-14.998,14.998H255.97V180.04h30.996
	C295.366,180.04,301.964,186.638,301.964,195.038z"/>
<path style="fill:#C1001F;" d="M270.968,316.024v120.986c0,8.398-6.598,14.998-14.998,14.998V301.025
	C264.37,301.025,270.968,307.624,270.968,316.024z"/>
<g>
</g>
<g>
</g>
<g>
</g>
<g>
</g>
<g>
</g>
<g>
</g>
<g>
</g>
<g>
</g>
<g>
</g>
<g>
</g>
<g>
</g>
<g>
</g>
<g>
</g>
<g>
</g>
<g>
</g>
</svg>
