<?xml version="1.0" encoding="UTF-8"?>
<!DOCTYPE svg PUBLIC "-//W3C//DTD SVG 1.1//EN" "http://www.w3.org/Graphics/SVG/1.1/DTD/svg11.dtd">
<!-- Creator: CorelDRAW 2017 -->
<svg xmlns="http://www.w3.org/2000/svg" xml:space="preserve" width="143mm" height="143mm" version="1.1" style="shape-rendering:geometricPrecision; text-rendering:geometricPrecision; image-rendering:optimizeQuality; fill-rule:evenodd; clip-rule:evenodd"
viewBox="0 0 14300 14300"
 xmlns:xlink="http://www.w3.org/1999/xlink">
 <defs>
  <style type="text/css">
   <![CDATA[
    .fil1 {fill:black}
    .fil0 {fill:#419BE0}
    .fil3 {fill:#4D4D4D}
    .fil4 {fill:white}
    .fil2 {fill:white}
   ]]>
  </style>
 </defs>
 <g id="Слой_x0020_1">
  <metadata id="CorelCorpID_0Corel-Layer"/>
  <path class="fil0" d="M5650 5038c-402,187 -924,427 -1305,328 -381,-99 -621,-536 -811,-857 -191,-321 -332,-526 -522,-501 -191,25 -430,279 -536,568 -106,289 -78,614 21,935 99,321 268,639 286,889 18,250 -116,434 -349,586 -233,152 -564,272 -734,469 -169,198 -176,473 -95,840 81,367 250,826 452,1196 201,370 434,653 737,907 303,254 677,480 868,681 191,201 198,377 426,579 228,202 678,429 1006,586 329,158 537,247 1000,291 463,44 1182,44 1731,28 549,-17 929,-50 1228,-119 300,-70 520,-176 937,-466 417,-290 1031,-762 1426,-1143 395,-381 572,-670 487,-995 -85,-325 -430,-684 -808,-893 -377,-208 -787,-265 -1037,-480 -250,-215 -342,-589 -35,-912 307,-323 1012,-594 1469,-871 457,-277 665,-559 792,-854 127,-295 173,-601 157,-896 -16,-295 -93,-577 -252,-760 -159,-183 -399,-268 -718,-305 -319,-37 -718,-26 -1196,56 -478,83 -1035,238 -1658,359 -623,122 -1311,210 -1796,321 -485,111 -767,245 -1170,432z"/>
  <path class="fil1" d="M5488 10746c-361,-177 -447,-327 -485,-416 -38,-89 -27,-117 4,-137 31,-20 81,-31 140,-47 59,-16 126,-35 232,-91 105,-56 248,-148 411,-320 164,-172 348,-424 445,-633 97,-209 107,-373 105,-512 -1,-138 -14,-249 -77,-341 -63,-92 -177,-165 -301,-284 -125,-119 -260,-284 -382,-526 -121,-242 -228,-563 -286,-917 -58,-354 -68,-742 -5,-1149 63,-407 199,-834 375,-1139 176,-304 392,-487 702,-637 310,-150 715,-269 1147,-256 432,13 891,157 1216,530 325,373 515,976 606,1476 91,500 81,898 23,1223 -58,325 -165,577 -296,815 -131,238 -286,461 -435,603 -148,142 -290,203 -352,280 -62,78 -44,172 -36,311 8,139 6,324 77,528 72,204 217,427 368,571 151,145 307,211 450,250 143,40 274,54 364,58 90,5 139,0 174,36 35,36 56,111 -41,254 -97,143 -312,353 -750,539 -438,186 -1100,349 -1749,329 -649,-20 -1284,-223 -1645,-399z"/>
  <path class="fil1" d="M5042 10813c18,123 148,312 207,512 60,200 49,412 31,550 -18,139 -45,205 -71,269 -26,64 -53,126 40,203 93,77 304,170 589,232 284,62 642,93 1076,108 434,15 946,15 1352,-24 406,-40 706,-119 867,-183 161,-64 183,-112 174,-179 -9,-66 -49,-150 -68,-289 -20,-139 -20,-333 -11,-525 9,-192 26,-381 39,-530 13,-148 21,-255 -59,-343 -79,-88 -246,-157 -517,-234 -271,-77 -646,-161 -1016,-214 -370,-53 -736,-75 -1074,-36 -337,40 -646,141 -873,226 -227,85 -372,153 -492,215 -119,62 -212,118 -193,241z"/>
  <path class="fil2" d="M7127 6295c-140,-33 -337,-20 -445,158 -108,178 -127,520 -72,764 54,244 182,391 295,522 113,132 212,248 326,244 113,-4 241,-129 328,-246 87,-117 135,-225 151,-366 16,-140 1,-313 -50,-465 -51,-153 -138,-285 -223,-392 -86,-106 -170,-186 -310,-220z"/>
  <path class="fil2" d="M6759 4612c-78,-46 -177,-27 -250,59 -73,86 -119,237 -105,358 14,120 87,209 188,179 101,-30 230,-180 266,-309 36,-130 -21,-240 -99,-286z"/>
  <path class="fil2" d="M8344 5689c-103,93 -266,146 -380,90 -114,-56 -181,-220 -181,-406 0,-186 65,-392 135,-505 70,-112 145,-131 249,-38 104,92 237,295 281,463 44,168 0,303 -104,396z"/>
  <path class="fil3" d="M7893 4004c179,272 579,621 938,447 -148,-115 -747,-371 -938,-447z"/>
  <path class="fil3" d="M6872 3535c-136,263 -465,618 -806,495 123,-119 641,-408 806,-495z"/>
  <path class="fil1" d="M4698 5512c-157,272 -486,729 -773,1112 -287,382 -530,689 -681,929 -150,239 -207,411 -239,613 -32,202 -39,435 160,824 199,389 603,935 985,1350 382,415 741,701 980,866 240,166 361,212 512,28 151,-185 333,-600 363,-858 30,-258 -92,-357 -119,-479 -26,-122 43,-266 112,-410 -49,30 -98,61 -152,89 -54,28 -112,55 -194,71 -82,16 -189,22 -344,-57 -155,-80 -360,-246 -598,-510 -237,-264 -508,-626 -481,-1003 27,-377 352,-768 616,-1099 264,-331 467,-600 555,-881 88,-281 59,-574 44,-794 -15,-220 -16,-368 -20,-558 -4,-190 -9,-421 -14,-620 -5,-199 -10,-365 -41,-464 -31,-98 -89,-128 -120,-100 -31,28 -35,115 -43,284 -7,169 -17,422 -19,572 -3,150 2,198 -2,217 -3,19 -14,8 -51,-173 -36,-181 -98,-532 -152,-700 -54,-168 -99,-152 -127,-108 -28,44 -39,116 -23,268 16,152 58,384 92,532 33,148 58,210 57,226 0,15 -26,-17 -80,-143 -54,-127 -138,-348 -200,-492 -62,-143 -102,-208 -141,-224 -39,-16 -76,18 -56,150 20,132 97,362 155,548 58,185 98,325 121,409 23,84 30,112 42,169 12,57 29,143 -128,414z"/>
  <path class="fil1" d="M5776 4019c-14,-43 -64,-60 -111,-17 -47,43 -91,146 -140,273 -49,126 -104,276 -149,412 -45,136 -80,258 -85,336 -5,79 21,114 84,42 63,-72 162,-251 229,-413 68,-162 104,-306 133,-414 30,-107 52,-177 39,-220z"/>
  <path class="fil1" d="M9591 4473c201,197 392,571 642,989 250,418 561,880 824,1300 263,420 478,797 623,1106 145,309 219,549 185,870 -34,321 -175,723 -485,1122 -310,399 -790,794 -1145,1034 -355,240 -584,325 -743,438 -159,114 -247,257 -386,246 -139,-11 -330,-175 -430,-406 -100,-231 -111,-529 -115,-813 -5,-284 -4,-554 -4,-823 161,121 321,242 577,223 255,-19 605,-179 883,-362 277,-182 482,-387 588,-574 106,-187 113,-356 28,-691 -85,-335 -261,-836 -486,-1286 -225,-449 -498,-848 -677,-1218 -178,-370 -262,-713 -330,-941 -68,-228 -121,-340 -42,-386 80,-46 292,-25 493,173z"/>
  <path class="fil1" d="M9530 4482c23,-57 87,-90 133,-139 46,-49 74,-114 97,-169 22,-55 39,-100 77,-137 39,-37 100,-65 152,-65 52,0 95,29 106,51 11,22 -9,39 -38,69 -29,31 -65,75 -92,147 -26,71 -43,169 -43,270 0,101 16,205 30,293 14,89 26,162 16,201 -10,39 -42,43 -95,10 -53,-33 -126,-102 -185,-160 -59,-58 -104,-105 -135,-169 -31,-64 -47,-146 -23,-203z"/>
  <path class="fil1" d="M9617 4561c-28,-86 -97,-236 -168,-405 -71,-169 -143,-355 -201,-467 -58,-112 -102,-148 -135,-163 -33,-14 -54,-6 -68,6 -14,12 -21,29 -16,71 6,42 24,111 68,237 44,126 113,311 178,448 65,137 126,227 182,285 56,59 107,86 140,90 33,4 47,-17 20,-102z"/>
  <path class="fil1" d="M9402 4504c-35,-83 -117,-227 -202,-389 -85,-162 -173,-341 -241,-448 -67,-106 -114,-139 -148,-150 -34,-11 -54,-1 -67,12 -13,13 -19,30 -10,72 9,42 33,108 88,230 55,122 140,300 216,431 77,131 145,215 206,269 61,54 115,77 148,77 33,1 45,-21 11,-104z"/>
  <path class="fil1" d="M9343 4650c-47,-77 -149,-208 -257,-355 -108,-148 -222,-312 -304,-407 -82,-95 -134,-121 -169,-127 -35,-6 -54,7 -65,22 -11,15 -14,33 1,73 15,40 49,102 121,215 72,113 182,276 277,394 95,118 175,191 243,235 68,44 125,59 157,55 33,-4 42,-27 -5,-104z"/>
  <path class="fil4" d="M7682 2251c-4,308 -2,818 2,1163 4,345 9,526 21,625 13,99 34,115 47,-97 13,-212 20,-653 24,-1000 4,-347 7,-600 4,-784 -3,-184 -12,-298 -24,-358 -13,-60 -30,-66 -44,-15 -14,51 -25,158 -29,466z"/>
  <path class="fil4" d="M8082 2249c-4,308 -2,818 2,1163 4,345 9,526 21,625 13,99 34,115 47,-97 13,-212 20,-653 24,-1000 4,-347 7,-600 4,-784 -3,-184 -12,-298 -24,-358 -13,-60 -30,-66 -44,-15 -14,51 -25,158 -29,466z"/>
  <path class="fil4" d="M8503 2194c-4,308 -2,818 2,1163 4,345 9,526 21,625 13,99 34,115 47,-97 13,-212 20,-653 24,-1000 4,-347 7,-600 4,-784 -3,-184 -12,-298 -24,-358 -13,-60 -30,-66 -44,-15 -14,51 -25,158 -29,466z"/>
  <path class="fil4" d="M8873 2251c-4,308 -2,818 2,1163 4,345 9,526 21,625 13,99 34,115 47,-97 13,-212 20,-653 24,-1000 4,-347 7,-600 4,-784 -3,-184 -12,-298 -24,-358 -13,-60 -30,-66 -44,-15 -14,51 -25,158 -29,466z"/>
  <path class="fil4" d="M9279 2472c-4,308 -2,818 2,1163 4,345 9,526 21,625 13,99 34,115 47,-97 13,-212 20,-653 24,-1000 4,-347 7,-600 4,-784 -3,-184 -12,-298 -24,-358 -13,-60 -30,-66 -44,-15 -14,51 -25,158 -29,466z"/>
  <path class="fil1" d="M4914 4885c-47,-40 -118,-40 -181,-62 -63,-22 -118,-67 -164,-106 -45,-39 -80,-71 -131,-86 -51,-15 -119,-12 -165,12 -46,24 -71,69 -71,94 0,25 26,30 65,44 39,14 93,37 149,88 56,51 116,131 162,220 46,90 79,189 108,275 28,85 51,156 78,186 27,30 57,19 89,-35 32,-53 65,-148 91,-227 26,-79 44,-141 42,-212 -2,-71 -25,-151 -73,-191z"/>
  <path class="fil1" d="M6058 3075c-60,-138 -213,-470 -326,-708 -113,-238 -184,-382 -236,-454 -52,-72 -84,-72 -101,-42 -17,29 -20,88 49,227 70,139 212,358 325,538 113,181 196,323 255,423 59,99 94,155 34,17z"/>
  <path class="fil1" d="M5736 3191c-123,-145 -403,-460 -561,-622 -158,-163 -194,-173 -218,-157 -24,16 -36,59 5,122 41,63 134,147 253,251 119,105 265,231 365,317 100,87 156,134 200,171 45,37 79,62 -44,-82z"/>
  <path class="fil1" d="M10443 4750c169,-55 552,-168 779,-218 227,-51 298,-40 318,-20 20,20 -11,49 -133,82 -122,33 -336,71 -525,106 -189,35 -352,68 -456,86 -105,18 -151,20 18,-35z"/>
 </g>
</svg>
