<?xml version="1.0" encoding="UTF-8"?>
<!DOCTYPE svg PUBLIC "-//W3C//DTD SVG 1.1//EN" "http://www.w3.org/Graphics/SVG/1.1/DTD/svg11.dtd">
<!-- Creator: CorelDRAW 2017 -->
<svg xmlns="http://www.w3.org/2000/svg" xml:space="preserve" width="143mm" height="143mm" version="1.1" style="shape-rendering:geometricPrecision; text-rendering:geometricPrecision; image-rendering:optimizeQuality; fill-rule:evenodd; clip-rule:evenodd"
viewBox="0 0 14300 14300"
 xmlns:xlink="http://www.w3.org/1999/xlink">
 <defs>
  <style type="text/css">
   <![CDATA[
    .fil7 {fill:none}
    .fil4 {fill:black}
    .fil1 {fill:black}
    .fil2 {fill:#6666CC}
    .fil6 {fill:#6E2D17}
    .fil8 {fill:gray}
    .fil0 {fill:#AD5240}
    .fil5 {fill:red}
    .fil3 {fill:#FFD663}
    .fil9 {fill:white}
   ]]>
  </style>
 </defs>
 <g id="Слой_x0020_1">
  <metadata id="CorelCorpID_0Corel-Layer"/>
  <path class="fil0" d="M9319 8676c571,434 1372,1235 1962,1845 589,610 967,1029 1206,1324 238,294 337,464 249,615 -88,152 -363,286 -674,268 -310,-18 -656,-187 -943,-268 -286,-81 -513,-72 -743,-47 -230,25 -463,68 -660,121 -198,53 -360,116 -575,145 -215,28 -483,21 -748,-42 -265,-64 -526,-183 -938,-272 -413,-88 -977,-145 -1372,-194 -395,-49 -621,-92 -836,-42 -215,49 -420,191 -624,282 -205,92 -409,134 -540,95 -131,-39 -187,-159 -413,-88 -226,71 -621,332 -949,409 -328,78 -589,-28 -702,-176 -113,-148 -78,-339 191,-691 268,-353 769,-868 1327,-1465 558,-597 1173,-1276 1546,-1661 373,-385 505,-474 761,-567 256,-92 636,-186 1026,-213 391,-27 792,14 1164,67 372,54 714,121 1285,555z"/>
  <path class="fil1" d="M7393 2854c171,0 445,0 694,10 249,10 473,31 641,97 168,66 280,178 401,417 121,239 251,604 380,979 130,376 259,762 317,1136 57,374 42,734 31,1191 -12,457 -20,1009 -74,1341 -54,332 -153,444 -474,503 -320,59 -861,65 -1554,65 -693,0 -1537,-7 -2036,-28 -499,-21 -652,-56 -773,-135 -121,-78 -209,-200 -273,-574 -64,-374 -104,-1000 -127,-1447 -23,-447 -29,-714 24,-988 53,-274 165,-553 295,-895 131,-342 280,-746 407,-1001 127,-255 233,-361 364,-442 131,-81 286,-137 426,-171 140,-34 264,-47 432,-53 168,-6 379,-6 519,-6 140,0 208,0 379,0z"/>
  <path class="fil1" d="M8551 9021c604,591 1734,1748 2307,2352 573,603 590,653 562,687 -28,34 -100,53 -169,53 -69,0 -136,-19 -726,-619 -590,-600 -1703,-1782 -2260,-2398 -557,-616 -557,-665 -543,-690 14,-25 42,-25 94,-12 53,12 130,37 734,628z"/>
  <path class="fil1" d="M5933 9122c-604,591 -1734,1748 -2307,2352 -573,603 -590,653 -562,687 28,34 100,53 169,53 69,0 136,-19 726,-619 590,-600 1703,-1782 2260,-2398 557,-616 557,-665 543,-690 -14,-25 -42,-25 -94,-12 -53,12 -130,37 -734,628z"/>
  <path class="fil1" d="M9630 9829c-51,-35 -62,-35 -810,-29 -748,6 -2231,17 -2990,17 -758,0 -791,-11 -866,35 -75,46 -193,150 -281,227 -88,77 -146,128 -142,158 4,31 69,42 656,42 587,0 1696,-11 2506,-18 810,-7 1322,-11 1651,-13 329,-3 474,-5 563,-13 88,-8 120,-22 101,-61 -19,-39 -88,-104 -167,-171 -80,-67 -170,-137 -221,-172z"/>
  <path class="fil1" d="M10422 10740c-69,-47 -84,-47 -1094,-40 -1010,8 -3016,23 -4041,23 -1025,0 -1069,-15 -1171,47 -102,63 -261,203 -380,307 -119,104 -197,172 -192,214 5,42 93,57 887,57 793,0 2292,-15 3387,-25 1095,-10 1787,-14 2231,-18 444,-4 641,-7 760,-18 120,-11 162,-30 137,-83 -25,-53 -119,-140 -226,-231 -108,-91 -230,-186 -298,-233z"/>
  <path class="fil2" d="M9079 4417c76,156 162,456 228,676 67,220 115,360 97,435 -18,75 -101,85 -381,92 -280,7 -756,10 -1063,10 -307,0 -445,-2 -518,-37 -72,-34 -79,-101 -81,-250 -3,-150 -1,-384 -1,-564 1,-180 1,-308 7,-385 6,-78 19,-106 74,-125 55,-19 151,-29 357,-33 206,-4 521,-2 717,-1 196,1 273,1 346,7 72,6 140,19 216,175z"/>
  <path class="fil2" d="M5328 4400c-74,137 -154,397 -223,607 -69,210 -128,369 -113,464 15,95 102,124 382,141 280,17 752,21 1057,22 305,1 444,-2 516,-37 72,-35 79,-103 84,-251 5,-148 8,-378 10,-557 2,-180 2,-310 -5,-389 -6,-79 -19,-108 -74,-128 -55,-20 -151,-30 -357,-34 -206,-4 -521,-2 -717,-1 -196,1 -273,1 -346,7 -72,7 -140,20 -214,156z"/>
  <circle class="fil3" cx="5598" cy="7599" r="406"/>
  <circle class="fil3" cx="8972" cy="7590" r="406"/>
  <path class="fil4" d="M7213 2884c-190,-313 -132,-347 -554,-499 -528,-190 -1049,-267 -1578,-408 -110,-30 -163,-144 67,-169 485,-52 1552,-14 2082,-14 298,0 2324,-34 2383,88 86,178 -626,211 -692,222 -645,109 -1287,89 -1623,712 0,0 -82,153 -87,68zm0 0c51,35 40,-75 112,-212 265,-510 1000,-599 1634,-702 -668,1 -1348,28 -2019,15 -359,-7 -898,1 -1348,-11 176,44 352,86 457,117 465,137 1081,256 1165,793z"/>
  <path class="fil1" d="M8949 9143c-37,-26 -45,-26 -592,-21 -547,4 -1632,12 -2187,12 -555,0 -578,-8 -633,26 -55,34 -141,110 -205,166 -64,56 -106,93 -104,116 3,23 50,31 480,31 429,0 1240,-8 1833,-14 593,-5 967,-8 1207,-10 240,-2 347,-4 412,-10 65,-6 88,-16 74,-45 -14,-29 -64,-76 -122,-125 -58,-49 -124,-100 -161,-126z"/>
  <path class="fil1" d="M8445 8497c170,18 227,51 268,99 40,47 63,109 34,152 -30,44 -112,70 -387,81 -275,11 -743,6 -1126,3 -383,-3 -682,-5 -880,-7 -199,-2 -297,-5 -368,-13 -71,-9 -113,-23 -137,-46 -24,-23 -28,-54 -22,-85 6,-31 23,-61 76,-85 53,-24 141,-42 449,-61 308,-19 835,-39 1239,-49 404,-9 686,-8 855,10z"/>
  <path class="fil5" d="M6836 3119c26,-32 69,-37 169,-43 100,-6 255,-12 375,-14 120,-2 204,2 253,16 50,14 65,39 78,76 12,37 22,87 -15,122 -36,35 -118,55 -263,65 -145,10 -352,10 -469,-4 -117,-14 -143,-42 -153,-85 -9,-43 -2,-101 24,-133z"/>
  <g id="_2296378127760">
   <path class="fil6" d="M9873 3983c1072,-434 2473,-874 3610,-1142 -1162,519 -2339,898 -3610,1142z"/>
  </g>
  <path class="fil7" d="M9873 3983c582,-171 1164,-342 1766,-533 602,-190 1223,-400 1845,-610"/>
  <g id="_2296378125648">
   <path class="fil6" d="M10382 5648c933,-56 2173,-9 3096,108 -1046,104 -2064,79 -3096,-108z"/>
  </g>
  <path class="fil7" d="M10382 5648c483,29 965,58 1481,76 516,18 1065,25 1615,32"/>
  <g id="_2296378123344">
   <path class="fil6" d="M10344 7601c768,247 1867,720 2559,1094 -957,-237 -1769,-567 -2559,-1094z"/>
  </g>
  <path class="fil7" d="M10344 7601c383,184 766,368 1192,550 427,182 897,363 1367,543"/>
  <g id="_2296378120560">
   <path class="fil6" d="M10069 7882c625,181 795,229 1286,606 -633,-150 -772,-249 -1286,-606z"/>
  </g>
  <path class="fil7" d="M10069 7882c275,130 549,260 764,361 214,101 368,173 522,245"/>
  <g id="_2296378121360">
   <path class="fil6" d="M4486 3956c-1095,-371 -2519,-730 -3670,-931 1190,450 2387,761 3670,931z"/>
  </g>
  <path class="fil7" d="M4486 3956c-591,-137 -1182,-274 -1794,-429 -612,-155 -1244,-328 -1877,-502"/>
  <g id="_2296378119248">
   <path class="fil6" d="M4150 5998c-920,-164 -2157,-260 -3088,-251 1027,224 2042,317 3088,251z"/>
  </g>
  <path class="fil7" d="M4150 5998c-483,-27 -966,-54 -1480,-96 -515,-42 -1061,-98 -1608,-155"/>
  <g id="_2296378101264">
   <path class="fil6" d="M4274 7843c-921,295 -2239,862 -3068,1311 1147,-283 2122,-679 3068,-1311z"/>
  </g>
  <path class="fil7" d="M4274 7843c-459,221 -918,441 -1429,660 -511,219 -1075,435 -1639,651"/>
  <g id="_2296378099568">
   <path class="fil6" d="M4551 3592c-523,-387 -665,-493 -1262,-654 504,412 666,462 1262,654z"/>
  </g>
  <path class="fil7" d="M4551 3592c-270,-139 -540,-279 -750,-388 -210,-109 -361,-187 -512,-266"/>
  <path class="fil8" d="M7868 7285c-292,-14 -856,-22 -1153,-13 -296,9 -325,33 -312,60 13,26 69,54 233,73 165,19 439,28 718,27 279,-1 562,-12 704,-29 142,-17 142,-40 132,-62 -10,-22 -30,-42 -322,-56z"/>
  <path class="fil8" d="M6707 7567c292,-9 857,-7 1153,6 296,14 324,39 310,65 -14,26 -70,53 -236,69 -165,16 -440,21 -719,15 -279,-5 -561,-21 -702,-40 -141,-19 -140,-43 -130,-64 11,-22 31,-41 324,-50z"/>
  <path class="fil8" d="M6699 7845c292,-12 857,-15 1153,-5 296,11 325,36 311,62 -14,26 -69,54 -235,71 -165,17 -440,25 -718,22 -279,-3 -562,-16 -703,-34 -141,-18 -141,-41 -131,-63 10,-22 31,-42 323,-53z"/>
  <path class="fil9" d="M6625 4379c-171,-11 -545,-19 -771,-21 -226,-3 -303,-1 -359,26 -56,27 -89,80 -150,237 -61,157 -151,418 -162,502 -11,84 55,-10 129,-116 75,-106 157,-224 255,-309 98,-85 211,-136 358,-169 147,-34 329,-49 469,-64 140,-15 239,-29 304,-44 65,-15 97,-31 -74,-42z"/>
  <path class="fil9" d="M7731 4353c171,-11 545,-19 771,-21 226,-3 303,-1 359,26 56,27 89,80 150,237 61,157 151,418 162,502 11,84 -55,-10 -129,-116 -75,-106 -157,-224 -255,-309 -98,-85 -211,-136 -358,-169 -147,-34 -329,-49 -469,-64 -140,-15 -239,-29 -304,-44 -65,-15 -97,-31 74,-42z"/>
 </g>
</svg>
