<?xml version="1.0" encoding="UTF-8"?>
<!DOCTYPE svg PUBLIC "-//W3C//DTD SVG 1.1//EN" "http://www.w3.org/Graphics/SVG/1.1/DTD/svg11.dtd">
<!-- Creator: CorelDRAW 2017 -->
<svg xmlns="http://www.w3.org/2000/svg" xml:space="preserve" width="143mm" height="143mm" version="1.1" style="shape-rendering:geometricPrecision; text-rendering:geometricPrecision; image-rendering:optimizeQuality; fill-rule:evenodd; clip-rule:evenodd"
viewBox="0 0 14300 14300"
 xmlns:xlink="http://www.w3.org/1999/xlink">
 <defs>
  <style type="text/css">
   <![CDATA[
    .fil5 {fill:black}
    .fil6 {fill:#4D4D4D}
    .fil0 {fill:#5B962C}
    .fil4 {fill:#999999}
    .fil1 {fill:#F7735A}
    .fil2 {fill:#FFD663}
    .fil3 {fill:#FFE77B}
    .fil7 {fill:white}
   ]]>
  </style>
 </defs>
 <g id="Слой_x0020_1">
  <metadata id="CorelCorpID_0Corel-Layer"/>
  <path class="fil0" d="M9310 9425c595,2 1724,44 2352,126 628,81 755,201 706,342 -49,141 -275,303 -328,430 -53,127 67,219 254,279 187,60 441,88 639,134 198,46 339,109 346,187 7,78 -120,169 -639,275 -519,106 -1429,226 -2540,254 -1111,28 -2424,-35 -2977,-14 -554,21 -349,127 -236,226 113,99 134,191 -386,233 -520,42 -1582,35 -2342,21 -760,-14 -1219,-35 -1459,-92 -240,-56 -261,-148 -189,-300 72,-152 238,-363 120,-543 -118,-180 -520,-328 -820,-445 -300,-116 -497,-201 -572,-303 -74,-102 -25,-222 366,-296 391,-74 1124,-103 1815,-117 691,-14 1342,-14 1960,-16 618,-2 1204,-5 1734,-57 531,-51 1006,-150 1274,-219 268,-69 329,-107 923,-105z"/>
  <path class="fil1" d="M11247 6902c-24,587 -85,1738 -132,2388 -47,651 -82,802 -144,905 -63,103 -153,159 -707,187 -554,28 -1571,28 -2746,28 -1175,0 -2506,0 -3237,-6 -731,-6 -860,-19 -963,-41 -103,-22 -181,-52 -226,-144 -45,-93 -58,-248 -101,-879 -43,-631 -116,-1739 -153,-2328 -37,-588 -37,-657 -11,-692 26,-34 78,-34 1465,-37 1388,-2 4112,-6 5494,-9 1382,-3 1422,-4 1448,7 26,11 38,33 13,620z"/>
  <path class="fil2" d="M11053 9917c-785,-3 -1628,-5 -2813,0 -1427,6 -3349,24 -4483,19 -287,-1 -524,-4 -723,-7 16,165 31,237 57,289 45,93 123,123 226,144 103,22 233,34 963,41 731,6 2062,6 3237,6 1175,0 2192,0 2746,-28 554,-28 644,-84 707,-187 34,-56 59,-125 83,-278z"/>
  <path class="fil1" d="M10099 4239c143,47 344,129 526,282 182,153 346,377 454,612 108,235 159,481 184,650 25,169 23,262 19,326 -3,64 -8,101 -199,124 -191,23 -568,32 -1553,38 -986,6 -2581,9 -3766,12 -1185,3 -1961,6 -2371,8 -410,3 -453,5 -485,8 -32,4 -52,9 -74,-21 -21,-30 -43,-95 -51,-215 -8,-121 -1,-297 34,-483 36,-185 100,-379 219,-565 119,-185 291,-362 455,-496 164,-134 319,-224 487,-276 168,-52 349,-65 944,-71 595,-6 1603,-6 2483,-6 879,0 1629,0 2047,6 418,6 504,19 648,67z"/>
  <path class="fil3" d="M5509 5831c9,-266 13,-746 16,-1067 3,-321 4,-483 -4,-563 -8,-81 -24,-80 -69,-80 -46,0 -120,-1 -194,-2 -74,-2 -147,-5 -195,-4 -48,1 -72,7 -92,46 -19,39 -34,112 -40,308 -6,196 -2,515 -9,825 -6,310 -22,611 -6,760 16,149 63,146 161,145 98,-1 247,0 328,-25 81,-25 95,-77 103,-343z"/>
  <path class="fil3" d="M8567 5805c-9,-266 -13,-746 -16,-1067 -3,-321 -4,-483 4,-563 8,-81 24,-80 69,-80 46,0 120,-1 194,-2 74,-2 147,-5 195,-4 48,1 72,7 92,46 19,39 34,112 40,308 6,196 2,515 9,825 6,310 22,611 6,760 -16,149 -63,146 -161,145 -98,-1 -247,0 -328,-25 -81,-25 -95,-77 -103,-343z"/>
  <path class="fil2" d="M10486 6003c254,-5 583,-7 753,6 170,13 182,42 185,123 4,81 -1,215 -3,303 -2,88 -2,131 -60,162 -58,30 -175,47 -931,50 -756,2 -2153,-11 -3529,-10 -1376,1 -2730,15 -3420,21 -690,6 -714,5 -732,-33 -18,-38 -29,-114 -35,-209 -7,-95 -9,-209 3,-275 12,-66 38,-82 387,-89 349,-6 1022,-2 2204,-6 1182,-3 2874,-14 3809,-23 935,-9 1114,-15 1368,-20z"/>
  <path class="fil4" d="M7461 7529c-19,-79 -30,-217 -75,-323 -45,-107 -125,-182 -223,-206 -98,-24 -214,4 -303,48 -88,44 -149,105 -177,185 -28,81 -24,182 -22,258 2,75 2,125 -26,152 -28,27 -84,31 -117,-2 -33,-33 -44,-105 -45,-192 -1,-87 8,-191 37,-280 29,-89 79,-165 161,-224 82,-59 196,-102 294,-121 98,-18 180,-12 264,15 84,27 170,74 238,149 67,75 116,177 139,280 23,102 19,205 4,268 -16,63 -44,87 -72,89 -28,2 -56,-17 -75,-96z"/>
  <path class="fil2" d="M7619 7500c-138,-6 -401,-4 -637,-8 -236,-4 -445,-15 -552,-7 -107,8 -112,35 -111,157 1,122 9,338 37,524 29,186 78,341 165,463 87,122 211,210 328,254 117,44 227,44 337,16 110,-28 220,-84 311,-182 91,-98 163,-238 209,-414 46,-176 65,-387 74,-521 9,-134 8,-191 1,-227 -8,-36 -22,-50 -160,-55z"/>
  <path class="fil5" d="M7047 7784c-26,1 -60,3 -86,19 -27,17 -46,48 -55,78 -9,29 -7,57 2,83 10,26 28,52 43,66 15,14 28,16 35,22 6,6 7,16 2,38 -5,22 -14,56 -25,99 -11,43 -25,96 -36,131 -10,35 -18,53 -15,62 3,9 16,9 46,9 30,-1 78,-2 116,-4 38,-2 66,-3 80,-12 14,-9 14,-27 2,-66 -11,-39 -33,-100 -48,-143 -15,-43 -22,-69 -18,-84 4,-15 18,-19 36,-29 17,-11 38,-28 51,-53 13,-25 20,-58 20,-87 0,-29 -6,-55 -14,-73 -8,-18 -18,-29 -30,-37 -13,-8 -28,-13 -46,-15 -17,-3 -35,-4 -61,-3z"/>
  <path class="fil5" d="M7778 5927c-13,89 -56,256 -93,392 -37,135 -68,239 -91,298 -23,60 -37,76 -182,85 -145,9 -421,10 -587,11 -166,2 -224,4 -260,-2 -37,-6 -53,-20 -102,-143 -49,-123 -131,-355 -178,-493 -47,-138 -60,-184 -33,-212 27,-28 94,-39 306,-43 212,-4 570,-2 794,-2 224,0 315,-2 369,3 54,5 71,17 58,106z"/>
  <path class="fil6" d="M7162 6365c5,134 10,362 13,527 3,165 3,266 -16,325 -19,59 -57,77 -99,80 -43,4 -90,-6 -116,-35 -26,-29 -32,-78 -34,-218 -3,-140 -3,-372 -4,-525 -1,-154 -3,-229 2,-280 5,-51 17,-78 53,-94 37,-16 98,-20 134,-17 36,3 45,14 52,39 7,25 11,64 16,197z"/>
  <path class="fil7" d="M10346 3017c17,87 42,327 84,505 42,177 102,291 180,376 78,84 176,139 257,175 81,36 147,54 116,75 -31,22 -160,48 -244,89 -84,42 -124,99 -160,202 -36,103 -66,252 -87,416 -21,163 -33,341 -45,516 -13,175 -26,348 -36,403 -10,56 -15,-6 -23,-143 -8,-138 -18,-352 -53,-544 -35,-192 -95,-362 -173,-503 -78,-140 -173,-251 -247,-312 -74,-61 -126,-73 -108,-103 18,-30 105,-78 174,-139 69,-61 120,-136 171,-261 50,-125 100,-302 126,-428 26,-126 29,-203 35,-274 6,-71 16,-137 34,-50z"/>
  <path class="fil7" d="M3935 3492c-8,54 -17,200 -38,310 -21,109 -54,180 -100,234 -46,53 -103,89 -152,113 -49,24 -88,37 -68,49 20,12 98,25 151,48 52,23 78,57 103,119 24,62 47,152 64,251 17,99 29,207 41,313 12,106 25,211 33,245 7,34 9,-4 10,-88 1,-84 1,-215 18,-333 16,-118 48,-223 92,-311 44,-88 99,-157 142,-196 43,-39 75,-48 63,-66 -12,-18 -66,-45 -110,-80 -44,-35 -77,-79 -111,-155 -34,-75 -69,-181 -88,-257 -19,-76 -23,-123 -29,-166 -6,-43 -14,-83 -22,-29z"/>
  <path class="fil7" d="M6330 6945c-8,40 -19,148 -38,229 -19,80 -46,132 -82,170 -36,38 -80,63 -117,79 -37,16 -67,24 -52,34 14,10 72,22 110,40 38,19 56,45 72,91 16,47 30,114 40,188 10,74 15,155 21,234 6,79 12,158 16,183 4,25 7,-3 10,-65 4,-62 8,-159 24,-247 16,-87 43,-164 78,-228 35,-64 78,-114 112,-141 33,-28 57,-33 49,-47 -8,-14 -48,-35 -79,-63 -31,-28 -55,-62 -77,-118 -23,-57 -45,-137 -57,-194 -12,-57 -13,-92 -16,-124 -3,-32 -7,-62 -15,-23z"/>
 </g>
</svg>
