<?xml version="1.0" encoding="UTF-8"?>
<!DOCTYPE svg PUBLIC "-//W3C//DTD SVG 1.1//EN" "http://www.w3.org/Graphics/SVG/1.1/DTD/svg11.dtd">
<!-- Creator: CorelDRAW 2017 -->
<svg xmlns="http://www.w3.org/2000/svg" xml:space="preserve" width="143mm" height="143mm" version="1.1" style="shape-rendering:geometricPrecision; text-rendering:geometricPrecision; image-rendering:optimizeQuality; fill-rule:evenodd; clip-rule:evenodd"
viewBox="0 0 14300 14300"
 xmlns:xlink="http://www.w3.org/1999/xlink">
 <defs>
  <style type="text/css">
   <![CDATA[
    .fil1 {fill:black}
    .fil2 {fill:#4D4D4D}
    .fil4 {fill:#52C6CE}
    .fil5 {fill:#6600FF}
    .fil6 {fill:#6666FF}
    .fil7 {fill:#7BAD52}
    .fil0 {fill:red}
    .fil3 {fill:white}
   ]]>
  </style>
 </defs>
 <g id="Слой_x0020_1">
  <metadata id="CorelCorpID_0Corel-Layer"/>
  <path class="fil0" d="M8852 11615c407,-19 974,-26 1257,37 283,63 283,197 227,272 -56,75 -168,89 -34,123 134,34 514,86 931,112 417,26 872,26 1092,82 220,56 205,168 -317,268 -522,101 -1550,190 -2396,242 -846,52 -1509,67 -1691,89 -183,22 115,52 78,112 -37,60 -410,149 -1088,186 -678,37 -1662,22 -2396,-19 -734,-41 -1218,-108 -1289,-194 -71,-86 272,-190 287,-272 15,-82 -298,-142 -693,-190 -395,-48 -872,-86 -1088,-145 -216,-60 -171,-142 7,-186 179,-45 492,-52 674,-101 183,-48 235,-138 235,-201 0,-63 -52,-101 48,-115 101,-15 354,-7 767,0 414,7 987,15 1513,45 525,30 1002,82 1354,86 352,4 579,-41 827,-75 248,-34 518,-56 777,-82 259,-26 508,-56 915,-74z"/>
  <path class="fil1" d="M6827 3997c149,58 330,173 459,302 129,129 207,272 266,451 59,179 100,394 106,563 6,170 -22,294 -76,415 -54,121 -135,240 -177,328 -42,89 -45,148 -8,194 37,47 115,81 219,0 104,-81 235,-277 429,-566 194,-289 453,-672 670,-1009 217,-337 392,-628 511,-842 119,-214 181,-351 249,-397 68,-47 143,-3 194,73 51,76 79,185 -11,444 -91,259 -300,668 -525,1047 -225,379 -464,727 -618,961 -154,233 -222,352 -255,481 -33,129 -30,269 -49,547 -19,278 -61,694 -16,1022 45,328 177,569 301,759 124,190 239,330 309,490 70,160 95,341 170,602 75,261 199,604 277,906 78,302 109,563 112,790 3,227 -22,420 -106,561 -84,141 -227,230 -470,130 -243,-100 -585,-388 -815,-553 -230,-166 -349,-209 -467,-206 -118,3 -236,53 -342,81 -106,28 -199,34 -236,-31 -37,-65 -19,-202 28,-314 47,-112 121,-199 230,-237 109,-37 252,-25 426,9 174,34 380,90 532,159 152,68 252,149 330,190 78,40 134,40 93,-159 -40,-199 -177,-597 -364,-812 -187,-215 -423,-246 -518,-517 -94,-271 -47,-783 -162,-1190 -115,-408 -393,-712 -613,-929 -220,-217 -382,-348 -696,-497 -314,-149 -781,-317 -1244,-491 -463,-174 -922,-354 -1170,-478 -248,-124 -286,-193 -279,-258 6,-65 56,-128 267,-100 211,28 583,146 1002,276 419,130 886,274 1216,398 330,124 523,230 619,215 96,-16 96,-152 75,-268 -22,-115 -65,-208 -159,-283 -93,-75 -236,-131 -370,-255 -134,-124 -258,-317 -339,-569 -81,-252 -118,-563 -78,-804 40,-240 159,-410 286,-513 128,-103 265,-138 392,-156 128,-18 246,-18 395,40z"/>
  <path class="fil1" d="M8027 10037c-63,260 -174,626 -306,984 -132,358 -286,708 -441,922 -155,214 -310,292 -466,320 -156,28 -311,6 -496,-37 -185,-44 -400,-109 -560,-160 -160,-51 -266,-89 -356,-92 -90,-3 -165,28 -244,65 -79,37 -163,81 -240,72 -76,-9 -145,-72 -159,-179 -14,-107 26,-260 98,-372 72,-112 174,-184 268,-224 93,-40 177,-50 356,-12 179,37 453,121 638,171 185,50 282,65 383,17 101,-48 207,-160 302,-335 95,-174 179,-411 222,-685 44,-274 47,-585 62,-843 16,-258 44,-464 134,-555 90,-92 243,-70 403,11 160,81 328,221 405,369 76,148 61,303 -3,564z"/>
  <path class="fil2" d="M8280 6770c58,78 148,222 220,413 73,191 129,429 102,619 -26,190 -135,332 -76,496 59,164 287,349 456,646 169,298 279,709 434,1004 155,296 354,476 432,566 78,90 34,90 -227,149 -261,59 -741,177 -1202,222 -462,45 -906,16 -1298,-34 -392,-51 -732,-124 -905,-159 -173,-36 -179,-34 -118,-73 62,-39 191,-120 306,-267 115,-146 216,-358 294,-596 78,-238 132,-503 232,-697 100,-194 245,-317 247,-444 2,-126 -139,-256 -234,-381 -95,-125 -145,-245 -173,-355 -29,-110 -37,-211 -28,-252 10,-40 37,-20 45,-80 7,-60 -6,-201 -49,-339 -43,-138 -117,-274 -142,-348 -25,-74 0,-85 27,-114 27,-28 58,-73 142,-46 84,27 223,127 382,303 159,176 339,427 402,373 63,-54 8,-413 -19,-644 -27,-230 -27,-332 -16,-395 10,-63 31,-86 53,-106 22,-19 45,-34 91,-7 46,27 113,95 175,163 61,68 117,135 172,181 55,47 111,73 151,92 41,19 66,30 124,108z"/>
  <path class="fil1" d="M7160 3941c111,57 239,147 315,255 76,108 100,232 128,300 27,68 58,79 42,105 -16,26 -78,67 -253,93 -175,26 -464,38 -641,52 -178,14 -245,32 -301,116 -56,84 -100,235 -172,366 -72,132 -172,245 -289,337 -117,92 -251,162 -404,186 -154,25 -327,5 -551,-95 -224,-100 -499,-279 -647,-409 -148,-130 -168,-212 -167,-237 1,-26 22,5 72,28 50,23 128,40 165,28 37,-12 32,-51 12,-105 -21,-54 -58,-122 -78,-206 -20,-83 -24,-181 -27,-279 -2,-98 -3,-196 8,-183 11,13 32,138 65,214 32,76 76,104 123,119 47,15 98,16 108,-23 10,-39 -21,-119 -35,-196 -14,-77 -12,-150 -1,-151 11,-1 30,69 85,136 55,66 146,129 246,135 101,7 211,-42 327,-112 116,-70 236,-160 357,-265 121,-105 242,-224 383,-290 142,-65 304,-77 409,-63 105,13 153,52 187,79 34,27 53,44 90,36 37,-8 91,-41 166,-47 74,-5 169,17 280,74z"/>
  <path class="fil3" d="M7447 5395c5,26 0,125 -32,233 -32,107 -90,222 -171,288 -81,65 -186,81 -270,53 -84,-28 -149,-100 -215,-186 -66,-86 -134,-187 -140,-212 -6,-24 49,29 117,78 68,49 150,94 237,105 87,11 179,-12 243,-53 64,-41 101,-100 129,-142 28,-42 49,-67 66,-103 17,-37 31,-85 36,-59z"/>
  <path class="fil4" d="M11957 5397c586,-850 20,-495 -43,-1137 -46,-471 348,-563 57,-1102 -350,-650 194,-269 -123,-971 131,153 215,260 147,449 -223,624 425,364 114,1246 -331,939 695,729 -153,1515z"/>
  <path class="fil5" d="M8574 951c-854,581 -393,371 -80,994 305,607 -422,522 -192,947 79,146 109,184 173,348 -268,-362 -434,-453 -160,-757 623,-691 -1163,-964 260,-1533z"/>
  <path class="fil6" d="M3288 6912c244,291 740,789 374,1166 -439,453 -239,375 111,764 178,198 -138,376 -258,666l-68 203c106,-860 573,-552 78,-949 -399,-321 -211,-499 62,-758 311,-296 -112,-770 -300,-1091z"/>
  <path class="fil7" d="M4432 1093c-620,1205 -26,615 -114,1352 -50,414 -340,600 -41,1071 137,217 84,356 -36,570l10 -115c85,-686 -472,-272 -143,-1418 199,-694 -524,-605 325,-1460z"/>
  <path class="fil4" d="M2310 4697c-405,787 -17,402 -75,883 -33,270 -222,392 -27,699 90,141 55,232 -23,372l7 -75c56,-448 -308,-177 -94,-926 130,-453 -342,-395 212,-953z"/>
  <path class="fil7" d="M10523 5182c503,978 21,499 93,1097 40,336 276,487 34,869 -111,176 -68,288 29,463l-8 -93c-69,-556 383,-220 116,-1150 -161,-563 425,-491 -263,-1185z"/>
  <path class="fil0" d="M5865 6262c19,49 55,169 61,263 6,93 -17,161 -51,198 -34,37 -80,44 -109,4 -29,-40 -41,-126 -36,-201 5,-75 28,-138 49,-182 21,-43 41,-66 52,-88 11,-22 15,-43 34,6z"/>
  <path class="fil0" d="M6751 4161c14,4 41,73 43,161 3,87 -19,193 -78,280 -60,86 -159,153 -252,194 -93,40 -182,54 -234,97 -52,43 -68,116 -76,178 -8,62 -8,113 -7,168 0,55 1,114 -25,185 -26,71 -80,153 -107,213 -27,60 -27,99 -31,112 -4,13 -11,1 -31,34 -20,33 -52,112 -91,108 -39,-4 -85,-91 -89,-172 -3,-81 36,-158 91,-250 54,-92 123,-200 156,-286 33,-87 29,-152 38,-222 9,-71 30,-146 101,-204 71,-57 191,-96 276,-131 86,-34 137,-64 181,-92 44,-27 81,-52 100,-94 19,-42 18,-102 19,-162 1,-60 3,-120 17,-116z"/>
  <path class="fil0" d="M5681 3536c-33,-72 -143,-241 -263,-370 -120,-128 -249,-215 -372,-251 -123,-36 -240,-21 -297,29 -57,49 -54,133 -10,211 44,78 129,151 225,188 96,37 204,38 299,51 96,14 180,40 238,69 58,29 90,60 129,89 39,29 84,55 51,-17z"/>
  <path class="fil0" d="M3862 3508c-78,-21 -296,-49 -450,-30 -154,20 -245,87 -282,154 -38,67 -22,132 20,154 42,22 111,0 186,-35 75,-35 155,-82 235,-117 81,-35 162,-58 234,-75 72,-18 135,-31 57,-52z"/>
  <path class="fil0" d="M3182 3107c-77,-17 -268,-49 -390,-43 -122,6 -174,50 -178,91 -3,41 42,79 114,83 72,4 169,-26 249,-50 80,-24 144,-42 194,-52 50,-10 87,-12 10,-29z"/>
  <path class="fil0" d="M10606 4614c167,12 389,53 542,102 153,49 238,105 290,172 52,68 71,146 35,202 -37,56 -130,89 -259,56 -130,-33 -296,-131 -440,-205 -144,-74 -267,-124 -408,-146 -141,-22 -302,-16 -399,-14 -97,3 -131,2 -80,-23 52,-25 189,-74 314,-107 125,-33 238,-50 405,-38z"/>
  <path class="fil0" d="M11498 7452c86,58 180,145 249,242 69,97 113,203 109,279 -4,75 -55,120 -97,107 -43,-13 -77,-84 -118,-170 -41,-86 -90,-188 -155,-286 -65,-98 -147,-192 -149,-225 -2,-33 76,-4 162,54z"/>
  <path class="fil0" d="M11345 8620c48,57 101,114 127,184 25,70 23,155 -8,204 -31,50 -90,65 -123,18 -33,-48 -38,-159 -56,-266 -17,-107 -46,-211 -39,-233 7,-23 50,36 99,93z"/>
  <path class="fil0" d="M9715 6394c37,52 100,190 122,315 22,125 3,238 -51,305 -54,68 -143,90 -190,40 -47,-50 -52,-174 -40,-283 12,-109 41,-205 60,-262 20,-58 30,-78 41,-105 11,-27 21,-61 58,-9z"/>
  <path class="fil0" d="M8353 13051c142,-12 336,-11 456,4 120,15 166,43 131,65 -35,22 -152,38 -310,39 -159,1 -360,-13 -467,-23 -107,-10 -119,-15 -80,-31 39,-16 129,-42 271,-55z"/>
 </g>
</svg>
