<?xml version="1.0" encoding="UTF-8"?>
<!DOCTYPE svg PUBLIC "-//W3C//DTD SVG 1.1//EN" "http://www.w3.org/Graphics/SVG/1.1/DTD/svg11.dtd">
<!-- Creator: CorelDRAW 2017 -->
<svg xmlns="http://www.w3.org/2000/svg" xml:space="preserve" width="143mm" height="143mm" version="1.1" style="shape-rendering:geometricPrecision; text-rendering:geometricPrecision; image-rendering:optimizeQuality; fill-rule:evenodd; clip-rule:evenodd"
viewBox="0 0 14300 14300"
 xmlns:xlink="http://www.w3.org/1999/xlink">
 <defs>
  <style type="text/css">
   <![CDATA[
    .fil10 {fill:none}
    .fil11 {fill:black}
    .fil8 {fill:#1A1A1A}
    .fil6 {fill:#333333}
    .fil2 {fill:#333333}
    .fil5 {fill:#4D4D4D}
    .fil1 {fill:#780000}
    .fil3 {fill:gray}
    .fil9 {fill:gray}
    .fil7 {fill:#999999}
    .fil4 {fill:#B3B3B3}
    .fil0 {fill:red}
    .fil12 {fill:#FFE77B}
    .fil13 {fill:white}
   ]]>
  </style>
 </defs>
 <g id="Слой_x0020_1">
  <metadata id="CorelCorpID_0Corel-Layer"/>
  <path class="fil0" d="M11820 7181c158,72 648,90 826,170 178,80 44,221 -175,309 -219,88 -522,123 -790,159 -268,35 -501,71 -603,148 -102,78 -74,198 74,293 148,95 416,166 459,250 42,85 -141,183 -416,229 -275,46 -642,39 -981,56 -339,18 -649,60 -808,162 -159,102 -166,265 -145,409 21,145 71,272 25,406 -46,134 -187,275 -462,356 -275,81 -684,102 -1109,100 -424,-3 -864,-29 -1199,24 -335,52 -566,184 -819,345 -253,161 -528,353 -740,438 -212,85 -360,64 -688,149 -328,85 -836,275 -1263,367 -427,92 -773,85 -1072,74 -300,-11 -554,-25 -716,-102 -162,-78 -233,-219 -194,-353 39,-134 187,-261 381,-385 194,-123 434,-243 669,-412 235,-169 466,-387 639,-652 173,-265 288,-576 289,-838 1,-262 -113,-476 -349,-597 -236,-120 -596,-148 -804,-249 -208,-101 -264,-277 -222,-435 42,-158 183,-299 435,-395 252,-95 614,-145 827,-242 213,-97 278,-242 323,-361 45,-120 69,-215 174,-270 104,-55 288,-69 1050,-87 763,-18 2104,-41 3189,-2 1084,39 1911,139 2828,182 917,43 1923,29 2349,106 426,78 270,247 41,316 -229,69 -532,38 -770,85 -238,47 -410,173 -252,246z"/>
  <path class="fil1" d="M5502 7366c-141,42 -244,68 -206,122 38,53 218,135 855,179 637,44 1730,51 2614,21 884,-30 1558,-97 1953,-148 395,-51 512,-86 561,-138 49,-51 32,-118 -131,-152 -162,-34 -469,-34 -713,-41 -243,-7 -423,-21 -492,-42 -69,-21 -26,-49 -69,-85 -42,-35 -169,-78 -435,-81 -266,-4 -671,31 -1129,57 -459,26 -971,45 -1365,68 -394,23 -669,51 -896,95 -227,44 -406,102 -548,145z"/>
  <g id="_2388353129104">
   <path class="fil2" d="M4960 11034c3,3 8,4 13,5 18,3 39,-1 76,-8 36,-7 86,-18 136,-24 50,-6 99,-8 143,-8 44,0 83,3 110,15 27,12 41,33 43,62 2,29 -8,67 -4,82 4,15 22,7 39,-10 17,-16 31,-41 39,-71 7,-30 7,-64 -5,-90 -12,-26 -37,-44 -70,-59 -33,-15 -75,-26 -98,-42 -23,-16 -28,-36 -39,-45 -11,-9 -28,-7 -98,24 -70,31 -192,91 -247,125 -24,15 -35,26 -38,33 -2,4 -1,7 1,9zm-224 87c-15,-23 0,-53 79,-110 79,-57 224,-139 305,-183 82,-44 101,-50 139,-57 38,-8 95,-17 152,-21 57,-4 114,-3 181,0 67,4 145,10 193,22 48,12 66,29 75,53 9,24 9,56 -9,89 -18,34 -54,70 -125,120 -71,50 -176,114 -264,147 -88,34 -158,38 -259,31 -101,-6 -233,-22 -321,-38 -88,-16 -132,-31 -146,-54z"/>
   <path class="fil3" d="M4965 11026c-8,7 -11,17 -12,33 -1,16 1,37 2,52 1,15 1,25 7,32 6,7 19,12 50,11 31,-1 82,-8 135,-15 53,-8 110,-16 151,-17 41,-1 67,5 79,16 12,11 11,27 7,45 -4,18 -10,37 0,48 10,11 38,14 57,10 19,-4 31,-16 41,-30 9,-14 16,-31 19,-59 3,-29 2,-70 -8,-102 -11,-32 -31,-55 -65,-70 -34,-15 -80,-22 -136,-18 -56,4 -120,17 -169,27 -49,10 -83,16 -101,20 -18,4 -20,5 -28,7 -8,2 -21,5 -30,12z"/>
   <path class="fil4" d="M4973 11039c-6,-1 -11,-2 -13,-5 0,-3 -1,-6 -1,-9 3,-7 14,-17 38,-33 55,-35 177,-95 247,-125 70,-31 87,-33 98,-24 11,9 16,29 39,45 23,16 65,27 98,42 33,15 58,33 70,59 12,26 12,60 5,90 -7,30 -22,54 -39,71 -17,16 -35,24 -39,10 -4,-15 6,-52 4,-82 -2,-29 -16,-50 -43,-62 -27,-12 -66,-15 -110,-15 -44,0 -94,1 -143,8 -50,6 -100,17 -136,24 -36,7 -58,11 -76,8z"/>
   <path class="fil5" d="M4486 11238c93,-3 212,-2 351,5 138,7 295,20 414,25 119,5 200,1 309,-39 109,-40 247,-116 334,-176 87,-60 124,-105 155,-134 31,-29 56,-42 78,-74 23,-32 44,-82 104,-104 60,-21 159,-14 401,16 242,29 628,81 858,109 230,29 305,34 351,42 46,8 62,19 79,34 17,16 34,37 53,36 0,0 1,0 1,0 -1,7 -2,14 -3,22 -10,76 -10,148 -8,239 1,56 3,118 8,178 -12,-2 -21,9 -37,21 -17,12 -40,24 -103,23 -63,-1 -165,-15 -410,-46 -245,-31 -632,-78 -892,-103 -260,-25 -393,-27 -473,-12 -80,15 -106,49 -159,93 -53,44 -134,99 -230,143 -96,44 -208,77 -310,91 -102,14 -195,10 -308,-1 -113,-11 -246,-27 -336,-34 -90,-7 -138,-5 -195,10 -57,14 -124,40 -257,106 -133,65 -333,170 -470,239 -138,69 -214,102 -283,115 -69,13 -131,6 -169,13 -38,7 -52,29 -81,42 -29,13 -71,18 -186,0 -115,-18 -303,-58 -425,-87 -122,-28 -179,-45 -207,-132 -27,-87 -25,-243 -23,-343 1,-39 2,-69 5,-94 2,-1 3,-2 5,-3 19,-12 44,-26 96,-22 52,4 132,25 243,48 111,23 252,49 337,83 85,34 114,76 139,94 25,18 47,12 160,-38 113,-51 317,-147 476,-215 158,-68 270,-108 359,-132 89,-24 154,-31 247,-35z"/>
   <path class="fil4" d="M4836 11243c-138,-7 -258,-8 -351,-5 -93,3 -158,11 -247,35 -89,24 -201,64 -359,132 -158,68 -362,164 -476,215 -113,51 -135,57 -160,38 -25,-18 -54,-60 -139,-94 -85,-34 -227,-59 -337,-83 -111,-23 -191,-44 -243,-48 -52,-4 -77,10 -96,22 -2,1 -4,2 -5,3 5,-39 15,-64 38,-89 38,-40 112,-78 299,-178 188,-100 489,-261 747,-397 258,-135 471,-245 781,-412 310,-167 716,-393 938,-500 222,-107 260,-95 298,-86 38,10 76,17 138,27 62,11 147,25 214,25 67,0 114,-14 158,-14 44,0 84,14 119,37 34,23 63,53 81,105 18,51 25,122 42,165 17,43 43,57 100,65 57,8 145,11 277,14 132,4 308,8 501,19 194,11 405,27 578,50 173,23 309,51 388,69 80,18 103,25 131,24 2,0 4,0 6,0 -29,31 -57,64 -84,103 -55,78 -106,177 -140,267 -31,82 -50,157 -60,227 0,0 -1,0 -1,0 -19,0 -36,-21 -53,-36 -17,-16 -33,-26 -79,-34 -46,-8 -121,-14 -351,-42 -230,-28 -616,-80 -858,-109 -242,-29 -341,-37 -401,-16 -60,21 -81,72 -104,104 -23,32 -48,45 -78,74 -31,29 -68,74 -155,134 -87,60 -225,136 -334,176 -109,40 -190,44 -309,39 -119,-5 -276,-18 -414,-25zm-22 -232c-79,57 -94,87 -79,110 15,23 58,38 146,54 25,5 54,9 85,13 76,11 164,20 236,25 101,6 171,2 259,-31 88,-34 193,-97 264,-147 71,-50 107,-86 125,-120 18,-34 18,-65 9,-89 -9,-24 -27,-41 -75,-53 -48,-12 -126,-19 -193,-22 -67,-4 -124,-5 -181,0 -57,4 -114,14 -152,21 -38,8 -57,13 -139,57 -82,44 -226,127 -305,183z"/>
   <path class="fil6" d="M7964 11239c-2,-91 -2,-162 8,-239 1,-7 2,-14 3,-22 19,-1 39,-23 61,-35 23,-13 49,-17 69,-14 20,2 34,11 53,0 19,-11 43,-43 74,-105 31,-63 69,-157 99,-216 30,-59 52,-83 82,-98 5,-2 10,-5 16,-6 17,79 25,200 26,311 1,122 -6,234 -39,325 -33,91 -93,163 -141,224 -49,62 -87,114 -122,140 -36,26 -69,26 -90,14 -21,-12 -31,-36 -44,-57 -13,-21 -30,-40 -43,-44 -1,0 -1,0 -2,0 -5,-60 -7,-123 -8,-178z"/>
   <path class="fil7" d="M8104 10929c-20,-2 -46,1 -69,14 -23,13 -43,34 -61,35 10,-70 29,-145 60,-227 35,-90 85,-189 140,-267 27,-38 55,-72 84,-103 26,-2 54,-10 83,-4 31,6 62,27 82,105 2,7 3,14 5,21 -5,2 -11,4 -16,6 -30,15 -52,39 -82,98 -30,59 -68,153 -99,216 -31,63 -55,94 -74,105 -19,11 -33,3 -53,0z"/>
   <path class="fil8" d="M2681 11613c-28,-10 -48,-11 -67,-3 -19,9 -37,28 -45,49 -8,22 -7,47 1,71 8,24 23,48 43,72 20,24 44,50 65,63 20,13 36,14 55,8 19,-6 41,-19 53,-38 13,-19 17,-45 14,-76 -3,-31 -12,-67 -34,-94 -22,-27 -57,-44 -85,-53z"/>
   <path class="fil8" d="M2523 11600c20,-24 54,-50 93,-56 39,-6 84,8 122,29 38,22 68,52 89,82 21,30 33,61 38,94 5,33 4,67 -6,98 -10,32 -29,61 -48,80 -19,19 -38,29 -64,32 -25,2 -57,-4 -86,-14 -29,-10 -55,-26 -58,-24 -4,2 15,20 44,36 28,15 66,28 100,25 35,-2 67,-19 92,-47 25,-28 44,-66 52,-109 8,-43 5,-89 -9,-131 -13,-42 -36,-80 -69,-110 -33,-30 -76,-52 -113,-64 -36,-12 -66,-13 -93,-7 -28,6 -53,18 -72,31 -19,13 -32,28 -39,48 -7,20 -9,46 -5,49 3,3 11,-18 31,-42z"/>
   <path class="fil9" d="M2938 11517c439,-249 879,-498 1324,-748 445,-251 895,-503 1179,-658 283,-155 400,-211 444,-224 45,-13 18,16 -125,102 -143,85 -401,226 -747,424 -346,199 -779,455 -1153,669 -304,174 -570,319 -827,459 -29,-8 -61,-16 -94,-23z"/>
   <path class="fil9" d="M6401 10219c-79,17 -163,47 -227,83 -64,36 -108,79 -96,111 11,32 78,54 257,83 180,29 472,64 729,95 257,31 477,57 614,56 137,-1 191,-31 242,-65 50,-34 97,-73 136,-110 39,-37 70,-71 73,-97 2,-26 -25,-44 -168,-70 -143,-27 -403,-62 -645,-82 -242,-20 -466,-25 -614,-25 -148,0 -221,5 -299,22z"/>
   <g>
    <path class="fil9" d="M2696 11048c-34,-772 -170,-833 -280,-1443 -107,-592 371,-817 199,-1770 -101,-555 -84,-412 -34,-931l1 -53c-173,339 -115,640 -69,1000 133,1037 -465,1057 -143,2016 154,459 218,710 326,1179z"/>
   </g>
   <path class="fil10" d="M2696 11048c-27,-209 -53,-418 -101,-623 -48,-205 -116,-407 -171,-574 -55,-167 -97,-300 -93,-450 4,-150 53,-317 108,-481 55,-163 116,-323 144,-467 29,-144 25,-274 10,-407 -15,-133 -42,-270 -63,-405 -21,-135 -36,-268 -30,-384 6,-116 32,-215 49,-279 17,-65 25,-95 32,-125"/>
   <g>
    <path class="fil9" d="M2731 8563c334,-642 25,-951 317,-1739 310,-835 -330,-1162 -274,-1621 74,-606 126,-430 -101,-1064 115,675 103,437 -2,1049 -85,496 505,818 251,1589 -261,793 16,1027 -192,1786z"/>
   </g>
   <path class="fil10" d="M2731 8563c57,-125 114,-251 125,-494 11,-243 -23,-604 6,-847 29,-243 120,-369 163,-547 44,-179 40,-410 -15,-608 -55,-198 -162,-361 -224,-498 -63,-137 -82,-247 -63,-372 19,-125 76,-266 74,-445 -2,-179 -63,-395 -124,-612"/>
  </g>
  <g id="_2388353124080">
   <path class="fil11" d="M10980 6367c14,46 -58,174 -109,264 -50,90 -78,143 -321,200 -243,57 -700,118 -1563,239 -863,121 -2133,302 -2803,397 -670,95 -740,102 -804,83 -65,-20 -125,-66 -174,-127 -49,-60 -88,-134 -69,-180 19,-46 95,-64 605,-136 510,-72 1452,-198 2361,-325 909,-128 1784,-257 2273,-340 488,-83 590,-120 604,-74z"/>
   <path class="fil12" d="M10621 4395c104,124 230,321 349,559 119,238 232,517 298,708 65,191 82,295 79,391 -3,96 -26,183 -71,249 -45,65 -112,108 -632,197 -520,89 -1492,223 -2401,353 -909,130 -1754,255 -2291,331 -537,76 -766,102 -925,101 -159,-1 -247,-28 -321,-86 -74,-58 -133,-147 -166,-250 -32,-103 -38,-220 -2,-472 36,-252 114,-641 182,-903 68,-263 126,-400 211,-504 85,-104 197,-176 384,-234 187,-59 449,-105 1082,-198 633,-93 1638,-232 2314,-326 675,-94 1021,-144 1239,-159 218,-16 310,2 397,36 87,34 170,84 274,208z"/>
   <rect class="fil11" transform="matrix(0.308098 -0.0440122 0.0440122 0.308098 5500.03 6074.8)" width="2201" height="2201"/>
   <rect class="fil11" transform="matrix(0.308098 -0.0440122 0.0440122 0.308098 6081.37 5299.69)" width="2201" height="2201"/>
   <rect class="fil11" transform="matrix(0.308098 -0.0440122 0.0440122 0.308098 6856.48 5881.03)" width="2201" height="2201"/>
   <rect class="fil11" transform="matrix(0.308098 -0.0440122 0.0440122 0.308098 7437.82 5105.92)" width="2201" height="2201"/>
   <rect class="fil11" transform="matrix(0.308098 -0.0440122 0.0440122 0.308098 8212.93 5687.26)" width="2201" height="2201"/>
   <rect class="fil11" transform="matrix(0.308098 -0.0440122 0.0440122 0.308098 8794.27 4912.15)" width="2201" height="2201"/>
   <rect class="fil11" transform="matrix(0.308098 -0.0440122 0.0440122 0.308098 9569.38 5493.49)" width="2201" height="2201"/>
   <path class="fil13" d="M9873 4286c-256,30 -699,86 -1421,186 -722,100 -1724,243 -2312,338 -588,95 -761,142 -888,203 -128,61 -210,138 -288,318 -78,181 -153,467 -208,724 -55,257 -91,487 -106,634 -14,147 -7,213 12,230 19,17 50,-14 122,-200 72,-187 185,-529 305,-787 120,-258 246,-431 411,-563 165,-132 370,-224 824,-338 455,-115 1161,-253 1805,-369 645,-115 1228,-208 1577,-264 349,-57 464,-77 519,-96 55,-19 50,-36 13,-43 -38,-7 -108,-3 -364,27z"/>
  </g>
  <path class="fil0" d="M4745 4816c-21,-65 -116,-245 -226,-381 -109,-136 -233,-228 -312,-254 -79,-26 -115,12 -106,79 9,67 62,162 127,235 65,72 143,122 217,166 74,44 145,83 206,127 62,44 115,93 93,28z"/>
  <path class="fil0" d="M3270 3733c-64,-62 -268,-189 -400,-240 -132,-51 -192,-26 -192,30 0,56 60,145 153,194 93,49 220,60 323,67 102,7 180,11 116,-51z"/>
  <path class="fil0" d="M2719 3122c-31,-44 -114,-145 -207,-197 -93,-52 -198,-56 -244,-38 -47,18 -36,56 11,88 47,32 130,56 207,83 78,26 150,55 197,75 47,20 68,33 37,-11z"/>
  <path class="fil0" d="M11378 4643c16,-63 145,-261 259,-376 113,-115 210,-147 283,-142 73,4 121,45 98,113 -23,68 -116,163 -204,221 -88,58 -171,79 -261,127 -91,47 -189,120 -174,58z"/>
  <path class="fil0" d="M12251 4347c20,-31 133,-100 235,-138 101,-39 191,-48 243,-34 52,14 66,51 47,85 -19,34 -72,64 -145,80 -72,17 -164,20 -246,26 -82,5 -154,12 -134,-19z"/>
  <path class="fil0" d="M11632 2540c11,-46 97,-188 165,-269 67,-81 115,-101 143,-91 28,10 38,49 3,104 -34,55 -113,127 -185,189 -72,62 -137,113 -127,68z"/>
  <path class="fil0" d="M4280 5998c-44,-48 -124,-119 -238,-180 -115,-61 -265,-111 -380,-107 -115,4 -195,62 -212,127 -17,65 27,137 105,173 77,36 187,37 289,39 102,2 196,7 269,13 73,6 124,12 158,17 35,5 54,9 59,-1 5,-10 -5,-33 -49,-81z"/>
  <path class="fil0" d="M9700 9833c76,-37 182,-69 312,-83 131,-14 286,-11 446,2 161,12 326,34 452,62 125,28 210,64 212,99 2,35 -79,71 -229,118 -150,48 -369,108 -624,131 -256,23 -549,9 -699,-16 -150,-25 -157,-60 -139,-93 18,-34 60,-65 104,-102 44,-37 90,-79 166,-116z"/>
  <path class="fil0" d="M13188 7420c61,-7 137,-14 204,-11 67,4 125,18 117,34 -8,17 -82,36 -163,40 -81,4 -169,-9 -222,-19 -53,-10 -71,-17 -56,-24 14,-7 60,-14 121,-21z"/>
  <path class="fil0" d="M10614 10275c74,-2 192,11 280,17 88,6 146,6 166,26 19,19 0,58 -70,78 -70,20 -190,22 -310,19 -121,-3 -243,-10 -310,-22 -68,-12 -82,-30 -55,-45 27,-15 96,-27 146,-41 49,-14 79,-30 153,-32z"/>
 </g>
</svg>
