<?xml version="1.0" encoding="UTF-8"?>
<!DOCTYPE svg PUBLIC "-//W3C//DTD SVG 1.1//EN" "http://www.w3.org/Graphics/SVG/1.1/DTD/svg11.dtd">
<!-- Creator: CorelDRAW 2017 -->
<svg xmlns="http://www.w3.org/2000/svg" xml:space="preserve" width="143mm" height="143mm" version="1.1" style="shape-rendering:geometricPrecision; text-rendering:geometricPrecision; image-rendering:optimizeQuality; fill-rule:evenodd; clip-rule:evenodd"
viewBox="0 0 14300 14300"
 xmlns:xlink="http://www.w3.org/1999/xlink">
 <defs>
  <style type="text/css">
   <![CDATA[
    .fil2 {fill:#4A94CE}
    .fil5 {fill:#6666CC}
    .fil4 {fill:#94E8FF}
    .fil1 {fill:#CC7298}
    .fil0 {fill:#EDBF42}
    .fil7 {fill:red}
    .fil3 {fill:#FFE77B}
    .fil6 {fill:white}
   ]]>
  </style>
 </defs>
 <g id="Слой_x0020_1">
  <metadata id="CorelCorpID_0Corel-Layer"/>
  <path class="fil0" d="M8609 4390c-64,-290 -36,-559 36,-834 72,-275 188,-556 354,-780 165,-225 380,-393 648,-524 268,-131 589,-226 924,-245 335,-19 684,38 989,183 304,145 563,377 745,706 181,329 285,754 270,1142 -15,388 -148,739 -348,1022 -201,283 -469,500 -790,658 -321,158 -696,259 -1022,259 -326,1 -604,-99 -834,-228 -230,-129 -413,-288 -582,-523 -169,-235 -324,-546 -388,-836z"/>
  <path class="fil1" d="M8497 12001c319,29 770,55 1142,81 372,26 664,51 793,101 129,50 93,124 21,185 -72,62 -182,111 -161,144 21,34 173,52 367,59 194,7 430,4 706,3 275,-1 589,-1 871,19 282,20 533,59 605,135 72,76 -34,189 -470,269 -436,80 -1201,128 -2142,137 -940,9 -2055,-22 -2780,-37 -725,-16 -1060,-16 -1171,13 -111,30 2,90 47,147 46,57 24,109 -369,123 -393,13 -1159,-13 -1713,-28 -554,-15 -896,-19 -1125,-62 -229,-43 -345,-124 -329,-226 16,-102 164,-225 209,-317 44,-92 -16,-152 -167,-191 -152,-39 -395,-57 -614,-100 -219,-43 -413,-110 -485,-184 -72,-74 -23,-155 152,-211 175,-56 475,-87 979,-100 505,-13 1214,-8 1780,9 566,17 989,46 1372,60 383,15 725,15 961,5 236,-10 367,-31 487,-53 120,-23 229,-47 378,-44 149,3 336,35 655,64z"/>
  <path class="fil2" d="M9202 4243c-1188,-41 -3571,-65 -4816,-77 -1245,-12 -1352,-13 -1385,88 -33,101 7,302 91,590 84,288 211,663 378,945 167,283 373,474 615,609 242,135 520,214 772,284 251,70 476,131 624,224 148,93 218,218 276,399 58,181 104,419 176,591 73,172 173,280 261,361 88,81 165,135 210,479 45,344 58,979 44,1463 -14,485 -56,820 -133,1025 -77,206 -191,282 -470,404 -280,122 -725,291 -978,387 -253,96 -312,119 -304,158 9,39 85,93 269,156 183,64 473,137 846,172 373,35 830,33 1206,18 377,-15 673,-42 940,-88 267,-45 505,-109 638,-158 134,-49 164,-85 120,-132 -44,-48 -162,-108 -396,-207 -233,-100 -582,-238 -795,-350 -213,-111 -289,-195 -331,-330 -42,-135 -49,-323 -56,-644 -8,-322 -16,-778 -14,-1143 3,-365 17,-637 39,-809 22,-172 52,-243 127,-319 75,-76 194,-159 310,-267 116,-109 230,-244 308,-419 78,-174 121,-387 152,-521 31,-133 49,-186 191,-242 143,-55 410,-113 671,-194 261,-81 517,-186 738,-341 220,-155 406,-362 532,-627 126,-266 194,-591 237,-822 43,-231 62,-367 75,-465 13,-98 19,-157 -1169,-198z"/>
  <path class="fil3" d="M10043 3681c-149,-144 -409,-412 -576,-530 -167,-118 -241,-87 -297,-30 -56,57 -95,141 -128,259 -32,119 -58,272 -69,365 -11,93 -8,124 62,142 70,18 206,23 412,29 206,7 482,16 631,8 149,-8 170,-32 161,-55 -9,-23 -47,-44 -196,-188z"/>
  <path class="fil3" d="M10357 3716c-76,-77 -211,-244 -354,-408 -143,-164 -294,-324 -377,-423 -83,-99 -99,-138 -64,-188 34,-50 119,-113 239,-176 120,-63 276,-126 383,-155 107,-29 164,-23 198,7 34,30 44,84 56,228 12,144 26,379 31,588 5,210 2,395 -8,494 -10,99 -28,111 -104,33z"/>
  <path class="fil3" d="M10706 3594c-36,-113 -28,-413 -24,-661 4,-247 6,-441 32,-540 26,-98 77,-102 171,-75 94,27 232,84 350,149 118,65 217,137 289,196 71,59 115,105 77,185 -37,80 -155,195 -285,319 -130,124 -273,257 -384,362 -111,104 -190,179 -226,66z"/>
  <path class="fil3" d="M10998 3772c90,-102 301,-295 458,-437 157,-142 259,-234 329,-289 70,-54 109,-72 164,-35 55,36 126,126 180,250 54,125 91,284 111,393 19,109 21,169 -27,204 -48,35 -144,47 -301,51 -157,4 -376,1 -543,-2 -167,-3 -282,-6 -356,-13 -73,-8 -105,-20 -15,-122z"/>
  <path class="fil3" d="M11016 4122c155,-10 460,-6 672,-1 211,5 329,11 413,19 85,8 137,17 144,86 6,69 -33,198 -93,330 -60,132 -142,265 -197,341 -56,76 -85,93 -145,69 -59,-24 -148,-89 -296,-212 -149,-123 -357,-302 -477,-407 -120,-105 -151,-135 -165,-162 -14,-27 -10,-52 145,-62z"/>
  <path class="fil3" d="M10758 4386c104,93 286,265 433,412 147,147 258,268 323,349 65,81 84,121 44,176 -40,55 -138,124 -249,179 -111,55 -236,96 -346,121 -110,25 -206,33 -265,35 -59,2 -79,-1 -95,-55 -15,-53 -25,-157 -24,-365 1,-208 12,-521 17,-700 6,-179 6,-225 19,-241 13,-16 39,-4 143,88z"/>
  <path class="fil4" d="M9945 5000c-47,157 -116,441 -302,702 -186,261 -487,499 -912,676 -425,177 -973,293 -1476,322 -503,29 -961,-29 -1363,-90 -402,-61 -747,-125 -1056,-244 -310,-119 -583,-292 -807,-522 -224,-230 -398,-516 -497,-724 -99,-208 -123,-338 -87,-404 36,-66 131,-69 260,-55 129,14 291,44 444,97 153,53 297,128 445,176 148,48 299,68 470,65 171,-4 362,-32 528,-76 166,-44 308,-105 502,-142 194,-38 441,-52 701,-39 259,13 531,54 777,99 247,45 468,96 677,102 208,6 402,-31 579,-64 177,-33 336,-61 477,-83 141,-22 265,-37 366,-44 101,-7 178,-7 236,0 58,7 97,20 104,41 7,21 -18,50 -65,207z"/>
  <path class="fil5" d="M7062 11528c115,47 346,172 578,291 232,119 465,234 589,301 124,67 140,86 116,105 -24,19 -89,37 -194,58 -106,22 -254,46 -355,56 -101,9 -156,3 -215,-40 -59,-43 -123,-123 -211,-224 -88,-101 -201,-222 -276,-314 -75,-92 -111,-156 -129,-203 -18,-47 -18,-77 97,-29z"/>
  <ellipse class="fil6" transform="matrix(0.999972 0.00741971 -0.00741971 0.999972 5099.9 3465.68)" rx="407" ry="392"/>
  <ellipse class="fil6" transform="matrix(0.999972 0.00741971 -0.00741971 0.999972 5939.54 2275.96)" rx="212" ry="222"/>
  <ellipse class="fil6" transform="matrix(0.999972 0.00741971 -0.00741971 0.999972 7025.12 2887.28)" rx="318" ry="307"/>
  <circle class="fil6" transform="matrix(0.999972 0.00741971 -0.00741971 0.999972 6284.4 1442.41)" r="138"/>
  <ellipse class="fil6" transform="matrix(0.999972 0.00741971 -0.00741971 0.999972 7970.49 3852.11)" rx="180" ry="175"/>
  <ellipse class="fil6" transform="matrix(1.24588 0.00924435 -0.00924435 1.24588 5746.85 5777.59)" rx="333" ry="323"/>
  <ellipse class="fil6" transform="matrix(0.999972 0.00741971 -0.00741971 0.999972 7648.1 5934.69)" rx="275" ry="259"/>
  <circle class="fil6" transform="matrix(0.999972 0.00741971 -0.00741971 0.999972 7132.47 6248.38)" r="185"/>
  <ellipse class="fil6" transform="matrix(0.999972 0.00741971 -0.00741971 0.999972 4418.67 5413.3)" rx="217" ry="228"/>
  <ellipse class="fil6" transform="matrix(0.999972 0.00741971 -0.00741971 0.999972 9179.77 5352.62)" rx="286" ry="277"/>
  <ellipse class="fil6" transform="matrix(0.999972 0.00741971 -0.00741971 0.999972 6707.57 5165.89)" rx="238" ry="222"/>
  <circle class="fil6" transform="matrix(0.999972 0.00741971 -0.00741971 0.999972 8470.63 2781.21)" r="138"/>
  <circle class="fil6" transform="matrix(0.999972 0.00741971 -0.00741971 0.999972 4462.38 3809.8)" r="138"/>
  <path class="fil5" d="M7711 6963c-93,-22 -280,-22 -376,30 -95,52 -99,156 -114,278 -15,122 -41,261 -88,392 -47,131 -114,252 -183,338 -69,86 -139,135 -173,260 -34,125 -30,326 -19,622 11,295 31,685 49,842 19,157 36,81 53,-115 17,-196 33,-512 48,-738 15,-227 29,-364 78,-480 49,-116 134,-209 231,-303 97,-94 206,-190 294,-308 87,-118 153,-259 198,-381 45,-122 70,-224 82,-297 12,-73 12,-117 -81,-139z"/>
  <path class="fil5" d="M9975 4416c-317,-27 -955,-50 -1698,-72 -743,-22 -1589,-43 -2361,-55 -772,-11 -1468,-13 -1767,-11 -299,3 -200,10 117,34 318,25 854,67 1609,100 755,33 1729,56 2425,80 697,24 1116,50 1380,58 264,9 372,1 446,-9 74,-10 115,-22 138,-44 23,-22 28,-54 -288,-81z"/>
  <path class="fil7" d="M4852 4118c154,-2 326,-2 408,37 82,39 74,119 -126,152 -200,33 -592,19 -908,37 -316,18 -556,66 -692,138 -136,72 -168,167 -168,292 0,125 32,280 72,429 41,148 90,289 132,434 42,145 77,293 103,377 26,84 45,103 6,91 -38,-12 -134,-57 -185,-43 -51,13 -58,84 -55,170 4,86 18,189 7,252 -11,64 -46,88 -72,83 -26,-5 -44,-41 -58,-108 -14,-67 -25,-166 -18,-258 7,-92 32,-176 32,-282 0,-106 -25,-233 -85,-351 -60,-118 -155,-228 -233,-386 -78,-159 -138,-367 -182,-524 -44,-157 -72,-263 -48,-351 25,-88 102,-159 238,-198 136,-39 330,-46 501,-51 171,-5 319,-9 466,2 147,11 293,37 434,49 141,12 276,10 430,8z"/>
  <path class="fil7" d="M3543 7304c44,88 129,328 153,515 25,187 -11,321 -72,377 -62,56 -150,35 -191,-65 -41,-101 -34,-280 -16,-425 18,-145 46,-254 62,-340 16,-86 19,-150 63,-62z"/>
  <path class="fil7" d="M3683 10410c35,83 92,312 104,459 12,146 -19,210 -78,222 -58,12 -143,-26 -166,-106 -23,-79 16,-199 39,-295 23,-95 30,-166 41,-233 11,-67 25,-131 60,-48z"/>
  <path class="fil6" d="M10402 3603c-11,53 -26,201 -51,309 -26,109 -62,179 -110,230 -48,52 -108,85 -158,107 -50,22 -90,33 -71,46 19,13 98,29 149,55 52,25 76,61 98,124 22,63 41,155 54,255 13,100 20,209 28,317 8,107 16,213 22,247 6,34 9,-3 14,-88 5,-84 11,-216 33,-334 22,-118 58,-222 106,-308 48,-86 106,-154 151,-191 45,-37 77,-45 67,-63 -11,-18 -64,-48 -107,-85 -42,-38 -74,-83 -105,-160 -31,-77 -61,-185 -77,-263 -16,-77 -18,-124 -22,-168 -4,-44 -10,-84 -21,-30z"/>
 </g>
</svg>
