<?xml version="1.0" encoding="UTF-8"?>
<!DOCTYPE svg PUBLIC "-//W3C//DTD SVG 1.1//EN" "http://www.w3.org/Graphics/SVG/1.1/DTD/svg11.dtd">
<!-- Creator: CorelDRAW 2017 -->
<svg xmlns="http://www.w3.org/2000/svg" xml:space="preserve" width="143mm" height="143mm" version="1.1" style="shape-rendering:geometricPrecision; text-rendering:geometricPrecision; image-rendering:optimizeQuality; fill-rule:evenodd; clip-rule:evenodd"
viewBox="0 0 14300 14300"
 xmlns:xlink="http://www.w3.org/1999/xlink">
 <defs>
  <style type="text/css">
   <![CDATA[
    .str0 {stroke:white;stroke-width:75;stroke-linecap:round;stroke-linejoin:round}
    .fil3 {fill:none}
    .fil4 {fill:black}
    .fil5 {fill:#000066}
    .fil1 {fill:#52C6EF}
    .fil2 {fill:#6666CC}
    .fil0 {fill:white}
   ]]>
  </style>
 </defs>
 <g id="Слой_x0020_1">
  <metadata id="CorelCorpID_0Corel-Layer"/>
  <path class="fil0" d="M12537 12217c-384,-292 -1288,-818 -2097,-1147 -808,-329 -1521,-461 -2309,-531 -788,-71 -1651,-80 -2357,-5 -706,75 -1254,235 -1802,494 -548,259 -1096,616 -1494,903 -397,287 -644,503 -719,644 -75,141 21,207 199,230 178,24 438,5 658,-14 219,-19 397,-38 610,-19 212,19 459,75 706,160 247,85 493,198 788,235 295,38 637,0 1083,-71 445,-71 993,-174 1411,-226 418,-52 706,-52 1035,19 329,71 699,212 1048,268 349,56 678,28 939,-52 260,-80 452,-212 692,-259 240,-47 528,-9 761,19 233,28 411,47 514,0 103,-47 130,-160 192,-212 62,-52 158,-42 274,-66 116,-24 254,-80 -130,-372z"/>
  <path class="fil1" d="M5995 11469c98,39 192,105 229,157 37,52 18,89 -142,107 -160,18 -460,16 -719,14 -260,-2 -479,-4 -630,-14 -151,-10 -233,-29 -282,-68 -49,-39 -65,-97 -33,-139 31,-42 110,-69 291,-91 181,-23 466,-41 647,-46 181,-5 260,5 350,16 90,11 192,24 290,64z"/>
  <path class="fil2" d="M5835 10585c-62,-709 -87,-1901 -113,-2871 -26,-970 -54,-1720 -36,-2144 18,-425 82,-525 264,-668 182,-143 482,-327 856,-496 373,-168 820,-320 1181,-404 362,-84 638,-99 1017,-60 378,39 858,131 1129,179 271,49 334,54 223,18 -111,-35 -395,-112 -633,-180 -238,-69 -429,-129 -445,-176 -16,-47 145,-79 340,-112 196,-33 427,-67 657,-89 230,-23 459,-34 614,-48 155,-14 235,-30 337,-29 102,1 227,19 262,18 35,-1 -18,-20 -182,-34 -164,-13 -439,-21 -515,-54 -76,-33 47,-90 213,-182 166,-92 374,-218 407,-238 33,-20 -108,67 -321,155 -212,88 -496,178 -944,266 -449,88 -1062,173 -1578,271 -516,97 -935,206 -1082,217 -147,11 -21,-77 162,-183 183,-106 422,-230 699,-384 277,-155 593,-340 784,-494 191,-154 257,-277 233,-279 -23,-2 -136,117 -324,237 -188,120 -450,242 -577,292 -126,50 -117,28 -90,-53 27,-81 71,-221 47,-215 -24,6 -116,156 -309,333 -193,177 -486,379 -759,523 -273,144 -524,229 -783,347 -258,119 -524,271 -678,317 -154,47 -196,-12 -215,-251 -18,-239 -13,-660 -15,-974 -2,-314 -13,-523 7,-740 19,-217 69,-443 210,-634 142,-190 376,-345 558,-465 182,-120 313,-206 408,-262 96,-55 157,-80 168,-92 11,-12 -27,-10 -188,67 -161,77 -443,228 -643,340 -200,112 -316,186 -375,213 -58,27 -58,7 -59,-80 0,-87 0,-241 -1,-404 0,-164 -1,-337 -29,-287 -28,51 -84,325 -119,541 -35,216 -49,373 -69,639 -20,266 -45,641 -73,1046 -28,404 -58,838 -116,871 -58,33 -144,-334 -233,-691 -89,-356 -182,-702 -255,-1028 -72,-326 -124,-632 -153,-740 -30,-108 -38,-18 -26,143 11,161 43,393 74,610 32,217 64,419 71,529 7,109 -10,126 -33,135 -23,9 -50,10 -227,-27 -177,-37 -503,-113 -740,-210 -237,-97 -383,-214 -407,-213 -24,2 76,123 236,227 160,104 381,190 567,248 186,59 338,90 438,138 100,48 150,112 196,251 46,138 88,351 78,463 -11,113 -75,126 -192,125 -118,-1 -289,-17 -452,-31 -163,-15 -318,-29 -303,-13 15,16 199,62 350,93 151,30 269,45 374,65 105,19 196,44 267,126 71,82 121,222 162,388 40,166 71,357 55,523 -15,167 -76,309 -151,399 -75,90 -165,128 -333,112 -167,-16 -412,-85 -703,-265 -290,-180 -626,-472 -832,-685 -205,-213 -280,-347 -322,-407 -42,-60 -51,-46 1,62 52,107 166,307 291,475 125,168 263,304 313,365 50,61 13,48 -89,22 -103,-26 -271,-66 -525,-123 -254,-56 -594,-130 -614,-120 -21,10 278,102 523,179 245,77 436,138 668,232 232,94 504,222 747,318 243,95 458,158 496,178 38,20 -102,-2 -342,-7 -240,-5 -579,9 -869,40 -290,31 -530,79 -564,99 -33,20 141,12 360,-7 219,-19 483,-48 741,-47 258,0 511,29 673,59 162,30 232,60 291,119 59,60 106,150 141,418 35,268 58,715 5,1480 -53,765 -183,1847 -277,2536 -94,689 -152,985 -140,1113 12,129 94,90 328,71 234,-19 619,-17 826,7 206,24 234,72 198,-18 -35,-90 -133,-316 -195,-1026z"/>
  <path class="fil3 str0" d="M8984 3622c-55,45 -110,90 -136,176 -26,86 -22,212 -6,466 16,253 44,633 20,917 -24,283 -100,471 -177,658"/>
  <path class="fil3 str0" d="M8650 3661c-43,57 -85,114 -90,204 -4,89 30,211 106,453 76,242 195,604 240,885 45,281 16,481 -14,681"/>
  <path class="fil4" d="M8181 4150c93,-7 195,8 268,27 73,19 117,41 167,87 50,46 106,115 146,197 40,83 65,179 73,270 8,91 -2,177 -21,255 -19,78 -48,150 -34,212 13,63 69,117 106,155 37,39 54,62 108,112 54,50 145,127 249,294 104,167 222,423 313,778 91,355 156,810 180,1085 24,275 6,369 -37,407 -43,38 -110,18 -168,-144 -59,-162 -109,-468 -171,-728 -62,-260 -136,-473 -180,-599 -44,-125 -57,-163 -80,-214 -24,-51 -58,-117 -62,12 -4,129 22,453 73,812 51,359 127,754 190,1192 63,438 112,918 132,1208 20,290 11,388 -47,489 -58,101 -166,204 -269,242 -103,39 -201,13 -248,-36 -47,-49 -43,-122 -18,-185 25,-62 69,-114 96,-163 27,-49 36,-97 27,-249 -9,-152 -36,-410 -67,-678 -31,-268 -68,-547 -110,-789 -43,-242 -91,-449 -125,-550 -33,-101 -51,-97 -74,-28 -22,69 -49,202 -67,511 -18,309 -27,794 -27,1098 0,305 9,429 -7,542 -16,113 -56,215 -124,290 -68,75 -163,122 -243,156 -81,35 -146,57 -189,36 -42,-21 -62,-87 -52,-175 9,-88 46,-199 82,-299 36,-100 70,-189 83,-402 13,-212 6,-547 19,-902 13,-355 47,-729 62,-1065 16,-336 13,-633 5,-817 -8,-184 -23,-256 -31,-294 -7,-38 -7,-42 -20,14 -13,56 -38,171 -60,329 -22,158 -40,358 -46,529 -6,171 -1,311 7,469 8,158 18,333 -4,423 -22,90 -77,96 -114,72 -37,-24 -56,-76 -84,-156 -28,-80 -65,-187 -85,-398 -20,-210 -23,-524 7,-825 30,-301 94,-591 169,-795 75,-204 160,-322 238,-419 78,-98 148,-175 114,-240 -34,-65 -173,-118 -278,-183 -105,-65 -177,-144 -215,-240 -37,-96 -40,-211 -22,-309 18,-98 57,-179 95,-236 38,-57 75,-89 135,-120 60,-31 143,-59 236,-66z"/>
  <path class="fil0" d="M8356 4802c-133,11 -176,16 -250,-102 107,34 148,46 250,102z"/>
  <path class="fil0" d="M8233 4636c33,156 9,107 60,244 -130,-35 -106,-147 -60,-244z"/>
  <path class="fil0" d="M8037 4957c-133,11 -176,16 -250,-102 107,34 148,46 250,102z"/>
  <path class="fil0" d="M7914 4790c33,156 9,107 60,244 -130,-35 -106,-147 -60,-244z"/>
  <path class="fil1" d="M11669 12426c-220,-182 -623,-531 -1076,-824 -453,-293 -958,-529 -1376,-670 -418,-141 -750,-187 -732,-191 18,-4 385,35 773,123 388,88 797,226 1185,393 388,168 755,365 1076,547 321,182 596,347 721,446 125,99 101,131 55,161 -46,30 -113,58 -152,97 -39,39 -49,88 -74,111 -25,23 -64,19 -102,11 -39,-9 -78,-23 -298,-205z"/>
  <path class="fil5" d="M5212 11329c51,-223 48,-706 62,-1315 14,-609 46,-1342 54,-1930 8,-588 -6,-1030 -26,-1327 -20,-297 -44,-449 -59,-426 -14,23 -18,220 -19,604 -1,383 -1,952 -39,1551 -38,598 -116,1226 -172,1701 -56,474 -89,796 -113,996 -24,201 -39,281 -29,310 10,29 44,7 114,15 70,8 176,45 227,-178z"/>
 </g>
</svg>
