<?xml version="1.0" encoding="UTF-8"?>
<!DOCTYPE svg PUBLIC "-//W3C//DTD SVG 1.1//EN" "http://www.w3.org/Graphics/SVG/1.1/DTD/svg11.dtd">
<!-- Creator: CorelDRAW 2017 -->
<svg xmlns="http://www.w3.org/2000/svg" xml:space="preserve" width="143mm" height="143mm" version="1.1" style="shape-rendering:geometricPrecision; text-rendering:geometricPrecision; image-rendering:optimizeQuality; fill-rule:evenodd; clip-rule:evenodd"
viewBox="0 0 14300 14300"
 xmlns:xlink="http://www.w3.org/1999/xlink">
 <defs>
  <style type="text/css">
   <![CDATA[
    .str0 {stroke:black;stroke-width:100;stroke-linecap:round;stroke-linejoin:round}
    .fil6 {fill:none}
    .fil1 {fill:black}
    .fil0 {fill:#0069E1}
    .fil7 {fill:#5ACEF7}
    .fil3 {fill:#B3AA93}
    .fil5 {fill:#E6DEC8}
    .fil2 {fill:red}
    .fil4 {fill:#FFF7E3}
    .fil8 {fill:white}
   ]]>
  </style>
 </defs>
 <g id="Слой_x0020_1">
  <metadata id="CorelCorpID_0Corel-Layer"/>
  <path class="fil0" d="M8652 6274c310,53 595,133 871,316 276,183 542,469 729,805 186,336 293,722 367,966 74,244 116,346 326,420 210,74 587,120 789,295 202,175 229,480 249,926 20,445 33,1031 63,1617 30,586 77,1172 -63,1451 -140,280 -466,253 -862,216 -396,-37 -862,-83 -1345,-146 -483,-63 -982,-143 -1351,-193 -369,-50 -609,-70 -869,-63 -260,7 -539,40 -965,97 -426,57 -998,136 -1428,206 -429,70 -716,130 -882,120 -166,-10 -213,-90 -246,-529 -33,-439 -53,-1238 -33,-1831 20,-592 80,-979 180,-1388 100,-409 240,-842 383,-1251 143,-409 290,-795 572,-1118 283,-323 702,-582 1148,-742 446,-160 919,-220 1322,-236 403,-17 736,10 1046,63z"/>
  <path class="fil1" d="M7172 1662c290,7 606,72 866,276 260,204 464,548 550,878 86,330 53,645 2,895 -51,249 -122,432 -221,586 -100,154 -229,280 -324,400 -95,120 -156,234 -68,407 88,173 325,405 599,621 274,216 585,416 816,722 231,307 383,720 503,1087 120,367 209,687 243,953 35,266 16,479 -124,562 -141,83 -404,37 -594,-148 -190,-185 -306,-508 -371,-768 -65,-260 -79,-456 -137,-526 -58,-70 -160,-14 -183,313 -23,327 33,926 100,1370 67,443 146,731 176,910 30,179 12,248 -402,274 -413,26 -1221,7 -1832,0 -611,-7 -1024,-2 -1233,-60 -209,-58 -214,-179 -176,-580 37,-402 116,-1084 146,-1565 30,-481 12,-759 -12,-906 -24,-147 -53,-161 -97,-107 -44,55 -103,178 -269,600 -166,422 -440,1141 -668,1296 -228,154 -409,-257 -384,-820 25,-564 256,-1281 502,-1745 246,-464 507,-676 749,-810 242,-134 465,-189 641,-240 176,-51 306,-98 418,-158 111,-60 204,-135 241,-241 37,-107 19,-246 -65,-358 -84,-111 -232,-195 -381,-371 -149,-176 -297,-446 -362,-775 -65,-330 -46,-720 56,-1042 102,-323 288,-578 513,-731 225,-153 490,-204 780,-197z"/>
  <path class="fil2" d="M7268 8604c-92,11 -214,18 -304,11 -90,-7 -148,-27 -291,-75 -143,-48 -371,-124 -718,-163 -347,-39 -814,-41 -1143,-21 -329,20 -521,63 -713,113 -192,51 -383,110 -500,149 -117,39 -159,56 -179,72 -21,16 -21,29 -23,117 -2,88 -7,251 -12,674 -5,423 -11,1105 -25,1640 -14,535 -36,924 -40,1133 -3,209 12,238 41,258 29,20 71,31 265,7 193,-25 537,-85 1025,-171 488,-86 1120,-198 1500,-268 380,-70 507,-99 578,-112 71,-12 87,-8 96,10 9,18 11,49 35,67 23,18 68,22 151,22 83,0 203,-4 271,-8 68,-3 84,-6 94,-20 10,-15 15,-41 27,-61 12,-20 32,-34 63,-35 30,-1 70,10 616,104 546,94 1598,270 2152,360 554,89 610,92 641,82 31,-10 38,-32 38,-105 0,-73 -7,-195 -21,-794 -15,-599 -37,-1673 -52,-2242 -16,-569 -25,-634 -47,-677 -22,-42 -58,-63 -252,-123 -194,-60 -547,-161 -793,-220 -246,-59 -384,-77 -601,-80 -217,-3 -511,8 -768,41 -257,34 -476,89 -619,138 -143,49 -210,92 -274,121 -64,29 -125,45 -217,56z"/>
  <path class="fil3" d="M6907 11863c-84,-36 -168,-73 -269,-90 -102,-18 -221,-17 -381,5 -159,22 -358,64 -697,138 -339,74 -820,179 -1157,246 -337,68 -532,98 -635,114 -103,16 -115,18 -119,8 -5,-11 -2,-35 1,-68 4,-33 9,-75 17,-131 8,-56 19,-125 110,-186 90,-61 260,-115 530,-189 270,-74 641,-168 935,-247 294,-79 510,-144 702,-194 191,-50 357,-85 504,-85 146,0 273,35 366,62 92,27 150,45 187,67 36,22 52,49 44,96 -8,47 -38,113 -64,192 -26,79 -49,170 -72,262z"/>
  <path class="fil4" d="M6981 11859c-102,-99 -205,-198 -326,-247 -122,-49 -262,-49 -446,-21 -184,28 -412,84 -667,156 -255,73 -536,162 -826,237 -290,75 -590,135 -766,169 -176,34 -230,40 -273,45 -43,5 -77,8 -97,7 -21,-1 -29,-5 -33,-25 -4,-21 -4,-57 6,-470 10,-413 28,-1201 31,-1699 3,-498 -11,-706 -27,-846 -16,-140 -36,-213 -48,-259 -13,-46 -19,-64 -3,-81 16,-17 55,-34 138,-55 83,-21 211,-48 465,-99 255,-51 637,-127 981,-171 345,-44 652,-57 965,32 313,89 631,281 810,402 179,122 219,173 235,294 17,121 11,310 8,560 -3,250 -3,560 -3,855 -1,295 -2,575 -23,776 -20,200 -60,321 -99,441z"/>
  <path class="fil3" d="M7309 11854c58,-68 116,-135 206,-170 90,-35 213,-37 418,-6 204,31 490,96 932,198 442,102 1041,242 1353,316 312,74 336,81 345,67 9,-14 4,-50 -1,-86 -4,-36 -8,-71 -22,-151 -14,-79 -38,-202 -180,-287 -142,-85 -401,-132 -841,-229 -440,-97 -1061,-245 -1472,-293 -411,-48 -612,3 -728,53 -116,50 -147,97 -161,140 -14,43 -9,81 -3,120 6,39 14,79 40,133 26,54 70,124 114,193z"/>
  <path class="fil5" d="M7224 11853c66,-100 131,-201 227,-258 96,-57 222,-70 344,-68 122,2 241,20 524,93 284,73 733,200 1144,305 411,105 785,188 978,228 193,39 207,35 206,-23 -1,-58 -17,-170 -31,-537 -15,-367 -28,-990 -32,-1436 -4,-446 0,-714 10,-903 10,-190 26,-301 34,-365 8,-64 8,-79 6,-87 -2,-8 -7,-8 -121,-38 -114,-30 -338,-91 -544,-141 -206,-49 -395,-88 -596,-112 -201,-25 -415,-36 -616,-32 -202,3 -391,21 -586,65 -194,44 -393,113 -547,181 -154,68 -262,135 -336,207 -74,72 -114,148 -134,217 -20,70 -20,134 -23,263 -3,129 -10,324 -13,552 -4,227 -4,487 -6,703 -2,217 -6,391 13,581 19,191 59,399 100,607z"/>
  <path class="fil5" d="M7061 11849c-64,-137 -129,-275 -264,-362 -135,-88 -340,-126 -529,-120 -189,6 -361,55 -632,144 -271,89 -642,219 -923,306 -281,87 -473,132 -640,164 -166,32 -307,52 -376,55 -69,2 -67,-13 -60,-145 7,-132 18,-380 29,-735 11,-355 22,-817 15,-1181 -8,-364 -35,-630 -58,-813 -23,-183 -44,-284 -64,-347 -20,-64 -40,-90 -21,-107 19,-17 77,-23 241,-66 164,-42 434,-121 736,-184 301,-64 634,-113 1005,-94 371,19 779,106 1043,208 263,102 381,218 451,295 70,77 93,115 100,293 7,178 -2,494 -6,837 -4,343 -3,711 -3,974 0,263 -2,420 -9,548 -7,129 -20,230 -32,331z"/>
  <path class="fil4" d="M7160 11853c72,-133 145,-266 256,-341 111,-75 261,-92 388,-99 127,-7 232,-5 509,60 277,65 726,192 1126,299 400,107 750,194 932,236 182,41 195,37 194,-21 -1,-58 -17,-170 -31,-537 -15,-367 -28,-990 -32,-1436 -4,-446 0,-714 10,-903 10,-190 26,-301 34,-365 8,-64 8,-79 6,-87 -2,-8 -7,-8 -109,-40 -103,-32 -304,-97 -498,-149 -195,-51 -383,-90 -584,-114 -201,-25 -415,-36 -616,-32 -202,3 -391,21 -586,65 -194,44 -393,113 -547,181 -154,68 -262,135 -336,207 -74,72 -114,148 -134,217 -20,70 -20,134 -23,263 -3,129 -10,324 -13,552 -4,227 -4,487 -4,703 1,217 2,391 2,534 0,143 -2,256 8,386 9,129 30,276 50,422z"/>
  <path class="fil4" d="M7121 10614c5,-450 11,-977 19,-1284 7,-307 16,-394 15,-449 -1,-55 -11,-77 -64,-139 -53,-62 -149,-162 -312,-264 -163,-102 -393,-204 -670,-276 -277,-71 -601,-112 -865,-124 -265,-12 -470,3 -590,12 -119,9 -153,11 -172,13 -19,2 -23,4 -26,18 -2,13 -2,38 13,529 16,491 47,1449 67,2030 20,581 29,784 33,893 4,109 4,125 10,130 6,4 17,-2 83,-37 66,-35 186,-97 338,-163 152,-66 335,-135 546,-189 211,-54 450,-92 639,-105 189,-13 327,-2 434,26 107,28 183,73 249,136 66,64 122,146 160,222 38,76 59,146 80,216 4,-373 8,-747 13,-1197z"/>
  <path class="fil5" d="M9418 6684c3,150 -6,458 -23,985 -18,527 -45,1273 -58,1798 -13,525 -13,829 -18,987 -4,159 -13,172 -94,248 -80,76 -232,214 -415,310 -183,96 -398,150 -572,165 -174,16 -308,-7 -478,36 -170,42 -375,150 -490,260 -115,110 -138,224 -162,337 -3,-118 -7,-236 -8,-742 -2,-506 -2,-1399 12,-1870 13,-471 40,-520 156,-668 116,-147 322,-393 532,-639 210,-246 424,-491 639,-688 214,-197 429,-344 586,-445 157,-101 258,-155 316,-186 58,-31 74,-40 77,110z"/>
  <path class="fil6 str0" d="M4991 10603c27,-61 55,-121 65,-135 10,-13 2,21 5,46 3,25 16,42 40,33 24,-9 60,-42 77,-47 18,-5 17,18 27,26 9,8 29,0 64,-28 35,-27 87,-74 122,-101 35,-27 52,-34 53,-5 1,29 -15,96 1,121 17,25 66,10 104,-9 38,-19 64,-42 91,-42 27,0 53,22 91,11 38,-11 87,-54 126,-63 39,-9 67,16 100,20 33,4 70,-14 107,-12 37,2 73,24 100,34 27,10 46,9 70,-3 25,-12 55,-35 75,-38 20,-3 29,14 37,30"/>
  <path class="fil6 str0" d="M4976 10144c143,-67 285,-134 373,-143 88,-8 122,42 186,51 63,9 156,-23 211,-22 55,1 72,35 103,38 32,3 78,-26 114,-24 36,2 63,35 106,48 43,13 102,6 139,17 37,12 53,42 72,41 19,-1 42,-35 62,-43 20,-8 36,8 68,16 32,8 79,7 106,8 27,1 33,4 44,10 11,6 28,14 47,24 19,10 40,21 62,31"/>
  <path class="fil6 str0" d="M4861 11215c87,-116 173,-233 259,-258 86,-25 172,41 255,27 83,-14 164,-110 229,-144 65,-34 113,-7 160,33 47,39 94,91 157,81 63,-10 142,-82 196,-103 54,-20 83,11 110,12 27,1 51,-27 75,-31 24,-3 48,19 70,28 22,9 41,6 70,20 29,14 67,46 110,52 43,7 89,-11 122,-6 32,5 49,33 59,54 9,20 10,33 14,37 4,4 12,-1 36,10 24,11 65,37 106,62"/>
  <path class="fil6 str0" d="M7282 10023c7,-56 14,-112 33,-150 19,-37 49,-56 79,-47 30,9 59,47 81,54 22,7 37,-16 48,-39 11,-23 20,-47 40,-58 21,-11 53,-9 75,-20 21,-11 31,-36 46,-34 15,2 35,32 50,32 15,0 25,-29 30,-82 5,-53 4,-129 15,-142 11,-13 33,37 58,87 25,51 52,102 67,82 15,-21 18,-114 32,-154 14,-40 40,-28 73,-46 33,-18 73,-67 98,-86 25,-19 36,-8 53,-37 17,-29 42,-99 67,-113 25,-15 51,26 83,28 32,3 70,-32 97,-47 27,-14 42,-9 72,-25 31,-17 76,-57 102,-100 25,-43 30,-90 22,-150 -9,-60 -31,-133 -35,-143 -4,-10 11,44 27,101 16,57 34,118 70,112 35,-6 88,-80 118,-114 30,-34 38,-27 68,-48 30,-21 83,-70 115,-97 32,-27 42,-32 59,-38 17,-7 39,-16 62,-25"/>
  <path class="fil6 str0" d="M7281 10399c8,-52 17,-105 45,-111 28,-6 76,33 116,24 40,-9 72,-68 103,-69 31,-1 61,55 98,43 37,-13 80,-95 101,-112 21,-17 21,30 64,-6 43,-36 131,-155 186,-185 55,-30 78,28 125,19 47,-9 119,-87 169,-125 51,-39 81,-38 92,-63 11,-25 1,-75 31,-99 29,-24 97,-23 147,-54 51,-31 84,-95 112,-117 27,-22 49,-1 81,-7 32,-6 74,-39 97,-62 23,-23 27,-35 32,-48"/>
  <path class="fil6 str0" d="M8762 9954c-41,50 -83,101 -119,126 -37,26 -68,27 -96,27 -27,0 -50,-1 -78,33 -28,34 -61,102 -99,133 -38,31 -80,23 -116,25 -36,2 -66,13 -99,43 -33,30 -70,78 -107,97 -37,20 -73,12 -107,22 -34,10 -66,38 -104,56 -38,18 -82,25 -118,37 -37,13 -66,31 -97,49 -31,18 -63,34 -90,40 -27,5 -49,-2 -67,6 -17,8 -30,29 -46,37 -16,8 -35,1 -55,9 -20,8 -39,30 -49,36 -10,5 -10,-6 -10,-18"/>
  <path class="fil6 str0" d="M7268 11101c4,-37 8,-74 27,-95 19,-21 52,-26 83,-21 30,5 58,21 79,12 21,-9 36,-44 59,-56 23,-12 53,-2 91,-13 37,-11 81,-44 119,-57 38,-13 70,-5 108,-21 38,-16 81,-56 121,-76 40,-20 78,-18 93,-5 16,14 10,41 24,35 14,-6 49,-44 84,-62 36,-18 73,-15 96,-26 23,-11 31,-34 45,-40 14,-6 35,7 44,2 10,-5 9,-26 16,-39 7,-13 22,-17 37,-21"/>
  <path class="fil7" d="M6431 9525c18,22 31,42 2,50 -29,9 -99,6 -172,-22 -73,-28 -148,-80 -200,-123 -52,-43 -80,-77 -134,-78 -54,-1 -134,32 -192,69 -57,38 -91,80 -121,134 -30,54 -56,120 -82,166 -27,46 -55,72 -74,50 -20,-22 -31,-92 -24,-158 7,-65 31,-125 29,-179 -2,-54 -30,-102 -70,-123 -40,-21 -93,-14 -144,6 -51,20 -101,54 -140,89 -39,34 -67,69 -101,81 -34,11 -74,-1 -78,-28 -4,-27 27,-68 67,-101 40,-33 90,-58 123,-118 33,-60 50,-154 40,-249 -10,-94 -48,-189 -115,-283 -67,-94 -163,-189 -239,-244 -76,-55 -131,-70 -137,-94 -6,-24 38,-55 100,-48 62,8 143,55 193,95 51,40 72,73 87,108 15,35 25,72 62,93 37,21 101,26 162,14 62,-13 122,-43 165,-95 43,-52 70,-125 104,-187 34,-62 76,-112 96,-101 20,11 18,85 15,140 -3,56 -7,94 -2,134 4,39 17,79 53,105 36,26 95,38 162,48 66,10 140,17 191,26 51,9 80,20 66,45 -14,25 -70,65 -118,103 -47,38 -86,73 -85,133 2,61 43,146 90,216 47,70 100,123 160,163 60,40 126,68 172,93 45,25 70,48 88,70z"/>
  <path class="fil1" d="M9311 12335c-20,18 -55,35 -89,40 -35,5 -70,-2 -93,-22 -23,-20 -34,-51 -43,-69 -9,-18 -16,-21 -24,-12 -8,9 -19,32 -32,53 -13,21 -29,41 -61,53 -32,12 -80,17 -114,5 -34,-12 -54,-41 -67,-66 -13,-25 -20,-46 -30,-48 -10,-2 -24,15 -47,27 -23,11 -55,17 -86,10 -31,-7 -60,-25 -77,-43 -17,-18 -20,-36 -25,-54 -4,-18 -10,-35 -20,-36 -11,-1 -27,16 -50,27 -23,11 -53,17 -82,10 -30,-7 -59,-29 -80,-60 -20,-31 -31,-72 -15,-125 16,-53 58,-117 95,-158 37,-42 69,-61 96,-54 27,7 49,41 60,69 12,28 13,50 13,70 0,20 -2,38 3,30 6,-8 19,-42 37,-77 18,-35 41,-71 64,-96 23,-25 47,-39 71,-38 24,1 48,18 66,40 18,22 30,51 35,83 5,33 4,69 9,74 5,5 16,-22 26,-50 10,-28 19,-59 31,-87 12,-29 28,-55 49,-73 21,-18 47,-26 73,-25 26,1 51,11 70,35 18,24 30,62 35,96 5,34 5,65 4,90 -1,25 -2,44 4,38 6,-6 19,-38 37,-68 18,-29 42,-57 71,-62 28,-5 60,12 82,31 21,19 32,41 38,73 5,32 5,74 4,127 -1,53 -4,118 -7,160 -3,42 -8,62 -27,80z"/>
  <path class="fil1" d="M4727 12373c18,20 51,40 86,48 34,8 70,4 94,-14 25,-17 39,-48 49,-65 10,-17 17,-20 25,-10 8,10 16,33 27,55 11,22 26,43 56,58 31,15 78,24 113,15 35,-9 57,-36 72,-59 15,-24 24,-44 34,-45 10,-1 23,18 45,31 22,13 54,22 85,18 31,-4 62,-20 81,-36 18,-17 23,-34 29,-51 6,-17 13,-34 23,-34 11,0 26,18 48,31 22,13 51,22 81,17 30,-5 62,-23 85,-53 23,-29 38,-69 27,-123 -11,-54 -47,-121 -81,-166 -33,-45 -63,-67 -91,-62 -27,5 -52,37 -66,64 -14,27 -18,49 -19,69 -2,20 -1,38 -6,29 -5,-9 -15,-44 -29,-80 -15,-37 -35,-75 -56,-102 -21,-27 -43,-43 -67,-44 -24,-1 -49,14 -69,34 -20,21 -34,48 -42,80 -8,32 -10,69 -15,73 -5,5 -14,-23 -21,-52 -7,-29 -14,-60 -23,-90 -10,-30 -23,-58 -42,-77 -19,-19 -45,-30 -71,-31 -26,-1 -52,6 -73,29 -20,22 -35,59 -44,93 -8,34 -10,64 -12,89 -1,25 -2,44 -7,37 -5,-7 -15,-40 -31,-71 -16,-31 -37,-60 -65,-68 -28,-8 -61,6 -84,23 -23,17 -36,38 -44,69 -8,31 -11,73 -15,126 -3,53 -7,118 -7,160 0,42 2,63 20,83z"/>
  <path class="fil8" d="M7446 2988c71,26 191,106 267,186 76,80 107,161 75,167 -32,5 -128,-65 -216,-132 -87,-67 -165,-130 -193,-175 -28,-45 -5,-72 66,-46z"/>
  <path class="fil8" d="M6829 3079c-66,29 -169,112 -228,195 -59,83 -74,165 -41,169 33,4 115,-70 188,-139 73,-69 138,-135 157,-181 18,-46 -10,-72 -75,-44z"/>
  <path class="fil7" d="M7833 3301c50,-17 132,-39 221,-30 89,9 183,48 248,101 65,53 100,119 103,179 3,59 -25,112 -57,130 -32,18 -67,2 -107,-41 -41,-43 -87,-113 -142,-162 -55,-49 -119,-77 -174,-97 -54,-19 -99,-29 -127,-34 -28,-5 -39,-4 -36,-10 3,-6 20,-18 70,-35z"/>
  <path class="fil1" d="M8443 2718c129,88 207,130 261,150 54,20 84,18 82,-84 -2,-102 -35,-303 -86,-481 -52,-178 -122,-334 -255,-474 -134,-140 -331,-265 -502,-342 -172,-77 -318,-105 -464,-118 -145,-13 -290,-11 -408,2 -119,14 -211,39 -287,39 -76,0 -134,-24 -189,-48 -55,-24 -107,-47 -206,-47 -100,1 -248,25 -414,104 -166,79 -351,214 -529,453 -178,239 -350,584 -403,1027 -53,443 12,986 38,1337 26,351 13,512 -105,563 -118,51 -340,-8 -437,-13 -97,-5 -68,44 4,88 72,44 187,82 269,103 81,20 128,23 125,38 -3,16 -55,45 -93,67 -38,22 -63,36 -6,51 57,15 194,30 358,-7 164,-38 353,-128 476,-267 123,-138 180,-325 237,-492 57,-168 115,-317 182,-605 66,-288 141,-715 258,-1000 117,-285 278,-428 553,-471 275,-43 664,14 949,110 285,95 466,229 595,317z"/>
  <path class="fil7" d="M6598 3403c-24,-6 -81,-8 -162,2 -81,10 -186,31 -278,90 -93,59 -174,155 -197,232 -23,77 12,134 71,148 59,15 143,-14 206,-61 63,-48 105,-115 138,-168 33,-53 57,-92 86,-122 28,-29 61,-49 86,-64 25,-14 43,-23 55,-32 13,-9 21,-19 -4,-25z"/>
  <path class="fil7" d="M4067 4033c-83,3 -343,76 -495,165 -152,89 -195,195 -165,238 31,44 135,26 239,-30 105,-56 209,-151 309,-231 100,-80 194,-146 111,-142z"/>
  <path class="fil7" d="M3067 5929c-140,215 -297,564 -304,751 -7,187 136,212 243,75 108,-137 180,-436 249,-663 69,-228 134,-384 105,-422 -29,-38 -153,44 -293,259z"/>
  <path class="fil7" d="M2298 4707c-86,10 -341,110 -508,253 -168,143 -249,329 -230,410 19,81 137,56 264,-47 127,-103 262,-286 370,-417 108,-131 190,-210 104,-200z"/>
  <path class="fil7" d="M9586 4131c125,-10 507,98 725,232 218,135 272,297 216,362 -57,65 -224,31 -377,-40 -152,-71 -289,-181 -424,-299 -134,-118 -266,-246 -140,-256z"/>
  <path class="fil7" d="M10892 6024c135,78 448,361 581,553 133,192 86,293 -17,322 -103,29 -262,-14 -373,-143 -111,-128 -174,-342 -228,-512 -54,-171 -98,-298 37,-220z"/>
  <path class="fil7" d="M11115 4394c128,33 477,226 641,392 165,166 145,306 17,273 -128,-33 -366,-237 -530,-404 -165,-166 -256,-294 -128,-261z"/>
  <path class="fil7" d="M2166 7140c-55,65 -180,256 -238,414 -58,159 -49,285 -3,341 47,56 131,41 173,-48 42,-89 41,-251 49,-371 8,-120 25,-199 41,-269 16,-70 32,-132 -22,-67z"/>
  <path class="fil8" d="M7748 4619c13,-55 7,-190 -44,-301 -51,-112 -146,-200 -248,-243 -102,-43 -212,-42 -315,7 -103,49 -200,146 -250,255 -51,109 -56,230 -49,273 7,42 25,6 59,-42 34,-47 84,-106 139,-136 55,-31 115,-34 189,-17 73,17 160,54 222,82 61,27 98,45 130,64 32,19 61,41 91,64 31,23 64,48 77,-7z"/>
  <path class="fil7" d="M12725 6016c67,51 166,157 224,245 58,88 76,159 28,164 -48,5 -161,-55 -266,-152 -106,-97 -205,-231 -224,-288 -19,-56 41,-35 88,-26 48,9 83,5 150,56z"/>
 </g>
</svg>
