<?xml version="1.0" encoding="UTF-8"?>
<!DOCTYPE svg PUBLIC "-//W3C//DTD SVG 1.1//EN" "http://www.w3.org/Graphics/SVG/1.1/DTD/svg11.dtd">
<!-- Creator: CorelDRAW 2017 -->
<svg xmlns="http://www.w3.org/2000/svg" xml:space="preserve" width="143mm" height="143mm" version="1.1" style="shape-rendering:geometricPrecision; text-rendering:geometricPrecision; image-rendering:optimizeQuality; fill-rule:evenodd; clip-rule:evenodd"
viewBox="0 0 14300 14300"
 xmlns:xlink="http://www.w3.org/1999/xlink">
 <defs>
  <style type="text/css">
   <![CDATA[
    .str0 {stroke:white;stroke-width:100}
    .str1 {stroke:black;stroke-width:150;stroke-linecap:round;stroke-linejoin:round}
    .fil11 {fill:none}
    .fil4 {fill:none;fill-rule:nonzero}
    .fil5 {fill:black}
    .fil7 {fill:black}
    .fil0 {fill:#4D4D4D}
    .fil9 {fill:gray}
    .fil1 {fill:#DE8066}
    .fil10 {fill:#EDBF42}
    .fil8 {fill:#FFE77B}
    .fil6 {fill:white}
    .fil2 {fill:black;fill-rule:nonzero}
    .fil3 {fill:white;fill-rule:nonzero}
   ]]>
  </style>
 </defs>
 <g id="Слой_x0020_1">
  <metadata id="CorelCorpID_0Corel-Layer"/>
  <path class="fil0" d="M4790 9174c-806,-5 -1309,-3 -1721,49 -412,52 -733,154 -952,228 -219,74 -335,120 -452,190 -116,69 -233,162 -158,222 75,60 341,88 1025,107 684,19 1787,28 3521,37 1734,10 4100,20 5435,31 1335,12 1640,25 1720,-59 80,-84 -64,-264 -283,-415 -219,-151 -512,-271 -831,-340 -319,-69 -662,-88 -1380,-83 -717,5 -1809,32 -2909,41 -1101,8 -2210,-3 -3016,-8z"/>
  <path class="fil1" d="M7944 11784c860,13 2238,80 3024,124 787,44 982,63 1023,127 41,64 -74,171 -20,252 54,81 276,134 504,185 229,50 464,97 400,212 -64,114 -427,296 -1388,356 -961,61 -2521,0 -3473,-7 -951,-7 -1294,40 -1382,104 -87,64 81,145 -7,192 -87,47 -430,61 -961,34 -531,-27 -1251,-94 -1862,-145 -612,-50 -1116,-84 -1318,-155 -202,-71 -101,-178 -87,-313 13,-134 -61,-296 -232,-407 -171,-111 -440,-171 -518,-252 -77,-81 37,-182 454,-249 417,-67 1136,-101 1903,-93 766,8 1580,57 2158,60 578,3 921,-39 1781,-26z"/>
  <path class="fil2" d="M10119 3606c-465,194 -1000,26 -1288,-370 -353,-485 -252,-1159 224,-1506 476,-347 1149,-235 1502,250 316,434 265,1027 -92,1392 62,200 125,401 187,601 -532,-368 -354,-245 -532,-368z"/>
  <path class="fil3" d="M9689 2939c-54,4 -81,0 -82,-11 -1,-11 -2,-19 -2,-25 0,-5 -2,-25 -4,-58 -2,-33 0,-62 8,-86 8,-25 14,-46 20,-64 5,-18 15,-38 29,-57 14,-19 26,-36 36,-50 10,-14 43,-49 97,-104 55,-55 89,-98 105,-130 15,-32 22,-56 21,-74 -1,-18 -3,-43 -5,-76 -2,-33 -30,-72 -84,-118 -55,-46 -100,-68 -137,-65 -37,3 -73,5 -109,8 -36,2 -76,27 -121,76 -45,48 -69,96 -73,144 -4,48 -35,70 -93,68 -58,-3 -85,-36 -82,-100 4,-64 41,-133 113,-206 72,-73 140,-112 203,-116 63,-4 128,-9 195,-13 67,-4 143,27 227,94 84,67 128,127 132,178 3,51 6,92 8,122 2,30 -9,71 -34,123 -25,52 -56,98 -94,136 -38,39 -71,71 -96,97 -26,26 -46,51 -61,75 -15,24 -26,51 -32,82 -6,31 -8,63 -7,96 2,34 -24,52 -78,56zm28 336c-64,4 -98,-26 -102,-89 -4,-64 26,-98 89,-102 64,-4 98,25 102,89 4,64 -25,98 -89,102z"/>
  <path id="1" class="fil4 str0" d="M9689 2939c-54,4 -81,0 -82,-11 -1,-11 -2,-19 -2,-25 0,-5 -2,-25 -4,-58 -2,-33 0,-62 8,-86 8,-25 14,-46 20,-64 5,-18 15,-38 29,-57 14,-19 26,-36 36,-50 10,-14 43,-49 97,-104 55,-55 89,-98 105,-130 15,-32 22,-56 21,-74 -1,-18 -3,-43 -5,-76 -2,-33 -30,-72 -84,-118 -55,-46 -100,-68 -137,-65 -37,3 -73,5 -109,8 -36,2 -76,27 -121,76 -45,48 -69,96 -73,144 -4,48 -35,70 -93,68 -58,-3 -85,-36 -82,-100 4,-64 41,-133 113,-206 72,-73 140,-112 203,-116 63,-4 128,-9 195,-13 67,-4 143,27 227,94 84,67 128,127 132,178 3,51 6,92 8,122 2,30 -9,71 -34,123 -25,52 -56,98 -94,136 -38,39 -71,71 -96,97 -26,26 -46,51 -61,75 -15,24 -26,51 -32,82 -6,31 -8,63 -7,96 2,34 -24,52 -78,56zm28 336c-64,4 -98,-26 -102,-89 -4,-64 26,-98 89,-102 64,-4 98,25 102,89 4,64 -25,98 -89,102z"/>
  <path class="fil5" d="M3825 6248c-158,72 -292,178 -427,183 -135,5 -272,-91 -347,-274 -76,-183 -90,-453 -41,-737 49,-284 160,-583 273,-766 113,-183 226,-251 256,-321 30,-70 -23,-143 -153,-152 -130,-10 -336,44 -493,239 -157,196 -264,534 -335,783 -71,249 -105,408 -125,609 -20,201 -24,443 46,699 71,256 217,525 366,695 149,169 301,238 412,434 111,196 181,518 196,730 15,212 -24,315 -60,410 -37,95 -70,183 105,266 175,83 559,161 943,146 384,-15 768,-123 994,-189 226,-66 295,-90 295,-191 0,-102 -68,-281 -114,-494 -46,-213 -69,-460 -54,-636 15,-176 69,-282 142,-236 73,46 166,244 302,672 137,428 318,1085 462,1465 145,380 253,482 346,495 93,13 172,-62 148,-426 -25,-363 -153,-1014 -332,-1539 -178,-525 -406,-925 -614,-1200 -208,-275 -396,-425 -578,-540 -182,-115 -359,-195 -540,-235 -181,-40 -367,-40 -551,-20 -184,20 -365,59 -522,132z"/>
  <path class="fil6" d="M3751 6109c-35,16 -93,57 -133,83 -40,26 -63,37 -51,66 12,29 60,76 96,130 37,54 63,116 79,191 17,75 24,164 32,245 8,80 17,151 33,168 17,17 41,-20 97,-87 56,-66 144,-162 220,-232 76,-70 141,-113 179,-137 38,-23 50,-27 75,-7 25,19 64,61 130,133 65,71 157,172 219,242 61,70 91,109 113,109 22,1 35,-36 60,-126 25,-89 63,-230 96,-334 33,-104 62,-170 89,-215 27,-45 53,-67 58,-94 4,-27 -13,-57 -46,-92 -33,-34 -82,-71 -119,-80 -37,-9 -61,11 -142,70 -81,59 -217,158 -308,210 -91,52 -135,57 -193,55 -58,-2 -128,-10 -194,-36 -66,-27 -128,-72 -171,-104 -43,-32 -68,-52 -91,-76 -23,-24 -45,-53 -62,-72 -17,-19 -30,-27 -65,-11z"/>
  <path class="fil7" d="M3504 4860c-8,190 12,433 37,638 25,206 55,374 143,539 88,164 233,325 363,423 130,98 245,134 376,108 130,-26 276,-113 392,-207 117,-93 204,-192 270,-330 65,-138 109,-317 137,-500 29,-183 43,-371 43,-542 0,-171 -14,-325 -61,-447 -47,-122 -126,-213 -262,-284 -136,-71 -329,-123 -509,-143 -180,-19 -347,-6 -487,46 -140,53 -252,145 -326,259 -74,114 -110,250 -118,440z"/>
  <path class="fil7" d="M3351 4954c-52,-33 -134,-100 -191,-161 -57,-61 -89,-116 -98,-148 -9,-32 4,-40 37,-120 34,-80 89,-232 121,-334 32,-102 42,-154 50,-184 8,-30 14,-38 31,-45 17,-6 46,-11 155,-52 109,-41 297,-117 451,-185 154,-69 273,-130 339,-168 65,-38 77,-53 91,-57 14,-4 32,2 145,59 113,57 322,164 468,238 146,75 230,117 288,143 58,27 91,38 113,46 22,8 32,13 39,25 7,12 12,32 33,110 22,79 60,216 99,312 38,96 76,149 99,180 23,31 32,39 32,50 1,11 -6,26 -61,80 -55,54 -157,146 -214,200 -57,54 -68,68 -89,58 -21,-10 -52,-45 -109,-93 -58,-48 -142,-109 -269,-154 -127,-46 -297,-77 -482,-83 -185,-6 -385,11 -536,47 -151,36 -253,89 -320,137 -66,48 -97,90 -123,112 -26,21 -47,21 -99,-12z"/>
  <path class="fil6" d="M3445 4987c45,-19 107,-75 237,-125 130,-49 329,-92 485,-115 156,-23 270,-28 399,-16 130,12 275,41 386,81 111,40 187,90 234,131 47,41 63,74 82,83 19,10 39,-3 53,-23 14,-20 21,-48 9,-89 -12,-42 -44,-97 -106,-153 -63,-56 -156,-112 -287,-157 -130,-44 -297,-77 -447,-90 -150,-13 -282,-6 -432,21 -150,28 -317,76 -421,120 -104,44 -146,83 -179,122 -33,40 -58,80 -76,112 -18,32 -29,54 -21,75 9,21 37,41 83,22z"/>
  <path class="fil6" d="M4141 3835c8,-4 27,9 55,10 28,2 65,-8 92,-27 27,-18 43,-44 53,-64 10,-19 12,-32 21,-25 8,6 22,31 39,50 17,19 39,33 58,42 20,8 37,12 54,10 16,-2 32,-8 41,-12 10,-5 14,-8 14,12 1,19 -2,61 -8,107 -6,46 -16,97 -33,142 -17,45 -41,84 -65,111 -24,27 -49,41 -73,48 -24,8 -48,9 -75,0 -27,-10 -57,-30 -83,-66 -26,-36 -47,-87 -61,-138 -14,-51 -21,-102 -26,-138 -5,-36 -10,-58 -2,-62z"/>
  <path class="fil3" d="M6708 4484c40,3 74,4 114,4 886,0 1604,-634 1604,-1415 0,-781 -718,-1415 -1604,-1415 -886,0 -1604,634 -1604,1415 0,550 366,1035 886,1265 -200,339 -400,678 -599,1017 1203,-871 802,-581 1203,-871z"/>
  <path class="fil6" d="M4344 5815c-51,34 -108,107 -146,181 -38,74 -57,149 -45,223 12,75 57,149 119,175 62,26 142,2 182,-69 40,-71 41,-189 53,-268 12,-80 36,-121 35,-160 -1,-38 -28,-73 -64,-92 -36,-20 -82,-24 -133,10z"/>
  <path class="fil2" d="M9008 6306c-168,636 -819,1070 -1526,1070 -866,0 -1568,-620 -1568,-1385 0,-765 702,-1385 1568,-1385 776,0 1425,506 1547,1160 287,88 574,175 861,263 -881,277 -588,185 -881,277z"/>
  <path class="fil8" d="M7306 5742c-63,15 -122,47 -179,99 -56,52 -110,125 -139,199 -29,75 -35,151 -23,218 12,66 42,123 80,171 37,48 81,89 114,109 34,20 57,20 69,33 12,13 14,39 13,73 -1,34 -3,76 -5,109 -1,33 -1,58 39,72 40,14 120,17 185,14 65,-3 114,-14 138,-46 24,-32 23,-86 22,-125 -1,-39 -1,-63 4,-82 4,-19 13,-32 37,-45 24,-13 63,-27 100,-67 37,-40 72,-107 92,-172 20,-65 24,-130 16,-195 -7,-65 -26,-132 -65,-190 -40,-58 -101,-106 -154,-136 -53,-30 -99,-41 -156,-47 -57,-6 -125,-8 -188,8z"/>
  <path class="fil0" d="M7279 6920c0,18 5,53 14,82 9,29 24,52 52,63 28,11 71,11 106,1 35,-11 62,-32 80,-57 17,-26 25,-55 29,-75 4,-20 4,-30 -28,-35 -32,-5 -96,-5 -142,-4 -46,1 -75,3 -91,4 -16,2 -20,3 -20,22z"/>
  <path class="fil9" d="M7402 6696c-51,2 -107,2 -144,3 -37,1 -55,3 -67,19 -11,16 -15,46 -19,82 -3,36 -6,78 1,105 7,27 24,40 74,45 49,5 131,1 204,1 73,0 137,2 173,-23 36,-26 42,-80 45,-124 2,-44 -1,-77 -22,-95 -21,-18 -60,-20 -103,-19 -43,1 -90,4 -142,6z"/>
  <path class="fil10" d="M7383 5921c10,39 42,127 48,169 6,41 -14,36 -50,35 -36,-1 -89,2 -109,19 -20,16 -6,45 32,102 38,57 99,142 133,188 34,46 39,54 33,23 -6,-31 -23,-101 -36,-144 -13,-43 -21,-60 -5,-70 16,-10 55,-12 84,-17 29,-4 46,-11 56,-21 10,-10 11,-25 -8,-62 -19,-37 -58,-98 -89,-141 -31,-44 -53,-70 -71,-89 -17,-19 -30,-30 -20,9z"/>
  <path class="fil6" d="M7307 5788c14,-8 68,-16 130,-13 62,3 133,19 189,45 56,26 97,62 129,109 32,47 55,105 65,161 10,57 7,112 -7,168 -14,56 -39,112 -67,148 -27,37 -57,54 -62,30 -6,-23 13,-87 13,-157 0,-70 -18,-146 -50,-215 -32,-68 -77,-128 -119,-167 -42,-38 -81,-55 -112,-66 -30,-11 -51,-17 -74,-23 -23,-6 -48,-13 -34,-21z"/>
  <path class="fil6" d="M7846 5847c19,-9 425,-287 388,-330 -7,-9 -294,-86 -382,-110 226,-436 256,-370 -258,-244 -30,-84 -106,-313 -164,-395 0,-4 0,-8 -1,-9l-5 2c-13,-17 -25,-25 -36,-21 -21,8 -21,25 -17,41l0 0 1 2 1 2c-46,347 -27,202 -65,501 -106,-101 -370,-352 -400,-334 -34,20 99,440 131,545 -513,80 -481,-16 -71,413l0 0c-183,-228 -98,-125 -271,-329 87,-11 367,-47 376,-53 23,-15 -61,-320 -105,-475 115,112 341,330 371,319 27,-10 65,-290 83,-469 159,413 59,352 519,227 -45,91 -139,280 -139,289 -1,35 266,91 376,114 -79,39 -84,99 -331,313z"/>
  <path class="fil11 str1" d="M7812 2817c-42,-40 -83,-80 -116,-75 -33,5 -58,54 -89,89 -31,35 -69,56 -104,40 -35,-16 -67,-69 -111,-55 -44,14 -98,96 -121,42 -23,-54 -13,-243 -67,-306 -54,-62 -171,2 -196,110 -25,108 44,259 21,314 -23,55 -136,13 -223,-37 -87,-50 -148,-109 -177,-96 -29,13 -27,98 -54,81 -26,-17 -81,-136 -136,-163 -55,-26 -110,40 -152,112 -43,72 -73,150 -102,119 -29,-30 -58,-168 -101,-231 -44,-62 -102,-49 -115,17 -12,66 22,185 17,243 -5,58 -48,54 -77,34 -28,-20 -42,-56 -55,-92"/>
  <path class="fil11 str1" d="M7621 3564c-40,-40 -80,-79 -126,-54 -46,26 -99,116 -157,111 -58,-6 -120,-108 -169,-144 -49,-36 -85,-6 -122,39 -37,44 -75,103 -92,69 -17,-34 -13,-161 -60,-200 -46,-39 -143,10 -196,86 -53,76 -62,178 -114,168 -51,-10 -144,-133 -204,-161 -61,-27 -89,41 -97,46 -9,6 3,-51 -18,-56 -21,-5 -74,43 -83,89 -9,46 25,92 18,108 -7,16 -54,3 -88,-18 -34,-21 -55,-49 -76,-78"/>
  <path class="fil7" d="M3326 11714c-64,67 -50,178 -83,255 -33,78 -112,122 -200,174 -88,51 -184,109 -216,178 -33,68 -2,147 98,190 101,42 271,47 442,3 171,-45 342,-140 445,-223 103,-83 138,-154 146,-237 8,-83 -12,-176 -29,-254 -18,-78 -33,-139 -75,-170 -42,-31 -110,-31 -215,-19 -105,12 -248,36 -312,103z"/>
  <path class="fil7" d="M5101 11580c-75,46 -129,144 -158,245 -29,101 -34,207 4,299 37,92 117,171 212,242 95,71 205,134 314,155 109,21 216,0 280,-34 63,-34 82,-82 83,-136 1,-54 -15,-115 -42,-170 -27,-55 -64,-105 -95,-150 -30,-45 -54,-84 -59,-125 -5,-41 9,-83 14,-127 5,-45 0,-92 -49,-132 -49,-40 -143,-71 -237,-90 -95,-18 -191,-24 -266,22z"/>
  <path class="fil5" d="M3376 8913c-220,76 -413,181 -545,304 -132,123 -202,265 -228,460 -26,195 -7,442 66,751 73,308 199,677 283,930 84,253 126,390 213,466 87,76 218,92 365,79 147,-13 311,-55 395,-119 84,-63 89,-147 33,-406 -56,-258 -173,-690 -220,-966 -47,-277 -23,-398 77,-485 101,-87 278,-140 461,-184 183,-45 370,-82 508,-90 138,-8 227,13 304,92 77,79 143,216 171,356 28,140 19,282 -14,463 -33,182 -89,403 -140,595 -51,192 -98,356 -103,463 -5,108 33,161 131,192 98,32 257,42 370,29 112,-13 178,-50 269,-208 91,-158 208,-437 309,-677 101,-240 185,-440 246,-645 61,-205 98,-416 84,-587 -14,-171 -80,-303 -198,-453 -118,-150 -289,-319 -455,-429 -166,-111 -328,-163 -528,-192 -200,-29 -439,-34 -635,-16 -197,18 -351,61 -552,106 -201,45 -448,94 -668,170z"/>
  <path class="fil5" d="M9843 10596c10,244 49,616 80,883 31,266 54,425 62,556 8,130 0,231 -17,315 -17,84 -43,152 -40,199 3,47 34,73 89,61 56,-12 136,-61 196,-131 60,-70 98,-162 126,-275 27,-114 43,-250 52,-423 9,-173 12,-384 16,-572 4,-188 9,-352 -4,-492 -13,-141 -44,-258 -89,-374 -45,-116 -105,-231 -181,-267 -76,-36 -170,6 -225,84 -56,79 -74,193 -63,437z"/>
  <path class="fil5" d="M10892 10450c-26,308 31,887 86,1253 54,366 106,518 171,632 65,114 142,189 199,230 57,41 93,48 106,9 13,-39 3,-123 -13,-241 -16,-118 -36,-271 -44,-441 -8,-170 -3,-357 14,-571 17,-213 45,-452 38,-642 -8,-190 -52,-331 -110,-424 -58,-94 -131,-141 -222,-145 -91,-5 -199,33 -225,341z"/>
  <path class="fil9" d="M9738 7241c40,148 84,295 94,465 10,170 -13,362 -67,541 -54,179 -138,346 -226,521 -88,176 -180,361 -238,463 -58,102 -81,121 -106,213 -25,93 -51,259 -63,472 -13,213 -13,473 -3,645 10,171 31,253 161,299 129,46 368,56 732,61 364,6 854,7 1176,4 321,-4 474,-13 585,-68 111,-55 181,-156 223,-276 41,-121 54,-261 65,-400 10,-138 18,-274 -6,-410 -25,-136 -82,-272 -145,-391 -64,-119 -134,-222 -209,-302 -75,-80 -155,-137 -213,-218 -58,-81 -95,-186 -121,-281 -26,-95 -42,-179 -52,-292 -10,-113 -16,-253 -10,-372 5,-118 21,-214 31,-297 10,-82 16,-150 50,-290 35,-140 99,-352 87,-487 -13,-135 -102,-192 -229,-245 -127,-53 -291,-101 -445,-123 -154,-22 -299,-18 -438,-4 -139,14 -273,38 -396,94 -123,56 -235,144 -273,262 -38,118 -3,266 37,413z"/>
  <path class="fil5" d="M10870 6101c-17,59 -24,118 -13,169 11,51 41,93 104,140 63,47 161,97 175,163 15,66 -53,146 -165,213 -112,67 -269,121 -413,129 -144,9 -275,-28 -380,-91 -105,-64 -184,-154 -179,-217 5,-63 94,-97 175,-142 81,-44 155,-98 202,-150 46,-52 65,-102 54,-143 -11,-40 -52,-71 -128,-110 -76,-39 -187,-85 -284,-172 -96,-87 -177,-215 -217,-356 -39,-141 -37,-294 -26,-388 10,-94 29,-129 7,-142 -22,-13 -85,-6 -115,-13 -30,-8 -26,-31 -15,-79 11,-48 30,-121 59,-191 30,-69 70,-135 115,-191 44,-56 93,-102 161,-143 68,-40 157,-75 235,-88 78,-13 144,-3 189,25 44,28 67,74 100,80 33,6 78,-29 149,-49 71,-20 170,-27 262,-4 92,23 179,75 260,148 81,72 157,165 209,288 52,123 80,277 82,404 2,126 -23,224 -26,314 -3,90 15,170 51,186 35,15 87,-35 102,-37 15,-2 -7,44 -44,104 -37,60 -89,133 -144,173 -56,40 -115,48 -181,45 -67,-3 -141,-16 -191,-27 -50,-11 -76,-18 -102,7 -26,25 -52,83 -68,142z"/>
  <path class="fil5" d="M9775 6688c-61,28 -164,110 -266,246 -101,135 -200,324 -285,541 -85,217 -157,461 -188,665 -32,204 -23,369 13,496 36,127 100,217 178,289 78,72 172,126 269,163 98,37 200,57 284,68 84,10 151,10 232,28 82,18 178,54 246,55 68,1 107,-33 118,-80 11,-47 -6,-106 -84,-163 -78,-56 -216,-109 -317,-138 -101,-29 -165,-35 -231,-47 -66,-12 -134,-31 -186,-101 -52,-69 -87,-189 -99,-337 -12,-147 -2,-323 59,-488 61,-165 172,-320 241,-437 69,-117 95,-196 112,-275 17,-80 24,-160 23,-237 -2,-77 -12,-149 -26,-199 -15,-50 -33,-76 -94,-48z"/>
  <path class="fil5" d="M11407 8882c-74,17 -186,16 -275,26 -90,10 -157,31 -216,65 -59,34 -110,80 -130,121 -19,40 -7,75 40,100 47,25 129,40 249,36 119,-4 275,-27 402,-51 126,-25 223,-51 306,-108 83,-57 153,-146 203,-289 50,-143 79,-340 83,-543 4,-202 -17,-410 -59,-601 -43,-192 -108,-367 -181,-510 -73,-143 -155,-253 -232,-327 -76,-74 -147,-112 -200,-95 -53,17 -88,88 -112,170 -24,82 -37,175 -17,272 20,98 74,200 136,306 62,105 133,214 185,327 52,113 84,232 99,353 15,121 12,246 -13,356 -25,111 -72,208 -114,274 -42,66 -78,101 -152,118z"/>
  <path class="fil6" d="M10495 5509c-11,37 -26,89 -62,129 -37,40 -95,69 -141,78 -46,9 -81,-2 -127,-25 -47,-23 -105,-58 -145,-93 -40,-34 -60,-68 -58,-57 1,11 24,66 55,124 32,57 72,116 123,162 51,46 113,79 169,89 56,11 105,0 141,-34 36,-34 58,-92 70,-163 13,-71 16,-155 14,-205 -2,-50 -10,-66 -16,-63 -7,3 -13,24 -23,60z"/>
 </g>
</svg>
