<svg width="274" height="274" viewBox="0 0 274 274" fill="none" xmlns="http://www.w3.org/2000/svg">
<path d="M234.729 93.5C234.729 139.602 241.724 235.5 191.504 235.5C141.284 235.5 16 199.328 16 153.227C16 107.125 40.5086 22 90.7287 22C140.949 22 234.729 47.3983 234.729 93.5Z" fill="#3B9EA2"/>
<path d="M183.604 154.194C188.645 150.469 195.724 154.872 194.471 160.953L180.403 229.262C179.452 233.881 174.087 236.118 170.023 233.591L127.476 207.127C123.412 204.6 123.16 198.87 126.988 196.04L183.604 154.194Z" fill="#A98838"/>
<path d="M131.384 124.892C135.948 120.597 143.498 124.131 142.974 130.318L137.086 199.812C136.688 204.511 131.625 207.367 127.291 205.338L81.9117 184.094C77.5774 182.064 76.6494 176.404 80.116 173.142L131.384 124.892Z" fill="#A98838"/>
<path d="M72.3839 105.892C76.9483 101.597 84.4983 105.131 83.9741 111.318L78.0857 180.812C77.6875 185.511 72.6255 188.367 68.2912 186.338L22.9117 165.094C18.5774 163.064 17.6494 157.404 21.116 154.142L72.3839 105.892Z" fill="#A98838"/>
<path d="M49.2217 100.212C54.3801 90.6942 68.8769 95.0176 67.9791 105.806L61.1622 187.731C60.5821 194.702 53.2077 198.938 46.8934 195.928L17.0271 181.691C11.8581 179.227 9.8099 172.934 12.5384 167.899L49.2217 100.212Z" fill="#FFCE55"/>
<path d="M106.114 101.979C112.763 95.6065 123.762 100.85 122.998 110.028L114.42 213.119C113.84 220.09 106.466 224.327 100.151 221.317L34.0423 189.802C27.728 186.792 26.376 178.395 31.4263 173.555L106.114 101.979Z" fill="#FFCE55"/>
<path d="M196.651 168.07C204.497 160.551 217.015 169.18 212.779 179.188L183.104 249.291C180.883 254.538 174.735 256.872 169.592 254.42L140.558 240.579C134.244 237.569 132.892 229.173 137.942 224.333L196.651 168.07Z" fill="#FFCE55"/>
<path d="M159.372 127.368C166.021 120.995 177.02 126.238 176.257 135.417L167.678 238.508C167.098 245.479 159.724 249.716 153.41 246.706L87.3003 215.191C80.9861 212.181 79.6341 203.784 84.6844 198.944L159.372 127.368Z" fill="#FFCE55"/>
<circle cx="84.0439" cy="165.5" r="11.5" fill="#ED5966"/>
<circle cx="42.0439" cy="147.5" r="11.5" fill="#ED5966"/>
<circle cx="182.044" cy="211.5" r="11.5" fill="#ED5966"/>
<circle cx="138.044" cy="188.5" r="11.5" fill="#ED5966"/>
<path d="M169.228 108.561C158.094 113.74 151.047 122.48 146.967 120.818C146.862 117.554 157.325 112.735 165.304 103.436C174.234 96.5987 178.835 87.6108 183.088 93.165C187.34 98.7193 178.158 101.724 169.228 108.561Z" fill="#A60000"/>
<path d="M205.228 100.561C194.094 105.74 187.047 114.48 182.967 112.818C182.862 109.554 193.325 104.735 201.304 95.4355C210.234 88.5987 214.835 79.6108 219.088 85.165C223.34 90.7193 214.158 93.7244 205.228 100.561Z" fill="#A60000"/>
<path d="M118.972 63.3552C117.308 75.521 120.849 86.1756 117.244 88.7086C114.442 87.0319 116.046 75.6248 112.539 63.8842C111.617 52.6753 106.545 43.9443 113.517 43.371C120.488 42.7978 118.051 52.1463 118.972 63.3552Z" fill="#A60000"/>
<path d="M134.356 87.3721C131.688 99.3579 134.332 110.269 130.53 112.495C127.876 110.591 130.421 99.3565 127.901 87.3654C127.912 76.1187 123.582 66.9969 130.578 67.0042C137.573 67.0115 134.368 76.1254 134.356 87.3721Z" fill="#A60000"/>
<path d="M170.616 77.4947C164.268 90.4055 154.515 98.6069 148.833 95.8131C143.151 93.0192 143.69 80.288 150.038 67.3772C156.385 54.4663 166.138 46.2649 171.82 49.0588C177.503 51.8526 176.964 64.5838 170.616 77.4947Z" fill="#FFCE55" fill-opacity="0.898039"/>
<path d="M153.974 59.3713L174.552 69.4888L159.122 100.872L138.544 90.7543L153.974 59.3713Z" fill="#5A5A5A"/>
<path d="M153.974 59.3713L160.833 62.7438L145.403 94.1268L138.544 90.7543L153.974 59.3713Z" fill="#D9D9D9"/>
<path d="M160.833 62.7438L167.693 66.1163L152.263 97.4993L145.403 94.1268L160.833 62.7438Z" fill="#929292"/>
<path d="M155.773 62.6417L157.831 63.6534L146.18 87.3508L144.122 86.3391L155.773 62.6417Z" fill="#FDFDFD"/>
<path d="M169.161 50.137C172.051 51.5582 164.483 56.1875 164.483 56.1875L157.662 58.7989C157.662 58.7989 166.27 48.7159 169.161 50.137Z" fill="white"/>
<ellipse cx="131.044" cy="51.5" rx="5.5" ry="7.5" fill="#A60000"/>
<ellipse cx="101.044" cy="82.5" rx="5.5" ry="7.5" fill="#A60000"/>
<ellipse cx="228.698" cy="75.2246" rx="5.5" ry="7.5" transform="rotate(43.5794 228.698 75.2246)" fill="#A60000"/>
<path d="M113.706 102.417C115.586 104.309 89.9708 131.513 81.4473 137.154C72.9237 142.796 78.7764 134.467 78.7764 134.467C78.7764 134.467 111.826 100.526 113.706 102.417Z" fill="white"/>
<path d="M55.1962 99.8977C57.099 101.096 49.1689 115.643 45.3718 118.496C41.5748 121.349 42.6691 116.794 42.6691 116.794C42.6691 116.794 53.2934 98.6995 55.1962 99.8977Z" fill="white"/>
<path d="M51.317 145.267C51.635 146.474 49.8072 151.458 47.124 154.022C44.9719 156.079 42.1001 155.98 40.6147 155.618C37.2772 154.804 40.7253 153.327 40.7253 153.327C40.7253 153.327 43.4403 152.6 45.7602 150.492C48.5297 147.975 51.0052 144.084 51.317 145.267Z" fill="#A60000"/>
<path d="M93.3171 163.267C93.635 164.474 91.8072 169.458 89.124 172.022C86.9719 174.079 84.1002 173.98 82.6147 173.618C79.2773 172.804 82.7253 171.327 82.7253 171.327C82.7253 171.327 85.4404 170.6 87.7603 168.492C90.5297 165.975 93.0052 162.084 93.3171 163.267Z" fill="#A60000"/>
<path d="M147.317 186.267C147.635 187.474 145.807 192.458 143.124 195.022C140.972 197.079 138.1 196.98 136.615 196.618C133.277 195.804 136.725 194.327 136.725 194.327C136.725 194.327 139.44 193.6 141.76 191.492C144.53 188.975 147.005 185.084 147.317 186.267Z" fill="#A60000"/>
<path d="M191.317 209.267C191.635 210.474 189.807 215.458 187.124 218.022C184.972 220.079 182.1 219.98 180.615 219.618C177.277 218.804 180.725 217.327 180.725 217.327C180.725 217.327 183.44 216.6 185.76 214.492C188.53 211.975 191.005 208.084 191.317 209.267Z" fill="#A60000"/>
<path d="M45.838 139.349C44.9739 138.686 40.1106 138.784 36.8904 140.408C34.3077 141.71 33.206 144.333 32.8926 145.787C32.1883 149.052 34.8277 146.4 34.8277 146.4C34.8277 146.4 36.5452 144.176 39.2397 142.738C42.4564 141.022 46.6853 139.999 45.838 139.349Z" fill="white"/>
<path d="M87.838 157.349C86.9739 156.686 82.1106 156.784 78.8904 158.408C76.3077 159.71 75.206 162.333 74.8926 163.787C74.1883 167.052 76.8277 164.4 76.8277 164.4C76.8277 164.4 78.5452 162.176 81.2397 160.738C84.4564 159.022 88.6853 157.999 87.838 157.349Z" fill="white"/>
<path d="M141.838 180.349C140.974 179.686 136.111 179.784 132.89 181.408C130.308 182.71 129.206 185.333 128.893 186.787C128.188 190.052 130.828 187.4 130.828 187.4C130.828 187.4 132.545 185.176 135.24 183.738C138.456 182.022 142.685 180.999 141.838 180.349Z" fill="white"/>
<path d="M185.838 203.349C184.974 202.686 180.111 202.784 176.89 204.408C174.308 205.71 173.206 208.333 172.893 209.787C172.188 213.052 174.828 210.4 174.828 210.4C174.828 210.4 176.545 208.176 179.24 206.738C182.456 205.022 186.685 203.999 185.838 203.349Z" fill="white"/>
<path d="M203.005 168.195C204.59 169.79 193.597 182.185 189.256 184.113C184.916 186.041 187.005 181.848 187.005 181.848C187.005 181.848 201.42 166.6 203.005 168.195Z" fill="white"/>
<path d="M165.706 128.417C167.587 130.309 141.971 157.513 133.447 163.154C124.924 168.796 130.776 160.467 130.776 160.467C130.776 160.467 163.826 126.526 165.706 128.417Z" fill="white"/>
<ellipse cx="94.6771" cy="214.222" rx="11.9151" ry="93.7155" transform="rotate(-64.4252 94.6771 214.222)" fill="#A98838"/>
</svg>
