<?xml version="1.0" encoding="UTF-8"?>
<!DOCTYPE svg PUBLIC "-//W3C//DTD SVG 1.1//EN" "http://www.w3.org/Graphics/SVG/1.1/DTD/svg11.dtd">
<!-- Creator: CorelDRAW 2017 -->
<svg xmlns="http://www.w3.org/2000/svg" xml:space="preserve" width="143mm" height="143mm" version="1.1" style="shape-rendering:geometricPrecision; text-rendering:geometricPrecision; image-rendering:optimizeQuality; fill-rule:evenodd; clip-rule:evenodd"
viewBox="0 0 14300 14300"
 xmlns:xlink="http://www.w3.org/1999/xlink">
 <defs>
  <style type="text/css">
   <![CDATA[
    .fil6 {fill:black}
    .fil7 {fill:#0069E1}
    .fil4 {fill:#1A1A1A}
    .fil1 {fill:#4D4D4D}
    .fil2 {fill:gray}
    .fil9 {fill:#D65036}
    .fil3 {fill:#EDBF42}
    .fil8 {fill:#FF9933}
    .fil0 {fill:#FFE77B}
    .fil5 {fill:white}
   ]]>
  </style>
 </defs>
 <g id="Слой_x0020_1">
  <metadata id="CorelCorpID_0Corel-Layer"/>
  <g id="_1499522663776">
   <path class="fil0" d="M7549 1676c88,37 166,96 234,185 69,89 129,206 154,321 25,115 15,227 -19,320 -34,93 -91,167 -155,228 -65,61 -138,109 -191,130 -53,21 -87,16 -108,32 -21,16 -29,53 -36,102 -7,49 -13,110 -19,159 -6,48 -12,84 -73,95 -61,11 -178,-3 -271,-24 -93,-20 -162,-47 -189,-99 -27,-52 -12,-130 -2,-186 10,-56 16,-91 14,-119 -2,-28 -12,-49 -43,-74 -31,-25 -85,-54 -129,-121 -44,-67 -79,-171 -91,-270 -13,-99 -3,-193 23,-286 26,-93 68,-184 140,-258 71,-74 171,-130 255,-160 84,-30 153,-35 237,-31 84,5 182,19 270,56z"/>
   <path class="fil1" d="M7309 3384c-5,26 -19,75 -40,114 -20,39 -47,69 -91,79 -44,10 -105,0 -153,-24 -48,-24 -83,-61 -102,-102 -19,-41 -23,-86 -24,-116 -1,-30 2,-45 49,-44 47,0 140,16 207,29 67,12 107,22 130,28 23,6 28,10 23,36z"/>
   <path class="fil2" d="M7184 3032c74,15 154,28 207,39 53,10 79,17 92,43 13,26 11,70 8,123 -4,53 -10,114 -26,152 -17,38 -45,53 -117,48 -72,-5 -189,-29 -295,-47 -105,-18 -199,-29 -244,-75 -45,-46 -42,-125 -35,-189 7,-64 19,-112 54,-132 34,-21 91,-14 154,-3 62,11 130,27 204,42z"/>
   <path class="fil3" d="M7395 1916c-24,54 -91,174 -110,232 -19,58 11,55 64,62 53,7 128,25 153,53 24,28 -2,66 -70,139 -68,73 -177,181 -237,240 -60,59 -69,68 -53,25 16,-44 57,-140 86,-200 28,-60 44,-82 23,-100 -20,-18 -77,-31 -117,-44 -40,-13 -65,-26 -76,-43 -11,-17 -10,-38 26,-88 36,-49 107,-127 162,-183 55,-56 94,-89 124,-112 30,-23 50,-36 27,18z"/>
   <path class="fil4" d="M8249 2377c46,-14 133,-25 239,-19 106,6 233,29 304,48 72,19 90,33 69,48 -21,15 -80,30 -151,34 -71,3 -154,-5 -242,-17 -88,-12 -182,-27 -227,-44 -44,-17 -39,-35 7,-50z"/>
   <path class="fil4" d="M5865 1645c48,3 133,25 232,70 100,45 214,114 277,158 63,44 74,65 49,71 -25,7 -85,-1 -155,-24 -70,-23 -149,-63 -230,-107 -81,-44 -163,-92 -198,-124 -35,-32 -23,-47 25,-44z"/>
   <path class="fil4" d="M7015 500c22,43 48,126 61,249 13,123 13,285 8,376 -5,91 -17,111 -35,93 -18,-18 -44,-73 -60,-159 -16,-86 -23,-203 -27,-309 -4,-106 -6,-201 3,-248 9,-47 28,-44 50,-2z"/>
   <path class="fil4" d="M8645 1112c-26,41 -85,105 -185,178 -100,73 -240,155 -321,196 -82,41 -105,41 -98,16 6,-25 41,-75 108,-132 66,-57 164,-122 254,-179 90,-57 171,-106 216,-122 45,-16 53,2 27,43z"/>
   <path class="fil5" d="M7537 1742c-19,-14 -94,-40 -184,-49 -91,-10 -196,-4 -283,20 -87,24 -155,67 -212,127 -57,60 -104,138 -132,218 -28,79 -36,160 -29,244 7,84 30,171 61,230 31,59 69,91 83,59 14,-32 2,-129 19,-230 17,-101 61,-207 123,-298 62,-91 141,-167 211,-213 70,-46 131,-60 177,-69 46,-9 78,-12 112,-15 35,-3 73,-7 54,-22z"/>
  </g>
  <path class="fil6" d="M7469 10019c275,-103 348,-207 382,-269 34,-62 27,-84 7,-100 -21,-17 -57,-29 -99,-44 -42,-15 -90,-34 -162,-82 -73,-48 -170,-125 -277,-261 -107,-137 -223,-333 -279,-492 -56,-159 -52,-279 -41,-380 11,-100 28,-180 80,-243 52,-63 140,-108 239,-186 99,-78 209,-188 314,-356 105,-168 205,-393 272,-647 67,-254 101,-535 84,-836 -17,-301 -86,-621 -193,-855 -107,-234 -251,-381 -467,-513 -215,-131 -502,-246 -817,-266 -315,-21 -660,52 -922,301 -263,249 -443,674 -544,1032 -101,358 -121,648 -102,888 20,241 80,432 158,614 79,182 176,355 274,469 98,114 197,168 236,229 40,61 20,128 5,229 -15,101 -27,235 -93,379 -66,143 -188,295 -308,390 -120,95 -238,132 -345,151 -107,19 -203,20 -269,17 -66,-3 -101,-10 -129,14 -28,23 -49,77 12,188 61,111 202,278 508,445 306,166 776,331 1250,362 473,31 950,-72 1225,-176z"/>
  <path class="fil7" d="M8604 11465c379,102 1092,226 1496,344 405,118 501,229 506,345 5,117 -82,239 -73,321 9,82 114,123 258,173 144,50 326,109 430,208 104,100 129,240 46,339 -83,99 -275,157 -695,178 -420,21 -1069,6 -2003,-63 -934,-69 -2152,-191 -3064,-321 -911,-130 -1516,-269 -1957,-427 -442,-158 -720,-336 -922,-492 -202,-156 -326,-291 -303,-400 23,-108 194,-190 396,-216 202,-26 434,2 724,33 290,30 639,63 1100,93 462,30 1037,59 1527,33 490,-26 895,-107 1121,-216 226,-109 273,-247 400,-285 127,-37 334,26 461,97 127,72 172,152 551,254z"/>
  <path class="fil6" d="M7789 10099c-22,88 -129,217 -147,514 -18,297 54,763 97,1021 43,258 58,308 73,356 15,48 30,95 -43,145 -73,50 -233,102 -483,125 -249,23 -588,15 -943,-6 -355,-22 -728,-57 -1048,-124 -321,-67 -591,-166 -732,-233 -141,-68 -154,-105 -144,-305 10,-201 41,-565 68,-801 27,-235 48,-342 84,-472 35,-130 85,-284 110,-401 26,-116 27,-194 91,-253 64,-58 190,-97 392,-134 202,-37 481,-72 754,-85 273,-13 541,-3 784,49 243,52 460,148 620,225 159,78 260,137 343,191 82,53 146,101 124,189z"/>
  <path class="fil6" d="M7468 9429c55,31 131,86 197,125 66,39 123,60 193,90 69,29 151,66 232,138 81,72 161,180 225,331 64,151 112,344 140,534 28,190 35,377 36,483 1,106 -5,133 -28,164 -23,31 -63,67 -207,86 -144,19 -391,21 -617,15 -226,-5 -430,-18 -567,-26 -136,-8 -204,-12 -256,-16 -52,-3 -88,-5 8,-87 96,-82 322,-244 440,-383 117,-139 125,-255 135,-390 9,-135 20,-288 36,-406 16,-118 36,-200 14,-287 -22,-87 -85,-179 -122,-239 -37,-60 -48,-88 -40,-112 7,-24 33,-45 63,-52 30,-7 65,0 120,32z"/>
  <path class="fil5" d="M5552 7064c51,50 124,122 241,170 118,49 280,74 400,74 120,0 198,-26 297,-72 99,-47 220,-115 294,-176 74,-61 101,-116 105,-100 4,16 -14,103 -53,196 -39,92 -98,189 -194,270 -95,81 -226,146 -357,178 -130,32 -260,30 -372,-11 -112,-40 -205,-118 -284,-218 -79,-100 -145,-221 -174,-295 -29,-73 -21,-99 -3,-97 18,2 47,31 98,81z"/>
  <path class="fil6" d="M2932 5685c-26,20 -42,61 -20,158 22,96 82,247 127,395 45,148 74,292 76,392 2,100 -22,156 -55,219 -33,63 -75,134 -121,229 -47,94 -98,212 -175,375 -77,163 -179,371 -217,548 -39,177 -14,322 47,423 61,101 158,156 282,151 125,-5 277,-71 370,-163 93,-91 128,-208 169,-317 41,-110 89,-213 118,-286 28,-73 37,-115 89,-171 52,-56 147,-125 228,-160 81,-35 149,-35 228,-59 79,-25 168,-74 235,-144 66,-70 110,-162 143,-247 34,-86 58,-165 79,-225 22,-60 41,-99 47,-131 7,-32 0,-57 -40,-63 -40,-7 -114,5 -164,51 -50,45 -75,124 -106,189 -30,66 -66,119 -109,147 -43,28 -94,32 -144,31 -49,-1 -97,-7 -132,-33 -35,-26 -58,-71 -66,-118 -8,-48 -1,-98 10,-151 11,-53 25,-110 74,-164 48,-54 131,-105 185,-131 54,-26 78,-26 118,7 39,33 93,98 127,136 34,38 50,48 66,49 16,1 33,-6 48,-21 15,-14 28,-35 20,-68 -8,-32 -38,-77 -81,-133 -43,-57 -98,-126 -143,-165 -45,-39 -79,-48 -152,-30 -73,18 -184,64 -237,54 -53,-10 -48,-74 -33,-132 15,-58 41,-110 106,-180 65,-71 169,-160 235,-216 66,-55 95,-75 107,-100 12,-24 6,-52 -11,-75 -18,-23 -47,-41 -117,-14 -69,27 -178,99 -268,172 -91,73 -163,146 -205,208 -42,62 -53,114 -64,163 -11,48 -22,93 -37,117 -16,24 -36,28 -42,-35 -6,-63 4,-192 9,-278 5,-87 6,-131 30,-194 23,-63 69,-146 89,-199 20,-53 14,-77 -4,-92 -18,-15 -48,-21 -75,-16 -27,5 -51,21 -88,73 -38,52 -90,139 -120,212 -30,74 -38,135 -46,200 -8,66 -15,137 -18,217 -4,80 -4,169 -11,191 -7,21 -21,-25 -58,-127 -37,-101 -96,-258 -135,-348 -38,-90 -55,-114 -81,-127 -26,-13 -60,-14 -86,5z"/>
  <path class="fil6" d="M3326 8370c-44,124 -82,225 -112,308 -30,83 -52,148 -50,196 1,48 26,78 121,121 95,43 261,97 471,123 210,26 465,23 689,18 224,-5 417,-12 540,-31 123,-20 178,-52 234,-98 56,-46 115,-105 173,-131 58,-25 115,-17 173,86 58,103 117,299 109,522 -8,223 -82,473 -192,625 -110,152 -255,208 -378,340 -123,133 -222,343 -290,437 -67,95 -103,74 -134,53 -32,-21 -60,-42 -85,-64 -24,-21 -45,-43 -73,-79 -28,-37 -64,-89 -235,-192 -171,-103 -478,-255 -772,-388 -294,-133 -574,-245 -786,-358 -212,-113 -354,-225 -452,-313 -97,-88 -149,-152 -163,-265 -14,-113 10,-276 67,-455 57,-180 147,-376 234,-574 87,-198 171,-399 251,-579 79,-180 154,-341 244,-415 90,-74 195,-62 302,-13 107,49 216,136 287,205 71,69 104,122 114,154 11,33 -1,45 -16,67 -15,21 -33,51 -55,99 -21,48 -46,115 -84,222 -38,107 -89,255 -134,379z"/>
  <path class="fil8" d="M6008 4028c145,-29 316,-41 485,-40 169,1 335,14 484,46 149,31 281,81 441,160 159,79 346,188 480,306 134,118 217,245 269,395 53,150 76,324 70,488 -6,163 -41,316 -56,401 -14,85 -8,102 19,119 27,18 75,36 107,69 32,33 47,80 35,122 -13,42 -53,80 -214,79 -160,-1 -441,-40 -940,-132 -499,-92 -1216,-237 -1625,-341 -409,-104 -511,-168 -575,-222 -64,-54 -90,-98 -80,-131 10,-34 56,-57 99,-66 43,-9 82,-3 109,-51 28,-48 44,-150 93,-303 49,-152 131,-355 206,-493 75,-138 143,-210 236,-270 93,-60 211,-107 356,-136z"/>
  <path class="fil9" d="M6696 3883c42,-26 110,-49 185,-47 75,1 158,26 214,60 56,34 85,76 99,111 13,35 11,64 -14,130 -25,67 -73,172 -133,265 -60,94 -131,175 -186,207 -55,31 -94,12 -126,-38 -32,-51 -58,-133 -79,-223 -20,-90 -35,-189 -40,-253 -5,-64 0,-94 11,-124 11,-30 27,-61 69,-87z"/>
  <path class="fil9" d="M5954 3930c15,21 35,59 65,119 30,60 70,141 86,226 17,85 10,173 -2,228 -11,55 -27,76 -49,74 -22,-2 -51,-27 -93,-86 -42,-60 -97,-154 -139,-231 -42,-77 -72,-136 -87,-177 -15,-42 -17,-66 5,-89 21,-23 65,-45 98,-59 33,-15 56,-22 73,-24 17,-3 28,0 43,20z"/>
  <path class="fil9" d="M7887 4339c31,11 70,31 97,53 26,22 39,45 35,75 -4,30 -26,66 -81,113 -56,47 -146,106 -212,157 -67,51 -110,95 -142,117 -33,22 -55,21 -70,8 -14,-14 -20,-41 -15,-84 4,-42 19,-100 61,-169 43,-69 113,-149 161,-198 47,-49 71,-67 94,-75 22,-8 44,-7 74,3z"/>
  <path class="fil9" d="M7636 5732c-61,-39 -187,-108 -387,-181 -199,-73 -470,-150 -677,-195 -206,-45 -347,-57 -488,-60 -141,-3 -282,4 -374,12 -91,8 -132,17 -129,27 3,10 50,21 174,37 124,16 325,38 510,64 185,26 354,55 544,98 190,43 401,100 539,139 137,39 201,61 245,77 44,16 68,27 83,28 15,1 21,-8 -40,-47z"/>
  <path class="fil6" d="M9360 8337c-1,126 3,148 6,172 3,24 6,50 -15,126 -21,76 -65,201 -131,509 -66,308 -153,800 -319,939 -166,140 -412,-72 -616,-210 -204,-138 -365,-202 -526,-266 -115,594 -229,1188 -344,1782 712,196 1423,393 1833,330 410,-62 518,-384 593,-827 75,-443 117,-1008 157,-1366 40,-358 78,-510 115,-607 37,-97 73,-140 108,-180 34,-40 67,-77 116,-144 49,-66 114,-161 168,-265 54,-104 96,-215 122,-307 27,-91 39,-162 38,-219 -1,-57 -14,-101 -33,-137 -19,-36 -44,-63 -71,-79 -26,-16 -54,-21 -71,-20 -17,1 -22,6 -35,21 -12,15 -31,38 -37,37 -5,-1 3,-26 5,-57 2,-31 -3,-67 -12,-91 -9,-25 -24,-39 -46,-56 -22,-17 -52,-38 -82,-50 -30,-11 -60,-13 -86,4 -26,16 -48,51 -53,49 -5,-2 9,-39 10,-71 2,-31 -7,-56 -26,-74 -19,-18 -49,-31 -81,-38 -32,-7 -67,-9 -93,-4 -26,5 -42,16 -54,5 -12,-10 -18,-41 -45,-65 -27,-24 -75,-42 -122,-45 -47,-3 -93,10 -130,54 -37,44 -66,120 -103,219 -38,99 -84,220 -110,396 -26,176 -30,407 -31,533z"/>
  <path class="fil8" d="M7111 12168c31,-161 -4,-480 11,-831 15,-352 80,-736 134,-1018 54,-282 97,-462 147,-583 50,-121 107,-183 127,-222 20,-40 2,-57 -31,-89 -33,-32 -81,-80 -126,-137 -45,-57 -86,-125 -121,-170 -34,-45 -62,-68 -87,-19 -25,49 -48,169 -106,382 -58,213 -150,520 -210,738 -60,219 -87,349 -134,402 -47,52 -114,26 -247,-4 -134,-31 -334,-66 -517,-85 -183,-19 -348,-23 -447,-27 -99,-4 -133,-8 -147,-121 -14,-113 -9,-336 14,-551 23,-215 63,-423 78,-597 15,-174 3,-315 -10,-375 -14,-60 -29,-39 -68,-8 -39,31 -101,71 -154,104 -53,33 -98,60 -125,76 -27,16 -37,22 -41,107 -4,85 -3,250 -42,555 -38,304 -116,748 -167,1116 -51,368 -76,660 -92,850 -15,190 -21,278 53,345 75,67 230,114 499,163 269,48 653,97 936,125 283,28 465,35 605,37 140,2 237,0 269,-160z"/>
  <path class="fil9" d="M5418 11098c94,12 259,48 444,78 185,30 389,55 507,66 118,11 150,9 162,25 12,16 3,51 -12,114 -15,63 -37,154 -62,227 -25,73 -52,127 -91,166 -39,39 -90,62 -157,73 -67,11 -149,9 -267,-5 -118,-13 -272,-38 -377,-61 -106,-22 -163,-42 -200,-88 -37,-46 -54,-118 -64,-206 -10,-88 -14,-192 -16,-258 -2,-66 -3,-93 7,-113 10,-20 32,-31 126,-19z"/>
  <path class="fil8" d="M11668 8887c20,-23 33,-44 26,-62 -7,-18 -34,-33 -113,-61 -79,-28 -210,-69 -287,-96 -77,-26 -98,-38 -86,-100 12,-62 59,-175 87,-240 28,-65 37,-83 50,-88 13,-5 31,4 114,44 83,40 231,111 314,141 83,30 102,19 112,-22 10,-41 10,-111 -22,-180 -33,-69 -99,-138 -172,-191 -74,-53 -155,-91 -248,-109 -93,-18 -196,-16 -290,-3 -94,13 -177,37 -305,22 -128,-14 -299,-67 -566,-182 -266,-115 -627,-291 -835,-393 -208,-102 -263,-129 -295,-164 -31,-35 -39,-77 -63,-131 -24,-54 -64,-119 -125,-167 -61,-48 -144,-80 -230,-91 -87,-12 -177,-4 -250,20 -72,24 -127,64 -155,97 -28,32 -30,57 -8,76 22,19 68,33 137,57 69,24 161,58 215,81 55,23 72,35 62,80 -11,45 -49,122 -79,180 -29,58 -49,96 -65,120 -17,24 -30,33 -58,23 -28,-10 -71,-40 -138,-83 -67,-43 -158,-99 -207,-122 -49,-23 -56,-13 -65,24 -9,37 -19,100 -2,164 17,64 61,128 116,181 54,53 119,94 188,127 70,34 145,60 218,64 73,4 145,-13 214,-32 69,-19 135,-40 254,-22 118,17 288,72 557,168 268,96 635,232 839,318 204,86 246,123 274,178 29,55 44,129 72,195 28,66 70,125 147,177 77,52 191,97 283,115 92,18 162,7 211,-4 49,-11 75,-22 102,-41 27,-19 54,-44 74,-68z"/>
  <path class="fil6" d="M10631 7864c-2,29 -18,68 -42,116 -24,48 -56,104 -91,135 -35,31 -72,35 -107,17 -35,-18 -68,-60 -75,-109 -7,-49 11,-106 17,-126 6,-20 -1,-3 -21,31 -21,35 -55,87 -95,114 -40,27 -84,28 -120,11 -36,-17 -64,-53 -70,-100 -6,-47 11,-104 22,-145 11,-40 16,-63 5,-55 -11,8 -38,47 -64,79 -26,31 -51,55 -83,61 -32,6 -70,-7 -91,-15 -21,-8 -24,-12 -38,-3 -14,9 -40,30 -58,70 -18,39 -29,96 -55,141 -27,44 -69,76 -121,71 -52,-5 -114,-47 -143,-93 -29,-46 -26,-97 -14,-175 11,-78 30,-183 49,-265 19,-82 39,-141 54,-182 14,-41 23,-63 44,-82 21,-19 54,-33 100,-32 45,2 102,20 188,57 86,37 201,92 290,143 89,51 152,99 215,131 63,33 125,51 172,72 48,21 81,43 103,64 22,21 34,39 32,68z"/>
 </g>
</svg>
