<?xml version="1.0" encoding="UTF-8"?>
<!DOCTYPE svg PUBLIC "-//W3C//DTD SVG 1.1//EN" "http://www.w3.org/Graphics/SVG/1.1/DTD/svg11.dtd">
<!-- Creator: CorelDRAW 2017 -->
<svg xmlns="http://www.w3.org/2000/svg" xml:space="preserve" width="143mm" height="143mm" version="1.1" style="shape-rendering:geometricPrecision; text-rendering:geometricPrecision; image-rendering:optimizeQuality; fill-rule:evenodd; clip-rule:evenodd"
viewBox="0 0 14300 14300"
 xmlns:xlink="http://www.w3.org/1999/xlink">
 <defs>
  <style type="text/css">
   <![CDATA[
    .fil1 {fill:black}
    .fil0 {fill:#A60000}
    .fil2 {fill:white}
    .fil3 {fill:white}
   ]]>
  </style>
 </defs>
 <g id="Слой_x0020_1">
  <metadata id="CorelCorpID_0Corel-Layer"/>
  <path class="fil0" d="M7186 11930c363,-33 905,-65 1438,-69 532,-4 1055,21 1287,70 233,49 176,123 187,185 11,62 88,111 261,127 173,16 441,0 728,-12 287,-12 594,-19 848,2 254,21 455,69 514,146 58,77 -26,184 -608,246 -582,62 -1662,78 -2286,78 -624,0 -794,-16 -804,41 -10,58 140,189 81,275 -59,86 -327,127 -920,136 -593,8 -1510,-16 -2021,-41 -512,-25 -617,-49 -670,-115 -53,-66 -53,-173 -207,-231 -154,-58 -461,-67 -941,-72 -480,-4 -1132,-3 -1514,-35 -383,-32 -495,-98 -505,-190 -10,-92 84,-211 289,-264 205,-53 520,-42 950,-47 430,-5 974,-27 1436,-26 461,1 840,23 1029,35 189,11 189,11 275,-14 85,-25 256,-76 433,-117 177,-42 359,-75 722,-108z"/>
  <path class="fil1" d="M7850 2981c136,123 240,316 269,533 28,217 -19,457 -110,647 -91,190 -225,329 -372,399 -147,70 -307,70 -402,106 -96,36 -127,109 -129,189 -2,80 25,168 41,288 16,121 21,274 -37,518 -58,244 -179,578 -346,932 -168,354 -383,727 -503,936 -120,209 -146,253 -101,373 44,120 158,316 263,493 104,177 199,335 272,550 73,215 123,487 149,781 25,294 25,610 -3,968 -28,357 -85,756 -101,968 -16,212 9,237 104,269 95,32 259,70 373,142 114,73 177,180 183,259 6,79 -44,130 -196,149 -152,19 -405,6 -629,-25 -224,-32 -418,-82 -522,-145 -104,-63 -116,-139 -113,-367 3,-228 22,-607 38,-898 16,-291 28,-493 25,-686 -3,-193 -22,-376 -67,-547 -45,-171 -116,-329 -215,-521 -99,-192 -225,-418 -317,-531 -92,-113 -149,-113 -148,84 1,197 60,592 96,884 36,292 48,482 23,646 -25,164 -89,304 -260,422 -172,118 -452,216 -820,375 -368,159 -823,381 -1086,507 -263,127 -332,158 -364,218 -32,60 -25,149 13,244 38,95 108,196 101,263 -6,66 -89,98 -199,92 -111,-6 -250,-51 -367,-164 -117,-114 -212,-297 -269,-462 -57,-164 -76,-310 -28,-440 47,-130 161,-244 430,-392 269,-149 693,-332 1053,-493 361,-161 658,-301 778,-490 120,-190 63,-430 -3,-721 -66,-291 -142,-633 -209,-879 -66,-247 -123,-399 -120,-588 3,-190 66,-418 177,-683 111,-266 269,-569 411,-860 142,-291 269,-569 354,-788 85,-218 130,-376 120,-481 -10,-104 -73,-155 -285,-256 -212,-101 -573,-253 -794,-386 -221,-133 -304,-247 -307,-370 -3,-123 73,-256 209,-414 136,-158 332,-342 522,-481 190,-139 373,-234 465,-329 92,-95 92,-190 117,-275 25,-85 76,-161 146,-215 70,-54 158,-85 244,-70 85,16 168,79 174,180 6,101 -63,240 -130,370 -66,130 -130,250 -246,380 -116,130 -285,271 -416,399 -130,127 -222,241 -208,321 14,80 134,126 265,176 130,50 271,104 400,149 129,46 246,84 376,127 130,43 272,90 402,121 130,31 249,46 325,25 76,-21 109,-76 136,-120 26,-44 45,-75 33,-135 -13,-60 -57,-149 -66,-316 -9,-168 16,-414 96,-612 81,-198 217,-346 365,-433 149,-87 310,-112 474,-98 164,14 332,68 468,191z"/>
  <path class="fil2" d="M8482 5584c-93,10 -244,17 -414,-45 -169,-62 -356,-191 -590,-354 -234,-163 -516,-359 -756,-560 -240,-201 -440,-406 -603,-615 -163,-209 -289,-421 -378,-595 -89,-174 -139,-310 -168,-435 -29,-125 -36,-238 -32,-322 4,-84 19,-139 -13,-171 -31,-32 -109,-41 -179,-14 -70,27 -134,90 -157,203 -24,112 -8,274 41,459 49,185 132,394 252,648 120,255 278,555 492,846 213,291 482,573 648,746 166,174 229,240 255,282 25,41 13,57 -101,161 -114,104 -329,297 -520,560 -191,263 -359,595 -478,871 -119,277 -188,498 -274,634 -85,136 -187,187 -468,267 -282,81 -743,191 -1075,312 -332,120 -535,250 -623,394 -89,144 -63,302 32,546 95,244 259,573 372,919 113,346 175,710 226,954 51,244 93,369 138,481 45,111 94,210 125,289 31,79 43,139 47,191 4,51 -1,94 -34,139 -33,45 -95,93 -127,128 -32,36 -36,59 -12,72 24,13 74,14 137,12 62,-2 137,-9 206,-21 69,-12 132,-29 195,-82 63,-53 127,-142 151,-244 25,-102 10,-217 3,-303 -7,-85 -7,-141 -6,-178 1,-37 2,-56 31,-31 28,25 84,95 135,158 51,63 99,120 130,139 31,19 45,0 50,-28 5,-28 0,-64 -56,-170 -56,-106 -164,-282 -227,-391 -63,-110 -82,-154 -134,-195 -51,-40 -135,-77 -187,-129 -52,-52 -73,-120 -95,-282 -22,-161 -46,-416 -75,-625 -29,-210 -64,-374 -102,-502 -38,-128 -79,-220 -110,-282 -31,-62 -51,-93 9,-110 60,-17 201,-18 325,-13 124,6 232,18 323,17 92,-2 168,-17 187,-6 19,11 -19,49 -62,112 -43,63 -90,152 -142,269 -52,117 -109,263 -144,361 -35,98 -47,149 -24,195 24,46 84,87 161,123 78,36 172,68 324,134 152,66 361,168 557,245 196,77 380,131 647,160 267,28 618,32 943,-3 324,-35 622,-108 884,-185 263,-78 490,-160 614,-198 123,-38 142,-32 209,5 66,36 180,103 348,218 168,115 389,280 606,441 217,161 429,319 573,436 144,117 220,193 308,263 89,70 190,133 282,195 92,62 174,122 248,160 74,38 141,54 209,65 68,11 138,17 215,14 78,-3 163,-16 220,-24 57,-8 85,-11 82,-41 -3,-30 -38,-87 -101,-168 -63,-81 -155,-185 -240,-256 -85,-71 -164,-109 -263,-157 -98,-47 -215,-104 -289,-155 -74,-51 -106,-95 -147,-115 -41,-21 -92,-17 -127,-16 -35,2 -54,2 -149,-101 -95,-103 -266,-308 -481,-509 -215,-201 -474,-397 -647,-525 -172,-128 -258,-188 -348,-247 -90,-59 -185,-115 -326,-236 -141,-120 -327,-304 -509,-500 -182,-196 -359,-405 -489,-566 -130,-161 -212,-275 -280,-400 -68,-125 -122,-261 -164,-370 -43,-109 -74,-191 -70,-297 5,-106 46,-236 112,-362 66,-127 158,-250 264,-350 106,-100 226,-176 310,-236 84,-61 131,-106 177,-166 46,-60 90,-135 135,-181 45,-46 91,-64 123,-24 33,40 52,138 86,226 34,88 84,165 157,247 73,82 171,167 302,240 131,73 296,133 443,139 147,6 277,-41 384,-125 108,-84 193,-204 236,-332 43,-128 43,-264 9,-383 -33,-119 -100,-220 -176,-324 -76,-104 -161,-212 -247,-293 -85,-81 -171,-134 -275,-176 -104,-41 -228,-70 -350,-79 -122,-9 -242,0 -321,17 -79,17 -117,43 -153,62 -36,20 -69,34 -161,44z"/>
  <path class="fil1" d="M7791 6935c33,90 67,180 66,271 -1,91 -35,183 -81,268 -46,85 -103,164 -163,202 -60,38 -123,34 -227,-3 -104,-36 -248,-105 -373,-191 -125,-86 -231,-189 -319,-278 -87,-90 -156,-166 -199,-238 -43,-72 -59,-139 -67,-208 -8,-68 -8,-138 6,-187 14,-49 43,-77 79,-89 36,-11 81,-5 142,35 61,40 139,114 218,188 79,75 157,151 231,215 73,64 141,117 205,167 64,50 125,97 204,71 80,-26 179,-125 278,-224z"/>
  <path class="fil2" d="M10322 6414c-5,-113 -32,-253 -93,-357 -61,-103 -155,-170 -200,-219 -46,-48 -44,-77 -71,-74 -27,3 -85,39 -172,174 -88,135 -206,370 -284,512 -79,142 -118,191 -209,206 -91,15 -232,-5 -368,5 -136,10 -268,50 -388,112 -120,62 -228,147 -306,265 -78,118 -127,269 -129,492 -2,223 43,519 96,690 52,171 112,219 134,228 21,9 5,-20 4,-70 -1,-50 15,-121 39,-147 23,-26 54,-8 91,30 37,37 80,94 141,142 61,48 141,88 221,127 80,39 162,76 154,62 -7,-14 -102,-79 -153,-134 -51,-56 -58,-102 -52,-146 6,-45 24,-87 60,-81 36,6 91,62 149,103 58,41 119,66 125,58 5,-8 -46,-51 -81,-121 -34,-70 -52,-169 -19,-255 32,-86 115,-159 216,-229 101,-70 221,-136 353,-196 132,-61 277,-116 384,-209 107,-93 178,-223 206,-315 28,-92 15,-146 5,-184 -10,-38 -17,-61 4,-88 21,-27 69,-60 101,-120 32,-60 49,-146 44,-259z"/>
  <path class="fil0" d="M5521 7952c-47,126 -143,435 -248,683 -105,247 -219,433 -323,621 -103,188 -196,379 -257,544 -61,166 -91,307 -97,398 -6,91 12,132 92,185 80,53 222,117 360,181 138,64 270,126 340,178 70,52 77,95 82,135 5,41 9,79 39,104 30,25 86,35 136,18 49,-18 92,-64 147,-85 55,-22 124,-19 215,-10 91,10 204,27 341,45 137,18 299,38 484,34 185,-4 395,-32 632,-80 238,-48 504,-114 723,-179 220,-64 393,-126 397,-146 4,-20 -163,3 -391,39 -228,36 -517,85 -725,112 -208,26 -335,30 -494,25 -159,-5 -349,-19 -501,-55 -152,-35 -265,-92 -358,-113 -93,-21 -168,-7 -249,-7 -81,0 -169,-14 -255,-39 -86,-25 -169,-62 -269,-115 -101,-53 -219,-122 -253,-215 -34,-93 15,-209 27,-303 12,-93 -12,-164 -25,-238 -12,-74 -12,-152 28,-278 40,-127 121,-302 198,-510 78,-208 152,-449 193,-611 40,-162 46,-246 50,-316 4,-70 6,-127 -41,-1z"/>
  <path class="fil0" d="M5566 11395c19,61 48,165 39,235 -9,71 -55,108 -93,111 -38,4 -68,-26 -67,-86 1,-59 33,-147 51,-212 19,-64 24,-105 32,-116 8,-11 19,6 38,67z"/>
  <path class="fil0" d="M8075 3716c-37,121 -107,315 -200,454 -93,138 -207,221 -319,269 -112,48 -221,60 -315,75 -93,15 -171,33 -213,65 -42,33 -49,80 -41,122 9,41 34,77 76,81 42,5 103,-22 171,-39 68,-18 143,-27 196,-23 53,3 83,19 106,44 23,25 39,58 73,69 34,11 87,-2 119,-38 32,-36 42,-96 70,-153 27,-56 71,-109 125,-202 54,-93 117,-225 159,-349 41,-124 61,-241 63,-338 2,-98 -13,-176 -22,-191 -9,-15 -11,34 -48,155z"/>
  <path class="fil0" d="M7642 5127c36,19 61,71 97,130 36,58 84,122 93,165 10,43 -18,66 -74,44 -55,-22 -138,-89 -202,-144 -64,-54 -108,-96 -153,-142 -46,-46 -93,-96 -75,-103 18,-7 100,28 165,38 65,10 113,-6 149,12z"/>
  <path class="fil0" d="M9120 4511c88,-65 229,-168 318,-203 88,-35 123,-4 138,35 14,39 7,85 -39,125 -46,41 -131,76 -233,102 -102,26 -222,44 -265,39 -42,-5 -7,-34 81,-99z"/>
  <path class="fil0" d="M10901 4426c166,-30 420,-44 547,-16 127,28 127,99 81,143 -46,44 -138,62 -293,53 -155,-9 -374,-44 -494,-58 -120,-14 -141,-7 -113,-26 28,-19 106,-65 272,-95z"/>
  <path class="fil0" d="M3897 2677c-26,-62 -185,-228 -310,-312 -125,-85 -217,-88 -277,-56 -60,32 -88,99 -53,153 35,55 134,97 220,127 86,30 161,48 250,78 90,30 196,72 169,11z"/>
  <path class="fil3" d="M7104 3570c194,-25 257,-30 329,-222 -144,80 -199,111 -329,222z"/>
  <path class="fil3" d="M7231 3294c0,235 19,157 -13,368 177,-89 108,-243 13,-368z"/>
  <path class="fil3" d="M7601 3830c181,-73 241,-93 263,-297 -119,114 -165,158 -263,297z"/>
  <path class="fil3" d="M7655 3532c59,227 58,147 80,360 148,-131 43,-262 -80,-360z"/>
  <path class="fil2" d="M7192 4245c-12,-33 -48,-75 -85,-112 -37,-37 -76,-69 -119,-84 -43,-15 -90,-14 -151,1 -60,15 -134,42 -127,56 7,14 95,14 169,28 75,14 136,41 184,75 48,34 84,75 106,83 23,9 34,-14 21,-47z"/>
 </g>
</svg>
