<?xml version="1.0" encoding="UTF-8"?>
<!DOCTYPE svg PUBLIC "-//W3C//DTD SVG 1.1//EN" "http://www.w3.org/Graphics/SVG/1.1/DTD/svg11.dtd">
<!-- Creator: CorelDRAW 2017 -->
<svg xmlns="http://www.w3.org/2000/svg" xml:space="preserve" width="143mm" height="143mm" version="1.1" style="shape-rendering:geometricPrecision; text-rendering:geometricPrecision; image-rendering:optimizeQuality; fill-rule:evenodd; clip-rule:evenodd"
viewBox="0 0 14300 14300"
 xmlns:xlink="http://www.w3.org/1999/xlink">
 <defs>
  <style type="text/css">
   <![CDATA[
    .str0 {stroke:black;stroke-width:20}
    .fil7 {fill:none}
    .fil6 {fill:black}
    .fil11 {fill:black}
    .fil12 {fill:#000066}
    .fil9 {fill:#6666CC}
    .fil0 {fill:#7BAD52}
    .fil1 {fill:#B8932E}
    .fil3 {fill:#C99F2B}
    .fil2 {fill:#EDBF42}
    .fil8 {fill:#F0A195}
    .fil10 {fill:#F79C84}
    .fil14 {fill:#FF6161}
    .fil13 {fill:#FFCCCC}
    .fil4 {fill:#FFD663}
    .fil5 {fill:#FFE291}
   ]]>
  </style>
 </defs>
 <g id="Слой_x0020_1">
  <metadata id="CorelCorpID_0Corel-Layer"/>
  <path class="fil0" d="M9839 6424c464,18 1306,140 1684,326 378,187 293,440 238,699 -54,259 -77,525 107,783 183,258 572,508 906,847 335,338 615,765 540,1154 -76,389 -508,739 -864,928 -355,189 -634,215 -656,334 -22,119 212,330 143,499 -70,169 -444,295 -2113,350 -1669,55 -4634,38 -6070,-79 -1436,-117 -1343,-335 -1040,-575 302,-240 813,-501 1034,-778 221,-277 152,-568 -123,-758 -276,-190 -759,-278 -1149,-402 -390,-125 -686,-286 -940,-448 -254,-162 -467,-325 -600,-500 -133,-175 -185,-362 -127,-611 58,-249 226,-559 592,-748 366,-189 929,-256 1793,-323 864,-67 2027,-133 3079,-224 1051,-91 1990,-207 2503,-307 513,-100 600,-184 1064,-166z"/>
  <polygon class="fil1" points="7718,2895 7718,5414 10746,7228 10746,4670 "/>
  <polygon class="fil2" points="7718,2895 2733,5858 2733,8429 7718,5414 "/>
  <polygon class="fil1" points="10746,4670 5748,7554 5748,10138 10746,7228 "/>
  <polygon class="fil3" points="5748,7554 2733,5858 2733,8429 5748,10138 "/>
  <polygon class="fil4" points="7718,2895 6857,1329 1807,4266 2733,5858 "/>
  <polygon class="fil2" points="7718,2895 8592,1251 11633,3039 10746,4670 "/>
  <polygon class="fil2" points="10746,4670 12129,4670 7131,7646 5748,7554 "/>
  <polygon class="fil4" points="5748,7554 4377,7554 1330,5792 2733,5858 "/>
  <polygon class="fil5" points="4935,7097 5748,7554 8571,5925 7718,5414 "/>
  <g id="_2296390239040">
   <path class="fil6" d="M11235 10142c133,-11 1662,-107 903,-468 -527,-251 -781,-324 -157,-802 -99,139 -36,57 -145,187 -410,489 223,329 562,636 499,452 -1052,610 -1147,621 -48,4 -90,-31 -95,-79 -4,-48 31,-90 79,-95z"/>
  </g>
  <path class="fil7" d="M11243 10229c205,-19 410,-37 596,-71 186,-34 354,-82 455,-143 102,-61 138,-134 114,-202 -24,-68 -109,-130 -248,-191 -139,-61 -332,-121 -425,-190 -93,-69 -87,-145 -57,-212 30,-67 85,-123 139,-179 54,-56 109,-113 163,-169"/>
  <path class="fil8" d="M10689 9749c9,-71 10,-155 2,-213 -8,-58 -26,-89 -82,-120 -57,-31 -153,-63 -204,-67 -51,-4 -58,18 -43,43 16,24 54,51 81,73 27,23 43,42 32,101 -11,59 -49,159 -57,228 -8,70 13,109 56,128 43,19 108,18 149,-12 41,-30 57,-89 66,-161z"/>
  <path class="fil8" d="M9060 9765c9,-46 0,-119 -7,-183 -7,-63 -12,-116 -33,-151 -20,-35 -56,-51 -99,-65 -43,-14 -94,-24 -121,-17 -27,7 -31,33 -22,54 8,21 28,37 50,49 21,11 44,17 55,44 11,27 11,74 6,123 -6,49 -17,101 -19,136 -2,35 6,54 29,68 23,13 60,20 92,14 32,-6 59,-25 68,-71z"/>
  <path class="fil8" d="M8709 9763c-2,-44 -36,-113 -67,-180 -31,-67 -60,-131 -88,-170 -28,-38 -56,-51 -89,-58 -33,-7 -70,-9 -94,0 -24,8 -33,27 -25,44 8,17 33,34 51,48 18,14 28,25 39,53 11,27 22,71 27,112 5,41 4,78 11,112 7,34 22,66 52,86 31,20 77,29 115,23 38,-6 69,-26 67,-70z"/>
  <path class="fil8" d="M10213 9642c-15,-70 -42,-150 -69,-201 -27,-52 -54,-76 -117,-86 -64,-11 -165,-9 -215,4 -50,13 -49,37 -26,54 23,18 68,30 101,42 33,12 54,25 63,85 9,60 7,166 22,234 15,68 48,99 95,103 47,4 108,-19 137,-61 29,-42 25,-103 9,-174z"/>
  <path class="fil9" d="M10640 11325c82,-55 201,-135 304,-232 103,-98 190,-213 249,-342 59,-129 89,-272 96,-384 7,-112 -8,-193 -51,-271 -43,-78 -113,-152 -222,-216 -109,-64 -255,-119 -493,-147 -238,-28 -567,-31 -880,-41 -313,-10 -609,-26 -893,-32 -284,-6 -555,-1 -708,6 -153,7 -188,15 -205,50 -16,35 -13,95 31,198 44,103 129,249 273,433 144,184 346,407 596,593 250,186 548,335 789,426 242,90 427,122 575,124 147,2 256,-25 333,-53 77,-28 123,-58 206,-112z"/>
  <path class="fil10" d="M8447 10676c5,53 -23,115 -62,151 -39,36 -90,46 -133,37 -43,-9 -78,-38 -106,-76 -28,-38 -50,-84 -49,-136 0,-52 23,-110 51,-154 29,-43 64,-71 102,-62 38,9 79,55 117,100 38,45 75,88 79,140z"/>
  <path class="fil10" d="M8929 10545c51,-21 81,-50 85,-98 5,-48 -16,-116 -76,-167 -60,-51 -160,-85 -226,-80 -66,5 -98,47 -112,94 -14,46 -9,96 17,146 25,50 71,101 130,119 59,19 131,6 182,-15z"/>
  <path class="fil11" d="M8578 10131c-156,4 -208,8 -229,-98 103,33 143,46 229,98z"/>
  <path class="fil11" d="M8529 9983c-48,137 -49,93 -65,214 -129,-35 -40,-131 65,-214z"/>
  <path class="fil11" d="M8291 10306c-156,4 -208,8 -229,-98 103,33 143,46 229,98z"/>
  <path class="fil11" d="M8243 10157c-48,137 -49,93 -65,214 -129,-35 -40,-131 65,-214z"/>
  <path class="fil12" d="M9956 11313c95,-14 252,-37 405,-106 153,-68 302,-181 397,-291 95,-110 137,-217 142,-328 6,-111 -25,-227 -81,-320 -56,-93 -137,-163 -232,-232 -95,-69 -204,-138 -280,-180 -76,-42 -118,-56 -54,-50 64,6 234,32 374,55 139,23 248,45 336,88 88,44 157,110 197,204 40,93 53,213 36,335 -17,122 -62,247 -134,360 -72,113 -172,216 -292,307 -120,92 -259,173 -426,202 -167,28 -360,4 -440,-11 -80,-15 -46,-20 50,-34z"/>
  <path class="fil13" d="M8697 10475c26,-2 80,4 125,5 45,1 81,-4 103,-12 21,-8 28,-20 30,-42 2,-22 -1,-53 -16,-83 -15,-30 -41,-60 -42,-66 -1,-6 23,12 43,36 20,24 37,53 45,81 8,28 8,54 -4,77 -12,23 -35,41 -68,55 -33,14 -75,22 -108,22 -33,1 -56,-6 -76,-17 -20,-10 -38,-24 -47,-35 -10,-11 -11,-20 15,-21z"/>
  <path class="fil13" d="M8351 10618c-6,29 -15,79 -31,113 -17,34 -41,52 -67,55 -26,2 -54,-12 -76,-30 -22,-18 -37,-41 -38,-40 -1,1 13,27 30,50 17,24 37,45 62,56 26,11 57,11 82,6 25,-5 44,-16 62,-37 17,-21 33,-52 40,-77 7,-25 6,-43 -4,-65 -10,-22 -30,-49 -41,-58 -11,-10 -14,-2 -19,27z"/>
  <path class="fil14" d="M7909 9675c26,3 46,23 46,53 -1,29 -22,68 -45,91 -24,23 -49,31 -75,26 -25,-5 -50,-21 -53,-47 -2,-26 18,-62 44,-87 26,-25 58,-39 84,-36z"/>
  <path class="fil11 str0" d="M4136 7802c57,88 156,273 215,379 59,106 78,134 77,145 -2,11 -25,4 -71,-8 -46,-13 -115,-32 -149,-29 -34,3 -34,28 -34,92 -1,64 -2,167 -1,257 2,90 7,167 -6,201 -13,34 -43,24 -103,1 -61,-23 -152,-60 -197,-85 -45,-25 -44,-38 -42,-121 3,-83 8,-236 10,-327 2,-91 2,-120 -8,-136 -10,-16 -29,-19 -58,-29 -30,-9 -70,-24 -100,-35 -30,-11 -50,-19 -41,-36 9,-17 47,-43 103,-88 56,-45 132,-109 188,-154 56,-45 94,-70 120,-87 26,-17 40,-26 97,61z"/>
  <path class="fil11 str0" d="M9305 6660c-50,93 -136,288 -188,399 -52,111 -69,137 -68,147 2,10 23,4 64,-13 41,-17 102,-44 132,-46 30,-2 30,21 32,75 2,54 6,137 9,225 3,87 5,178 20,218 15,41 43,31 97,-1 54,-32 133,-87 172,-120 39,-33 38,-46 34,-130 -4,-84 -10,-239 -13,-330 -3,-91 -3,-118 5,-133 9,-15 27,-19 54,-28 28,-9 65,-24 93,-35 28,-11 46,-18 38,-34 -9,-16 -44,-40 -98,-75 -54,-35 -126,-81 -180,-116 -54,-35 -90,-58 -114,-73 -25,-16 -38,-24 -88,69z"/>
  <path class="fil11 str0" d="M7667 7637c-53,94 -144,289 -199,400 -55,111 -72,137 -71,147 2,10 23,4 66,-14 43,-18 108,-47 140,-49 32,-3 32,21 34,75 2,54 5,139 7,227 2,88 3,179 18,219 15,41 43,32 97,0 54,-32 134,-86 173,-119 39,-33 39,-46 34,-128 -5,-82 -13,-234 -17,-319 -4,-85 -2,-104 7,-119 9,-15 25,-27 52,-40 27,-13 64,-28 92,-38 28,-11 46,-18 38,-34 -9,-16 -44,-40 -96,-77 -52,-37 -120,-87 -172,-123 -52,-37 -87,-60 -112,-76 -24,-16 -38,-24 -90,69z"/>
 </g>
</svg>
