<?xml version="1.0" encoding="UTF-8"?>
<!DOCTYPE svg PUBLIC "-//W3C//DTD SVG 1.1//EN" "http://www.w3.org/Graphics/SVG/1.1/DTD/svg11.dtd">
<!-- Creator: CorelDRAW 2017 -->
<svg xmlns="http://www.w3.org/2000/svg" xml:space="preserve" width="143mm" height="143mm" version="1.1" style="shape-rendering:geometricPrecision; text-rendering:geometricPrecision; image-rendering:optimizeQuality; fill-rule:evenodd; clip-rule:evenodd"
viewBox="0 0 14300 14300"
 xmlns:xlink="http://www.w3.org/1999/xlink">
 <defs>
  <style type="text/css">
   <![CDATA[
    .fil5 {fill:black}
    .fil8 {fill:#1A1A1A}
    .fil6 {fill:#333333}
    .fil1 {fill:#4D4D4D}
    .fil9 {fill:gray}
    .fil3 {fill:#B3B3B3}
    .fil0 {fill:#F0889A}
    .fil2 {fill:#FFE77B}
    .fil4 {fill:#FFE77B}
    .fil7 {fill:white}
   ]]>
  </style>
 </defs>
 <g id="Слой_x0020_1">
  <metadata id="CorelCorpID_0Corel-Layer"/>
  <path class="fil0" d="M10044 8905c744,74 2054,187 2704,290 650,103 638,196 310,275 -328,79 -972,142 -1399,199 -427,56 -638,104 -897,157 -258,53 -564,109 -594,171 -31,62 214,129 486,184 272,56 572,100 844,170 273,69 518,163 521,221 2,58 -239,80 -831,91 -593,10 -1536,9 -2817,22 -1280,13 -2897,40 -4037,-3 -1140,-43 -1803,-156 -1969,-226 -166,-70 166,-97 554,-124 387,-27 830,-55 829,-128 -1,-74 -446,-193 -838,-279 -393,-86 -733,-140 -1126,-180 -393,-40 -840,-66 -883,-104 -43,-39 316,-90 711,-119 395,-29 825,-37 1218,-47 393,-10 749,-24 1100,-52 350,-28 695,-71 590,-172 -105,-101 -659,-260 -1239,-371 -580,-111 -1185,-174 -1576,-229 -391,-55 -567,-103 -419,-125 148,-22 619,-18 1051,-60 432,-42 824,-130 1291,-190 468,-60 1011,-93 1112,-172 101,-79 -241,-206 -520,-292 -280,-86 -497,-133 -391,-173 106,-40 537,-75 1288,-58 751,17 1823,85 2737,137 914,52 1669,88 2325,113 656,25 1212,40 1608,51 396,12 632,20 631,63 -1,42 -238,118 -694,168 -456,50 -1131,73 -1697,103 -566,30 -1023,66 -1236,120 -212,54 -179,126 -47,175 132,49 362,76 546,99 184,23 321,44 355,62 34,18 -35,35 -168,50 -133,15 -330,30 -340,54 -10,24 166,59 909,132z"/>
  <path class="fil1" d="M7794 8165c201,31 431,6 661,-65 230,-71 460,-188 643,-398 183,-210 318,-512 379,-739 60,-227 46,-378 -59,-610 -105,-232 -300,-543 -617,-826 -318,-283 -758,-537 -1395,-913 -637,-376 -1472,-874 -1859,-1070 -387,-196 -326,-91 -238,225 88,316 203,842 365,1393 162,551 371,1126 572,1555 201,429 394,713 560,896 166,183 303,266 459,350 155,85 328,171 530,202z"/>
  <path class="fil2" d="M6120 10153c-93,95 -219,317 -294,438 -75,121 -99,141 -157,137 -58,-3 -150,-29 -236,-55 -86,-25 -167,-50 -216,-50 -50,0 -69,25 -10,71 59,46 196,114 303,149 107,35 183,39 227,49 44,10 55,28 75,76 20,48 48,127 85,196 37,68 81,126 119,144 37,19 67,-1 76,-50 9,-48 -4,-125 -18,-183 -14,-58 -29,-97 -24,-109 6,-13 32,1 106,33 74,32 196,83 259,103 63,20 68,9 59,-13 -9,-22 -32,-55 -75,-89 -43,-35 -106,-71 -162,-97 -56,-26 -104,-42 -146,-64 -42,-22 -76,-50 -72,-111 4,-61 47,-154 98,-242 51,-87 111,-168 148,-227 37,-60 52,-98 30,-134 -22,-36 -82,-69 -175,26z"/>
  <path class="fil2" d="M5381 9642c-131,-19 -385,12 -527,23 -142,12 -172,4 -204,-45 -32,-49 -66,-138 -96,-223 -31,-85 -58,-164 -88,-204 -30,-40 -61,-41 -63,34 -2,75 25,226 60,332 35,107 78,170 95,212 18,41 10,61 -17,105 -27,45 -74,114 -107,184 -33,70 -53,140 -46,181 7,41 41,54 85,32 44,-22 98,-78 136,-123 38,-46 60,-81 74,-84 14,-3 18,27 36,105 18,79 50,207 71,270 22,63 33,61 45,40 12,-20 25,-58 27,-114 2,-55 -6,-127 -18,-187 -12,-60 -28,-108 -35,-155 -7,-46 -5,-91 46,-124 51,-33 152,-54 252,-65 100,-11 201,-11 271,-16 70,-5 110,-16 125,-55 16,-39 7,-107 -124,-126z"/>
  <path class="fil3" d="M10378 4306c226,69 486,200 687,403 201,203 342,479 385,751 43,272 -13,541 -121,758 -108,217 -269,383 -365,494 -96,111 -129,167 -143,331 -14,165 -10,438 -73,804 -63,366 -193,825 -410,1217 -217,392 -520,716 -925,986 -405,269 -913,483 -1375,570 -461,87 -877,46 -1266,-64 -389,-110 -753,-290 -1049,-516 -296,-226 -524,-498 -710,-701 -186,-203 -331,-338 -480,-429 -149,-91 -302,-138 -662,-238 -360,-100 -926,-252 -1330,-348 -404,-96 -644,-136 -703,-165 -59,-29 64,-47 303,-58 239,-12 594,-17 862,-28 267,-12 447,-30 481,-47 33,-17 -80,-33 -270,-66 -190,-33 -456,-84 -659,-122 -203,-37 -343,-60 -277,-99 66,-38 337,-91 1098,-347 761,-256 2013,-714 2919,-1049 906,-335 1465,-546 1819,-720 354,-174 503,-311 650,-481 148,-170 295,-375 462,-534 167,-159 354,-273 543,-326 190,-53 383,-45 609,24z"/>
  <path class="fil4" d="M11456 5522c90,28 254,103 399,214 145,110 270,255 344,340 73,84 95,108 73,125 -22,16 -88,26 -214,43 -126,18 -312,44 -481,55 -169,10 -320,5 -422,-31 -102,-36 -154,-103 -165,-174 -11,-72 21,-149 63,-197 42,-48 96,-68 131,-83 35,-15 52,-24 64,-51 12,-27 18,-73 32,-114 14,-41 37,-78 55,-106 18,-28 33,-47 122,-18z"/>
  <path class="fil5" d="M10199 5213c86,29 180,101 216,188 36,86 15,186 -22,259 -36,73 -88,118 -158,146 -70,28 -160,39 -240,-5 -80,-44 -151,-142 -177,-226 -26,-84 -8,-154 22,-212 31,-57 74,-102 135,-132 60,-30 138,-46 223,-18z"/>
  <path class="fil6" d="M7647 7976c198,-46 402,-155 590,-307 187,-152 357,-346 449,-609 92,-263 105,-594 76,-827 -28,-233 -98,-368 -282,-544 -183,-176 -481,-393 -881,-537 -400,-144 -903,-216 -1635,-328 -732,-112 -1692,-263 -2124,-301 -432,-38 -337,37 -137,298 199,261 502,706 858,1157 355,451 763,907 1109,1231 346,324 631,515 853,623 222,108 381,134 556,154 176,21 369,37 567,-10z"/>
  <g id="_1995423979760">
   <path class="fil7" d="M6810 6898c-13,-9 -26,-19 -38,-29 -5,-4 -10,-8 -15,-13 -16,-14 -31,-27 -44,-42 -12,-12 -22,-25 -32,-38 -5,-6 -9,-13 -13,-19 -13,-21 -22,-41 -27,-60 -1,-5 -2,-10 -3,-15 -4,-29 2,-52 13,-78 11,-26 27,-55 40,-81 13,-26 22,-50 31,-75 9,-25 19,-50 21,-70 2,-20 -3,-35 -8,-50 -23,-26 -49,-53 -67,-78 -2,-3 -4,-6 -6,-9 5,15 10,30 14,51 4,21 7,47 4,74 -3,27 -13,56 -29,85 -7,12 -15,23 -23,34 -12,16 -25,33 -38,50 -8,11 -16,23 -23,35 -12,19 -22,40 -31,64 -11,28 -19,61 -24,95 -2,13 -3,25 -3,38 -1,47 7,95 27,138 20,44 52,83 99,124 47,40 111,81 166,104 55,24 102,30 148,26 36,-3 72,-12 104,-26 9,-4 18,-8 27,-13 39,-20 70,-47 94,-71 5,-5 10,-11 14,-16 16,-19 29,-36 39,-53 13,-21 24,-40 36,-57 1,-1 2,-2 3,-4 12,-15 26,-29 44,-43 20,-15 46,-30 77,-45 23,-11 49,-21 76,-31 9,-4 19,-7 28,-11 -20,-1 -40,-5 -61,-9 -18,-4 -36,-8 -53,-12 -47,25 -95,49 -129,75 -34,25 -56,52 -75,76 -20,25 -37,48 -62,61 -13,7 -29,11 -46,13 -15,1 -31,0 -48,-3 -9,-2 -19,-4 -30,-7 -19,-5 -40,-13 -60,-22 -12,-5 -24,-11 -36,-17 -7,-4 -13,-7 -20,-11 -21,-12 -40,-24 -59,-38z"/>
   <path class="fil7" d="M6511 6730c4,-34 13,-67 24,-95 9,-24 20,-45 31,-64 -191,-47 -303,-68 -366,-83 -65,-15 -77,-24 -88,-44 -11,-20 -21,-50 -39,-75 -19,-25 -46,-43 -74,-51 -27,-8 -55,-5 -77,10 -23,15 -40,42 -36,75 4,34 31,74 47,99 16,25 20,35 15,42 -5,7 -20,11 -35,22 -16,11 -32,28 -42,46 -10,18 -13,37 -6,58 6,20 22,42 43,56 21,13 46,18 70,11 24,-7 46,-27 67,-48 21,-21 40,-42 83,-45 42,-2 108,16 347,77l37 9z"/>
   <path class="fil7" d="M6539 6353c26,38 56,83 88,133 9,-11 16,-23 23,-34 17,-28 26,-57 29,-85 3,-28 0,-54 -4,-74 -4,-21 -9,-36 -14,-51 -3,-5 -6,-10 -8,-14 -48,-75 -76,-124 -94,-161 -27,-57 -29,-89 -27,-124 2,-34 8,-71 3,-97 -6,-26 -23,-43 -40,-55 -17,-12 -35,-19 -50,-21 -16,-2 -30,1 -43,8 -13,7 -24,17 -32,32 -8,15 -12,34 -15,46 -3,12 -4,18 -15,16 -11,-2 -31,-13 -52,-22 -21,-9 -43,-17 -63,-14 -20,3 -38,17 -51,34 -13,18 -22,39 -23,62 -1,23 5,47 17,65 12,18 29,29 51,35 22,7 50,9 74,22 25,12 47,35 70,59 23,24 47,49 176,241z"/>
   <path class="fil7" d="M7386 6835c-31,15 -57,30 -77,45 -19,14 -32,28 -44,43l85 23c223,60 254,74 284,89 30,14 59,28 78,47 20,19 31,45 44,63 14,19 30,32 50,37 21,5 46,4 67,-5 21,-9 39,-24 51,-42 12,-18 20,-39 16,-59 -4,-20 -18,-38 -34,-55 -16,-17 -32,-33 -38,-42 -6,-9 -1,-13 10,-19 11,-7 28,-17 39,-30 11,-12 18,-26 20,-41 2,-14 1,-29 -6,-43 -7,-14 -19,-28 -36,-41 -17,-13 -38,-24 -65,-20 -27,3 -59,21 -91,34 -32,13 -63,21 -126,14 -36,-4 -83,-13 -153,-29 -27,10 -53,20 -76,31z"/>
   <path class="fil7" d="M7345 7293c-30,-47 -76,-129 -157,-257 -4,5 -9,10 -14,16 -24,25 -55,51 -94,71 -9,5 -17,9 -27,13 121,186 156,239 168,278 12,41 -2,66 -15,93 -13,26 -25,54 -24,79 1,25 14,47 33,63 19,15 45,23 67,23 21,0 38,-9 53,-25 14,-15 25,-36 30,-54 5,-18 4,-33 9,-40 5,-7 16,-6 45,1 29,7 76,19 109,12 33,-7 53,-32 60,-58 7,-26 1,-53 -15,-76 -16,-23 -43,-44 -72,-53 -29,-10 -62,-9 -84,-13 -22,-4 -34,-13 -70,-69z"/>
   <path class="fil7" d="M7644 6381c16,27 28,56 29,82 1,26 -8,48 -28,71 -21,22 -53,44 -94,57 -41,13 -89,18 -118,16 -29,-2 -39,-12 -51,-33 -12,-20 -25,-51 -33,-90 -8,-40 -12,-88 -9,-125 2,-37 11,-63 20,-85 9,-22 18,-40 36,-48 18,-9 45,-8 79,7 34,14 74,42 104,69 30,27 51,53 67,80zm-215 403c21,4 41,8 61,9 21,1 42,0 61,-5 38,-10 71,-35 95,-65 24,-31 39,-67 57,-106 5,-10 10,-21 15,-32 39,-8 78,-17 128,-32 50,-15 110,-37 165,-80 55,-43 105,-108 135,-183 29,-75 38,-161 20,-248 -18,-87 -62,-174 -133,-261 -70,-87 -166,-174 -288,-254 -122,-79 -270,-151 -393,-181 -123,-30 -220,-17 -296,16 -76,34 -132,89 -170,150 -38,61 -60,128 -69,188 -9,61 -6,116 -1,154 5,39 13,61 20,83 -31,29 -68,61 -96,86 -34,31 -53,52 -69,72 -16,20 -29,40 -32,65 -3,19 1,41 13,65 2,5 5,9 8,14l6 9c17,24 44,51 67,78 10,12 19,23 26,34 24,36 27,67 22,100 -5,29 -17,60 -13,91 0,3 1,7 2,10 3,11 8,22 15,33 10,17 25,34 43,51 8,8 17,16 27,24 5,5 11,9 16,14 18,15 38,30 58,44 18,13 37,25 56,37 6,4 12,7 18,11 10,6 21,12 31,17 22,11 42,21 60,27 14,5 27,8 37,8 9,0 16,-1 23,-3 16,-6 27,-19 44,-31 24,-17 59,-33 99,-34 24,-1 50,4 76,10 18,4 36,9 53,12zm-271 -393c-7,22 -42,69 -69,103 -27,34 -46,55 -65,66 -19,11 -37,11 -54,6 -17,-5 -32,-14 -34,-31 -1,-17 11,-42 30,-66 18,-24 42,-46 69,-62 27,-15 57,-24 82,-30 26,-6 47,-9 40,13zm33 23c19,-13 22,8 25,34 3,26 4,57 -1,87 -6,30 -19,60 -36,85 -17,25 -36,45 -53,50 -17,4 -30,-7 -40,-22 -10,-15 -16,-32 -12,-53 4,-21 18,-46 41,-83 24,-37 57,-85 75,-98zm-51 -426c35,20 75,49 99,76 25,27 34,52 32,72 -2,20 -16,34 -34,49 -18,15 -39,32 -74,46 -34,14 -82,27 -122,32 -40,5 -73,2 -96,-2 -23,-4 -35,-11 -47,-38 -12,-27 -23,-74 -23,-117 -1,-43 9,-80 24,-107 14,-27 33,-43 58,-50 25,-7 56,-5 87,1 31,6 62,17 97,37z"/>
   <path class="fil8" d="M6770 6553c-4,-31 8,-62 13,-91 5,-33 2,-64 -22,-100 -7,-11 -16,-22 -26,-34 5,15 10,30 8,50 -2,20 -12,45 -21,70 -9,25 -18,48 -31,75 -13,26 -29,55 -40,81 -11,26 -17,49 -13,78 1,5 2,10 3,15l56 -48c8,-7 15,-13 21,-19 6,-6 11,-12 16,-19 11,-15 24,-37 36,-58z"/>
   <path class="fil8" d="M7200 6796c-17,12 -28,25 -44,31 -16,24 -33,48 -46,69 -1,1 -1,2 -2,4 -14,22 -24,41 -31,57 -7,16 -10,28 -14,41 17,-1 33,-5 46,-13 25,-13 42,-36 62,-61 20,-25 41,-51 75,-76 34,-25 82,-50 129,-75 -26,-6 -52,-11 -76,-10 -40,1 -75,17 -99,34z"/>
   <path class="fil8" d="M7041 6264c40,-5 87,-17 122,-32 34,-14 56,-31 74,-46 18,-15 32,-30 34,-49 2,-20 -7,-45 -32,-72 -25,-27 -64,-56 -99,-76 -35,-20 -66,-31 -97,-37 -31,-6 -62,-8 -87,-1 -25,7 -43,23 -58,50 -14,27 -24,65 -24,107 1,43 11,90 23,117 12,27 24,33 47,38 23,4 56,7 96,2z"/>
   <path class="fil8" d="M7359 6274c-9,22 -17,47 -20,85 -2,37 1,86 9,125 8,40 21,70 33,90 12,20 22,30 51,33 29,2 78,-3 118,-16 41,-13 73,-35 94,-57 21,-22 30,-45 28,-71 -1,-26 -13,-55 -29,-82 -16,-27 -37,-53 -67,-80 -30,-27 -70,-55 -104,-69 -34,-14 -61,-15 -79,-7 -18,9 -27,27 -36,48z"/>
   <path class="fil8" d="M7214 6536c6,-30 4,-61 1,-87 -3,-26 -7,-47 -25,-34 -19,13 -52,62 -75,98 -24,37 -37,62 -41,83 -4,21 2,39 12,53 10,15 23,26 40,22 17,-4 36,-25 53,-50 17,-25 30,-55 36,-85z"/>
   <path class="fil8" d="M7024 6560c19,-11 38,-32 65,-66 27,-34 62,-81 69,-103 7,-22 -15,-19 -40,-13 -26,6 -55,14 -82,30 -27,15 -51,38 -69,62 -18,24 -31,49 -30,66 1,17 17,26 34,31 17,5 35,5 54,-6z"/>
   <path class="fil8" d="M7108 6906c2,-1 -4,-2 -19,-5 -16,-4 -41,-10 -51,-21 -11,-11 -7,-26 0,-40 6,-14 15,-28 11,-25 -4,4 -20,24 -38,33 -18,9 -38,5 -52,1 -14,-4 -23,-8 -25,-14 -2,-6 3,-14 12,-29 8,-14 20,-35 18,-36 -2,-1 -18,18 -28,32 -11,13 -17,21 -26,20 -10,-1 -23,-9 -33,-16 -10,-7 -17,-13 -17,-21 0,-8 8,-18 17,-32 9,-14 21,-32 18,-32 -3,0 -19,18 -31,30 -12,12 -20,20 -30,18 -10,-2 -22,-13 -31,-22 -9,-9 -16,-16 -17,-25 -1,-9 3,-21 12,-36 8,-15 21,-32 21,-34 0,-2 -12,12 -22,23 -10,11 -17,19 -26,21 -9,2 -19,-4 -28,-12 -9,-9 -17,-21 -24,-31 -7,-11 -15,-20 -11,-11 3,9 17,35 27,54 10,19 15,30 11,44 -4,14 -18,31 -16,32 1,1 17,-13 27,-20 11,-6 16,-5 21,0 5,5 10,13 9,24 -1,12 -7,27 -12,39 -5,12 -10,21 -12,26 -3,5 -4,7 1,0 5,-8 18,-25 27,-36 9,-11 15,-15 25,-14 10,2 24,10 28,19 4,9 -1,17 -10,29 -8,12 -20,28 -24,37 -5,9 -3,12 4,6 7,-6 18,-21 26,-31 8,-10 13,-17 21,-17 7,-1 17,4 24,8 7,4 11,7 10,13 -1,7 -7,17 -13,30 -7,12 -14,26 -11,25 3,-1 17,-17 25,-28 9,-11 13,-16 21,-19 8,-3 21,-2 31,0 10,2 16,7 21,11 6,5 11,10 12,17 2,7 0,17 -3,28 -3,11 -8,22 -6,20 2,-2 10,-17 17,-28 7,-10 11,-15 17,-17 6,-2 12,-1 20,1 8,2 18,4 24,6 7,2 10,5 11,11 1,6 -2,16 -5,27 -3,11 -8,23 -4,21 4,-2 15,-19 23,-30 8,-11 12,-16 20,-19 7,-3 18,-5 20,-6z"/>
  </g>
  <path class="fil7" d="M12045 5998c-65,-38 -202,-129 -325,-186 -123,-56 -230,-78 -297,-88 -67,-9 -94,-6 -103,-25 -9,-19 -2,-59 12,-90 13,-31 32,-53 60,-58 28,-5 65,6 119,31 55,25 127,65 208,117 81,52 169,117 233,170 64,54 103,96 127,124 24,28 32,43 -33,4z"/>
  <path class="fil1" d="M6255 5007c-289,-49 -954,-156 -1414,-224 -460,-67 -714,-94 -866,-115 -152,-21 -203,-36 -193,-14 9,22 79,81 205,228 126,147 309,382 443,571 134,189 220,332 246,375 25,43 -11,-14 -64,-136 -54,-123 -125,-312 -174,-430 -49,-119 -77,-167 -38,-164 39,3 144,58 234,108 90,50 166,97 173,85 7,-12 -54,-81 -121,-145 -67,-64 -141,-123 -135,-143 5,-20 89,-1 251,47 162,48 401,126 484,150 83,24 9,-5 -97,-58 -106,-52 -245,-128 -315,-174 -70,-46 -72,-63 28,-60 101,3 304,26 566,51 261,25 581,53 784,70 204,18 292,26 3,-23z"/>
  <path class="fil7" d="M10018 5251c19,3 69,4 113,20 44,15 80,45 109,81 29,36 50,78 61,118 11,39 12,76 4,119 -7,44 -23,95 -16,112 6,17 34,1 53,-28 19,-30 30,-73 37,-123 6,-50 8,-108 -6,-150 -14,-42 -44,-70 -77,-94 -34,-24 -71,-45 -107,-56 -36,-11 -70,-12 -97,-12 -27,0 -47,2 -64,5 -16,3 -29,6 -10,9z"/>
  <path class="fil5" d="M9706 3714c-47,-159 -147,-606 -196,-857 -49,-251 -46,-306 -31,-335 15,-29 41,-31 65,12 24,42 45,128 78,316 32,188 76,478 101,687 25,209 31,337 -16,177z"/>
  <path class="fil5" d="M9337 3821c-61,-67 -228,-287 -310,-416 -82,-129 -81,-166 -64,-181 16,-15 47,-7 107,79 60,86 150,249 217,374 67,125 111,211 50,144z"/>
  <path class="fil5" d="M10178 3721c-5,-71 -5,-188 -4,-302 1,-114 3,-227 16,-290 13,-63 38,-77 50,-31 13,47 14,154 10,282 -4,128 -14,276 -22,356 -8,81 -16,94 -25,88 -9,-6 -20,-32 -26,-103z"/>
  <path class="fil5" d="M4076 6510c-139,-25 -452,-91 -653,-146 -201,-55 -289,-98 -313,-129 -25,-32 14,-52 134,-28 120,25 322,95 486,151 164,56 290,99 370,129 80,30 115,48 -24,23z"/>
  <path class="fil5" d="M4192 6139c-68,-34 -301,-185 -440,-287 -139,-102 -185,-154 -186,-182 -1,-28 44,-31 135,29 92,60 230,184 347,288 117,103 212,186 144,152z"/>
  <path class="fil5" d="M4826 3989c-22,-72 -122,-299 -195,-447 -73,-148 -120,-216 -155,-234 -35,-19 -60,13 -33,86 26,73 103,188 161,278 57,91 94,157 141,232 47,75 104,157 82,85z"/>
  <path class="fil9" d="M9178 10028c-108,32 -282,122 -475,185 -193,63 -405,98 -473,86 -68,-12 7,-72 71,-116 64,-44 117,-73 44,-65 -73,8 -271,52 -442,75 -171,23 -314,25 -354,4 -40,-21 24,-65 39,-86 14,-21 -21,-19 -171,-44 -150,-25 -415,-78 -690,-176 -276,-98 -562,-241 -781,-398 -218,-157 -368,-326 -431,-372 -63,-45 -39,34 -30,84 9,50 2,69 -72,43 -74,-26 -215,-99 -365,-189 -150,-89 -309,-195 -314,-177 -6,18 142,159 308,327 165,168 348,363 544,538 195,175 402,331 652,460 249,130 540,233 828,293 288,60 572,75 861,36 289,-39 582,-131 824,-221 241,-90 431,-178 505,-235 74,-57 32,-84 -76,-52z"/>
 </g>
</svg>
