<?xml version="1.0" encoding="UTF-8"?>
<!DOCTYPE svg PUBLIC "-//W3C//DTD SVG 1.1//EN" "http://www.w3.org/Graphics/SVG/1.1/DTD/svg11.dtd">
<!-- Creator: CorelDRAW 2017 -->
<svg xmlns="http://www.w3.org/2000/svg" xml:space="preserve" width="143mm" height="143mm" version="1.1" style="shape-rendering:geometricPrecision; text-rendering:geometricPrecision; image-rendering:optimizeQuality; fill-rule:evenodd; clip-rule:evenodd"
viewBox="0 0 14300 14300"
 xmlns:xlink="http://www.w3.org/1999/xlink">
 <defs>
  <style type="text/css">
   <![CDATA[
    .str0 {stroke:#EDBF42;stroke-width:200}
    .str1 {stroke:black;stroke-width:20}
    .fil3 {fill:none}
    .fil9 {fill:black}
    .fil5 {fill:black}
    .fil0 {fill:#0069E1}
    .fil6 {fill:#4D4D4D}
    .fil7 {fill:red}
    .fil1 {fill:#FFE77B}
    .fil2 {fill:#FFFFCF}
    .fil4 {fill:white}
    .fil8 {fill:black;fill-rule:nonzero}
   ]]>
  </style>
 </defs>
 <g id="Слой_x0020_1">
  <metadata id="CorelCorpID_0Corel-Layer"/>
  <path class="fil0" d="M10343 9380c856,297 1256,415 1554,507 298,92 495,158 665,294 170,136 314,342 196,568 -118,225 -496,470 -1393,592 -897,122 -2312,122 -3477,100 -1165,-22 -2079,-67 -2642,-147 -563,-80 -774,-194 -868,-342 -94,-148 -69,-330 -164,-551 -95,-221 -309,-482 -645,-869 -335,-387 -792,-901 -1114,-1294 -322,-392 -509,-663 -705,-929 -196,-265 -399,-525 -433,-711 -34,-186 103,-297 495,-293 393,4 1041,122 1925,445 884,324 2003,852 3219,1355 1216,502 2529,978 3386,1275z"/>
  <path class="fil1" d="M3116 5255c486,-83 1370,-239 3059,-573 1688,-334 4181,-846 5460,-1078 1279,-232 1346,-183 1382,-38 36,145 42,387 -29,775 -72,389 -221,925 -479,1569 -258,644 -624,1396 -1002,2038 -378,642 -769,1174 -1144,1568 -375,395 -735,652 -967,791 -233,138 -339,157 -537,80 -198,-77 -488,-250 -1537,-846 -1049,-595 -2856,-1613 -3813,-2170 -956,-556 -1061,-651 -1162,-796 -101,-146 -198,-342 -221,-518 -23,-176 30,-331 97,-444 67,-113 150,-185 235,-225 85,-41 172,-51 658,-134z"/>
  <path class="fil2" d="M12954 3471c-118,-6 -235,-11 -367,19 -132,31 -278,98 -446,220 -168,122 -358,298 -601,565 -243,266 -539,622 -822,1025 -283,403 -555,853 -791,1302 -236,448 -437,895 -598,1312 -161,417 -283,805 -361,1149 -78,344 -112,643 -114,836 -2,193 27,279 59,350 32,71 67,126 112,151 44,25 98,19 150,5 52,-14 102,-36 156,-65 53,-28 110,-62 167,-96 229,-148 541,-386 865,-727 375,-395 766,-927 1144,-1568 378,-642 744,-1394 1002,-2038 258,-644 407,-1180 479,-1569 72,-389 66,-630 29,-775 -10,-40 -23,-73 -63,-95z"/>
  <path class="fil3 str0" d="M3116 5255c486,-83 1370,-239 3059,-573 1688,-334 4181,-846 5460,-1078 1279,-232 1346,-183 1382,-38 36,145 42,387 -29,775 -72,389 -221,925 -479,1569 -258,644 -624,1396 -1002,2038 -378,642 -769,1174 -1144,1568 -375,395 -735,652 -967,791 -233,138 -339,157 -537,80 -198,-77 -488,-250 -1537,-846 -1049,-595 -2856,-1613 -3813,-2170 -956,-556 -1061,-651 -1162,-796 -101,-146 -198,-342 -221,-518 -23,-176 30,-331 97,-444 67,-113 150,-185 235,-225 85,-41 172,-51 658,-134z"/>
  <path class="fil4" d="M2282 5442c36,3 102,29 164,93 62,64 121,166 153,295 32,129 38,285 15,413 -23,128 -76,229 -145,292 -68,63 -152,88 -206,98 -54,10 -77,5 -87,-48 -9,-53 -4,-154 5,-334 10,-180 24,-440 34,-582 10,-142 14,-167 20,-189 5,-22 10,-41 46,-38z"/>
  <path class="fil5 str1" d="M1687 5501c-96,-19 -280,-30 -410,-31 -130,-1 -205,9 -258,38 -52,29 -81,78 -99,193 -19,115 -27,297 -30,438 -3,142 0,243 41,303 41,60 119,80 218,91 99,11 218,15 320,17 102,2 186,3 236,0 50,-3 64,-10 78,-119 13,-109 26,-319 28,-479 2,-160 -5,-270 -12,-339 -8,-68 -15,-95 -111,-113z"/>
  <path class="fil6" d="M2312 5313c-110,-34 -340,-63 -523,-79 -184,-17 -322,-22 -391,-9 -69,13 -67,43 -73,236 -5,193 -17,548 -32,792 -15,244 -33,378 -6,447 27,69 100,75 279,87 179,12 463,31 608,34 146,3 153,-10 166,-191 13,-181 33,-531 45,-759 12,-229 16,-336 22,-410 6,-74 15,-114 -95,-148z"/>
  <path class="fil5 str1" d="M1419 5132c56,-44 154,-117 217,-160 63,-43 92,-57 114,-56 22,1 37,18 47,33 10,16 14,31 10,46 -4,15 -18,31 -55,69 -37,37 -98,96 -140,135 -42,39 -66,57 -85,100 -18,43 -31,111 -45,281 -14,170 -28,443 -41,639 -14,195 -27,314 -31,382 -5,68 -1,86 19,125 20,39 56,99 91,149 35,51 70,92 82,120 12,28 3,42 -14,59 -17,17 -41,38 -60,45 -19,7 -33,0 -71,-49 -38,-48 -99,-137 -140,-199 -40,-61 -60,-95 -74,-119 -14,-24 -22,-39 -20,-194 2,-155 16,-450 30,-687 14,-237 29,-416 42,-514 14,-98 26,-115 40,-131 13,-16 28,-31 84,-75z"/>
  <ellipse class="fil7" cx="5317" cy="5971" rx="1082" ry="1115"/>
  <path class="fil8" d="M5317 4261c461,0 878,192 1179,503 301,310 486,736 486,1207 0,471 -186,898 -486,1207 -302,311 -719,503 -1179,503 -461,0 -878,-192 -1179,-503 -301,-310 -486,-736 -486,-1207 0,-471 186,-898 486,-1207 302,-311 719,-503 1179,-503zm915 760c-234,-241 -558,-391 -915,-391 -357,0 -681,149 -915,391 -236,243 -381,579 -381,951 0,372 146,708 381,951 234,241 558,391 915,391 357,0 681,-149 915,-391 236,-243 381,-579 381,-951 0,-372 -146,-708 -381,-951z"/>
  <ellipse class="fil7" cx="8930" cy="5952" rx="1082" ry="1115"/>
  <path class="fil8" d="M8930 4241c461,0 878,192 1179,503 301,310 486,736 486,1207 0,471 -186,898 -486,1207 -302,311 -719,503 -1179,503 -461,0 -878,-192 -1179,-503 -301,-310 -486,-736 -486,-1207 0,-471 186,-898 486,-1207 302,-311 719,-503 1179,-503zm915 760c-234,-241 -558,-391 -915,-391 -357,0 -681,149 -915,391 -236,243 -381,579 -381,951 0,372 146,708 381,951 234,241 558,391 915,391 357,0 681,-149 915,-391 236,-243 381,-579 381,-951 0,-372 -146,-708 -381,-951z"/>
  <rect class="fil8" x="5057" y="8675" width="4214" height="332" rx="362" ry="166"/>
  <path class="fil9" d="M6277 5456c-482,-209 -1103,-554 -1483,92 -499,851 1023,1353 994,361 -20,-671 -1068,-79 -588,190 82,46 398,107 183,-194 466,141 -131,580 -374,214 -547,-824 1414,-1138 999,131 -389,1189 -2105,181 -1414,-832 472,-692 1203,-422 1683,37z"/>
  <path class="fil9" d="M8020 6296c482,209 1103,554 1483,-92 499,-851 -1023,-1353 -994,-361 20,671 1068,79 588,-190 -82,-46 -398,-107 -183,194 -466,-141 131,-580 374,-214 547,824 -1414,1138 -999,-131 389,-1189 2105,-181 1414,832 -472,692 -1203,422 -1683,-37z"/>
  <path class="fil5" d="M3745 3941c-107,-109 -339,-366 -481,-540 -141,-175 -192,-268 -193,-311 -2,-43 45,-37 135,61 90,98 222,287 331,439 108,153 192,269 244,346 52,77 71,114 -36,5z"/>
  <path class="fil5" d="M4081 3689c-38,-73 -147,-352 -205,-529 -58,-177 -65,-252 -49,-277 17,-25 58,0 100,111 42,111 86,307 123,471 37,164 69,297 31,224z"/>
  <path class="fil5" d="M9604 3323c29,-76 154,-314 243,-468 90,-154 145,-224 184,-241 39,-17 63,18 29,95 -34,77 -125,195 -194,288 -68,94 -113,163 -169,240 -56,77 -123,162 -95,86z"/>
 </g>
</svg>
