<?xml version="1.0" encoding="UTF-8"?>
<!DOCTYPE svg PUBLIC "-//W3C//DTD SVG 1.1//EN" "http://www.w3.org/Graphics/SVG/1.1/DTD/svg11.dtd">
<!-- Creator: CorelDRAW 2017 -->
<svg xmlns="http://www.w3.org/2000/svg" xml:space="preserve" width="143mm" height="143mm" version="1.1" style="shape-rendering:geometricPrecision; text-rendering:geometricPrecision; image-rendering:optimizeQuality; fill-rule:evenodd; clip-rule:evenodd"
viewBox="0 0 14300 14300"
 xmlns:xlink="http://www.w3.org/1999/xlink">
 <defs>
  <style type="text/css">
   <![CDATA[
    .str1 {stroke:black;stroke-width:20}
    .str0 {stroke:red;stroke-width:100;stroke-linecap:round;stroke-linejoin:round}
    .fil4 {fill:none}
    .fil3 {fill:black}
    .fil2 {fill:#4D4D4D}
    .fil6 {fill:#6666CC}
    .fil5 {fill:gray}
    .fil0 {fill:red}
    .fil1 {fill:white}
   ]]>
  </style>
 </defs>
 <g id="Слой_x0020_1">
  <metadata id="CorelCorpID_0Corel-Layer"/>
  <path class="fil0" d="M10148 2518c152,7 339,35 520,81 182,46 358,109 547,213 189,104 390,249 552,402 162,153 286,316 397,492 111,176 210,367 284,573 74,206 123,429 129,676 5,247 -34,519 -120,797 -86,279 -220,564 -413,813 -192,249 -443,460 -674,610 -231,150 -443,238 -720,286 -277,48 -619,55 -880,32 -261,-23 -441,-76 -614,-150 -173,-74 -339,-169 -517,-311 -178,-142 -369,-330 -512,-512 -143,-182 -238,-357 -319,-564 -81,-207 -148,-447 -185,-680 -37,-233 -44,-459 4,-718 48,-259 150,-552 296,-803 146,-250 337,-459 564,-633 228,-175 492,-316 711,-407 219,-92 392,-134 536,-162 145,-28 261,-42 413,-35z"/>
  <path class="fil1" d="M10421 2935c189,35 422,106 626,208 205,102 381,236 526,383 145,146 258,305 347,489 90,183 157,392 190,586 33,194 33,374 10,584 -23,210 -68,450 -158,676 -90,226 -224,437 -354,594 -131,157 -258,259 -418,365 -161,106 -355,215 -563,279 -208,64 -430,81 -656,65 -226,-16 -456,-65 -674,-157 -219,-92 -426,-226 -601,-392 -174,-166 -316,-363 -421,-556 -106,-192 -176,-379 -225,-565 -49,-186 -76,-370 -74,-554 2,-183 34,-366 86,-543 52,-178 125,-350 229,-499 104,-148 238,-272 372,-390 134,-118 268,-231 411,-323 143,-92 295,-162 441,-206 146,-44 288,-62 430,-71 143,-9 288,-9 476,26z"/>
  <path class="fil2" d="M6220 11114c55,58 58,182 60,258 2,76 2,104 51,120 49,16 148,19 415,32 266,12 700,34 931,53 231,19 259,37 270,65 11,28 4,67 -492,88 -496,21 -1480,25 -2189,28 -709,4 -1143,7 -1362,-2 -219,-9 -222,-30 -220,-55 2,-25 9,-53 86,-74 78,-21 226,-35 480,-53 254,-18 614,-39 801,-60 187,-21 201,-42 210,-91 9,-49 12,-125 14,-179 2,-55 2,-88 26,-113 25,-25 74,-43 187,-52 113,-9 289,-9 430,-12 141,-4 247,-11 302,48z"/>
  <path class="fil3" d="M8849 11169c178,-53 308,-158 372,-280 65,-122 65,-262 65,-753 0,-491 0,-1334 0,-1975 0,-640 0,-1078 0,-1334 0,-256 0,-330 -3,-400 -3,-71 -10,-138 -64,-173 -54,-36 -154,-40 -1137,-31 -982,9 -2847,31 -3989,44 -1143,13 -1563,18 -1790,44 -226,26 -258,73 -287,129 -28,55 -53,118 -57,390 -4,272 12,753 21,1440 8,687 8,1579 31,2076 23,497 69,598 100,672 31,74 47,121 126,151 79,30 220,43 1227,49 1007,6 2880,5 3930,4 1050,-1 1276,-1 1454,-53z"/>
  <path class="fil0" d="M4574 10988c50,-2 118,-2 165,-1 47,1 74,4 92,11 18,8 26,20 29,34 3,13 0,27 -23,36 -22,9 -64,13 -124,13 -60,0 -138,-4 -184,-9 -46,-5 -61,-13 -71,-22 -10,-9 -15,-20 -13,-29 1,-9 9,-16 28,-22 19,-5 51,-9 101,-11z"/>
  <polyline class="fil4 str0" points="10088,5025 11152,4308 11056,4634 "/>
  <line class="fil4 str0" x1="11152" y1="4308" x2="10869" y2= "4308" />
  <path class="fil5" d="M10110 6665c18,0 35,2 47,26 11,24 17,69 18,127 1,58 -3,128 -12,177 -10,49 -26,76 -44,85 -19,9 -40,0 -54,-42 -14,-42 -21,-117 -23,-174 -2,-57 2,-95 5,-125 4,-29 7,-50 18,-61 11,-11 28,-14 46,-14z"/>
  <path class="fil5" d="M10080 3392c18,0 35,-2 47,-26 11,-24 17,-69 18,-127 1,-58 -3,-128 -12,-177 -10,-49 -26,-76 -44,-85 -19,-9 -40,0 -54,42 -14,42 -21,117 -23,174 -2,57 2,95 5,125 4,29 7,50 18,61 11,11 28,14 46,14z"/>
  <path class="fil3" d="M10100 3604c15,74 35,219 59,434 25,215 54,501 70,689 17,187 21,276 9,338 -12,62 -40,99 -84,113 -44,14 -104,7 -147,-10 -43,-17 -68,-45 -78,-79 -10,-35 -5,-77 16,-304 21,-227 57,-640 78,-874 21,-234 27,-291 32,-326 5,-35 9,-49 16,-54 7,-5 16,-1 30,74z"/>
  <path class="fil5" d="M11728 5011c0,-18 2,-35 26,-47 24,-11 69,-17 127,-18 58,-1 128,3 177,12 49,10 76,26 85,44 9,19 0,40 -42,54 -42,14 -117,21 -174,23 -57,2 -95,-2 -125,-5 -29,-4 -50,-7 -61,-18 -11,-11 -14,-28 -14,-46z"/>
  <path class="fil5" d="M8456 5041c0,-18 -2,-35 -26,-47 -24,-11 -69,-17 -127,-18 -58,-1 -128,3 -177,12 -49,10 -76,26 -85,44 -9,19 0,40 42,54 42,14 117,21 174,23 57,2 95,-2 125,-5 29,-4 50,-7 61,-18 11,-11 14,-28 14,-46z"/>
  <path class="fil6 str1" d="M8835 6927c22,325 36,953 50,1527 14,573 28,1092 23,1422 -5,330 -30,471 -62,566 -32,95 -71,145 -753,185 -683,41 -2009,72 -3002,90 -993,18 -1653,21 -2027,26 -374,5 -462,12 -526,-26 -64,-39 -102,-123 -131,-342 -28,-219 -46,-571 -60,-1185 -14,-614 -25,-1489 -26,-1956 -2,-467 5,-527 39,-572 34,-44 93,-72 492,-95 399,-23 1136,-41 2072,-47 936,-7 2070,-2 2707,0 637,2 776,2 880,8 104,6 173,18 223,35 49,17 79,40 101,365z"/>
  <path class="fil1" d="M7230 6683c-840,5 -2466,26 -3343,37 -877,11 -1004,11 -1104,26 -101,16 -175,48 -215,90 -41,42 -48,95 -62,261 -14,166 -35,445 -41,654 -5,210 5,351 12,496 7,145 11,293 19,476 9,183 23,402 39,393 16,-9 34,-245 62,-533 28,-288 67,-626 109,-875 42,-249 88,-407 155,-504 67,-97 155,-132 425,-182 270,-49 721,-113 1386,-155 665,-42 1543,-63 2103,-76 559,-12 799,-16 979,-30 180,-14 300,-39 333,-56 34,-18 -19,-28 -859,-23z"/>
  <path class="fil1" d="M2494 2793c190,-47 602,-74 879,-66 277,8 420,52 484,99 63,47 47,96 -11,165 -58,69 -157,157 -269,247 -113,91 -239,184 -330,264 -91,80 -146,146 -184,206 -38,60 -60,115 -69,157 -8,41 -3,69 47,82 49,14 143,14 261,16 118,3 261,8 401,11 140,3 277,3 349,19 71,16 77,49 80,102 3,52 3,124 -49,159 -52,36 -157,36 -404,38 -247,3 -637,8 -854,-3 -217,-11 -261,-38 -288,-85 -27,-47 -38,-113 -33,-201 5,-88 27,-198 102,-310 74,-113 201,-228 338,-346 137,-118 286,-239 316,-310 30,-71 -58,-93 -181,-91 -124,3 -283,30 -393,38 -110,8 -170,-3 -214,-8 -44,-5 -71,-5 -102,-38 -30,-33 -63,-99 126,-146z"/>
  <path class="fil1" d="M4514 3916c52,-14 154,-5 280,-3 126,3 277,0 359,26 81,26 92,81 58,133 -34,52 -114,102 -195,163 -81,62 -163,136 -227,198 -63,62 -107,111 -106,140 1,29 48,37 136,38 88,1 217,-4 297,-6 80,-1 110,1 124,19 14,18 11,51 7,87 -4,36 -10,74 -58,82 -48,8 -139,-14 -269,-22 -131,-8 -301,-3 -393,-33 -92,-30 -106,-96 -102,-155 4,-59 26,-111 106,-185 80,-74 217,-170 299,-243 82,-73 110,-122 92,-137 -18,-15 -81,4 -154,7 -73,3 -155,-11 -209,-18 -54,-7 -78,-7 -89,-25 -11,-18 -8,-54 44,-67z"/>
  <path class="fil1" d="M5753 4726c65,-4 190,3 291,11 102,8 180,18 192,39 12,21 -43,54 -111,113 -68,59 -149,144 -196,196 -47,52 -59,69 -49,80 10,11 41,15 95,19 54,3 129,6 181,10 52,4 79,10 92,27 13,18 12,48 5,69 -7,21 -19,32 -84,31 -65,-1 -181,-13 -271,-23 -89,-10 -151,-19 -182,-43 -31,-24 -31,-64 -5,-114 26,-50 78,-111 128,-161 49,-51 96,-92 112,-117 16,-25 1,-35 -42,-42 -43,-7 -113,-11 -155,-16 -43,-5 -58,-12 -65,-20 -8,-8 -8,-16 -5,-27 2,-12 6,-27 71,-31z"/>
 </g>
</svg>
