<?xml version="1.0" encoding="UTF-8"?>
<!DOCTYPE svg PUBLIC "-//W3C//DTD SVG 1.1//EN" "http://www.w3.org/Graphics/SVG/1.1/DTD/svg11.dtd">
<!-- Creator: CorelDRAW 2017 -->
<svg xmlns="http://www.w3.org/2000/svg" xml:space="preserve" width="143mm" height="143mm" version="1.1" style="shape-rendering:geometricPrecision; text-rendering:geometricPrecision; image-rendering:optimizeQuality; fill-rule:evenodd; clip-rule:evenodd"
viewBox="0 0 14300 14300"
 xmlns:xlink="http://www.w3.org/1999/xlink">
 <defs>
  <style type="text/css">
   <![CDATA[
    .fil1 {fill:black}
    .fil0 {fill:#3D9984}
    .fil6 {fill:gray}
    .fil2 {fill:#A60000}
    .fil3 {fill:#CCCCCC}
    .fil4 {fill:#FFD663}
    .fil5 {fill:white}
   ]]>
  </style>
 </defs>
 <g id="Слой_x0020_1">
  <metadata id="CorelCorpID_0Corel-Layer"/>
  <path class="fil0" d="M11951 10071c298,2 1078,108 1274,-308 196,-416 -192,-1354 -488,-2160 -296,-806 -500,-1480 -713,-2071 -213,-592 -434,-1102 -779,-1304 -345,-202 -814,-96 -1146,-178 -332,-82 -528,-351 -707,-601 -179,-250 -341,-481 -558,-707 -217,-226 -490,-447 -750,-553 -260,-106 -507,-96 -822,-14 -315,82 -699,236 -1035,423 -336,188 -626,409 -877,611 -251,202 -464,385 -699,467 -234,82 -490,63 -669,154 -179,91 -281,294 -341,481 -60,188 -77,361 -192,486 -115,125 -328,202 -460,327 -132,125 -183,298 -319,775 -136,476 -358,1256 -690,1920 -332,664 -775,1213 -794,1576 -19,363 385,541 886,840 500,298 1097,717 2217,854 1120,137 2764,-7 4287,-17 1523,-10 2924,115 3478,5 554,-111 260,-457 21,-681 -239,-224 -422,-325 -124,-322z"/>
  <path class="fil1" d="M11288 7059c27,-34 42,-81 33,-158 -9,-77 -43,-184 -124,-303 -81,-119 -210,-249 -337,-339 -127,-90 -253,-138 -490,-198 -238,-60 -587,-132 -838,-172 -251,-39 -402,-46 -801,-65 -399,-18 -1046,-48 -1633,-63 -587,-15 -1114,-14 -1500,6 -386,21 -631,62 -847,107 -216,46 -405,96 -566,158 -161,63 -295,138 -410,241 -115,102 -211,232 -254,330 -42,98 -31,164 0,210 31,46 83,72 142,50 59,-22 126,-94 233,-188 107,-94 253,-211 473,-312 220,-100 512,-184 885,-238 372,-54 824,-79 1373,-78 549,2 1195,30 1705,85 510,54 885,135 1225,206 340,72 645,134 873,203 228,69 379,144 485,226 107,82 169,169 207,232 38,63 50,100 76,108 25,8 64,-14 91,-49z"/>
  <path class="fil2" d="M10745 9085c349,26 754,19 1135,61 381,42 737,132 798,261 61,129 -173,296 -646,380 -473,84 -1184,84 -1498,130 -314,46 -230,138 -213,226 17,88 -33,172 -335,226 -301,54 -853,79 -1686,84 -832,4 -1945,-13 -2635,-33 -690,-21 -958,-46 -1083,-113 -125,-67 -109,-176 -205,-247 -96,-71 -305,-105 -653,-138 -347,-33 -832,-67 -1209,-130 -376,-63 -644,-155 -782,-247 -138,-92 -146,-184 -96,-272 50,-88 159,-171 318,-234 159,-63 368,-105 761,-134 393,-29 970,-46 1987,-38 1016,8 2472,42 3397,59 924,17 1318,17 1661,46 343,29 636,88 985,114z"/>
  <path class="fil3" d="M9515 5998c320,42 805,117 1113,247 308,131 439,317 593,602 154,285 331,667 443,1083 112,415 159,863 89,1130 -70,266 -257,350 -700,387 -443,37 -1144,28 -2138,19 -994,-9 -2282,-19 -3225,-23 -943,-5 -1540,-5 -1956,-28 -415,-23 -649,-70 -784,-177 -135,-107 -173,-275 -121,-607 51,-331 191,-826 378,-1251 187,-425 420,-779 700,-1013 280,-233 607,-345 1083,-415 476,-70 1101,-98 1671,-98 569,0 1083,28 1445,47 362,19 572,28 754,37 182,9 336,19 656,61z"/>
  <path class="fil1" d="M7791 4575c121,60 287,158 448,303 161,146 317,340 484,573 167,233 344,506 525,890 181,384 365,879 504,1334 139,455 232,870 286,1164 54,293 68,464 63,568 -5,104 -28,141 -143,159 -116,18 -323,18 -473,14 -149,-5 -240,-14 -291,-54 -50,-40 -60,-110 -118,-537 -58,-427 -166,-1211 -288,-1848 -123,-637 -260,-1127 -393,-1456 -133,-329 -261,-497 -384,-638 -123,-141 -239,-256 -373,-324 -134,-69 -286,-92 -441,-55 -155,37 -314,135 -450,247 -137,112 -251,238 -350,385 -99,147 -183,315 -294,688 -111,373 -249,952 -362,1499 -113,547 -202,1063 -254,1404 -53,341 -69,506 -84,603 -15,97 -29,125 -179,132 -149,7 -434,-7 -586,-18 -152,-10 -170,-17 -182,-60 -12,-42 -16,-119 5,-288 21,-169 68,-431 177,-839 110,-408 282,-964 452,-1431 169,-467 335,-845 538,-1170 203,-326 443,-599 641,-803 197,-204 351,-340 497,-424 146,-84 284,-117 407,-128 124,-12 233,-2 327,13 93,15 170,36 292,96z"/>
  <path class="fil3" d="M8045 4551c58,44 100,103 92,180 -8,77 -67,173 -131,229 -64,56 -134,72 -216,43 -83,-29 -178,-103 -267,-150 -89,-46 -170,-65 -264,-56 -93,9 -198,47 -277,90 -78,43 -130,92 -180,112 -50,20 -100,10 -150,-30 -50,-39 -100,-108 -137,-157 -37,-49 -61,-77 -62,-113 0,-35 23,-77 119,-136 96,-58 264,-133 422,-173 159,-40 308,-44 447,-29 139,15 267,50 369,83 102,33 176,63 235,107z"/>
  <path class="fil4" d="M8437 5713c101,-13 271,-24 405,-17 134,7 233,33 299,88 66,55 98,139 126,230 28,91 51,189 -21,247 -72,58 -240,77 -379,86 -139,9 -249,9 -323,-22 -75,-31 -114,-95 -152,-183 -37,-89 -72,-203 -92,-272 -20,-69 -25,-92 -11,-111 14,-19 46,-33 147,-46z"/>
  <path class="fil4" d="M5866 5704c-138,-7 -253,-16 -324,-2 -71,14 -99,51 -139,131 -40,79 -91,201 -122,282 -32,82 -43,124 -32,163 11,40 45,77 156,98 111,21 298,26 427,27 129,1 199,-1 250,-20 51,-19 84,-54 114,-138 30,-84 58,-217 80,-313 22,-96 37,-154 -37,-186 -74,-31 -236,-36 -374,-43z"/>
  <path class="fil5" d="M6072 5812c-81,-14 -250,-23 -355,-28 -105,-5 -146,-5 -179,15 -33,20 -57,60 -93,137 -36,77 -84,191 -97,256 -14,65 7,82 45,35 39,-47 96,-158 150,-226 54,-68 106,-94 170,-109 65,-15 144,-19 208,-22 65,-3 115,-5 150,-6 34,-1 52,-2 64,-11 12,-9 18,-27 -64,-40z"/>
  <path class="fil5" d="M8965 5796c-106,-4 -309,-12 -426,-10 -118,2 -150,14 -154,51 -4,38 21,101 47,172 26,71 53,150 75,191 23,41 41,44 49,5 8,-39 5,-120 7,-179 2,-59 8,-96 65,-123 58,-28 167,-46 245,-56 78,-10 124,-12 155,-18 31,-6 47,-17 50,-23 3,-6 -7,-7 -113,-11z"/>
  <path class="fil1" d="M4579 5914c20,17 52,40 68,75 17,36 19,85 -25,128 -44,44 -134,82 -194,105 -60,23 -91,32 -117,-4 -26,-36 -48,-115 -54,-168 -6,-53 5,-79 43,-101 38,-22 104,-40 149,-51 45,-12 69,-17 85,-14 16,3 24,13 44,30z"/>
  <path class="fil1" d="M4533 6147c24,9 56,29 86,102 30,73 57,198 71,305 14,107 15,196 -5,261 -20,65 -62,107 -116,118 -53,11 -118,-9 -161,-52 -43,-43 -64,-109 -63,-190 1,-82 24,-179 44,-257 20,-79 36,-139 45,-175 10,-36 13,-48 18,-63 5,-15 12,-33 17,-42 5,-10 8,-12 17,-14 9,-2 24,-3 47,7z"/>
  <path class="fil6" d="M4447 6325c-14,44 -35,137 -46,209 -11,72 -12,122 -10,166 2,44 5,82 20,112 15,30 42,53 62,65 20,12 33,14 34,-11 1,-25 -11,-78 -20,-134 -9,-56 -16,-114 -19,-168 -3,-54 -1,-102 1,-141 2,-39 5,-68 6,-88 1,-20 -2,-30 -5,-39 -4,-8 -10,-15 -23,29z"/>
  <path class="fil6" d="M8817 6793c48,330 174,998 257,1492 84,495 125,817 161,985 36,169 65,184 121,191 56,8 140,9 159,-54 19,-63 -27,-189 -117,-596 -90,-406 -224,-1092 -321,-1514 -97,-421 -158,-578 -193,-671 -36,-93 -46,-122 -66,-140 -20,-18 -49,-24 -1,306z"/>
  <path class="fil6" d="M5307 6962c-59,246 -158,626 -246,996 -88,369 -166,727 -201,978 -36,251 -29,395 -45,473 -16,77 -53,88 -106,90 -52,2 -119,-4 -151,-59 -31,-54 -27,-157 54,-494 82,-337 241,-908 380,-1345 139,-437 258,-740 323,-903 65,-162 75,-183 72,-138 -4,45 -21,156 -80,402z"/>
  <path class="fil5" d="M7824 4565c-103,-16 -278,-43 -469,-15 -191,28 -399,111 -520,163 -120,53 -153,76 -192,63 -39,-13 -85,-62 -99,-95 -14,-33 5,-50 79,-88 74,-38 202,-98 322,-135 120,-38 231,-53 328,-56 97,-3 181,6 272,25 91,18 189,45 273,73 84,28 153,56 179,72 26,16 9,19 -15,17 -24,-1 -55,-7 -158,-23z"/>
  <path class="fil2" d="M6286 5990c-1,61 -5,167 -9,246 -4,78 -8,128 -13,183 -5,55 -11,115 -69,136 -58,22 -168,6 -237,-8 -69,-15 -97,-28 -125,-19 -28,9 -56,42 -73,76 -17,34 -22,70 -39,83 -17,14 -45,5 -68,-10 -24,-16 -42,-39 -49,-64 -7,-26 -2,-54 -21,-76 -19,-22 -63,-39 -106,-59 -42,-19 -83,-41 -121,-70 -38,-28 -74,-63 -92,-88 -18,-26 -18,-42 -10,-43 8,-1 24,15 51,31 27,16 66,31 128,39 62,8 146,8 227,8 81,0 157,0 220,-3 63,-3 112,-8 153,-30 41,-22 73,-61 96,-104 22,-43 35,-90 50,-140 15,-50 33,-104 53,-141 20,-37 41,-59 57,-70 16,-11 26,-11 24,-4 -1,7 -14,20 -19,35 -5,15 -4,31 -5,92z"/>
  <path class="fil2" d="M5672 7052c9,40 14,113 19,176 5,63 10,115 1,156 -10,41 -35,72 -61,78 -26,7 -53,-10 -70,-43 -17,-33 -23,-82 -12,-135 11,-53 39,-109 54,-147 15,-38 17,-58 21,-78 4,-20 9,-41 18,-48 9,-7 21,1 30,41z"/>
  <path class="fil2" d="M10713 10396c126,-25 347,-71 577,-62 230,9 469,74 587,136 118,62 116,120 -42,135 -158,15 -472,-15 -739,-36 -268,-21 -489,-33 -609,-49 -119,-16 -136,-35 -112,-50 24,-16 89,-28 136,-37 47,-8 76,-13 202,-38z"/>
  <path class="fil2" d="M12441 9813c56,-13 136,-27 222,-23 86,4 178,27 209,43 31,16 2,24 -100,25 -102,1 -278,-5 -349,-14 -71,-8 -38,-19 19,-31z"/>
  <path class="fil5" d="M3958 6482c-88,83 -203,202 -348,442 -145,241 -321,602 -439,942 -118,340 -179,658 -206,845 -27,187 -21,244 13,154 33,-90 94,-326 199,-606 105,-279 253,-601 413,-868 160,-267 332,-478 452,-634 120,-156 189,-258 201,-324 13,-66 -31,-96 -83,-88 -52,8 -113,54 -201,136z"/>
 </g>
</svg>
