<?xml version="1.0" encoding="UTF-8"?>
<!DOCTYPE svg PUBLIC "-//W3C//DTD SVG 1.1//EN" "http://www.w3.org/Graphics/SVG/1.1/DTD/svg11.dtd">
<!-- Creator: CorelDRAW 2017 -->
<svg xmlns="http://www.w3.org/2000/svg" xml:space="preserve" width="143mm" height="143mm" version="1.1" style="shape-rendering:geometricPrecision; text-rendering:geometricPrecision; image-rendering:optimizeQuality; fill-rule:evenodd; clip-rule:evenodd"
viewBox="0 0 14300 14300"
 xmlns:xlink="http://www.w3.org/1999/xlink">
 <defs>
  <style type="text/css">
   <![CDATA[
    .str1 {stroke:white;stroke-width:100}
    .str0 {stroke:black;stroke-width:25}
    .fil5 {fill:none;fill-rule:nonzero}
    .fil3 {fill:black}
    .fil0 {fill:#7BAD52}
    .fil7 {fill:red}
    .fil4 {fill:black;fill-rule:nonzero}
    .fil1 {fill:black;fill-rule:nonzero}
    .fil6 {fill:white;fill-rule:nonzero}
    .fil2 {fill:white;fill-rule:nonzero}
   ]]>
  </style>
 </defs>
 <g id="Слой_x0020_1">
  <metadata id="CorelCorpID_0Corel-Layer"/>
  <path class="fil0" d="M10070 1589c410,109 1017,406 1490,876 473,470 812,1112 1031,1720 219,607 318,1180 219,1787 -99,607 -396,1250 -908,1720 -512,470 -1240,766 -1649,925 -410,159 -502,180 -505,406 -4,226 81,657 57,1187 -25,530 -159,1158 -487,1628 -328,470 -851,781 -1508,936 -657,155 -1448,155 -2074,-61 -626,-216 -1087,-649 -1349,-1200 -261,-551 -323,-1220 -78,-1837 245,-617 796,-1182 1272,-1521 477,-339 879,-452 996,-685 117,-233 -53,-586 -189,-1035 -136,-449 -240,-992 -154,-1566 85,-574 360,-1178 698,-1649 339,-471 742,-809 1137,-1051 395,-242 782,-388 1081,-499 299,-112 511,-189 921,-80z"/>
  <path class="fil0" d="M1870 5972c-157,143 -249,391 -168,691 80,300 333,651 658,867 325,216 724,296 1115,325 391,29 775,7 1115,-82 340,-90 636,-247 1019,-302 382,-55 850,-7 1139,4 289,11 399,-15 358,-353 -40,-338 -230,-989 -406,-1355 -176,-366 -337,-446 -520,-496 -183,-49 -387,-68 -568,-31 -181,37 -338,128 -557,236 -219,108 -501,232 -713,219 -212,-13 -355,-163 -655,-176 -300,-13 -757,112 -1097,192 -340,80 -563,117 -720,260z"/>
  <path class="fil1" d="M9923 7992c-384,138 -744,199 -1137,199 -1848,0 -3348,-1499 -3348,-3348 0,-1848 1499,-3348 3348,-3348 1848,0 3348,1499 3348,3348 0,979 -423,1863 -1092,2474 588,372 1175,744 1763,1116 -2882,-441 -1921,-294 -2882,-441z"/>
  <path class="fil2" d="M4696 12373c397,144 779,207 1191,207 1735,0 3142,-1241 3142,-2772 0,-1530 -1407,-2772 -3142,-2772 -1735,0 -3142,1241 -3142,2772 0,769 355,1466 929,1968 -506,237 -1012,473 -1518,710 2540,-113 1694,-75 2540,-113z"/>
  <path class="fil3" d="M6485 8465c234,-6 724,69 1048,151 323,82 479,170 541,241 62,71 30,125 -56,190 -85,66 -224,143 -380,220 -156,77 -328,154 -455,224 -127,70 -208,133 -269,194 -61,61 -101,120 -121,166 -20,46 -21,80 33,109 54,29 164,53 302,87 138,34 304,77 467,117 164,40 325,75 404,113 79,38 77,78 67,140 -10,62 -29,146 -99,174 -70,28 -193,1 -483,-60 -291,-61 -749,-156 -1001,-225 -252,-69 -296,-113 -316,-175 -20,-62 -16,-142 13,-244 29,-102 84,-225 200,-337 116,-113 294,-215 486,-318 192,-103 397,-206 451,-282 54,-76 -43,-124 -189,-153 -146,-29 -340,-38 -470,-57 -131,-19 -199,-47 -249,-65 -50,-18 -82,-25 -109,-71 -27,-46 -48,-132 186,-138z"/>
  <path class="fil3" d="M5044 9641c65,-3 182,34 329,70 147,36 325,72 413,124 88,52 87,119 33,171 -54,52 -160,90 -271,141 -111,51 -227,117 -317,173 -90,56 -154,103 -160,137 -6,34 47,56 149,80 103,24 255,52 349,71 94,19 128,30 140,55 11,25 0,62 -14,103 -14,41 -31,84 -89,82 -59,-3 -159,-52 -310,-96 -151,-44 -352,-81 -452,-141 -100,-59 -99,-140 -79,-208 20,-68 59,-124 172,-190 113,-66 299,-143 414,-207 116,-64 161,-115 144,-137 -17,-22 -96,-16 -182,-32 -86,-16 -179,-53 -240,-75 -61,-22 -90,-28 -98,-52 -8,-24 4,-65 69,-67z"/>
  <path class="fil3" d="M4115 10731c77,12 221,52 338,88 117,36 206,68 214,96 8,28 -65,52 -160,104 -95,52 -212,130 -280,179 -68,48 -87,66 -79,81 8,15 44,28 106,46 62,18 150,41 209,59 59,18 90,32 101,56 11,24 1,59 -12,82 -13,22 -31,32 -106,14 -75,-18 -209,-62 -311,-98 -102,-35 -172,-61 -202,-97 -30,-36 -20,-83 24,-135 44,-52 120,-109 192,-156 71,-47 137,-83 162,-109 25,-26 10,-41 -38,-60 -48,-19 -129,-42 -178,-60 -48,-17 -64,-29 -71,-40 -7,-11 -5,-20 1,-34 5,-13 14,-30 91,-18z"/>
  <path class="fil4" d="M5470 11828c-73,12 -116,-18 -129,-91 -12,-73 18,-116 91,-129 74,-12 117,18 129,91 12,73 -18,116 -91,129z"/>
  <path id="1" class="fil4" d="M6082 11727c-73,12 -116,-18 -129,-91 -12,-73 18,-116 91,-129 74,-12 117,18 129,91 12,73 -18,116 -91,129z"/>
  <path id="2" class="fil4" d="M6694 11626c-73,12 -116,-18 -129,-91 -12,-73 18,-116 91,-129 74,-12 117,18 129,91 12,73 -18,116 -91,129z"/>
  <path id="3" class="fil5 str0" d="M5470 11828c-73,12 -116,-18 -129,-91 -12,-73 18,-116 91,-129 74,-12 117,18 129,91 12,73 -18,116 -91,129z"/>
  <path id="4" class="fil5 str0" d="M6082 11727c-73,12 -116,-18 -129,-91 -12,-73 18,-116 91,-129 74,-12 117,18 129,91 12,73 -18,116 -91,129z"/>
  <path id="5" class="fil5 str0" d="M6694 11626c-73,12 -116,-18 -129,-91 -12,-73 18,-116 91,-129 74,-12 117,18 129,91 12,73 -18,116 -91,129z"/>
  <path class="fil3" d="M1990 3874c-36,-1 -248,-235 -403,-445 -155,-211 -253,-398 -274,-488 -21,-90 36,-82 121,14 85,95 199,278 326,484 127,206 267,437 231,436z"/>
  <path class="fil3" d="M3811 3572c43,-190 193,-664 339,-985 146,-321 290,-488 354,-528 64,-39 50,49 -65,322 -115,273 -330,732 -469,1009 -139,277 -202,372 -158,182z"/>
  <path class="fil3" d="M4282 3798c110,-122 441,-428 636,-587 195,-159 253,-170 257,-142 4,28 -46,94 -185,222 -139,128 -367,318 -537,443 -170,126 -281,187 -171,64z"/>
  <path class="fil1" d="M4786 6003c-76,287 -210,526 -400,734 -651,712 -1756,761 -2467,111 -712,-651 -761,-1756 -111,-2467 651,-712 1756,-761 2467,-111 315,288 499,660 552,1054 442,-173 885,-346 1327,-519 -1369,1199 -912,799 -1369,1199z"/>
  <path class="fil6" d="M2520 5951c-39,5 -85,-121 -138,-378 -53,-257 -87,-440 -102,-548 -15,-108 16,-168 90,-178 74,-10 119,39 134,148 15,109 31,294 48,555 18,262 7,395 -32,401zm48 365c-69,9 -109,-20 -118,-89 -9,-68 21,-107 90,-117 69,-9 109,20 118,89 9,68 -21,107 -90,117z"/>
  <path id="1" class="fil6" d="M3090 5877c-39,5 -85,-121 -138,-378 -53,-257 -87,-440 -102,-548 -15,-108 16,-168 90,-178 74,-10 119,39 134,148 15,109 31,294 48,555 18,262 7,395 -32,401zm48 365c-69,9 -109,-20 -118,-89 -9,-68 21,-107 90,-117 69,-9 109,20 118,89 9,68 -21,107 -90,117z"/>
  <path id="2" class="fil6" d="M3661 5803c-39,5 -85,-121 -138,-378 -53,-257 -87,-440 -102,-548 -15,-108 16,-168 90,-178 74,-10 119,39 134,148 15,109 31,294 48,555 18,262 7,395 -32,401zm48 365c-69,9 -109,-20 -118,-89 -9,-68 21,-107 90,-117 69,-9 109,20 118,89 9,68 -21,107 -90,117z"/>
  <path id="3" class="fil5 str1" d="M2520 5951c-39,5 -85,-121 -138,-378 -53,-257 -87,-440 -102,-548 -15,-108 16,-168 90,-178 74,-10 119,39 134,148 15,109 31,294 48,555 18,262 7,395 -32,401zm48 365c-69,9 -109,-20 -118,-89 -9,-68 21,-107 90,-117 69,-9 109,20 118,89 9,68 -21,107 -90,117z"/>
  <path id="4" class="fil5 str1" d="M3090 5877c-39,5 -85,-121 -138,-378 -53,-257 -87,-440 -102,-548 -15,-108 16,-168 90,-178 74,-10 119,39 134,148 15,109 31,294 48,555 18,262 7,395 -32,401zm48 365c-69,9 -109,-20 -118,-89 -9,-68 21,-107 90,-117 69,-9 109,20 118,89 9,68 -21,107 -90,117z"/>
  <path id="5" class="fil5 str1" d="M3661 5803c-39,5 -85,-121 -138,-378 -53,-257 -87,-440 -102,-548 -15,-108 16,-168 90,-178 74,-10 119,39 134,148 15,109 31,294 48,555 18,262 7,395 -32,401zm48 365c-69,9 -109,-20 -118,-89 -9,-68 21,-107 90,-117 69,-9 109,20 118,89 9,68 -21,107 -90,117z"/>
  <path class="fil7" d="M9782 3191c48,70 37,127 51,190 14,63 52,132 120,184 68,52 167,87 271,107 104,19 213,23 284,49 71,26 102,76 69,120 -34,44 -132,83 -164,139 -32,56 4,131 51,205 48,74 108,148 127,229 19,81 -2,169 -34,225 -32,55 -76,78 -121,176 -45,98 -90,272 -123,383 -33,111 -53,160 -43,238 9,78 48,186 108,280 60,94 141,176 164,262 23,86 -12,178 -99,220 -86,42 -224,35 -335,-14 -111,-49 -196,-141 -263,-208 -67,-67 -116,-109 -152,-93 -35,16 -56,90 -55,143 2,53 26,85 28,123 2,38 -19,84 35,149 55,66 185,152 305,230 120,78 229,147 266,223 37,75 2,156 -62,200 -64,44 -155,51 -242,65 -86,14 -168,35 -234,61 -66,26 -118,56 -217,105 -99,49 -245,118 -344,94 -99,-24 -152,-140 -196,-248 -44,-108 -79,-206 -153,-268 -74,-62 -187,-86 -296,-85 -109,2 -215,30 -309,-30 -93,-60 -175,-208 -242,-368 -67,-160 -120,-330 -186,-445 -65,-115 -143,-173 -270,-204 -127,-31 -303,-35 -404,-50 -101,-16 -125,-44 -79,-113 46,-69 162,-178 282,-295 120,-116 243,-240 266,-356 23,-116 -55,-226 -143,-323 -88,-97 -187,-182 -194,-288 -7,-106 78,-233 192,-288 115,-55 259,-37 361,-65 101,-28 160,-102 223,-227 64,-125 132,-302 230,-399 98,-98 224,-116 332,-107 108,9 196,45 303,35 106,-10 230,-67 337,-107 108,-41 199,-65 299,-37 99,29 206,111 254,181z"/>
  <path class="fil3 str1" d="M9702 4459c33,1 85,35 154,104 69,69 155,173 206,255 51,82 67,143 62,197 -5,53 -29,98 -77,177 -47,79 -117,192 -159,273 -42,81 -55,131 -55,177 0,46 14,89 38,127 25,37 61,69 102,86 41,17 86,19 133,-12 47,-32 97,-97 160,-227 63,-130 140,-324 173,-467 33,-142 21,-233 -5,-350 -26,-117 -67,-262 -137,-382 -70,-120 -169,-215 -284,-308 -114,-94 -243,-186 -311,-244 -68,-58 -75,-80 -59,-107 16,-27 54,-59 98,-101 44,-42 94,-94 129,-155 35,-61 55,-131 72,-212 17,-81 31,-174 -5,-263 -35,-89 -119,-175 -202,-216 -84,-41 -167,-36 -247,5 -80,41 -157,117 -210,220 -53,103 -82,232 -86,333 -3,102 19,176 21,234 2,58 -16,98 -79,102 -63,3 -172,-30 -319,-71 -147,-41 -332,-88 -421,-125 -89,-37 -82,-64 -19,-110 63,-45 183,-108 279,-169 96,-61 168,-120 227,-185 59,-66 104,-138 105,-201 1,-63 -42,-117 -103,-133 -61,-16 -140,7 -274,93 -134,86 -324,235 -464,347 -140,112 -230,186 -285,255 -54,69 -72,132 -36,198 36,66 127,133 261,202 134,69 313,139 416,209 103,70 130,140 99,279 -31,139 -119,347 -202,490 -84,143 -163,223 -277,282 -114,60 -263,101 -360,145 -97,44 -142,92 -186,199 -44,107 -87,275 -134,412 -47,138 -99,246 -160,319 -61,72 -131,108 -198,127 -67,18 -130,18 -169,49 -40,31 -55,92 -11,147 44,55 148,105 270,136 122,31 262,42 352,-6 90,-47 131,-154 186,-299 55,-146 125,-331 189,-451 63,-120 120,-174 185,-216 66,-42 140,-71 238,-104 98,-33 220,-69 284,-71 63,-2 68,29 63,114 -5,85 -18,223 -31,338 -12,115 -24,208 0,285 24,77 82,138 209,237 127,99 321,237 428,326 107,89 128,130 131,186 3,56 -10,129 -16,191 -6,62 -3,114 18,155 21,41 62,70 114,63 52,-7 115,-50 184,-145 69,-95 143,-242 186,-336 43,-94 54,-134 5,-201 -50,-67 -160,-159 -287,-260 -127,-101 -269,-209 -355,-282 -86,-73 -115,-112 -127,-171 -11,-59 -5,-138 42,-275 46,-137 132,-331 203,-512 71,-181 128,-348 169,-453 42,-105 69,-148 89,-185 20,-37 34,-69 67,-68z"/>
  <path class="fil7" d="M10938 3655c71,-41 168,-92 250,-117 82,-26 149,-26 190,-6 41,19 55,58 42,97 -12,39 -51,78 -131,105 -80,27 -202,43 -295,45 -93,2 -156,-11 -165,-32 -9,-21 37,-51 108,-92z"/>
  <path class="fil7" d="M10798 6348c50,14 106,44 138,72 32,27 40,52 33,79 -7,27 -29,58 -74,50 -45,-8 -114,-53 -157,-94 -43,-41 -61,-79 -47,-98 13,-20 58,-22 108,-8z"/>
  <path class="fil7" d="M10758 4107c57,-34 135,-71 204,-78 69,-7 129,16 161,49 32,33 35,75 -35,100 -71,25 -215,32 -304,34 -89,2 -123,-2 -121,-19 2,-18 39,-49 96,-84z"/>
  <path class="fil6" d="M6696 4444c-58,8 -88,6 -90,-6 -2,-12 -3,-21 -4,-27 -1,-6 -4,-27 -8,-62 -5,-36 -4,-67 3,-94 6,-27 12,-51 17,-71 5,-20 14,-42 28,-63 14,-22 25,-41 36,-57 10,-16 43,-56 98,-119 55,-64 90,-113 104,-148 14,-35 20,-63 17,-82 -3,-19 -6,-47 -11,-82 -5,-35 -38,-75 -100,-121 -62,-46 -113,-66 -153,-61 -40,5 -79,11 -117,16 -39,5 -80,35 -125,90 -45,55 -68,109 -69,161 -1,52 -33,79 -96,80 -63,1 -95,-33 -96,-103 -1,-70 35,-146 108,-230 73,-84 143,-130 211,-140 68,-9 138,-19 209,-28 72,-10 156,19 252,85 96,67 148,128 155,183 8,56 13,99 18,131 4,32 -5,77 -28,135 -23,58 -54,109 -92,154 -38,45 -71,82 -97,112 -26,30 -46,59 -61,86 -15,27 -24,57 -28,91 -4,33 -4,68 0,104 4,36 -22,58 -80,66zm54 361c-68,9 -107,-20 -117,-89 -9,-68 20,-107 89,-117 68,-9 107,20 116,89 9,68 -20,107 -89,116z"/>
  <path id="1" class="fil5 str1" d="M6696 4444c-58,8 -88,6 -90,-6 -2,-12 -3,-21 -4,-27 -1,-6 -4,-27 -8,-62 -5,-36 -4,-67 3,-94 6,-27 12,-51 17,-71 5,-20 14,-42 28,-63 14,-22 25,-41 36,-57 10,-16 43,-56 98,-119 55,-64 90,-113 104,-148 14,-35 20,-63 17,-82 -3,-19 -6,-47 -11,-82 -5,-35 -38,-75 -100,-121 -62,-46 -113,-66 -153,-61 -40,5 -79,11 -117,16 -39,5 -80,35 -125,90 -45,55 -68,109 -69,161 -1,52 -33,79 -96,80 -63,1 -95,-33 -96,-103 -1,-70 35,-146 108,-230 73,-84 143,-130 211,-140 68,-9 138,-19 209,-28 72,-10 156,19 252,85 96,67 148,128 155,183 8,56 13,99 18,131 4,32 -5,77 -28,135 -23,58 -54,109 -92,154 -38,45 -71,82 -97,112 -26,30 -46,59 -61,86 -15,27 -24,57 -28,91 -4,33 -4,68 0,104 4,36 -22,58 -80,66zm54 361c-68,9 -107,-20 -117,-89 -9,-68 20,-107 89,-117 68,-9 107,20 116,89 9,68 -20,107 -89,116z"/>
 </g>
</svg>
