<?xml version="1.0" encoding="UTF-8"?>
<!DOCTYPE svg PUBLIC "-//W3C//DTD SVG 1.1//EN" "http://www.w3.org/Graphics/SVG/1.1/DTD/svg11.dtd">
<!-- Creator: CorelDRAW 2017 -->
<svg xmlns="http://www.w3.org/2000/svg" xml:space="preserve" width="143mm" height="143mm" version="1.1" style="shape-rendering:geometricPrecision; text-rendering:geometricPrecision; image-rendering:optimizeQuality; fill-rule:evenodd; clip-rule:evenodd"
viewBox="0 0 14300 14300"
 xmlns:xlink="http://www.w3.org/1999/xlink">
 <defs>
  <style type="text/css">
   <![CDATA[
    .fil6 {fill:black}
    .fil2 {fill:#396912}
    .fil0 {fill:#419BE0}
    .fil5 {fill:#4D4D4D}
    .fil1 {fill:#5B962C}
    .fil3 {fill:#7BAD52}
    .fil7 {fill:gray}
    .fil4 {fill:#A5D673}
    .fil9 {fill:#CCCCCC}
    .fil8 {fill:red}
    .fil10 {fill:white}
   ]]>
  </style>
 </defs>
 <g id="Слой_x0020_1">
  <metadata id="CorelCorpID_0Corel-Layer"/>
  <path class="fil0" d="M11103 9372c399,24 1062,51 1439,93 377,42 469,100 381,196 -88,96 -356,230 -554,329 -198,99 -325,162 -310,226 14,64 169,127 261,194 92,67 120,138 -607,198 -727,60 -2208,109 -3090,131 -882,21 -1164,14 -1270,46 -106,32 -35,102 -99,190 -64,88 -261,194 -808,243 -547,49 -1443,42 -2247,11 -804,-32 -1517,-88 -1926,-173 -409,-85 -515,-198 -462,-318 53,-120 265,-247 370,-381 106,-134 106,-275 4,-356 -102,-81 -307,-102 -459,-141 -152,-39 -250,-95 -307,-176 -56,-81 -71,-187 106,-268 176,-81 543,-138 1369,-145 825,-7 2110,35 3443,49 1334,14 2716,0 3475,4 758,4 893,25 1291,49z"/>
  <g id="_2389571933456">
   <path class="fil1" d="M2883 7069c233,-203 681,-582 1028,-880 348,-297 596,-513 774,-667 177,-155 283,-248 358,-308 75,-60 121,-85 158,-79 37,6 66,43 209,223 143,181 401,505 525,679 124,174 114,198 -90,386 -204,188 -603,541 -981,863 -379,322 -738,613 -949,790 -211,177 -274,240 -328,273 -54,33 -98,36 -152,-6 -54,-42 -118,-129 -246,-286 -128,-157 -320,-385 -427,-519 -107,-134 -129,-174 -131,-207 -1,-33 18,-59 252,-261z"/>
   <path class="fil2" d="M3048 7105c13,11 31,41 44,78 13,37 23,81 24,123 1,42 -5,81 -18,116 -12,34 -30,63 -49,87 -18,24 -37,42 -58,39 -21,-3 -44,-28 -72,-63 -28,-35 -60,-81 -79,-113 -19,-31 -26,-47 -25,-63 1,-16 10,-31 39,-60 29,-30 79,-74 109,-100 30,-26 40,-33 50,-40 10,-7 20,-15 33,-3z"/>
   <path class="fil2" d="M3750 8012c-14,-16 -48,-43 -85,-60 -37,-17 -76,-23 -124,-18 -48,5 -106,20 -138,36 -33,16 -40,31 -35,50 6,19 25,41 46,65 21,24 45,50 66,66 21,16 38,22 63,18 25,-5 59,-21 92,-41 32,-21 63,-47 83,-62 20,-16 28,-21 34,-26 7,-5 12,-11 -2,-27z"/>
   <path class="fil2" d="M4049 6387c37,-25 76,-46 126,-62 50,-16 110,-26 173,-24 63,3 129,19 185,42 57,23 105,53 145,90 40,37 72,80 98,131 26,51 47,111 53,170 6,60 -4,119 -24,178 -20,59 -51,117 -84,162 -33,46 -69,79 -118,112 -48,32 -110,64 -175,79 -65,15 -134,14 -204,-3 -70,-17 -142,-48 -199,-88 -57,-40 -99,-88 -131,-146 -32,-58 -55,-126 -61,-197 -6,-71 3,-144 25,-204 21,-61 54,-109 87,-148 33,-39 67,-69 103,-94z"/>
   <path class="fil3" d="M4126 6483c18,-3 44,-19 67,-29 22,-10 41,-14 54,-9 13,6 21,22 30,40 9,18 19,38 15,49 -5,11 -24,13 -44,21 -19,7 -38,20 -56,35 -18,15 -35,31 -45,47 -11,16 -15,32 -10,46 5,14 19,27 36,34 18,7 39,8 65,-1 26,-8 55,-26 83,-39 28,-13 54,-20 79,-23 25,-3 50,-2 75,5 25,7 51,19 72,34 20,14 35,31 47,50 12,19 20,40 24,65 3,25 1,53 -7,80 -9,27 -24,52 -30,68 -7,16 -4,23 0,30 5,6 12,12 20,21 8,8 18,20 25,29 7,10 11,19 6,31 -5,12 -20,28 -35,31 -15,4 -30,-5 -41,-14 -11,-10 -19,-21 -27,-27 -8,-7 -18,-9 -28,-6 -10,3 -20,11 -39,23 -19,12 -46,27 -66,37 -20,10 -33,15 -43,7 -10,-7 -18,-26 -25,-41 -7,-16 -13,-29 -17,-39 -5,-10 -9,-18 2,-25 11,-7 37,-13 58,-22 21,-9 38,-20 53,-33 15,-12 30,-26 40,-42 10,-16 15,-36 11,-53 -3,-17 -14,-30 -39,-34 -25,-4 -64,1 -100,9 -36,8 -70,19 -95,25 -25,6 -41,5 -62,1 -21,-5 -46,-14 -67,-26 -21,-12 -37,-26 -51,-42 -14,-16 -27,-33 -37,-51 -10,-17 -17,-35 -16,-58 0,-23 8,-51 16,-72 8,-20 15,-32 19,-41 4,-9 4,-15 -2,-26 -6,-12 -19,-29 -25,-43 -6,-14 -5,-24 2,-35 7,-12 20,-25 30,-32 10,-7 16,-9 23,-3 6,6 13,19 21,30 8,11 18,20 36,17z"/>
   <path class="fil2" d="M3284 7879c-99,-122 -248,-299 -331,-403 -83,-104 -100,-135 -101,-161 -1,-26 14,-45 222,-221 208,-176 608,-507 904,-757 297,-249 490,-417 648,-555 159,-138 284,-247 364,-312 80,-64 115,-84 144,-80 29,4 51,33 162,173 111,140 311,392 408,527 96,135 89,153 -91,318 -180,164 -532,475 -847,743 -315,268 -594,494 -785,650 -190,156 -292,242 -360,286 -68,44 -102,46 -144,14 -42,-33 -92,-100 -191,-222zm1871 -2583c-32,-5 -71,17 -148,78 -77,61 -192,161 -357,304 -165,143 -381,330 -698,598 -317,268 -735,617 -952,803 -217,186 -234,208 -233,237 1,29 20,63 113,179 93,116 259,314 370,450 111,136 166,212 213,248 47,36 85,34 147,-5 62,-39 146,-113 344,-277 198,-164 510,-416 850,-704 340,-288 709,-613 898,-786 189,-173 197,-193 90,-344 -108,-151 -331,-432 -455,-589 -124,-157 -149,-189 -181,-194z"/>
   <path class="fil2" d="M4884 5533c8,15 34,38 67,59 34,21 75,39 116,49 41,10 81,11 117,6 36,-5 68,-17 95,-30 27,-13 49,-27 50,-49 1,-21 -18,-49 -47,-84 -29,-34 -68,-75 -94,-100 -27,-25 -41,-35 -57,-37 -16,-2 -32,3 -67,26 -35,23 -89,63 -120,87 -31,24 -40,33 -49,41 -9,8 -18,16 -10,32z"/>
   <path class="fil2" d="M5609 6409c-12,-18 -30,-57 -37,-97 -7,-40 -4,-79 13,-125 16,-46 45,-98 68,-125 23,-28 40,-31 57,-21 17,10 34,34 52,61 18,27 37,56 48,80 11,24 12,42 2,66 -11,24 -35,52 -63,79 -28,26 -61,50 -81,65 -20,15 -27,22 -34,27 -7,5 -13,9 -25,-9z"/>
  </g>
  <g id="_2389571947696">
   <path class="fil1" d="M1829 6090c299,-79 867,-224 1310,-338 443,-114 761,-199 988,-260 227,-61 363,-99 457,-119 94,-20 146,-24 176,-2 31,21 40,67 90,292 49,225 139,630 173,841 35,211 16,228 -251,307 -266,79 -779,222 -1261,344 -482,123 -932,226 -1200,293 -267,66 -352,95 -414,101 -63,6 -104,-11 -134,-72 -30,-61 -49,-167 -95,-365 -46,-198 -118,-487 -155,-654 -37,-167 -40,-213 -27,-243 13,-30 42,-45 341,-124z"/>
   <path class="fil2" d="M1962 6194c7,16 10,50 5,89 -4,39 -15,83 -32,121 -17,38 -41,71 -67,96 -26,25 -55,43 -82,57 -27,13 -51,22 -69,10 -17,-12 -28,-45 -37,-89 -9,-44 -18,-99 -21,-136 -4,-36 -2,-54 5,-67 8,-14 22,-23 62,-37 39,-14 104,-32 142,-42 38,-10 50,-12 62,-14 12,-2 24,-5 31,11z"/>
   <path class="fil2" d="M2194 7317c-6,-21 -24,-60 -50,-91 -26,-31 -58,-54 -104,-71 -45,-17 -104,-29 -140,-29 -36,0 -50,11 -53,30 -3,20 4,48 13,79 9,31 19,65 30,88 11,23 24,37 49,44 25,7 62,8 101,3 38,-5 77,-14 102,-20 24,-5 34,-7 42,-8 8,-2 16,-4 10,-25z"/>
   <path class="fil2" d="M3176 5988c44,-7 89,-8 140,0 52,8 111,25 166,55 55,30 107,73 148,119 41,46 71,94 91,145 20,51 30,104 31,161 1,58 -6,120 -27,176 -21,56 -56,105 -100,149 -44,44 -97,83 -147,109 -50,27 -97,41 -155,49 -58,8 -126,9 -192,-6 -65,-15 -126,-46 -182,-92 -56,-46 -107,-106 -140,-167 -34,-61 -51,-122 -54,-188 -4,-66 6,-137 31,-204 25,-66 66,-128 112,-173 46,-45 96,-74 143,-95 47,-20 90,-33 134,-39z"/>
   <path class="fil4" d="M3203 6109c18,5 48,3 73,3 25,1 43,5 53,16 9,11 9,29 10,50 0,20 1,43 -8,50 -9,8 -28,1 -48,-1 -21,-2 -43,1 -65,7 -22,5 -45,13 -62,23 -17,10 -27,22 -29,37 -2,15 5,33 18,46 13,14 32,24 59,28 27,4 61,1 92,2 31,1 57,6 81,14 24,8 45,20 65,38 20,17 38,40 50,62 12,22 18,43 21,65 2,22 0,45 -8,69 -8,24 -22,49 -42,69 -20,20 -44,36 -57,48 -13,12 -14,19 -13,27 1,8 5,16 9,27 4,11 8,26 10,37 2,12 2,22 -9,30 -10,9 -30,16 -45,13 -15,-3 -25,-17 -31,-31 -6,-14 -8,-27 -12,-37 -5,-10 -12,-16 -22,-18 -10,-2 -23,1 -45,3 -22,2 -54,4 -76,4 -22,0 -36,-1 -42,-12 -6,-11 -5,-31 -4,-48 1,-17 1,-31 1,-42 0,-11 0,-20 13,-21 13,-1 39,5 62,6 23,1 43,-2 62,-6 19,-4 38,-10 54,-20 16,-11 29,-26 33,-42 5,-16 1,-33 -20,-48 -21,-15 -58,-27 -94,-36 -36,-9 -71,-13 -96,-19 -25,-6 -39,-13 -56,-27 -17,-13 -35,-33 -49,-53 -14,-20 -22,-39 -28,-60 -6,-20 -10,-42 -11,-62 -1,-20 0,-39 11,-59 10,-20 30,-42 46,-57 16,-15 28,-22 35,-29 7,-6 10,-12 9,-25 -1,-13 -4,-34 -4,-49 1,-15 6,-23 17,-31 11,-7 29,-13 41,-16 12,-2 19,-1 22,7 3,8 3,23 5,36 2,13 7,26 25,31z"/>
   <path class="fil2" d="M1834 6993c-36,-153 -92,-378 -121,-508 -29,-130 -31,-165 -21,-189 10,-23 33,-35 296,-101 264,-67 769,-189 1145,-282 376,-94 623,-159 826,-214 203,-54 363,-97 463,-120 100,-23 140,-25 164,-9 24,17 31,52 70,227 38,175 108,489 135,653 27,164 12,177 -222,245 -234,69 -686,193 -1088,295 -401,102 -751,183 -990,239 -239,56 -369,89 -449,98 -80,10 -112,-3 -136,-51 -23,-48 -38,-130 -74,-283zm2816 -1498c-27,-19 -72,-16 -168,5 -96,21 -243,60 -455,116 -211,56 -487,129 -890,231 -402,102 -931,232 -1208,303 -277,71 -302,84 -314,110 -11,26 -9,66 23,211 32,145 95,396 135,567 40,171 56,263 83,316 26,53 62,68 134,60 72,-8 181,-38 431,-98 250,-60 640,-150 1073,-259 432,-110 906,-239 1152,-311 245,-72 262,-87 232,-269 -30,-183 -108,-534 -150,-729 -43,-195 -51,-235 -78,-254z"/>
   <path class="fil2" d="M4301 5589c1,18 14,49 35,83 21,33 50,68 82,95 32,27 68,46 102,57 35,11 69,15 98,15 30,0 56,-3 66,-22 10,-19 5,-52 -6,-96 -11,-44 -28,-97 -41,-131 -13,-34 -22,-49 -35,-58 -13,-9 -30,-11 -72,-6 -42,5 -107,17 -146,25 -39,8 -50,12 -62,15 -12,3 -24,7 -23,24z"/>
   <path class="fil2" d="M4568 6694c-3,-21 -2,-65 9,-103 11,-39 32,-73 66,-107 35,-34 84,-68 117,-83 33,-15 50,-10 61,6 11,17 16,45 20,77 4,32 9,67 8,93 -1,26 -7,43 -27,60 -20,16 -54,32 -91,43 -37,11 -77,18 -101,23 -25,5 -34,8 -42,9 -8,2 -16,2 -19,-19z"/>
  </g>
  <g id="_2388244359120">
   <path class="fil1" d="M4183 3076c198,237 569,692 860,1045 291,354 501,606 653,786 151,180 243,287 301,364 58,77 83,122 76,159 -6,37 -44,65 -227,205 -183,140 -513,391 -689,512 -176,121 -200,110 -384,-98 -184,-208 -530,-613 -844,-998 -315,-385 -599,-750 -772,-964 -173,-214 -235,-279 -267,-333 -32,-54 -34,-98 9,-152 43,-53 131,-115 291,-240 160,-125 391,-312 527,-417 136,-104 176,-126 209,-127 33,-1 58,19 256,257z"/>
   <path class="fil2" d="M4144 3241c-11,13 -42,30 -79,43 -37,13 -82,21 -124,22 -42,1 -81,-7 -115,-20 -34,-13 -63,-32 -86,-50 -23,-19 -41,-38 -38,-58 4,-21 29,-44 65,-71 36,-27 83,-58 114,-77 32,-19 48,-25 63,-24 16,1 30,10 60,40 29,30 73,81 98,111 25,30 32,41 39,51 7,10 14,20 3,33z"/>
   <path class="fil2" d="M3224 3925c16,-14 44,-47 61,-84 17,-36 24,-75 21,-124 -4,-48 -18,-106 -33,-139 -15,-33 -31,-41 -50,-36 -19,5 -42,24 -66,45 -24,21 -51,45 -67,65 -16,20 -23,37 -19,63 4,26 19,60 40,92 20,33 45,64 61,84 15,20 20,28 26,35 5,7 10,12 27,-2z"/>
   <path class="fil2" d="M4843 4255c25,37 44,77 59,127 15,50 24,111 20,174 -4,63 -21,128 -46,185 -24,56 -55,104 -93,143 -37,39 -81,70 -133,96 -52,25 -112,45 -171,50 -60,5 -119,-6 -178,-28 -58,-21 -116,-53 -161,-87 -45,-34 -78,-71 -110,-120 -32,-49 -62,-111 -75,-176 -14,-65 -11,-134 7,-204 18,-70 51,-141 92,-198 41,-56 89,-97 148,-129 59,-31 127,-52 198,-58 71,-5 144,6 204,29 60,22 108,56 146,90 38,34 68,68 92,105z"/>
   <path class="fil4" d="M4745 4330c3,18 18,45 27,67 10,23 14,41 8,54 -6,13 -23,21 -41,30 -18,9 -38,19 -49,14 -11,-5 -13,-25 -20,-44 -7,-19 -19,-38 -34,-56 -14,-18 -31,-35 -47,-46 -16,-11 -32,-15 -46,-11 -14,5 -27,18 -35,36 -7,18 -8,39 0,65 8,26 25,56 37,84 12,28 19,54 21,80 3,25 1,50 -7,75 -7,25 -20,51 -35,71 -15,20 -31,35 -51,46 -19,11 -41,19 -66,22 -25,3 -53,0 -80,-9 -27,-9 -52,-25 -68,-32 -16,-7 -23,-5 -30,0 -7,4 -13,11 -21,19 -9,8 -20,18 -30,24 -10,7 -19,11 -31,5 -12,-6 -27,-20 -31,-35 -3,-15 5,-30 15,-41 10,-11 21,-18 28,-27 7,-8 9,-17 7,-27 -3,-10 -10,-21 -22,-40 -11,-19 -26,-47 -36,-67 -10,-20 -14,-33 -7,-43 7,-10 26,-18 42,-24 16,-7 29,-12 39,-17 10,-5 18,-9 25,3 7,11 12,37 21,59 8,21 20,38 32,54 12,16 25,31 41,41 16,10 36,15 52,12 17,-3 30,-13 35,-38 5,-25 1,-64 -7,-100 -7,-36 -18,-70 -23,-96 -5,-25 -5,-41 1,-62 5,-21 15,-46 27,-67 12,-21 27,-36 43,-50 16,-14 34,-26 51,-36 18,-9 35,-16 58,-15 23,1 51,9 71,17 20,8 32,16 41,20 9,4 15,4 26,-2 12,-6 30,-18 43,-24 14,-6 24,-5 35,2 11,7 24,21 32,31 7,10 9,17 3,23 -6,6 -20,12 -31,20 -11,8 -20,17 -17,36z"/>
   <path class="fil2" d="M3366 3461c124,-97 304,-242 409,-324 106,-81 137,-98 163,-98 26,-1 45,15 217,226 172,211 495,617 739,918 244,301 407,497 542,659 135,161 242,288 305,369 63,81 82,117 77,145 -5,29 -34,50 -176,159 -142,109 -398,304 -535,397 -137,94 -155,86 -316,-97 -161,-183 -464,-541 -726,-862 -262,-321 -482,-604 -635,-797 -152,-193 -236,-297 -279,-366 -43,-69 -44,-103 -11,-145 33,-41 102,-90 226,-187zm2546 1920c6,-32 -16,-72 -75,-150 -59,-78 -157,-195 -297,-363 -140,-168 -323,-387 -585,-709 -262,-322 -603,-746 -785,-967 -182,-221 -204,-238 -232,-238 -29,1 -64,19 -182,110 -118,91 -319,253 -457,362 -139,108 -215,162 -252,208 -37,46 -36,85 2,147 37,62 111,148 270,350 160,201 406,517 688,863 282,346 599,721 768,913 169,192 189,201 342,96 153,-105 439,-323 598,-444 159,-121 191,-146 197,-178z"/>
   <path class="fil2" d="M5681 5106c-16,8 -39,33 -60,66 -21,33 -40,74 -51,115 -11,41 -13,81 -8,117 5,36 16,68 28,95 13,27 26,49 48,51 21,2 50,-17 84,-46 35,-28 76,-66 102,-92 26,-26 36,-40 38,-56 2,-15 -3,-32 -25,-68 -22,-36 -61,-90 -84,-122 -24,-32 -32,-41 -40,-50 -8,-9 -16,-19 -32,-11z"/>
   <path class="fil2" d="M4791 5815c18,-12 58,-29 98,-35 40,-6 79,-2 125,15 45,17 97,47 124,71 27,24 31,41 20,58 -10,17 -35,33 -62,51 -27,17 -57,36 -81,46 -24,10 -42,12 -66,0 -23,-11 -52,-36 -77,-64 -26,-29 -49,-62 -63,-82 -15,-20 -21,-27 -26,-34 -5,-7 -9,-14 9,-25z"/>
  </g>
  <g id="_2388244355056">
   <path class="fil1" d="M5932 3254c50,305 139,885 210,1337 71,452 124,777 163,1009 39,232 63,371 75,466 11,95 9,147 -15,176 -24,29 -71,34 -300,61 -229,27 -640,77 -853,91 -213,14 -228,-6 -281,-279 -53,-273 -145,-797 -221,-1288 -76,-491 -135,-950 -175,-1222 -40,-273 -61,-359 -61,-422 0,-63 21,-102 85,-126 64,-24 171,-33 372,-59 201,-26 496,-70 666,-91 170,-21 216,-19 245,-3 29,16 40,46 90,351z"/>
   <path class="fil2" d="M5815 3376c-17,6 -51,5 -90,-3 -39,-8 -81,-23 -118,-44 -36,-21 -66,-47 -89,-76 -23,-29 -38,-59 -48,-87 -11,-28 -17,-53 -3,-70 14,-16 47,-23 92,-28 45,-5 101,-8 137,-8 37,0 54,3 67,12 13,9 21,24 31,65 10,41 22,106 28,146 6,39 7,51 8,63 1,12 2,24 -14,30z"/>
   <path class="fil2" d="M4674 3498c21,-4 62,-18 95,-41 33,-22 59,-53 81,-96 21,-44 39,-101 42,-137 4,-36 -6,-51 -25,-56 -19,-5 -48,-1 -80,5 -32,6 -66,13 -91,22 -24,9 -39,20 -48,45 -9,24 -14,61 -13,100 1,38 7,78 10,103 3,25 3,35 4,43 1,9 3,16 24,12z"/>
   <path class="fil2" d="M5902 4604c2,44 -1,89 -14,140 -13,51 -35,108 -71,160 -35,52 -84,100 -133,136 -50,36 -100,62 -153,77 -52,15 -106,19 -164,15 -58,-4 -119,-18 -173,-44 -54,-26 -99,-66 -139,-114 -39,-48 -73,-104 -94,-157 -22,-52 -31,-100 -34,-159 -2,-58 3,-127 25,-190 21,-63 58,-121 109,-173 51,-51 116,-96 180,-123 64,-28 127,-39 193,-36 66,3 136,19 200,51 63,32 121,78 161,128 41,50 64,103 80,152 16,49 24,93 26,137z"/>
   <path class="fil4" d="M5779 4619c-7,17 -7,48 -10,72 -3,24 -9,43 -21,51 -12,8 -30,6 -50,5 -20,-2 -42,-3 -49,-13 -7,-10 2,-28 5,-48 4,-20 3,-43 0,-66 -3,-23 -8,-46 -17,-63 -8,-17 -19,-29 -34,-33 -15,-3 -33,2 -48,13 -15,11 -27,29 -33,56 -6,26 -7,61 -11,91 -4,30 -11,56 -22,80 -11,23 -25,43 -44,61 -19,18 -43,33 -66,43 -23,10 -45,14 -67,14 -22,0 -45,-4 -68,-14 -23,-10 -46,-27 -65,-48 -18,-21 -32,-48 -42,-62 -10,-14 -18,-16 -25,-15 -8,1 -16,3 -28,6 -12,3 -26,5 -38,6 -12,1 -22,-1 -29,-11 -8,-11 -13,-32 -8,-46 5,-15 20,-23 34,-28 14,-5 27,-5 38,-9 10,-4 17,-10 20,-20 3,-10 1,-23 1,-45 0,-22 1,-54 3,-76 2,-22 5,-36 16,-41 11,-5 31,-2 48,0 17,2 31,4 42,5 11,1 20,2 20,15 0,13 -8,39 -12,61 -4,23 -2,43 0,62 2,20 6,39 15,56 9,17 23,31 39,37 16,6 33,4 50,-15 17,-19 33,-55 45,-90 12,-35 20,-70 28,-94 8,-24 17,-38 32,-53 15,-15 36,-32 57,-43 21,-12 41,-18 62,-22 21,-4 43,-6 62,-5 20,1 38,4 58,17 19,12 39,34 53,51 13,17 20,30 25,38 6,8 11,11 24,12 13,1 35,-1 50,1 15,2 23,8 29,20 6,12 10,30 12,43 1,12 -1,19 -9,21 -8,2 -23,1 -37,2 -14,1 -26,5 -33,22z"/>
   <path class="fil2" d="M5032 3171c156,-20 385,-55 517,-71 132,-16 168,-15 190,-2 22,13 31,36 72,305 41,269 113,783 170,1167 57,383 98,635 132,843 34,208 62,371 75,473 13,102 11,142 -7,164 -19,22 -55,26 -233,47 -178,21 -497,60 -663,71 -165,11 -177,-5 -223,-244 -46,-239 -125,-702 -188,-1111 -63,-409 -109,-765 -142,-1009 -33,-244 -53,-375 -54,-456 -2,-81 14,-111 64,-130 50,-19 133,-26 289,-46zm1218 2948c21,-25 23,-70 11,-167 -11,-98 -36,-248 -71,-464 -35,-216 -81,-497 -144,-908 -62,-410 -141,-949 -185,-1232 -44,-283 -54,-309 -79,-323 -25,-14 -65,-16 -212,2 -148,18 -403,56 -578,79 -174,23 -267,31 -323,51 -56,21 -74,55 -73,127 1,73 20,184 55,438 35,254 87,652 154,1093 67,441 150,925 198,1177 48,251 61,269 246,257 185,-12 542,-55 740,-79 199,-24 239,-28 260,-53z"/>
   <path class="fil2" d="M6191 5763c-17,-1 -50,9 -86,26 -35,18 -72,43 -102,73 -30,30 -52,63 -66,96 -14,33 -21,67 -24,97 -3,30 -2,56 15,68 17,12 51,10 96,4 44,-7 99,-18 135,-28 35,-9 51,-17 61,-29 10,-12 14,-29 13,-71 -1,-42 -7,-108 -11,-148 -4,-39 -7,-51 -9,-63 -2,-12 -4,-24 -22,-25z"/>
   <path class="fil2" d="M5064 5921c22,-1 65,5 102,19 37,15 69,38 100,76 30,38 59,90 71,124 12,34 6,51 -12,60 -18,9 -47,11 -79,12 -32,1 -67,2 -93,-2 -26,-4 -42,-11 -57,-33 -14,-22 -27,-57 -34,-95 -8,-38 -11,-78 -13,-103 -2,-25 -4,-34 -5,-43 -1,-9 -1,-16 21,-17z"/>
  </g>
  <g id="_2388244347088">
   <path class="fil1" d="M8717 4676c256,-173 746,-495 1128,-748 382,-253 655,-436 849,-568 195,-132 311,-212 393,-262 82,-50 130,-70 166,-60 36,10 60,50 180,247 120,197 337,550 438,738 102,188 89,210 -137,372 -226,162 -664,464 -1079,737 -415,273 -807,518 -1038,668 -231,150 -301,205 -359,231 -57,26 -101,24 -150,-25 -49,-48 -101,-142 -209,-314 -108,-172 -270,-421 -360,-567 -90,-146 -107,-189 -104,-221 3,-33 25,-56 282,-229z"/>
   <path class="fil2" d="M8877 4732c12,13 26,44 34,83 9,38 13,83 9,125 -4,42 -15,80 -32,113 -17,32 -38,59 -59,80 -21,21 -42,37 -62,32 -20,-6 -41,-33 -64,-72 -23,-39 -49,-88 -65,-121 -15,-33 -20,-50 -17,-66 3,-15 13,-29 46,-55 33,-26 88,-64 121,-86 33,-22 44,-28 54,-33 11,-6 21,-12 33,1z"/>
   <path class="fil2" d="M9463 5718c-12,-18 -43,-49 -77,-70 -34,-21 -73,-32 -121,-33 -49,-1 -108,7 -142,18 -34,12 -44,26 -41,46 3,20 19,44 38,70 18,26 39,55 58,73 18,18 35,27 61,25 26,-2 61,-13 96,-30 35,-17 69,-39 90,-52 21,-13 30,-17 37,-22 7,-4 13,-9 1,-27z"/>
   <path class="fil2" d="M9957 4141c39,-21 81,-36 133,-46 52,-10 113,-13 175,-2 62,10 125,34 179,64 54,30 98,66 133,107 35,41 62,88 82,143 20,54 34,116 32,176 -2,60 -19,118 -46,174 -27,56 -65,110 -103,151 -39,41 -78,70 -130,97 -52,26 -117,50 -183,57 -66,7 -135,-3 -203,-28 -68,-25 -135,-65 -187,-112 -52,-46 -88,-99 -113,-160 -25,-61 -39,-132 -37,-203 2,-71 21,-142 49,-200 29,-58 67,-101 105,-136 38,-35 75,-60 114,-81z"/>
   <path class="fil4" d="M10022 4246c18,-1 46,-13 70,-20 23,-7 42,-9 55,-2 12,7 18,25 25,44 7,19 15,40 9,50 -6,10 -26,10 -46,15 -20,5 -40,15 -59,28 -19,12 -38,27 -51,42 -12,15 -19,30 -15,44 3,15 15,29 32,38 17,9 38,12 64,7 26,-5 58,-19 87,-28 29,-9 56,-13 82,-13 25,0 49,4 74,14 24,10 48,25 67,42 19,17 31,35 41,55 9,20 15,43 15,68 0,25 -5,53 -17,79 -12,26 -30,49 -39,64 -8,15 -7,22 -3,29 4,7 10,14 17,23 7,9 16,22 21,32 6,11 9,20 2,31 -7,11 -23,25 -38,27 -15,2 -29,-8 -39,-19 -10,-11 -16,-23 -23,-31 -7,-8 -16,-11 -27,-10 -10,2 -22,8 -42,18 -20,9 -49,21 -70,29 -21,7 -34,10 -44,2 -9,-8 -15,-28 -20,-44 -5,-16 -9,-30 -13,-41 -4,-11 -7,-19 5,-24 12,-5 39,-8 61,-15 22,-6 40,-16 57,-26 17,-10 33,-22 45,-37 12,-15 19,-34 18,-51 -1,-17 -10,-31 -34,-39 -24,-7 -63,-7 -100,-4 -37,4 -72,11 -97,13 -25,3 -42,0 -62,-7 -20,-7 -44,-20 -63,-34 -19,-14 -34,-30 -46,-48 -12,-17 -23,-36 -30,-55 -8,-19 -12,-37 -9,-59 3,-23 14,-50 25,-69 10,-19 19,-30 24,-39 5,-8 6,-14 1,-27 -5,-12 -15,-31 -19,-46 -4,-14 -2,-24 6,-35 8,-11 23,-22 34,-28 11,-6 17,-7 23,-1 6,7 10,21 17,33 7,12 15,22 34,21z"/>
   <path class="fil2" d="M9016 5529c-84,-133 -210,-327 -280,-440 -70,-113 -83,-146 -81,-172 2,-25 20,-43 247,-192 228,-149 665,-429 990,-641 325,-211 537,-354 711,-471 175,-118 312,-211 399,-265 87,-54 124,-70 152,-62 28,8 47,39 140,192 93,153 261,427 340,573 79,146 69,163 -129,304 -199,141 -586,406 -932,634 -346,228 -650,418 -858,549 -208,131 -319,204 -392,239 -73,35 -107,33 -145,-4 -38,-37 -79,-110 -162,-244zm2172 -2335c-31,-9 -73,8 -157,59 -84,51 -210,136 -392,258 -182,122 -418,281 -765,509 -347,227 -804,523 -1043,681 -238,158 -258,178 -260,206 -2,28 13,65 91,192 78,127 219,343 313,492 93,149 139,230 181,272 42,42 80,44 146,13 66,-31 159,-95 376,-233 217,-138 556,-351 929,-595 373,-245 779,-522 987,-670 208,-148 219,-168 131,-330 -88,-163 -276,-469 -380,-640 -104,-171 -125,-205 -156,-214z"/>
   <path class="fil2" d="M10890 3396c6,16 29,42 60,67 31,25 70,48 109,63 39,15 79,21 115,20 36,-1 70,-9 98,-18 28,-10 52,-21 55,-42 4,-21 -12,-51 -37,-89 -25,-38 -58,-83 -81,-111 -23,-28 -37,-40 -52,-44 -15,-4 -32,-1 -70,18 -38,18 -96,51 -130,71 -34,20 -44,27 -54,34 -10,7 -20,14 -14,30z"/>
   <path class="fil2" d="M11504 4354c-10,-19 -23,-61 -25,-101 -2,-40 6,-79 28,-122 22,-43 57,-91 83,-116 26,-25 44,-26 60,-14 16,12 30,38 44,67 15,29 30,60 37,85 8,25 7,43 -6,65 -14,22 -41,48 -72,70 -31,23 -66,42 -88,55 -22,13 -29,18 -37,23 -7,4 -14,8 -24,-12z"/>
  </g>
  <g id="_2388244332624">
   <path class="fil1" d="M9855 5569c301,72 869,215 1314,325 444,110 764,187 993,241 229,54 367,85 459,112 92,27 139,49 156,82 17,33 4,78 -60,300 -64,222 -177,620 -247,822 -69,202 -94,208 -366,151 -272,-56 -791,-175 -1273,-296 -482,-121 -928,-244 -1195,-312 -267,-69 -355,-83 -413,-108 -58,-24 -86,-59 -83,-127 3,-68 36,-171 90,-366 54,-196 127,-484 174,-649 47,-165 66,-206 92,-227 26,-20 58,-19 359,53z"/>
   <path class="fil2" d="M9922 5724c-1,17 -15,49 -38,81 -22,32 -53,66 -86,91 -33,25 -69,43 -104,53 -35,10 -69,12 -99,11 -30,-1 -56,-5 -65,-24 -10,-19 -3,-52 9,-95 13,-43 32,-96 46,-130 14,-34 23,-49 37,-57 13,-8 31,-10 72,-3 41,7 107,21 145,31 38,9 50,14 61,17 12,4 23,7 22,25z"/>
   <path class="fil2" d="M9593 6823c5,-21 7,-64 -1,-104 -8,-39 -26,-75 -57,-112 -32,-37 -78,-75 -109,-92 -32,-17 -49,-14 -61,1 -12,16 -19,44 -26,75 -7,31 -14,66 -15,92 -1,26 4,44 22,62 19,18 51,36 87,50 36,14 75,24 99,31 24,7 33,10 41,13 8,2 16,4 21,-17z"/>
   <path class="fil2" d="M11089 6120c42,15 82,35 123,67 42,31 86,74 120,127 34,53 59,116 74,175 14,60 18,116 11,170 -7,54 -23,105 -50,157 -26,51 -63,103 -108,142 -45,39 -99,66 -159,84 -60,18 -125,27 -181,26 -57,0 -105,-10 -159,-31 -55,-21 -116,-52 -166,-96 -50,-44 -89,-101 -117,-168 -28,-67 -43,-144 -44,-213 -1,-70 14,-132 42,-192 28,-60 71,-118 124,-164 54,-46 119,-81 181,-99 62,-18 120,-19 171,-15 51,4 95,14 137,29z"/>
   <path class="fil4" d="M11055 6239c13,13 41,25 62,37 21,12 36,25 39,39 3,14 -6,30 -15,48 -9,18 -20,38 -31,40 -12,3 -25,-12 -42,-24 -17,-11 -38,-19 -61,-25 -22,-6 -46,-10 -65,-9 -19,1 -34,6 -43,19 -9,12 -11,31 -6,49 5,18 17,36 38,52 22,16 54,30 80,45 26,15 48,32 65,51 17,19 30,39 39,64 9,24 14,53 14,78 0,25 -4,47 -13,67 -9,21 -21,40 -40,57 -18,17 -43,32 -70,41 -27,9 -56,11 -73,15 -17,4 -21,10 -24,18 -3,7 -3,17 -5,28 -2,12 -5,26 -9,37 -4,11 -9,20 -22,22 -13,3 -34,0 -46,-10 -12,-10 -14,-27 -12,-42 1,-15 6,-27 7,-38 1,-11 -3,-20 -11,-26 -8,-6 -21,-10 -41,-19 -21,-9 -49,-22 -69,-32 -20,-11 -31,-18 -31,-31 0,-13 10,-30 19,-45 9,-15 16,-27 21,-37 5,-10 9,-18 21,-13 12,5 32,23 52,35 20,12 38,19 57,24 19,5 38,10 57,8 19,-2 38,-9 50,-21 12,-12 16,-29 5,-52 -11,-23 -38,-52 -65,-76 -28,-25 -57,-46 -76,-63 -19,-17 -28,-30 -37,-50 -8,-20 -15,-46 -18,-70 -3,-24 0,-45 4,-66 4,-21 11,-41 20,-59 9,-18 19,-34 38,-47 19,-13 46,-23 67,-29 21,-6 35,-6 45,-8 10,-2 14,-5 20,-17 6,-12 13,-32 20,-45 8,-13 16,-18 30,-19 14,-1 32,2 44,6 12,4 17,8 16,17 -1,9 -8,21 -13,34 -4,13 -6,26 7,39z"/>
   <path class="fil2" d="M9430 6366c42,-152 99,-376 135,-504 36,-128 51,-160 72,-176 20,-16 45,-15 309,52 264,67 766,199 1141,295 375,96 624,156 828,205 205,49 366,87 465,114 99,28 135,45 149,70 13,26 3,61 -47,233 -49,172 -138,481 -192,638 -54,157 -73,161 -312,111 -238,-51 -696,-157 -1097,-257 -402,-101 -747,-196 -985,-260 -237,-64 -366,-97 -442,-127 -75,-30 -97,-56 -95,-109 2,-53 28,-133 70,-284zm3189 19c-15,-29 -55,-48 -150,-75 -94,-27 -242,-63 -455,-114 -213,-51 -490,-118 -892,-219 -402,-102 -930,-238 -1207,-307 -278,-69 -306,-70 -328,-52 -23,18 -40,53 -80,197 -40,143 -104,394 -151,563 -46,170 -75,258 -78,318 -2,59 22,89 89,117 67,28 177,53 426,119 248,66 635,172 1067,281 433,109 911,220 1161,273 250,53 272,48 332,-127 60,-175 159,-521 214,-713 55,-192 67,-231 52,-260z"/>
   <path class="fil2" d="M12268 6302c-8,16 -12,50 -9,89 3,39 12,84 28,122 16,39 38,72 63,99 25,26 53,45 80,60 26,14 51,24 69,12 18,-11 29,-43 40,-87 11,-44 22,-99 27,-135 5,-36 4,-54 -3,-68 -7,-14 -21,-24 -60,-39 -39,-15 -103,-36 -140,-47 -38,-11 -50,-14 -62,-16 -12,-3 -24,-5 -32,10z"/>
   <path class="fil2" d="M11978 7402c7,-20 29,-58 57,-87 28,-29 62,-49 109,-62 47,-13 106,-20 142,-17 36,3 49,15 51,34 2,20 -8,47 -19,78 -11,30 -24,63 -38,85 -13,22 -27,35 -52,39 -25,5 -63,2 -100,-5 -38,-8 -76,-20 -100,-28 -24,-7 -33,-9 -42,-12 -8,-2 -15,-5 -8,-26z"/>
  </g>
  <g id="_2388244396496">
   <path class="fil1" d="M9476 5607c249,184 716,538 1082,812 366,275 630,471 820,610 189,139 304,222 379,282 75,61 109,99 112,136 3,37 -27,73 -172,253 -145,179 -406,501 -548,660 -143,159 -168,154 -396,-4 -228,-158 -660,-470 -1056,-770 -397,-300 -759,-587 -977,-754 -219,-168 -294,-215 -338,-260 -44,-45 -56,-88 -27,-150 29,-62 100,-143 226,-302 126,-159 306,-396 414,-530 107,-134 142,-164 174,-173 32,-8 61,5 310,189z"/>
   <path class="fil2" d="M9477 5776c-8,16 -33,39 -66,60 -33,21 -74,40 -115,51 -41,10 -81,12 -117,8 -36,-5 -68,-16 -95,-29 -27,-13 -49,-27 -51,-48 -2,-21 18,-49 46,-84 29,-35 67,-76 93,-101 26,-26 41,-36 56,-38 15,-2 32,3 67,25 35,22 90,61 121,85 32,24 41,32 50,40 9,8 19,16 11,32z"/>
   <path class="fil2" d="M8745 6658c13,-17 32,-56 40,-96 8,-39 6,-79 -9,-125 -15,-46 -43,-99 -65,-127 -22,-28 -39,-32 -57,-23 -17,10 -35,33 -54,59 -19,26 -39,55 -50,79 -11,24 -14,42 -3,66 10,24 33,53 60,80 27,27 59,52 79,67 19,16 26,22 33,28 7,5 13,10 26,-8z"/>
   <path class="fil2" d="M10396 6596c33,30 61,64 88,110 26,45 50,102 61,164 11,62 10,130 -1,190 -10,61 -29,114 -56,161 -27,47 -62,88 -107,125 -44,37 -98,70 -155,89 -57,18 -117,22 -179,15 -62,-7 -125,-24 -177,-47 -52,-23 -93,-50 -135,-90 -42,-40 -86,-93 -115,-153 -29,-60 -43,-128 -42,-200 1,-72 16,-149 43,-214 26,-64 64,-116 113,-160 49,-44 111,-81 179,-103 68,-22 141,-28 205,-20 64,8 118,29 163,53 45,24 82,50 114,80z"/>
   <path class="fil4" d="M10319 6693c7,17 28,39 43,59 15,20 23,37 20,51 -3,14 -17,26 -33,38 -16,13 -33,27 -44,25 -12,-2 -18,-21 -30,-38 -11,-17 -28,-33 -46,-47 -18,-14 -38,-27 -56,-34 -18,-7 -34,-7 -47,0 -13,8 -22,24 -25,43 -3,19 1,40 15,63 14,23 38,48 56,73 18,25 31,48 40,72 8,24 12,48 11,74 -1,26 -8,54 -17,77 -10,23 -22,41 -38,57 -16,16 -35,29 -59,37 -24,9 -52,13 -80,10 -28,-3 -56,-12 -73,-15 -17,-3 -24,1 -29,7 -5,6 -9,14 -16,24 -6,10 -15,22 -23,31 -8,9 -16,15 -29,12 -13,-3 -31,-13 -38,-27 -7,-14 -2,-30 5,-43 7,-13 16,-23 21,-32 5,-10 5,-19 0,-28 -5,-9 -15,-18 -31,-33 -16,-16 -37,-39 -51,-57 -14,-17 -21,-29 -17,-41 5,-12 21,-24 35,-34 14,-10 25,-18 34,-25 9,-7 15,-13 25,-3 9,9 21,34 34,52 13,19 28,32 43,45 15,12 32,24 50,30 18,6 38,6 54,0 15,-7 26,-20 25,-45 -1,-25 -15,-62 -30,-96 -16,-34 -34,-64 -45,-87 -11,-23 -14,-39 -14,-60 0,-21 4,-48 11,-71 7,-23 17,-42 29,-59 12,-17 27,-34 42,-47 15,-13 30,-24 53,-28 22,-5 52,-3 73,0 21,3 35,8 45,10 10,2 15,1 25,-8 10,-9 24,-25 36,-34 12,-9 22,-10 35,-6 13,4 29,15 38,23 9,8 12,14 8,21 -4,7 -16,16 -25,27 -9,10 -16,22 -8,39z"/>
   <path class="fil2" d="M8773 6174c98,-123 238,-307 321,-411 83,-104 110,-127 135,-134 25,-7 47,4 264,168 217,164 627,483 935,718 308,235 513,387 683,512 169,125 303,223 383,287 80,64 107,94 109,123 2,29 -21,57 -134,196 -113,139 -315,389 -426,513 -111,123 -130,120 -330,-20 -200,-140 -579,-416 -909,-665 -330,-250 -611,-473 -805,-624 -193,-152 -299,-233 -357,-289 -58,-57 -67,-90 -45,-138 23,-48 78,-111 175,-235zm2928 1264c-2,-32 -32,-66 -109,-128 -76,-62 -199,-153 -375,-283 -176,-130 -405,-300 -736,-551 -331,-251 -763,-583 -991,-754 -229,-172 -254,-184 -282,-176 -28,7 -57,34 -150,150 -93,116 -250,321 -359,459 -109,138 -170,208 -196,262 -25,54 -15,91 37,142 51,52 143,118 345,276 203,158 517,407 872,676 356,269 753,559 962,706 210,147 231,151 355,13 124,-138 350,-417 476,-573 126,-155 152,-187 149,-219z"/>
   <path class="fil2" d="M11411 7225c-13,11 -30,41 -43,79 -13,37 -22,82 -23,124 -1,42 7,81 20,115 13,34 31,63 50,86 19,23 37,42 58,38 21,-3 44,-29 71,-64 27,-36 58,-82 77,-114 19,-31 25,-48 24,-63 -1,-16 -10,-30 -40,-60 -30,-29 -80,-73 -111,-98 -30,-25 -40,-32 -51,-39 -10,-7 -20,-14 -33,-3z"/>
   <path class="fil2" d="M10714 8124c15,-16 49,-42 87,-57 37,-16 77,-21 125,-15 48,6 105,23 137,40 32,17 39,33 33,51 -6,19 -26,41 -48,64 -22,23 -47,48 -68,64 -21,15 -38,21 -64,16 -25,-5 -59,-22 -90,-44 -32,-22 -62,-49 -81,-65 -19,-16 -27,-22 -34,-27 -7,-6 -12,-11 3,-27z"/>
  </g>
  <path class="fil5" d="M7501 4830c407,2 1038,12 1414,22 376,10 496,19 600,147 104,128 190,373 353,809 163,435 402,1060 553,1425 151,365 214,471 16,520 -198,48 -655,39 -1645,31 -990,-7 -2512,-12 -3444,-7 -932,5 -1274,19 -1448,12 -173,-7 -178,-36 -93,-283 85,-247 260,-713 441,-1144 181,-430 369,-825 499,-1064 130,-238 202,-320 311,-376 108,-55 253,-84 537,-94 284,-10 708,0 1012,2 303,2 487,-2 894,0z"/>
  <path class="fil6" d="M4860 9600c22,45 19,114 17,164 -2,50 -5,80 -26,102 -21,22 -61,35 -142,39 -81,4 -202,-1 -278,-10 -75,-9 -104,-22 -120,-55 -16,-33 -20,-84 -20,-133 0,-49 4,-95 22,-121 19,-27 52,-34 96,-40 43,-7 96,-13 154,-17 58,-5 120,-8 175,-1 54,8 100,27 122,72z"/>
  <path class="fil6" d="M10041 9586c22,45 19,114 17,164 -2,50 -5,80 -26,102 -21,22 -61,35 -142,39 -81,4 -202,-1 -278,-10 -75,-9 -104,-22 -120,-55 -16,-33 -20,-84 -20,-133 0,-49 4,-95 22,-121 19,-26 52,-34 96,-40 43,-7 96,-13 154,-17 58,-5 120,-8 175,-1 54,8 100,27 122,72z"/>
  <path class="fil7" d="M3236 7620c43,-42 135,-42 1098,-40 963,1 2799,4 4047,0 1248,-4 1908,-15 2252,-8 344,7 373,31 393,238 19,207 29,597 29,918 0,320 -10,571 -24,723 -14,152 -34,205 -113,236 -79,31 -219,41 -1322,41 -1103,0 -3170,-10 -4354,-13 -1185,-3 -1487,1 -1675,3 -188,2 -261,3 -302,-47 -41,-50 -51,-151 -53,-342 -2,-190 2,-470 2,-735 0,-265 -5,-515 -10,-682 -5,-167 -10,-251 34,-292z"/>
  <path class="fil6" d="M3860 8095c29,-18 77,-18 743,-19 666,-1 1950,-4 2987,-6 1037,-2 1827,-5 2251,-1 424,4 482,13 513,40 31,27 36,70 37,146 1,76 -1,184 -10,255 -8,71 -23,105 -48,124 -25,19 -61,24 -1112,19 -1050,-5 -3114,-19 -4174,-30 -1060,-11 -1115,-18 -1151,-37 -36,-19 -53,-51 -65,-107 -12,-57 -19,-139 -22,-192 -2,-53 0,-77 6,-107 6,-30 16,-66 45,-84z"/>
  <path class="fil6" d="M9942 8508c130,118 342,335 448,453 106,118 106,137 -1016,148 -1122,11 -3367,13 -4492,-7 -1125,-20 -1130,-64 -1089,-130 41,-66 128,-155 226,-267 99,-112 210,-247 287,-319 77,-72 120,-82 937,-76 817,6 2406,29 3281,38 874,10 1033,7 1137,15 104,8 152,27 282,145z"/>
  <path class="fil8" d="M8506 6970c55,-13 136,-15 190,-4 54,11 80,35 89,94 10,59 3,152 -37,196 -40,45 -113,40 -174,37 -61,-3 -112,-4 -139,-47 -28,-43 -33,-128 -22,-183 11,-55 39,-81 94,-94z"/>
  <path class="fil6" d="M9001 6989c46,-19 126,-19 182,-13 56,6 89,17 100,67 10,50 -2,139 -22,193 -21,54 -50,72 -101,79 -51,7 -124,3 -164,-9 -41,-12 -49,-32 -55,-70 -5,-38 -7,-95 -2,-142 5,-47 17,-86 63,-105z"/>
  <path class="fil4" d="M9540 6991c55,-13 136,-15 190,-4 54,11 80,35 89,94 10,59 3,152 -37,196 -40,45 -113,40 -174,37 -61,-3 -112,-4 -139,-47 -28,-43 -33,-128 -22,-183 11,-55 39,-81 94,-94z"/>
  <path class="fil9" d="M6645 5960c55,-13 136,-15 190,-4 54,11 80,35 89,94 10,59 3,152 -37,196 -40,45 -113,40 -174,37 -61,-3 -112,-4 -139,-47 -28,-43 -33,-128 -22,-183 11,-55 39,-81 94,-94z"/>
  <path class="fil9" d="M7140 5979c46,-19 126,-19 182,-13 56,6 89,17 100,67 10,50 -2,139 -22,193 -21,54 -50,72 -101,79 -51,7 -124,3 -164,-9 -41,-12 -49,-32 -55,-70 -5,-38 -7,-95 -2,-142 5,-47 17,-86 63,-105z"/>
  <path class="fil9" d="M7678 5981c55,-13 136,-15 190,-4 54,11 80,35 89,94 10,59 3,152 -37,196 -40,45 -113,40 -174,37 -61,-3 -112,-4 -139,-47 -28,-43 -33,-128 -22,-183 11,-55 39,-81 94,-94z"/>
  <path class="fil9" d="M6632 6755c55,13 136,15 190,4 54,-11 80,-35 89,-94 10,-59 3,-152 -37,-196 -40,-45 -113,-40 -174,-37 -61,3 -112,4 -139,47 -28,43 -33,128 -22,183 11,55 39,81 94,94z"/>
  <path class="fil9" d="M7127 6772c46,19 125,19 182,13 56,-6 89,-17 100,-67 10,-50 -2,-139 -23,-193 -21,-54 -50,-72 -101,-79 -51,-7 -124,-3 -164,9 -41,12 -49,32 -55,70 -5,38 -7,95 -2,142 5,47 17,86 63,105z"/>
  <path class="fil9" d="M7849 6461c-55,-13 -136,-15 -190,-4 -54,11 -80,35 -89,94 -10,59 -3,152 37,196 40,45 113,40 174,37 61,-3 112,-4 139,-47 28,-43 33,-128 22,-183 -11,-55 -39,-81 -94,-94z"/>
  <path class="fil9" d="M7852 6950c-54,-16 -135,-21 -189,-12 -54,9 -82,32 -95,90 -13,58 -12,152 24,198 37,46 110,45 171,45 62,0 112,1 142,-41 30,-42 41,-126 33,-182 -8,-56 -34,-82 -87,-98z"/>
  <path class="fil9" d="M7356 6948c-45,-21 -124,-24 -181,-21 -57,3 -90,13 -104,63 -14,50 -7,139 10,194 17,55 45,74 96,83 51,9 123,8 165,-2 41,-10 51,-30 59,-68 8,-38 13,-94 11,-142 -2,-48 -12,-86 -56,-108z"/>
  <path class="fil9" d="M6819 6927c-54,-16 -135,-21 -189,-12 -54,9 -82,32 -95,90 -13,58 -12,152 24,198 37,46 110,45 171,45 62,0 112,1 142,-41 30,-42 41,-126 33,-182 -8,-56 -34,-82 -87,-98z"/>
  <path class="fil10" d="M7646 4965c-339,-15 -1057,-21 -1516,-26 -459,-5 -659,-9 -792,8 -133,17 -200,56 -261,106 -61,50 -117,112 -192,244 -75,132 -169,334 -275,568 -106,234 -223,500 -216,524 7,24 139,-195 258,-402 119,-207 225,-404 328,-535 103,-131 202,-196 342,-246 140,-50 322,-86 643,-109 321,-23 781,-35 1100,-45 319,-10 496,-18 612,-22 116,-4 171,-4 220,-16 48,-12 90,-34 -249,-49z"/>
  <path class="fil4" d="M9385 8290c107,116 282,330 369,447 88,117 88,136 -821,162 -909,26 -2726,58 -3637,52 -911,-6 -916,-49 -883,-116 32,-67 101,-157 179,-270 78,-113 166,-250 227,-323 61,-73 96,-83 758,-88 661,-4 1949,-3 2657,-5 708,-2 837,-7 921,0 84,7 123,25 230,142z"/>
 </g>
</svg>



