<?xml version="1.0" encoding="UTF-8"?>
<!DOCTYPE svg PUBLIC "-//W3C//DTD SVG 1.1//EN" "http://www.w3.org/Graphics/SVG/1.1/DTD/svg11.dtd">
<!-- Creator: CorelDRAW 2017 -->
<svg xmlns="http://www.w3.org/2000/svg" xml:space="preserve" width="143mm" height="143mm" version="1.1" style="shape-rendering:geometricPrecision; text-rendering:geometricPrecision; image-rendering:optimizeQuality; fill-rule:evenodd; clip-rule:evenodd"
viewBox="0 0 14300 14300"
 xmlns:xlink="http://www.w3.org/1999/xlink">
 <defs>
  <style type="text/css">
   <![CDATA[
    .fil5 {fill:black}
    .fil3 {fill:#0069E1}
    .fil0 {fill:#419BE0}
    .fil2 {fill:#94E8FF}
    .fil6 {fill:#999999}
    .fil7 {fill:#A60000}
    .fil4 {fill:#CCCCCC}
    .fil1 {fill:white}
   ]]>
  </style>
 </defs>
 <g id="Слой_x0020_1">
  <metadata id="CorelCorpID_0Corel-Layer"/>
  <path class="fil0" d="M11487 10798c200,9 344,22 454,129 110,107 186,306 265,506 79,200 162,399 127,537 -34,138 -186,213 -422,213 -236,-1 -556,-78 -888,-68 -332,10 -677,106 -962,285 -286,179 -513,441 -771,616 -258,176 -547,265 -840,286 -293,21 -589,-28 -764,-165 -176,-138 -231,-365 -424,-544 -193,-179 -523,-310 -1085,-382 -561,-72 -1353,-86 -1942,-121 -589,-34 -974,-90 -1171,-189 -196,-100 -203,-244 -86,-1394 117,-1150 358,-3305 496,-4710 138,-1405 172,-2059 238,-2610 65,-551 162,-998 238,-1305 77,-307 133,-473 185,-466 52,7 98,187 263,534 165,347 449,860 913,1774 464,914 1108,2227 1695,3320 587,1093 1118,1965 1721,2508 604,543 1280,756 1634,907 354,151 385,238 528,284 143,46 398,49 598,58z"/>
  <polygon class="fil1" points="12193,1742 12193,11423 3886,11309 4140,1241 "/>
  <polygon class="fil2" points="11835,2102 4527,1642 4307,10891 11694,11031 "/>
  <polygon class="fil1" points="8628,1900 8456,10969 8001,10961 8181,1872 "/>
  <path class="fil3" d="M6691 6532c-248,-527 -746,-1560 -1067,-2241 -321,-681 -465,-1010 -625,-1102 -160,-92 -336,52 -493,161 -157,109 -296,184 -352,283 -56,99 -29,221 28,446 57,225 145,552 304,962 159,409 390,900 592,1294 203,394 377,691 534,884 157,193 295,281 469,279 174,-2 383,-94 531,-175 148,-81 235,-152 279,-197 45,-45 47,-65 -200,-592z"/>
  <path class="fil4" d="M7063 7262c135,239 399,731 722,1322 324,591 706,1280 902,1643 196,363 204,400 199,455 -6,55 -26,129 -35,206 -10,77 -10,156 -3,248 7,92 21,197 45,301 24,104 58,206 94,282 35,77 72,128 69,146 -3,18 -45,4 -163,-37 -118,-41 -311,-109 -528,-227 -217,-118 -458,-285 -692,-475 -234,-190 -461,-403 -696,-651 -235,-248 -479,-532 -711,-844 -231,-312 -450,-652 -611,-916 -162,-264 -267,-451 -329,-570 -62,-119 -82,-170 -98,-204 -16,-34 -27,-51 46,-95 73,-44 229,-116 449,-211 220,-95 503,-213 700,-310 197,-97 307,-172 376,-214 68,-42 94,-50 109,-62 15,-11 21,-25 156,214z"/>
  <path class="fil5" d="M3811 5659c5,73 6,160 -5,224 -11,63 -32,102 -57,143 -25,42 -53,87 -180,181 -127,94 -352,238 -712,386 -360,148 -853,302 -1130,503 -277,201 -338,451 -321,899 17,448 112,1095 516,1146 404,51 1115,-494 1596,-863 480,-369 728,-563 908,-671 180,-108 291,-131 395,-152 104,-21 202,-40 362,-84 160,-44 382,-114 596,-212 214,-98 420,-223 576,-335 156,-112 263,-210 333,-302 70,-92 103,-178 117,-258 14,-80 9,-155 -13,-214 -22,-59 -60,-101 -87,-121 -27,-20 -44,-18 -81,-10 -38,8 -98,22 -105,14 -7,-8 37,-38 78,-84 41,-46 78,-109 94,-161 16,-51 10,-91 -3,-146 -13,-55 -35,-125 -68,-180 -34,-55 -80,-95 -142,-101 -62,-6 -140,21 -145,13 -5,-8 63,-52 104,-99 42,-47 58,-97 50,-151 -8,-53 -40,-109 -82,-160 -42,-51 -96,-97 -142,-121 -47,-25 -86,-28 -92,-58 -6,-30 22,-88 9,-160 -13,-73 -66,-160 -137,-223 -71,-63 -159,-100 -273,-76 -114,24 -254,109 -398,213 -145,104 -295,225 -408,293 -113,67 -188,81 -249,55 -61,-26 -108,-90 -174,-138 -66,-48 -151,-80 -276,-22 -125,57 -290,204 -376,360 -86,156 -93,322 -92,433 1,111 11,169 16,241z"/>
  <path class="fil6" d="M8427 10590c-174,-277 -495,-750 -801,-1249 -306,-499 -598,-1024 -766,-1344 -167,-321 -210,-437 -241,-491 -31,-54 -51,-45 -78,-33 -27,13 -61,30 -37,119 24,89 106,251 299,596 193,345 496,872 791,1346 295,474 581,893 757,1133 176,240 241,299 260,289 18,-10 -10,-89 -184,-366z"/>
  <polygon class="fil1" points="11799,4403 8582,4342 8576,4626 11793,4785 "/>
  <polygon class="fil1" points="11658,2232 8795,2072 8745,4144 9055,2302 "/>
  <polygon class="fil1" points="11628,4955 8745,4794 8655,9649 8975,5015 "/>
  <polygon class="fil1" points="7974,2102 4701,1821 4701,3053 4911,2032 "/>
  <path class="fil7" d="M8819 11237c-37,15 -108,76 -269,37 -161,-39 -411,-177 -628,-346 -217,-169 -400,-369 -502,-524 -102,-155 -122,-265 -143,-283 -22,-18 -45,55 -73,98 -28,43 -62,57 -123,33 -62,-23 -152,-83 -225,-172 -73,-88 -130,-205 -194,-292 -63,-87 -133,-143 -192,-173 -58,-30 -105,-33 -189,-101 -84,-68 -207,-202 -310,-334 -103,-132 -186,-262 -170,-211 16,52 131,285 313,555 181,270 428,577 553,766 125,189 128,259 150,320 22,62 62,115 108,130 47,15 100,-8 155,19 55,28 112,106 197,195 85,88 199,186 296,272 97,86 177,159 245,229 68,70 125,137 174,202 48,65 88,128 130,204 42,75 85,162 143,210 58,48 132,58 194,40 62,-18 112,-65 150,-97 38,-32 65,-48 108,-50 43,-2 103,12 145,33 42,22 65,52 107,57 42,5 102,-15 128,-59 26,-44 17,-113 -15,-186 -33,-74 -90,-152 -125,-225 -35,-73 -49,-140 -60,-189 -11,-49 -21,-79 -28,-110 -7,-31 -11,-63 -48,-49z"/>
  <path class="fil7" d="M6135 10284c16,-37 -122,-175 -243,-312 -122,-138 -227,-276 -328,-333 -101,-57 -198,-34 -243,21 -46,55 -41,142 44,237 85,94 250,195 418,278 168,83 338,147 354,110z"/>
  <path class="fil7" d="M4525 9252c-106,-76 -253,-154 -363,-197 -110,-44 -184,-53 -207,-11 -23,41 5,133 113,209 108,76 296,136 425,170 129,34 197,44 200,11 2,-32 -62,-106 -168,-181z"/>
  <path class="fil7" d="M8401 12547c25,62 52,128 68,200 17,72 23,148 2,212 -22,63 -72,113 -120,118 -48,5 -95,-35 -118,-100 -23,-65 -23,-155 -10,-245 13,-90 40,-180 60,-240 20,-60 33,-90 52,-77 18,13 42,70 67,132z"/>
  <path class="fil7" d="M9550 11546c54,-12 187,-19 269,-24 82,-5 112,-8 122,10 10,18 0,58 -38,81 -38,23 -103,29 -166,22 -64,-7 -126,-25 -170,-43 -44,-18 -70,-35 -17,-47z"/>
  <path class="fil7" d="M10136 11080c29,-36 131,-103 209,-164 78,-61 133,-116 166,-120 33,-4 43,43 35,98 -8,55 -33,118 -94,159 -62,40 -160,57 -231,63 -71,6 -114,1 -85,-35z"/>
 </g>
</svg>
