<?xml version="1.0" encoding="UTF-8"?>
<!DOCTYPE svg PUBLIC "-//W3C//DTD SVG 1.1//EN" "http://www.w3.org/Graphics/SVG/1.1/DTD/svg11.dtd">
<!-- Creator: CorelDRAW 2017 -->
<svg xmlns="http://www.w3.org/2000/svg" xml:space="preserve" width="143mm" height="143mm" version="1.1" style="shape-rendering:geometricPrecision; text-rendering:geometricPrecision; image-rendering:optimizeQuality; fill-rule:evenodd; clip-rule:evenodd"
viewBox="0 0 14300 14300"
 xmlns:xlink="http://www.w3.org/1999/xlink">
 <defs>
  <style type="text/css">
   <![CDATA[
    .fil4 {fill:none}
    .fil3 {fill:black}
    .fil1 {fill:black}
    .fil5 {fill:#396912}
    .fil0 {fill:#5B962C}
    .fil2 {fill:white}
   ]]>
  </style>
 </defs>
 <g id="Слой_x0020_1">
  <metadata id="CorelCorpID_0Corel-Layer"/>
  <path class="fil0" d="M12183 11005c-840,-270 -2448,-760 -3620,-1138 -1171,-377 -1905,-642 -2520,-803 -615,-161 -1111,-218 -1700,-245 -589,-27 -1271,-25 -1775,60 -503,85 -828,252 -1071,382 -243,130 -406,221 -427,504 -21,282 99,755 120,1316 21,561 -56,1210 74,1598 131,388 469,515 1161,564 691,49 1736,21 2628,46 893,25 1633,102 2254,194 621,92 1122,198 1711,226 589,28 1266,-21 1813,-99 547,-78 963,-183 1111,-409 148,-226 28,-571 21,-818 -7,-247 99,-395 310,-490 212,-95 529,-138 695,-215 166,-78 180,-191 152,-272 -28,-81 -99,-131 -938,-401z"/>
  <path class="fil1" d="M10393 3780c70,14 158,34 239,83 81,49 156,126 218,214 61,88 109,185 133,308 24,123 24,270 -9,395 -33,125 -98,228 -163,298 -65,70 -130,108 -170,148 -40,40 -55,83 -58,129 -3,46 8,96 72,153 64,57 182,121 314,182 132,60 277,117 425,145 148,28 300,27 390,16 91,-12 121,-34 113,-104 -8,-71 -54,-190 -115,-326 -61,-136 -137,-290 -212,-398 -74,-108 -147,-171 -206,-229 -59,-59 -104,-114 -129,-166 -25,-53 -30,-103 -23,-156 8,-54 28,-111 56,-151 29,-39 66,-61 139,-35 73,26 182,99 261,191 79,93 129,205 231,344 102,139 255,305 373,522 118,216 199,483 214,639 15,156 -36,203 -167,277 -131,74 -341,177 -564,209 -223,33 -460,-5 -577,10 -118,15 -117,83 -116,141 1,58 3,107 21,304 18,196 51,540 96,846 44,306 99,573 136,726 36,153 54,190 35,209 -19,19 -74,19 -91,80 -18,61 3,184 8,553 5,369 -5,984 -11,1531 -6,546 -9,1024 -9,1275 0,251 3,276 -28,291 -30,15 -93,20 -119,35 -26,15 -16,40 3,86 19,46 46,114 54,174 8,60 -5,113 -66,144 -61,31 -171,41 -271,36 -100,-5 -190,-25 -245,-64 -55,-39 -75,-96 -80,-154 -5,-58 5,-115 16,-151 11,-36 24,-51 9,-54 -15,-3 -58,8 -76,-43 -19,-50 -14,-160 -15,-493 -1,-333 -9,-888 -31,-1441 -22,-553 -58,-1103 -101,-1270 -43,-168 -93,48 -147,417 -54,370 -111,893 -137,1401 -25,508 -19,999 -17,1245 2,246 -1,246 -21,246 -20,0 -58,0 -73,11 -15,11 -8,34 8,63 15,29 38,64 50,111 12,48 15,108 -20,145 -35,38 -108,53 -188,60 -80,8 -168,8 -228,-1 -60,-9 -93,-26 -110,-71 -18,-45 -20,-118 -21,-163 -1,-45 -1,-63 -19,-74 -18,-11 -53,-16 -93,-20 -40,-4 -85,-6 -106,-90 -21,-84 -19,-249 -1,-822 18,-573 50,-1553 71,-2090 21,-536 31,-629 28,-677 -4,-48 -21,-50 -44,-49 -23,1 -50,6 -44,-228 6,-234 46,-706 73,-1068 26,-361 39,-611 30,-739 -9,-128 -39,-133 -85,-91 -46,41 -109,129 -204,301 -95,173 -223,430 -326,704 -104,274 -184,564 -229,795 -45,231 -55,404 -71,516 -16,113 -39,165 -73,205 -34,40 -79,68 -134,84 -55,16 -120,21 -161,-24 -41,-45 -59,-140 -55,-309 4,-169 29,-411 78,-708 49,-296 121,-646 220,-970 99,-324 224,-621 359,-854 135,-233 280,-400 436,-538 156,-138 324,-245 454,-316 130,-71 223,-106 279,-148 56,-41 76,-89 90,-150 14,-61 21,-136 -5,-205 -26,-69 -86,-131 -133,-249 -46,-118 -79,-290 -76,-441 3,-151 40,-281 94,-376 54,-95 124,-155 205,-203 81,-48 174,-83 246,-96 73,-14 125,-6 195,8z"/>
  <path class="fil1" d="M11285 4022c-11,94 -23,279 -36,478 -13,199 -26,411 -40,534 -14,123 -29,155 -62,168 -33,13 -84,5 -107,-111 -23,-116 -18,-340 -11,-528 7,-189 15,-343 24,-442 9,-99 19,-144 41,-172 22,-28 55,-38 94,-39 39,-2 82,4 100,9 17,5 8,9 -3,103z"/>
  <path class="fil2" d="M10051 4719c40,9 86,39 103,82 18,43 9,99 -6,143 -15,44 -35,77 -62,85 -27,8 -61,-9 -89,-41 -27,-32 -47,-79 -56,-124 -9,-45 -5,-89 14,-116 19,-27 55,-38 96,-29z"/>
  <path class="fil2" d="M10324 4229c33,-14 59,39 62,90 3,51 -16,100 -49,114 -33,14 -80,-6 -83,-58 -3,-51 37,-133 70,-147z"/>
  <path class="fil2" d="M9862 4161c19,25 38,95 28,146 -10,51 -49,84 -74,80 -26,-4 -39,-44 -39,-85 0,-42 13,-85 29,-116 16,-31 36,-50 56,-25z"/>
  <path class="fil2" d="M10182 5690c53,-1 103,-4 131,7 28,11 33,34 34,67 2,33 0,75 -23,97 -23,22 -67,24 -110,25 -43,1 -87,1 -118,-23 -31,-24 -51,-73 -62,-106 -11,-33 -13,-49 13,-57 26,-8 81,-8 134,-9z"/>
  <path class="fil2" d="M10283 6064c24,126 69,367 105,543 36,176 62,288 72,350 10,63 4,76 -28,173 -32,96 -89,275 -122,353 -33,78 -40,54 -80,-28 -40,-81 -113,-220 -147,-300 -34,-80 -31,-101 -10,-297 21,-196 58,-566 84,-751 26,-184 39,-183 53,-184 14,-1 28,-3 36,0 9,4 12,14 37,140z"/>
  <g id="_2208482992464">
   <path class="fil3" d="M10492 3288c25,-32 831,-994 728,-1037 -21,-9 -599,109 -776,145 13,-976 126,-885 -675,-204 -128,-121 -467,-461 -643,-554 -4,-8 -8,-13 -10,-15l-7 7c-38,-18 -67,-22 -82,-6 -30,32 -16,63 5,88l0 0 3 3 3 4c227,657 131,382 331,948 -278,-85 -970,-295 -1008,-236 -42,66 569,693 720,851 -840,599 -868,400 243,796l0 0c-528,-241 -286,-135 -774,-343 144,-97 610,-412 620,-429 28,-47 -394,-514 -611,-750 305,97 899,282 942,236 39,-41 -143,-574 -271,-906 650,591 418,573 1124,-59 1,202 3,621 10,637 29,62 554,-76 769,-132 -402,585 -205,292 -641,956z"/>
  </g>
  <polyline class="fil4" points="10492,3288 11207,2281 10401,2447 10401,1722 9767,2266 9072,1667 9092,1687 9460,2755 8402,2457 9137,3288 8493,3742 9324,4079 "/>
  <path class="fil5" d="M2089 5958c-85,54 -179,116 -320,165 -140,49 -327,85 -403,108 -76,23 -43,32 -1,49 42,17 92,41 163,93 70,52 160,133 216,190 55,57 76,91 91,116 16,25 26,42 31,4 4,-38 2,-130 19,-217 17,-86 53,-167 103,-235 50,-68 115,-125 216,-192 100,-67 237,-143 378,-220 142,-77 289,-154 443,-209 154,-55 315,-89 442,-94 127,-5 221,17 323,84 102,67 213,177 313,339 101,162 192,376 267,594 75,218 135,440 217,606 82,166 188,277 387,330 200,52 494,46 710,-5 216,-52 353,-149 460,-358 107,-209 186,-530 196,-817 11,-287 -46,-541 -160,-737 -114,-196 -286,-336 -521,-446 -235,-110 -535,-190 -887,-167 -353,23 -759,151 -1064,253 -306,103 -511,181 -725,280 -214,99 -438,219 -587,302 -149,83 -224,129 -309,183z"/>
  <path class="fil1" d="M2803 4371c88,65 159,173 196,283 37,111 41,223 25,313 -16,90 -50,156 -65,203 -15,47 -10,74 33,109 43,35 125,79 223,124 99,46 214,94 344,189 130,95 274,237 366,339 92,102 133,165 192,295 59,131 136,330 179,514 43,184 53,352 44,490 -8,138 -35,246 -44,334 -10,88 -2,155 32,256 35,101 97,235 190,390 92,155 215,330 312,431 97,101 169,127 216,148 47,20 68,35 78,77 10,42 7,112 2,190 -5,79 -12,166 -40,228 -28,62 -76,100 -149,114 -73,14 -172,4 -246,-14 -74,-19 -125,-47 -131,-78 -6,-31 32,-66 61,-98 29,-32 48,-61 42,-98 -6,-37 -37,-83 -91,-150 -54,-67 -131,-156 -215,-277 -84,-121 -175,-275 -261,-420 -85,-145 -165,-282 -217,-396 -53,-114 -79,-205 -147,-263 -67,-58 -175,-82 -317,-80 -142,1 -317,28 -431,50 -114,23 -167,42 -193,78 -26,36 -26,89 -6,187 20,98 61,243 121,376 60,133 139,256 204,336 65,80 115,119 139,171 24,52 22,117 -7,173 -29,56 -84,105 -144,132 -60,28 -125,35 -197,25 -72,-10 -151,-36 -192,-70 -41,-34 -43,-74 -25,-106 18,-31 56,-53 66,-80 10,-28 -10,-61 -50,-144 -41,-83 -103,-215 -160,-340 -56,-125 -107,-243 -153,-384 -46,-142 -86,-307 -95,-428 -8,-120 16,-195 89,-246 73,-52 196,-80 317,-98 121,-18 241,-25 340,-38 98,-13 175,-32 190,-101 14,-68 -34,-186 -67,-280 -34,-94 -53,-163 -70,-217 -17,-54 -31,-92 -50,-79 -19,13 -43,78 -70,151 -26,73 -55,155 -103,207 -48,52 -115,73 -179,64 -64,-10 -124,-50 -189,-115 -65,-65 -135,-154 -192,-246 -58,-92 -103,-189 -138,-268 -35,-79 -59,-142 -68,-201 -10,-59 -5,-114 8,-163 13,-49 35,-92 61,-123 26,-30 58,-47 100,-56 42,-10 95,-12 123,2 28,14 30,46 22,73 -8,28 -28,52 -37,73 -10,22 -10,41 0,66 10,25 29,56 55,83 26,26 60,48 85,30 25,-18 42,-76 50,-138 8,-62 8,-130 17,-180 8,-50 25,-84 36,-119 11,-35 16,-71 8,-105 -7,-34 -26,-65 -62,-90 -36,-25 -89,-44 -142,-82 -53,-37 -106,-92 -165,-173 -59,-80 -124,-186 -151,-292 -28,-106 -18,-211 12,-293 30,-82 80,-139 122,-174 41,-34 73,-45 75,-74 2,-29 -26,-75 -32,-106 -5,-30 12,-44 29,-47 18,-3 36,5 59,-11 23,-16 50,-57 61,-36 11,21 6,104 14,142 8,38 30,30 94,37 64,7 169,29 258,94z"/>
  <path class="fil2" d="M2136 4807c29,-8 90,-12 138,-16 48,-4 84,-8 110,1 27,9 44,30 46,59 1,28 -14,63 -42,93 -28,30 -69,57 -103,71 -33,15 -59,18 -78,10 -18,-8 -30,-28 -41,-51 -11,-23 -23,-48 -32,-71 -9,-23 -16,-44 -21,-60 -5,-16 -7,-29 22,-37z"/>
  <path class="fil1" d="M5135 5632c30,8 82,4 124,6 42,2 74,9 90,28 16,19 16,50 17,85 0,35 1,73 -14,86 -16,13 -48,2 -83,-1 -35,-3 -73,2 -112,11 -38,9 -77,22 -106,39 -28,17 -47,38 -50,63 -3,26 8,56 30,80 22,24 54,41 100,47 46,6 105,1 157,3 52,2 98,10 139,25 41,14 78,35 111,64 34,30 64,68 85,106 21,38 31,74 35,112 4,38 1,78 -13,118 -14,41 -38,83 -72,118 -34,35 -76,63 -98,83 -22,20 -24,32 -22,46 2,13 8,28 15,47 6,19 13,44 16,64 3,20 3,37 -15,52 -17,15 -52,28 -77,22 -26,-6 -42,-30 -52,-53 -10,-23 -13,-46 -21,-63 -8,-17 -20,-27 -38,-30 -17,-3 -40,1 -78,5 -38,4 -92,7 -130,7 -38,0 -62,-2 -72,-21 -11,-19 -9,-53 -8,-83 1,-29 2,-53 2,-73 0,-19 0,-34 22,-36 22,-2 67,8 106,10 39,2 73,-3 106,-10 33,-7 66,-17 93,-35 27,-18 50,-45 57,-72 8,-28 1,-57 -34,-82 -35,-25 -99,-47 -161,-62 -62,-15 -122,-23 -165,-33 -43,-10 -68,-23 -96,-46 -28,-23 -60,-57 -84,-91 -23,-34 -37,-67 -48,-103 -10,-35 -17,-72 -18,-106 -2,-34 1,-66 19,-101 18,-35 51,-73 78,-98 27,-25 48,-38 61,-49 13,-11 17,-20 16,-42 -1,-23 -7,-59 -6,-85 1,-26 10,-40 29,-53 20,-12 50,-23 71,-27 21,-4 32,-2 37,12 5,14 5,39 9,62 4,23 12,44 43,52z"/>
 </g>
</svg>
