<?xml version="1.0" encoding="UTF-8"?>
<!DOCTYPE svg PUBLIC "-//W3C//DTD SVG 1.1//EN" "http://www.w3.org/Graphics/SVG/1.1/DTD/svg11.dtd">
<!-- Creator: CorelDRAW 2017 -->
<svg xmlns="http://www.w3.org/2000/svg" xml:space="preserve" width="143mm" height="143mm" version="1.1" style="shape-rendering:geometricPrecision; text-rendering:geometricPrecision; image-rendering:optimizeQuality; fill-rule:evenodd; clip-rule:evenodd"
viewBox="0 0 14300 14300"
 xmlns:xlink="http://www.w3.org/1999/xlink">
 <defs>
  <style type="text/css">
   <![CDATA[
    .fil4 {fill:black}
    .fil0 {fill:black}
    .fil2 {fill:#3D9984}
    .fil3 {fill:#4D4D4D}
    .fil5 {fill:white}
    .fil1 {fill:white}
   ]]>
  </style>
 </defs>
 <g id="Слой_x0020_1">
  <metadata id="CorelCorpID_0Corel-Layer"/>
  <path class="fil0" d="M5360 2012c75,107 144,267 173,413 29,146 16,278 -25,426 -41,148 -112,311 -185,429 -73,117 -148,189 -240,246 -92,57 -200,100 -269,141 -69,41 -98,79 -94,128 4,49 41,107 80,227 39,120 81,301 117,405 36,103 66,129 -116,129 -182,0 -574,-26 -750,-133 -176,-106 -135,-292 -83,-432 52,-139 114,-232 152,-320 38,-88 51,-171 22,-263 -29,-93 -100,-196 -134,-341 -34,-145 -30,-332 30,-539 60,-207 176,-434 313,-578 137,-144 294,-205 427,-216 133,-11 242,27 336,73 94,46 174,100 249,207z"/>
  <path class="fil0" d="M5610 2126c49,89 94,208 97,315 2,107 -38,202 -50,261 -12,58 3,79 -19,90 -22,10 -83,10 -213,-52 -130,-62 -330,-185 -457,-256 -127,-71 -180,-90 -256,-59 -76,31 -174,113 -283,169 -109,56 -228,88 -348,96 -121,9 -243,-5 -358,-58 -115,-53 -223,-145 -329,-315 -106,-169 -210,-415 -251,-571 -41,-155 -17,-219 -5,-236 12,-17 13,13 36,52 23,38 68,85 99,94 30,9 45,-20 56,-66 11,-46 17,-109 41,-174 24,-65 66,-133 109,-200 43,-67 87,-134 89,-120 1,14 -41,108 -54,174 -13,66 4,105 29,136 25,31 59,55 84,33 25,-22 40,-90 65,-148 25,-58 60,-106 68,-102 8,4 -11,60 -5,130 7,70 40,153 105,203 65,50 162,67 272,73 110,6 232,-1 361,-17 129,-16 265,-42 390,-21 125,20 240,86 305,143 65,57 80,104 90,138 10,34 16,54 44,65 29,11 81,14 133,44 53,30 106,88 155,177z"/>
  <path class="fil1" d="M5143 3239c-9,19 -57,85 -127,143 -70,58 -162,109 -246,117 -85,7 -162,-30 -206,-87 -44,-57 -55,-135 -61,-223 -5,-88 -5,-187 2,-207 7,-19 20,42 44,106 24,64 59,132 112,178 54,47 126,73 188,74 62,1 114,-22 152,-37 38,-15 63,-23 91,-40 28,-17 60,-43 51,-24z"/>
  <path class="fil0" d="M4626 3894c80,-10 191,39 295,88 104,49 201,99 273,171 71,71 117,164 179,311 62,147 141,348 206,498 65,150 117,250 200,332 83,82 198,147 324,206 126,59 264,114 394,176 130,63 251,134 342,205 91,70 150,139 186,239 36,100 47,232 41,328 -7,96 -32,156 -53,178 -20,22 -35,5 -83,-39 -48,-44 -128,-116 -160,-184 -32,-68 -16,-132 -85,-210 -69,-78 -222,-170 -389,-241 -167,-71 -348,-120 -513,-202 -165,-82 -313,-195 -426,-322 -113,-127 -190,-266 -250,-357 -60,-91 -102,-133 -175,-179 -73,-46 -175,-96 -236,-56 -61,40 -81,169 -112,203 -31,34 -73,-27 -109,-139 -35,-113 -64,-277 -67,-429 -3,-152 20,-291 55,-395 36,-104 84,-172 164,-181z"/>
  <path class="fil0" d="M4063 3777c-80,-2 -186,56 -285,114 -99,59 -191,117 -256,195 -64,78 -101,174 -149,326 -48,152 -108,359 -159,515 -51,156 -94,260 -169,349 -75,89 -184,164 -304,235 -120,71 -253,137 -372,199 -120,61 -226,117 -305,186 -79,68 -130,149 -159,241 -28,92 -34,195 -21,275 13,80 44,138 66,157 22,20 36,2 79,-47 43,-48 117,-127 148,-183 31,-56 19,-89 78,-149 59,-60 190,-146 343,-222 153,-76 329,-142 486,-238 157,-96 294,-223 395,-360 101,-136 165,-283 209,-377 44,-94 68,-136 130,-174 62,-38 163,-72 235,-40 72,32 115,130 154,147 40,17 76,-48 101,-163 25,-115 38,-282 27,-433 -11,-152 -46,-288 -91,-388 -45,-100 -100,-163 -180,-165z"/>
  <path class="fil2" d="M3393 9598c763,34 1990,102 2744,200 754,98 1034,226 1147,357 114,131 61,265 56,399 -4,134 40,268 177,350 137,82 366,110 723,147 357,36 841,80 1459,149 618,69 1370,163 1848,263 478,100 681,207 918,349 236,142 506,321 624,564 118,243 85,551 -52,729 -138,178 -380,227 -778,247 -398,20 -953,11 -1633,-25 -680,-37 -1485,-101 -2069,-169 -584,-68 -947,-140 -1154,-253 -207,-113 -257,-269 -305,-424 -47,-155 -92,-311 -158,-417 -67,-106 -156,-163 -353,-195 -198,-32 -503,-40 -1010,-70 -507,-30 -1214,-81 -1813,-139 -599,-58 -1090,-123 -1411,-247 -322,-124 -474,-308 -629,-549 -155,-240 -314,-537 -344,-753 -30,-216 68,-352 198,-429 130,-78 292,-98 522,-108 231,-10 530,-9 1294,26z"/>
  <path class="fil0" d="M4079 7588c-33,351 -114,958 -171,1366 -57,408 -90,617 -136,810 -45,194 -103,373 -114,483 -11,110 24,152 114,203 90,50 234,109 354,151 120,42 217,67 267,42 50,-25 54,-100 31,-167 -23,-67 -72,-127 -121,-187 -49,-60 -98,-120 -121,-205 -23,-85 -21,-194 43,-442 64,-248 189,-634 277,-1005 88,-372 140,-729 157,-982 16,-253 -2,-401 -105,-485 -103,-84 -289,-105 -374,-67 -85,38 -70,134 -103,485z"/>
  <path class="fil0" d="M4868 7441c-13,381 -74,1110 -90,1566 -16,456 13,639 50,785 38,146 84,255 84,344 0,89 -47,159 -136,212 -89,53 -220,90 -336,99 -116,9 -216,-10 -264,-47 -49,-37 -46,-92 -9,-146 37,-54 109,-109 165,-161 56,-52 96,-102 111,-191 16,-89 8,-216 -22,-390 -29,-174 -79,-396 -118,-653 -40,-257 -69,-549 -75,-851 -6,-302 10,-613 42,-784 31,-171 77,-203 169,-219 92,-15 230,-15 317,3 87,17 123,51 110,432z"/>
  <path class="fil3" d="M4726 3825c95,46 189,92 226,154 36,61 15,137 -11,344 -26,207 -56,545 -53,759 2,213 37,301 125,421 88,120 230,272 458,434 228,163 541,336 782,430 241,94 408,108 576,121 57,48 115,97 172,145 34,207 69,415 88,527 19,112 22,129 -18,194 -40,64 -122,176 -253,363 -131,187 -312,450 -542,673 -230,222 -511,404 -834,528 -323,125 -689,193 -1035,181 -346,-12 -672,-105 -1054,-307 -382,-202 -820,-513 -1120,-736 -300,-223 -461,-357 -597,-484 -137,-127 -249,-245 -311,-312 -62,-66 -75,-81 -42,-118 33,-37 113,-96 202,-171 89,-75 187,-165 286,-250 99,-84 198,-163 296,-242 41,49 81,98 219,101 138,3 373,-40 555,-156 182,-116 310,-305 465,-508 155,-203 338,-421 439,-638 101,-217 121,-434 133,-546 12,-113 17,-121 21,-258 4,-137 6,-402 35,-542 29,-140 84,-155 140,-169 10,34 20,68 40,101 20,33 50,66 110,101 60,35 150,72 239,49 89,-23 177,-106 265,-189z"/>
  <path class="fil0" d="M9888 3978c-134,104 -244,273 -286,470 -42,197 -16,421 50,602 66,181 172,319 267,388 95,70 180,71 227,116 47,44 55,132 46,185 -9,53 -35,73 -81,118 -46,45 -111,116 -144,249 -34,133 -36,329 -39,525 31,191 62,381 73,580 11,198 1,405 -19,531 -21,126 -53,171 -110,266 -57,95 -141,240 -256,528 -116,288 -264,718 -320,1147 -56,429 -20,855 16,1229 36,374 73,695 79,867 6,171 -19,193 -109,215 -89,22 -243,45 -353,104 -110,59 -176,153 -187,225 -12,72 31,122 169,151 138,28 372,35 580,22 208,-13 390,-45 507,-96 116,-51 167,-121 166,-326 -1,-205 -53,-547 -75,-925 -22,-379 -14,-795 23,-1130 38,-336 105,-591 152,-723 47,-132 74,-142 69,1 -4,143 -40,440 56,827 95,387 322,865 458,1179 137,314 184,464 184,562 0,98 -48,145 -93,201 -45,56 -88,121 -141,211 -53,90 -115,203 -92,294 23,91 132,158 252,176 120,18 251,-12 367,-108 116,-96 216,-258 291,-372 74,-114 123,-181 145,-257 22,-76 19,-163 -37,-344 -56,-181 -166,-458 -282,-772 -116,-313 -239,-663 -254,-992 -14,-329 80,-638 159,-860 79,-222 142,-357 163,-568 21,-211 -1,-497 -21,-728 -20,-232 -39,-409 -65,-647 -26,-237 -60,-535 -67,-741 -6,-206 14,-321 -34,-400 -49,-79 -167,-122 -247,-152 -79,-30 -120,-48 -150,-93 -30,-46 -50,-119 -59,-175 -8,-55 -5,-92 22,-142 27,-49 78,-111 128,-203 50,-92 98,-215 115,-361 17,-146 3,-315 -61,-473 -64,-158 -179,-304 -309,-395 -130,-91 -277,-126 -429,-124 -152,1 -310,39 -444,142z"/>
  <path class="fil4" d="M11879 5104c-12,105 2,306 42,403 39,96 103,87 136,111 33,23 37,79 33,187 -3,109 -13,270 -12,388 2,118 14,192 -14,210 -29,17 -99,-22 -226,-112 -126,-90 -308,-230 -431,-314 -123,-84 -187,-113 -252,-141 -25,165 -49,329 -51,492 -1,163 20,324 56,399 36,75 87,63 215,114 129,51 335,164 529,259 194,94 375,169 480,156 105,-14 135,-116 158,-217 23,-102 39,-203 42,-342 3,-139 -8,-316 -14,-507 -6,-191 -6,-397 -28,-614 -22,-217 -65,-446 -165,-546 -99,-100 -254,-71 -351,-53 -97,18 -136,25 -149,130z"/>
  <path class="fil4" d="M12508 5298c-5,-44 -12,-121 -12,-191 0,-71 8,-135 23,-186 15,-50 37,-87 57,-111 20,-25 38,-37 50,-50 11,-13 16,-26 10,-39 -6,-13 -23,-27 -48,-33 -25,-6 -58,-5 -95,11 -37,16 -78,46 -109,85 -31,40 -50,89 -65,138 -15,49 -25,99 -26,149 -1,50 7,102 23,146 16,45 40,84 65,113 26,29 53,48 70,60 18,12 26,16 36,11 10,-5 22,-19 26,-32 5,-13 2,-26 -3,-70z"/>
  <path class="fil4" d="M8180 4946c-7,15 -4,39 30,77 34,39 99,93 157,149 57,56 107,115 133,160 26,45 29,77 30,114 1,37 -1,80 2,135 2,55 8,122 13,215 6,94 11,215 37,305 27,91 74,151 127,182 53,31 111,32 167,-2 56,-34 109,-102 129,-167 20,-65 7,-127 -2,-188 -9,-61 -12,-120 -18,-160 -5,-40 -12,-62 -2,-100 10,-38 36,-94 65,-130 29,-36 60,-53 90,-84 30,-31 59,-76 72,-124 13,-49 10,-101 4,-149 -6,-48 -15,-90 -20,-123 -5,-33 -6,-55 -11,-72 -5,-16 -14,-26 -34,-19 -20,7 -51,31 -62,64 -12,33 -4,76 -1,113 3,38 0,71 -13,95 -13,24 -35,38 -58,50 -23,12 -46,21 -69,18 -23,-3 -44,-18 -60,-38 -15,-20 -25,-45 -33,-72 -8,-27 -16,-57 -7,-94 9,-37 34,-81 52,-106 18,-25 29,-32 56,-26 26,5 67,22 92,31 25,9 35,10 42,6 8,-4 14,-11 17,-22 3,-10 4,-23 -8,-36 -12,-13 -37,-25 -70,-41 -34,-15 -76,-33 -107,-40 -30,-7 -48,-2 -77,24 -29,27 -68,75 -95,84 -27,9 -41,-22 -48,-52 -8,-30 -9,-60 3,-109 12,-49 37,-116 54,-157 17,-42 25,-58 24,-72 -1,-14 -10,-26 -24,-32 -14,-6 -32,-7 -57,23 -25,30 -57,90 -80,146 -23,56 -38,107 -42,147 -4,39 4,66 11,90 7,25 13,48 12,63 -1,15 -10,22 -28,-5 -18,-27 -46,-89 -65,-130 -19,-41 -30,-62 -35,-96 -5,-35 -5,-84 -9,-113 -4,-29 -13,-39 -25,-41 -12,-2 -27,2 -38,11 -11,9 -18,22 -22,56 -4,33 -6,86 -2,127 5,41 16,71 29,103 13,32 27,66 46,104 18,38 41,79 43,90 2,12 -16,-6 -58,-44 -42,-37 -108,-94 -149,-126 -40,-32 -54,-38 -69,-38 -15,1 -31,8 -38,24z"/>
  <path class="fil4" d="M9031 6077c11,68 19,123 26,169 7,45 13,81 26,102 13,22 32,29 86,25 54,-4 144,-21 246,-61 103,-41 219,-106 310,-161 92,-56 158,-102 210,-141 52,-40 88,-74 125,-107 38,-33 76,-65 121,-97 45,-31 96,-62 135,-34 39,28 65,114 92,223 27,109 56,242 43,339 -12,97 -65,159 -88,250 -23,91 -16,212 -23,273 -7,60 -28,60 -48,58 -20,-2 -38,-4 -55,-8 -17,-4 -31,-8 -53,-18 -22,-10 -51,-25 -69,-63 -18,-38 -24,-99 -48,-121 -23,-22 -64,-4 -144,37 -81,41 -202,105 -337,153 -136,47 -287,77 -412,85 -125,8 -224,-7 -299,-36 -75,-29 -126,-72 -166,-134 -40,-62 -70,-142 -89,-239 -19,-96 -27,-209 -36,-321 -10,-113 -21,-225 -30,-328 -9,-102 -15,-195 8,-251 23,-56 74,-77 135,-81 61,-4 133,8 183,22 50,14 78,30 91,42 13,12 11,21 9,35 -2,14 -3,32 0,59 2,27 8,64 17,123 9,59 23,139 33,207z"/>
  <path class="fil5" d="M10504 4900c-37,39 -86,99 -150,132 -64,33 -142,38 -208,33 -66,-4 -120,-18 -164,-41 -44,-23 -77,-55 -110,-92 -33,-37 -66,-80 -76,-75 -10,5 4,56 32,123 28,67 70,150 128,209 58,59 133,94 197,101 65,7 120,-14 176,-53 56,-39 112,-97 151,-152 39,-55 61,-108 77,-151 16,-42 25,-74 17,-82 -8,-8 -34,9 -71,48z"/>
  <path class="fil5" d="M11709 3329c-10,41 -25,154 -48,237 -23,83 -53,136 -91,174 -38,38 -85,63 -124,78 -39,16 -70,23 -56,34 14,11 74,25 114,46 39,21 57,49 72,98 15,49 27,120 34,197 7,77 10,161 13,244 3,83 7,164 10,191 4,26 7,-2 13,-67 6,-65 14,-166 34,-256 20,-90 51,-169 90,-234 39,-65 86,-115 121,-143 36,-28 61,-32 53,-47 -8,-14 -48,-38 -80,-68 -32,-30 -55,-66 -76,-126 -22,-60 -42,-144 -52,-204 -10,-60 -10,-96 -12,-130 -2,-34 -5,-65 -15,-24z"/>
  <path class="fil5" d="M9439 1815c-14,61 -37,230 -71,354 -34,124 -79,203 -136,260 -57,57 -127,93 -186,117 -58,23 -105,34 -83,50 22,16 111,38 170,69 58,31 85,73 108,146 23,74 41,179 52,295 11,116 15,241 19,365 5,124 10,246 16,285 5,39 11,-4 20,-101 9,-97 21,-248 51,-382 29,-135 76,-253 134,-350 58,-97 128,-172 182,-214 54,-41 91,-48 79,-70 -12,-22 -72,-57 -120,-102 -47,-45 -82,-99 -114,-188 -32,-90 -63,-215 -78,-305 -15,-90 -15,-144 -18,-194 -3,-50 -8,-97 -22,-36z"/>
 </g>
</svg>
